<?xml version="1.0" encoding="utf-8"?>
<!-- Generator: Adobe Illustrator 22.0.0, SVG Export Plug-In . SVG Version: 6.00 Build 0)  -->
<svg version="1.1" id="图层_1" xmlns="http://www.w3.org/2000/svg" xmlns:xlink="http://www.w3.org/1999/xlink" x="0px" y="0px"
	 viewBox="0 0 2268 565" style="enable-background:new 0 0 2268 565;" xml:space="preserve">
<style type="text/css">
	.st0{fill:#707070;}
	.st1{fill:#FFBB10;stroke:#FFBB10;stroke-width:2;}
	.st2{fill:#232323;}
</style>
<title>01</title>
<desc>Created with Sketch.</desc>
<g id="页面-1">
	<g id="Piraeus易拉宝" transform="translate(-179.000000, -1284.000000)">
		<g id="图层_2_1_" transform="translate(179.000000, 0.000000)">
			<g id="编组_1_" transform="translate(0.000000, 277.000000)">
				<g id="high-available_1_" transform="translate(228.000000, 1123.000000)">
					<g id="database-_x28_1_x29__1_">
						<g id="编组" transform="translate(0.523077, 0.592233)">
							<g id="Group-2_5_" transform="translate(140.394872, 123.951456)">
								<path id="Shape_11_" class="st0" d="M43.7,59.2c20.4,0,36.6-7,36.6-13.9h6.9l-0.1,25.5V71c-1.5,11.4-20.6,19.1-43.4,19.1
									S1.8,82.3,0.2,71v-0.2V45.2h6.9C7,52.2,23.2,59.2,43.7,59.2z M80.3,45.3h6.9c0,4.4-2.5,8.2-6.9,11.4V45.3z M43.7,65.9
									c-15.3,0-28.9-3.5-36.6-9.2v13.7c1.3,6.7,17.1,13.1,36.6,13.1s35.4-6.4,36.6-13.1V56.8C72.5,62.5,58.9,65.9,43.7,65.9z"/>
								<path id="Shape_10_" class="st0" d="M0.2,49.4V20.7h6.9c0,6.9,16.2,13.9,36.6,13.9s36.6-7,36.6-13.9h6.9v28.7h-0.9
									c-4.1,9.8-21.8,16.2-42.6,16.2S5.2,59.1,1.1,49.4H0.2z M43.7,41.3c-15.3,0-28.9-3.5-36.6-9.2v13.1v0.3
									C8,52.3,24,58.8,43.7,58.8s35.7-6.5,36.6-13.3v-0.3V32.1C72.6,37.8,59,41.3,43.7,41.3z"/>
								<path id="Oval_5_" class="st0" d="M43,42C19.3,42,0.1,33.5,0.1,21.2S19.2,0.4,43,0.4c24,0,44.2,8.6,44.2,20.8S67,42,43,42z
									 M43,35.3c20.6,0,37.3-7.1,37.3-14S63.6,7.3,43,7.3c-20.4,0-36,6.9-36,14C7,28.3,22.6,35.3,43,35.3z"/>
							</g>
							<g id="Group-2_4_" transform="translate(0.000000, 122.815534)">
								<path id="Shape_9_" class="st0" d="M44.3,60.3c20.4,0,36.6-7,36.6-13.9h6.9l-0.1,25.5v0.2c-1.5,11.4-20.6,19.1-43.4,19.1
									S2.4,83.4,0.8,72.1v-0.2V46.3h6.9C7.7,53.4,23.9,60.3,44.3,60.3z M81,46.5h6.9c0,4.4-2.5,8.2-6.9,11.4V46.5z M44.3,67.1
									c-15.3,0-28.9-3.5-36.6-9.2v13.7C9,78.3,24.8,84.7,44.3,84.7s35.4-6.4,36.6-13.1V58C73.2,63.6,59.6,67.1,44.3,67.1z"/>
								<path id="Shape_8_" class="st0" d="M1.7,50.5H0.8V21.8h6.9c0,6.9,16.2,13.9,36.6,13.9s36.6-7,36.6-13.9h6.9v28.7H87
									c-4.1,9.8-21.8,16.2-42.6,16.2S5.9,60.2,1.7,50.5z M44.3,42.4c-15.3,0-28.9-3.5-36.6-9.2v13.1v0.3
									c0.9,6.8,16.9,13.3,36.6,13.3S80,53.4,80.9,46.6v-0.3V33.2C73.2,38.9,59.6,42.4,44.3,42.4z"/>
								<path id="Oval_4_" class="st0" d="M43.7,42C20,42,0.8,33.5,0.8,21.2S19.9,0.4,43.7,0.4c24,0,44.2,8.6,44.2,20.8
									S67.7,42,43.7,42z M43.7,35.3c20.6,0,37.3-7.1,37.3-14s-16.7-14-37.3-14c-20.4,0-36,6.9-36,14C7.7,28.3,23.3,35.3,43.7,35.3
									z"/>
							</g>
							<g id="Group-2_3_" transform="translate(69.538462, 0.000000)">
								<path id="Shape_7_" class="st0" d="M43.5,59.7c20.4,0,36.6-7,36.6-13.9H87l-0.1,25.5v0.2c-1.5,11.4-20.6,19.1-43.4,19.1
									S1.6,82.8,0,71.5v-0.2V45.7h6.9C6.9,52.7,23.1,59.7,43.5,59.7z M80.2,45.8h6.9c0,4.4-2.5,8.2-6.9,11.4V45.8z M43.5,66.4
									c-15.3,0-28.9-3.5-36.6-9.2v13.7C8.2,77.6,24,84,43.5,84s35.4-6.4,36.6-13.1V57.3C72.4,62.9,58.8,66.4,43.5,66.4z"/>
								<path id="Shape_6_" class="st0" d="M0,49.8V21.1h6.9C6.9,28,23.1,35,43.5,35s36.6-7,36.6-13.9H87v28.7h-0.9
									C82,59.6,64.3,66,43.5,66S5,59.5,0.9,49.8H0z M43.5,41.7c-15.3,0-28.9-3.5-36.6-9.2v13.1v0.3c0.9,6.8,16.9,13.3,36.6,13.3
									s35.7-6.5,36.6-13.3v-0.3V32.5C72.4,38.2,58.8,41.7,43.5,41.7z"/>
								<path id="Oval_3_" class="st0" d="M42.9,42.5C19.2,42.5,0,34,0,21.7S19.1,0.9,42.9,0.9c24,0,44.2,8.6,44.2,20.8
									S66.9,42.5,42.9,42.5z M42.9,35.7c20.6,0,37.3-7.1,37.3-14s-16.7-14-37.3-14c-20.4,0-36,6.9-36,14S22.5,35.7,42.9,35.7z"/>
							</g>
							<path id="Path-5_3_" class="st0" d="M201.9,106.1c1.5-1.1,3.6-0.7,4.7,0.9c1.1,1.6,0.7,3.7-0.9,4.8l-10.8,7.5
								c-1.2,0.8-2.8,0.8-3.9-0.1l-9.8-7.5c-1.5-1.1-1.8-3.3-0.7-4.8s3.2-1.8,4.7-0.7l7.8,6L201.9,106.1z"/>
							<path id="Path-5_2_" class="st0" d="M41.5,106.1c1.5-1.1,3.6-0.7,4.7,0.9c1.1,1.6,0.7,3.7-0.9,4.8l-10.8,7.5
								c-1.2,0.8-2.8,0.8-3.9-0.1l-9.8-7.5c-1.5-1.1-1.8-3.3-0.7-4.8s3.2-1.8,4.7-0.7l7.8,6L41.5,106.1z"/>
							<path id="Path-3_3_" class="st0" d="M170.2,55.3c-1.9,0-3.4-1.5-3.4-3.4c0-1.9,1.5-3.4,3.4-3.4h22.9c1.9,0,3.4,1.5,3.4,3.4
								v64.6c0,1.9-1.5,3.4-3.4,3.4c-1.9,0-3.4-1.5-3.4-3.4V55.2L170.2,55.3L170.2,55.3z"/>
							<path id="Path-3_2_" class="st0" d="M36.2,55.3v61.3c0,1.9-1.5,3.4-3.4,3.4c-1.9,0-3.4-1.5-3.4-3.4V52c0-1.9,1.5-3.4,3.4-3.4
								h22.9c1.9,0,3.4,1.5,3.4,3.4s-1.5,3.4-3.4,3.4H36.2V55.3z"/>
						</g>
					</g>
				</g>
				<g transform="translate(675.000000, 1108.000000)">
					<polygon id="路径" class="st1" points="43,3.4 43,56.4 37,56.4 37,32.8 6.2,32.8 6.2,56.4 0.2,56.4 0.2,3.4 6.2,3.4 
						6.2,26.9 37,26.9 37,3.4 					"/>
					<path id="形状" class="st1" d="M61.2,1.8v7.8h-6.5V1.8H61.2z M54.9,16.3h6v40h-6V16.3z"/>
					<path id="形状_1_" class="st1" d="M103.2,22.7v-6.4h6v38.8c0,5.8-1.6,10.1-4.9,13.2c-3.3,3-7.7,4.5-13.2,4.5s-9.9-1.1-13-3.2
						s-5.2-5-6.4-8.5h6.6c1.7,4.2,5.6,6.2,11.7,6.2c4.6,0,8-1.1,10.1-3.2s3.1-5.3,3.1-9.4v-5.5c-3.3,4.7-8,7.1-14.3,7.1
						c-5.8,0-10.5-2-14.1-5.9c-3.5-3.8-5.3-8.6-5.3-14.4s1.8-10.6,5.3-14.4c3.6-3.9,8.5-5.9,14.5-5.9S100,18,103.2,22.7z M89.7,50.9
						c2.2,0,4.1-0.4,5.8-1.2s3.2-1.8,4.4-3.2c2.4-2.8,3.6-6.3,3.6-10.6s-1.2-7.8-3.6-10.6c-2.6-2.9-6-4.3-10.2-4.3
						c-4.3,0-7.8,1.4-10.4,4.3c-2.5,2.8-3.8,6.3-3.8,10.6s1.3,7.7,3.8,10.6C81.9,49.5,85.3,50.9,89.7,50.9z"/>
					<path id="路径_1_" class="st1" d="M126.2,0.3v22.2c1.4-1.9,3.2-3.5,5.3-4.9c2.1-1.3,4.5-2,7.1-2c2.6,0,5,0.4,6.9,1.1
						c1.9,0.7,3.6,1.9,5,3.4c3.3,3.3,5,7.5,5,12.9v23.3h-6V33.2c0-3.7-1-6.6-3.1-8.8c-2.1-2.2-4.8-3.3-8.1-3.3
						c-3.4,0-6.2,1.1-8.6,3.4c-2.3,2.3-3.5,5.2-3.5,8.8v23h-6v-56H126.2L126.2,0.3z"/>
					<path id="形状_2_" class="st1" d="M231.3,56.3h-6.6l-6.5-15.4H192l-6.5,15.4h-6.6l22.5-53h7.5L231.3,56.3z M215.9,35.5
						L205.1,9.7l-10.8,25.8H215.9z"/>
					<polygon id="路径_2_" class="st1" points="268.4,16.3 252.8,56.3 245.8,56.3 230.1,16.3 236.7,16.3 249.3,49.9 261.9,16.3 
											"/>
					<path id="形状_3_" class="st1" d="M305.3,49.9c-3.2,4.7-8,7-14.3,7c-5.8,0-10.5-2-14.1-6c-3.5-3.9-5.3-8.8-5.3-14.6
						s1.8-10.7,5.3-14.6c3.6-4,8.5-6,14.5-6s10.7,2.4,13.9,7.1v-6.5h6v40h-6V49.9z M291.8,51.5c4.3,0,7.7-1.5,10.2-4.5
						c2.4-2.8,3.6-6.4,3.6-10.7s-1.2-7.9-3.6-10.7c-2.5-3-5.9-4.5-10.2-4.5c-4.3,0-7.7,1.5-10.4,4.5c-2.5,2.8-3.8,6.4-3.8,10.7
						s1.3,7.9,3.8,10.7C284.1,50,287.5,51.5,291.8,51.5z"/>
					<path id="形状_4_" class="st1" d="M328.6,1.8v7.8h-6.5V1.8H328.6z M322.4,16.3h6v40h-6V16.3z"/>
					<polygon id="路径_3_" class="st1" points="345.4,56.3 339.4,56.3 339.4,0.3 345.4,0.3 					"/>
					<path id="形状_5_" class="st1" d="M387.6,49.9c-3.2,4.7-8,7-14.3,7c-5.8,0-10.5-2-14.1-6c-3.5-3.9-5.3-8.8-5.3-14.6
						s1.8-10.7,5.3-14.6c3.6-4,8.5-6,14.5-6s10.7,2.4,13.9,7.1v-6.5h6v40h-6V49.9L387.6,49.9z M374.1,51.5c4.3,0,7.7-1.5,10.2-4.5
						c2.4-2.8,3.6-6.4,3.6-10.7s-1.2-7.9-3.6-10.7c-2.5-3-5.9-4.5-10.2-4.5c-4.3,0-7.7,1.5-10.4,4.5c-2.5,2.8-3.8,6.4-3.8,10.7
						s1.3,7.9,3.8,10.7C366.4,50,369.9,51.5,374.1,51.5z"/>
					<path id="形状_6_" class="st1" d="M410.7,22.8c3.3-4.7,8-7.1,14.3-7.1c5.8,0,10.4,2,14,6c3.6,3.9,5.4,8.8,5.4,14.6
						S442.6,47,439,50.9c-3.6,4-8.4,6-14.4,6c-6.1,0-10.7-2.3-13.9-7v6.4h-6v-56h6V22.8L410.7,22.8z M424.2,51.5
						c4.3,0,7.7-1.5,10.4-4.5c2.5-2.8,3.8-6.4,3.8-10.7s-1.3-7.9-3.8-10.7c-2.7-3-6.1-4.5-10.4-4.5c-4.3,0-7.7,1.5-10.2,4.5
						c-2.4,2.8-3.6,6.4-3.6,10.7s1.2,7.9,3.6,10.7C416.5,50,419.9,51.5,424.2,51.5z"/>
					<path id="形状_7_" class="st1" d="M459.1,1.8v7.8h-6.5V1.8H459.1z M452.8,16.3h6v40h-6V16.3z"/>
					<polygon id="路径_4_" class="st1" points="475.9,56.3 469.9,56.3 469.9,0.3 475.9,0.3 					"/>
					<path id="形状_8_" class="st1" d="M493.2,1.8v7.8h-6.5V1.8H493.2z M486.9,16.3h6v40h-6V16.3z"/>
					<polygon id="路径_5_" class="st1" points="508.3,56.3 508.3,21.6 500.1,21.6 500.1,16.3 508.3,16.3 508.3,2 514.3,2 
						514.3,16.3 523.5,16.3 523.5,21.6 514.3,21.6 514.3,56.3 					"/>
					<polygon id="路径_6_" class="st1" points="541.3,72.2 534.8,72.2 542.1,55.8 525.8,16.4 532.4,16.4 545.3,49.2 558.4,16.4 
						565,16.4 					"/>
				</g>
				<g transform="translate(670.000000, 1235.000000)">
					<path id="路径_7_" class="st2" d="M9.7,11c-0.9,0.8-1.5,1.6-1.8,2.6c-0.3,0.9-0.5,1.9-0.5,3s0.5,2,1.4,2.9s2.1,1.6,3.6,2.2
						c1.5,0.6,3.2,1.1,5.1,1.6s3.9,0.9,5.8,1.4c2,0.5,3.9,1.1,5.8,1.7s3.6,1.4,5.1,2.4c3.3,2.1,5,5,5,8.6c0,4.3-1.6,7.7-4.9,9.9
						c-3.2,2.3-7.7,3.4-13.5,3.4c-6.5,0-11.4-1.4-14.8-4.1c-3-2.4-4.8-5.9-5.2-10.4h5.5c0.2,3.2,1.7,5.6,4.6,7.3
						c2.5,1.4,5.9,2.2,10,2.2c8.7,0,13-2.7,13-8.2c0-1.9-0.8-3.3-2.3-4.4c-1.6-1.1-3.5-2-5.9-2.7c-2.4-0.7-4.9-1.4-7.6-2
						s-5.3-1.4-7.6-2.3c-2.4-1-4.3-2.2-5.9-3.8C3,20.7,2.3,18.6,2.3,16c0-3.8,1.4-6.9,4.3-9.2c2.9-2.4,7.3-3.6,13.1-3.6
						c5.9,0,10.4,1.4,13.6,4.1c2.9,2.4,4.5,5.4,4.7,9.2h-5.4c-0.5-3.8-2.9-6.4-7.4-7.6c-1.6-0.5-3.6-0.7-5.9-0.7S15,8.5,13.4,9
						C11.9,9.5,10.6,10.2,9.7,11z"/>
					<path id="路径_8_" class="st2" d="M71.6,50.2v-5.5c-1.3,1.7-2.8,3.1-4.6,4.3s-3.9,1.8-6.2,1.8s-4.3-0.3-6-1s-3.2-1.6-4.4-2.9
						c-2.9-2.8-4.3-6.6-4.3-11.3V15.2h5.2v20.2c0,3.2,0.9,5.8,2.7,7.7c1.8,1.9,4.2,2.9,7.1,2.9c2.9,0,5.4-1,7.5-2.9
						c2.1-2,3.1-4.6,3.1-7.7V15.2h5.2v35H71.6L71.6,50.2z"/>
					<path id="形状_9_" class="st2" d="M91.2,20.8c2.8-4.1,7-6.2,12.5-6.2c5,0,9.1,1.8,12.2,5.2c3.1,3.5,4.7,7.7,4.7,12.8
						s-1.6,9.4-4.7,12.8c-3.1,3.5-7.3,5.2-12.6,5.2c-5.3,0-9.3-2.1-12.2-6.2v19.5H86V15h5.2V20.8z M103,19.4c-3.8,0-6.8,1.3-9,3.9
						c-2.1,2.5-3.2,5.6-3.2,9.4s1.1,6.9,3.2,9.4c2.2,2.6,5.2,3.9,9,3.9c3.7,0,6.8-1.3,9.1-3.9c2.2-2.5,3.3-5.6,3.3-9.4
						s-1.1-6.9-3.3-9.4C109.8,20.7,106.8,19.4,103,19.4z"/>
					<path id="形状_10_" class="st2" d="M132.8,20.8c2.8-4.1,7-6.2,12.5-6.2c5,0,9.1,1.8,12.2,5.2c3.1,3.5,4.7,7.7,4.7,12.8
						s-1.6,9.4-4.7,12.8c-3.1,3.5-7.3,5.2-12.6,5.2c-5.3,0-9.3-2.1-12.2-6.2v19.5h-5.2V15h5.2v5.8H132.8z M144.6,19.4
						c-3.8,0-6.8,1.3-9,3.9c-2.1,2.5-3.2,5.6-3.2,9.4s1.1,6.9,3.2,9.4c2.2,2.6,5.2,3.9,9,3.9c3.7,0,6.8-1.3,9.1-3.9
						c2.2-2.5,3.3-5.6,3.3-9.4s-1.1-6.9-3.3-9.4C151.4,20.7,148.3,19.4,144.6,19.4z"/>
					<path id="形状_11_" class="st2" d="M184.3,14.6c5.2,0,9.5,1.8,12.7,5.2c3.1,3.4,4.6,7.6,4.6,12.8s-1.5,9.5-4.6,12.8
						c-3.3,3.5-7.5,5.2-12.7,5.2s-9.5-1.8-12.7-5.2c-3.1-3.4-4.6-7.6-4.6-12.8s1.5-9.5,4.6-12.8C174.8,16.4,179.1,14.6,184.3,14.6z
						 M184.3,46c3.8,0,6.8-1.3,9-3.9c2.1-2.5,3.1-5.6,3.1-9.4s-1-6.9-3.1-9.4c-2.2-2.6-5.2-3.9-9-3.9s-6.8,1.3-9,3.9
						c-2.1,2.5-3.2,5.6-3.2,9.4s1,6.9,3.2,9.4C177.5,44.7,180.5,46,184.3,46z"/>
					<path id="路径_9_" class="st2" d="M227.1,14.6v5.2h-0.6c-3.8,0-6.9,1.5-9.2,4.6c-2.2,2.9-3.4,6.3-3.4,10.4v15.4h-5.2v-35h5.2
						v8.6c1.1-3.6,3.5-6.3,7.3-8c1.5-0.7,3.4-1.1,5.6-1.1L227.1,14.6L227.1,14.6z"/>
					<polygon id="路径_10_" class="st2" points="236.5,50.2 236.5,19.8 229.4,19.8 229.4,15.2 236.5,15.2 236.5,2.7 241.7,2.7 
						241.7,15.2 249.7,15.2 249.7,19.8 241.7,19.8 241.7,50.2 					"/>
					<path id="路径_11_" class="st2" d="M276.1,24.6c-0.5-3.6-3.4-5.5-8.8-5.5c-5.4,0-8.1,1.7-8.1,5c0,1.4,0.6,2.5,1.7,3.2
						c1.1,0.7,2.6,1.3,4.3,1.8c1.7,0.5,3.6,0.9,5.6,1.3s3.9,1,5.6,1.7c1.7,0.7,3.2,1.7,4.3,3c1.1,1.3,1.7,3,1.7,5.2
						c0,3.4-1.3,6-3.9,7.8c-2.6,1.8-6,2.7-10.4,2.7c-4.7,0-8.4-1.2-11.1-3.5c-2.5-2.1-3.9-4.7-4.1-8.1h5.5c0.3,3.2,2.1,5.4,5.5,6.5
						c1.2,0.4,2.4,0.6,3.6,0.6s2.3-0.1,3.3-0.2c1-0.1,2-0.4,3-0.8c2.2-0.9,3.4-2.4,3.4-4.6c0-1.4-0.6-2.6-1.7-3.3
						c-1.1-0.8-2.6-1.4-4.3-1.9c-1.7-0.5-3.6-0.9-5.6-1.3c-2-0.4-3.9-0.9-5.6-1.6c-1.7-0.7-3.2-1.7-4.3-2.9c-1.1-1.2-1.7-2.9-1.7-5
						c0-3.2,1.2-5.6,3.5-7.4c2.3-1.8,5.7-2.6,10.3-2.6c4.3,0,7.7,1,10.1,3.1c2.1,1.7,3.2,4,3.6,6.9h-5.4V24.6z"/>
					<polygon id="路径_12_" class="st2" points="324.2,3.9 324.2,50.2 319,50.2 319,8.9 309.2,8.9 309.2,3.9 					"/>
					<polygon id="路径_13_" class="st2" points="361.6,2.6 345.6,52.4 340.7,52.4 356.7,2.6 					"/>
					<path id="路径_14_" class="st2" d="M399.1,17.2c0,2-0.6,3.9-1.8,5.8c-1.2,1.9-2.7,3.6-4.5,5.2c-1.8,1.6-3.8,3.2-5.9,4.6
						c-2.1,1.4-4.1,2.9-6,4.2c-1.9,1.4-3.4,2.7-4.7,4.1c-1.3,1.3-2,2.7-2.1,4H399v5h-31.2v-2.9c0-2.3,0.6-4.4,1.9-6.3
						c1.3-1.9,2.9-3.7,4.8-5.3c1.9-1.7,4-3.2,6.3-4.7c2.3-1.5,4.3-3,6.3-4.4c1.9-1.5,3.5-3,4.8-4.6c1.3-1.5,1.9-3.2,1.9-5
						c0-2.7-0.9-4.8-2.7-6.4c-1.8-1.5-4.3-2.3-7.5-2.3c-3.2,0-5.8,0.7-7.7,2.1s-3.1,3.4-3.5,6h-5.2c0.4-3.9,2.1-7.1,5.1-9.5
						s6.7-3.6,11-3.6c4.9,0,8.8,1.3,11.7,3.9C397.7,9.7,399.1,13.1,399.1,17.2z"/>
					<polygon id="路径_15_" class="st2" points="426.1,2.6 410.1,52.4 405.2,52.4 421.2,2.6 					"/>
					<path id="路径_16_" class="st2" d="M455.2,25.5c2.7,1,4.8,2.6,6.3,4.6s2.2,4.2,2.2,6.5c0,2.3-0.4,4.3-1.2,6
						c-0.8,1.7-1.9,3.2-3.4,4.4c-3,2.6-6.7,3.9-11.1,3.9s-8.1-1.2-11.3-3.7c-3.1-2.5-4.9-5.6-5.2-9.1h5.3c0.4,2.1,1.6,4,3.7,5.5
						s4.6,2.2,7.5,2.2c3.2,0,5.8-0.8,7.8-2.5c1.8-1.6,2.7-3.6,2.7-6.1c0-2.4-0.9-4.5-2.8-6.2c-2-1.8-4.4-2.7-7.2-2.7h-5.3v-4.8h4.7
						c2.4,0,4.5-0.7,6.4-2.1c1.8-1.4,2.7-3.2,2.7-5.5c0-2.2-0.8-4-2.3-5.4s-3.8-2-6.8-2s-5.3,0.7-7,2c-1.7,1.3-2.7,2.8-3,4.6h-5.1
						c0.3-3.1,1.8-5.7,4.3-8c2.8-2.5,6.3-3.7,10.6-3.7c4.5,0,8,1.2,10.7,3.5c2.6,2.2,3.9,5.2,3.9,8.8c0,2.1-0.8,4.2-2.4,6.3
						C458.4,23.8,456.9,25,455.2,25.5z"/>
					<path id="路径_17_" class="st2" d="M505,14.6v5.2h-0.6c-3.8,0-6.9,1.5-9.2,4.6c-2.2,2.9-3.4,6.3-3.4,10.4v15.4h-5.2v-35h5.2
						v8.6c1.1-3.6,3.5-6.3,7.3-8c1.5-0.7,3.4-1.1,5.6-1.1L505,14.6L505,14.6z"/>
					<path id="形状_12_" class="st2" d="M525.4,46c4.7,0,8.1-2,10.1-5.9h5.7c-1.2,3.2-3.1,5.7-5.8,7.7c-2.6,2-6,2.9-10.2,2.9
						c-5.3,0-9.6-1.8-12.9-5.2c-3.2-3.4-4.8-7.7-4.8-12.8c0-5.2,1.5-9.5,4.6-12.8c3.3-3.5,7.5-5.2,12.7-5.2s9.5,1.8,12.7,5.2
						c3.1,3.4,4.6,7.6,4.6,12.8v2.1H513c0.4,3.2,1.7,5.9,3.9,8C519.1,44.9,522,46,525.4,46z M525,19.4c-3.2,0-5.9,1-8.1,3
						c-2.1,1.9-3.3,4.4-3.8,7.5h23.8c-0.5-3.1-1.7-5.6-3.8-7.5C530.9,20.4,528.2,19.4,525,19.4z"/>
					<path id="形状_13_" class="st2" d="M554,20.8c2.8-4.1,7-6.2,12.5-6.2c5,0,9.1,1.8,12.2,5.2c3.1,3.5,4.7,7.7,4.7,12.8
						s-1.6,9.4-4.7,12.8c-3.1,3.5-7.3,5.2-12.6,5.2c-5.3,0-9.3-2.1-12.2-6.2v19.5h-5.2V15h5.2L554,20.8L554,20.8z M565.9,19.4
						c-3.8,0-6.8,1.3-9,3.9c-2.1,2.5-3.2,5.6-3.2,9.4s1.1,6.9,3.2,9.4c2.2,2.6,5.2,3.9,9,3.9c3.7,0,6.8-1.3,9.1-3.9
						c2.2-2.5,3.3-5.6,3.3-9.4s-1.1-6.9-3.3-9.4C572.6,20.7,569.6,19.4,565.9,19.4z"/>
					<polygon id="路径_18_" class="st2" points="595.6,50.2 590.4,50.2 590.4,1.2 595.6,1.2 					"/>
					<path id="形状_14_" class="st2" d="M610.2,2.5v6.9h-5.7V2.5H610.2z M604.7,15.2h5.2v35h-5.2V15.2z"/>
					<path id="路径_19_" class="st2" d="M635.2,46c2.2,0,4.2-0.6,6-1.9c1.7-1.3,3-2.9,3.8-4.9h5.7c-1.1,3.5-3,6.2-5.9,8.3
						c-3,2.1-6.5,3.2-10.6,3.2c-5.1,0-9.3-1.8-12.5-5.2c-3.1-3.4-4.7-7.7-4.7-12.8s1.6-9.4,4.7-12.8c3.2-3.5,7.4-5.2,12.5-5.2
						c4.1,0,7.7,1.1,10.6,3.2c2.8,2.1,4.8,4.9,5.9,8.3H645c-0.8-2-2.1-3.6-3.8-4.9c-1.7-1.3-3.7-1.9-6-1.9c-2.2,0-4.1,0.3-5.7,1
						c-1.6,0.7-2.9,1.7-4,2.9c-2.3,2.5-3.4,5.6-3.4,9.4c0,3.7,1.1,6.9,3.4,9.4C627.9,44.7,631.1,46,635.2,46z"/>
					<path id="形状_15_" class="st2" d="M684.4,44.6c-2.8,4.1-7,6.2-12.5,6.2c-5,0-9.1-1.8-12.3-5.2c-3.1-3.5-4.6-7.7-4.6-12.8
						s1.5-9.4,4.6-12.8c3.2-3.5,7.4-5.2,12.7-5.2s9.3,2.1,12.2,6.2v-5.7h5.2v35h-5.2L684.4,44.6L684.4,44.6z M672.6,46
						c3.8,0,6.8-1.3,9-3.9c2.1-2.5,3.1-5.6,3.1-9.4s-1-6.9-3.1-9.4c-2.2-2.6-5.2-3.9-9-3.9c-3.7,0-6.8,1.3-9.1,3.9
						c-2.2,2.5-3.3,5.6-3.3,9.4s1.1,6.9,3.3,9.4C665.8,44.7,668.9,46,672.6,46z"/>
					<path id="路径_20_" class="st2" d="M719.4,24.6c-0.5-3.6-3.4-5.5-8.8-5.5c-5.4,0-8.1,1.7-8.1,5c0,1.4,0.6,2.5,1.7,3.2
						c1.1,0.7,2.6,1.3,4.3,1.8s3.6,0.9,5.6,1.3s3.9,1,5.6,1.7c1.7,0.7,3.2,1.7,4.3,3c1.1,1.3,1.7,3,1.7,5.2c0,3.4-1.3,6-3.9,7.8
						c-2.6,1.8-6,2.7-10.4,2.7c-4.7,0-8.4-1.2-11.1-3.5c-2.5-2.1-3.9-4.7-4.1-8.1h5.5c0.3,3.2,2.1,5.4,5.5,6.5
						c1.2,0.4,2.4,0.6,3.6,0.6s2.3-0.1,3.3-0.2c1-0.1,2-0.4,3-0.8c2.2-0.9,3.4-2.4,3.4-4.6c0-1.4-0.6-2.6-1.7-3.3
						c-1.1-0.8-2.6-1.4-4.3-1.9s-3.6-0.9-5.6-1.3c-2-0.4-3.9-0.9-5.6-1.6c-1.7-0.7-3.2-1.7-4.3-2.9c-1.1-1.2-1.7-2.9-1.7-5
						c0-3.2,1.2-5.6,3.5-7.4c2.3-1.8,5.7-2.6,10.3-2.6c4.3,0,7.7,1,10.1,3.1c2.1,1.7,3.2,4,3.6,6.9h-5.4V24.6z"/>
					<path id="路径_21_" class="st2" d="M762.5,5.6c-2.5,0-4.3,0.5-5.6,1.6c-1.2,1.1-1.9,2.9-1.9,5.3v2.7h8.1v4.6H755v30.4h-5.2
						V19.8h-6v-4.6h6v-3.1c0-3.8,1.1-6.7,3.4-8.6s5.5-2.9,9.5-2.9h0.4v5H762.5z"/>
					<path id="形状_16_" class="st2" d="M783.4,14.6c5.2,0,9.5,1.8,12.7,5.2c3.1,3.4,4.6,7.6,4.6,12.8s-1.5,9.5-4.6,12.8
						c-3.3,3.5-7.5,5.2-12.7,5.2c-5.2,0-9.5-1.8-12.7-5.2c-3.1-3.4-4.6-7.6-4.6-12.8s1.5-9.5,4.6-12.8
						C773.9,16.4,778.2,14.6,783.4,14.6z M783.4,46c3.8,0,6.8-1.3,9-3.9c2.1-2.5,3.1-5.6,3.1-9.4s-1-6.9-3.1-9.4
						c-2.2-2.6-5.2-3.9-9-3.9c-3.8,0-6.8,1.3-9,3.9c-2.1,2.5-3.2,5.6-3.2,9.4s1,6.9,3.2,9.4C776.7,44.7,779.6,46,783.4,46z"/>
					<path id="路径_22_" class="st2" d="M826.2,14.6v5.2h-0.6c-3.8,0-6.9,1.5-9.2,4.6c-2.2,2.9-3.4,6.3-3.4,10.4v15.4h-5.2v-35
						h5.2v8.6c1.1-3.6,3.5-6.3,7.3-8c1.5-0.7,3.4-1.1,5.6-1.1L826.2,14.6L826.2,14.6z"/>
					<path id="形状_17_" class="st2" d="M852,20.8c2.8-4.1,7-6.2,12.5-6.2c5,0,9.1,1.8,12.2,5.2c3.1,3.5,4.7,7.7,4.7,12.8
						s-1.6,9.4-4.7,12.8c-3.1,3.5-7.3,5.2-12.6,5.2c-5.3,0-9.3-2.1-12.2-6.2v19.5h-5.2V15h5.2L852,20.8L852,20.8z M863.8,19.4
						c-3.8,0-6.8,1.3-9,3.9c-2.1,2.5-3.2,5.6-3.2,9.4s1.1,6.9,3.2,9.4c2.2,2.6,5.2,3.9,9,3.9c3.7,0,6.8-1.3,9.1-3.9
						c2.2-2.5,3.3-5.6,3.3-9.4s-1.1-6.9-3.3-9.4C870.6,20.7,867.6,19.4,863.8,19.4z"/>
					<path id="形状_18_" class="st2" d="M904,46c4.7,0,8.1-2,10.1-5.9h5.7c-1.2,3.2-3.1,5.7-5.8,7.7c-2.6,2-6,2.9-10.2,2.9
						c-5.3,0-9.6-1.8-12.9-5.2c-3.2-3.4-4.8-7.7-4.8-12.8c0-5.2,1.5-9.5,4.6-12.8c3.3-3.5,7.5-5.2,12.7-5.2c5.2,0,9.5,1.8,12.7,5.2
						c3.1,3.4,4.6,7.6,4.6,12.8v2.1h-29.3c0.4,3.2,1.7,5.9,3.9,8C897.7,44.9,900.5,46,904,46z M903.5,19.4c-3.2,0-5.9,1-8.1,3
						c-2.1,1.9-3.3,4.4-3.8,7.5h23.8c-0.5-3.1-1.7-5.6-3.8-7.5C909.5,20.4,906.8,19.4,903.5,19.4z"/>
					<path id="路径_23_" class="st2" d="M945.8,14.6v5.2h-0.6c-3.8,0-6.9,1.5-9.2,4.6c-2.2,2.9-3.4,6.3-3.4,10.4v15.4h-5.2v-35
						h5.2v8.6c1.1-3.6,3.5-6.3,7.3-8c1.5-0.7,3.4-1.1,5.6-1.1L945.8,14.6L945.8,14.6z"/>
					<path id="路径_24_" class="st2" d="M972.1,24.6c-0.5-3.6-3.4-5.5-8.8-5.5c-5.4,0-8.1,1.7-8.1,5c0,1.4,0.6,2.5,1.7,3.2
						c1.1,0.7,2.6,1.3,4.3,1.8s3.6,0.9,5.6,1.3s3.9,1,5.6,1.7c1.7,0.7,3.2,1.7,4.3,3c1.1,1.3,1.7,3,1.7,5.2c0,3.4-1.3,6-3.9,7.8
						c-2.6,1.8-6,2.7-10.4,2.7c-4.7,0-8.4-1.2-11.1-3.5c-2.5-2.1-3.9-4.7-4.1-8.1h5.5c0.3,3.2,2.1,5.4,5.5,6.5
						c1.2,0.4,2.4,0.6,3.6,0.6s2.3-0.1,3.3-0.2c1-0.1,2-0.4,3-0.8c2.2-0.9,3.4-2.4,3.4-4.6c0-1.4-0.6-2.6-1.7-3.3
						c-1.1-0.8-2.6-1.4-4.3-1.9s-3.6-0.9-5.6-1.3c-2-0.4-3.9-0.9-5.6-1.6c-1.7-0.7-3.2-1.7-4.3-2.9c-1.1-1.2-1.7-2.9-1.7-5
						c0-3.2,1.2-5.6,3.5-7.4c2.3-1.8,5.7-2.6,10.3-2.6c4.3,0,7.7,1,10.1,3.1c2.1,1.7,3.2,4,3.6,6.9h-5.4V24.6z"/>
					<path id="形状_19_" class="st2" d="M990.7,2.5v6.9H985V2.5H990.7z M985.2,15.2h5.2v35h-5.2V15.2z"/>
					<path id="路径_25_" class="st2" d="M1020.2,24.6c-0.5-3.6-3.4-5.5-8.8-5.5c-5.4,0-8.1,1.7-8.1,5c0,1.4,0.6,2.5,1.7,3.2
						c1.1,0.7,2.6,1.3,4.3,1.8s3.6,0.9,5.6,1.3s3.9,1,5.6,1.7c1.7,0.7,3.2,1.7,4.3,3c1.1,1.3,1.7,3,1.7,5.2c0,3.4-1.3,6-3.9,7.8
						c-2.6,1.8-6,2.7-10.4,2.7c-4.7,0-8.4-1.2-11.1-3.5c-2.5-2.1-3.9-4.7-4.1-8.1h5.5c0.3,3.2,2.1,5.4,5.5,6.5
						c1.2,0.4,2.4,0.6,3.6,0.6c1.2,0,2.3-0.1,3.3-0.2c1-0.1,2-0.4,3-0.8c2.2-0.9,3.4-2.4,3.4-4.6c0-1.4-0.6-2.6-1.7-3.3
						c-1.1-0.8-2.6-1.4-4.3-1.9s-3.6-0.9-5.6-1.3c-2-0.4-3.9-0.9-5.6-1.6c-1.7-0.7-3.2-1.7-4.3-2.9c-1.1-1.2-1.7-2.9-1.7-5
						c0-3.2,1.2-5.6,3.5-7.4c2.3-1.8,5.7-2.6,10.3-2.6c4.3,0,7.7,1,10.1,3.1c2.1,1.7,3.2,4,3.6,6.9h-5.4V24.6z"/>
					<polygon id="路径_26_" class="st2" points="1037.1,50.2 1037.1,19.8 1030,19.8 1030,15.2 1037.1,15.2 1037.1,2.7 1042.3,2.7 
						1042.3,15.2 1050.3,15.2 1050.3,19.8 1042.3,19.8 1042.3,50.2 					"/>
					<path id="形状_20_" class="st2" d="M1071,46c4.7,0,8.1-2,10.1-5.9h5.7c-1.2,3.2-3.1,5.7-5.8,7.7c-2.6,2-6,2.9-10.2,2.9
						c-5.3,0-9.6-1.8-12.9-5.2c-3.2-3.4-4.8-7.7-4.8-12.8c0-5.2,1.5-9.5,4.6-12.8c3.3-3.5,7.5-5.2,12.7-5.2c5.2,0,9.5,1.8,12.7,5.2
						c3.1,3.4,4.6,7.6,4.6,12.8v2.1h-29.3c0.4,3.2,1.7,5.9,3.9,8C1064.7,44.9,1067.6,46,1071,46z M1070.6,19.4c-3.2,0-5.9,1-8.1,3
						c-2.1,1.9-3.3,4.4-3.8,7.5h23.8c-0.5-3.1-1.7-5.6-3.8-7.5C1076.5,20.4,1073.8,19.4,1070.6,19.4z"/>
					<path id="路径_27_" class="st2" d="M1099.7,15.2v5.5c1.3-1.7,2.8-3.1,4.6-4.3c1.8-1.2,3.9-1.8,6.2-1.8s4.3,0.3,6,1
						c1.7,0.7,3.2,1.6,4.4,2.9c2.9,2.8,4.3,6.6,4.3,11.3v20.4h-5.2V30c0-3.2-0.9-5.8-2.7-7.7c-1.8-1.9-4.2-2.9-7.1-2.9
						c-2.9,0-5.4,1-7.5,2.9c-2.1,2-3.1,4.6-3.1,7.7v20.2h-5.2v-35H1099.7z"/>
					<polygon id="路径_28_" class="st2" points="1137,50.2 1137,19.8 1129.9,19.8 1129.9,15.2 1137,15.2 1137,2.7 1142.2,2.7 
						1142.2,15.2 1150.2,15.2 1150.2,19.8 1142.2,19.8 1142.2,50.2 					"/>
					<polygon id="路径_29_" class="st2" points="1200.3,15.2 1186.7,50.2 1180.5,50.2 1166.8,15.2 1172.5,15.2 1183.6,44.6 
						1194.6,15.2 					"/>
					<path id="形状_21_" class="st2" d="M1219.9,14.6c5.2,0,9.5,1.8,12.7,5.2c3.1,3.4,4.6,7.6,4.6,12.8s-1.5,9.5-4.6,12.8
						c-3.3,3.5-7.5,5.2-12.7,5.2c-5.2,0-9.5-1.8-12.7-5.2c-3.1-3.4-4.6-7.6-4.6-12.8s1.5-9.5,4.6-12.8
						C1210.5,16.4,1214.7,14.6,1219.9,14.6z M1219.9,46c3.8,0,6.8-1.3,9-3.9c2.1-2.5,3.1-5.6,3.1-9.4s-1-6.9-3.1-9.4
						c-2.2-2.6-5.2-3.9-9-3.9c-3.8,0-6.8,1.3-9,3.9c-2.1,2.5-3.2,5.6-3.2,9.4s1,6.9,3.2,9.4C1213.2,44.7,1216.2,46,1219.9,46z"/>
					<polygon id="路径_30_" class="st2" points="1249.5,50.2 1244.3,50.2 1244.3,1.2 1249.5,1.2 					"/>
					<path id="路径_31_" class="st2" d="M1283.8,50.2v-5.5c-1.3,1.7-2.8,3.1-4.6,4.3c-1.8,1.2-3.9,1.8-6.2,1.8s-4.3-0.3-6-1
						s-3.2-1.6-4.4-2.9c-2.9-2.8-4.3-6.6-4.3-11.3V15.2h5.2v20.2c0,3.2,0.9,5.8,2.7,7.7c1.8,1.9,4.2,2.9,7.1,2.9
						c2.9,0,5.4-1,7.5-2.9c2.1-2,3.1-4.6,3.1-7.7V15.2h5.2v35H1283.8L1283.8,50.2z"/>
					<path id="路径_32_" class="st2" d="M1303.4,20.5c2.3-3.9,5.9-5.9,10.6-5.9c2.3,0,4.5,0.6,6.5,1.9c2,1.2,3.5,3,4.7,5.2
						c1.6-2.9,4.1-5,7.4-6.3c1.4-0.5,2.9-0.8,4.6-0.8c1.7,0,3.3,0.3,4.9,1c1.6,0.7,3,1.6,4.2,2.9c2.6,2.8,3.9,6.3,3.9,10.5v21.1
						h-5.2v-21c0-2.9-0.8-5.3-2.4-7.1s-3.7-2.7-6.2-2.7c-2.7,0-4.9,0.9-6.6,2.6c-1.9,1.8-2.8,4.2-2.8,7.3v20.9h-5.2v-21
						c0-2.9-0.8-5.3-2.4-7.1s-3.7-2.7-6.2-2.7c-2.7,0-4.9,0.9-6.7,2.6c-1.9,1.8-2.8,4.2-2.8,7.3v20.9h-5.2v-35h5.2v5.4H1303.4z"/>
					<path id="形状_22_" class="st2" d="M1374.6,46c4.7,0,8.1-2,10.1-5.9h5.7c-1.2,3.2-3.1,5.7-5.8,7.7c-2.6,2-6,2.9-10.2,2.9
						c-5.3,0-9.6-1.8-12.9-5.2c-3.2-3.4-4.8-7.7-4.8-12.8c0-5.2,1.5-9.5,4.6-12.8c3.3-3.5,7.5-5.2,12.7-5.2s9.5,1.8,12.7,5.2
						c3.1,3.4,4.6,7.6,4.6,12.8v2.1H1362c0.4,3.2,1.7,5.9,3.9,8C1368.3,44.9,1371.1,46,1374.6,46z M1374.1,19.4c-3.2,0-5.9,1-8.1,3
						c-2.1,1.9-3.3,4.4-3.8,7.5h23.8c-0.5-3.1-1.7-5.6-3.8-7.5C1380.1,20.4,1377.4,19.4,1374.1,19.4z"/>
					<polygon id="路径_33_" class="st2" points="1398.2,44.6 1405.1,44.6 1398.9,59.5 1394.1,59.5 					"/>
					<path id="形状_23_" class="st2" d="M8.7,102.5v6.9H3v-6.9H8.7z M3.3,115.2h5.2v35H3.3V115.2z"/>
					<path id="路径_34_" class="st2" d="M22.9,115.2v5.5c1.3-1.7,2.8-3.1,4.6-4.3c1.8-1.2,3.9-1.8,6.2-1.8s4.3,0.3,6,1
						c1.7,0.7,3.2,1.6,4.4,2.9c2.9,2.8,4.3,6.6,4.3,11.3v20.4h-5.2V130c0-3.2-0.9-5.8-2.7-7.7c-1.8-1.9-4.2-2.9-7.1-2.9
						c-2.9,0-5.4,1-7.5,2.9c-2.1,2-3.1,4.6-3.1,7.7v20.2h-5.2v-35H22.9z"/>
					<polygon id="路径_35_" class="st2" points="60.2,150.2 60.2,119.8 53.1,119.8 53.1,115.2 60.2,115.2 60.2,102.7 65.4,102.7 
						65.4,115.2 73.4,115.2 73.4,119.8 65.4,119.8 65.4,150.2 					"/>
					<path id="形状_24_" class="st2" d="M94.1,146c4.7,0,8.1-2,10.1-5.9h5.7c-1.2,3.2-3.1,5.7-5.8,7.7c-2.6,2-6,2.9-10.2,2.9
						c-5.3,0-9.6-1.8-12.9-5.2c-3.2-3.4-4.8-7.7-4.8-12.8c0-5.2,1.5-9.5,4.6-12.8c3.3-3.5,7.5-5.2,12.7-5.2s9.5,1.8,12.7,5.2
						c3.1,3.4,4.6,7.6,4.6,12.8v2.1H81.5c0.4,3.2,1.7,5.9,3.9,8C87.8,144.9,90.7,146,94.1,146z M93.7,119.4c-3.2,0-5.9,1-8.1,3
						c-2.1,1.9-3.3,4.4-3.8,7.5h23.8c-0.5-3.1-1.7-5.6-3.8-7.5C99.6,120.4,96.9,119.4,93.7,119.4z"/>
					<polygon id="路径_36_" class="st2" points="122.8,150.2 117.6,150.2 117.6,101.2 122.8,101.2 					"/>
					<polygon id="路径_37_" class="st2" points="137.1,150.2 131.9,150.2 131.9,101.2 137.1,101.2 					"/>
					<path id="形状_25_" class="st2" d="M151.7,102.5v6.9H146v-6.9H151.7z M146.2,115.2h5.2v35h-5.2V115.2z"/>
					<path id="形状_26_" class="st2" d="M187.9,120.8v-5.6h5.2v34c0,5-1.4,8.9-4.3,11.5c-2.9,2.6-6.7,4-11.6,4
						c-4.9,0-8.6-0.9-11.4-2.8c-2.7-1.9-4.6-4.3-5.6-7.4h5.8c1.5,3.6,4.9,5.5,10.2,5.5c4.1,0,7-0.9,8.8-2.8c1.8-1.9,2.7-4.6,2.7-8.3
						v-4.8c-2.8,4.2-7,6.2-12.5,6.2c-5,0-9.1-1.7-12.3-5.2c-3.1-3.4-4.6-7.6-4.6-12.6s1.5-9.2,4.6-12.6c3.2-3.5,7.4-5.2,12.7-5.2
						C181,114.6,185.1,116.7,187.9,120.8z M176,145.4c1.9,0,3.6-0.3,5.1-1c1.5-0.7,2.8-1.6,3.9-2.8c2.1-2.4,3.1-5.5,3.1-9.2
						c0-3.7-1-6.8-3.1-9.2c-2.3-2.5-5.3-3.8-9-3.8c-3.8,0-6.8,1.3-9.1,3.8c-2.2,2.5-3.3,5.6-3.3,9.2c0,3.7,1.1,6.8,3.3,9.2
						C169.2,144.2,172.3,145.4,176,145.4z"/>
					<path id="形状_27_" class="st2" d="M217.8,146c4.7,0,8.1-2,10.1-5.9h5.7c-1.2,3.2-3.1,5.7-5.8,7.7c-2.6,2-6,2.9-10.2,2.9
						c-5.3,0-9.6-1.8-12.9-5.2c-3.2-3.4-4.8-7.7-4.8-12.8c0-5.2,1.5-9.5,4.6-12.8c3.3-3.5,7.5-5.2,12.7-5.2s9.5,1.8,12.7,5.2
						c3.1,3.4,4.6,7.6,4.6,12.8v2.1h-29.3c0.4,3.2,1.7,5.9,3.9,8C211.5,144.9,214.4,146,217.8,146z M217.4,119.4c-3.2,0-5.9,1-8.1,3
						c-2.1,1.9-3.3,4.4-3.8,7.5h23.8c-0.5-3.1-1.7-5.6-3.8-7.5C223.3,120.4,220.6,119.4,217.4,119.4z"/>
					<path id="路径_38_" class="st2" d="M246.5,115.2v5.5c1.3-1.7,2.8-3.1,4.6-4.3c1.8-1.2,3.9-1.8,6.2-1.8c2.3,0,4.3,0.3,6,1
						c1.7,0.7,3.2,1.6,4.4,2.9c2.9,2.8,4.3,6.6,4.3,11.3v20.4h-5.2V130c0-3.2-0.9-5.8-2.7-7.7c-1.8-1.9-4.2-2.9-7.1-2.9
						s-5.4,1-7.5,2.9c-2.1,2-3.1,4.6-3.1,7.7v20.2h-5.2v-35H246.5z"/>
					<polygon id="路径_39_" class="st2" points="283.8,150.2 283.8,119.8 276.7,119.8 276.7,115.2 283.8,115.2 283.8,102.7 
						289,102.7 289,115.2 297,115.2 297,119.8 289,119.8 289,150.2 					"/>
					<polygon id="路径_40_" class="st2" points="308.1,150.2 302.9,150.2 302.9,101.2 308.1,101.2 					"/>
					<polygon id="路径_41_" class="st2" points="326.5,164.1 320.8,164.1 327.2,149.7 312.9,115.2 318.7,115.2 330,143.9 
						341.5,115.2 347.2,115.2 					"/>
					<path id="形状_28_" class="st2" d="M372.1,120.8c2.8-4.1,7-6.2,12.5-6.2c5,0,9.1,1.8,12.2,5.2c3.1,3.5,4.7,7.7,4.7,12.8
						c0,5.1-1.6,9.4-4.7,12.8c-3.1,3.5-7.3,5.2-12.6,5.2c-5.3,0-9.3-2.1-12.2-6.2v19.5h-5.2V115h5.2v5.8H372.1z M383.9,119.4
						c-3.8,0-6.8,1.3-9,3.9c-2.1,2.5-3.2,5.6-3.2,9.4s1.1,6.9,3.2,9.4c2.2,2.6,5.2,3.9,9,3.9c3.7,0,6.8-1.3,9.1-3.9
						c2.2-2.5,3.3-5.6,3.3-9.4s-1.1-6.9-3.3-9.4C390.7,120.7,387.7,119.4,383.9,119.4z"/>
					<polygon id="路径_42_" class="st2" points="413.7,150.2 408.5,150.2 408.5,101.2 413.7,101.2 					"/>
					<path id="形状_29_" class="st2" d="M450.1,144.6c-2.8,4.1-7,6.2-12.5,6.2c-5,0-9.1-1.8-12.3-5.2c-3.1-3.5-4.6-7.7-4.6-12.8
						c0-5.1,1.5-9.4,4.6-12.8c3.2-3.5,7.4-5.2,12.7-5.2s9.3,2.1,12.2,6.2v-5.7h5.2v35h-5.2v-5.7H450.1z M438.2,146
						c3.8,0,6.8-1.3,9-3.9c2.1-2.5,3.1-5.6,3.1-9.4s-1-6.9-3.1-9.4c-2.2-2.6-5.2-3.9-9-3.9c-3.7,0-6.8,1.3-9.1,3.9
						c-2.2,2.5-3.3,5.6-3.3,9.4s1.1,6.9,3.3,9.4C431.5,144.7,434.5,146,438.2,146z"/>
					<path id="路径_43_" class="st2" d="M480.6,146c2.2,0,4.2-0.6,6-1.9c1.7-1.3,3-2.9,3.8-4.9h5.7c-1.1,3.5-3,6.2-5.9,8.3
						c-3,2.1-6.5,3.2-10.6,3.2c-5.1,0-9.3-1.8-12.5-5.2c-3.1-3.4-4.7-7.7-4.7-12.8c0-5.1,1.6-9.4,4.7-12.8c3.2-3.5,7.4-5.2,12.5-5.2
						c4.1,0,7.7,1.1,10.6,3.2c2.8,2.1,4.8,4.9,5.9,8.3h-5.7c-0.8-2-2.1-3.6-3.8-4.9c-1.7-1.3-3.7-1.9-6-1.9c-2.2,0-4.1,0.3-5.7,1
						c-1.6,0.7-2.9,1.7-4,2.9c-2.3,2.5-3.4,5.6-3.4,9.4c0,3.7,1.1,6.9,3.4,9.4C473.3,144.7,476.5,146,480.6,146z"/>
					<path id="形状_30_" class="st2" d="M518.1,146c4.7,0,8.1-2,10.1-5.9h5.7c-1.2,3.2-3.1,5.7-5.8,7.7c-2.6,2-6,2.9-10.2,2.9
						c-5.3,0-9.6-1.8-12.9-5.2c-3.2-3.4-4.8-7.7-4.8-12.8c0-5.2,1.5-9.5,4.6-12.8c3.3-3.5,7.5-5.2,12.7-5.2s9.5,1.8,12.7,5.2
						c3.1,3.4,4.6,7.6,4.6,12.8v2.1h-29.3c0.4,3.2,1.7,5.9,3.9,8C511.8,144.9,514.7,146,518.1,146z M517.7,119.4c-3.2,0-5.9,1-8.1,3
						c-2.1,1.9-3.3,4.4-3.8,7.5h23.8c-0.5-3.1-1.7-5.6-3.8-7.5C523.6,120.4,520.9,119.4,517.7,119.4z"/>
					<path id="形状_31_" class="st2" d="M568.8,144.6c-2.8,4.1-7,6.2-12.5,6.2c-5,0-9.1-1.8-12.3-5.2c-3.1-3.5-4.6-7.7-4.6-12.8
						c0-5.1,1.5-9.4,4.6-12.8c3.2-3.5,7.4-5.2,12.7-5.2s9.3,2.1,12.2,6.2v-19.7h5.2v49h-5.2v-5.7H568.8z M557,146
						c3.8,0,6.8-1.3,9-3.9c2.1-2.5,3.1-5.6,3.1-9.4s-1-6.9-3.1-9.4c-2.2-2.6-5.2-3.9-9-3.9c-3.7,0-6.8,1.3-9.1,3.9
						c-2.2,2.5-3.3,5.6-3.3,9.4s1.1,6.9,3.3,9.4C550.2,144.7,553.2,146,557,146z"/>
					<path id="形状_32_" class="st2" d="M625.4,144.6c-2.8,4.1-7,6.2-12.5,6.2c-5,0-9.1-1.8-12.3-5.2c-3.1-3.5-4.6-7.7-4.6-12.8
						c0-5.1,1.5-9.4,4.6-12.8c3.2-3.5,7.4-5.2,12.7-5.2s9.3,2.1,12.2,6.2v-5.7h5.2v35h-5.2L625.4,144.6L625.4,144.6z M613.5,146
						c3.8,0,6.8-1.3,9-3.9c2.1-2.5,3.1-5.6,3.1-9.4s-1-6.9-3.1-9.4c-2.2-2.6-5.2-3.9-9-3.9c-3.7,0-6.8,1.3-9.1,3.9
						c-2.2,2.5-3.3,5.6-3.3,9.4s1.1,6.9,3.3,9.4C606.8,144.7,609.8,146,613.5,146z"/>
					<path id="路径_44_" class="st2" d="M655.9,146c2.2,0,4.2-0.6,6-1.9c1.7-1.3,3-2.9,3.8-4.9h5.7c-1.1,3.5-3,6.2-5.9,8.3
						c-3,2.1-6.5,3.2-10.6,3.2c-5.1,0-9.3-1.8-12.5-5.2c-3.1-3.4-4.7-7.7-4.7-12.8c0-5.1,1.6-9.4,4.7-12.8c3.2-3.5,7.4-5.2,12.5-5.2
						c4.1,0,7.7,1.1,10.6,3.2c2.8,2.1,4.8,4.9,5.9,8.3h-5.7c-0.8-2-2.1-3.6-3.8-4.9c-1.7-1.3-3.7-1.9-6-1.9c-2.2,0-4.1,0.3-5.7,1
						c-1.6,0.7-2.9,1.7-4,2.9c-2.3,2.5-3.4,5.6-3.4,9.4c0,3.7,1.1,6.9,3.4,9.4C648.5,144.7,651.8,146,655.9,146z"/>
					<path id="路径_45_" class="st2" d="M696.3,114.6v5.2h-0.6c-3.8,0-6.9,1.5-9.2,4.6c-2.2,2.9-3.4,6.3-3.4,10.4v15.4h-5.2v-35
						h5.2v8.6c1.1-3.6,3.5-6.3,7.3-8c1.5-0.7,3.4-1.1,5.6-1.1L696.3,114.6L696.3,114.6z"/>
					<path id="形状_33_" class="st2" d="M716.2,114.6c5.2,0,9.5,1.8,12.7,5.2c3.1,3.4,4.6,7.6,4.6,12.8c0,5.2-1.5,9.5-4.6,12.8
						c-3.3,3.5-7.5,5.2-12.7,5.2s-9.5-1.8-12.7-5.2c-3.1-3.4-4.6-7.6-4.6-12.8c0-5.2,1.5-9.5,4.6-12.8
						C706.7,116.4,711,114.6,716.2,114.6z M716.2,146c3.8,0,6.8-1.3,9-3.9c2.1-2.5,3.1-5.6,3.1-9.4s-1-6.9-3.1-9.4
						c-2.2-2.6-5.2-3.9-9-3.9s-6.8,1.3-9,3.9c-2.1,2.5-3.2,5.6-3.2,9.4s1,6.9,3.2,9.4C709.4,144.7,712.4,146,716.2,146z"/>
					<path id="路径_46_" class="st2" d="M761.1,124.6c-0.5-3.6-3.4-5.5-8.8-5.5c-5.4,0-8.1,1.7-8.1,5c0,1.4,0.6,2.5,1.7,3.2
						c1.1,0.7,2.6,1.3,4.3,1.8s3.6,0.9,5.6,1.3c2,0.4,3.9,1,5.6,1.7c1.7,0.7,3.2,1.7,4.3,3c1.1,1.3,1.7,3,1.7,5.2
						c0,3.4-1.3,6-3.9,7.8c-2.6,1.8-6,2.7-10.4,2.7c-4.7,0-8.4-1.2-11.1-3.5c-2.5-2.1-3.9-4.7-4.1-8.1h5.5c0.3,3.2,2.1,5.4,5.5,6.5
						c1.2,0.4,2.4,0.6,3.6,0.6s2.3-0.1,3.3-0.2c1-0.1,2-0.4,3-0.8c2.2-0.9,3.4-2.4,3.4-4.6c0-1.4-0.6-2.6-1.7-3.3
						c-1.1-0.8-2.6-1.4-4.3-1.9s-3.6-0.9-5.6-1.3c-2-0.4-3.9-0.9-5.6-1.6c-1.7-0.7-3.2-1.7-4.3-2.9c-1.1-1.2-1.7-2.9-1.7-5
						c0-3.2,1.2-5.6,3.5-7.4c2.3-1.8,5.7-2.6,10.3-2.6c4.3,0,7.7,1,10.1,3.1c2.1,1.7,3.2,4,3.6,6.9L761.1,124.6L761.1,124.6z"/>
					<path id="路径_47_" class="st2" d="M794.8,124.6c-0.5-3.6-3.4-5.5-8.8-5.5s-8.1,1.7-8.1,5c0,1.4,0.6,2.5,1.7,3.2
						c1.1,0.7,2.6,1.3,4.3,1.8c1.7,0.5,3.6,0.9,5.6,1.3c2,0.4,3.9,1,5.6,1.7c1.7,0.7,3.2,1.7,4.3,3c1.1,1.3,1.7,3,1.7,5.2
						c0,3.4-1.3,6-3.9,7.8c-2.6,1.8-6,2.7-10.4,2.7c-4.7,0-8.4-1.2-11.1-3.5c-2.5-2.1-3.9-4.7-4.1-8.1h5.5c0.3,3.2,2.1,5.4,5.5,6.5
						c1.2,0.4,2.4,0.6,3.6,0.6s2.3-0.1,3.3-0.2c1-0.1,2-0.4,3-0.8c2.2-0.9,3.4-2.4,3.4-4.6c0-1.4-0.6-2.6-1.7-3.3
						c-1.1-0.8-2.6-1.4-4.3-1.9c-1.7-0.5-3.6-0.9-5.6-1.3c-2-0.4-3.9-0.9-5.6-1.6c-1.7-0.7-3.2-1.7-4.3-2.9c-1.1-1.2-1.7-2.9-1.7-5
						c0-3.2,1.2-5.6,3.5-7.4c2.3-1.8,5.7-2.6,10.3-2.6c4.3,0,7.7,1,10.1,3.1c2.1,1.7,3.2,4,3.6,6.9L794.8,124.6L794.8,124.6z"/>
					<polygon id="路径_48_" class="st2" points="842.7,122.5 863.6,150.2 857,150.2 838.9,126.1 829.3,135.1 829.3,150.3 
						824.1,150.3 824.1,104 829.3,104 829.3,128.1 855.1,104 862.5,104 					"/>
					<path id="路径_49_" class="st2" d="M891.1,150.2v-5.5c-1.3,1.7-2.8,3.1-4.6,4.3s-3.9,1.8-6.2,1.8s-4.3-0.3-6-1
						s-3.2-1.6-4.4-2.9c-2.9-2.8-4.3-6.6-4.3-11.3v-20.4h5.2v20.2c0,3.2,0.9,5.8,2.7,7.7c1.8,1.9,4.2,2.9,7.1,2.9
						c2.9,0,5.4-1,7.5-2.9c2.1-2,3.1-4.6,3.1-7.7v-20.2h5.2v35H891.1L891.1,150.2z"/>
					<path id="形状_34_" class="st2" d="M910.7,120.9c2.8-4.2,7-6.2,12.5-6.2c5,0,9.1,1.8,12.2,5.2c3.1,3.5,4.7,7.7,4.7,12.8
						c0,5.1-1.6,9.4-4.7,12.8c-3.1,3.5-7.3,5.2-12.6,5.2s-9.3-2.1-12.1-6.2v5.6h-5.2v-49h5.2V120.9L910.7,120.9z M922.6,146
						c3.7,0,6.8-1.3,9.1-3.9c2.2-2.5,3.3-5.6,3.3-9.4s-1.1-6.9-3.3-9.4c-2.3-2.6-5.4-3.9-9.1-3.9c-3.8,0-6.8,1.3-9,3.9
						c-2.1,2.5-3.2,5.6-3.2,9.4s1.1,6.9,3.2,9.4C915.8,144.7,918.8,146,922.6,146z"/>
					<path id="形状_35_" class="st2" d="M962.7,146c4.7,0,8.1-2,10.1-5.9h5.7c-1.2,3.2-3.1,5.7-5.8,7.7c-2.6,2-6,2.9-10.2,2.9
						c-5.3,0-9.6-1.8-12.9-5.2c-3.2-3.4-4.8-7.7-4.8-12.8c0-5.2,1.5-9.5,4.6-12.8c3.3-3.5,7.5-5.2,12.7-5.2c5.2,0,9.5,1.8,12.7,5.2
						c3.1,3.4,4.6,7.6,4.6,12.8v2.1h-29.3c0.4,3.2,1.7,5.9,3.9,8C956.4,144.9,959.2,146,962.7,146z M962.3,119.4c-3.2,0-5.9,1-8.1,3
						c-2.1,1.9-3.3,4.4-3.8,7.5h23.8c-0.5-3.1-1.7-5.6-3.8-7.5C968.2,120.4,965.5,119.4,962.3,119.4z"/>
					<path id="路径_50_" class="st2" d="M1004.5,114.6v5.2h-0.6c-3.8,0-6.9,1.5-9.2,4.6c-2.2,2.9-3.4,6.3-3.4,10.4v15.4h-5.2v-35
						h5.2v8.6c1.1-3.6,3.5-6.3,7.3-8c1.5-0.7,3.4-1.1,5.6-1.1L1004.5,114.6L1004.5,114.6z"/>
					<path id="路径_51_" class="st2" d="M1015.5,115.2v5.5c1.3-1.7,2.8-3.1,4.6-4.3c1.8-1.2,3.9-1.8,6.2-1.8c2.3,0,4.3,0.3,6,1
						c1.7,0.7,3.2,1.6,4.4,2.9c2.9,2.8,4.3,6.6,4.3,11.3v20.4h-5.2V130c0-3.2-0.9-5.8-2.7-7.7c-1.8-1.9-4.2-2.9-7.1-2.9
						s-5.4,1-7.5,2.9c-2.1,2-3.1,4.6-3.1,7.7v20.2h-5.2v-35H1015.5z"/>
					<path id="形状_36_" class="st2" d="M1065.4,146c4.7,0,8.1-2,10.1-5.9h5.7c-1.2,3.2-3.1,5.7-5.8,7.7c-2.6,2-6,2.9-10.2,2.9
						c-5.3,0-9.6-1.8-12.9-5.2c-3.2-3.4-4.8-7.7-4.8-12.8c0-5.2,1.5-9.5,4.6-12.8c3.3-3.5,7.5-5.2,12.7-5.2c5.2,0,9.5,1.8,12.7,5.2
						c3.1,3.4,4.6,7.6,4.6,12.8v2.1h-29.3c0.4,3.2,1.7,5.9,3.9,8C1059.1,144.9,1062,146,1065.4,146z M1065,119.4c-3.2,0-5.9,1-8.1,3
						c-2.1,1.9-3.3,4.4-3.8,7.5h23.8c-0.5-3.1-1.7-5.6-3.8-7.5C1070.9,120.4,1068.2,119.4,1065,119.4z"/>
					<polygon id="路径_52_" class="st2" points="1092.2,150.2 1092.2,119.8 1085.1,119.8 1085.1,115.2 1092.2,115.2 1092.2,102.7 
						1097.4,102.7 1097.4,115.2 1105.4,115.2 1105.4,119.8 1097.4,119.8 1097.4,150.2 					"/>
					<path id="形状_37_" class="st2" d="M1126.1,146c4.7,0,8.1-2,10.1-5.9h5.7c-1.2,3.2-3.1,5.7-5.8,7.7c-2.6,2-6,2.9-10.2,2.9
						c-5.3,0-9.6-1.8-12.9-5.2c-3.2-3.4-4.8-7.7-4.8-12.8c0-5.2,1.5-9.5,4.6-12.8c3.3-3.5,7.5-5.2,12.7-5.2s9.5,1.8,12.7,5.2
						c3.1,3.4,4.6,7.6,4.6,12.8v2.1h-29.3c0.4,3.2,1.7,5.9,3.9,8C1119.8,144.9,1122.7,146,1126.1,146z M1125.7,119.4
						c-3.2,0-5.9,1-8.1,3c-2.1,1.9-3.3,4.4-3.8,7.5h23.8c-0.5-3.1-1.7-5.6-3.8-7.5C1131.6,120.4,1128.9,119.4,1125.7,119.4z"/>
					<path id="路径_53_" class="st2" d="M1170.1,124.6c-0.5-3.6-3.4-5.5-8.8-5.5c-5.4,0-8.1,1.7-8.1,5c0,1.4,0.6,2.5,1.7,3.2
						c1.1,0.7,2.6,1.3,4.3,1.8c1.7,0.5,3.6,0.9,5.6,1.3c2,0.4,3.9,1,5.6,1.7c1.7,0.7,3.2,1.7,4.3,3c1.1,1.3,1.7,3,1.7,5.2
						c0,3.4-1.3,6-3.9,7.8c-2.6,1.8-6,2.7-10.4,2.7c-4.7,0-8.4-1.2-11.1-3.5c-2.5-2.1-3.9-4.7-4.1-8.1h5.5c0.3,3.2,2.1,5.4,5.5,6.5
						c1.2,0.4,2.4,0.6,3.6,0.6s2.3-0.1,3.3-0.2c1-0.1,2-0.4,3-0.8c2.2-0.9,3.4-2.4,3.4-4.6c0-1.4-0.6-2.6-1.7-3.3
						c-1.1-0.8-2.6-1.4-4.3-1.9c-1.7-0.5-3.6-0.9-5.6-1.3c-2-0.4-3.9-0.9-5.6-1.6c-1.7-0.7-3.2-1.7-4.3-2.9c-1.1-1.2-1.7-2.9-1.7-5
						c0-3.2,1.2-5.6,3.5-7.4c2.3-1.8,5.7-2.6,10.3-2.6c4.3,0,7.7,1,10.1,3.1c2.1,1.7,3.2,4,3.6,6.9L1170.1,124.6L1170.1,124.6z"/>
					<path id="路径_54_" class="st2" d="M1203.4,115.2v5.5c1.3-1.7,2.8-3.1,4.6-4.3c1.8-1.2,3.9-1.8,6.2-1.8c2.3,0,4.3,0.3,6,1
						c1.7,0.7,3.2,1.6,4.4,2.9c2.9,2.8,4.3,6.6,4.3,11.3v20.4h-5.2V130c0-3.2-0.9-5.8-2.7-7.7c-1.8-1.9-4.2-2.9-7.1-2.9
						s-5.4,1-7.5,2.9c-2.1,2-3.1,4.6-3.1,7.7v20.2h-5.2v-35H1203.4z"/>
					<path id="形状_38_" class="st2" d="M1253,114.6c5.2,0,9.5,1.8,12.7,5.2c3.1,3.4,4.6,7.6,4.6,12.8c0,5.2-1.5,9.5-4.6,12.8
						c-3.3,3.5-7.5,5.2-12.7,5.2s-9.5-1.8-12.7-5.2c-3.1-3.4-4.6-7.6-4.6-12.8c0-5.2,1.5-9.5,4.6-12.8
						C1243.5,116.4,1247.7,114.6,1253,114.6z M1253,146c3.8,0,6.8-1.3,9-3.9c2.1-2.5,3.1-5.6,3.1-9.4s-1-6.9-3.1-9.4
						c-2.2-2.6-5.2-3.9-9-3.9s-6.8,1.3-9,3.9c-2.1,2.5-3.2,5.6-3.2,9.4s1,6.9,3.2,9.4C1246.2,144.7,1249.2,146,1253,146z"/>
					<path id="形状_39_" class="st2" d="M1304.6,144.6c-2.8,4.1-7,6.2-12.5,6.2c-5,0-9.1-1.8-12.3-5.2c-3.1-3.5-4.6-7.7-4.6-12.8
						c0-5.1,1.5-9.4,4.6-12.8c3.2-3.5,7.4-5.2,12.7-5.2s9.3,2.1,12.2,6.2v-19.7h5.2v49h-5.2L1304.6,144.6L1304.6,144.6z M1292.7,146
						c3.8,0,6.8-1.3,9-3.9c2.1-2.5,3.1-5.6,3.1-9.4s-1-6.9-3.1-9.4c-2.2-2.6-5.2-3.9-9-3.9c-3.7,0-6.8,1.3-9.1,3.9
						c-2.2,2.5-3.3,5.6-3.3,9.4s1.1,6.9,3.3,9.4C1286,144.7,1289,146,1292.7,146z"/>
					<path id="形状_40_" class="st2" d="M1334.5,146c4.7,0,8.1-2,10.1-5.9h5.7c-1.2,3.2-3.1,5.7-5.8,7.7c-2.6,2-6,2.9-10.2,2.9
						c-5.3,0-9.6-1.8-12.9-5.2c-3.2-3.4-4.8-7.7-4.8-12.8c0-5.2,1.5-9.5,4.6-12.8c3.3-3.5,7.5-5.2,12.7-5.2c5.2,0,9.5,1.8,12.7,5.2
						c3.1,3.4,4.6,7.6,4.6,12.8v2.1h-29.3c0.4,3.2,1.7,5.9,3.9,8C1328.2,144.9,1331.1,146,1334.5,146z M1334.1,119.4
						c-3.2,0-5.9,1-8.1,3c-2.1,1.9-3.3,4.4-3.8,7.5h23.8c-0.5-3.1-1.7-5.6-3.8-7.5C1340,120.4,1337.3,119.4,1334.1,119.4z"/>
					<path id="路径_55_" class="st2" d="M1378.5,124.6c-0.5-3.6-3.4-5.5-8.8-5.5c-5.4,0-8.1,1.7-8.1,5c0,1.4,0.6,2.5,1.7,3.2
						c1.1,0.7,2.6,1.3,4.3,1.8c1.7,0.5,3.6,0.9,5.6,1.3c2,0.4,3.9,1,5.6,1.7c1.7,0.7,3.2,1.7,4.3,3c1.1,1.3,1.7,3,1.7,5.2
						c0,3.4-1.3,6-3.9,7.8c-2.6,1.8-6,2.7-10.4,2.7c-4.7,0-8.4-1.2-11.1-3.5c-2.5-2.1-3.9-4.7-4.1-8.1h5.5c0.3,3.2,2.1,5.4,5.5,6.5
						c1.2,0.4,2.4,0.6,3.6,0.6c1.2,0,2.3-0.1,3.3-0.2c1-0.1,2-0.4,3-0.8c2.2-0.9,3.4-2.4,3.4-4.6c0-1.4-0.6-2.6-1.7-3.3
						c-1.1-0.8-2.6-1.4-4.3-1.9c-1.7-0.5-3.6-0.9-5.6-1.3c-2-0.4-3.9-0.9-5.6-1.6c-1.7-0.7-3.2-1.7-4.3-2.9s-1.7-2.9-1.7-5
						c0-3.2,1.2-5.6,3.5-7.4c2.3-1.8,5.7-2.6,10.3-2.6c4.3,0,7.7,1,10.1,3.1c2.1,1.7,3.2,4,3.6,6.9L1378.5,124.6L1378.5,124.6z"/>
					<polygon id="路径_56_" class="st2" points="1410.3,150.2 1410.3,119.8 1403.2,119.8 1403.2,115.2 1410.3,115.2 1410.3,102.7 
						1415.5,102.7 1415.5,115.2 1423.5,115.2 1423.5,119.8 1415.5,119.8 1415.5,150.2 					"/>
					<path id="形状_41_" class="st2" d="M1443.9,114.6c5.2,0,9.5,1.8,12.7,5.2c3.1,3.4,4.6,7.6,4.6,12.8c0,5.2-1.5,9.5-4.6,12.8
						c-3.3,3.5-7.5,5.2-12.7,5.2c-5.2,0-9.5-1.8-12.7-5.2c-3.1-3.4-4.6-7.6-4.6-12.8c0-5.2,1.5-9.5,4.6-12.8
						C1434.4,116.4,1438.6,114.6,1443.9,114.6z M1443.9,146c3.8,0,6.8-1.3,9-3.9c2.1-2.5,3.1-5.6,3.1-9.4s-1-6.9-3.1-9.4
						c-2.2-2.6-5.2-3.9-9-3.9c-3.8,0-6.8,1.3-9,3.9c-2.1,2.5-3.2,5.6-3.2,9.4s1,6.9,3.2,9.4C1437.1,144.7,1440.1,146,1443.9,146z"/>
					<path id="形状_42_" class="st2" d="M8.5,220.9c2.8-4.2,7-6.2,12.5-6.2c5,0,9.1,1.8,12.2,5.2c3.1,3.5,4.7,7.7,4.7,12.8
						c0,5.1-1.6,9.4-4.7,12.8c-3.1,3.5-7.3,5.2-12.6,5.2s-9.3-2.1-12.1-6.2v5.6H3.3v-49h5.2V220.9z M20.4,246c3.7,0,6.8-1.3,9.1-3.9
						c2.2-2.5,3.3-5.6,3.3-9.4s-1.1-6.9-3.3-9.4c-2.3-2.6-5.4-3.9-9.1-3.9c-3.8,0-6.8,1.3-9,3.9c-2.1,2.5-3.2,5.6-3.2,9.4
						s1.1,6.9,3.2,9.4C13.6,244.7,16.6,246,20.4,246z"/>
					<path id="形状_43_" class="st2" d="M72.2,244.6c-2.8,4.1-7,6.2-12.5,6.2c-5,0-9.1-1.8-12.3-5.2c-3.1-3.5-4.6-7.7-4.6-12.8
						c0-5.1,1.5-9.4,4.6-12.8c3.2-3.5,7.4-5.2,12.7-5.2s9.3,2.1,12.2,6.2v-5.7h5.2v35h-5.2v-5.7H72.2z M60.3,246
						c3.8,0,6.8-1.3,9-3.9c2.1-2.5,3.1-5.6,3.1-9.4s-1-6.9-3.1-9.4c-2.2-2.6-5.2-3.9-9-3.9c-3.7,0-6.8,1.3-9.1,3.9
						c-2.2,2.5-3.3,5.6-3.3,9.4s1.1,6.9,3.3,9.4C53.6,244.7,56.6,246,60.3,246z"/>
					<polygon id="路径_57_" class="st2" points="91.8,250.2 86.6,250.2 86.6,201.2 91.8,201.2 					"/>
					<path id="形状_44_" class="st2" d="M128.2,244.6c-2.8,4.1-7,6.2-12.5,6.2c-5,0-9.1-1.8-12.3-5.2c-3.1-3.5-4.6-7.7-4.6-12.8
						c0-5.1,1.5-9.4,4.6-12.8c3.2-3.5,7.4-5.2,12.7-5.2c5.3,0,9.3,2.1,12.2,6.2v-5.7h5.2v35h-5.2v-5.7H128.2z M116.3,246
						c3.8,0,6.8-1.3,9-3.9c2.1-2.5,3.1-5.6,3.1-9.4s-1-6.9-3.1-9.4c-2.2-2.6-5.2-3.9-9-3.9c-3.7,0-6.8,1.3-9.1,3.9
						c-2.2,2.5-3.3,5.6-3.3,9.4s1.1,6.9,3.3,9.4C109.6,244.7,112.6,246,116.3,246z"/>
					<path id="路径_58_" class="st2" d="M147.8,215.2v5.5c1.3-1.7,2.8-3.1,4.6-4.3c1.8-1.2,3.9-1.8,6.2-1.8c2.3,0,4.3,0.3,6,1
						c1.7,0.7,3.2,1.6,4.4,2.9c2.9,2.8,4.3,6.6,4.3,11.3v20.4h-5.2V230c0-3.2-0.9-5.8-2.7-7.7c-1.8-1.9-4.2-2.9-7.1-2.9
						c-2.9,0-5.4,1-7.5,2.9c-2.1,2-3.1,4.6-3.1,7.7v20.2h-5.2v-35H147.8z"/>
					<path id="路径_59_" class="st2" d="M198.3,246c2.2,0,4.2-0.6,6-1.9c1.7-1.3,3-2.9,3.8-4.9h5.7c-1.1,3.5-3,6.2-5.9,8.3
						c-3,2.1-6.5,3.2-10.6,3.2c-5.1,0-9.3-1.8-12.5-5.2c-3.1-3.4-4.7-7.7-4.7-12.8c0-5.1,1.6-9.4,4.7-12.8c3.2-3.5,7.4-5.2,12.5-5.2
						c4.1,0,7.7,1.1,10.6,3.2c2.8,2.1,4.8,4.9,5.9,8.3H208c-0.8-2-2.1-3.6-3.8-4.9s-3.7-1.9-6-1.9c-2.2,0-4.1,0.3-5.7,1
						c-1.6,0.7-2.9,1.7-4,2.9c-2.3,2.5-3.4,5.6-3.4,9.4c0,3.7,1.1,6.9,3.4,9.4C191,244.7,194.2,246,198.3,246z"/>
					<path id="形状_45_" class="st2" d="M235.8,246c4.7,0,8.1-2,10.1-5.9h5.7c-1.2,3.2-3.1,5.7-5.8,7.7c-2.6,2-6,2.9-10.2,2.9
						c-5.3,0-9.6-1.8-12.9-5.2c-3.2-3.4-4.8-7.7-4.8-12.8c0-5.2,1.5-9.5,4.6-12.8c3.3-3.5,7.5-5.2,12.7-5.2s9.5,1.8,12.7,5.2
						c3.1,3.4,4.6,7.6,4.6,12.8v2.1h-29.3c0.4,3.2,1.7,5.9,3.9,8C229.5,244.9,232.4,246,235.8,246z M235.4,219.4c-3.2,0-5.9,1-8.1,3
						c-2.1,1.9-3.3,4.4-3.8,7.5h23.8c-0.5-3.1-1.7-5.6-3.8-7.5C241.3,220.4,238.6,219.4,235.4,219.4z"/>
					<polygon id="路径_60_" class="st2" points="277.9,250.2 277.9,219.8 270.8,219.8 270.8,215.2 277.9,215.2 277.9,202.7 
						283.1,202.7 283.1,215.2 291.1,215.2 291.1,219.8 283.1,219.8 283.1,250.2 					"/>
					<path id="路径_61_" class="st2" d="M302.2,201.2v19.5c1.3-1.7,2.8-3.1,4.6-4.3c1.8-1.2,3.9-1.8,6.2-1.8s4.3,0.3,6,1
						c1.7,0.7,3.2,1.6,4.4,2.9c2.9,2.8,4.3,6.6,4.3,11.3v20.4h-5.2V230c0-3.2-0.9-5.8-2.7-7.7c-1.8-1.9-4.2-2.9-7.1-2.9
						c-2.9,0-5.4,1-7.5,2.9c-2.1,2-3.1,4.6-3.1,7.7v20.2h-5.2v-49H302.2z"/>
					<path id="形状_46_" class="st2" d="M352.2,246c4.7,0,8.1-2,10.1-5.9h5.7c-1.2,3.2-3.1,5.7-5.8,7.7c-2.6,2-6,2.9-10.2,2.9
						c-5.3,0-9.6-1.8-12.9-5.2c-3.2-3.4-4.8-7.7-4.8-12.8c0-5.2,1.5-9.5,4.6-12.8c3.3-3.5,7.5-5.2,12.7-5.2c5.2,0,9.5,1.8,12.7,5.2
						c3.1,3.4,4.6,7.6,4.6,12.8v2.1h-29.3c0.4,3.2,1.7,5.9,3.9,8C345.9,244.9,348.7,246,352.2,246z M351.7,219.4c-3.2,0-5.9,1-8.1,3
						c-2.1,1.9-3.3,4.4-3.8,7.5h23.8c-0.5-3.1-1.7-5.6-3.8-7.5C357.7,220.4,355,219.4,351.7,219.4z"/>
					<polygon id="路径_62_" class="st2" points="412.3,222.3 403.5,250.2 397.5,250.2 386.5,215.2 392.1,215.2 400.5,243.7 
						409.4,215.2 415.1,215.2 424,243.7 432.4,215.2 438,215.2 427,250.2 421,250.2 					"/>
					<path id="形状_47_" class="st2" d="M458.1,214.6c5.2,0,9.5,1.8,12.7,5.2c3.1,3.4,4.6,7.6,4.6,12.8c0,5.2-1.5,9.5-4.6,12.8
						c-3.3,3.5-7.5,5.2-12.7,5.2c-5.2,0-9.5-1.8-12.7-5.2c-3.1-3.4-4.6-7.6-4.6-12.8c0-5.2,1.5-9.5,4.6-12.8
						C448.7,216.4,452.9,214.6,458.1,214.6z M458.1,246c3.8,0,6.8-1.3,9-3.9c2.1-2.5,3.1-5.6,3.1-9.4s-1-6.9-3.1-9.4
						c-2.2-2.6-5.2-3.9-9-3.9c-3.8,0-6.8,1.3-9,3.9c-2.1,2.5-3.2,5.6-3.2,9.4s1,6.9,3.2,9.4C451.4,244.7,454.4,246,458.1,246z"/>
					<path id="路径_63_" class="st2" d="M500.9,214.6v5.2h-0.6c-3.8,0-6.9,1.5-9.2,4.6c-2.2,2.9-3.4,6.3-3.4,10.4v15.4h-5.2v-35
						h5.2v8.6c1.1-3.6,3.5-6.3,7.3-8c1.5-0.7,3.4-1.1,5.6-1.1L500.9,214.6L500.9,214.6z"/>
					<polygon id="路径_64_" class="st2" points="522,229 537.1,250.2 530.7,250.2 518.5,232.6 511.9,239.1 511.9,250.2 
						506.7,250.2 506.7,201.2 511.9,201.2 511.9,232.6 528.8,215.2 536.1,215.2 					"/>
					<polygon id="路径_65_" class="st2" points="547,250.2 541.8,250.2 541.8,201.2 547,201.2 					"/>
					<path id="形状_48_" class="st2" d="M571.3,214.6c5.2,0,9.5,1.8,12.7,5.2c3.1,3.4,4.6,7.6,4.6,12.8c0,5.2-1.5,9.5-4.6,12.8
						c-3.3,3.5-7.5,5.2-12.7,5.2s-9.5-1.8-12.7-5.2c-3.1-3.4-4.6-7.6-4.6-12.8c0-5.2,1.5-9.5,4.6-12.8
						C561.8,216.4,566,214.6,571.3,214.6z M571.3,246c3.8,0,6.8-1.3,9-3.9c2.1-2.5,3.1-5.6,3.1-9.4s-1-6.9-3.1-9.4
						c-2.2-2.6-5.2-3.9-9-3.9s-6.8,1.3-9,3.9c-2.1,2.5-3.2,5.6-3.2,9.4s1,6.9,3.2,9.4C564.5,244.7,567.5,246,571.3,246z"/>
					<path id="形状_49_" class="st2" d="M622.8,244.6c-2.8,4.1-7,6.2-12.5,6.2c-5,0-9.1-1.8-12.3-5.2c-3.1-3.5-4.6-7.7-4.6-12.8
						c0-5.1,1.5-9.4,4.6-12.8c3.2-3.5,7.4-5.2,12.7-5.2s9.3,2.1,12.2,6.2v-5.7h5.2v35h-5.2v-5.7H622.8z M611,246
						c3.8,0,6.8-1.3,9-3.9c2.1-2.5,3.1-5.6,3.1-9.4s-1-6.9-3.1-9.4c-2.2-2.6-5.2-3.9-9-3.9c-3.7,0-6.8,1.3-9.1,3.9
						c-2.2,2.5-3.3,5.6-3.3,9.4s1.1,6.9,3.3,9.4C604.2,244.7,607.3,246,611,246z"/>
					<path id="形状_50_" class="st2" d="M664.5,244.6c-2.8,4.1-7,6.2-12.5,6.2c-5,0-9.1-1.8-12.3-5.2c-3.1-3.5-4.6-7.7-4.6-12.8
						c0-5.1,1.5-9.4,4.6-12.8c3.2-3.5,7.4-5.2,12.7-5.2c5.3,0,9.3,2.1,12.2,6.2v-19.7h5.2v49h-5.2L664.5,244.6L664.5,244.6z
						 M652.7,246c3.8,0,6.8-1.3,9-3.9c2.1-2.5,3.1-5.6,3.1-9.4s-1-6.9-3.1-9.4c-2.2-2.6-5.2-3.9-9-3.9c-3.7,0-6.8,1.3-9.1,3.9
						c-2.2,2.5-3.3,5.6-3.3,9.4s1.1,6.9,3.3,9.4C645.9,244.7,648.9,246,652.7,246z"/>
				</g>
			</g>
		</g>
	</g>
</g>
</svg>
