<?xml version="1.0" encoding="utf-8"?>
<!-- Generator: Adobe Illustrator 22.0.0, SVG Export Plug-In . SVG Version: 6.00 Build 0)  -->
<svg version="1.1" id="图层_1" xmlns="http://www.w3.org/2000/svg" xmlns:xlink="http://www.w3.org/1999/xlink" x="0px" y="0px"
	 viewBox="0 0 2268 439" style="enable-background:new 0 0 2268 439;" xml:space="preserve">
<style type="text/css">
	.st0{fill:#707070;}
	.st1{fill:#FFBB10;stroke:#FFBB10;stroke-width:2;}
	.st2{fill:#232323;}
</style>
<title>02</title>
<desc>Created with Sketch.</desc>
<g id="页面-1">
	<g id="Piraeus易拉宝" transform="translate(-179.000000, -1849.000000)">
		<g id="图层_2_1_" transform="translate(179.000000, 0.000000)">
			<g id="编组_2_" transform="translate(0.000000, 277.000000)">
				<g id="linux" transform="translate(232.000000, 1645.000000)">
					<g id="Group-3">
						
							<g id="编组" transform="translate(169.500000, 115.000000) scale(-1, 1) translate(-169.500000, -115.000000) translate(111.000000, 0.000000)">
							<path id="Path-6" class="st0" d="M115,0.1v7.5c-19,0-36.8,9.5-44.9,19.9c-6.7,8.6-10.4,20-10.4,37c0,12.9-1.2,18.4-4.6,24.1
								c0.1-0.1-3.3,5-4.4,7c-5.5,9.8-9,21.1-10.1,34.5c-0.8,9.5,0.3,20.2,3.3,31.9l-7.2,1.9c-3.2-12.6-4.4-24-3.5-34.4
								c1.2-14.5,5-26.8,11.1-37.5c1.2-2.2,4.7-7.5,4.5-7.2c2.6-4.3,3.5-8.5,3.5-20.2c0-18.6,4.2-31.7,12-41.6
								C73.6,10.8,93.6,0.1,115,0.1z"/>
							<path id="Path-10" class="st0" d="M111.5,74.1l-7.2-1.9c2.4-9.2,2.5-14.6,0.9-22.9c-1.1-5.7-8.2-10.7-13.8-9.2
								c-5.3,1.5-8.3,9.2-7.5,19.5c0.5,6.4,2.1,11.5,4.8,15.3l-6.1,4.3c-3.5-5-5.6-11.3-6.2-19c-1-13.5,3.2-24.6,12.9-27.3
								c10-2.7,21.2,5.1,23.1,14.9C114.4,57.2,114.3,63.8,111.5,74.1z"/>
							<path id="Path-13" class="st0" d="M93.6,87.5l5.9,4.6c-11.7,15-18.7,24.7-21,28.8c-4.3,7.7-6.4,15.5-5.8,24.4l-7.5,0.5
								c-0.7-10.5,1.8-19.6,6.7-28.5C74.5,112.6,81.7,102.8,93.6,87.5z"/>
							<path id="Path-14" class="st0" d="M76.8,216.8l6.7-3.4c2.4,4.8,12.4,9.1,18.7,9.1h12.9v7.5h-12.9
								C93.3,230,80.7,224.6,76.8,216.8z"/>
							<path id="Path-8" class="st0" d="M45.6,148.4c2.6-6.2,9.4-11.6,16.5-11.6c7.9,0,15.9,8.6,17.4,17.2c0.7,4.1,1.2,8.5,1.7,15.4
								c0.1,1.3,0.2,2.7,0.3,4.7c0,0.6,0.1,1.2,0.2,2.5c0.1,1,0.1,1.8,0.2,2.6c0.3,4.1,0.8,6.8,2,10.7c0.1,0.3,0.4,1.4,0.5,1.7
								c1.1,3.6,1.6,6.1,1.8,9.6c0.5,7.2-0.1,10.5-2.1,14.3c-0.1,0.2-0.5,0.9-0.5,1c-2.5,4.7-8.7,8.3-17.5,9.5
								c-8.5,1.1-14.5-0.2-26.6-5c-2.8-1.1-6.6-2-12.3-3c-1.5-0.3-6.5-1.1-7-1.2c-6.8-1.1-10-1.9-12.2-3.4
								c-5.1-3.4-7.6-8.6-7.6-14.8c0-6.8,4.4-13.5,11.3-15.8c2.2-0.7,4.5-1.2,6.7-1.4c-1.6-3.2-2.6-5.9-3.1-8.1
								c-1.5-7-0.8-12.5,3.9-16.9c4.9-4.6,10.2-4.1,18.2-0.7c2,0.9,4.4,1.8,7.2,2.8C44.2,154.3,44.5,150.9,45.6,148.4z M77.5,212
								c1.3-2.5,1.7-4.5,1.2-10.3c-0.2-2.8-0.6-4.9-1.5-8c-0.1-0.3-0.4-1.4-0.5-1.7c-1.3-4.3-1.9-7.5-2.2-12.2
								c-0.1-0.8-0.1-1.6-0.2-2.6c-0.1-1.3-0.1-1.9-0.2-2.5c-0.1-2-0.2-3.3-0.3-4.6c-0.5-6.8-1-11-1.6-14.8c-0.9-5.3-6.2-11-10-11
								c-3.7,0-8,3.5-9.6,7.1c-0.8,1.8-0.8,6,0.2,12.2c0.5,2.8-2.2,5.1-4.9,4.1c-5.5-1.9-10-3.6-13.4-5.1c-5.5-2.4-8.1-2.6-10.1-0.7
								c-2.3,2.1-2.7,5.2-1.7,9.9c0.5,2.3,2.3,6.3,5.4,11.6c1.6,2.7-0.7,6-3.8,5.6c-3.5-0.5-6.9-0.2-10.2,0.9
								c-3.7,1.2-6.2,5-6.2,8.7c0,3.8,1.4,6.6,4.3,8.6c0.9,0.6,3.8,1.3,9.2,2.2c0.5,0.1,5.5,0.9,7.1,1.2c6.2,1.1,10.4,2,13.8,3.4
								c10.9,4.3,15.9,5.4,22.8,4.5c6.6-0.9,10.7-3.2,11.9-5.6C77,212.8,77.4,212.2,77.5,212z"/>
							<path id="Path-11" class="st0" d="M94.8,84.1c0.6,0.5,1.2,1.1,1.9,1.7c1.1,1,6.6,5.6,7.4,6.4c-0.1-0.1,2.8,2.7,3.7,3.6
								c2.8,2.5,5.2,3.8,7.4,3.8v7.5c-4.4,0-8.4-2.1-12.4-5.7c-1.1-1-4.1-4-3.9-3.8c-0.6-0.6-5.9-5.1-7.2-6.2
								c-0.7-0.6-1.4-1.2-2-1.8c-3.2-2.9-5.3-5.2-6.4-7.2C81.5,79,83,75.9,86.2,74c1.7-1,3.5-1.7,7-2.7c0.1,0,1.5-0.4,1.9-0.6
								c1.4-0.4,2.3-0.7,3-1c2.7-1.1,5.6-1.3,9.4-1.1c1.2,0.1,2.3,0.2,4.1,0.4c3,0.4,3.8,0.4,4.8,0.4v7.5c-1.4,0-2.3-0.1-5.7-0.5
								c-1.7-0.2-2.7-0.3-3.7-0.4c-2.7-0.2-4.7,0-6,0.6c-1,0.4-2,0.8-3.6,1.2c-0.4,0.1-1.8,0.6-1.9,0.6c-2.3,0.7-3.7,1.2-4.6,1.6
								C91.6,81,93,82.4,94.8,84.1z"/>
						</g>
						<g id="编组_1_">
							<path id="Path-6_1_" class="st0" d="M115.5,0.1v7.5c-19,0-36.8,9.5-44.9,19.9c-6.7,8.6-10.4,20-10.4,37
								c0,12.9-1.2,18.4-4.6,24.1c0.1-0.1-3.3,5-4.4,7c-5.5,9.8-9,21.1-10.1,34.5c-0.8,9.5,0.3,20.2,3.3,31.9l-7.2,1.9
								c-3.2-12.6-4.4-24-3.5-34.4c1.2-14.5,5-26.8,11.1-37.5c1.2-2.2,4.7-7.5,4.5-7.2c2.6-4.3,3.5-8.5,3.5-20.2
								c0-18.6,4.2-31.7,12-41.6C74.1,10.8,94.1,0.1,115.5,0.1z"/>
							<path id="Path-10_1_" class="st0" d="M112,74.1l-7.2-1.9c2.4-9.2,2.5-14.6,0.9-22.9c-1.1-5.7-8.2-10.7-13.8-9.2
								c-5.3,1.5-8.3,9.2-7.5,19.5c0.5,6.4,2.1,11.5,4.8,15.3l-6.1,4.3c-3.5-5-5.6-11.3-6.2-19c-1-13.5,3.2-24.6,12.9-27.3
								c10-2.7,21.2,5.1,23.1,14.9C114.8,57.2,114.7,63.8,112,74.1z"/>
							<path id="Path-13_1_" class="st0" d="M91.2,91l5.9,4.6c-9.8,12.6-15.8,21.1-18.1,25.3c-4.3,7.7-6.4,15.5-5.8,24.4l-7.5,0.5
								c-0.7-10.5,1.8-19.6,6.7-28.5C75,112.6,81.2,104,91.2,91z"/>
							<path id="Path-14_1_" class="st0" d="M77.3,216.8l6.7-3.4c2.4,4.8,12.4,9.1,18.7,9.1h12.9v7.5h-12.9
								C93.8,230,81.2,224.6,77.3,216.8z"/>
							<path id="Path-8_1_" class="st0" d="M46.1,148.4c2.6-6.2,9.4-11.6,16.5-11.6c7.9,0,15.9,8.6,17.4,17.2
								c0.7,4.1,1.2,8.5,1.7,15.4c0.1,1.3,0.2,2.7,0.3,4.7c0,0.6,0.1,1.2,0.2,2.5c0.1,1,0.1,1.8,0.2,2.6c0.3,4.1,0.8,6.8,2,10.7
								c0.1,0.3,0.4,1.4,0.5,1.7c1.1,3.6,1.6,6.1,1.8,9.6c0.5,7.2-0.1,10.5-2.1,14.3c-0.1,0.2-0.5,0.9-0.5,1
								c-2.5,4.7-8.7,8.3-17.5,9.5c-8.5,1.1-14.5-0.2-26.6-5c-2.8-1.1-6.6-2-12.3-3c-1.5-0.3-6.5-1.1-7-1.2
								c-6.8-1.1-10-1.9-12.2-3.4c-5.1-3.4-7.6-8.6-7.6-14.8c0-6.8,4.4-13.5,11.3-15.8c2.2-0.7,4.4-1.2,6.7-1.4
								c-1.6-3.2-2.6-5.9-3.1-8.1c-1.5-7-0.8-12.5,3.9-16.9c4.9-4.6,10.2-4.1,18.2-0.7c2,0.9,4.4,1.8,7.2,2.8
								C44.7,154.3,45,150.9,46.1,148.4z M78,212c1.3-2.5,1.7-4.5,1.2-10.3c-0.2-2.8-0.6-4.9-1.5-8c-0.1-0.3-0.4-1.4-0.5-1.7
								c-1.3-4.3-1.9-7.5-2.2-12.2c-0.1-0.8-0.1-1.6-0.2-2.6c-0.1-1.3-0.1-1.9-0.2-2.5c-0.1-2-0.2-3.3-0.3-4.6
								c-0.5-6.8-1-11-1.6-14.8c-0.9-5.3-6.2-11-10-11c-3.7,0-8,3.5-9.6,7.1c-0.8,1.8-0.8,6,0.2,12.2c0.5,2.8-2.2,5.1-4.9,4.1
								c-5.5-1.9-10-3.6-13.4-5.1c-5.5-2.4-8.1-2.6-10.1-0.7c-2.3,2.1-2.7,5.2-1.7,9.9c0.5,2.3,2.3,6.3,5.4,11.6
								c1.6,2.7-0.7,6-3.8,5.6c-3.5-0.5-6.9-0.2-10.2,0.9c-3.7,1.2-6.2,5-6.2,8.7c0,3.8,1.4,6.6,4.3,8.6c0.9,0.6,3.8,1.3,9.2,2.2
								c0.5,0.1,5.5,0.9,7.1,1.2c6.2,1.1,10.4,2,13.8,3.4c10.9,4.3,15.9,5.4,22.8,4.5c6.6-0.9,10.7-3.2,11.9-5.6
								C77.5,212.8,77.9,212.2,78,212z"/>
							<path id="Path-11_1_" class="st0" d="M92.7,84.1c0.6,0.5,1.2,1.1,1.9,1.7c1.1,1,6.6,5.6,7.4,6.4c-0.1-0.1,2.8,2.7,3.7,3.6
								c2.8,2.5,5.2,3.8,7.4,3.8v7.5c-4.4,0-8.4-2.1-12.4-5.7c-1.1-1-4.1-4-3.9-3.8c-0.6-0.6-5.9-5.1-7.2-6.2
								c-0.7-0.6-1.4-1.2-2-1.8c-3.2-2.9-5.3-5.2-6.4-7.2c-1.8-3.4-0.3-6.5,2.9-8.4c1.7-1,3.5-1.7,7-2.7c0.1,0,1.5-0.4,1.9-0.6
								c1.4-0.4,2.3-0.7,3-1c2.7-1.1,5.6-1.3,9.4-1.1c1.2,0.1,2.3,0.2,4.1,0.4c3,0.4,3.8,0.4,4.8,0.4v7.5c-1.4,0-2.3-0.1-5.7-0.5
								c-1.7-0.2-2.7-0.3-3.7-0.4c-2.7-0.2-4.7,0-6,0.6c-1,0.4-2,0.8-3.6,1.2c-0.4,0.1-1.8,0.6-1.9,0.6c-2.3,0.7-3.7,1.2-4.6,1.6
								C89.6,81,90.9,82.4,92.7,84.1z"/>
						</g>
					</g>
				</g>
				<g transform="translate(675.000000, 1657.000000)">
					<polygon id="路径" class="st1" points="6.2,1.6 6.2,48.8 35.1,48.8 35.1,54.6 0.2,54.6 0.2,1.6 					"/>
					<path id="形状" class="st1" d="M48.5,0v7.8H42V0H48.5z M42.2,14.6h6v40h-6V14.6z"/>
					<path id="路径_1_" class="st1" d="M65.3,14.6v6.2c1.4-1.9,3.2-3.5,5.3-4.9c2.1-1.3,4.5-2,7.1-2c2.6,0,5,0.4,6.9,1.1
						s3.6,1.9,5,3.4c3.3,3.3,5,7.5,5,12.9v23.3h-6V31.5c0-3.7-1-6.6-3.1-8.8s-4.8-3.3-8.1-3.3c-3.4,0-6.2,1.1-8.6,3.4
						c-2.3,2.3-3.5,5.2-3.5,8.8v23h-6v-40H65.3z"/>
					<path id="路径_2_" class="st1" d="M133.7,54.6v-6.2c-1.4,1.9-3.2,3.5-5.3,4.9c-2.1,1.3-4.5,2-7.1,2c-2.6,0-5-0.4-6.9-1.1
						s-3.6-1.9-5-3.4c-3.3-3.3-5-7.5-5-12.9V14.6h6v23.1c0,3.7,1,6.6,3.1,8.8s4.8,3.3,8.1,3.3c3.4,0,6.2-1.1,8.6-3.4
						c2.3-2.3,3.5-5.2,3.5-8.8v-23h6v40H133.7z"/>
					<polygon id="路径_3_" class="st1" points="168.2,33.9 183.7,54.5 176,54.5 164.7,38.2 153.3,54.5 145.7,54.5 161.1,33.9 
						146.6,14.5 154.3,14.5 164.6,29.6 174.8,14.5 182.5,14.5 					"/>
					<polygon id="路径_4_" class="st1" points="254.5,1.6 254.5,54.6 247.5,54.6 214.8,9.9 214.8,54.6 208.8,54.6 208.8,1.6 
						215.8,1.6 248.5,46.2 248.5,1.6 					"/>
					<path id="形状_1_" class="st1" d="M297.3,48.2c-3.2,4.7-8,7-14.3,7c-5.8,0-10.5-2-14.1-6c-3.5-3.9-5.3-8.8-5.3-14.6
						s1.8-10.7,5.3-14.6c3.6-4,8.5-6,14.5-6s10.7,2.4,13.9,7.1v-6.5h6v40h-6V48.2z M283.8,49.8c4.3,0,7.7-1.5,10.2-4.5
						c2.4-2.8,3.6-6.4,3.6-10.7s-1.2-7.9-3.6-10.7c-2.5-3-5.9-4.5-10.2-4.5c-4.3,0-7.7,1.5-10.4,4.5c-2.5,2.8-3.8,6.4-3.8,10.7
						s1.3,7.9,3.8,10.7C276.1,48.3,279.5,49.8,283.8,49.8z"/>
					<polygon id="路径_5_" class="st1" points="318.7,54.6 318.7,19.9 310.5,19.9 310.5,14.6 318.7,14.6 318.7,0.3 324.7,0.3 
						324.7,14.6 333.9,14.6 333.9,19.9 324.7,19.9 324.7,54.6 					"/>
					<path id="形状_2_" class="st1" d="M347.3,0v7.8h-6.5V0H347.3z M341.1,14.6h6v40h-6V14.6z"/>
					<polygon id="路径_6_" class="st1" points="391.6,14.6 376,54.6 369,54.6 353.3,14.6 359.9,14.6 372.5,48.2 385.1,14.6 					
						"/>
					<path id="形状_3_" class="st1" d="M415.2,49.8c5.4,0,9.3-2.2,11.6-6.7h6.6c-1.4,3.6-3.6,6.6-6.6,8.8c-3,2.2-6.9,3.4-11.6,3.4
						c-6,0-10.9-2-14.7-6c-3.7-3.9-5.5-8.8-5.5-14.6c0-5.9,1.8-10.8,5.3-14.6c3.7-4,8.6-6,14.6-6s10.8,2,14.6,6
						c3.5,3.8,5.3,8.7,5.3,14.6v2.4h-33.5c0.4,3.7,1.9,6.7,4.4,9.1C408,48.6,411.3,49.8,415.2,49.8z M414.8,19.4
						c-3.7,0-6.8,1.1-9.3,3.4c-2.3,2.2-3.8,5-4.3,8.6h27.2c-0.5-3.5-2-6.4-4.3-8.6C421.5,20.5,418.4,19.4,414.8,19.4z"/>
				</g>
				<g transform="translate(669.000000, 1784.000000)">
					<polygon id="路径_7_" class="st2" points="38.3,8.1 22.1,8.1 22.1,49.4 16.9,49.4 16.9,8.1 0.7,8.1 0.7,3.1 38.3,3.1 					
						"/>
					<path id="路径_8_" class="st2" d="M49.1,0.4v19.5c1.3-1.7,2.8-3.1,4.6-4.3c1.8-1.2,3.9-1.8,6.2-1.8c2.3,0,4.3,0.3,6,1
						c1.7,0.7,3.2,1.6,4.4,2.9c2.9,2.8,4.3,6.6,4.3,11.3v20.4h-5.2V29.2c0-3.2-0.9-5.8-2.7-7.7c-1.8-1.9-4.2-2.9-7.1-2.9
						c-2.9,0-5.4,1-7.5,2.9c-2.1,2-3.1,4.6-3.1,7.7v20.2h-5.2v-49H49.1z"/>
					<path id="形状_4_" class="st2" d="M99.1,45.2c4.7,0,8.1-2,10.1-5.9h5.7c-1.2,3.2-3.1,5.7-5.8,7.7c-2.6,2-6,2.9-10.2,2.9
						c-5.3,0-9.6-1.8-12.9-5.2c-3.2-3.4-4.8-7.7-4.8-12.8c0-5.2,1.5-9.5,4.6-12.8c3.3-3.5,7.5-5.2,12.7-5.2s9.5,1.8,12.7,5.2
						c3.1,3.4,4.6,7.6,4.6,12.8V34H86.5c0.4,3.2,1.7,5.9,3.9,8C92.8,44.2,95.6,45.2,99.1,45.2z M98.6,18.6c-3.2,0-5.9,1-8.1,3
						c-2.1,1.9-3.3,4.4-3.8,7.5h23.8c-0.5-3.1-1.7-5.6-3.8-7.5C104.6,19.6,101.9,18.6,98.6,18.6z"/>
					<path id="形状_5_" class="st2" d="M164.7,43.8c-2.8,4.1-7,6.2-12.5,6.2c-5,0-9.1-1.8-12.3-5.2c-3.1-3.5-4.6-7.7-4.6-12.8
						s1.5-9.4,4.6-12.8c3.2-3.5,7.4-5.2,12.7-5.2c5.3,0,9.3,2.1,12.2,6.2V0.5h5.2v49h-5.2v-5.7H164.7z M152.8,45.2
						c3.8,0,6.8-1.3,9-3.9c2.1-2.5,3.1-5.6,3.1-9.4s-1-6.9-3.1-9.4c-2.2-2.6-5.2-3.9-9-3.9c-3.7,0-6.8,1.3-9.1,3.9
						c-2.2,2.5-3.3,5.6-3.3,9.4s1.1,6.9,3.3,9.4C146.1,43.9,149.1,45.2,152.8,45.2z"/>
					<path id="形状_6_" class="st2" d="M206.3,43.8c-2.8,4.1-7,6.2-12.5,6.2c-5,0-9.1-1.8-12.3-5.2c-3.1-3.5-4.6-7.7-4.6-12.8
						s1.5-9.4,4.6-12.8c3.2-3.5,7.4-5.2,12.7-5.2s9.3,2.1,12.2,6.2v-5.7h5.2v35h-5.2L206.3,43.8L206.3,43.8z M194.5,45.2
						c3.8,0,6.8-1.3,9-3.9c2.1-2.5,3.1-5.6,3.1-9.4s-1-6.9-3.1-9.4c-2.2-2.6-5.2-3.9-9-3.9c-3.7,0-6.8,1.3-9.1,3.9
						c-2.2,2.5-3.3,5.6-3.3,9.4s1.1,6.9,3.3,9.4C187.7,43.9,190.7,45.2,194.5,45.2z"/>
					<polygon id="路径_9_" class="st2" points="224.4,49.4 224.4,19 217.3,19 217.3,14.4 224.4,14.4 224.4,1.9 229.6,1.9 
						229.6,14.4 237.6,14.4 237.6,19 229.6,19 229.6,49.4 					"/>
					<path id="形状_7_" class="st2" d="M270.1,43.8c-2.8,4.1-7,6.2-12.5,6.2c-5,0-9.1-1.8-12.3-5.2c-3.1-3.5-4.6-7.7-4.6-12.8
						s1.5-9.4,4.6-12.8c3.2-3.5,7.4-5.2,12.7-5.2c5.3,0,9.3,2.1,12.2,6.2v-5.7h5.2v35h-5.2v-5.7H270.1z M258.2,45.2
						c3.8,0,6.8-1.3,9-3.9c2.1-2.5,3.1-5.6,3.1-9.4s-1-6.9-3.1-9.4c-2.2-2.6-5.2-3.9-9-3.9c-3.7,0-6.8,1.3-9.1,3.9
						c-2.2,2.5-3.3,5.6-3.3,9.4s1.1,6.9,3.3,9.4C251.5,43.9,254.5,45.2,258.2,45.2z"/>
					<path id="形状_8_" class="st2" d="M304.6,20c2.8-4.1,7-6.2,12.5-6.2c5,0,9.1,1.8,12.2,5.2c3.1,3.5,4.7,7.7,4.7,12.8
						s-1.6,9.4-4.7,12.8c-3.1,3.5-7.3,5.2-12.6,5.2c-5.3,0-9.3-2.1-12.2-6.2v19.5h-5.2V14.2h5.2V20H304.6z M316.4,18.6
						c-3.8,0-6.8,1.3-9,3.9c-2.1,2.5-3.2,5.6-3.2,9.4s1.1,6.9,3.2,9.4c2.2,2.6,5.2,3.9,9,3.9c3.7,0,6.8-1.3,9.1-3.9
						c2.2-2.5,3.3-5.6,3.3-9.4s-1.1-6.9-3.3-9.4C323.2,20,320.1,18.6,316.4,18.6z"/>
					<polygon id="路径_10_" class="st2" points="346.2,49.4 341,49.4 341,0.4 346.2,0.4 					"/>
					<path id="形状_9_" class="st2" d="M382.6,43.8c-2.8,4.1-7,6.2-12.5,6.2c-5,0-9.1-1.8-12.3-5.2c-3.1-3.5-4.6-7.7-4.6-12.8
						s1.5-9.4,4.6-12.8c3.2-3.5,7.4-5.2,12.7-5.2s9.3,2.1,12.2,6.2v-5.7h5.2v35h-5.2v-5.7H382.6z M370.7,45.2c3.8,0,6.8-1.3,9-3.9
						c2.1-2.5,3.1-5.6,3.1-9.4s-1-6.9-3.1-9.4c-2.2-2.6-5.2-3.9-9-3.9c-3.7,0-6.8,1.3-9.1,3.9c-2.2,2.5-3.3,5.6-3.3,9.4
						s1.1,6.9,3.3,9.4C364,43.9,367,45.2,370.7,45.2z"/>
					<path id="路径_11_" class="st2" d="M402.2,14.4v5.5c1.3-1.7,2.8-3.1,4.6-4.3c1.8-1.2,3.9-1.8,6.2-1.8s4.3,0.3,6,1
						s3.2,1.6,4.4,2.9c2.9,2.8,4.3,6.6,4.3,11.3v20.4h-5.2V29.2c0-3.2-0.9-5.8-2.7-7.7c-1.8-1.9-4.2-2.9-7.1-2.9
						c-2.9,0-5.4,1-7.5,2.9c-2.1,2-3.1,4.6-3.1,7.7v20.2h-5.2v-35H402.2z"/>
					<path id="形状_10_" class="st2" d="M452.1,45.2c4.7,0,8.1-2,10.1-5.9h5.7c-1.2,3.2-3.1,5.7-5.8,7.7c-2.6,2-6,2.9-10.2,2.9
						c-5.3,0-9.6-1.8-12.9-5.2c-3.2-3.4-4.8-7.7-4.8-12.8c0-5.2,1.5-9.5,4.6-12.8c3.3-3.5,7.5-5.2,12.7-5.2s9.5,1.8,12.7,5.2
						c3.1,3.4,4.6,7.6,4.6,12.8V34h-29.3c0.4,3.2,1.7,5.9,3.9,8C445.8,44.2,448.7,45.2,452.1,45.2z M451.7,18.6c-3.2,0-5.9,1-8.1,3
						c-2.1,1.9-3.3,4.4-3.8,7.5h23.8c-0.5-3.1-1.7-5.6-3.8-7.5C457.6,19.6,454.9,18.6,451.7,18.6z"/>
					<path id="形状_11_" class="st2" d="M506,45.2c4.7,0,8.1-2,10.1-5.9h5.7c-1.2,3.2-3.1,5.7-5.8,7.7c-2.6,2-6,2.9-10.2,2.9
						c-5.3,0-9.6-1.8-12.9-5.2c-3.2-3.4-4.8-7.7-4.8-12.8c0-5.2,1.5-9.5,4.6-12.8c3.3-3.5,7.5-5.2,12.7-5.2c5.2,0,9.5,1.8,12.7,5.2
						c3.1,3.4,4.6,7.6,4.6,12.8V34h-29.3c0.4,3.2,1.7,5.9,3.9,8C499.7,44.2,502.6,45.2,506,45.2z M505.6,18.6c-3.2,0-5.9,1-8.1,3
						c-2.1,1.9-3.3,4.4-3.8,7.5h23.8c-0.5-3.1-1.7-5.6-3.8-7.5C511.5,19.6,508.8,18.6,505.6,18.6z"/>
					<path id="路径_12_" class="st2" d="M534.7,19.8c2.3-3.9,5.9-5.9,10.6-5.9c2.3,0,4.5,0.6,6.5,1.9c2,1.2,3.5,3,4.7,5.2
						c1.6-2.9,4.1-5,7.4-6.3c1.4-0.5,2.9-0.8,4.6-0.8s3.3,0.3,4.9,1c1.6,0.7,3,1.6,4.2,2.9c2.6,2.8,3.9,6.3,3.9,10.5v21.1h-5.2v-21
						c0-2.9-0.8-5.3-2.4-7.1c-1.6-1.8-3.7-2.7-6.2-2.7c-2.7,0-4.9,0.9-6.6,2.6c-1.9,1.8-2.8,4.2-2.8,7.3v20.9h-5.2v-21
						c0-2.9-0.8-5.3-2.4-7.1c-1.6-1.8-3.7-2.7-6.2-2.7c-2.7,0-4.9,0.9-6.7,2.6c-1.9,1.8-2.8,4.2-2.8,7.3v20.9h-5.2v-35h5.2v5.4
						H534.7z"/>
					<path id="形状_12_" class="st2" d="M595.4,20c2.8-4.1,7-6.2,12.5-6.2c5,0,9.1,1.8,12.2,5.2c3.1,3.5,4.7,7.7,4.7,12.8
						s-1.6,9.4-4.7,12.8c-3.1,3.5-7.3,5.2-12.6,5.2s-9.3-2.1-12.2-6.2v19.5h-5.2V14.2h5.2V20H595.4z M607.3,18.6
						c-3.8,0-6.8,1.3-9,3.9c-2.1,2.5-3.2,5.6-3.2,9.4s1.1,6.9,3.2,9.4c2.2,2.6,5.2,3.9,9,3.9c3.7,0,6.8-1.3,9.1-3.9
						c2.2-2.5,3.3-5.6,3.3-9.4s-1.1-6.9-3.3-9.4C614,20,611,18.6,607.3,18.6z"/>
					<polygon id="路径_13_" class="st2" points="637,49.4 631.8,49.4 631.8,0.4 637,0.4 					"/>
					<path id="形状_13_" class="st2" d="M661.3,13.9c5.2,0,9.5,1.8,12.7,5.2c3.1,3.4,4.6,7.6,4.6,12.8s-1.5,9.5-4.6,12.8
						c-3.3,3.5-7.5,5.2-12.7,5.2s-9.5-1.8-12.7-5.2c-3.1-3.4-4.6-7.6-4.6-12.8s1.5-9.5,4.6-12.8C651.8,15.6,656.1,13.9,661.3,13.9z
						 M661.3,45.2c3.8,0,6.8-1.3,9-3.9c2.1-2.5,3.1-5.6,3.1-9.4s-1-6.9-3.1-9.4c-2.2-2.6-5.2-3.9-9-3.9s-6.8,1.3-9,3.9
						c-2.1,2.5-3.2,5.6-3.2,9.4s1,6.9,3.2,9.4C654.5,43.9,657.5,45.2,661.3,45.2z"/>
					<polygon id="路径_14_" class="st2" points="694.4,63.3 688.7,63.3 695.1,48.9 680.8,14.4 686.6,14.4 697.9,43.1 709.4,14.4 
						715.1,14.4 					"/>
					<path id="路径_15_" class="st2" d="M740.5,23.8c-0.5-3.6-3.4-5.5-8.8-5.5c-5.4,0-8.1,1.7-8.1,5c0,1.4,0.6,2.5,1.7,3.2
						c1.1,0.7,2.6,1.3,4.3,1.8c1.7,0.5,3.6,0.9,5.6,1.3s3.9,1,5.6,1.7c1.7,0.7,3.2,1.7,4.3,3c1.1,1.3,1.7,3,1.7,5.2
						c0,3.4-1.3,6-3.9,7.8c-2.6,1.8-6,2.7-10.4,2.7c-4.7,0-8.4-1.2-11.1-3.5c-2.5-2.1-3.9-4.7-4.1-8.1h5.5c0.3,3.2,2.1,5.4,5.5,6.5
						c1.2,0.4,2.4,0.6,3.6,0.6c1.2,0,2.3-0.1,3.3-0.2c1-0.1,2-0.4,3-0.8c2.2-0.9,3.4-2.4,3.4-4.6c0-1.4-0.6-2.6-1.7-3.3
						c-1.1-0.8-2.6-1.4-4.3-1.9c-1.7-0.5-3.6-0.9-5.6-1.3c-2-0.4-3.9-0.9-5.6-1.6c-1.7-0.7-3.2-1.7-4.3-2.9c-1.1-1.2-1.7-2.9-1.7-5
						c0-3.2,1.2-5.6,3.5-7.4c2.3-1.8,5.7-2.6,10.3-2.6c4.3,0,7.7,1,10.1,3.1c2.1,1.7,3.2,4,3.6,6.9h-5.4V23.8z"/>
					<path id="形状_14_" class="st2" d="M789.2,3.1c2.8,0,5.4,0.5,8,1.6c2.6,1.1,4.8,2.6,6.8,4.6c4.3,4.4,6.5,10.1,6.5,17
						s-2.2,12.6-6.5,17c-2,2-4.2,3.5-6.8,4.6c-2.6,1.1-5.2,1.6-8,1.6h-19.5V3.2h19.5V3.1z M789,44.5c4.9,0,8.8-1.8,11.8-5.4
						c2.9-3.5,4.4-7.7,4.4-12.8s-1.5-9.4-4.4-12.8c-3-3.6-7-5.4-11.8-5.4h-14.1v36.4H789L789,44.5z"/>
					<path id="形状_15_" class="st2" d="M824.2,49.4H819V3.1h22.2c4.7,0,8.5,1.3,11.3,3.9s4.3,6.1,4.3,10.6
						c0,5.8-2.4,9.7-7.2,11.8c-1.4,0.6-2.7,1-4,1.3l12.2,18.7h-6.2l-11.2-17.8h-16.1L824.2,49.4L824.2,49.4z M824.2,26.7h16
						c4.9,0,8.4-1.5,10.2-4.6c0.7-1.2,1-2.7,1-4.5c0-2.9-1-5.3-3-7s-4.7-2.6-8-2.6h-16.3v18.7H824.2z"/>
					<path id="形状_16_" class="st2" d="M901.2,15.4c0,5.1-2.1,8.6-6.2,10.4c3.8,1.3,6.4,3.6,7.8,6.9c0.5,1.3,0.8,2.8,0.8,4.5
						c0,5.6-3,9.3-8.9,11.2c-2,0.7-4.3,1-6.9,1h-22V3.1h20.8c5,0,8.8,1.4,11.4,4.1C900.1,9.3,901.2,12,901.2,15.4z M871,23.8h15.5
						c4.3,0,7.2-1.5,8.6-4.4c0.5-1,0.8-2.1,0.8-3.3c0-1.2-0.2-2.2-0.5-3.1c-0.3-0.9-0.8-1.7-1.5-2.4c-1.5-1.6-3.8-2.5-6.8-2.5H871
						V23.8z M888.3,44.5c3.2,0,5.7-0.7,7.4-2s2.6-3.2,2.6-5.6c0-2.3-0.8-4.2-2.5-5.7c-1.9-1.7-4.5-2.5-8-2.5H871v15.9L888.3,44.5
						L888.3,44.5z"/>
					<path id="形状_17_" class="st2" d="M931.6,3.1c2.8,0,5.4,0.5,8,1.6c2.6,1.1,4.8,2.6,6.8,4.6c4.3,4.4,6.5,10.1,6.5,17
						s-2.2,12.6-6.5,17c-2,2-4.2,3.5-6.8,4.6c-2.6,1.1-5.2,1.6-8,1.6h-19.5V3.2h19.5V3.1z M931.4,44.5c4.9,0,8.8-1.8,11.8-5.4
						c2.9-3.5,4.4-7.7,4.4-12.8s-1.5-9.4-4.4-12.8c-3-3.6-7-5.4-11.8-5.4h-14.1v36.4H931.4L931.4,44.5z"/>
					<path id="形状_18_" class="st2" d="M1002.5,43.8c-2.8,4.1-7,6.2-12.5,6.2c-5,0-9.1-1.8-12.3-5.2c-3.1-3.5-4.6-7.7-4.6-12.8
						s1.5-9.4,4.6-12.8c3.2-3.5,7.4-5.2,12.7-5.2c5.3,0,9.3,2.1,12.2,6.2v-5.7h5.2v35h-5.2L1002.5,43.8L1002.5,43.8z M990.6,45.2
						c3.8,0,6.8-1.3,9-3.9c2.1-2.5,3.1-5.6,3.1-9.4s-1-6.9-3.1-9.4c-2.2-2.6-5.2-3.9-9-3.9c-3.7,0-6.8,1.3-9.1,3.9
						c-2.2,2.5-3.3,5.6-3.3,9.4s1.1,6.9,3.3,9.4C983.9,43.9,986.9,45.2,990.6,45.2z"/>
					<path id="路径_16_" class="st2" d="M1022.1,14.4v5.5c1.3-1.7,2.8-3.1,4.6-4.3c1.8-1.2,3.9-1.8,6.2-1.8c2.3,0,4.3,0.3,6,1
						c1.7,0.7,3.2,1.6,4.4,2.9c2.9,2.8,4.3,6.6,4.3,11.3v20.4h-5.2V29.2c0-3.2-0.9-5.8-2.7-7.7c-1.8-1.9-4.2-2.9-7.1-2.9
						s-5.4,1-7.5,2.9c-2.1,2-3.1,4.6-3.1,7.7v20.2h-5.2v-35H1022.1z"/>
					<path id="形状_19_" class="st2" d="M1083.7,43.8c-2.8,4.1-7,6.2-12.5,6.2c-5,0-9.1-1.8-12.3-5.2c-3.1-3.5-4.6-7.7-4.6-12.8
						s1.5-9.4,4.6-12.8c3.2-3.5,7.4-5.2,12.7-5.2c5.3,0,9.3,2.1,12.2,6.2V0.5h5.2v49h-5.2v-5.7H1083.7z M1071.9,45.2
						c3.8,0,6.8-1.3,9-3.9c2.1-2.5,3.1-5.6,3.1-9.4s-1-6.9-3.1-9.4c-2.2-2.6-5.2-3.9-9-3.9c-3.7,0-6.8,1.3-9.1,3.9
						c-2.2,2.5-3.3,5.6-3.3,9.4s1.1,6.9,3.3,9.4C1065.1,43.9,1068.2,45.2,1071.9,45.2z"/>
					<polygon id="路径_17_" class="st2" points="1119.4,3.1 1119.4,44.4 1144.7,44.4 1144.7,49.4 1114.2,49.4 1114.2,3.1 					"/>
					<polygon id="路径_18_" class="st2" points="1183.5,3.1 1164.7,49.4 1158.7,49.4 1139.9,3.1 1145.6,3.1 1161.6,43.5 
						1177.6,3.1 					"/>
					<polygon id="路径_19_" class="st2" points="1234.4,3.1 1234.4,49.4 1229.2,49.4 1229.2,11 1212,33 1194.6,11 1194.6,49.4 
						1189.4,49.4 1189.4,3.1 1195.5,3.1 1212.1,25.1 1228.4,3.1 					"/>
					<polygon id="路径_20_" class="st2" points="1244.9,43.8 1251.8,43.8 1245.6,58.7 1240.8,58.7 					"/>
					<polygon id="路径_21_" class="st2" points="1296.8,21.5 1288,49.4 1282,49.4 1271,14.4 1276.6,14.4 1285,42.9 1293.9,14.4 
						1299.6,14.4 1308.5,42.9 1316.9,14.4 1322.5,14.4 1311.5,49.4 1305.5,49.4 					"/>
					<path id="路径_22_" class="st2" d="M1333,0.4v19.5c1.3-1.7,2.8-3.1,4.6-4.3c1.8-1.2,3.9-1.8,6.2-1.8c2.3,0,4.3,0.3,6,1
						c1.7,0.7,3.2,1.6,4.4,2.9c2.9,2.8,4.3,6.6,4.3,11.3v20.4h-5.2V29.2c0-3.2-0.9-5.8-2.7-7.7c-1.8-1.9-4.2-2.9-7.1-2.9
						s-5.4,1-7.5,2.9c-2.1,2-3.1,4.6-3.1,7.7v20.2h-5.2v-49H1333z"/>
					<path id="形状_20_" class="st2" d="M1372.8,1.7v6.9h-5.7V1.7H1372.8z M1367.4,14.4h5.2v35h-5.2V14.4z"/>
					<path id="路径_23_" class="st2" d="M1397.9,45.2c2.2,0,4.2-0.6,6-1.9c1.7-1.3,3-2.9,3.8-4.9h5.7c-1.1,3.5-3,6.2-5.9,8.3
						c-3,2.1-6.5,3.2-10.6,3.2c-5.1,0-9.3-1.8-12.5-5.2c-3.1-3.4-4.7-7.7-4.7-12.8s1.6-9.4,4.7-12.8c3.2-3.5,7.4-5.2,12.5-5.2
						c4.1,0,7.7,1.1,10.6,3.2c2.8,2.1,4.8,4.9,5.9,8.3h-5.7c-0.8-2-2.1-3.6-3.8-4.9c-1.7-1.3-3.7-1.9-6-1.9c-2.2,0-4.1,0.3-5.7,1
						c-1.6,0.7-2.9,1.7-4,2.9c-2.3,2.5-3.4,5.6-3.4,9.4c0,3.7,1.1,6.9,3.4,9.4C1390.6,43.9,1393.8,45.2,1397.9,45.2z"/>
					<path id="路径_24_" class="st2" d="M1425.1,0.4v19.5c1.3-1.7,2.8-3.1,4.6-4.3c1.8-1.2,3.9-1.8,6.2-1.8c2.3,0,4.3,0.3,6,1
						c1.7,0.7,3.2,1.6,4.4,2.9c2.9,2.8,4.3,6.6,4.3,11.3v20.4h-5.2V29.2c0-3.2-0.9-5.8-2.7-7.7c-1.8-1.9-4.2-2.9-7.1-2.9
						s-5.4,1-7.5,2.9c-2.1,2-3.1,4.6-3.1,7.7v20.2h-5.2v-49H1425.1z"/>
					<path id="形状_21_" class="st2" d="M31.6,143.8c-2.8,4.1-7,6.2-12.5,6.2c-5,0-9.1-1.8-12.3-5.2c-3.1-3.5-4.6-7.7-4.6-12.8
						c0-5.1,1.5-9.4,4.6-12.8c3.2-3.5,7.4-5.2,12.7-5.2s9.3,2.1,12.2,6.2v-5.7h5.2v35h-5.2v-5.7H31.6z M19.8,145.2
						c3.8,0,6.8-1.3,9-3.9c2.1-2.5,3.1-5.6,3.1-9.4c0-3.8-1-6.9-3.1-9.4c-2.2-2.6-5.2-3.9-9-3.9c-3.7,0-6.8,1.3-9.1,3.9
						c-2.2,2.5-3.3,5.6-3.3,9.4c0,3.8,1.1,6.9,3.3,9.4C13,143.9,16,145.2,19.8,145.2z"/>
					<path id="路径_25_" class="st2" d="M64.4,113.9v5.2h-0.6c-3.8,0-6.9,1.5-9.2,4.6c-2.2,2.9-3.4,6.3-3.4,10.4v15.4H46v-35h5.2
						v8.6c1.1-3.6,3.5-6.3,7.3-8c1.5-0.7,3.4-1.1,5.6-1.1L64.4,113.9L64.4,113.9z"/>
					<path id="形状_22_" class="st2" d="M84.8,145.2c4.7,0,8.1-2,10.1-5.9h5.7c-1.2,3.2-3.1,5.7-5.8,7.7c-2.6,2-6,2.9-10.2,2.9
						c-5.3,0-9.6-1.8-12.9-5.2c-3.2-3.4-4.8-7.7-4.8-12.8c0-5.2,1.5-9.5,4.6-12.8c3.3-3.5,7.5-5.2,12.7-5.2c5.2,0,9.5,1.8,12.7,5.2
						c3.1,3.4,4.6,7.6,4.6,12.8v2.1H72.2c0.4,3.2,1.7,5.9,3.9,8C78.5,144.2,81.3,145.2,84.8,145.2z M84.4,118.6c-3.2,0-5.9,1-8.1,3
						c-2.1,1.9-3.3,4.4-3.8,7.5h23.8c-0.5-3.1-1.7-5.6-3.8-7.5C90.3,119.6,87.6,118.6,84.4,118.6z"/>
					<path id="形状_23_" class="st2" d="M128.3,120.1c2.8-4.2,7-6.2,12.5-6.2c5,0,9.1,1.8,12.2,5.2c3.1,3.5,4.7,7.7,4.7,12.8
						c0,5.1-1.6,9.4-4.7,12.8c-3.1,3.5-7.3,5.2-12.6,5.2c-5.3,0-9.3-2.1-12.1-6.2v5.6h-5.2v-49h5.2V120.1z M140.2,145.2
						c3.7,0,6.8-1.3,9.1-3.9c2.2-2.5,3.3-5.6,3.3-9.4c0-3.8-1.1-6.9-3.3-9.4c-2.3-2.6-5.4-3.9-9.1-3.9c-3.8,0-6.8,1.3-9,3.9
						c-2.1,2.5-3.2,5.6-3.2,9.4c0,3.8,1.1,6.9,3.2,9.4C133.4,143.9,136.4,145.2,140.2,145.2z"/>
					<path id="形状_24_" class="st2" d="M192,143.8c-2.8,4.1-7,6.2-12.5,6.2c-5,0-9.1-1.8-12.3-5.2c-3.1-3.5-4.6-7.7-4.6-12.8
						c0-5.1,1.5-9.4,4.6-12.8c3.2-3.5,7.4-5.2,12.7-5.2c5.3,0,9.3,2.1,12.2,6.2v-5.7h5.2v35H192V143.8z M180.1,145.2
						c3.8,0,6.8-1.3,9-3.9c2.1-2.5,3.1-5.6,3.1-9.4c0-3.8-1-6.9-3.1-9.4c-2.2-2.6-5.2-3.9-9-3.9c-3.7,0-6.8,1.3-9.1,3.9
						c-2.2,2.5-3.3,5.6-3.3,9.4c0,3.8,1.1,6.9,3.3,9.4C173.4,143.9,176.4,145.2,180.1,145.2z"/>
					<polygon id="路径_26_" class="st2" points="210.1,149.4 210.1,119 203,119 203,114.4 210.1,114.4 210.1,101.9 215.3,101.9 
						215.3,114.4 223.3,114.4 223.3,119 215.3,119 215.3,149.4 					"/>
					<polygon id="路径_27_" class="st2" points="232.9,149.4 232.9,119 225.8,119 225.8,114.4 232.9,114.4 232.9,101.9 
						238.1,101.9 238.1,114.4 246.1,114.4 246.1,119 238.1,119 238.1,149.4 					"/>
					<polygon id="路径_28_" class="st2" points="257.2,149.4 252,149.4 252,100.4 257.2,100.4 					"/>
					<path id="形状_25_" class="st2" d="M281.9,145.2c4.7,0,8.1-2,10.1-5.9h5.7c-1.2,3.2-3.1,5.7-5.8,7.7c-2.6,2-6,2.9-10.2,2.9
						c-5.3,0-9.6-1.8-12.9-5.2c-3.2-3.4-4.8-7.7-4.8-12.8c0-5.2,1.5-9.5,4.6-12.8c3.3-3.5,7.5-5.2,12.7-5.2c5.2,0,9.5,1.8,12.7,5.2
						c3.1,3.4,4.6,7.6,4.6,12.8v2.1h-29.3c0.4,3.2,1.7,5.9,3.9,8C275.6,144.2,278.4,145.2,281.9,145.2z M281.5,118.6
						c-3.2,0-5.9,1-8.1,3c-2.1,1.9-3.3,4.4-3.8,7.5h23.8c-0.5-3.1-1.7-5.6-3.8-7.5C287.4,119.6,284.7,118.6,281.5,118.6z"/>
					<polygon id="路径_29_" class="st2" points="304.4,126.2 321.9,126.2 321.9,131.3 304.4,131.3 					"/>
					<polygon id="路径_30_" class="st2" points="332.6,149.4 332.6,119 325.5,119 325.5,114.4 332.6,114.4 332.6,101.9 
						337.8,101.9 337.8,114.4 345.8,114.4 345.8,119 337.8,119 337.8,149.4 					"/>
					<path id="形状_26_" class="st2" d="M366.5,145.2c4.7,0,8.1-2,10.1-5.9h5.7c-1.2,3.2-3.1,5.7-5.8,7.7c-2.6,2-6,2.9-10.2,2.9
						c-5.3,0-9.6-1.8-12.9-5.2c-3.2-3.4-4.8-7.7-4.8-12.8c0-5.2,1.5-9.5,4.6-12.8c3.3-3.5,7.5-5.2,12.7-5.2c5.2,0,9.5,1.8,12.7,5.2
						c3.1,3.4,4.6,7.6,4.6,12.8v2.1h-29.3c0.4,3.2,1.7,5.9,3.9,8C360.2,144.2,363.1,145.2,366.5,145.2z M366.1,118.6
						c-3.2,0-5.9,1-8.1,3c-2.1,1.9-3.3,4.4-3.8,7.5H378c-0.5-3.1-1.7-5.6-3.8-7.5C372,119.6,369.3,118.6,366.1,118.6z"/>
					<path id="路径_31_" class="st2" d="M410.5,123.8c-0.5-3.6-3.4-5.5-8.8-5.5c-5.4,0-8.1,1.7-8.1,5c0,1.4,0.6,2.5,1.7,3.2
						c1.1,0.7,2.6,1.3,4.3,1.8c1.7,0.5,3.6,0.9,5.6,1.3c2,0.4,3.9,1,5.6,1.7c1.7,0.7,3.2,1.7,4.3,3s1.7,3,1.7,5.2
						c0,3.4-1.3,6-3.9,7.8s-6,2.7-10.4,2.7c-4.7,0-8.4-1.2-11.1-3.5c-2.5-2.1-3.9-4.7-4.1-8.1h5.5c0.3,3.2,2.1,5.4,5.5,6.5
						c1.2,0.4,2.4,0.6,3.6,0.6c1.2,0,2.3-0.1,3.3-0.2c1-0.1,2-0.4,3-0.8c2.2-0.9,3.4-2.4,3.4-4.6c0-1.4-0.6-2.6-1.7-3.3
						c-1.1-0.8-2.6-1.4-4.3-1.9c-1.7-0.5-3.6-0.9-5.6-1.3c-2-0.4-3.9-0.9-5.6-1.6c-1.7-0.7-3.2-1.7-4.3-2.9c-1.1-1.2-1.7-2.9-1.7-5
						c0-3.2,1.2-5.6,3.5-7.4c2.3-1.8,5.7-2.6,10.3-2.6c4.3,0,7.7,1,10.1,3.1c2.1,1.7,3.2,4,3.6,6.9L410.5,123.8L410.5,123.8z"/>
					<polygon id="路径_32_" class="st2" points="427.4,149.4 427.4,119 420.3,119 420.3,114.4 427.4,114.4 427.4,101.9 
						432.6,101.9 432.6,114.4 440.6,114.4 440.6,119 432.6,119 432.6,149.4 					"/>
					<path id="形状_27_" class="st2" d="M461.4,145.2c4.7,0,8.1-2,10.1-5.9h5.7c-1.2,3.2-3.1,5.7-5.8,7.7c-2.6,2-6,2.9-10.2,2.9
						c-5.3,0-9.6-1.8-12.9-5.2c-3.2-3.4-4.8-7.7-4.8-12.8c0-5.2,1.5-9.5,4.6-12.8c3.3-3.5,7.5-5.2,12.7-5.2c5.2,0,9.5,1.8,12.7,5.2
						c3.1,3.4,4.6,7.6,4.6,12.8v2.1H449c0.4,3.2,1.7,5.9,3.9,8C455.1,144.2,457.9,145.2,461.4,145.2z M461,118.6c-3.2,0-5.9,1-8.1,3
						c-2.1,1.9-3.3,4.4-3.8,7.5h23.8c-0.5-3.1-1.7-5.6-3.8-7.5C466.9,119.6,464.2,118.6,461,118.6z"/>
					<path id="形状_28_" class="st2" d="M512.1,143.8c-2.8,4.1-7,6.2-12.5,6.2c-5,0-9.1-1.8-12.3-5.2c-3.1-3.5-4.6-7.7-4.6-12.8
						c0-5.1,1.5-9.4,4.6-12.8c3.2-3.5,7.4-5.2,12.7-5.2s9.3,2.1,12.2,6.2v-19.7h5.2v49h-5.2v-5.7H512.1z M500.2,145.2
						c3.8,0,6.8-1.3,9-3.9c2.1-2.5,3.1-5.6,3.1-9.4c0-3.8-1-6.9-3.1-9.4c-2.2-2.6-5.2-3.9-9-3.9c-3.7,0-6.8,1.3-9.1,3.9
						c-2.2,2.5-3.3,5.6-3.3,9.4c0,3.8,1.1,6.9,3.3,9.4C493.5,143.9,496.5,145.2,500.2,145.2z"/>
					<path id="路径_33_" class="st2" d="M557.5,145.2c2.2,0,4.2-0.6,6-1.9c1.7-1.3,3-2.9,3.8-4.9h5.7c-1.1,3.5-3,6.2-5.9,8.3
						c-3,2.1-6.5,3.2-10.6,3.2c-5.1,0-9.3-1.8-12.5-5.2c-3.1-3.4-4.7-7.7-4.7-12.8c0-5.1,1.6-9.4,4.7-12.8c3.2-3.5,7.4-5.2,12.5-5.2
						c4.1,0,7.7,1.1,10.6,3.2c2.8,2.1,4.8,4.9,5.9,8.3h-5.7c-0.8-2-2.1-3.6-3.8-4.9s-3.7-1.9-6-1.9c-2.2,0-4.1,0.3-5.7,1
						c-1.6,0.7-2.9,1.7-4,2.9c-2.3,2.5-3.4,5.6-3.4,9.4c0,3.7,1.1,6.9,3.4,9.4C550.2,143.9,553.4,145.2,557.5,145.2z"/>
					<path id="形状_29_" class="st2" d="M594.6,113.9c5.2,0,9.5,1.8,12.7,5.2c3.1,3.4,4.6,7.6,4.6,12.8c0,5.2-1.5,9.5-4.6,12.8
						c-3.3,3.5-7.5,5.2-12.7,5.2c-5.2,0-9.5-1.8-12.7-5.2c-3.1-3.4-4.6-7.6-4.6-12.8c0-5.2,1.5-9.5,4.6-12.8
						C585.1,115.6,589.4,113.9,594.6,113.9z M594.6,145.2c3.8,0,6.8-1.3,9-3.9c2.1-2.5,3.1-5.6,3.1-9.4c0-3.8-1-6.9-3.1-9.4
						c-2.2-2.6-5.2-3.9-9-3.9c-3.8,0-6.8,1.3-9,3.9c-2.1,2.5-3.2,5.6-3.2,9.4c0,3.8,1,6.9,3.2,9.4
						C587.8,143.9,590.8,145.2,594.6,145.2z"/>
					<path id="路径_34_" class="st2" d="M624.1,119.8c2.3-3.9,5.9-5.9,10.6-5.9c2.3,0,4.5,0.6,6.5,1.9c2,1.2,3.5,3,4.7,5.2
						c1.6-2.9,4.1-5,7.4-6.3c1.4-0.5,2.9-0.8,4.6-0.8c1.7,0,3.3,0.3,4.9,1c1.6,0.7,3,1.6,4.2,2.9c2.6,2.8,3.9,6.3,3.9,10.5v21.1
						h-5.2v-21c0-2.9-0.8-5.3-2.4-7.1c-1.6-1.8-3.7-2.7-6.2-2.7c-2.7,0-4.9,0.9-6.6,2.6c-1.9,1.8-2.8,4.2-2.8,7.3v20.9h-5.2v-21
						c0-2.9-0.8-5.3-2.4-7.1c-1.6-1.8-3.7-2.7-6.2-2.7c-2.7,0-4.9,0.9-6.7,2.6c-1.9,1.8-2.8,4.2-2.8,7.3v20.9h-5.2v-35h5.2v5.4
						H624.1z"/>
					<path id="形状_30_" class="st2" d="M684.9,120c2.8-4.1,7-6.2,12.5-6.2c5,0,9.1,1.8,12.2,5.2c3.1,3.5,4.7,7.7,4.7,12.8
						c0,5.1-1.6,9.4-4.7,12.8c-3.1,3.5-7.3,5.2-12.6,5.2s-9.3-2.1-12.2-6.2v19.5h-5.2v-48.9h5.2v5.8H684.9z M696.7,118.6
						c-3.8,0-6.8,1.3-9,3.9c-2.1,2.5-3.2,5.6-3.2,9.4c0,3.8,1.1,6.9,3.2,9.4c2.2,2.6,5.2,3.9,9,3.9c3.7,0,6.8-1.3,9.1-3.9
						c2.2-2.5,3.3-5.6,3.3-9.4c0-3.8-1.1-6.9-3.3-9.4C703.5,120,700.4,118.6,696.7,118.6z"/>
					<path id="形状_31_" class="st2" d="M736.4,113.9c5.2,0,9.5,1.8,12.7,5.2c3.1,3.4,4.6,7.6,4.6,12.8c0,5.2-1.5,9.5-4.6,12.8
						c-3.3,3.5-7.5,5.2-12.7,5.2c-5.2,0-9.5-1.8-12.7-5.2c-3.1-3.4-4.6-7.6-4.6-12.8c0-5.2,1.5-9.5,4.6-12.8
						C726.9,115.6,731.2,113.9,736.4,113.9z M736.4,145.2c3.8,0,6.8-1.3,9-3.9c2.1-2.5,3.1-5.6,3.1-9.4c0-3.8-1-6.9-3.1-9.4
						c-2.2-2.6-5.2-3.9-9-3.9c-3.8,0-6.8,1.3-9,3.9c-2.1,2.5-3.2,5.6-3.2,9.4c0,3.8,1,6.9,3.2,9.4
						C729.6,143.9,732.6,145.2,736.4,145.2z"/>
					<path id="路径_35_" class="st2" d="M765.9,114.4v5.5c1.3-1.7,2.8-3.1,4.6-4.3c1.8-1.2,3.9-1.8,6.2-1.8s4.3,0.3,6,1
						c1.7,0.7,3.2,1.6,4.4,2.9c2.9,2.8,4.3,6.6,4.3,11.3v20.4h-5.2v-20.2c0-3.2-0.9-5.8-2.7-7.7s-4.2-2.9-7.1-2.9
						c-2.9,0-5.4,1-7.5,2.9c-2.1,2-3.1,4.6-3.1,7.7v20.2h-5.2v-35H765.9z"/>
					<path id="形状_32_" class="st2" d="M815.9,145.2c4.7,0,8.1-2,10.1-5.9h5.7c-1.2,3.2-3.1,5.7-5.8,7.7c-2.6,2-6,2.9-10.2,2.9
						c-5.3,0-9.6-1.8-12.9-5.2c-3.2-3.4-4.8-7.7-4.8-12.8c0-5.2,1.5-9.5,4.6-12.8c3.3-3.5,7.5-5.2,12.7-5.2s9.5,1.8,12.7,5.2
						c3.1,3.4,4.6,7.6,4.6,12.8v2.1h-29.3c0.4,3.2,1.7,5.9,3.9,8C809.6,144.2,812.5,145.2,815.9,145.2z M815.5,118.6
						c-3.2,0-5.9,1-8.1,3c-2.1,1.9-3.3,4.4-3.8,7.5h23.8c-0.5-3.1-1.7-5.6-3.8-7.5C821.4,119.6,818.7,118.6,815.5,118.6z"/>
					<path id="路径_36_" class="st2" d="M844.6,114.4v5.5c1.3-1.7,2.8-3.1,4.6-4.3c1.8-1.2,3.9-1.8,6.2-1.8c2.3,0,4.3,0.3,6,1
						c1.7,0.7,3.2,1.6,4.4,2.9c2.9,2.8,4.3,6.6,4.3,11.3v20.4h-5.2v-20.2c0-3.2-0.9-5.8-2.7-7.7s-4.2-2.9-7.1-2.9
						c-2.9,0-5.4,1-7.5,2.9c-2.1,2-3.1,4.6-3.1,7.7v20.2h-5.2v-35H844.6z"/>
					<polygon id="路径_37_" class="st2" points="881.9,149.4 881.9,119 874.8,119 874.8,114.4 881.9,114.4 881.9,101.9 
						887.1,101.9 887.1,114.4 895.1,114.4 895.1,119 887.1,119 887.1,149.4 					"/>
					<path id="路径_38_" class="st2" d="M921.5,123.8c-0.5-3.6-3.4-5.5-8.8-5.5c-5.4,0-8.1,1.7-8.1,5c0,1.4,0.6,2.5,1.7,3.2
						c1.1,0.7,2.6,1.3,4.3,1.8c1.7,0.5,3.6,0.9,5.6,1.3c2,0.4,3.9,1,5.6,1.7s3.2,1.7,4.3,3c1.1,1.3,1.7,3,1.7,5.2
						c0,3.4-1.3,6-3.9,7.8c-2.6,1.8-6,2.7-10.4,2.7c-4.7,0-8.4-1.2-11.1-3.5c-2.5-2.1-3.9-4.7-4.1-8.1h5.5c0.3,3.2,2.1,5.4,5.5,6.5
						c1.2,0.4,2.4,0.6,3.6,0.6c1.2,0,2.3-0.1,3.3-0.2c1-0.1,2-0.4,3-0.8c2.2-0.9,3.4-2.4,3.4-4.6c0-1.4-0.6-2.6-1.7-3.3
						c-1.1-0.8-2.6-1.4-4.3-1.9c-1.7-0.5-3.6-0.9-5.6-1.3c-2-0.4-3.9-0.9-5.6-1.6c-1.7-0.7-3.2-1.7-4.3-2.9c-1.1-1.2-1.7-2.9-1.7-5
						c0-3.2,1.2-5.6,3.5-7.4c2.3-1.8,5.7-2.6,10.3-2.6c4.3,0,7.7,1,10.1,3.1c2.1,1.7,3.2,4,3.6,6.9L921.5,123.8L921.5,123.8z"/>
					<path id="形状_33_" class="st2" d="M955,101.7v6.9h-5.7v-6.9H955z M949.5,114.4h5.2v35h-5.2V114.4z"/>
					<path id="路径_39_" class="st2" d="M969.1,114.4v5.5c1.3-1.7,2.8-3.1,4.6-4.3c1.8-1.2,3.9-1.8,6.2-1.8c2.3,0,4.3,0.3,6,1
						c1.7,0.7,3.2,1.6,4.4,2.9c2.9,2.8,4.3,6.6,4.3,11.3v20.4h-5.2v-20.2c0-3.2-0.9-5.8-2.7-7.7s-4.2-2.9-7.1-2.9
						c-2.9,0-5.4,1-7.5,2.9c-2.1,2-3.1,4.6-3.1,7.7v20.2h-5.2v-35H969.1z"/>
					<polygon id="路径_40_" class="st2" points="1024.8,103.1 1024.8,144.4 1050.1,144.4 1050.1,149.4 1019.6,149.4 1019.6,103.1 
											"/>
					<path id="形状_34_" class="st2" d="M1061.2,101.7v6.9h-5.7v-6.9H1061.2z M1055.7,114.4h5.2v35h-5.2V114.4z"/>
					<path id="路径_41_" class="st2" d="M1075.3,114.4v5.5c1.3-1.7,2.8-3.1,4.6-4.3c1.8-1.2,3.9-1.8,6.2-1.8c2.3,0,4.3,0.3,6,1
						c1.7,0.7,3.2,1.6,4.4,2.9c2.9,2.8,4.3,6.6,4.3,11.3v20.4h-5.2v-20.2c0-3.2-0.9-5.8-2.7-7.7c-1.8-1.9-4.2-2.9-7.1-2.9
						c-2.9,0-5.4,1-7.5,2.9c-2.1,2-3.1,4.6-3.1,7.7v20.2h-5.2v-35H1075.3z"/>
					<path id="路径_42_" class="st2" d="M1134.6,149.4v-5.5c-1.3,1.7-2.8,3.1-4.6,4.3s-3.9,1.8-6.2,1.8c-2.3,0-4.3-0.3-6-1
						c-1.7-0.7-3.2-1.6-4.4-2.9c-2.9-2.8-4.3-6.6-4.3-11.3v-20.4h5.2v20.2c0,3.2,0.9,5.8,2.7,7.7c1.8,1.9,4.2,2.9,7.1,2.9
						s5.4-1,7.5-2.9c2.1-2,3.1-4.6,3.1-7.7v-20.2h5.2v35H1134.6z"/>
					<polygon id="路径_43_" class="st2" points="1164.3,131.4 1177.9,149.5 1171.2,149.5 1161.3,135.2 1151.4,149.5 1144.8,149.5 
						1158.3,131.4 1145.6,114.5 1152.3,114.5 1161.3,127.7 1170.3,114.5 1177,114.5 					"/>
					<polygon id="路径_44_" class="st2" points="1213,128.2 1228.1,149.4 1221.7,149.4 1209.5,131.8 1202.9,138.3 1202.9,149.4 
						1197.7,149.4 1197.7,100.4 1202.9,100.4 1202.9,131.8 1219.8,114.4 1227.1,114.4 					"/>
					<path id="形状_35_" class="st2" d="M1246.6,145.2c4.7,0,8.1-2,10.1-5.9h5.7c-1.2,3.2-3.1,5.7-5.8,7.7c-2.6,2-6,2.9-10.2,2.9
						c-5.3,0-9.6-1.8-12.9-5.2c-3.2-3.4-4.8-7.7-4.8-12.8c0-5.2,1.5-9.5,4.6-12.8c3.3-3.5,7.5-5.2,12.7-5.2s9.5,1.8,12.7,5.2
						c3.1,3.4,4.6,7.6,4.6,12.8v2.1H1234c0.4,3.2,1.7,5.9,3.9,8C1240.3,144.2,1243.2,145.2,1246.6,145.2z M1246.2,118.6
						c-3.2,0-5.9,1-8.1,3c-2.1,1.9-3.3,4.4-3.8,7.5h23.8c-0.5-3.1-1.7-5.6-3.8-7.5C1252.1,119.6,1249.4,118.6,1246.2,118.6z"/>
					<path id="路径_45_" class="st2" d="M1288.5,113.9v5.2h-0.6c-3.8,0-6.9,1.5-9.2,4.6c-2.2,2.9-3.4,6.3-3.4,10.4v15.4h-5.2v-35
						h5.2v8.6c1.1-3.6,3.5-6.3,7.3-8c1.5-0.7,3.4-1.1,5.6-1.1L1288.5,113.9L1288.5,113.9z"/>
					<path id="路径_46_" class="st2" d="M1299.4,114.4v5.5c1.3-1.7,2.8-3.1,4.6-4.3c1.8-1.2,3.9-1.8,6.2-1.8c2.3,0,4.3,0.3,6,1
						c1.7,0.7,3.2,1.6,4.4,2.9c2.9,2.8,4.3,6.6,4.3,11.3v20.4h-5.2v-20.2c0-3.2-0.9-5.8-2.7-7.7s-4.2-2.9-7.1-2.9s-5.4,1-7.5,2.9
						c-2.1,2-3.1,4.6-3.1,7.7v20.2h-5.2v-35H1299.4z"/>
					<path id="形状_36_" class="st2" d="M1349.4,145.2c4.7,0,8.1-2,10.1-5.9h5.7c-1.2,3.2-3.1,5.7-5.8,7.7c-2.6,2-6,2.9-10.2,2.9
						c-5.3,0-9.6-1.8-12.9-5.2c-3.2-3.4-4.8-7.7-4.8-12.8c0-5.2,1.5-9.5,4.6-12.8c3.3-3.5,7.5-5.2,12.7-5.2c5.2,0,9.5,1.8,12.7,5.2
						c3.1,3.4,4.6,7.6,4.6,12.8v2.1H1337c0.4,3.2,1.7,5.9,3.9,8C1343.1,144.2,1345.9,145.2,1349.4,145.2z M1349,118.6
						c-3.2,0-5.9,1-8.1,3c-2.1,1.9-3.3,4.4-3.8,7.5h23.8c-0.5-3.1-1.7-5.6-3.8-7.5C1354.9,119.6,1352.2,118.6,1349,118.6z"/>
					<polygon id="路径_47_" class="st2" points="1378,149.4 1372.8,149.4 1372.8,100.4 1378,100.4 					"/>
				</g>
			</g>
		</g>
	</g>
</g>
</svg>
