<?xml version="1.0" encoding="utf-8"?>
<!-- Generator: Adobe Illustrator 22.0.0, SVG Export Plug-In . SVG Version: 6.00 Build 0)  -->
<svg version="1.1" id="图层_1" xmlns="http://www.w3.org/2000/svg" xmlns:xlink="http://www.w3.org/1999/xlink" x="0px" y="0px"
	 viewBox="0 0 2274 459" style="enable-background:new 0 0 2274 459;" xml:space="preserve">
<style type="text/css">
	.st0{fill:#707070;}
	.st1{fill:#FFBB10;stroke:#FFBB10;stroke-width:2;}
	.st2{fill:#232323;}
</style>
<title>03</title>
<desc>Created with Sketch.</desc>
<g id="页面-1">
	<g id="Piraeus易拉宝" transform="translate(-179.000000, -2288.000000)">
		<g id="图层_2_1_" transform="translate(179.000000, 0.000000)">
			<g id="编组" transform="translate(0.000000, 277.000000)">
				<g id="simple" transform="translate(190.000000, 2089.000000)">
					<g id="tap">
						
							<g id="Shape" transform="translate(147.648041, 164.124302) rotate(45.000000) translate(-147.648041, -164.124302) translate(30.648041, 73.124302)">
							<path id="形状" class="st0" d="M218.2,68.7l-39.3-43.3c-7.8-7.8-20.4-7.8-28.3,0.1c-2.5,2.5-4.2,5.5-5.1,8.7
								c-7.8-6-19.1-5.4-26.3,1.8c-2.5,2.5-4.2,5.5-5.1,8.6c-7.8-6-19.1-5.4-26.3,1.8c-2.4,2.4-4.1,5.3-5,8.4L64.3,36.3
								c-7.8-7.8-20.4-7.8-28.3,0.1c-7.8,7.8-7.8,20.5,0,28.3l71.2,71.3L65,142.6c-11.4,1.6-20,11.6-20,23.1c0,8.7,7,15.7,15.7,15.7
								h98.5c15.4,0,29.8-6,40.6-16.9l16.4-16.5c10.8-10.9,16.8-25.3,16.8-40.7C233.1,93,227.8,79.3,218.2,68.7z M208.9,140.6
								l-16.4,16.5c-8.9,8.9-20.7,13.8-33.3,13.8H60.7c-2.9,0-5.2-2.3-5.2-5.2c0-6.4,4.7-11.8,11.1-12.7l52.4-8.2
								c1.9-0.3,3.5-1.7,4.2-3.5c0.6-1.9,0.1-3.9-1.3-5.3L43.5,57.5c-3.7-3.7-3.7-9.8,0.1-13.5c1.9-1.9,4.3-2.8,6.7-2.8
								s4.9,0.9,6.7,2.8l52.3,52.4c2,2,5.4,2,7.4,0c1-1,1.5-2.4,1.5-3.7c0-1.3-0.5-2.7-1.5-3.7L95.3,67.6c-3.7-3.7-3.7-9.8,0.1-13.5
								c3.7-3.7,9.8-3.7,13.5,0l21.4,21.4c2,2,5.4,2,7.4,0c1-1,1.5-2.4,1.5-3.7c0-1.3-0.5-2.7-1.5-3.7l-10.9-10.9
								c-3.7-3.7-3.7-9.8,0.1-13.5c3.7-3.7,9.8-3.7,13.5,0l11,11l0,0l0,0l0,0l0,0l0,0l0,0c2,1.9,5.3,1.9,7.3-0.1s2-5.4,0-7.4
								l-0.4-0.4c-1.8-1.8-2.8-4.2-2.8-6.7c0-2.5,1-4.9,2.8-6.8c3.7-3.7,9.7-3.7,13.3-0.2l39.1,43.1c7.9,8.7,12.2,19.9,12.2,31.7
								C222.7,119.9,217.8,131.8,208.9,140.6z"/>
							<path id="路径" class="st0" d="M89.9,28C82.3,11.1,65.5,0.2,47.1,0.2c-25.9,0-47,21.1-47,47.1c0,18.4,10.9,35.3,27.7,42.9
								c0.7,0.3,1.4,0.5,2.2,0.5c2,0,3.9-1.2,4.8-3.1c1.2-2.6,0-5.7-2.6-6.9c-13.1-5.9-21.6-19-21.6-33.3
								c0-20.2,16.4-36.6,36.6-36.6c14.3,0,27.4,8.5,33.3,21.6c1.2,2.6,4.3,3.8,6.9,2.6C89.9,33.7,91,30.6,89.9,28z"/>
						</g>
						<path id="Oval-2" class="st0" d="M64.9,99.3c0.9,2.8-0.6,5.8-3.3,6.7c-2.8,0.9-5.7-0.6-6.7-3.3c-4.1-12.2-5.1-25.2-2.8-38.1
							c7.4-42.2,47.6-70.4,89.8-63s70.3,47.7,62.9,89.9c-0.5,2.9-3.2,4.8-6.1,4.3c-2.9-0.5-4.8-3.2-4.3-6.1
							c6.4-36.5-17.9-71.3-54.3-77.7S68.9,29.9,62.5,66.4C60.5,77.6,61.4,88.8,64.9,99.3z"/>
					</g>
				</g>
				<g transform="translate(671.000000, 2099.000000)">
					<path id="路径_1_" class="st1" d="M10.3,12c-1,0.9-1.7,1.9-2,2.9C8,16,7.8,17.1,7.8,18.3c0,1.2,0.5,2.3,1.6,3.3
						c1,1,2.4,1.9,4.1,2.6c1.7,0.7,3.7,1.3,5.8,1.8c2.2,0.5,4.4,1.1,6.7,1.6c2.3,0.6,4.5,1.2,6.7,1.9s4.1,1.6,5.8,2.8
						c3.8,2.4,5.7,5.7,5.7,9.8c0,5-1.9,8.7-5.6,11.4c-3.7,2.6-8.8,3.9-15.4,3.9c-7.4,0-13.1-1.5-17-4.6C2.7,50,0.8,46.1,0.3,41h6.2
						c0.2,3.6,2,6.4,5.3,8.3c2.9,1.7,6.7,2.5,11.4,2.5c9.9,0,14.9-3.1,14.9-9.4c0-2.1-0.9-3.8-2.7-5c-1.8-1.2-4-2.2-6.7-3
						c-2.7-0.8-5.6-1.5-8.7-2.2s-6-1.6-8.7-2.7S6.4,27,4.6,25.2C2.8,23.4,1.9,21,1.9,18c0-4.3,1.7-7.8,5-10.6
						c3.3-2.7,8.3-4.1,15-4.1s11.9,1.5,15.6,4.6c3.4,2.7,5.1,6.2,5.4,10.5h-6.2c-0.5-4.4-3.4-7.3-8.5-8.7c-1.8-0.5-4.1-0.8-6.8-0.8
						s-5,0.3-6.8,0.9C12.7,10.4,11.3,11.1,10.3,12z"/>
					<path id="形状_1_" class="st1" d="M59,2.3v7.8h-6.5V2.3H59z M52.8,16.9h6v40h-6V16.9z"/>
					<path id="路径_2_" class="st1" d="M75.8,22.9c2.7-4.5,6.7-6.7,12.2-6.7c2.7,0,5.1,0.7,7.4,2.1c2.3,1.4,4,3.4,5.3,6
						c1.8-3.4,4.6-5.8,8.5-7.2c1.5-0.6,3.3-0.9,5.2-0.9s3.8,0.4,5.6,1.2c1.8,0.8,3.4,1.9,4.8,3.3c3,3.2,4.5,7.2,4.5,12v24.2h-6v-24
						c0-3.3-0.9-6-2.8-8.2c-1.9-2-4.2-3-7.1-3c-3,0-5.6,1-7.6,3c-2.1,2-3.2,4.8-3.2,8.3v23.9h-6v-24c0-3.3-0.9-6-2.8-8.2
						c-1.9-2-4.2-3-7.1-3c-3,0-5.6,1-7.6,3c-2.1,2-3.2,4.8-3.2,8.3v23.9h-6v-40h6L75.8,22.9L75.8,22.9z"/>
					<path id="形状_2_" class="st1" d="M145.9,23.3c3.2-4.7,8-7,14.3-7c5.8,0,10.4,2,14,6c3.6,3.9,5.4,8.8,5.4,14.6
						s-1.8,10.7-5.4,14.6c-3.6,4-8.4,6-14.4,6s-10.7-2.4-13.9-7.1v22.3h-6V16.9h6V23.3z M159.4,21.7c-4.3,0-7.7,1.5-10.2,4.5
						c-2.4,2.8-3.6,6.4-3.6,10.7s1.2,7.9,3.6,10.7c2.5,3,5.9,4.5,10.2,4.5c4.3,0,7.7-1.5,10.4-4.5c2.5-2.8,3.8-6.4,3.8-10.7
						s-1.3-7.9-3.8-10.7C167.1,23.2,163.7,21.7,159.4,21.7z"/>
					<polygon id="路径_3_" class="st1" points="194.1,56.9 188.1,56.9 188.1,0.9 194.1,0.9 					"/>
					<path id="形状_3_" class="st1" d="M222.9,52.1c5.4,0,9.3-2.2,11.6-6.7h6.6c-1.4,3.6-3.6,6.6-6.6,8.8s-6.9,3.4-11.6,3.4
						c-6,0-10.9-2-14.7-6c-3.7-3.9-5.5-8.8-5.5-14.6c0-5.9,1.8-10.8,5.3-14.6c3.7-4,8.6-6,14.6-6s10.8,2,14.6,6
						c3.5,3.8,5.3,8.7,5.3,14.6v2.4H209c0.4,3.7,1.9,6.7,4.4,9.1C215.7,50.8,219,52.1,222.9,52.1z M222.4,21.7
						c-3.7,0-6.8,1.1-9.3,3.4c-2.3,2.2-3.8,5-4.3,8.6H236c-0.5-3.5-2-6.4-4.3-8.6C229.2,22.8,226.1,21.7,222.4,21.7z"/>
				</g>
				<g transform="translate(673.000000, 2228.000000)">
					<polygon id="路径_4_" class="st2" points="41.4,3.4 41.4,49.7 35.3,49.7 6.7,10.6 6.7,49.7 1.5,49.7 1.5,3.4 7.6,3.4 
						36.2,42.4 36.2,3.4 					"/>
					<path id="形状_4_" class="st2" d="M66.2,14.2c5.2,0,9.5,1.8,12.7,5.2c3.1,3.4,4.6,7.6,4.6,12.8S82,41.7,78.9,45
						c-3.3,3.5-7.5,5.2-12.7,5.2c-5.2,0-9.5-1.8-12.7-5.2c-3.1-3.4-4.6-7.6-4.6-12.8s1.5-9.5,4.6-12.8
						C56.7,15.9,60.9,14.2,66.2,14.2z M66.2,45.5c3.8,0,6.8-1.3,9-3.9c2.1-2.5,3.1-5.6,3.1-9.4s-1-6.9-3.1-9.4
						c-2.2-2.6-5.2-3.9-9-3.9c-3.8,0-6.8,1.3-9,3.9c-2.1,2.5-3.2,5.6-3.2,9.4s1,6.9,3.2,9.4C59.4,44.2,62.4,45.5,66.2,45.5z"/>
					<path id="路径_5_" class="st2" d="M110.6,14.7v5.5c1.3-1.7,2.8-3.1,4.6-4.3c1.8-1.2,3.9-1.8,6.2-1.8c2.3,0,4.3,0.3,6,1
						c1.7,0.7,3.2,1.6,4.4,2.9c2.9,2.8,4.3,6.6,4.3,11.3v20.4H131V29.5c0-3.2-0.9-5.8-2.7-7.7c-1.8-1.9-4.2-2.9-7.1-2.9
						c-2.9,0-5.4,1-7.5,2.9c-2.1,2-3.1,4.6-3.1,7.7v20.2h-5.2v-35H110.6z"/>
					<path id="形状_5_" class="st2" d="M160.6,45.5c4.7,0,8.1-2,10.1-5.9h5.7c-1.2,3.2-3.1,5.7-5.8,7.7c-2.6,2-6,2.9-10.2,2.9
						c-5.3,0-9.6-1.8-12.9-5.2c-3.2-3.4-4.8-7.7-4.8-12.8c0-5.2,1.5-9.5,4.6-12.8c3.3-3.5,7.5-5.2,12.7-5.2s9.5,1.8,12.7,5.2
						c3.1,3.4,4.6,7.6,4.6,12.8v2.1H148c0.4,3.2,1.7,5.9,3.9,8C154.3,44.4,157.1,45.5,160.6,45.5z M160.2,18.9c-3.2,0-5.9,1-8.1,3
						c-2.1,1.9-3.3,4.4-3.8,7.5h23.8c-0.5-3.1-1.7-5.6-3.8-7.5C166.1,19.9,163.4,18.9,160.2,18.9z"/>
					<path id="形状_6_" class="st2" d="M199.6,45.5c4.7,0,8.1-2,10.1-5.9h5.7c-1.2,3.2-3.1,5.7-5.8,7.7c-2.6,2-6,2.9-10.2,2.9
						c-5.3,0-9.6-1.8-12.9-5.2c-3.2-3.4-4.8-7.7-4.8-12.8c0-5.2,1.5-9.5,4.6-12.8c3.3-3.5,7.5-5.2,12.7-5.2s9.5,1.8,12.7,5.2
						c3.1,3.4,4.6,7.6,4.6,12.8v2.1H187c0.4,3.2,1.7,5.9,3.9,8C193.3,44.4,196.1,45.5,199.6,45.5z M199.2,18.9c-3.2,0-5.9,1-8.1,3
						c-2.1,1.9-3.3,4.4-3.8,7.5h23.8c-0.5-3.1-1.7-5.6-3.8-7.5C205.1,19.9,202.4,18.9,199.2,18.9z"/>
					<path id="形状_7_" class="st2" d="M250.2,44.1c-2.8,4.1-7,6.2-12.5,6.2c-5,0-9.1-1.8-12.3-5.2c-3.1-3.5-4.6-7.7-4.6-12.8
						s1.5-9.4,4.6-12.8c3.2-3.5,7.4-5.2,12.7-5.2c5.3,0,9.3,2.1,12.2,6.2V0.8h5.2v49h-5.2v-5.7H250.2z M238.4,45.5
						c3.8,0,6.8-1.3,9-3.9c2.1-2.5,3.1-5.6,3.1-9.4s-1-6.9-3.1-9.4c-2.2-2.6-5.2-3.9-9-3.9c-3.7,0-6.8,1.3-9.1,3.9
						c-2.2,2.5-3.3,5.6-3.3,9.4s1.1,6.9,3.3,9.4C231.7,44.2,234.7,45.5,238.4,45.5z"/>
					<polygon id="路径_6_" class="st2" points="283.3,49.7 283.3,19.3 276.2,19.3 276.2,14.7 283.3,14.7 283.3,2.2 288.5,2.2 
						288.5,14.7 296.5,14.7 296.5,19.3 288.5,19.3 288.5,49.7 					"/>
					<path id="形状_8_" class="st2" d="M316.8,14.2c5.2,0,9.5,1.8,12.7,5.2c3.1,3.4,4.6,7.6,4.6,12.8s-1.5,9.5-4.6,12.8
						c-3.3,3.5-7.5,5.2-12.7,5.2c-5.2,0-9.5-1.8-12.7-5.2c-3.1-3.4-4.6-7.6-4.6-12.8s1.5-9.5,4.6-12.8
						C307.3,15.9,311.6,14.2,316.8,14.2z M316.8,45.5c3.8,0,6.8-1.3,9-3.9c2.1-2.5,3.1-5.6,3.1-9.4s-1-6.9-3.1-9.4
						c-2.2-2.6-5.2-3.9-9-3.9c-3.8,0-6.8,1.3-9,3.9c-2.1,2.5-3.2,5.6-3.2,9.4s1,6.9,3.2,9.4C310.1,44.2,313,45.5,316.8,45.5z"/>
					<path id="形状_9_" class="st2" d="M361.5,2v6.9h-5.7V2H361.5z M356,14.7h5.3v35H356V14.7z"/>
					<path id="路径_7_" class="st2" d="M375.6,14.7v5.5c1.3-1.7,2.8-3.1,4.6-4.3c1.8-1.2,3.9-1.8,6.2-1.8c2.3,0,4.3,0.3,6,1
						c1.7,0.7,3.2,1.6,4.4,2.9c2.9,2.8,4.3,6.6,4.3,11.3v20.4h-5.2V29.5c0-3.2-0.9-5.8-2.7-7.7c-1.8-1.9-4.2-2.9-7.1-2.9
						s-5.4,1-7.5,2.9c-2.1,2-3.1,4.6-3.1,7.7v20.2h-5.2v-35H375.6z"/>
					<polygon id="路径_8_" class="st2" points="412.9,49.7 412.9,19.3 405.8,19.3 405.8,14.7 412.9,14.7 412.9,2.2 418.1,2.2 
						418.1,14.7 426.1,14.7 426.1,19.3 418.1,19.3 418.1,49.7 					"/>
					<path id="形状_10_" class="st2" d="M446.9,45.5c4.7,0,8.1-2,10.1-5.9h5.7c-1.2,3.2-3.1,5.7-5.8,7.7c-2.6,2-6,2.9-10.2,2.9
						c-5.3,0-9.6-1.8-12.9-5.2c-3.2-3.4-4.8-7.7-4.8-12.8c0-5.2,1.5-9.5,4.6-12.8c3.3-3.5,7.5-5.2,12.7-5.2c5.2,0,9.5,1.8,12.7,5.2
						c3.1,3.4,4.6,7.6,4.6,12.8v2.1h-29.3c0.4,3.2,1.7,5.9,3.9,8C440.6,44.4,443.4,45.5,446.9,45.5z M446.5,18.9c-3.2,0-5.9,1-8.1,3
						c-2.1,1.9-3.3,4.4-3.8,7.5h23.8c-0.5-3.1-1.7-5.6-3.8-7.5C452.4,19.9,449.7,18.9,446.5,18.9z"/>
					<path id="形状_11_" class="st2" d="M497.6,20.3v-5.6h5.2v34c0,5-1.4,8.9-4.3,11.5c-2.9,2.6-6.7,4-11.6,4s-8.6-0.9-11.4-2.8
						c-2.7-1.9-4.6-4.3-5.6-7.4h5.8c1.5,3.6,4.9,5.5,10.2,5.5c4.1,0,7-0.9,8.8-2.8c1.8-1.9,2.7-4.6,2.7-8.3v-4.8
						c-2.8,4.2-7,6.2-12.5,6.2c-5,0-9.1-1.7-12.3-5.2C469.5,41.2,468,37,468,32s1.5-9.2,4.6-12.6c3.2-3.5,7.4-5.2,12.7-5.2
						C490.7,14.2,494.8,16.2,497.6,20.3z M485.7,45c1.9,0,3.6-0.3,5.1-1s2.8-1.6,3.9-2.8c2.1-2.4,3.1-5.5,3.1-9.2s-1-6.8-3.1-9.2
						c-2.3-2.5-5.3-3.8-9-3.8c-3.8,0-6.8,1.3-9.1,3.8c-2.2,2.5-3.3,5.6-3.3,9.2c0,3.7,1.1,6.8,3.3,9.2C478.9,43.7,481.9,45,485.7,45
						z"/>
					<path id="路径_9_" class="st2" d="M530.4,14.2v5.2h-0.6c-3.8,0-6.9,1.5-9.2,4.6c-2.2,2.9-3.4,6.3-3.4,10.4v15.4H512v-35h5.2
						v8.6c1.1-3.6,3.5-6.3,7.3-8c1.5-0.7,3.4-1.1,5.6-1.1h0.3V14.2z"/>
					<path id="形状_12_" class="st2" d="M562.4,44.1c-2.8,4.1-7,6.2-12.5,6.2c-5,0-9.1-1.8-12.3-5.2c-3.1-3.5-4.6-7.7-4.6-12.8
						s1.5-9.4,4.6-12.8c3.2-3.5,7.4-5.2,12.7-5.2s9.3,2.1,12.2,6.2v-5.7h5.2v35h-5.2L562.4,44.1L562.4,44.1z M550.6,45.5
						c3.8,0,6.8-1.3,9-3.9c2.1-2.5,3.1-5.6,3.1-9.4s-1-6.9-3.1-9.4c-2.2-2.6-5.2-3.9-9-3.9c-3.7,0-6.8,1.3-9.1,3.9
						c-2.2,2.5-3.3,5.6-3.3,9.4s1.1,6.9,3.3,9.4C543.8,44.2,546.9,45.5,550.6,45.5z"/>
					<polygon id="路径_10_" class="st2" points="580.6,49.7 580.6,19.3 573.5,19.3 573.5,14.7 580.6,14.7 580.6,2.2 585.8,2.2 
						585.8,14.7 593.8,14.7 593.8,19.3 585.8,19.3 585.8,49.7 					"/>
					<path id="形状_13_" class="st2" d="M614.5,45.5c4.7,0,8.1-2,10.1-5.9h5.7c-1.2,3.2-3.1,5.7-5.8,7.7c-2.6,2-6,2.9-10.2,2.9
						c-5.3,0-9.6-1.8-12.9-5.2c-3.2-3.4-4.8-7.7-4.8-12.8c0-5.2,1.5-9.5,4.6-12.8c3.3-3.5,7.5-5.2,12.7-5.2c5.2,0,9.5,1.8,12.7,5.2
						c3.1,3.4,4.6,7.6,4.6,12.8v2.1h-29.3c0.4,3.2,1.7,5.9,3.9,8C608.2,44.4,611.1,45.5,614.5,45.5z M614.1,18.9c-3.2,0-5.9,1-8.1,3
						c-2.1,1.9-3.3,4.4-3.8,7.5H626c-0.5-3.1-1.7-5.6-3.8-7.5C620,19.9,617.3,18.9,614.1,18.9z"/>
					<path id="形状_14_" class="st2" d="M680.1,44.1c-2.8,4.1-7,6.2-12.5,6.2c-5,0-9.1-1.8-12.3-5.2c-3.1-3.5-4.6-7.7-4.6-12.8
						s1.5-9.4,4.6-12.8c3.2-3.5,7.4-5.2,12.7-5.2s9.3,2.1,12.2,6.2v-5.7h5.2v35h-5.2v-5.7H680.1z M668.3,45.5c3.8,0,6.8-1.3,9-3.9
						c2.1-2.5,3.1-5.6,3.1-9.4s-1-6.9-3.1-9.4c-2.2-2.6-5.2-3.9-9-3.9c-3.7,0-6.8,1.3-9.1,3.9c-2.2,2.5-3.3,5.6-3.3,9.4
						s1.1,6.9,3.3,9.4C661.5,44.2,664.6,45.5,668.3,45.5z"/>
					<path id="路径_11_" class="st2" d="M699.7,14.7v5.5c1.3-1.7,2.8-3.1,4.6-4.3s3.9-1.8,6.2-1.8s4.3,0.3,6,1
						c1.7,0.7,3.2,1.6,4.4,2.9c2.9,2.8,4.3,6.6,4.3,11.3v20.4H720V29.5c0-3.2-0.9-5.8-2.7-7.7c-1.8-1.9-4.2-2.9-7.1-2.9
						c-2.9,0-5.4,1-7.5,2.9c-2.1,2-3.1,4.6-3.1,7.7v20.2h-5.2v-35H699.7z"/>
					<polygon id="路径_12_" class="st2" points="742.5,63.6 736.8,63.6 743.2,49.2 728.9,14.7 734.7,14.7 746,43.4 757.5,14.7 
						763.2,14.7 					"/>
					<polygon id="路径_13_" class="st2" points="812.2,14.7 798.6,49.7 792.4,49.7 778.7,14.7 784.4,14.7 795.5,44.1 806.5,14.7 
											"/>
					<path id="形状_15_" class="st2" d="M832.3,45.5c4.7,0,8.1-2,10.1-5.9h5.7c-1.2,3.2-3.1,5.7-5.8,7.7c-2.6,2-6,2.9-10.2,2.9
						c-5.3,0-9.6-1.8-12.9-5.2c-3.2-3.4-4.8-7.7-4.8-12.8c0-5.2,1.5-9.5,4.6-12.8c3.3-3.5,7.5-5.2,12.7-5.2s9.5,1.8,12.7,5.2
						c3.1,3.4,4.6,7.6,4.6,12.8v2.1h-29.3c0.4,3.2,1.7,5.9,3.9,8C826,44.4,828.8,45.5,832.3,45.5z M831.9,18.9c-3.2,0-5.9,1-8.1,3
						c-2.1,1.9-3.3,4.4-3.8,7.5h23.8c-0.5-3.1-1.7-5.6-3.8-7.5C837.8,19.9,835.1,18.9,831.9,18.9z"/>
					<path id="路径_14_" class="st2" d="M860.9,14.7v5.5c1.3-1.7,2.8-3.1,4.6-4.3s3.9-1.8,6.2-1.8s4.3,0.3,6,1
						c1.7,0.7,3.2,1.6,4.4,2.9c2.9,2.8,4.3,6.6,4.3,11.3v20.4h-5.2V29.5c0-3.2-0.9-5.8-2.7-7.7c-1.8-1.9-4.2-2.9-7.1-2.9
						c-2.9,0-5.4,1-7.5,2.9c-2.1,2-3.1,4.6-3.1,7.7v20.2h-5.2v-35H860.9z"/>
					<path id="形状_16_" class="st2" d="M922.6,44.1c-2.8,4.1-7,6.2-12.5,6.2c-5,0-9.1-1.8-12.3-5.2c-3.1-3.5-4.6-7.7-4.6-12.8
						s1.5-9.4,4.6-12.8c3.2-3.5,7.4-5.2,12.7-5.2s9.3,2.1,12.2,6.2V0.8h5.2v49h-5.2v-5.7H922.6z M910.8,45.5c3.8,0,6.8-1.3,9-3.9
						c2.1-2.5,3.1-5.6,3.1-9.4s-1-6.9-3.1-9.4c-2.2-2.6-5.2-3.9-9-3.9c-3.7,0-6.8,1.3-9.1,3.9c-2.2,2.5-3.3,5.6-3.3,9.4
						s1.1,6.9,3.3,9.4C904,44.2,907,45.5,910.8,45.5z"/>
					<path id="形状_17_" class="st2" d="M952.1,14.2c5.2,0,9.5,1.8,12.7,5.2c3.1,3.4,4.6,7.6,4.6,12.8s-1.5,9.5-4.6,12.8
						c-3.3,3.5-7.5,5.2-12.7,5.2c-5.2,0-9.5-1.8-12.7-5.2c-3.1-3.4-4.6-7.6-4.6-12.8s1.5-9.5,4.6-12.8
						C942.7,15.9,946.9,14.2,952.1,14.2z M952.1,45.5c3.8,0,6.8-1.3,9-3.9c2.1-2.5,3.1-5.6,3.1-9.4s-1-6.9-3.1-9.4
						c-2.2-2.6-5.2-3.9-9-3.9c-3.8,0-6.8,1.3-9,3.9c-2.1,2.5-3.2,5.6-3.2,9.4s1,6.9,3.2,9.4C945.4,44.2,948.4,45.5,952.1,45.5z"/>
					<path id="路径_15_" class="st2" d="M994.9,14.2v5.2h-0.6c-3.8,0-6.9,1.5-9.2,4.6c-2.2,2.9-3.4,6.3-3.4,10.4v15.4h-5.2v-35
						h5.2v8.6c1.1-3.6,3.5-6.3,7.3-8c1.5-0.7,3.4-1.1,5.6-1.1h0.3V14.2z"/>
					<path id="路径_16_" class="st2" d="M1036.1,24.1c-0.5-3.6-3.4-5.5-8.8-5.5c-5.4,0-8.1,1.7-8.1,5c0,1.4,0.6,2.5,1.7,3.2
						c1.1,0.7,2.6,1.3,4.3,1.8c1.7,0.5,3.6,0.9,5.6,1.3s3.9,1,5.6,1.7c1.7,0.7,3.2,1.7,4.3,3c1.1,1.3,1.7,3,1.7,5.2
						c0,3.4-1.3,6-3.9,7.8c-2.6,1.8-6,2.7-10.4,2.7c-4.7,0-8.4-1.2-11.1-3.5c-2.5-2.1-3.9-4.7-4.1-8.1h5.5c0.3,3.2,2.1,5.4,5.5,6.5
						c1.2,0.4,2.4,0.6,3.6,0.6s2.3-0.1,3.3-0.2c1-0.1,2-0.4,3-0.8c2.2-0.9,3.4-2.4,3.4-4.6c0-1.4-0.6-2.6-1.7-3.3
						c-1.1-0.8-2.6-1.4-4.3-1.9c-1.7-0.5-3.6-0.9-5.6-1.3c-2-0.4-3.9-0.9-5.6-1.6c-1.7-0.7-3.2-1.7-4.3-2.9c-1.1-1.2-1.7-2.9-1.7-5
						c0-3.2,1.2-5.6,3.5-7.4c2.3-1.8,5.7-2.6,10.3-2.6c4.3,0,7.7,1,10.1,3.1c2.1,1.7,3.2,4,3.6,6.9h-5.4V24.1z"/>
					<polygon id="路径_17_" class="st2" points="1053,49.7 1053,19.3 1045.9,19.3 1045.9,14.7 1053,14.7 1053,2.2 1058.2,2.2 
						1058.2,14.7 1066.2,14.7 1066.2,19.3 1058.2,19.3 1058.2,49.7 					"/>
					<path id="形状_18_" class="st2" d="M1086.5,14.2c5.2,0,9.5,1.8,12.7,5.2c3.1,3.4,4.6,7.6,4.6,12.8s-1.5,9.5-4.6,12.8
						c-3.3,3.5-7.5,5.2-12.7,5.2s-9.5-1.8-12.7-5.2c-3.1-3.4-4.6-7.6-4.6-12.8s1.5-9.5,4.6-12.8
						C1077.1,15.9,1081.3,14.2,1086.5,14.2z M1086.5,45.5c3.8,0,6.8-1.3,9-3.9c2.1-2.5,3.1-5.6,3.1-9.4s-1-6.9-3.1-9.4
						c-2.2-2.6-5.2-3.9-9-3.9s-6.8,1.3-9,3.9c-2.1,2.5-3.2,5.6-3.2,9.4s1,6.9,3.2,9.4C1079.8,44.2,1082.7,45.5,1086.5,45.5z"/>
					<path id="路径_18_" class="st2" d="M1129.3,14.2v5.2h-0.6c-3.8,0-6.9,1.5-9.2,4.6c-2.2,2.9-3.4,6.3-3.4,10.4v15.4h-5.2v-35
						h5.2v8.6c1.1-3.6,3.5-6.3,7.3-8c1.5-0.7,3.4-1.1,5.6-1.1h0.3V14.2z"/>
					<path id="形状_19_" class="st2" d="M1161.4,44.1c-2.8,4.1-7,6.2-12.5,6.2c-5,0-9.1-1.8-12.3-5.2c-3.1-3.5-4.6-7.7-4.6-12.8
						s1.5-9.4,4.6-12.8c3.2-3.5,7.4-5.2,12.7-5.2c5.3,0,9.3,2.1,12.2,6.2v-5.7h5.2v35h-5.2L1161.4,44.1L1161.4,44.1z M1149.5,45.5
						c3.8,0,6.8-1.3,9-3.9c2.1-2.5,3.1-5.6,3.1-9.4s-1-6.9-3.1-9.4c-2.2-2.6-5.2-3.9-9-3.9c-3.7,0-6.8,1.3-9.1,3.9
						c-2.2,2.5-3.3,5.6-3.3,9.4s1.1,6.9,3.3,9.4C1142.8,44.2,1145.8,45.5,1149.5,45.5z"/>
					<path id="形状_20_" class="st2" d="M1203,20.3v-5.6h5.2v34c0,5-1.4,8.9-4.3,11.5c-2.9,2.6-6.7,4-11.6,4
						c-4.9,0-8.6-0.9-11.4-2.8c-2.7-1.9-4.6-4.3-5.6-7.4h5.8c1.5,3.6,4.9,5.5,10.2,5.5c4.1,0,7-0.9,8.8-2.8c1.8-1.9,2.7-4.6,2.7-8.3
						v-4.8c-2.8,4.2-7,6.2-12.5,6.2c-5,0-9.1-1.7-12.3-5.2c-3.1-3.4-4.6-7.6-4.6-12.6s1.5-9.2,4.6-12.6c3.2-3.5,7.4-5.2,12.7-5.2
						C1196.2,14.2,1200.2,16.2,1203,20.3z M1191.2,45c1.9,0,3.6-0.3,5.1-1s2.8-1.6,3.9-2.8c2.1-2.4,3.1-5.5,3.1-9.2s-1-6.8-3.1-9.2
						c-2.3-2.5-5.3-3.8-9-3.8c-3.8,0-6.8,1.3-9.1,3.8c-2.2,2.5-3.3,5.6-3.3,9.2c0,3.7,1.1,6.8,3.3,9.2
						C1184.4,43.7,1187.4,45,1191.2,45z"/>
					<path id="形状_21_" class="st2" d="M1233,45.5c4.7,0,8.1-2,10.1-5.9h5.7c-1.2,3.2-3.1,5.7-5.8,7.7c-2.6,2-6,2.9-10.2,2.9
						c-5.3,0-9.6-1.8-12.9-5.2c-3.2-3.4-4.8-7.7-4.8-12.8c0-5.2,1.5-9.5,4.6-12.8c3.3-3.5,7.5-5.2,12.7-5.2c5.2,0,9.5,1.8,12.7,5.2
						c3.1,3.4,4.6,7.6,4.6,12.8v2.1h-29.3c0.4,3.2,1.7,5.9,3.9,8C1226.7,44.4,1229.5,45.5,1233,45.5z M1232.5,18.9
						c-3.2,0-5.9,1-8.1,3c-2.1,1.9-3.3,4.4-3.8,7.5h23.8c-0.5-3.1-1.7-5.6-3.8-7.5C1238.5,19.9,1235.8,18.9,1232.5,18.9z"/>
					<path id="形状_22_" class="st2" d="M1312.8,49.7h-5.8l-5.7-13.4h-23l-5.7,13.4h-5.8l19.7-46.3h6.6L1312.8,49.7z M1299.3,31.5
						l-9.5-22.6l-9.5,22.6H1299.3z"/>
					<path id="形状_23_" class="st2" d="M1324,49.7h-5.2V3.4h20.9c4.9,0,8.8,1.4,11.7,4.1c2.8,2.7,4.3,6.3,4.3,10.8
						c0,4.6-1.4,8.2-4.3,10.9s-6.8,4-11.7,4H1324V49.7z M1324,8.4v20h15.3c3.6,0,6.4-0.9,8.3-2.7c1.9-1.8,2.8-4.2,2.8-7.3
						s-0.9-5.5-2.8-7.3s-4.6-2.7-8.3-2.7H1324z"/>
					<polygon id="路径_19_" class="st2" points="1367.9,49.7 1362.7,49.7 1362.7,3.4 1367.9,3.4 					"/>
					<polygon id="路径_20_" class="st2" points="1384.1,42.6 1384.1,49.7 1377.3,49.7 1377.3,42.6 					"/>
					<path id="形状_24_" class="st2" d="M1448.8,49.7h-5.8l-5.7-13.4h-23l-5.7,13.4h-5.8l19.7-46.3h6.6L1448.8,49.7z M1435.3,31.5
						l-9.5-22.6l-9.5,22.6H1435.3z"/>
					<polygon id="路径_21_" class="st2" points="1458.9,49.7 1453.7,49.7 1453.7,0.7 1458.9,0.7 					"/>
					<polygon id="路径_22_" class="st2" points="1473.2,49.7 1468,49.7 1468,0.7 1473.2,0.7 					"/>
					<path id="形状_25_" class="st2" d="M5.5,120.4c2.8-4.2,7-6.2,12.5-6.2c5,0,9.1,1.8,12.2,5.2c3.1,3.5,4.7,7.7,4.7,12.8
						c0,5.1-1.6,9.4-4.7,12.8c-3.1,3.5-7.3,5.2-12.6,5.2s-9.3-2.1-12.1-6.2v5.6H0.3v-49h5.2V120.4z M17.4,145.5
						c3.7,0,6.8-1.3,9.1-3.9c2.2-2.5,3.3-5.6,3.3-9.4s-1.1-6.9-3.3-9.4c-2.3-2.6-5.4-3.9-9.1-3.9c-3.8,0-6.8,1.3-9,3.9
						c-2.1,2.5-3.2,5.6-3.2,9.4s1.1,6.9,3.2,9.4C10.6,144.2,13.6,145.5,17.4,145.5z"/>
					<path id="形状_26_" class="st2" d="M69.2,144.1c-2.8,4.1-7,6.2-12.5,6.2c-5,0-9.1-1.8-12.3-5.2c-3.1-3.5-4.6-7.7-4.6-12.8
						c0-5.1,1.5-9.4,4.6-12.8c3.2-3.5,7.4-5.2,12.7-5.2s9.3,2.1,12.2,6.2v-5.7h5.2v35h-5.2v-5.7H69.2z M57.3,145.5
						c3.8,0,6.8-1.3,9-3.9c2.1-2.5,3.1-5.6,3.1-9.4s-1-6.9-3.1-9.4c-2.2-2.6-5.2-3.9-9-3.9c-3.7,0-6.8,1.3-9.1,3.9
						c-2.2,2.5-3.3,5.6-3.3,9.4s1.1,6.9,3.3,9.4C50.6,144.2,53.6,145.5,57.3,145.5z"/>
					<path id="路径_23_" class="st2" d="M99.7,145.5c2.2,0,4.2-0.6,6-1.9c1.7-1.3,3-2.9,3.8-4.9h5.7c-1.1,3.5-3,6.2-5.9,8.3
						c-3,2.1-6.5,3.2-10.6,3.2c-5.1,0-9.3-1.8-12.5-5.2c-3.1-3.4-4.7-7.7-4.7-12.8c0-5.1,1.6-9.4,4.7-12.8c3.2-3.5,7.4-5.2,12.5-5.2
						c4.1,0,7.7,1.1,10.6,3.2c2.8,2.1,4.8,4.9,5.9,8.3h-5.7c-0.8-2-2.1-3.6-3.8-4.9c-1.7-1.3-3.7-1.9-6-1.9c-2.2,0-4.1,0.3-5.7,1
						c-1.6,0.7-2.9,1.7-4,2.9c-2.3,2.5-3.4,5.6-3.4,9.4c0,3.7,1.1,6.9,3.4,9.4C92.4,144.2,95.6,145.5,99.7,145.5z"/>
					<polygon id="路径_24_" class="st2" points="137,128.5 152.1,149.7 145.7,149.7 133.5,132.1 126.9,138.6 126.9,149.7 
						121.7,149.7 121.7,100.7 126.9,100.7 126.9,132.1 143.8,114.7 151.1,114.7 					"/>
					<path id="形状_27_" class="st2" d="M170.6,145.5c4.7,0,8.1-2,10.1-5.9h5.7c-1.2,3.2-3.1,5.7-5.8,7.7c-2.6,2-6,2.9-10.2,2.9
						c-5.3,0-9.6-1.8-12.9-5.2c-3.2-3.4-4.8-7.7-4.8-12.8c0-5.2,1.5-9.5,4.6-12.8c3.3-3.5,7.5-5.2,12.7-5.2s9.5,1.8,12.7,5.2
						c3.1,3.4,4.6,7.6,4.6,12.8v2.1H158c0.4,3.2,1.7,5.9,3.9,8C164.3,144.4,167.1,145.5,170.6,145.5z M170.2,118.9
						c-3.2,0-5.9,1-8.1,3c-2.1,1.9-3.3,4.4-3.8,7.5h23.8c-0.5-3.1-1.7-5.6-3.8-7.5C176.1,119.9,173.4,118.9,170.2,118.9z"/>
					<path id="路径_25_" class="st2" d="M199.2,114.7v5.5c1.3-1.7,2.8-3.1,4.6-4.3c1.8-1.2,3.9-1.8,6.2-1.8s4.3,0.3,6,1
						c1.7,0.7,3.2,1.6,4.4,2.9c2.9,2.8,4.3,6.6,4.3,11.3v20.4h-5.2v-20.2c0-3.2-0.9-5.8-2.7-7.7c-1.8-1.9-4.2-2.9-7.1-2.9
						c-2.9,0-5.4,1-7.5,2.9c-2.1,2-3.1,4.6-3.1,7.7v20.2H194v-35H199.2z"/>
					<path id="形状_28_" class="st2" d="M260.9,144.1c-2.8,4.1-7,6.2-12.5,6.2c-5,0-9.1-1.8-12.3-5.2c-3.1-3.5-4.6-7.7-4.6-12.8
						c0-5.1,1.5-9.4,4.6-12.8c3.2-3.5,7.4-5.2,12.7-5.2s9.3,2.1,12.2,6.2v-19.7h5.2v49H261v-5.7H260.9z M249.1,145.5
						c3.8,0,6.8-1.3,9-3.9c2.1-2.5,3.1-5.6,3.1-9.4s-1-6.9-3.1-9.4c-2.2-2.6-5.2-3.9-9-3.9c-3.7,0-6.8,1.3-9.1,3.9
						c-2.2,2.5-3.3,5.6-3.3,9.4s1.1,6.9,3.3,9.4C242.3,144.2,245.3,145.5,249.1,145.5z"/>
					<path id="路径_26_" class="st2" d="M306.3,145.5c2.2,0,4.2-0.6,6-1.9c1.7-1.3,3-2.9,3.8-4.9h5.7c-1.1,3.5-3,6.2-5.9,8.3
						c-3,2.1-6.5,3.2-10.6,3.2c-5.1,0-9.3-1.8-12.5-5.2c-3.1-3.4-4.7-7.7-4.7-12.8c0-5.1,1.6-9.4,4.7-12.8c3.2-3.5,7.4-5.2,12.5-5.2
						c4.1,0,7.7,1.1,10.6,3.2c2.8,2.1,4.8,4.9,5.9,8.3H316c-0.8-2-2.1-3.6-3.8-4.9c-1.7-1.3-3.7-1.9-6-1.9c-2.2,0-4.1,0.3-5.7,1
						c-1.6,0.7-2.9,1.7-4,2.9c-2.3,2.5-3.4,5.6-3.4,9.4c0,3.7,1.1,6.9,3.4,9.4C299,144.2,302.2,145.5,306.3,145.5z"/>
					<path id="形状_29_" class="st2" d="M343.4,114.2c5.2,0,9.5,1.8,12.7,5.2c3.1,3.4,4.6,7.6,4.6,12.8s-1.5,9.5-4.6,12.8
						c-3.3,3.5-7.5,5.2-12.7,5.2c-5.2,0-9.5-1.8-12.7-5.2c-3.1-3.4-4.6-7.6-4.6-12.8s1.5-9.5,4.6-12.8
						C333.9,115.9,338.2,114.2,343.4,114.2z M343.4,145.5c3.8,0,6.8-1.3,9-3.9c2.1-2.5,3.1-5.6,3.1-9.4s-1-6.9-3.1-9.4
						c-2.2-2.6-5.2-3.9-9-3.9c-3.8,0-6.8,1.3-9,3.9c-2.1,2.5-3.2,5.6-3.2,9.4s1,6.9,3.2,9.4C336.7,144.2,339.6,145.5,343.4,145.5z"
						/>
					<path id="路径_27_" class="st2" d="M373,114.7v5.5c1.3-1.7,2.8-3.1,4.6-4.3c1.8-1.2,3.9-1.8,6.2-1.8c2.3,0,4.3,0.3,6,1
						c1.7,0.7,3.2,1.6,4.4,2.9c2.9,2.8,4.3,6.6,4.3,11.3v20.4h-5.2v-20.2c0-3.2-0.9-5.8-2.7-7.7c-1.8-1.9-4.2-2.9-7.1-2.9
						s-5.4,1-7.5,2.9c-2.1,2-3.1,4.6-3.1,7.7v20.2h-5.2v-35H373z"/>
					<path id="路径_28_" class="st2" d="M421.7,105.1c-2.5,0-4.3,0.5-5.6,1.6c-1.2,1.1-1.9,2.9-1.9,5.3v2.7h8.1v4.6h-8.1v30.4H409
						v-30.4h-6v-4.6h6v-3.1c0-3.8,1.1-6.7,3.4-8.6c2.3-1.9,5.5-2.9,9.5-2.9h0.4v5H421.7z"/>
					<path id="形状_30_" class="st2" d="M433.6,102v6.9h-5.7V102H433.6z M428.2,114.7h5.2v35h-5.2V114.7z"/>
					<path id="形状_31_" class="st2" d="M469.8,120.3v-5.6h5.2v34c0,5-1.4,8.9-4.3,11.5c-2.9,2.6-6.7,4-11.6,4s-8.6-0.9-11.4-2.8
						c-2.7-1.9-4.6-4.3-5.6-7.4h5.8c1.5,3.6,4.9,5.5,10.2,5.5c4.1,0,7-0.9,8.8-2.8c1.8-1.9,2.7-4.6,2.7-8.3v-4.8
						c-2.8,4.2-7,6.2-12.5,6.2c-5,0-9.1-1.7-12.3-5.2c-3.1-3.4-4.6-7.6-4.6-12.6s1.5-9.2,4.6-12.6c3.2-3.5,7.4-5.2,12.7-5.2
						C463,114.2,467,116.2,469.8,120.3z M458,145c1.9,0,3.6-0.3,5.1-1s2.8-1.6,3.9-2.8c2.1-2.4,3.1-5.5,3.1-9.2s-1-6.8-3.1-9.2
						c-2.3-2.5-5.3-3.8-9-3.8c-3.8,0-6.8,1.3-9.1,3.8c-2.2,2.5-3.3,5.6-3.3,9.2s1.1,6.8,3.3,9.2C451.2,143.7,454.2,145,458,145z"/>
					<path id="路径_29_" class="st2" d="M509.5,149.7v-5.5c-1.3,1.7-2.8,3.1-4.6,4.3c-1.8,1.2-3.9,1.8-6.2,1.8c-2.3,0-4.3-0.3-6-1
						c-1.7-0.7-3.2-1.6-4.4-2.9c-2.9-2.8-4.3-6.6-4.3-11.3v-20.4h5.2v20.2c0,3.2,0.9,5.8,2.7,7.7c1.8,1.9,4.2,2.9,7.1,2.9
						s5.4-1,7.5-2.9c2.1-2,3.1-4.6,3.1-7.7v-20.2h5.2v35H509.5z"/>
					<path id="路径_30_" class="st2" d="M542.3,114.2v5.2h-0.6c-3.8,0-6.9,1.5-9.2,4.6c-2.2,2.9-3.4,6.3-3.4,10.4v15.4h-5.2v-35
						h5.2v8.6c1.1-3.6,3.5-6.3,7.3-8c1.5-0.7,3.4-1.1,5.6-1.1h0.3V114.2z"/>
					<path id="形状_32_" class="st2" d="M574.3,144.1c-2.8,4.1-7,6.2-12.5,6.2c-5,0-9.1-1.8-12.3-5.2c-3.1-3.5-4.6-7.7-4.6-12.8
						c0-5.1,1.5-9.4,4.6-12.8c3.2-3.5,7.4-5.2,12.7-5.2s9.3,2.1,12.2,6.2v-5.7h5.2v35h-5.2v-5.7H574.3z M562.5,145.5
						c3.8,0,6.8-1.3,9-3.9c2.1-2.5,3.1-5.6,3.1-9.4s-1-6.9-3.1-9.4c-2.2-2.6-5.2-3.9-9-3.9c-3.7,0-6.8,1.3-9.1,3.9
						c-2.2,2.5-3.3,5.6-3.3,9.4s1.1,6.9,3.3,9.4C555.7,144.2,558.8,145.5,562.5,145.5z"/>
					<polygon id="路径_31_" class="st2" points="592.5,149.7 592.5,119.3 585.4,119.3 585.4,114.7 592.5,114.7 592.5,102.2 
						597.7,102.2 597.7,114.7 605.7,114.7 605.7,119.3 597.7,119.3 597.7,149.7 					"/>
					<path id="形状_33_" class="st2" d="M617,102v6.9h-5.7V102H617z M611.5,114.7h5.2v35h-5.2V114.7z"/>
					<path id="形状_34_" class="st2" d="M641.1,114.2c5.2,0,9.5,1.8,12.7,5.2c3.1,3.4,4.6,7.6,4.6,12.8s-1.5,9.5-4.6,12.8
						c-3.3,3.5-7.5,5.2-12.7,5.2c-5.2,0-9.5-1.8-12.7-5.2c-3.1-3.4-4.6-7.6-4.6-12.8s1.5-9.5,4.6-12.8
						C631.6,115.9,635.8,114.2,641.1,114.2z M641.1,145.5c3.8,0,6.8-1.3,9-3.9c2.1-2.5,3.1-5.6,3.1-9.4s-1-6.9-3.1-9.4
						c-2.2-2.6-5.2-3.9-9-3.9c-3.8,0-6.8,1.3-9,3.9c-2.1,2.5-3.2,5.6-3.2,9.4s1,6.9,3.2,9.4C634.3,144.2,637.3,145.5,641.1,145.5z"
						/>
					<path id="路径_32_" class="st2" d="M670.6,114.7v5.5c1.3-1.7,2.8-3.1,4.6-4.3c1.8-1.2,3.9-1.8,6.2-1.8c2.3,0,4.3,0.3,6,1
						c1.7,0.7,3.2,1.6,4.4,2.9c2.9,2.8,4.3,6.6,4.3,11.3v20.4h-5.2v-20.2c0-3.2-0.9-5.8-2.7-7.7c-1.8-1.9-4.2-2.9-7.1-2.9
						c-2.9,0-5.4,1-7.5,2.9c-2.1,2-3.1,4.6-3.1,7.7v20.2h-5.2v-35H670.6z"/>
					<path id="路径_33_" class="st2" d="M725.5,124.1c-0.5-3.6-3.4-5.5-8.8-5.5c-5.4,0-8.1,1.7-8.1,5c0,1.4,0.6,2.5,1.7,3.2
						c1.1,0.7,2.6,1.3,4.3,1.8c1.7,0.5,3.6,0.9,5.6,1.3c2,0.4,3.9,1,5.6,1.7c1.7,0.7,3.2,1.7,4.3,3c1.1,1.3,1.7,3,1.7,5.2
						c0,3.4-1.3,6-3.9,7.8c-2.6,1.8-6,2.7-10.4,2.7c-4.7,0-8.4-1.2-11.1-3.5c-2.5-2.1-3.9-4.7-4.1-8.1h5.5c0.3,3.2,2.1,5.4,5.5,6.5
						c1.2,0.4,2.4,0.6,3.6,0.6c1.2,0,2.3-0.1,3.3-0.2c1-0.1,2-0.4,3-0.8c2.2-0.9,3.4-2.4,3.4-4.5c0-1.4-0.6-2.6-1.7-3.3
						c-1.1-0.8-2.6-1.4-4.3-1.9c-1.7-0.5-3.6-0.9-5.6-1.3c-2-0.4-3.9-0.9-5.6-1.6c-1.7-0.7-3.2-1.7-4.3-2.9c-1.1-1.2-1.7-2.9-1.7-5
						c0-3.2,1.2-5.6,3.5-7.4c2.3-1.8,5.7-2.6,10.3-2.6c4.3,0,7.7,1,10.1,3.1c2.1,1.7,3.2,4,3.6,6.9h-5.4V124.1z"/>
					<path id="形状_35_" class="st2" d="M780.9,144.1c-2.8,4.1-7,6.2-12.5,6.2c-5,0-9.1-1.8-12.3-5.2c-3.1-3.5-4.6-7.7-4.6-12.8
						c0-5.1,1.5-9.4,4.6-12.8c3.2-3.5,7.4-5.2,12.7-5.2s9.3,2.1,12.2,6.2v-5.7h5.2v35H781L780.9,144.1L780.9,144.1z M769.1,145.5
						c3.8,0,6.8-1.3,9-3.9c2.1-2.5,3.1-5.6,3.1-9.4s-1-6.9-3.1-9.4c-2.2-2.6-5.2-3.9-9-3.9c-3.7,0-6.8,1.3-9.1,3.9
						c-2.2,2.5-3.3,5.6-3.3,9.4s1.1,6.9,3.3,9.4C762.3,144.2,765.3,145.5,769.1,145.5z"/>
					<path id="路径_34_" class="st2" d="M813.7,114.2v5.2h-0.6c-3.8,0-6.9,1.5-9.2,4.6c-2.2,2.9-3.4,6.3-3.4,10.4v15.4h-5.2v-35
						h5.2v8.6c1.1-3.6,3.5-6.3,7.3-8c1.5-0.7,3.4-1.1,5.6-1.1h0.3V114.2z"/>
					<path id="形状_36_" class="st2" d="M834.1,145.5c4.7,0,8.1-2,10.1-5.9h5.7c-1.2,3.2-3.1,5.7-5.8,7.7c-2.6,2-6,2.9-10.2,2.9
						c-5.3,0-9.6-1.8-12.9-5.2c-3.2-3.4-4.8-7.7-4.8-12.8c0-5.2,1.5-9.5,4.6-12.8c3.3-3.5,7.5-5.2,12.7-5.2s9.5,1.8,12.7,5.2
						c3.1,3.4,4.6,7.6,4.6,12.8v2.1h-29.3c0.4,3.2,1.7,5.9,3.9,8C827.8,144.4,830.7,145.5,834.1,145.5z M833.7,118.9
						c-3.2,0-5.9,1-8.1,3c-2.1,1.9-3.3,4.4-3.8,7.5h23.8c-0.5-3.1-1.7-5.6-3.8-7.5C839.6,119.9,836.9,118.9,833.7,118.9z"/>
					<path id="路径_35_" class="st2" d="M877.7,100.7v19.5c1.3-1.7,2.8-3.1,4.6-4.3c1.8-1.2,3.9-1.8,6.2-1.8s4.3,0.3,6,1
						c1.7,0.7,3.2,1.6,4.4,2.9c2.9,2.8,4.3,6.6,4.3,11.3v20.4H898v-20.2c0-3.2-0.9-5.8-2.7-7.7c-1.8-1.9-4.2-2.9-7.1-2.9
						c-2.9,0-5.4,1-7.5,2.9c-2.1,2-3.1,4.6-3.1,7.7v20.2h-5.2v-49H877.7z"/>
					<path id="路径_36_" class="st2" d="M936.9,149.7v-5.5c-1.3,1.7-2.8,3.1-4.6,4.3s-3.9,1.8-6.2,1.8c-2.3,0-4.3-0.3-6-1
						c-1.7-0.7-3.2-1.6-4.4-2.9c-2.9-2.8-4.3-6.6-4.3-11.3v-20.4h5.2v20.2c0,3.2,0.9,5.8,2.7,7.7c1.8,1.9,4.2,2.9,7.1,2.9
						c2.9,0,5.4-1,7.5-2.9c2.1-2,3.1-4.6,3.1-7.7v-20.2h5.2v35H936.9z"/>
					<path id="路径_37_" class="st2" d="M956.5,120c2.3-3.9,5.9-5.9,10.6-5.9c2.3,0,4.5,0.6,6.5,1.9c2,1.2,3.5,3,4.7,5.2
						c1.6-2.9,4.1-5,7.4-6.3c1.4-0.5,2.9-0.8,4.6-0.8s3.3,0.3,4.9,1c1.6,0.7,3,1.6,4.2,2.9c2.6,2.8,3.9,6.3,3.9,10.5v21.1h-5.2v-21
						c0-2.9-0.8-5.3-2.4-7.1c-1.6-1.8-3.7-2.7-6.2-2.7c-2.7,0-4.9,0.9-6.6,2.6c-1.9,1.8-2.8,4.2-2.8,7.3v20.9h-5.2v-21
						c0-2.9-0.8-5.3-2.4-7.1s-3.7-2.7-6.2-2.7c-2.7,0-4.9,0.9-6.7,2.6c-1.9,1.8-2.8,4.2-2.8,7.3v20.9h-5.2v-35h5.2v5.4H956.5z"/>
					<path id="形状_37_" class="st2" d="M1039.3,144.1c-2.8,4.1-7,6.2-12.5,6.2c-5,0-9.1-1.8-12.3-5.2c-3.1-3.5-4.6-7.7-4.6-12.8
						c0-5.1,1.5-9.4,4.6-12.8c3.2-3.5,7.4-5.2,12.7-5.2c5.3,0,9.3,2.1,12.2,6.2v-5.7h5.2v35h-5.2L1039.3,144.1L1039.3,144.1z
						 M1027.5,145.5c3.8,0,6.8-1.3,9-3.9c2.1-2.5,3.1-5.6,3.1-9.4s-1-6.9-3.1-9.4c-2.2-2.6-5.2-3.9-9-3.9c-3.7,0-6.8,1.3-9.1,3.9
						c-2.2,2.5-3.3,5.6-3.3,9.4s1.1,6.9,3.3,9.4C1020.8,144.2,1023.8,145.5,1027.5,145.5z"/>
					<path id="路径_38_" class="st2" d="M1058.9,114.7v5.5c1.3-1.7,2.8-3.1,4.6-4.3c1.8-1.2,3.9-1.8,6.2-1.8c2.3,0,4.3,0.3,6,1
						c1.7,0.7,3.2,1.6,4.4,2.9c2.9,2.8,4.3,6.6,4.3,11.3v20.4h-5.2v-20.2c0-3.2-0.9-5.8-2.7-7.7c-1.8-1.9-4.2-2.9-7.1-2.9
						s-5.4,1-7.5,2.9c-2.1,2-3.1,4.6-3.1,7.7v20.2h-5.2v-35H1058.9z"/>
					<polygon id="路径_39_" class="st2" points="1092.5,126.5 1110,126.5 1110,131.6 1092.5,131.6 					"/>
					<path id="路径_40_" class="st2" d="M1136.7,114.2v5.2h-0.6c-3.8,0-6.9,1.5-9.2,4.6c-2.2,2.9-3.4,6.3-3.4,10.4v15.4h-5.2v-35
						h5.2v8.6c1.1-3.6,3.5-6.3,7.3-8c1.5-0.7,3.4-1.1,5.6-1.1h0.3V114.2z"/>
					<path id="形状_38_" class="st2" d="M1157.1,145.5c4.7,0,8.1-2,10.1-5.9h5.7c-1.2,3.2-3.1,5.7-5.8,7.7c-2.6,2-6,2.9-10.2,2.9
						c-5.3,0-9.6-1.8-12.9-5.2c-3.2-3.4-4.8-7.7-4.8-12.8c0-5.2,1.5-9.5,4.6-12.8c3.3-3.5,7.5-5.2,12.7-5.2s9.5,1.8,12.7,5.2
						c3.1,3.4,4.6,7.6,4.6,12.8v2.1h-29.3c0.4,3.2,1.7,5.9,3.9,8C1150.8,144.4,1153.6,145.5,1157.1,145.5z M1156.7,118.9
						c-3.2,0-5.9,1-8.1,3c-2.1,1.9-3.3,4.4-3.8,7.5h23.8c-0.5-3.1-1.7-5.6-3.8-7.5C1162.6,119.9,1159.9,118.9,1156.7,118.9z"/>
					<path id="形状_39_" class="st2" d="M1207.8,144.1c-2.8,4.1-7,6.2-12.5,6.2c-5,0-9.1-1.8-12.3-5.2c-3.1-3.5-4.6-7.7-4.6-12.8
						c0-5.1,1.5-9.4,4.6-12.8c3.2-3.5,7.4-5.2,12.7-5.2c5.3,0,9.3,2.1,12.2,6.2v-5.7h5.2v35h-5.2L1207.8,144.1L1207.8,144.1z
						 M1195.9,145.5c3.8,0,6.8-1.3,9-3.9c2.1-2.5,3.1-5.6,3.1-9.4s-1-6.9-3.1-9.4c-2.2-2.6-5.2-3.9-9-3.9c-3.7,0-6.8,1.3-9.1,3.9
						c-2.2,2.5-3.3,5.6-3.3,9.4s1.1,6.9,3.3,9.4C1189.2,144.2,1192.2,145.5,1195.9,145.5z"/>
					<path id="形状_40_" class="st2" d="M1249.4,144.1c-2.8,4.1-7,6.2-12.5,6.2c-5,0-9.1-1.8-12.3-5.2c-3.1-3.5-4.6-7.7-4.6-12.8
						c0-5.1,1.5-9.4,4.6-12.8c3.2-3.5,7.4-5.2,12.7-5.2c5.3,0,9.3,2.1,12.2,6.2v-19.7h5.2v49h-5.2L1249.4,144.1L1249.4,144.1z
						 M1237.6,145.5c3.8,0,6.8-1.3,9-3.9c2.1-2.5,3.1-5.6,3.1-9.4s-1-6.9-3.1-9.4c-2.2-2.6-5.2-3.9-9-3.9c-3.7,0-6.8,1.3-9.1,3.9
						c-2.2,2.5-3.3,5.6-3.3,9.4s1.1,6.9,3.3,9.4C1230.8,144.2,1233.9,145.5,1237.6,145.5z"/>
					<path id="形状_41_" class="st2" d="M1291.1,144.1c-2.8,4.1-7,6.2-12.5,6.2c-5,0-9.1-1.8-12.3-5.2c-3.1-3.5-4.6-7.7-4.6-12.8
						c0-5.1,1.5-9.4,4.6-12.8c3.2-3.5,7.4-5.2,12.7-5.2s9.3,2.1,12.2,6.2v-5.7h5.2v35h-5.2L1291.1,144.1L1291.1,144.1z
						 M1279.2,145.5c3.8,0,6.8-1.3,9-3.9c2.1-2.5,3.1-5.6,3.1-9.4s-1-6.9-3.1-9.4c-2.2-2.6-5.2-3.9-9-3.9c-3.7,0-6.8,1.3-9.1,3.9
						c-2.2,2.5-3.3,5.6-3.3,9.4s1.1,6.9,3.3,9.4C1272.5,144.2,1275.5,145.5,1279.2,145.5z"/>
					<path id="形状_42_" class="st2" d="M1310.7,120.4c2.8-4.2,7-6.2,12.5-6.2c5,0,9.1,1.8,12.2,5.2c3.1,3.5,4.7,7.7,4.7,12.8
						c0,5.1-1.6,9.4-4.7,12.8c-3.1,3.5-7.3,5.2-12.6,5.2c-5.3,0-9.3-2.1-12.1-6.2v5.6h-5.2v-49h5.2V120.4L1310.7,120.4z
						 M1322.5,145.5c3.7,0,6.8-1.3,9.1-3.9c2.2-2.5,3.3-5.6,3.3-9.4s-1.1-6.9-3.3-9.4c-2.3-2.6-5.4-3.9-9.1-3.9
						c-3.8,0-6.8,1.3-9,3.9c-2.1,2.5-3.2,5.6-3.2,9.4s1.1,6.9,3.2,9.4C1315.7,144.2,1318.7,145.5,1322.5,145.5z"/>
					<polygon id="路径_41_" class="st2" points="1352.2,149.7 1347,149.7 1347,100.7 1352.2,100.7 					"/>
					<path id="形状_43_" class="st2" d="M1377,145.5c4.7,0,8.1-2,10.1-5.9h5.7c-1.2,3.2-3.1,5.7-5.8,7.7c-2.6,2-6,2.9-10.2,2.9
						c-5.3,0-9.6-1.8-12.9-5.2c-3.2-3.4-4.8-7.7-4.8-12.8c0-5.2,1.5-9.5,4.6-12.8c3.3-3.5,7.5-5.2,12.7-5.2c5.2,0,9.5,1.8,12.7,5.2
						c3.1,3.4,4.6,7.6,4.6,12.8v2.1h-29.3c0.4,3.2,1.7,5.9,3.9,8C1370.7,144.4,1373.5,145.5,1377,145.5z M1376.5,118.9
						c-3.2,0-5.9,1-8.1,3c-2.1,1.9-3.3,4.4-3.8,7.5h23.8c-0.5-3.1-1.7-5.6-3.8-7.5C1382.5,119.9,1379.8,118.9,1376.5,118.9z"/>
				</g>
			</g>
		</g>
	</g>
</g>
</svg>
