<?xml version="1.0" encoding="utf-8"?>
<!-- Generator: Adobe Illustrator 22.0.0, SVG Export Plug-In . SVG Version: 6.00 Build 0)  -->
<svg version="1.1" id="图层_1" xmlns="http://www.w3.org/2000/svg" xmlns:xlink="http://www.w3.org/1999/xlink" x="0px" y="0px"
	 viewBox="0 0 2268 559" style="enable-background:new 0 0 2268 559;" xml:space="preserve">
<style type="text/css">
	.st0{fill:#707070;}
	.st1{fill:#232323;}
	.st2{fill:#FFBB10;stroke:#FFBB10;stroke-width:2;}
</style>
<title>04</title>
<desc>Created with Sketch.</desc>
<g id="页面-1">
	<g id="Piraeus易拉宝" transform="translate(-179.000000, -2747.000000)">
		<g id="图层_2_1_" transform="translate(179.000000, 0.000000)">
			<g id="编组_1_" transform="translate(0.000000, 277.000000)">
				<g id="high-performance" transform="translate(232.000000, 2569.000000)">
					<g id="dashboard-_x28_3_x29_">
						<g id="编组">
							<g id="Group" transform="translate(4.000000, 4.000000)">
								<path id="Shape_20_" class="st0" d="M25.9,122.8c-0.8-1.9-3-2.9-5-2.1l-14,5.7c0.9,2.4,1.8,4.7,2.8,7l14-5.7
									C25.8,126.9,26.7,124.7,25.9,122.8"/>
								<path id="Shape_19_" class="st0" d="M34.4,88.5c0-2.1-1.7-3.8-3.8-3.8H0.3c0,1.3-0.1,2.5-0.1,3.8s0.1,2.5,0.2,3.8h30.2
									C32.7,92.3,34.4,90.6,34.4,88.5"/>
								<path id="Shape_18_" class="st0" d="M26.3,53.4c0.8-1.9-0.1-4.1-2-4.9l-13.9-5.8c-1.1,2.3-2.1,4.6-3,7l14,5.8
									c0.5,0.2,1,0.3,1.5,0.3C24.3,55.7,25.7,54.8,26.3,53.4"/>
								<path id="Shape_17_" class="st0" d="M29.8,13.8l10.7,10.6c0.7,0.7,1.7,1.1,2.7,1.1s1.9-0.4,2.7-1.1c1.5-1.5,1.5-3.9,0-5.3
									L35.2,8.5C33.4,10.2,31.6,12,29.8,13.8"/>
								<path id="Shape_16_" class="st0" d="M71,2.5c0.6,1.5,2,2.4,3.5,2.4c0.5,0,1-0.1,1.4-0.3c1.9-0.8,2.9-3,2.1-4.9l-5.7-14
									c-2.4,0.9-4.7,1.8-7,2.9L71,2.5z"/>
								<path id="Shape_15_" class="st0" d="M110.4,13c2.1,0,3.8-1.7,3.8-3.8v-30.1c-1.3,0-2.5-0.1-3.8-0.1c-1.3,0-2.5,0.1-3.8,0.1
									V9.2C106.6,11.3,108.3,13,110.4,13"/>
								<path id="Shape_14_" class="st0" d="M145.8,5c0.5,0.2,1,0.3,1.5,0.3c1.5,0,2.9-0.9,3.5-2.3l5.9-13.9c-2.3-1.1-4.6-2-7-2.9
									l-5.9,13.9C142.9,2,143.9,4.2,145.8,5"/>
								<path id="Shape_5_" class="st0" d="M185.6,8.5l-10.7,10.6c-1.5,1.5-1.5,3.9,0,5.3c0.7,0.7,1.7,1.1,2.7,1.1s1.9-0.4,2.7-1.1
									L191,13.8C189.2,12,187.4,10.2,185.6,8.5"/>
							</g>
							<g id="Group_1_" transform="translate(189.513514, 69.148810)">
								<path id="Shape_4_" class="st0" d="M13.5-8.5l14-5.6c-0.9-2.3-1.9-4.6-2.9-6.9l-14,5.6c-1.9,0.8-2.9,3-2.1,4.9
									c0.6,1.4,2,2.3,3.5,2.3C12.6-8.2,13.1-8.3,13.5-8.5"/>
								<path id="Shape_3_" class="st0" d="M34.3,23.2c0-1.2-0.1-2.5-0.1-3.7H3.9c-2.1,0-3.8,1.7-3.8,3.7c0,2.1,1.7,3.7,3.8,3.7
									h30.2C34.2,25.7,34.3,24.4,34.3,23.2"/>
								<path id="Shape_2_" class="st0" d="M27,61.6l-13.9-5.7c-1.9-0.8-4.2,0.1-5,2s0.1,4.1,2,4.9L24,68.5
									C25.2,66.3,26.1,63.9,27,61.6"/>
							</g>
							<path id="Shape_1_" class="st0" d="M114-17.3v3.5C55.3-13.8,7.7,33.6,7.7,92.1c0,23.6,7.8,46,21.9,64.4h168.7
								c14.1-18.4,21.9-40.8,21.9-64.4c0-58.5-47.6-105.9-106.3-105.9L114-17.3L114-17.3z M114-17.3v-3.5
								c62.6,0,113.4,50.6,113.4,113c0,25.8-8.7,50.3-24.5,70.1l-1.1,1.3H26.2l-1.1-1.3C9.3,142.5,0.6,118,0.6,92.2
								c0-62.4,50.8-113,113.4-113V-17.3z"/>
							<path id="Shape_12_" class="st0" d="M79,146c-2,0-3.6-1.6-3.6-3.5V120c0-2,1.6-3.5,3.6-3.5h67.7c2,0,3.6,1.6,3.6,3.5v22.5
								c0,2-1.6,3.5-3.6,3.5H79z M82.5,138.9h60.6v-15.4H82.5V138.9z"/>
							<path id="Shape_13_" class="st0" d="M112,63.6c0.3-0.1,0.3-0.1,0.6-0.3c9.8-4.7,14.1-7,19.3-10.1l17.7-10.8
								c3.2-1.9,6.8,1.6,4.9,4.8l-10.6,18.1c-3.1,5.3-5.3,9.7-10,19.7c-0.1,0.2-0.1,0.2-0.2,0.4c-1.4,3-2.1,4.5-3,6.3
								c-3.7,7.8-12.2,12.1-21,10.1c-6.7-1.6-12.1-7.1-13.7-13.9c-2-8.8,2.2-17.4,9.9-21.2C107.7,65.7,109.2,65,112,63.6z M103,86.3
								c0.9,4.2,4.3,7.6,8.3,8.5c5.4,1.3,10.6-1.4,12.9-6.2c0.8-1.7,1.5-3.3,2.9-6.2c0.1-0.2,0.1-0.2,0.2-0.4
								c4.8-10.2,7.1-14.8,10.3-20.3l3.4-5.8l-5.6,3.4c-5.4,3.3-9.9,5.6-19.9,10.5c-0.3,0.1-0.3,0.1-0.6,0.3c-2.8,1.3-4.3,2.1-6,2.9
								C104.4,75.3,101.8,80.7,103,86.3z"/>
							<path id="Path-2" class="st0" d="M39.8,183.7c-2,0-3.6-1.6-3.6-3.5c0-1.9,1.6-3.5,3.6-3.5h150.8c2,0,3.6,1.6,3.6,3.5
								c0,1.9-1.6,3.5-3.6,3.5H39.8z"/>
						</g>
					</g>
				</g>
				<g transform="translate(670.000000, 2701.000000)">
					<path id="形状" class="st1" d="M23.9-17.8c2.8,0,5.4,0.5,8,1.6c2.6,1.1,4.8,2.6,6.8,4.6c4.3,4.4,6.5,10.1,6.5,17
						S43,18,38.7,22.4c-2,2-4.2,3.5-6.8,4.6s-5.2,1.6-8,1.6H4.4v-46.3L23.9-17.8L23.9-17.8z M23.7,23.5c4.9,0,8.8-1.8,11.8-5.4
						c2.9-3.5,4.4-7.7,4.4-12.8s-1.5-9.4-4.4-12.8c-3-3.6-7-5.4-11.8-5.4H9.6v36.4H23.7L23.7,23.5z"/>
					<path id="形状_1_" class="st1" d="M58.9,28.5h-5.2v-46.3h22.2c4.7,0,8.5,1.3,11.3,3.9c2.8,2.6,4.3,6.1,4.3,10.6
						c0,5.8-2.4,9.7-7.2,11.8c-1.4,0.6-2.7,1-4,1.3l12.2,18.7h-6.2L75.1,10.7H59L58.9,28.5L58.9,28.5z M58.9,5.7h16
						c4.9,0,8.4-1.5,10.2-4.6c0.7-1.2,1-2.7,1-4.5c0-2.9-1-5.3-3-7s-4.7-2.6-8-2.6H58.8V5.7H58.9z"/>
					<path id="形状_2_" class="st1" d="M135.9-5.6c0,5.1-2.1,8.6-6.2,10.4c3.8,1.3,6.4,3.6,7.8,6.9c0.5,1.3,0.8,2.8,0.8,4.5
						c0,5.6-3,9.3-8.9,11.2c-2,0.7-4.3,1-6.9,1h-22v-46.3h20.8c5,0,8.8,1.4,11.4,4.1C134.9-11.6,135.9-8.9,135.9-5.6z M105.8,2.9
						h15.5c4.3,0,7.2-1.5,8.6-4.4c0.5-1,0.8-2.1,0.8-3.3c0-1.2-0.2-2.2-0.5-3.2s-0.8-1.7-1.5-2.4c-1.5-1.6-3.8-2.5-6.8-2.5h-16.1
						V2.9z M123.1,23.5c3.2,0,5.7-0.7,7.4-2s2.6-3.2,2.6-5.6c0-2.3-0.8-4.2-2.5-5.7c-1.9-1.7-4.5-2.5-8-2.5h-16.7v15.9L123.1,23.5
						L123.1,23.5z"/>
					<path id="形状_3_" class="st1" d="M166.4-17.8c2.8,0,5.4,0.5,8,1.6c2.6,1.1,4.8,2.6,6.8,4.6c4.3,4.4,6.5,10.1,6.5,17
						s-2.2,12.6-6.5,17c-2,2-4.2,3.5-6.8,4.6c-2.6,1.1-5.2,1.6-8,1.6h-19.5v-46.3L166.4-17.8L166.4-17.8z M166.2,23.5
						c4.9,0,8.8-1.8,11.8-5.4c2.9-3.5,4.4-7.7,4.4-12.8s-1.5-9.4-4.4-12.8c-3-3.6-7-5.4-11.8-5.4h-14.1v36.4H166.2L166.2,23.5z"/>
					<polygon id="路径" class="st1" points="194.2,5.3 211.7,5.3 211.7,10.4 194.2,10.4 					"/>
					<path id="形状_4_" class="st1" d="M225,17.7c1.3,4.2,4.1,6.2,8.3,6.2c4.1,0,7.2-1.8,9.4-5.5c2-3.3,2.9-7.7,2.9-13.3
						c-1.1,2-2.8,3.5-4.9,4.8c-2.2,1.2-4.5,1.8-6.9,1.8c-2.4,0-4.6-0.4-6.5-1.1c-1.9-0.7-3.6-1.8-5-3.1c-3.1-2.9-4.6-6.5-4.6-10.8
						c0-4.2,1.6-7.8,4.7-10.8c3-2.8,6.8-4.3,11.3-4.3c5.6,0,9.9,2,12.8,6.1s4.3,10,4.3,17.6c0,11.4-3.3,18.8-9.9,22
						c-2.2,1.1-4.6,1.7-7.2,1.7c-2.6,0-4.7-0.3-6.3-1c-1.6-0.7-3-1.5-4.1-2.6c-2.2-2.1-3.7-4.6-4.3-7.8h6V17.7z M233.7,6.7
						c1.4,0,2.8-0.2,4.1-0.7s2.5-1.1,3.4-2c2.1-1.8,3.1-4.2,3.1-7c0-3-1-5.5-3.1-7.4c-2-1.9-4.5-2.9-7.6-2.9c-3,0-5.5,0.9-7.6,2.8
						s-3.2,4.3-3.2,7.1s1,5.2,3.2,7.2C228.3,5.8,230.8,6.7,233.7,6.7z"/>
					<path id="形状_5_" class="st1" d="M300.6,22.9c-2.8,4.1-7,6.2-12.5,6.2c-5,0-9.1-1.8-12.3-5.2c-3.1-3.5-4.6-7.7-4.6-12.8
						s1.5-9.4,4.6-12.8c3.2-3.5,7.4-5.2,12.7-5.2s9.3,2.1,12.2,6.2v-19.7h5.2v49h-5.2v-5.7H300.6z M288.8,24.3c3.8,0,6.8-1.3,9-3.9
						c2.1-2.5,3.1-5.6,3.1-9.4s-1-6.9-3.1-9.4c-2.2-2.6-5.2-3.9-9-3.9c-3.7,0-6.8,1.3-9.1,3.9c-2.2,2.5-3.3,5.6-3.3,9.4
						s1.1,6.9,3.3,9.4C282,23,285.1,24.3,288.8,24.3z"/>
					<path id="形状_6_" class="st1" d="M330.6,24.3c4.7,0,8.1-2,10.1-5.9h5.7c-1.2,3.2-3.1,5.7-5.8,7.7c-2.6,2-6,2.9-10.2,2.9
						c-5.3,0-9.6-1.8-12.9-5.2c-3.2-3.4-4.8-7.7-4.8-12.8c0-5.2,1.5-9.5,4.6-12.8C320.6-5.3,324.8-7,330-7s9.5,1.8,12.7,5.2
						c3.1,3.4,4.6,7.6,4.6,12.8v2.1H318c0.4,3.2,1.7,5.9,3.9,8C324.3,23.2,327.1,24.3,330.6,24.3z M330.2-2.3c-3.2,0-5.9,1-8.1,3
						c-2.1,1.9-3.3,4.4-3.8,7.5h23.8c-0.5-3.1-1.7-5.6-3.8-7.5C336.1-1.3,333.4-2.3,330.2-2.3z"/>
					<polygon id="路径_1_" class="st1" points="359.2,28.5 354,28.5 354,-20.5 359.2,-20.5 					"/>
					<path id="形状_7_" class="st1" d="M373.8-19.2v6.9h-5.7v-6.9H373.8z M368.3-6.5h5.2v35h-5.2V-6.5z"/>
					<polygon id="路径_2_" class="st1" points="412,-6.5 398.4,28.5 392.2,28.5 378.5,-6.5 384.2,-6.5 395.3,22.9 406.3,-6.5 
											"/>
					<path id="形状_8_" class="st1" d="M432.1,24.3c4.7,0,8.1-2,10.1-5.9h5.7c-1.2,3.2-3.1,5.7-5.8,7.7c-2.6,2-6,2.9-10.2,2.9
						c-5.3,0-9.6-1.8-12.9-5.2c-3.2-3.4-4.8-7.7-4.8-12.8c0-5.2,1.5-9.5,4.6-12.8c3.3-3.5,7.5-5.2,12.7-5.2s9.5,1.8,12.7,5.2
						c3.1,3.4,4.6,7.6,4.6,12.8v2.1h-29.3c0.4,3.2,1.7,5.9,3.9,8C425.8,23.2,428.6,24.3,432.1,24.3z M431.7-2.3c-3.2,0-5.9,1-8.1,3
						c-2.1,1.9-3.3,4.4-3.8,7.5h23.8c-0.5-3.1-1.7-5.6-3.8-7.5C437.6-1.3,434.9-2.3,431.7-2.3z"/>
					<path id="路径_3_" class="st1" d="M474-7.1v5.2h-0.6c-3.8,0-6.9,1.5-9.2,4.5c-2.2,2.9-3.4,6.3-3.4,10.4v15.4h-5.2v-35h5.2V2
						c1.1-3.6,3.5-6.3,7.3-8c1.5-0.7,3.4-1.1,5.6-1.1H474z"/>
					<path id="路径_4_" class="st1" d="M500.2,2.9c-0.5-3.6-3.4-5.5-8.8-5.5s-8.1,1.7-8.1,5c0,1.4,0.6,2.5,1.7,3.2
						c1.1,0.7,2.6,1.3,4.3,1.8c1.7,0.5,3.6,0.9,5.6,1.3c2,0.4,3.9,1,5.6,1.7s3.2,1.7,4.3,3c1.1,1.3,1.7,3,1.7,5.2
						c0,3.4-1.3,6-3.9,7.8c-2.6,1.8-6,2.7-10.4,2.7c-4.7,0-8.4-1.2-11.1-3.5c-2.5-2.1-3.9-4.7-4.1-8.1h5.5c0.3,3.2,2.1,5.4,5.5,6.5
						c1.2,0.4,2.4,0.6,3.6,0.6c1.2,0,2.3-0.1,3.3-0.2c1-0.1,2-0.4,3-0.8c2.2-0.9,3.4-2.4,3.4-4.6c0-1.4-0.6-2.6-1.7-3.3
						c-1.1-0.8-2.6-1.4-4.3-1.9c-1.7-0.5-3.6-0.9-5.6-1.3s-3.9-0.9-5.6-1.6c-1.7-0.7-3.2-1.7-4.3-2.9c-1.1-1.2-1.7-2.9-1.7-5
						c0-3.2,1.2-5.6,3.5-7.4c2.3-1.8,5.7-2.6,10.3-2.6c4.3,0,7.7,1,10.1,3.1c2.1,1.7,3.2,4,3.6,6.9h-5.4V2.9z"/>
					<path id="路径_5_" class="st1" d="M548.9,2.9c-0.5-3.6-3.4-5.5-8.8-5.5c-5.4,0-8.1,1.7-8.1,5c0,1.4,0.6,2.5,1.7,3.2
						c1.1,0.7,2.6,1.3,4.3,1.8s3.6,0.9,5.6,1.3c2,0.4,3.9,1,5.6,1.7s3.2,1.7,4.3,3c1.1,1.3,1.7,3,1.7,5.2c0,3.4-1.3,6-3.9,7.8
						c-2.6,1.8-6,2.7-10.4,2.7c-4.7,0-8.4-1.2-11.1-3.5c-2.5-2.1-3.9-4.7-4.1-8.1h5.5c0.3,3.2,2.1,5.4,5.5,6.5
						c1.2,0.4,2.4,0.6,3.6,0.6s2.3-0.1,3.3-0.2c1-0.1,2-0.4,3-0.8c2.2-0.9,3.4-2.4,3.4-4.6c0-1.4-0.6-2.6-1.7-3.3
						c-1.1-0.8-2.6-1.4-4.3-1.9s-3.6-0.9-5.6-1.3s-3.9-0.9-5.6-1.6s-3.2-1.7-4.3-2.9s-1.7-2.9-1.7-5c0-3.2,1.2-5.6,3.5-7.4
						S536-7,540.6-7c4.3,0,7.7,1,10.1,3.1c2.1,1.7,3.2,4,3.6,6.9h-5.4V2.9z"/>
					<polygon id="路径_6_" class="st1" points="571.3,42.4 565.6,42.4 572,28 557.7,-6.5 563.5,-6.5 574.8,22.2 586.3,-6.5 
						592,-6.5 					"/>
					<path id="路径_7_" class="st1" d="M602.1-6.5V-1c1.3-1.7,2.8-3.1,4.6-4.3s3.9-1.8,6.2-1.8c2.3,0,4.3,0.3,6,1
						c1.7,0.7,3.2,1.6,4.4,2.9c2.9,2.8,4.3,6.6,4.3,11.3v20.4h-5.2V8.3c0-3.2-0.9-5.8-2.7-7.7s-4.2-2.9-7.1-2.9
						c-2.9,0-5.4,1-7.5,2.9c-2.1,2-3.1,4.6-3.1,7.7v20.2h-5.2v-35H602.1z"/>
					<path id="路径_8_" class="st1" d="M652.6,24.3c2.2,0,4.2-0.6,6-1.9c1.7-1.3,3-2.9,3.8-4.9h5.7c-1.1,3.5-3,6.2-5.9,8.3
						c-3,2.1-6.5,3.2-10.6,3.2c-5.1,0-9.3-1.8-12.5-5.2c-3.1-3.4-4.7-7.7-4.7-12.8s1.6-9.4,4.7-12.8c3.2-3.5,7.4-5.2,12.5-5.2
						c4.1,0,7.7,1.1,10.6,3.2c2.8,2.1,4.8,4.9,5.9,8.3h-5.7c-0.8-2-2.1-3.6-3.8-4.9c-1.7-1.3-3.7-1.9-6-1.9c-2.2,0-4.1,0.3-5.7,1
						c-1.6,0.7-2.9,1.7-4,2.9c-2.3,2.5-3.4,5.6-3.4,9.4c0,3.7,1.1,6.9,3.4,9.4C645.3,23,648.5,24.3,652.6,24.3z"/>
					<path id="路径_9_" class="st1" d="M679.7-20.5V-1c1.3-1.7,2.8-3.1,4.6-4.3s3.9-1.8,6.2-1.8s4.3,0.3,6,1
						c1.7,0.7,3.2,1.6,4.4,2.9c2.9,2.8,4.3,6.6,4.3,11.3v20.4H700V8.3c0-3.2-0.9-5.8-2.7-7.7s-4.2-2.9-7.1-2.9c-2.9,0-5.4,1-7.5,2.9
						c-2.1,2-3.1,4.6-3.1,7.7v20.2h-5.2v-49H679.7z"/>
					<path id="路径_10_" class="st1" d="M732.6-7.1v5.2H732c-3.8,0-6.9,1.5-9.2,4.5c-2.2,2.9-3.4,6.3-3.4,10.4v15.4h-5.2v-35h5.2
						V2c1.1-3.6,3.5-6.3,7.3-8c1.5-0.7,3.4-1.1,5.6-1.1H732.6z"/>
					<path id="形状_9_" class="st1" d="M752.5-7.1c5.2,0,9.5,1.8,12.7,5.2c3.1,3.4,4.6,7.6,4.6,12.8s-1.5,9.5-4.6,12.8
						c-3.3,3.5-7.5,5.2-12.7,5.2s-9.5-1.8-12.7-5.2c-3.1-3.4-4.6-7.6-4.6-12.8s1.5-9.5,4.6-12.8C743.1-5.3,747.3-7.1,752.5-7.1z
						 M752.5,24.3c3.8,0,6.8-1.3,9-3.9c2.1-2.5,3.1-5.6,3.1-9.4s-1-6.9-3.1-9.4c-2.2-2.6-5.2-3.9-9-3.9s-6.8,1.3-9,3.9
						c-2.1,2.5-3.2,5.6-3.2,9.4s1,6.9,3.2,9.4C745.8,23,748.8,24.3,752.5,24.3z"/>
					<path id="路径_11_" class="st1" d="M782.1-6.5V-1c1.3-1.7,2.8-3.1,4.6-4.3s3.9-1.8,6.2-1.8c2.3,0,4.3,0.3,6,1
						c1.7,0.7,3.2,1.6,4.4,2.9c2.9,2.8,4.3,6.6,4.3,11.3v20.4h-5.2V8.3c0-3.2-0.9-5.8-2.7-7.7s-4.2-2.9-7.1-2.9
						c-2.9,0-5.4,1-7.5,2.9c-2.1,2-3.1,4.6-3.1,7.7v20.2h-5.2v-35H782.1z"/>
					<path id="形状_10_" class="st1" d="M831.6-7.1c5.2,0,9.5,1.8,12.7,5.2c3.1,3.4,4.6,7.6,4.6,12.8s-1.5,9.5-4.6,12.8
						c-3.3,3.5-7.5,5.2-12.7,5.2c-5.2,0-9.5-1.8-12.7-5.2c-3.1-3.4-4.6-7.6-4.6-12.8s1.5-9.5,4.6-12.8
						C822.2-5.3,826.4-7.1,831.6-7.1z M831.6,24.3c3.8,0,6.8-1.3,9-3.9c2.1-2.5,3.1-5.6,3.1-9.4s-1-6.9-3.1-9.4
						c-2.2-2.6-5.2-3.9-9-3.9c-3.8,0-6.8,1.3-9,3.9c-2.1,2.5-3.2,5.6-3.2,9.4s1,6.9,3.2,9.4C824.9,23,827.9,24.3,831.6,24.3z"/>
					<path id="路径_12_" class="st1" d="M881.2,28.5V23c-1.3,1.7-2.8,3.1-4.6,4.3c-1.8,1.2-3.9,1.8-6.2,1.8c-2.3,0-4.3-0.3-6-1
						c-1.7-0.7-3.2-1.6-4.4-2.9c-2.9-2.8-4.3-6.6-4.3-11.3V-6.5h5.2v20.2c0,3.2,0.9,5.8,2.7,7.7c1.8,1.9,4.2,2.9,7.1,2.9
						c2.9,0,5.4-1,7.5-2.9c2.1-2,3.1-4.6,3.1-7.7V-6.5h5.2v35H881.2z"/>
					<path id="路径_13_" class="st1" d="M916.1,2.9c-0.5-3.6-3.4-5.5-8.8-5.5c-5.4,0-8.1,1.7-8.1,5c0,1.4,0.6,2.5,1.7,3.2
						c1.1,0.7,2.6,1.3,4.3,1.8s3.6,0.9,5.6,1.3c2,0.4,3.9,1,5.6,1.7c1.7,0.7,3.2,1.7,4.3,3c1.1,1.3,1.7,3,1.7,5.2
						c0,3.4-1.3,6-3.9,7.8c-2.6,1.8-6,2.7-10.4,2.7c-4.7,0-8.4-1.2-11.1-3.5c-2.5-2.1-3.9-4.7-4.1-8.1h5.5c0.3,3.2,2.1,5.4,5.5,6.5
						c1.2,0.4,2.4,0.6,3.6,0.6s2.3-0.1,3.3-0.2c1-0.1,2-0.4,3-0.8c2.2-0.9,3.4-2.4,3.4-4.6c0-1.4-0.6-2.6-1.7-3.3
						c-1.1-0.8-2.6-1.4-4.3-1.9s-3.6-0.9-5.6-1.3s-3.9-0.9-5.6-1.6s-3.2-1.7-4.3-2.9c-1.1-1.2-1.7-2.9-1.7-5c0-3.2,1.2-5.6,3.5-7.4
						S903.2-7,907.8-7c4.3,0,7.7,1,10.1,3.1c2.1,1.7,3.2,4,3.6,6.9h-5.4V2.9z"/>
					<polygon id="路径_14_" class="st1" points="929.6,22.9 936.5,22.9 930.3,37.8 925.5,37.8 					"/>
					<path id="路径_15_" class="st1" d="M23.9,102.9c-0.5-3.6-3.4-5.5-8.8-5.5s-8.1,1.7-8.1,5c0,1.4,0.6,2.5,1.7,3.2
						c1.1,0.7,2.6,1.3,4.3,1.8c1.7,0.5,3.6,0.9,5.6,1.3c2,0.4,3.9,1,5.6,1.7c1.7,0.7,3.2,1.7,4.3,3c1.1,1.3,1.7,3,1.7,5.2
						c0,3.4-1.3,6-3.9,7.8c-2.6,1.8-6,2.7-10.4,2.7c-4.7,0-8.4-1.2-11.1-3.5c-2.5-2.1-3.9-4.7-4.1-8.1h5.5c0.3,3.2,2.1,5.4,5.5,6.5
						c1.2,0.4,2.4,0.6,3.6,0.6s2.3-0.1,3.3-0.2c1-0.1,2-0.4,3-0.8c2.2-0.9,3.4-2.4,3.4-4.6c0-1.4-0.6-2.6-1.7-3.3
						c-1.1-0.8-2.6-1.4-4.3-1.9s-3.6-0.9-5.6-1.3s-3.9-0.9-5.6-1.6c-1.7-0.7-3.2-1.7-4.3-2.9s-1.7-2.9-1.7-5c0-3.2,1.2-5.6,3.5-7.4
						C7.6,93.8,11,93,15.6,93c4.3,0,7.7,1,10.1,3.1c2.1,1.7,3.2,4,3.6,6.9L23.9,102.9L23.9,102.9z"/>
					<path id="形状_11_" class="st1" d="M52.6,124.3c4.7,0,8.1-2,10.1-5.9h5.7c-1.2,3.2-3.1,5.7-5.8,7.7c-2.6,2-6,2.9-10.2,2.9
						c-5.3,0-9.6-1.8-12.9-5.2c-3.2-3.4-4.8-7.7-4.8-12.8c0-5.2,1.5-9.5,4.6-12.8C42.6,94.7,46.8,93,52,93s9.5,1.8,12.7,5.2
						c3.1,3.4,4.6,7.6,4.6,12.8v2.1H40c0.4,3.2,1.7,5.9,3.9,8C46.3,123.2,49.2,124.3,52.6,124.3z M52.2,97.7c-3.2,0-5.9,1-8.1,3
						c-2.1,1.9-3.3,4.4-3.8,7.5h23.8c-0.5-3.1-1.7-5.6-3.8-7.5C58.1,98.7,55.4,97.7,52.2,97.7z"/>
					<path id="路径_16_" class="st1" d="M81.3,98.8c2.3-3.9,5.9-5.9,10.6-5.9c2.3,0,4.5,0.6,6.5,1.9c2,1.2,3.5,3,4.7,5.2
						c1.6-2.9,4.1-5,7.4-6.3c1.4-0.5,2.9-0.8,4.6-0.8c1.7,0,3.3,0.3,4.9,1c1.6,0.7,3,1.6,4.2,2.9c2.6,2.8,3.9,6.3,3.9,10.5v21.1
						h-5.2v-21c0-2.9-0.8-5.3-2.4-7.1c-1.6-1.8-3.7-2.7-6.2-2.7c-2.7,0-4.9,0.9-6.6,2.6c-1.9,1.8-2.8,4.2-2.8,7.3v20.9h-5.2v-21
						c0-2.9-0.8-5.3-2.4-7.1c-1.6-1.8-3.7-2.7-6.2-2.7c-2.7,0-4.9,0.9-6.7,2.6c-1.9,1.8-2.8,4.2-2.8,7.3v20.9H76v-35h5.2v5.4H81.3z"
						/>
					<path id="形状_12_" class="st1" d="M142.2,80.8v6.9h-5.7v-6.9H142.2z M136.8,93.5h5.2v35h-5.2V93.5z"/>
					<polygon id="路径_17_" class="st1" points="150.3,105.3 167.8,105.3 167.8,110.4 150.3,110.4 					"/>
					<path id="路径_18_" class="st1" d="M196.6,102.9c-0.5-3.6-3.4-5.5-8.8-5.5c-5.4,0-8.1,1.7-8.1,5c0,1.4,0.6,2.5,1.7,3.2
						c1.1,0.7,2.6,1.3,4.3,1.8c1.7,0.5,3.6,0.9,5.6,1.3c2,0.4,3.9,1,5.6,1.7c1.7,0.7,3.2,1.7,4.3,3c1.1,1.3,1.7,3,1.7,5.2
						c0,3.4-1.3,6-3.9,7.8c-2.6,1.8-6,2.7-10.4,2.7c-4.7,0-8.4-1.2-11.1-3.5c-2.5-2.1-3.9-4.7-4.1-8.1h5.5c0.3,3.2,2.1,5.4,5.5,6.5
						c1.2,0.4,2.4,0.6,3.6,0.6s2.3-0.1,3.3-0.2c1-0.1,2-0.4,3-0.8c2.2-0.9,3.4-2.4,3.4-4.6c0-1.4-0.6-2.6-1.7-3.3
						c-1.1-0.8-2.6-1.4-4.3-1.9s-3.6-0.9-5.6-1.3s-3.9-0.9-5.6-1.6c-1.7-0.7-3.2-1.7-4.3-2.9c-1.1-1.2-1.7-2.9-1.7-5
						c0-3.2,1.2-5.6,3.5-7.4c2.3-1.8,5.7-2.6,10.3-2.6c4.3,0,7.7,1,10.1,3.1c2.1,1.7,3.2,4,3.6,6.9L196.6,102.9L196.6,102.9z"/>
					<polygon id="路径_19_" class="st1" points="219.1,142.4 213.4,142.4 219.8,128 205.5,93.5 211.3,93.5 222.6,122.2 
						234.1,93.5 239.8,93.5 					"/>
					<path id="路径_20_" class="st1" d="M249.8,93.5V99c1.3-1.7,2.8-3.1,4.6-4.3c1.8-1.2,3.9-1.8,6.2-1.8c2.3,0,4.3,0.3,6,1
						c1.7,0.7,3.2,1.6,4.4,2.9c2.9,2.8,4.3,6.6,4.3,11.3v20.4h-5.2v-20.2c0-3.2-0.9-5.8-2.7-7.7c-1.8-1.9-4.2-2.9-7.1-2.9
						c-2.9,0-5.4,1-7.5,2.9c-2.1,2-3.1,4.6-3.1,7.7v20.2h-5.2v-35H249.8z"/>
					<path id="路径_21_" class="st1" d="M300.4,124.3c2.2,0,4.2-0.6,6-1.9c1.7-1.3,3-2.9,3.8-4.9h5.7c-1.1,3.5-3,6.2-5.9,8.3
						c-3,2.1-6.5,3.2-10.6,3.2c-5.1,0-9.3-1.8-12.5-5.2c-3.1-3.4-4.7-7.7-4.7-12.8c0-5.1,1.6-9.4,4.7-12.8c3.2-3.5,7.4-5.2,12.5-5.2
						c4.1,0,7.7,1.1,10.6,3.2c2.8,2.1,4.8,4.9,5.9,8.3h-5.7c-0.8-2-2.1-3.6-3.8-4.9c-1.7-1.3-3.7-1.9-6-1.9c-2.2,0-4.1,0.3-5.7,1
						c-1.6,0.7-2.9,1.7-4,2.9c-2.3,2.5-3.4,5.6-3.4,9.4c0,3.7,1.1,6.9,3.4,9.4C293,123,296.3,124.3,300.4,124.3z"/>
					<path id="路径_22_" class="st1" d="M327.5,79.5V99c1.3-1.7,2.8-3.1,4.6-4.3c1.8-1.2,3.9-1.8,6.2-1.8c2.3,0,4.3,0.3,6,1
						c1.7,0.7,3.2,1.6,4.4,2.9c2.9,2.8,4.3,6.6,4.3,11.3v20.4h-5.2v-20.2c0-3.2-0.9-5.8-2.7-7.7c-1.8-1.9-4.2-2.9-7.1-2.9
						s-5.4,1-7.5,2.9c-2.1,2-3.1,4.6-3.1,7.7v20.2h-5.2v-49H327.5z"/>
					<path id="路径_23_" class="st1" d="M380.4,92.9v5.2h-0.6c-3.8,0-6.9,1.5-9.2,4.5c-2.2,2.9-3.4,6.3-3.4,10.4v15.4H362v-35h5.2
						v8.6c1.1-3.6,3.5-6.3,7.3-8c1.5-0.7,3.4-1.1,5.6-1.1H380.4z"/>
					<path id="形状_13_" class="st1" d="M400.3,92.9c5.2,0,9.5,1.8,12.7,5.2c3.1,3.4,4.6,7.6,4.6,12.8c0,5.2-1.5,9.5-4.6,12.8
						c-3.3,3.5-7.5,5.2-12.7,5.2c-5.2,0-9.5-1.8-12.7-5.2c-3.1-3.4-4.6-7.6-4.6-12.8c0-5.2,1.5-9.5,4.6-12.8
						C390.8,94.7,395.1,92.9,400.3,92.9z M400.3,124.3c3.8,0,6.8-1.3,9-3.9c2.1-2.5,3.1-5.6,3.1-9.4s-1-6.9-3.1-9.4
						c-2.2-2.6-5.2-3.9-9-3.9c-3.8,0-6.8,1.3-9,3.9c-2.1,2.5-3.2,5.6-3.2,9.4s1,6.9,3.2,9.4C393.5,123,396.5,124.3,400.3,124.3z"/>
					<path id="路径_24_" class="st1" d="M429.9,93.5V99c1.3-1.7,2.8-3.1,4.6-4.3c1.8-1.2,3.9-1.8,6.2-1.8c2.3,0,4.3,0.3,6,1
						c1.7,0.7,3.2,1.6,4.4,2.9c2.9,2.8,4.3,6.6,4.3,11.3v20.4h-5.2v-20.2c0-3.2-0.9-5.8-2.7-7.7s-4.2-2.9-7.1-2.9s-5.4,1-7.5,2.9
						c-2.1,2-3.1,4.6-3.1,7.7v20.2h-5.2v-35H429.9z"/>
					<path id="形状_14_" class="st1" d="M479.4,92.9c5.2,0,9.5,1.8,12.7,5.2c3.1,3.4,4.6,7.6,4.6,12.8c0,5.2-1.5,9.5-4.6,12.8
						c-3.3,3.5-7.5,5.2-12.7,5.2c-5.2,0-9.5-1.8-12.7-5.2c-3.1-3.4-4.6-7.6-4.6-12.8c0-5.2,1.5-9.5,4.6-12.8
						C469.9,94.7,474.2,92.9,479.4,92.9z M479.4,124.3c3.8,0,6.8-1.3,9-3.9c2.1-2.5,3.1-5.6,3.1-9.4s-1-6.9-3.1-9.4
						c-2.2-2.6-5.2-3.9-9-3.9c-3.8,0-6.8,1.3-9,3.9c-2.1,2.5-3.2,5.6-3.2,9.4s1,6.9,3.2,9.4C472.6,123,475.6,124.3,479.4,124.3z"/>
					<path id="路径_25_" class="st1" d="M529,128.5V123c-1.3,1.7-2.8,3.1-4.6,4.3c-1.8,1.2-3.9,1.8-6.2,1.8s-4.3-0.3-6-1
						c-1.7-0.7-3.2-1.6-4.4-2.9c-2.9-2.8-4.3-6.6-4.3-11.3V93.5h5.2v20.2c0,3.2,0.9,5.8,2.7,7.7c1.8,1.9,4.2,2.9,7.1,2.9
						s5.4-1,7.5-2.9c2.1-2,3.1-4.6,3.1-7.7V93.5h5.2v35H529z"/>
					<path id="路径_26_" class="st1" d="M563.9,102.9c-0.5-3.6-3.4-5.5-8.8-5.5c-5.4,0-8.1,1.7-8.1,5c0,1.4,0.6,2.5,1.7,3.2
						c1.1,0.7,2.6,1.3,4.3,1.8c1.7,0.5,3.6,0.9,5.6,1.3c2,0.4,3.9,1,5.6,1.7c1.7,0.7,3.2,1.7,4.3,3c1.1,1.3,1.7,3,1.7,5.2
						c0,3.4-1.3,6-3.9,7.8c-2.6,1.8-6,2.7-10.4,2.7c-4.7,0-8.4-1.2-11.1-3.5c-2.5-2.1-3.9-4.7-4.1-8.1h5.5c0.3,3.2,2.1,5.4,5.5,6.5
						c1.2,0.4,2.4,0.6,3.6,0.6s2.3-0.1,3.3-0.2c1-0.1,2-0.4,3-0.8c2.2-0.9,3.4-2.4,3.4-4.6c0-1.4-0.6-2.6-1.7-3.3
						c-1.1-0.8-2.6-1.4-4.3-1.9s-3.6-0.9-5.6-1.3s-3.9-0.9-5.6-1.6c-1.7-0.7-3.2-1.7-4.3-2.9s-1.7-2.9-1.7-5c0-3.2,1.2-5.6,3.5-7.4
						c2.3-1.8,5.7-2.6,10.3-2.6c4.3,0,7.7,1,10.1,3.1c2.1,1.7,3.2,4,3.6,6.9L563.9,102.9L563.9,102.9z"/>
					<path id="形状_15_" class="st1" d="M619.3,122.9c-2.8,4.1-7,6.2-12.5,6.2c-5,0-9.1-1.8-12.3-5.2c-3.1-3.5-4.6-7.7-4.6-12.8
						c0-5.1,1.5-9.4,4.6-12.8c3.2-3.5,7.4-5.2,12.7-5.2s9.3,2.1,12.2,6.2v-5.7h5.2v35h-5.2v-5.7H619.3z M607.4,124.3
						c3.8,0,6.8-1.3,9-3.9c2.1-2.5,3.1-5.6,3.1-9.4s-1-6.9-3.1-9.4c-2.2-2.6-5.2-3.9-9-3.9c-3.7,0-6.8,1.3-9.1,3.9
						c-2.2,2.5-3.3,5.6-3.3,9.4s1.1,6.9,3.3,9.4C600.7,123,603.7,124.3,607.4,124.3z"/>
					<path id="路径_27_" class="st1" d="M638.9,93.5V99c1.3-1.7,2.8-3.1,4.6-4.3c1.8-1.2,3.9-1.8,6.2-1.8s4.3,0.3,6,1
						c1.7,0.7,3.2,1.6,4.4,2.9c2.9,2.8,4.3,6.6,4.3,11.3v20.4h-5.2v-20.2c0-3.2-0.9-5.8-2.7-7.7s-4.2-2.9-7.1-2.9
						c-2.9,0-5.4,1-7.5,2.9c-2.1,2-3.1,4.6-3.1,7.7v20.2h-5.2v-35H638.9z"/>
					<path id="形状_16_" class="st1" d="M700.5,122.9c-2.8,4.1-7,6.2-12.5,6.2c-5,0-9.1-1.8-12.3-5.2c-3.1-3.5-4.6-7.7-4.6-12.8
						c0-5.1,1.5-9.4,4.6-12.8c3.2-3.5,7.4-5.2,12.7-5.2c5.3,0,9.3,2.1,12.2,6.2V79.6h5.2v49h-5.2L700.5,122.9L700.5,122.9z
						 M688.7,124.3c3.8,0,6.8-1.3,9-3.9c2.1-2.5,3.1-5.6,3.1-9.4s-1-6.9-3.1-9.4c-2.2-2.6-5.2-3.9-9-3.9c-3.7,0-6.8,1.3-9.1,3.9
						c-2.2,2.5-3.3,5.6-3.3,9.4s1.1,6.9,3.3,9.4C681.9,123,685,124.3,688.7,124.3z"/>
					<path id="形状_17_" class="st1" d="M757.1,122.9c-2.8,4.1-7,6.2-12.5,6.2c-5,0-9.1-1.8-12.3-5.2c-3.1-3.5-4.6-7.7-4.6-12.8
						c0-5.1,1.5-9.4,4.6-12.8c3.2-3.5,7.4-5.2,12.7-5.2s9.3,2.1,12.2,6.2v-5.7h5.2v35h-5.2v-5.7H757.1z M745.3,124.3
						c3.8,0,6.8-1.3,9-3.9c2.1-2.5,3.1-5.6,3.1-9.4s-1-6.9-3.1-9.4c-2.2-2.6-5.2-3.9-9-3.9c-3.7,0-6.8,1.3-9.1,3.9
						c-2.2,2.5-3.3,5.6-3.3,9.4s1.1,6.9,3.3,9.4C738.5,123,741.5,124.3,745.3,124.3z"/>
					<path id="路径_28_" class="st1" d="M792,102.9c-0.5-3.6-3.4-5.5-8.8-5.5c-5.4,0-8.1,1.7-8.1,5c0,1.4,0.6,2.5,1.7,3.2
						c1.1,0.7,2.6,1.3,4.3,1.8c1.7,0.5,3.6,0.9,5.6,1.3c2,0.4,3.9,1,5.6,1.7c1.7,0.7,3.2,1.7,4.3,3c1.1,1.3,1.7,3,1.7,5.2
						c0,3.4-1.3,6-3.9,7.8c-2.6,1.8-6,2.7-10.4,2.7c-4.7,0-8.4-1.2-11.1-3.5c-2.5-2.1-3.9-4.7-4.1-8.1h5.5c0.3,3.2,2.1,5.4,5.5,6.5
						c1.2,0.4,2.4,0.6,3.6,0.6c1.2,0,2.3-0.1,3.3-0.2c1-0.1,2-0.4,3-0.8c2.2-0.9,3.4-2.4,3.4-4.6c0-1.4-0.6-2.6-1.7-3.3
						c-1.1-0.8-2.6-1.4-4.3-1.9c-1.7-0.5-3.6-0.9-5.6-1.3s-3.9-0.9-5.6-1.6c-1.7-0.7-3.2-1.7-4.3-2.9c-1.1-1.2-1.7-2.9-1.7-5
						c0-3.2,1.2-5.6,3.5-7.4c2.3-1.8,5.7-2.6,10.3-2.6c4.3,0,7.7,1,10.1,3.1c2.1,1.7,3.2,4,3.6,6.9L792,102.9L792,102.9z"/>
					<polygon id="路径_29_" class="st1" points="814.5,142.4 808.8,142.4 815.2,128 800.9,93.5 806.7,93.5 818,122.2 829.5,93.5 
						835.2,93.5 					"/>
					<path id="路径_30_" class="st1" d="M845.2,93.5V99c1.3-1.7,2.8-3.1,4.6-4.3c1.8-1.2,3.9-1.8,6.2-1.8s4.3,0.3,6,1
						c1.7,0.7,3.2,1.6,4.4,2.9c2.9,2.8,4.3,6.6,4.3,11.3v20.4h-5.2v-20.2c0-3.2-0.9-5.8-2.7-7.7s-4.2-2.9-7.1-2.9
						c-2.9,0-5.4,1-7.5,2.9c-2.1,2-3.1,4.6-3.1,7.7v20.2h-5.2v-35H845.2z"/>
					<path id="路径_31_" class="st1" d="M895.8,124.3c2.2,0,4.2-0.6,6-1.9c1.7-1.3,3-2.9,3.8-4.9h5.7c-1.1,3.5-3,6.2-5.9,8.3
						c-3,2.1-6.5,3.2-10.6,3.2c-5.1,0-9.3-1.8-12.5-5.2c-3.1-3.4-4.7-7.7-4.7-12.8c0-5.1,1.6-9.4,4.7-12.8c3.2-3.5,7.4-5.2,12.5-5.2
						c4.1,0,7.7,1.1,10.6,3.2c2.8,2.1,4.8,4.9,5.9,8.3h-5.7c-0.8-2-2.1-3.6-3.8-4.9c-1.7-1.3-3.7-1.9-6-1.9c-2.2,0-4.1,0.3-5.7,1
						c-1.6,0.7-2.9,1.7-4,2.9c-2.3,2.5-3.4,5.6-3.4,9.4c0,3.7,1.1,6.9,3.4,9.4C888.4,123,891.7,124.3,895.8,124.3z"/>
					<path id="路径_32_" class="st1" d="M922.9,79.5V99c1.3-1.7,2.8-3.1,4.6-4.3c1.8-1.2,3.9-1.8,6.2-1.8s4.3,0.3,6,1
						c1.7,0.7,3.2,1.6,4.4,2.9c2.9,2.8,4.3,6.6,4.3,11.3v20.4h-5.2v-20.2c0-3.2-0.9-5.8-2.7-7.7s-4.2-2.9-7.1-2.9
						c-2.9,0-5.4,1-7.5,2.9c-2.1,2-3.1,4.6-3.1,7.7v20.2h-5.2v-49H922.9z"/>
					<path id="路径_33_" class="st1" d="M975.8,92.9v5.2h-0.6c-3.8,0-6.9,1.5-9.2,4.5c-2.2,2.9-3.4,6.3-3.4,10.4v15.4h-5.2v-35
						h5.2v8.6c1.1-3.6,3.5-6.3,7.3-8c1.5-0.7,3.4-1.1,5.6-1.1H975.8z"/>
					<path id="形状_18_" class="st1" d="M995.7,92.9c5.2,0,9.5,1.8,12.7,5.2c3.1,3.4,4.6,7.6,4.6,12.8c0,5.2-1.5,9.5-4.6,12.8
						c-3.3,3.5-7.5,5.2-12.7,5.2s-9.5-1.8-12.7-5.2c-3.1-3.4-4.6-7.6-4.6-12.8c0-5.2,1.5-9.5,4.6-12.8
						C986.3,94.7,990.5,92.9,995.7,92.9z M995.7,124.3c3.8,0,6.8-1.3,9-3.9c2.1-2.5,3.1-5.6,3.1-9.4s-1-6.9-3.1-9.4
						c-2.2-2.6-5.2-3.9-9-3.9s-6.8,1.3-9,3.9c-2.1,2.5-3.2,5.6-3.2,9.4s1,6.9,3.2,9.4C989,123,991.9,124.3,995.7,124.3z"/>
					<path id="路径_34_" class="st1" d="M1025.3,93.5V99c1.3-1.7,2.8-3.1,4.6-4.3c1.8-1.2,3.9-1.8,6.2-1.8c2.3,0,4.3,0.3,6,1
						c1.7,0.7,3.2,1.6,4.4,2.9c2.9,2.8,4.3,6.6,4.3,11.3v20.4h-5.2v-20.2c0-3.2-0.9-5.8-2.7-7.7c-1.8-1.9-4.2-2.9-7.1-2.9
						c-2.9,0-5.4,1-7.5,2.9c-2.1,2-3.1,4.6-3.1,7.7v20.2h-5.2v-35H1025.3z"/>
					<path id="形状_19_" class="st1" d="M1074.8,92.9c5.2,0,9.5,1.8,12.7,5.2c3.1,3.4,4.6,7.6,4.6,12.8c0,5.2-1.5,9.5-4.6,12.8
						c-3.3,3.5-7.5,5.2-12.7,5.2c-5.2,0-9.5-1.8-12.7-5.2c-3.1-3.4-4.6-7.6-4.6-12.8c0-5.2,1.5-9.5,4.6-12.8
						C1065.4,94.7,1069.6,92.9,1074.8,92.9z M1074.8,124.3c3.8,0,6.8-1.3,9-3.9c2.1-2.5,3.1-5.6,3.1-9.4s-1-6.9-3.1-9.4
						c-2.2-2.6-5.2-3.9-9-3.9c-3.8,0-6.8,1.3-9,3.9c-2.1,2.5-3.2,5.6-3.2,9.4s1,6.9,3.2,9.4C1068.1,123,1071,124.3,1074.8,124.3z"/>
					<path id="路径_35_" class="st1" d="M1124.4,128.5V123c-1.3,1.7-2.8,3.1-4.6,4.3c-1.8,1.2-3.9,1.8-6.2,1.8c-2.3,0-4.3-0.3-6-1
						c-1.7-0.7-3.2-1.6-4.4-2.9c-2.9-2.8-4.3-6.6-4.3-11.3V93.5h5.2v20.2c0,3.2,0.9,5.8,2.7,7.7c1.8,1.9,4.2,2.9,7.1,2.9
						s5.4-1,7.5-2.9c2.1-2,3.1-4.6,3.1-7.7V93.5h5.2v35H1124.4z"/>
					<path id="路径_36_" class="st1" d="M1159.3,102.9c-0.5-3.6-3.4-5.5-8.8-5.5s-8.1,1.7-8.1,5c0,1.4,0.6,2.5,1.7,3.2
						c1.1,0.7,2.6,1.3,4.3,1.8c1.7,0.5,3.6,0.9,5.6,1.3c2,0.4,3.9,1,5.6,1.7c1.7,0.7,3.2,1.7,4.3,3c1.1,1.3,1.7,3,1.7,5.2
						c0,3.4-1.3,6-3.9,7.8c-2.6,1.8-6,2.7-10.4,2.7c-4.7,0-8.4-1.2-11.1-3.5c-2.5-2.1-3.9-4.7-4.1-8.1h5.5c0.3,3.2,2.1,5.4,5.5,6.5
						c1.2,0.4,2.4,0.6,3.6,0.6c1.2,0,2.3-0.1,3.3-0.2c1-0.1,2-0.4,3-0.8c2.2-0.9,3.4-2.4,3.4-4.6c0-1.4-0.6-2.6-1.7-3.3
						c-1.1-0.8-2.6-1.4-4.3-1.9c-1.7-0.5-3.6-0.9-5.6-1.3s-3.9-0.9-5.6-1.6c-1.7-0.7-3.2-1.7-4.3-2.9s-1.7-2.9-1.7-5
						c0-3.2,1.2-5.6,3.5-7.4c2.3-1.8,5.7-2.6,10.3-2.6c4.3,0,7.7,1,10.1,3.1c2.1,1.7,3.2,4,3.6,6.9L1159.3,102.9L1159.3,102.9z"/>
					<path id="路径_37_" class="st1" d="M21.8,192.9v5.2h-0.6c-3.8,0-6.9,1.5-9.2,4.5c-2.2,2.9-3.4,6.3-3.4,10.4v15.4H3.4v-35h5.2
						v8.6c1.1-3.6,3.5-6.3,7.3-8c1.5-0.7,3.4-1.1,5.6-1.1H21.8z"/>
					<path id="形状_20_" class="st1" d="M42.1,224.3c4.7,0,8.1-2,10.1-5.9h5.7c-1.2,3.2-3.1,5.7-5.8,7.7c-2.6,2-6,2.9-10.2,2.9
						c-5.3,0-9.6-1.8-12.9-5.2c-3.2-3.4-4.8-7.7-4.8-12.8c0-5.2,1.5-9.5,4.6-12.8c3.3-3.5,7.5-5.2,12.7-5.2s9.5,1.8,12.7,5.2
						c3.1,3.4,4.6,7.6,4.6,12.8v2.1H29.5c0.4,3.2,1.7,5.9,3.9,8C35.8,223.2,38.7,224.3,42.1,224.3z M41.7,197.7c-3.2,0-5.9,1-8.1,3
						c-2.1,1.9-3.3,4.4-3.8,7.5h23.8c-0.5-3.1-1.7-5.6-3.8-7.5C47.6,198.7,44.9,197.7,41.7,197.7z"/>
					<path id="形状_21_" class="st1" d="M70.8,199.1c2.8-4.1,7-6.2,12.5-6.2c5,0,9.1,1.8,12.2,5.2c3.1,3.5,4.7,7.7,4.7,12.8
						c0,5.1-1.6,9.4-4.7,12.8c-3.1,3.5-7.3,5.2-12.6,5.2c-5.3,0-9.3-2.1-12.2-6.2v19.5h-5.2v-48.9h5.2v5.8H70.8z M82.6,197.7
						c-3.8,0-6.8,1.3-9,3.9c-2.1,2.5-3.2,5.6-3.2,9.4s1.1,6.9,3.2,9.4c2.2,2.6,5.2,3.9,9,3.9c3.7,0,6.8-1.3,9.1-3.9
						c2.2-2.5,3.3-5.6,3.3-9.4s-1.1-6.9-3.3-9.4C89.4,199,86.3,197.7,82.6,197.7z"/>
					<polygon id="路径_38_" class="st1" points="112.3,228.5 107.1,228.5 107.1,179.5 112.3,179.5 					"/>
					<path id="形状_22_" class="st1" d="M126.9,180.8v6.9h-5.7v-6.9H126.9z M121.4,193.5h5.2v35h-5.2V193.5z"/>
					<path id="路径_39_" class="st1" d="M152,224.3c2.2,0,4.2-0.6,6-1.9c1.7-1.3,3-2.9,3.8-4.9h5.7c-1.1,3.5-3,6.2-5.9,8.3
						c-3,2.1-6.5,3.2-10.6,3.2c-5.1,0-9.3-1.8-12.5-5.2c-3.1-3.4-4.7-7.7-4.7-12.8s1.6-9.4,4.7-12.8c3.2-3.5,7.4-5.2,12.5-5.2
						c4.1,0,7.7,1.1,10.6,3.2c2.8,2.1,4.8,4.9,5.9,8.3h-5.7c-0.8-2-2.1-3.6-3.8-4.9c-1.7-1.3-3.7-1.9-6-1.9c-2.2,0-4.1,0.3-5.7,1
						c-1.6,0.7-2.9,1.7-4,2.9c-2.3,2.5-3.4,5.6-3.4,9.4c0,3.7,1.1,6.9,3.4,9.4C144.6,223,147.9,224.3,152,224.3z"/>
					<path id="形状_23_" class="st1" d="M201.2,222.9c-2.8,4.1-7,6.2-12.5,6.2c-5,0-9.1-1.8-12.3-5.2c-3.1-3.5-4.6-7.7-4.6-12.8
						c0-5.1,1.5-9.4,4.6-12.8c3.2-3.5,7.4-5.2,12.7-5.2c5.3,0,9.3,2.1,12.2,6.2v-5.7h5.2v35h-5.2v-5.7H201.2z M189.3,224.3
						c3.8,0,6.8-1.3,9-3.9c2.1-2.5,3.1-5.6,3.1-9.4s-1-6.9-3.1-9.4c-2.2-2.6-5.2-3.9-9-3.9c-3.7,0-6.8,1.3-9.1,3.9
						c-2.2,2.5-3.3,5.6-3.3,9.4s1.1,6.9,3.3,9.4C182.6,223,185.6,224.3,189.3,224.3z"/>
					<polygon id="路径_40_" class="st1" points="219.3,228.5 219.3,198.1 212.2,198.1 212.2,193.5 219.3,193.5 219.3,181 
						224.5,181 224.5,193.5 232.5,193.5 232.5,198.1 224.5,198.1 224.5,228.5 					"/>
					<path id="形状_24_" class="st1" d="M243.8,180.8v6.9h-5.7v-6.9H243.8z M238.3,193.5h5.2v35h-5.2V193.5z"/>
					<path id="形状_25_" class="st1" d="M267.9,192.9c5.2,0,9.5,1.8,12.7,5.2c3.1,3.4,4.6,7.6,4.6,12.8c0,5.2-1.5,9.5-4.6,12.8
						c-3.3,3.5-7.5,5.2-12.7,5.2c-5.2,0-9.5-1.8-12.7-5.2c-3.1-3.4-4.6-7.6-4.6-12.8c0-5.2,1.5-9.5,4.6-12.8
						C258.4,194.7,262.6,192.9,267.9,192.9z M267.9,224.3c3.8,0,6.8-1.3,9-3.9c2.1-2.5,3.1-5.6,3.1-9.4s-1-6.9-3.1-9.4
						c-2.2-2.6-5.2-3.9-9-3.9c-3.8,0-6.8,1.3-9,3.9c-2.1,2.5-3.2,5.6-3.2,9.4s1,6.9,3.2,9.4C261.1,223,264.1,224.3,267.9,224.3z"/>
					<path id="路径_41_" class="st1" d="M297.4,193.5v5.5c1.3-1.7,2.8-3.1,4.6-4.3s3.9-1.8,6.2-1.8c2.3,0,4.3,0.3,6,1
						c1.7,0.7,3.2,1.6,4.4,2.9c2.9,2.8,4.3,6.6,4.3,11.3v20.4h-5.2v-20.2c0-3.2-0.9-5.8-2.7-7.7c-1.8-1.9-4.2-2.9-7.1-2.9
						s-5.4,1-7.5,2.9c-2.1,2-3.1,4.6-3.1,7.7v20.2h-5.2v-35H297.4z"/>
					<path id="路径_42_" class="st1" d="M352.4,202.9c-0.5-3.6-3.4-5.5-8.8-5.5s-8.1,1.7-8.1,5c0,1.4,0.6,2.5,1.7,3.2
						c1.1,0.7,2.6,1.3,4.3,1.8s3.6,0.9,5.6,1.3c2,0.4,3.9,1,5.6,1.7c1.7,0.7,3.2,1.7,4.3,3c1.1,1.3,1.7,3,1.7,5.2
						c0,3.4-1.3,6-3.9,7.8c-2.6,1.8-6,2.7-10.4,2.7c-4.7,0-8.4-1.2-11.1-3.5c-2.5-2.1-3.9-4.7-4.1-8.1h5.5c0.3,3.2,2.1,5.4,5.5,6.5
						c1.2,0.4,2.4,0.6,3.6,0.6c1.2,0,2.3-0.1,3.3-0.2c1-0.1,2-0.4,3-0.8c2.2-0.9,3.4-2.4,3.4-4.6c0-1.4-0.6-2.6-1.7-3.3
						c-1.1-0.8-2.6-1.4-4.3-1.9s-3.6-0.9-5.6-1.3s-3.9-0.9-5.6-1.6c-1.7-0.7-3.2-1.7-4.3-2.9s-1.7-2.9-1.7-5c0-3.2,1.2-5.6,3.5-7.4
						c2.3-1.8,5.7-2.6,10.3-2.6c4.3,0,7.7,1,10.1,3.1c2.1,1.7,3.2,4,3.6,6.9h-5.4V202.9z"/>
					<polygon id="路径_43_" class="st1" points="402.3,200.6 393.5,228.5 387.5,228.5 376.5,193.5 382.1,193.5 390.5,222 
						399.4,193.5 405.1,193.5 414,222 422.4,193.5 428,193.5 417,228.5 411,228.5 					"/>
					<path id="形状_26_" class="st1" d="M438.7,180.8v6.9H433v-6.9H438.7z M433.2,193.5h5.2v35h-5.2V193.5z"/>
					<polygon id="路径_44_" class="st1" points="451.3,228.5 451.3,198.1 444.2,198.1 444.2,193.5 451.3,193.5 451.3,181 
						456.5,181 456.5,193.5 464.5,193.5 464.5,198.1 456.5,198.1 456.5,228.5 					"/>
					<path id="路径_45_" class="st1" d="M475.6,179.5V199c1.3-1.7,2.8-3.1,4.6-4.3c1.8-1.2,3.9-1.8,6.2-1.8c2.3,0,4.3,0.3,6,1
						c1.7,0.7,3.2,1.6,4.4,2.9c2.9,2.8,4.3,6.6,4.3,11.3v20.4h-5.2v-20.2c0-3.2-0.9-5.8-2.7-7.7c-1.8-1.9-4.2-2.9-7.1-2.9
						s-5.4,1-7.5,2.9c-2.1,2-3.1,4.6-3.1,7.7v20.2h-5.2v-49H475.6z"/>
					<path id="形状_27_" class="st1" d="M552.2,199.1v-5.6h5.2v34c0,5-1.4,8.9-4.3,11.5c-2.9,2.6-6.7,4-11.6,4s-8.6-0.9-11.4-2.8
						c-2.7-1.9-4.6-4.3-5.6-7.4h5.8c1.5,3.6,4.9,5.5,10.2,5.5c4.1,0,7-0.9,8.8-2.8s2.7-4.6,2.7-8.3v-4.8c-2.8,4.2-7,6.2-12.5,6.2
						c-5,0-9.1-1.7-12.3-5.2c-3.1-3.4-4.6-7.6-4.6-12.6s1.5-9.2,4.6-12.6c3.2-3.5,7.4-5.2,12.7-5.2
						C545.4,192.9,549.4,195,552.2,199.1z M540.4,223.7c1.9,0,3.6-0.3,5.1-1s2.8-1.6,3.9-2.8c2.1-2.4,3.1-5.5,3.1-9.2
						s-1-6.8-3.1-9.2c-2.3-2.5-5.3-3.8-9-3.8c-3.8,0-6.8,1.3-9.1,3.8c-2.2,2.5-3.3,5.6-3.3,9.2c0,3.6,1.1,6.8,3.3,9.2
						C533.6,222.5,536.6,223.7,540.4,223.7z"/>
					<path id="路径_46_" class="st1" d="M585,192.9v5.2h-0.6c-3.8,0-6.9,1.5-9.2,4.5c-2.2,2.9-3.4,6.3-3.4,10.4v15.4h-5.2v-35h5.2
						v8.6c1.1-3.6,3.5-6.3,7.3-8c1.5-0.7,3.4-1.1,5.6-1.1H585z"/>
					<path id="形状_28_" class="st1" d="M605.4,224.3c4.7,0,8.1-2,10.1-5.9h5.7c-1.2,3.2-3.1,5.7-5.8,7.7c-2.6,2-6,2.9-10.2,2.9
						c-5.3,0-9.6-1.8-12.9-5.2c-3.2-3.4-4.8-7.7-4.8-12.8c0-5.2,1.5-9.5,4.6-12.8c3.3-3.5,7.5-5.2,12.7-5.2s9.5,1.8,12.7,5.2
						c3.1,3.4,4.6,7.6,4.6,12.8v2.1H593c0.4,3.2,1.7,5.9,3.9,8C599.1,223.2,602,224.3,605.4,224.3z M605,197.7c-3.2,0-5.9,1-8.1,3
						c-2.1,1.9-3.3,4.4-3.8,7.5h23.8c-0.5-3.1-1.7-5.6-3.8-7.5C610.9,198.7,608.2,197.7,605,197.7z"/>
					<path id="形状_29_" class="st1" d="M656.1,222.9c-2.8,4.1-7,6.2-12.5,6.2c-5,0-9.1-1.8-12.3-5.2c-3.1-3.5-4.6-7.7-4.6-12.8
						c0-5.1,1.5-9.4,4.6-12.8c3.2-3.5,7.4-5.2,12.7-5.2s9.3,2.1,12.2,6.2v-5.7h5.2v35h-5.2v-5.7H656.1z M644.3,224.3
						c3.8,0,6.8-1.3,9-3.9c2.1-2.5,3.1-5.6,3.1-9.4s-1-6.9-3.1-9.4c-2.2-2.6-5.2-3.9-9-3.9c-3.7,0-6.8,1.3-9.1,3.9
						c-2.2,2.5-3.3,5.6-3.3,9.4s1.1,6.9,3.3,9.4C637.5,223,640.5,224.3,644.3,224.3z"/>
					<polygon id="路径_47_" class="st1" points="674.2,228.5 674.2,198.1 667.1,198.1 667.1,193.5 674.2,193.5 674.2,181 
						679.4,181 679.4,193.5 687.4,193.5 687.4,198.1 679.4,198.1 679.4,228.5 					"/>
					<path id="形状_30_" class="st1" d="M723.8,224.3c4.7,0,8.1-2,10.1-5.9h5.7c-1.2,3.2-3.1,5.7-5.8,7.7c-2.6,2-6,2.9-10.2,2.9
						c-5.3,0-9.6-1.8-12.9-5.2c-3.2-3.4-4.8-7.7-4.8-12.8c0-5.2,1.5-9.5,4.6-12.8c3.3-3.5,7.5-5.2,12.7-5.2s9.5,1.8,12.7,5.2
						c3.1,3.4,4.6,7.6,4.6,12.8v2.1h-29.3c0.4,3.2,1.7,5.9,3.9,8C717.5,223.2,720.3,224.3,723.8,224.3z M723.4,197.7
						c-3.2,0-5.9,1-8.1,3c-2.1,1.9-3.3,4.4-3.8,7.5h23.8c-0.5-3.1-1.7-5.6-3.8-7.5C729.3,198.7,726.6,197.7,723.4,197.7z"/>
					<path id="路径_48_" class="st1" d="M761.9,183.9c-2.5,0-4.3,0.5-5.6,1.6c-1.2,1.1-1.9,2.9-1.9,5.3v2.7h8.1v4.6h-8.1v30.4
						h-5.2v-30.4h-6v-4.6h6v-3.1c0-3.8,1.1-6.7,3.4-8.6c2.3-1.9,5.5-2.9,9.5-2.9h0.4v5H761.9z"/>
					<path id="路径_49_" class="st1" d="M783.4,183.9c-2.5,0-4.3,0.5-5.6,1.6c-1.2,1.1-1.9,2.9-1.9,5.3v2.7h8.1v4.6h-8.1v30.4
						h-5.2v-30.4h-6v-4.6h6v-3.1c0-3.8,1.1-6.7,3.4-8.6c2.3-1.9,5.5-2.9,9.5-2.9h0.4v5H783.4z"/>
					<path id="形状_31_" class="st1" d="M795.3,180.8v6.9h-5.7v-6.9H795.3z M789.9,193.5h5.2v35h-5.2V193.5z"/>
					<path id="路径_50_" class="st1" d="M820.4,224.3c2.2,0,4.2-0.6,6-1.9c1.7-1.3,3-2.9,3.8-4.9h5.7c-1.1,3.5-3,6.2-5.9,8.3
						c-3,2.1-6.5,3.2-10.6,3.2c-5.1,0-9.3-1.8-12.5-5.2c-3.1-3.4-4.7-7.7-4.7-12.8s1.6-9.4,4.7-12.8c3.2-3.5,7.4-5.2,12.5-5.2
						c4.1,0,7.7,1.1,10.6,3.2c2.8,2.1,4.8,4.9,5.9,8.3h-5.7c-0.8-2-2.1-3.6-3.8-4.9c-1.7-1.3-3.7-1.9-6-1.9c-2.2,0-4.1,0.3-5.7,1
						c-1.6,0.7-2.9,1.7-4,2.9c-2.3,2.5-3.4,5.6-3.4,9.4c0,3.7,1.1,6.9,3.4,9.4C813,223,816.3,224.3,820.4,224.3z"/>
					<path id="形状_32_" class="st1" d="M847.7,180.8v6.9H842v-6.9H847.7z M842.3,193.5h5.2v35h-5.2V193.5z"/>
					<path id="形状_33_" class="st1" d="M872.2,224.3c4.7,0,8.1-2,10.1-5.9h5.7c-1.2,3.2-3.1,5.7-5.8,7.7c-2.6,2-6,2.9-10.2,2.9
						c-5.3,0-9.6-1.8-12.9-5.2c-3.2-3.4-4.8-7.7-4.8-12.8c0-5.2,1.5-9.5,4.6-12.8c3.3-3.5,7.5-5.2,12.7-5.2c5.2,0,9.5,1.8,12.7,5.2
						c3.1,3.4,4.6,7.6,4.6,12.8v2.1h-29.3c0.4,3.2,1.7,5.9,3.9,8C865.9,223.2,868.8,224.3,872.2,224.3z M871.8,197.7
						c-3.2,0-5.9,1-8.1,3c-2.1,1.9-3.3,4.4-3.8,7.5h23.8c-0.5-3.1-1.7-5.6-3.8-7.5C877.8,198.7,875,197.7,871.8,197.7z"/>
					<path id="路径_51_" class="st1" d="M900.9,193.5v5.5c1.3-1.7,2.8-3.1,4.6-4.3s3.9-1.8,6.2-1.8s4.3,0.3,6,1
						c1.7,0.7,3.2,1.6,4.4,2.9c2.9,2.8,4.3,6.6,4.3,11.3v20.4h-5.2v-20.2c0-3.2-0.9-5.8-2.7-7.7c-1.8-1.9-4.2-2.9-7.1-2.9
						c-2.9,0-5.4,1-7.5,2.9c-2.1,2-3.1,4.6-3.1,7.7v20.2h-5.2v-35H900.9z"/>
					<path id="路径_52_" class="st1" d="M951.4,224.3c2.2,0,4.2-0.6,6-1.9c1.7-1.3,3-2.9,3.8-4.9h5.7c-1.1,3.5-3,6.2-5.9,8.3
						c-3,2.1-6.5,3.2-10.6,3.2c-5.1,0-9.3-1.8-12.5-5.2c-3.1-3.4-4.7-7.7-4.7-12.8s1.6-9.4,4.7-12.8c3.2-3.5,7.4-5.2,12.5-5.2
						c4.1,0,7.7,1.1,10.6,3.2c2.8,2.1,4.8,4.9,5.9,8.3h-5.7c-0.8-2-2.1-3.6-3.8-4.9c-1.7-1.3-3.7-1.9-6-1.9c-2.2,0-4.1,0.3-5.7,1
						c-1.6,0.7-2.9,1.7-4,2.9c-2.3,2.5-3.4,5.6-3.4,9.4c0,3.7,1.1,6.9,3.4,9.4C944.1,223,947.3,224.3,951.4,224.3z"/>
					<polygon id="路径_53_" class="st1" points="982.6,242.4 976.9,242.4 983.3,228 969,193.5 974.8,193.5 986.1,222.2 
						997.6,193.5 1003.3,193.5 					"/>
				</g>
				<g transform="translate(675.000000, 2579.000000)">
					<polygon id="路径_54_" class="st2" points="43,-17.3 43,35.7 37,35.7 37,12.1 6.2,12.1 6.2,35.7 0.2,35.7 0.2,-17.3 
						6.2,-17.3 6.2,6.2 37,6.2 37,-17.3 					"/>
					<path id="形状_34_" class="st2" d="M61.2-18.9v7.8h-6.5v-7.8H61.2z M54.9-4.3h6v40h-6V-4.3z"/>
					<path id="形状_35_" class="st2" d="M103.2,2.1v-6.4h6v38.8c0,5.8-1.6,10.1-4.9,13.2c-3.3,3-7.7,4.5-13.2,4.5s-9.9-1.1-13-3.2
						s-5.2-5-6.4-8.5h6.6c1.7,4.2,5.6,6.2,11.7,6.2c4.6,0,8-1.1,10.1-3.2s3.1-5.3,3.1-9.4v-5.5c-3.3,4.7-8,7.1-14.3,7.1
						c-5.8,0-10.5-2-14.1-5.9c-3.5-3.8-5.3-8.6-5.3-14.4S71.3,4.8,74.8,1c3.6-3.9,8.5-5.9,14.5-5.9C95.3-5,100-2.6,103.2,2.1z
						 M89.7,30.2c2.2,0,4.1-0.4,5.8-1.2s3.2-1.8,4.4-3.2c2.4-2.8,3.6-6.3,3.6-10.6s-1.2-7.8-3.6-10.6c-2.6-2.9-6-4.3-10.2-4.3
						c-4.3,0-7.8,1.4-10.4,4.3c-2.5,2.8-3.8,6.3-3.8,10.6s1.3,7.7,3.8,10.6C81.9,28.8,85.3,30.2,89.7,30.2z"/>
					<path id="路径_55_" class="st2" d="M126.2-20.3V1.9c1.4-1.9,3.2-3.5,5.3-4.9c2.1-1.3,4.5-2,7.1-2c2.6,0,5,0.4,6.9,1.1
						c1.9,0.7,3.6,1.9,5,3.4c3.3,3.3,5,7.5,5,12.9v23.3h-6V12.6c0-3.7-1-6.6-3.1-8.8c-2.1-2.2-4.8-3.3-8.1-3.3
						c-3.4,0-6.2,1.1-8.6,3.4c-2.3,2.3-3.5,5.2-3.5,8.8v23h-6v-56H126.2z"/>
					<path id="形状_36_" class="st2" d="M191.1,35.7h-6v-53h23.8c5.6,0,10.1,1.5,13.4,4.6s4.9,7.2,4.9,12.4s-1.6,9.4-4.9,12.4
						c-3.3,3.1-7.7,4.6-13.3,4.6h-17.8L191.1,35.7L191.1,35.7z M191.1-11.6v22.8h17.4c4.2,0,7.3-1,9.4-3c2.1-2,3.2-4.8,3.2-8.4
						c0-3.5-1.1-6.3-3.2-8.4c-2.1-2-5.3-3-9.4-3H191.1z"/>
					<path id="形状_37_" class="st2" d="M252,30.9c5.4,0,9.3-2.2,11.6-6.7h6.6c-1.4,3.6-3.6,6.6-6.6,8.8s-6.9,3.4-11.6,3.4
						c-6,0-10.9-2-14.7-6c-3.7-3.9-5.5-8.8-5.5-14.6c0-5.9,1.8-10.8,5.3-14.6c3.7-4,8.6-6,14.6-6c6,0,10.8,2,14.6,6
						c3.5,3.8,5.3,8.7,5.3,14.6v2.4h-33.5c0.4,3.7,1.9,6.7,4.4,9.1C244.8,29.7,248.1,30.9,252,30.9z M251.6,0.5
						c-3.7,0-6.8,1.1-9.3,3.4c-2.3,2.2-3.8,5-4.3,8.6h27.2c-0.5-3.5-2-6.4-4.3-8.6C258.3,1.6,255.2,0.5,251.6,0.5z"/>
					<path id="路径_56_" class="st2" d="M300.5-5v6h-0.7c-4.3,0-7.8,1.7-10.6,5.2c-2.6,3.3-3.8,7.3-3.8,11.8v17.6h-6v-40h6v9.8
						c1.3-4.2,4.1-7.2,8.3-9.2c1.8-0.9,3.9-1.3,6.4-1.3h0.4V-5z"/>
					<path id="路径_57_" class="st2" d="M324.8-15.3c-2.8,0-4.9,0.6-6.4,1.9c-1.4,1.3-2.1,3.3-2.1,6v3h9.3v5.3h-9.3v34.7h-6V1
						h-6.9v-5.3h6.9v-3.5c0-4.4,1.3-7.7,3.9-9.8c2.6-2.2,6.2-3.3,10.9-3.3h0.5v5.7h-0.8V-15.3z"/>
					<path id="形状_38_" class="st2" d="M349.4-5c6,0,10.8,2,14.6,6c3.5,3.8,5.3,8.7,5.3,14.6s-1.8,10.8-5.3,14.6
						c-3.7,4-8.6,6-14.6,6s-10.8-2-14.6-6c-3.5-3.8-5.3-8.7-5.3-14.6s1.8-10.8,5.3-14.6C338.6-3,343.4-5,349.4-5z M349.4,30.9
						c4.3,0,7.7-1.5,10.2-4.5c2.4-2.8,3.6-6.4,3.6-10.7S362,7.8,359.6,5c-2.5-3-5.9-4.5-10.2-4.5c-4.3,0-7.7,1.5-10.2,4.5
						c-2.4,2.8-3.6,6.4-3.6,10.7s1.2,7.9,3.6,10.7C341.7,29.4,345.1,30.9,349.4,30.9z"/>
					<path id="路径_58_" class="st2" d="M398.9-5v6h-0.7c-4.3,0-7.8,1.7-10.6,5.2c-2.6,3.3-3.8,7.3-3.8,11.8v17.6h-6v-40h6v9.8
						c1.3-4.2,4.1-7.2,8.3-9.2c1.8-0.9,3.9-1.3,6.4-1.3h0.4V-5z"/>
					<path id="路径_59_" class="st2" d="M412,1.8c2.7-4.5,6.7-6.7,12.2-6.7c2.7,0,5.1,0.7,7.4,2.1c2.3,1.4,4,3.4,5.3,6
						c1.8-3.4,4.6-5.8,8.5-7.2c1.5-0.6,3.3-0.9,5.2-0.9s3.8,0.4,5.6,1.2c1.8,0.8,3.4,1.9,4.8,3.3c3,3.2,4.5,7.2,4.5,12v24.2h-6v-24
						c0-3.3-0.9-6-2.8-8.2c-1.9-2-4.2-3-7.1-3c-3,0-5.6,1-7.6,3c-2.1,2-3.2,4.8-3.2,8.3v23.9h-6v-24c0-3.3-0.9-6-2.8-8.2
						c-1.9-2-4.2-3-7.1-3c-3,0-5.6,1-7.6,3c-2.1,2-3.2,4.8-3.2,8.3v23.9h-6v-40h6v6H412z"/>
					<path id="形状_39_" class="st2" d="M507.3,29.3c-3.2,4.7-8,7-14.3,7c-5.8,0-10.5-2-14.1-6c-3.5-3.9-5.3-8.8-5.3-14.6
						s1.8-10.7,5.3-14.6c3.6-4,8.5-6,14.5-6s10.7,2.4,13.9,7.1v-6.5h6v40h-6V29.3L507.3,29.3z M493.8,30.9c4.3,0,7.7-1.5,10.2-4.5
						c2.4-2.8,3.6-6.4,3.6-10.7S506.4,7.8,504,5c-2.5-3-5.9-4.5-10.2-4.5c-4.3,0-7.7,1.5-10.4,4.5c-2.5,2.8-3.8,6.4-3.8,10.7
						s1.3,7.9,3.8,10.7C486.1,29.4,489.5,30.9,493.8,30.9z"/>
					<path id="路径_60_" class="st2" d="M530.4-4.3v6.2c1.4-1.9,3.2-3.5,5.3-4.9c2.1-1.3,4.5-2,7.1-2c2.6,0,5,0.4,6.9,1.1
						c1.9,0.7,3.6,1.9,5,3.4c3.3,3.3,5,7.5,5,12.9v23.3h-6V12.6c0-3.7-1-6.6-3.1-8.8c-2.1-2.2-4.8-3.3-8.1-3.3
						c-3.4,0-6.2,1.1-8.6,3.4c-2.3,2.3-3.5,5.2-3.5,8.8v23h-6v-40H530.4z"/>
					<path id="路径_61_" class="st2" d="M588.8,30.9c2.6,0,4.8-0.7,6.8-2.2c2-1.4,3.4-3.3,4.3-5.6h6.5c-1.2,3.9-3.5,7.1-6.7,9.5
						c-3.4,2.5-7.5,3.7-12.2,3.7c-5.9,0-10.6-2-14.3-6c-3.6-3.9-5.4-8.8-5.4-14.6c0-5.9,1.8-10.7,5.4-14.6c3.7-4,8.5-6,14.3-6
						c4.7,0,8.7,1.2,12.2,3.7c3.3,2.4,5.5,5.6,6.7,9.5h-6.5c-0.9-2.3-2.3-4.2-4.3-5.6c-2-1.4-4.2-2.2-6.8-2.2
						c-2.6,0-4.7,0.4-6.5,1.2c-1.8,0.8-3.3,1.9-4.5,3.3c-2.6,2.9-3.9,6.5-3.9,10.7c0,4.3,1.3,7.8,3.9,10.7
						C580.4,29.4,584.1,30.9,588.8,30.9z"/>
					<path id="形状_40_" class="st2" d="M632.3,30.9c5.4,0,9.3-2.2,11.6-6.7h6.6c-1.4,3.6-3.6,6.6-6.6,8.8s-6.9,3.4-11.6,3.4
						c-6,0-10.9-2-14.7-6c-3.7-3.9-5.5-8.8-5.5-14.6c0-5.9,1.8-10.8,5.3-14.6c3.7-4,8.6-6,14.6-6s10.8,2,14.6,6
						c3.5,3.8,5.3,8.7,5.3,14.6v2.4h-33.5c0.4,3.7,1.9,6.7,4.4,9.1C625.1,29.7,628.3,30.9,632.3,30.9z M631.8,0.5
						c-3.7,0-6.8,1.1-9.3,3.4c-2.3,2.2-3.8,5-4.3,8.6h27.2c-0.5-3.5-2-6.4-4.3-8.6C638.6,1.6,635.5,0.5,631.8,0.5z"/>
				</g>
			</g>
		</g>
	</g>
</g>
</svg>
