<?xml version="1.0" encoding="utf-8"?>
<!-- Generator: Adobe Illustrator 22.0.0, SVG Export Plug-In . SVG Version: 6.00 Build 0)  -->
<svg version="1.1" id="图层_1" xmlns="http://www.w3.org/2000/svg" xmlns:xlink="http://www.w3.org/1999/xlink" x="0px" y="0px"
	 viewBox="0 0 2275 497" style="enable-background:new 0 0 2275 497;" xml:space="preserve">
<style type="text/css">
	.st0{fill:#707070;}
	.st1{fill:#FFBB10;stroke:#FFBB10;stroke-width:2;}
	.st2{fill:#232323;}
</style>
<title>05</title>
<desc>Created with Sketch.</desc>
<g id="页面-1">
	<g id="Piraeus易拉宝" transform="translate(-179.000000, -3306.000000)">
		<g id="图层_2_1_" transform="translate(179.000000, 0.000000)">
			<g id="编组" transform="translate(0.000000, 277.000000)">
				<g id="cloud" transform="translate(228.000000, 3108.000000)">
					<g id="clouds-_x28_1_x29_">
						<g id="Shape_21_" transform="translate(0.951513, 0.000000)">
							<path id="路径" class="st0" d="M97.2,27.4c8.9,0,16.6,5.9,19.8,14.7l-5.9,2.2c-2.4-6.4-7.9-10.6-14-10.6
								c-1.5,0-3,0.3-4.5,0.8l-4.1,1.4v-5.3c0-13.5-9.7-24.4-21.5-24.4c-10,0-18.7,7.9-20.9,18.9l-0.7,3.6L42,27.4
								c-1.1-0.4-2.3-0.7-3.6-0.7c-3.8,0-7.3,2.1-9.5,5.7l-1.2,2l-2.2-0.6c-1.3-0.3-2.6-0.5-3.8-0.5c-8.4,0-15.4,7.8-15.4,17.6
								s7,17.6,15.4,17.6h63.6v6.2H21.7C9.7,74.7,0.1,64,0.1,50.9s9.6-23.8,21.6-23.8c1.1,0,2.2,0.1,3.3,0.3
								c3.3-4.2,8.2-6.8,13.5-6.8c0.8,0,1.6,0.1,2.4,0.2C44.6,8.6,55,0.1,67.1,0.1c14.5,0,26.2,12.2,27.6,27.6
								C95.6,27.4,96.4,27.4,97.2,27.4z"/>
							<path id="形状" class="st0" d="M130.2,32.8c14.4,0,27.1,6.1,37,17.4l7.9,12.1c3.8,8.1,5.5,15.1,5.8,23.4
								c2.4-0.5,4.9-0.8,7.5-0.8c21.3,0,38.5,18.8,38.5,41.9c0,10.4-3.6,20.3-9.9,28l-2.9,3.6l-2.2-4c-3.5-6.4-9.7-10.3-16.5-10.3
								c-1.7,0-3.3,0.2-4.8,0.7l-2.2,0.6l-1.3-2c-2.8-4.4-7.2-7-12.1-7c-1.6,0-3.1,0.3-4.6,0.8l-3.4,1.3l-0.7-3.6
								c-2.8-13.4-13.6-22.9-26.1-22.9c-14.7,0-26.7,13.2-26.7,29.5c0,0.7,0,0.9,0,1.1v4.4l-4.1-1.4c-1.8-0.6-3.7-1-5.6-1
								c-10.4,0-18.9,9.3-19,21v3.1H42.2c-21.6,0-38.9-19-38.9-42.3s17.4-42.3,38.9-42.3c2.6,0,5.2,0.3,7.7,0.8c6-8.1,15-13,24.9-13
								c2.3,0,4.6,0.3,6.8,0.8C87.7,49.4,107.4,32.8,130.2,32.8z M130.2,39.1c-20.8,0-38.8,15.9-43.4,38.1l-0.7,3.5l-3.4-1.2
								c-2.6-0.9-5.3-1.4-8-1.4c-8.4,0-16.1,4.5-20.9,12l-1.3,2l-2.2-0.6c-2.6-0.7-5.3-1.1-8.2-1.1c-18,0-32.7,16-32.7,36
								s14.7,36.1,32.7,36.1h36.6c1.5-13.5,12.1-24.1,25.1-24.1c1.2,0,2.4,0.1,3.6,0.3c1.3-18.4,15.5-32.9,32.8-32.9
								c14.5,0,27,10.2,31.3,24.7c1.1-0.2,2.3-0.3,3.4-0.3c6.3,0,12.1,3,16.1,8.1c1.4-0.3,2.9-0.4,4.3-0.4c7.6,0,14.6,3.6,19.4,9.6
								c3.8-6,5.9-13.1,5.9-20.5c0-19.7-14.5-35.6-32.3-35.6c-3.3,0-6.5,0.5-9.6,1.6l-4.1,1.4V90c0-0.3,0-0.5,0-1c0-0.4,0-0.6,0-0.8
								c0-8.3-1.5-15-5.1-22.7l-7.3-11.2C153.7,44.3,142.7,39.1,130.2,39.1z"/>
							<path id="路径_1_" class="st0" d="M81.7,152.7l5.6,2.8c-1.5,3-2.4,6.6-2.4,10.2v3.1H42.3c-21.6,0-38.9-19-38.9-42.3
								s17.4-42.3,38.9-42.3c1.2,0,1.7,0,2.4,0.1l-0.5,6.2c-0.5,0-0.9,0-1.9,0c-18,0-32.7,16-32.7,36s14.7,36.1,32.7,36.1h36.6
								C79.2,159,80.2,155.7,81.7,152.7z"/>
							<path id="形状_1_" class="st0" d="M195.4,137.8c14.2,0,25.5,12.4,25.5,27.7c0,15.2-11.4,27.7-25.5,27.7h-91.5
								c-14,0-25.3-12.3-25.3-27.4c0-15.1,11.3-27.4,25.3-27.4c1.2,0,2.4,0.1,3.6,0.3c1.3-18.4,15.5-32.9,32.8-32.9
								c14.5,0,27,10.2,31.4,24.7c1.1-0.2,2.3-0.3,3.4-0.3c6.3,0,12.1,3,16.1,8.1C192.5,137.9,194,137.8,195.4,137.8z M195.4,144
								c-1.7,0-3.3,0.2-4.8,0.7l-2.2,0.6l-1.3-2c-2.8-4.4-7.2-7-12.1-7c-1.6,0-3.1,0.3-4.6,0.8l-3.4,1.3l-0.7-3.6
								c-2.8-13.4-13.5-22.9-26.1-22.9c-14.7,0-26.7,13.2-26.7,29.5c0,0.4,0,0.6,0,0.8l0.6,4.9l-4.7-1.6c-1.9-0.6-3.7-1-5.6-1
								c-10.5,0-19.1,9.4-19.1,21.2c0,11.7,8.6,21.2,19.1,21.2h91.5c10.6,0,19.3-9.6,19.3-21.4C214.7,153.6,206,144,195.4,144z"/>
						</g>
					</g>
				</g>
				<g transform="translate(671.000000, 3118.000000)">
					<path id="路径_2_" class="st1" d="M27.8,51.2c3.8,0,7.1-1,10-2.9c2.9-1.9,5-4.5,6.4-7.8h6.3c-1.8,5-4.7,9-8.7,11.8
						c-4.3,3.1-9.4,4.6-15.3,4.6c-7.7,0-14-2.6-18.8-7.9c-4.5-5.1-6.8-11.5-6.8-19.2s2.3-14.1,6.8-19.2c4.8-5.3,11.1-7.9,18.8-7.9
						c5.9,0,11,1.5,15.3,4.6c4.1,2.9,7,6.8,8.7,11.8h-6.3c-1.4-3.3-3.5-5.8-6.4-7.8c-2.9-1.9-6.2-2.9-10-2.9s-6.9,0.5-9.4,1.6
						s-4.6,2.6-6.3,4.5c-3.5,3.9-5.2,8.9-5.2,15.1s1.7,11.2,5.2,15.1C15.7,49.1,20.9,51.2,27.8,51.2z"/>
					<polygon id="路径_3_" class="st1" points="64.8,56.4 58.8,56.4 58.8,0.4 64.8,0.4 					"/>
					<path id="形状_2_" class="st1" d="M93.2,15.7c6,0,10.8,2,14.6,6c3.5,3.8,5.3,8.7,5.3,14.6s-1.8,10.8-5.3,14.6
						c-3.7,4-8.6,6-14.6,6s-10.8-2-14.6-6c-3.5-3.8-5.3-8.7-5.3-14.6s1.8-10.8,5.3-14.6C82.3,17.7,87.2,15.7,93.2,15.7z M93.2,51.6
						c4.3,0,7.7-1.5,10.2-4.5c2.4-2.8,3.6-6.4,3.6-10.7s-1.2-7.9-3.6-10.7c-2.5-3-5.9-4.5-10.2-4.5c-4.3,0-7.7,1.5-10.2,4.5
						c-2.4,2.8-3.6,6.4-3.6,10.7s1.2,7.9,3.6,10.7C85.4,50.1,88.9,51.6,93.2,51.6z"/>
					<path id="路径_4_" class="st1" d="M150.5,56.4v-6.2c-1.4,1.9-3.2,3.5-5.3,4.9c-2.1,1.3-4.5,2-7.1,2c-2.6,0-5-0.4-6.9-1.1
						c-1.9-0.7-3.6-1.9-5-3.4c-3.3-3.3-5-7.5-5-12.9V16.4h6v23.1c0,3.7,1,6.6,3.1,8.8c2.1,2.2,4.8,3.3,8.1,3.3
						c3.4,0,6.2-1.1,8.6-3.4c2.3-2.3,3.5-5.2,3.5-8.8v-23h6v40H150.5z"/>
					<path id="形状_3_" class="st1" d="M198.7,50c-3.2,4.7-8,7-14.3,7c-5.8,0-10.5-2-14.1-6c-3.5-3.9-5.3-8.8-5.3-14.6
						s1.8-10.7,5.3-14.6c3.6-4,8.5-6,14.5-6s10.7,2.4,13.9,7.1V0.4h6v56h-6V50z M185.2,51.6c4.3,0,7.7-1.5,10.2-4.5
						c2.4-2.8,3.6-6.4,3.6-10.7s-1.2-7.9-3.6-10.7c-2.5-3-5.9-4.5-10.2-4.5s-7.7,1.5-10.4,4.5c-2.5,2.8-3.8,6.4-3.8,10.7
						s1.3,7.9,3.8,10.7C177.4,50.1,180.9,51.6,185.2,51.6z"/>
					<path id="形状_4_" class="st1" d="M280.9,56.4h-6.6L267.8,41h-26.2l-6.5,15.4h-6.6l22.5-53h7.5L280.9,56.4z M265.5,35.5
						L254.7,9.7l-10.8,25.8H265.5z"/>
					<path id="形状_5_" class="st1" d="M317.5,22.8v-6.4h6v38.8c0,5.8-1.6,10.1-4.9,13.2c-3.3,3-7.7,4.5-13.2,4.5s-9.9-1.1-13-3.2
						c-3.1-2.1-5.2-5-6.4-8.5h6.6c1.7,4.2,5.6,6.2,11.7,6.2c4.6,0,8-1.1,10.1-3.2c2.1-2.1,3.1-5.3,3.1-9.4v-5.5
						c-3.3,4.7-8,7.1-14.3,7.1c-5.8,0-10.5-2-14.1-5.9c-3.5-3.8-5.3-8.6-5.3-14.4s1.8-10.6,5.3-14.4c3.6-3.9,8.5-5.9,14.5-5.9
						C309.7,15.7,314.3,18.1,317.5,22.8z M304,50.9c2.2,0,4.1-0.4,5.8-1.2c1.7-0.8,3.2-1.8,4.4-3.2c2.4-2.8,3.6-6.3,3.6-10.6
						s-1.2-7.8-3.6-10.6c-2.6-2.9-6-4.3-10.2-4.3c-4.3,0-7.8,1.4-10.4,4.3c-2.5,2.8-3.8,6.3-3.8,10.6c0,4.2,1.3,7.7,3.8,10.6
						C296.2,49.5,299.6,50.9,304,50.9z"/>
					<path id="路径_5_" class="st1" d="M340.5,16.4v6.2c1.4-1.9,3.2-3.5,5.3-4.9c2.1-1.3,4.5-2,7.1-2s5,0.4,6.9,1.1
						c1.9,0.7,3.6,1.9,5,3.4c3.3,3.3,5,7.5,5,12.9v23.3h-6V33.3c0-3.7-1-6.6-3.1-8.8c-2.1-2.2-4.8-3.3-8.1-3.3
						c-3.4,0-6.2,1.1-8.6,3.4c-2.3,2.3-3.5,5.2-3.5,8.8v23h-6v-40H340.5z"/>
					<path id="形状_6_" class="st1" d="M397.8,15.7c6,0,10.8,2,14.6,6c3.5,3.8,5.3,8.7,5.3,14.6s-1.8,10.8-5.3,14.6
						c-3.7,4-8.6,6-14.6,6s-10.8-2-14.6-6c-3.5-3.8-5.3-8.7-5.3-14.6s1.8-10.8,5.3-14.6C387,17.7,391.8,15.7,397.8,15.7z
						 M397.8,51.6c4.3,0,7.7-1.5,10.2-4.5c2.4-2.8,3.6-6.4,3.6-10.7s-1.2-7.9-3.6-10.7c-2.5-3-5.9-4.5-10.2-4.5
						c-4.3,0-7.7,1.5-10.2,4.5c-2.4,2.8-3.6,6.4-3.6,10.7s1.2,7.9,3.6,10.7C390.1,50.1,393.5,51.6,397.8,51.6z"/>
					<path id="路径_6_" class="st1" d="M449.7,27.1c-0.5-4.2-3.9-6.2-10-6.2c-6.1,0-9.2,1.9-9.2,5.8c0,1.6,0.7,2.8,2,3.6
						c1.3,0.8,2.9,1.5,4.9,2s4.1,1,6.4,1.5c2.3,0.5,4.5,1.1,6.4,1.9c2,0.8,3.6,2,4.9,3.4c1.3,1.4,2,3.4,2,5.9c0,3.9-1.5,6.9-4.4,8.9
						c-2.9,2.1-6.9,3.1-11.9,3.1c-5.3,0-9.6-1.3-12.7-4c-2.9-2.3-4.4-5.4-4.6-9.2h6.2c0.4,3.7,2.5,6.2,6.2,7.4
						c1.4,0.4,2.8,0.6,4.1,0.6s2.6-0.1,3.8-0.2c1.2-0.2,2.3-0.5,3.4-0.9c2.6-1,3.8-2.7,3.8-5.2c0-1.7-0.7-2.9-2-3.8
						c-1.3-0.9-2.9-1.6-4.9-2.2s-4.1-1.1-6.4-1.5c-2.3-0.5-4.5-1.1-6.4-1.9c-2-0.8-3.6-1.9-4.9-3.3c-1.3-1.4-2-3.3-2-5.8
						c0-3.6,1.3-6.4,4-8.4c2.6-2,6.5-3,11.7-3c4.9,0,8.8,1.2,11.6,3.5c2.3,2,3.7,4.6,4.1,7.8h-6.1V27.1z"/>
					<polygon id="路径_7_" class="st1" points="469.7,56.4 469.7,21.7 461.5,21.7 461.5,16.4 469.7,16.4 469.7,2 475.7,2 
						475.7,16.3 484.9,16.3 484.9,21.6 475.7,21.6 475.7,56.3 469.7,56.3 					"/>
					<path id="形状_7_" class="st1" d="M498.4,1.8v7.8h-6.5V1.8H498.4z M492.1,16.4h6v40h-6V16.4z"/>
					<path id="路径_8_" class="st1" d="M527.6,51.6c2.6,0,4.8-0.7,6.8-2.2c2-1.4,3.4-3.3,4.3-5.6h6.5c-1.2,3.9-3.5,7.1-6.7,9.5
						c-3.4,2.5-7.5,3.7-12.2,3.7c-5.9,0-10.6-2-14.3-6c-3.6-3.9-5.4-8.8-5.4-14.6c0-5.9,1.8-10.7,5.4-14.6c3.7-4,8.5-6,14.3-6
						c4.7,0,8.7,1.2,12.2,3.7c3.3,2.4,5.5,5.6,6.7,9.5h-6.5c-0.9-2.3-2.3-4.2-4.3-5.6s-4.2-2.2-6.8-2.2c-2.6,0-4.7,0.4-6.5,1.2
						c-1.8,0.8-3.3,1.9-4.5,3.3c-2.6,2.9-3.9,6.5-3.9,10.7c0,4.3,1.3,7.8,3.9,10.7C519.3,50.1,523,51.6,527.6,51.6z"/>
				</g>
				<g transform="translate(670.000000, 3246.000000)">
					<path id="形状_8_" class="st2" d="M9.7,50.2H4.5V3.9h20.9c4.9,0,8.8,1.4,11.7,4.1c2.8,2.7,4.3,6.3,4.3,10.8
						c0,4.6-1.4,8.2-4.3,10.9c-2.9,2.7-6.8,4-11.7,4H9.8v16.5H9.7z M9.7,8.9v19.9H25c3.6,0,6.4-0.9,8.3-2.7c1.9-1.8,2.8-4.2,2.8-7.3
						s-0.9-5.5-2.8-7.3c-1.9-1.8-4.6-2.7-8.3-2.7L9.7,8.9L9.7,8.9z"/>
					<path id="路径_9_" class="st2" d="M65.7,14.7v5.2h-0.6c-3.8,0-6.9,1.5-9.2,4.5c-2.2,2.9-3.4,6.3-3.4,10.4v15.4h-5.2v-35h5.2
						v8.6c1.1-3.6,3.5-6.3,7.3-8c1.5-0.7,3.4-1.1,5.6-1.1H65.7z"/>
					<path id="形状_9_" class="st2" d="M85.7,14.7c5.2,0,9.5,1.8,12.7,5.2c3.1,3.4,4.6,7.6,4.6,12.8s-1.5,9.5-4.6,12.8
						c-3.3,3.5-7.5,5.2-12.7,5.2c-5.2,0-9.5-1.8-12.7-5.2c-3.1-3.4-4.6-7.6-4.6-12.8s1.5-9.4,4.6-12.8
						C76.2,16.4,80.4,14.7,85.7,14.7z M85.7,46c3.8,0,6.8-1.3,9-3.9c2.1-2.5,3.1-5.6,3.1-9.4s-1-6.9-3.1-9.4c-2.2-2.6-5.2-3.9-9-3.9
						c-3.8,0-6.8,1.3-9,3.9c-2.1,2.5-3.2,5.6-3.2,9.4s1,6.9,3.2,9.4C78.9,44.7,81.9,46,85.7,46z"/>
					<polygon id="路径_10_" class="st2" points="138.8,15.2 125.2,50.2 119,50.2 105.3,15.2 111,15.2 122.1,44.6 133.1,15.2 					
						"/>
					<path id="形状_10_" class="st2" d="M149.2,2.5v6.9h-5.7V2.5H149.2z M143.7,15.2h5.2v35h-5.2V15.2z"/>
					<path id="形状_11_" class="st2" d="M185.4,44.6c-2.8,4.1-7,6.2-12.5,6.2c-5,0-9.1-1.8-12.3-5.2c-3.1-3.5-4.6-7.7-4.6-12.8
						s1.5-9.4,4.6-12.8c3.2-3.5,7.4-5.2,12.7-5.2s9.3,2.1,12.2,6.2V1.3h5.2v49h-5.2v-5.7H185.4z M173.5,46c3.8,0,6.8-1.3,9-3.9
						c2.1-2.5,3.1-5.6,3.1-9.4s-1-6.9-3.1-9.4c-2.2-2.6-5.2-3.9-9-3.9c-3.7,0-6.8,1.3-9.1,3.9c-2.2,2.5-3.3,5.6-3.3,9.4
						s1.1,6.9,3.3,9.4C166.8,44.7,169.8,46,173.5,46z"/>
					<path id="形状_12_" class="st2" d="M215.3,46c4.7,0,8.1-2,10.1-5.9h5.7c-1.2,3.2-3.1,5.7-5.8,7.7c-2.6,2-6,2.9-10.2,2.9
						c-5.3,0-9.6-1.8-12.9-5.2c-3.2-3.4-4.8-7.7-4.8-12.8c0-5.2,1.5-9.4,4.6-12.8c3.3-3.5,7.5-5.2,12.7-5.2s9.5,1.8,12.7,5.2
						c3.1,3.4,4.6,7.6,4.6,12.8v2.1h-29.3c0.4,3.2,1.7,5.9,3.9,8C209,45,211.9,46,215.3,46z M214.9,19.4c-3.2,0-5.9,1-8.1,3
						c-2.1,1.9-3.3,4.4-3.8,7.5h23.8c-0.5-3.1-1.7-5.6-3.8-7.5C220.8,20.4,218.1,19.4,214.9,19.4z"/>
					<path id="路径_11_" class="st2" d="M259.3,24.6c-0.5-3.6-3.4-5.5-8.8-5.5s-8.1,1.7-8.1,5c0,1.4,0.6,2.5,1.7,3.2
						c1.1,0.7,2.6,1.3,4.3,1.8c1.7,0.5,3.6,0.9,5.6,1.3s3.9,1,5.6,1.7c1.7,0.7,3.2,1.7,4.3,3c1.1,1.3,1.7,3,1.7,5.2
						c0,3.4-1.3,6-3.9,7.8c-2.6,1.8-6,2.7-10.4,2.7c-4.7,0-8.4-1.2-11.1-3.5c-2.5-2.1-3.9-4.7-4.1-8.1h5.5c0.3,3.2,2.1,5.4,5.5,6.5
						c1.2,0.4,2.4,0.6,3.6,0.6s2.3-0.1,3.3-0.2c1-0.1,2-0.4,3-0.8c2.2-0.9,3.4-2.4,3.4-4.5c0-1.4-0.6-2.6-1.7-3.3
						c-1.1-0.8-2.6-1.4-4.3-1.9c-1.7-0.5-3.6-0.9-5.6-1.3c-2-0.4-3.9-0.9-5.6-1.6s-3.2-1.7-4.3-2.9c-1.1-1.2-1.7-2.9-1.7-5
						c0-3.2,1.2-5.6,3.5-7.4c2.3-1.8,5.7-2.6,10.3-2.6c4.3,0,7.7,1,10.1,3.1c2.1,1.7,3.2,4,3.6,6.9h-5.4V24.6z"/>
					<path id="形状_13_" class="st2" d="M314.6,44.6c-2.8,4.1-7,6.2-12.5,6.2c-5,0-9.1-1.8-12.3-5.2c-3.1-3.5-4.6-7.7-4.6-12.8
						s1.5-9.4,4.6-12.8c3.2-3.5,7.4-5.2,12.7-5.2s9.3,2.1,12.2,6.2v-5.7h5.2v35h-5.2v-5.7H314.6z M302.8,46c3.8,0,6.8-1.3,9-3.9
						c2.1-2.5,3.1-5.6,3.1-9.4s-1-6.9-3.1-9.4c-2.2-2.6-5.2-3.9-9-3.9c-3.7,0-6.8,1.3-9.1,3.9c-2.2,2.5-3.3,5.6-3.3,9.4
						s1.1,6.9,3.3,9.4C296,44.7,299.1,46,302.8,46z"/>
					<path id="路径_12_" class="st2" d="M369.2,50.2v-5.5c-1.3,1.7-2.8,3.1-4.6,4.3c-1.8,1.2-3.9,1.8-6.2,1.8c-2.3,0-4.3-0.3-6-1
						c-1.7-0.7-3.2-1.6-4.4-2.9c-2.9-2.8-4.3-6.6-4.3-11.3V15.2h5.2v20.2c0,3.2,0.9,5.8,2.7,7.7c1.8,1.9,4.2,2.9,7.1,2.9
						c2.9,0,5.4-1,7.5-2.9c2.1-2,3.1-4.6,3.1-7.7V15.2h5.2v35H369.2z"/>
					<path id="路径_13_" class="st2" d="M388.8,15.2v5.5c1.3-1.7,2.8-3.1,4.6-4.3c1.8-1.2,3.9-1.8,6.2-1.8c2.3,0,4.3,0.3,6,1
						c1.7,0.7,3.2,1.6,4.4,2.9c2.9,2.8,4.3,6.6,4.3,11.3v20.4h-5.2V30c0-3.2-0.9-5.8-2.7-7.7c-1.8-1.9-4.2-2.9-7.1-2.9
						c-2.9,0-5.4,1-7.5,2.9c-2.1,2-3.1,4.6-3.1,7.7v20.2h-5.2v-35H388.8z"/>
					<path id="形状_14_" class="st2" d="M428.6,2.5v6.9h-5.7V2.5H428.6z M423.1,15.2h5.2v35h-5.2V15.2z"/>
					<path id="路径_14_" class="st2" d="M452.5,5.6c-2.5,0-4.3,0.5-5.6,1.6c-1.2,1.1-1.9,2.9-1.9,5.3v2.7h8.1v4.6H445v30.4h-5.2
						V19.8h-6v-4.6h6v-3.1c0-3.8,1.1-6.7,3.4-8.6c2.3-1.9,5.5-2.9,9.5-2.9h0.4v5H452.5z"/>
					<path id="形状_15_" class="st2" d="M464.4,2.5v6.9h-5.7V2.5H464.4z M459,15.2h5.2v35H459V15.2z"/>
					<path id="形状_16_" class="st2" d="M488.9,46c4.7,0,8.1-2,10.1-5.9h5.7c-1.2,3.2-3.1,5.7-5.8,7.7c-2.6,2-6,2.9-10.2,2.9
						c-5.3,0-9.6-1.8-12.9-5.2c-3.2-3.4-4.8-7.7-4.8-12.8c0-5.2,1.5-9.4,4.6-12.8c3.3-3.5,7.5-5.2,12.7-5.2c5.2,0,9.5,1.8,12.7,5.2
						c3.1,3.4,4.6,7.6,4.6,12.8v2.1h-29.3c0.4,3.2,1.7,5.9,3.9,8C482.6,45,485.5,46,488.9,46z M488.5,19.4c-3.2,0-5.9,1-8.1,3
						c-2.1,1.9-3.3,4.4-3.8,7.5h23.8c-0.5-3.1-1.7-5.6-3.8-7.5C494.4,20.4,491.7,19.4,488.5,19.4z"/>
					<path id="形状_17_" class="st2" d="M539.6,44.6c-2.8,4.1-7,6.2-12.5,6.2c-5,0-9.1-1.8-12.3-5.2c-3.1-3.5-4.6-7.7-4.6-12.8
						s1.5-9.4,4.6-12.8c3.2-3.5,7.4-5.2,12.7-5.2s9.3,2.1,12.2,6.2V1.3h5.2v49h-5.2v-5.7H539.6z M527.8,46c3.8,0,6.8-1.3,9-3.9
						c2.1-2.5,3.1-5.6,3.1-9.4s-1-6.9-3.1-9.4c-2.2-2.6-5.2-3.9-9-3.9c-3.7,0-6.8,1.3-9.1,3.9c-2.2,2.5-3.3,5.6-3.3,9.4
						s1.1,6.9,3.3,9.4C521,44.7,524,46,527.8,46z"/>
					<path id="形状_18_" class="st2" d="M596.2,44.6c-2.8,4.1-7,6.2-12.5,6.2c-5,0-9.1-1.8-12.3-5.2c-3.1-3.5-4.6-7.7-4.6-12.8
						s1.5-9.4,4.6-12.8c3.2-3.5,7.4-5.2,12.7-5.2c5.3,0,9.3,2.1,12.2,6.2V1.3h5.2v49h-5.2L596.2,44.6L596.2,44.6z M584.3,46
						c3.8,0,6.8-1.3,9-3.9c2.1-2.5,3.1-5.6,3.1-9.4s-1-6.9-3.1-9.4c-2.2-2.6-5.2-3.9-9-3.9c-3.7,0-6.8,1.3-9.1,3.9
						c-2.2,2.5-3.3,5.6-3.3,9.4s1.1,6.9,3.3,9.4C577.6,44.7,580.6,46,584.3,46z"/>
					<path id="形状_19_" class="st2" d="M637.8,44.6c-2.8,4.1-7,6.2-12.5,6.2c-5,0-9.1-1.8-12.3-5.2c-3.1-3.5-4.6-7.7-4.6-12.8
						s1.5-9.4,4.6-12.8c3.2-3.5,7.4-5.2,12.7-5.2s9.3,2.1,12.2,6.2v-5.7h5.2v35h-5.2v-5.7H637.8z M626,46c3.8,0,6.8-1.3,9-3.9
						c2.1-2.5,3.1-5.6,3.1-9.4s-1-6.9-3.1-9.4c-2.2-2.6-5.2-3.9-9-3.9c-3.7,0-6.8,1.3-9.1,3.9c-2.2,2.5-3.3,5.6-3.3,9.4
						s1.1,6.9,3.3,9.4C619.2,44.7,622.3,46,626,46z"/>
					<polygon id="路径_15_" class="st2" points="656,50.2 656,19.8 648.9,19.8 648.9,15.2 656,15.2 656,2.7 661.2,2.7 661.2,15.2 
						669.2,15.2 669.2,19.8 661.2,19.8 661.2,50.2 					"/>
					<path id="形状_20_" class="st2" d="M701.6,44.6c-2.8,4.1-7,6.2-12.5,6.2c-5,0-9.1-1.8-12.3-5.2c-3.1-3.5-4.6-7.7-4.6-12.8
						s1.5-9.4,4.6-12.8c3.2-3.5,7.4-5.2,12.7-5.2s9.3,2.1,12.2,6.2v-5.7h5.2v35h-5.2v-5.7H701.6z M689.8,46c3.8,0,6.8-1.3,9-3.9
						c2.1-2.5,3.1-5.6,3.1-9.4s-1-6.9-3.1-9.4c-2.2-2.6-5.2-3.9-9-3.9c-3.7,0-6.8,1.3-9.1,3.9c-2.2,2.5-3.3,5.6-3.3,9.4
						s1.1,6.9,3.3,9.4C683,44.7,686,46,689.8,46z"/>
					<path id="形状_21_" class="st2" d="M758.2,44.6c-2.8,4.1-7,6.2-12.5,6.2c-5,0-9.1-1.8-12.3-5.2c-3.1-3.5-4.6-7.7-4.6-12.8
						s1.5-9.4,4.6-12.8c3.2-3.5,7.4-5.2,12.7-5.2c5.3,0,9.3,2.1,12.2,6.2V1.3h5.2v49h-5.2L758.2,44.6L758.2,44.6z M746.3,46
						c3.8,0,6.8-1.3,9-3.9c2.1-2.5,3.1-5.6,3.1-9.4s-1-6.9-3.1-9.4c-2.2-2.6-5.2-3.9-9-3.9c-3.7,0-6.8,1.3-9.1,3.9
						c-2.2,2.5-3.3,5.6-3.3,9.4s1.1,6.9,3.3,9.4C739.6,44.7,742.6,46,746.3,46z"/>
					<path id="形状_22_" class="st2" d="M799.8,44.6c-2.8,4.1-7,6.2-12.5,6.2c-5,0-9.1-1.8-12.3-5.2c-3.1-3.5-4.6-7.7-4.6-12.8
						s1.5-9.4,4.6-12.8c3.2-3.5,7.4-5.2,12.7-5.2s9.3,2.1,12.2,6.2v-5.7h5.2v35h-5.2v-5.7H799.8z M788,46c3.8,0,6.8-1.3,9-3.9
						c2.1-2.5,3.1-5.6,3.1-9.4s-1-6.9-3.1-9.4c-2.2-2.6-5.2-3.9-9-3.9c-3.7,0-6.8,1.3-9.1,3.9c-2.2,2.5-3.3,5.6-3.3,9.4
						s1.1,6.9,3.3,9.4C781.2,44.7,784.2,46,788,46z"/>
					<polygon id="路径_16_" class="st2" points="817.9,50.2 817.9,19.8 810.8,19.8 810.8,15.2 817.9,15.2 817.9,2.7 823.1,2.7 
						823.1,15.2 831.1,15.2 831.1,19.8 823.1,19.8 823.1,50.2 					"/>
					<path id="形状_23_" class="st2" d="M863.6,44.6c-2.8,4.1-7,6.2-12.5,6.2c-5,0-9.1-1.8-12.3-5.2c-3.1-3.5-4.6-7.7-4.6-12.8
						s1.5-9.4,4.6-12.8c3.2-3.5,7.4-5.2,12.7-5.2s9.3,2.1,12.2,6.2v-5.7h5.2v35h-5.2v-5.7H863.6z M851.7,46c3.8,0,6.8-1.3,9-3.9
						c2.1-2.5,3.1-5.6,3.1-9.4s-1-6.9-3.1-9.4c-2.2-2.6-5.2-3.9-9-3.9c-3.7,0-6.8,1.3-9.1,3.9c-2.2,2.5-3.3,5.6-3.3,9.4
						s1.1,6.9,3.3,9.4C845,44.7,848,46,851.7,46z"/>
					<path id="路径_17_" class="st2" d="M898.5,24.6c-0.5-3.6-3.4-5.5-8.8-5.5c-5.4,0-8.1,1.7-8.1,5c0,1.4,0.6,2.5,1.7,3.2
						c1.1,0.7,2.6,1.3,4.3,1.8c1.7,0.5,3.6,0.9,5.6,1.3s3.9,1,5.6,1.7c1.7,0.7,3.2,1.7,4.3,3c1.1,1.3,1.7,3,1.7,5.2
						c0,3.4-1.3,6-3.9,7.8c-2.6,1.8-6,2.7-10.4,2.7c-4.7,0-8.4-1.2-11.1-3.5c-2.5-2.1-3.9-4.7-4.1-8.1h5.5c0.3,3.2,2.1,5.4,5.5,6.5
						c1.2,0.4,2.4,0.6,3.6,0.6c1.2,0,2.3-0.1,3.3-0.2c1-0.1,2-0.4,3-0.8c2.2-0.9,3.4-2.4,3.4-4.5c0-1.4-0.6-2.6-1.7-3.3
						c-1.1-0.8-2.6-1.4-4.3-1.9c-1.7-0.5-3.6-0.9-5.6-1.3c-2-0.4-3.9-0.9-5.6-1.6c-1.7-0.7-3.2-1.7-4.3-2.9c-1.1-1.2-1.7-2.9-1.7-5
						c0-3.2,1.2-5.6,3.5-7.4c2.3-1.8,5.7-2.6,10.3-2.6c4.3,0,7.7,1,10.1,3.1c2.1,1.7,3.2,4,3.6,6.9h-5.4V24.6z"/>
					<polygon id="路径_18_" class="st2" points="915.4,50.2 915.4,19.8 908.3,19.8 908.3,15.2 915.4,15.2 915.4,2.7 920.6,2.7 
						920.6,15.2 928.6,15.2 928.6,19.8 920.6,19.8 920.6,50.2 					"/>
					<path id="形状_24_" class="st2" d="M949,14.7c5.2,0,9.5,1.8,12.7,5.2c3.1,3.4,4.6,7.6,4.6,12.8s-1.5,9.5-4.6,12.8
						c-3.3,3.5-7.5,5.2-12.7,5.2s-9.5-1.8-12.7-5.2c-3.1-3.4-4.6-7.6-4.6-12.8s1.5-9.4,4.6-12.8C939.5,16.4,943.7,14.7,949,14.7z
						 M949,46c3.8,0,6.8-1.3,9-3.9c2.1-2.5,3.1-5.6,3.1-9.4s-1-6.9-3.1-9.4c-2.2-2.6-5.2-3.9-9-3.9s-6.8,1.3-9,3.9
						c-2.1,2.5-3.2,5.6-3.2,9.4s1,6.9,3.2,9.4C942.2,44.7,945.2,46,949,46z"/>
					<path id="路径_19_" class="st2" d="M991.7,14.7v5.2h-0.6c-3.8,0-6.9,1.5-9.2,4.5c-2.2,2.9-3.4,6.3-3.4,10.4v15.4h-5.2v-35
						h5.2v8.6c1.1-3.6,3.5-6.3,7.3-8c1.5-0.7,3.4-1.1,5.6-1.1H991.7z"/>
					<path id="形状_25_" class="st2" d="M1012.1,46c4.7,0,8.1-2,10.1-5.9h5.7c-1.2,3.2-3.1,5.7-5.8,7.7c-2.6,2-6,2.9-10.2,2.9
						c-5.3,0-9.6-1.8-12.9-5.2c-3.2-3.4-4.8-7.7-4.8-12.8c0-5.2,1.5-9.4,4.6-12.8c3.3-3.5,7.5-5.2,12.7-5.2s9.5,1.8,12.7,5.2
						c3.1,3.4,4.6,7.6,4.6,12.8v2.1h-29.3c0.4,3.2,1.7,5.9,3.9,8C1005.8,45,1008.7,46,1012.1,46z M1011.7,19.4c-3.2,0-5.9,1-8.1,3
						c-2.1,1.9-3.3,4.4-3.8,7.5h23.8c-0.5-3.1-1.7-5.6-3.8-7.5C1017.6,20.4,1014.9,19.4,1011.7,19.4z"/>
					<path id="形状_26_" class="st2" d="M1077.7,44.6c-2.8,4.1-7,6.2-12.5,6.2c-5,0-9.1-1.8-12.3-5.2c-3.1-3.5-4.6-7.7-4.6-12.8
						s1.5-9.4,4.6-12.8c3.2-3.5,7.4-5.2,12.7-5.2c5.3,0,9.3,2.1,12.2,6.2v-5.7h5.2v35h-5.2v-5.7H1077.7z M1065.9,46
						c3.8,0,6.8-1.3,9-3.9c2.1-2.5,3.1-5.6,3.1-9.4s-1-6.9-3.1-9.4c-2.2-2.6-5.2-3.9-9-3.9c-3.7,0-6.8,1.3-9.1,3.9
						c-2.2,2.5-3.3,5.6-3.3,9.4s1.1,6.9,3.3,9.4C1059.1,44.7,1062.1,46,1065.9,46z"/>
					<path id="路径_20_" class="st2" d="M1108.2,46c2.2,0,4.2-0.6,6-1.9c1.7-1.3,3-2.9,3.8-4.9h5.7c-1.1,3.5-3,6.2-5.9,8.3
						c-3,2.1-6.5,3.2-10.6,3.2c-5.1,0-9.3-1.8-12.5-5.2c-3.1-3.4-4.7-7.7-4.7-12.8s1.6-9.4,4.7-12.8c3.2-3.5,7.4-5.2,12.5-5.2
						c4.1,0,7.7,1.1,10.6,3.2c2.8,2.1,4.8,4.9,5.9,8.3h-5.7c-0.8-2-2.1-3.6-3.8-4.9c-1.7-1.3-3.7-1.9-6-1.9c-2.2,0-4.1,0.3-5.7,1
						c-1.6,0.7-2.9,1.7-4,2.9c-2.3,2.5-3.4,5.6-3.4,9.4c0,3.7,1.1,6.9,3.4,9.4C1100.9,44.7,1104.1,46,1108.2,46z"/>
					<path id="路径_21_" class="st2" d="M1148.6,14.7v5.2h-0.6c-3.8,0-6.9,1.5-9.2,4.5c-2.2,2.9-3.4,6.3-3.4,10.4v15.4h-5.2v-35
						h5.2v8.6c1.1-3.6,3.5-6.3,7.3-8c1.5-0.7,3.4-1.1,5.6-1.1H1148.6z"/>
					<path id="形状_27_" class="st2" d="M1168.6,14.7c5.2,0,9.5,1.8,12.7,5.2c3.1,3.4,4.6,7.6,4.6,12.8s-1.5,9.5-4.6,12.8
						c-3.3,3.5-7.5,5.2-12.7,5.2c-5.2,0-9.5-1.8-12.7-5.2c-3.1-3.4-4.6-7.6-4.6-12.8s1.5-9.4,4.6-12.8
						C1159.1,16.4,1163.3,14.7,1168.6,14.7z M1168.6,46c3.8,0,6.8-1.3,9-3.9c2.1-2.5,3.1-5.6,3.1-9.4s-1-6.9-3.1-9.4
						c-2.2-2.6-5.2-3.9-9-3.9c-3.8,0-6.8,1.3-9,3.9c-2.1,2.5-3.2,5.6-3.2,9.4s1,6.9,3.2,9.4C1161.8,44.7,1164.8,46,1168.6,46z"/>
					<path id="路径_22_" class="st2" d="M1213.4,24.6c-0.5-3.6-3.4-5.5-8.8-5.5s-8.1,1.7-8.1,5c0,1.4,0.6,2.5,1.7,3.2
						c1.1,0.7,2.6,1.3,4.3,1.8s3.6,0.9,5.6,1.3s3.9,1,5.6,1.7c1.7,0.7,3.2,1.7,4.3,3c1.1,1.3,1.7,3,1.7,5.2c0,3.4-1.3,6-3.9,7.8
						c-2.6,1.8-6,2.7-10.4,2.7c-4.7,0-8.4-1.2-11.1-3.5c-2.5-2.1-3.9-4.7-4.1-8.1h5.5c0.3,3.2,2.1,5.4,5.5,6.5
						c1.2,0.4,2.4,0.6,3.6,0.6c1.2,0,2.3-0.1,3.3-0.2c1-0.1,2-0.4,3-0.8c2.2-0.9,3.4-2.4,3.4-4.5c0-1.4-0.6-2.6-1.7-3.3
						c-1.1-0.8-2.6-1.4-4.3-1.9s-3.6-0.9-5.6-1.3c-2-0.4-3.9-0.9-5.6-1.6c-1.7-0.7-3.2-1.7-4.3-2.9c-1.1-1.2-1.7-2.9-1.7-5
						c0-3.2,1.2-5.6,3.5-7.4c2.3-1.8,5.7-2.6,10.3-2.6c4.3,0,7.7,1,10.1,3.1c2.1,1.7,3.2,4,3.6,6.9h-5.4V24.6z"/>
					<path id="路径_23_" class="st2" d="M1247.2,24.6c-0.5-3.6-3.4-5.5-8.8-5.5s-8.1,1.7-8.1,5c0,1.4,0.6,2.5,1.7,3.2
						c1.1,0.7,2.6,1.3,4.3,1.8c1.7,0.5,3.6,0.9,5.6,1.3s3.9,1,5.6,1.7c1.7,0.7,3.2,1.7,4.3,3c1.1,1.3,1.7,3,1.7,5.2
						c0,3.4-1.3,6-3.9,7.8c-2.6,1.8-6,2.7-10.4,2.7c-4.7,0-8.4-1.2-11.1-3.5c-2.5-2.1-3.9-4.7-4.1-8.1h5.5c0.3,3.2,2.1,5.4,5.5,6.5
						c1.2,0.4,2.4,0.6,3.6,0.6c1.2,0,2.3-0.1,3.3-0.2c1-0.1,2-0.4,3-0.8c2.2-0.9,3.4-2.4,3.4-4.5c0-1.4-0.6-2.6-1.7-3.3
						c-1.1-0.8-2.6-1.4-4.3-1.9c-1.7-0.5-3.6-0.9-5.6-1.3c-2-0.4-3.9-0.9-5.6-1.6c-1.7-0.7-3.2-1.7-4.3-2.9c-1.1-1.2-1.7-2.9-1.7-5
						c0-3.2,1.2-5.6,3.5-7.4c2.3-1.8,5.7-2.6,10.3-2.6c4.3,0,7.7,1,10.1,3.1c2.1,1.7,3.2,4,3.6,6.9h-5.4V24.6z"/>
					<path id="形状_28_" class="st2" d="M1302.5,44.6c-2.8,4.1-7,6.2-12.5,6.2c-5,0-9.1-1.8-12.3-5.2c-3.1-3.5-4.6-7.7-4.6-12.8
						s1.5-9.4,4.6-12.8c3.2-3.5,7.4-5.2,12.7-5.2c5.3,0,9.3,2.1,12.2,6.2v-5.7h5.2v35h-5.2L1302.5,44.6L1302.5,44.6z M1290.7,46
						c3.8,0,6.8-1.3,9-3.9c2.1-2.5,3.1-5.6,3.1-9.4s-1-6.9-3.1-9.4c-2.2-2.6-5.2-3.9-9-3.9c-3.7,0-6.8,1.3-9.1,3.9
						c-2.2,2.5-3.3,5.6-3.3,9.4s1.1,6.9,3.3,9.4C1283.9,44.7,1287,46,1290.7,46z"/>
					<polygon id="路径_24_" class="st2" points="1322.1,50.2 1316.9,50.2 1316.9,1.2 1322.1,1.2 					"/>
					<polygon id="路径_25_" class="st2" points="1336.5,50.2 1331.3,50.2 1331.3,1.2 1336.5,1.2 					"/>
					<path id="路径_26_" class="st2" d="M23.9,124.6c-0.5-3.6-3.4-5.5-8.8-5.5s-8.1,1.7-8.1,5c0,1.4,0.6,2.5,1.7,3.2
						c1.1,0.7,2.6,1.3,4.3,1.8s3.6,0.9,5.6,1.3c2,0.4,3.9,1,5.6,1.7c1.7,0.7,3.2,1.7,4.3,3c1.1,1.3,1.7,3,1.7,5.2
						c0,3.4-1.3,6-3.9,7.8c-2.6,1.8-6,2.7-10.4,2.7c-4.7,0-8.4-1.2-11.1-3.5c-2.5-2.1-3.9-4.7-4.1-8.1h5.5c0.3,3.2,2.1,5.4,5.5,6.5
						c1.2,0.4,2.4,0.6,3.6,0.6s2.3-0.1,3.3-0.2c1-0.1,2-0.4,3-0.8c2.2-0.9,3.4-2.4,3.4-4.5c0-1.4-0.6-2.6-1.7-3.3
						c-1.1-0.8-2.6-1.4-4.3-1.9s-3.6-0.9-5.6-1.3c-2-0.4-3.9-0.9-5.6-1.6s-3.2-1.7-4.3-2.9s-1.7-2.9-1.7-5c0-3.2,1.2-5.6,3.5-7.4
						c2.3-1.8,5.7-2.6,10.3-2.6c4.3,0,7.7,1,10.1,3.1c2.1,1.7,3.2,4,3.6,6.9h-5.4V124.6z"/>
					<polygon id="路径_27_" class="st2" points="40.8,150.2 40.8,119.8 33.7,119.8 33.7,115.2 40.8,115.2 40.8,102.7 46,102.7 
						46,115.2 54,115.2 54,119.8 46,119.8 46,150.2 					"/>
					<path id="形状_29_" class="st2" d="M74.3,114.7c5.2,0,9.5,1.8,12.7,5.2c3.1,3.4,4.6,7.6,4.6,12.8s-1.5,9.5-4.6,12.8
						c-3.3,3.5-7.5,5.2-12.7,5.2c-5.2,0-9.5-1.8-12.7-5.2c-3.1-3.4-4.6-7.6-4.6-12.8s1.5-9.4,4.6-12.8
						C64.9,116.4,69.1,114.7,74.3,114.7z M74.3,146c3.8,0,6.8-1.3,9-3.9c2.1-2.5,3.1-5.6,3.1-9.4s-1-6.9-3.1-9.4
						c-2.2-2.6-5.2-3.9-9-3.9c-3.8,0-6.8,1.3-9,3.9c-2.1,2.5-3.2,5.6-3.2,9.4s1,6.9,3.2,9.4C67.6,144.7,70.6,146,74.3,146z"/>
					<path id="路径_28_" class="st2" d="M117.1,114.7v5.2h-0.6c-3.8,0-6.9,1.5-9.2,4.5c-2.2,2.9-3.4,6.3-3.4,10.4v15.4h-5.2v-35
						h5.2v8.6c1.1-3.6,3.5-6.3,7.3-8c1.5-0.7,3.4-1.1,5.6-1.1H117.1z"/>
					<path id="形状_30_" class="st2" d="M149.2,144.6c-2.8,4.1-7,6.2-12.5,6.2c-5,0-9.1-1.8-12.3-5.2c-3.1-3.5-4.6-7.7-4.6-12.8
						c0-5.1,1.5-9.4,4.6-12.8c3.2-3.5,7.4-5.2,12.7-5.2c5.3,0,9.3,2.1,12.2,6.2v-5.7h5.2v35h-5.2v-5.7H149.2z M137.3,146
						c3.8,0,6.8-1.3,9-3.9c2.1-2.5,3.1-5.6,3.1-9.4s-1-6.9-3.1-9.4c-2.2-2.6-5.2-3.9-9-3.9c-3.7,0-6.8,1.3-9.1,3.9
						c-2.2,2.5-3.3,5.6-3.3,9.4s1.1,6.9,3.3,9.4C130.6,144.7,133.6,146,137.3,146z"/>
					<path id="形状_31_" class="st2" d="M190.8,120.8v-5.6h5.2v34c0,5-1.4,8.9-4.3,11.5c-2.9,2.6-6.7,4-11.6,4
						c-4.9,0-8.6-0.9-11.4-2.8c-2.7-1.9-4.6-4.3-5.6-7.4h5.8c1.5,3.6,4.9,5.5,10.2,5.5c4.1,0,7-0.9,8.8-2.8c1.8-1.9,2.7-4.6,2.7-8.3
						v-4.8c-2.8,4.2-7,6.2-12.5,6.2c-5,0-9.1-1.7-12.3-5.2c-3.1-3.4-4.6-7.6-4.6-12.6s1.5-9.2,4.6-12.6c3.2-3.5,7.4-5.2,12.7-5.2
						C184,114.7,188,116.7,190.8,120.8z M179,145.5c1.9,0,3.6-0.3,5.1-1s2.8-1.6,3.9-2.8c2.1-2.4,3.1-5.5,3.1-9.2s-1-6.8-3.1-9.2
						c-2.3-2.5-5.3-3.8-9-3.8c-3.8,0-6.8,1.3-9.1,3.8c-2.2,2.5-3.3,5.6-3.3,9.2c0,3.7,1.1,6.8,3.3,9.2
						C172.2,144.2,175.2,145.5,179,145.5z"/>
					<path id="形状_32_" class="st2" d="M220.8,146c4.7,0,8.1-2,10.1-5.9h5.7c-1.2,3.2-3.1,5.7-5.8,7.7c-2.6,2-6,2.9-10.2,2.9
						c-5.3,0-9.6-1.8-12.9-5.2c-3.2-3.4-4.8-7.7-4.8-12.8c0-5.2,1.5-9.4,4.6-12.8c3.3-3.5,7.5-5.2,12.7-5.2s9.5,1.8,12.7,5.2
						c3.1,3.4,4.6,7.6,4.6,12.8v2.1h-29.3c0.4,3.2,1.7,5.9,3.9,8C214.5,145,217.3,146,220.8,146z M220.4,119.4c-3.2,0-5.9,1-8.1,3
						c-2.1,1.9-3.3,4.4-3.8,7.5h23.8c-0.5-3.1-1.7-5.6-3.8-7.5C226.3,120.4,223.6,119.4,220.4,119.4z"/>
					<path id="路径_29_" class="st2" d="M264.3,120.5c2.3-3.9,5.9-5.9,10.6-5.9c2.3,0,4.5,0.6,6.5,1.9c2,1.2,3.5,3,4.7,5.2
						c1.6-2.9,4.1-5,7.4-6.3c1.4-0.5,2.9-0.8,4.6-0.8c1.7,0,3.3,0.3,4.9,1c1.6,0.7,3,1.6,4.2,2.9c2.6,2.8,3.9,6.3,3.9,10.5v21.1
						h-5.2v-21c0-2.9-0.8-5.3-2.4-7.1s-3.7-2.7-6.2-2.7c-2.7,0-4.9,0.9-6.6,2.6c-1.9,1.8-2.8,4.2-2.8,7.3v20.9h-5.2v-21
						c0-2.9-0.8-5.3-2.4-7.1c-1.6-1.8-3.7-2.7-6.2-2.7c-2.7,0-4.9,0.9-6.7,2.6c-1.9,1.8-2.8,4.2-2.8,7.3v20.9h-5.2v-35h5.2v5.4
						H264.3z"/>
					<path id="形状_33_" class="st2" d="M335.4,146c4.7,0,8.1-2,10.1-5.9h5.7c-1.2,3.2-3.1,5.7-5.8,7.7c-2.6,2-6,2.9-10.2,2.9
						c-5.3,0-9.6-1.8-12.9-5.2c-3.2-3.4-4.8-7.7-4.8-12.8c0-5.2,1.5-9.4,4.6-12.8c3.3-3.5,7.5-5.2,12.7-5.2c5.2,0,9.5,1.8,12.7,5.2
						c3.1,3.4,4.6,7.6,4.6,12.8v2.1H323c0.4,3.2,1.7,5.9,3.9,8C329.1,145,332,146,335.4,146z M335,119.4c-3.2,0-5.9,1-8.1,3
						c-2.1,1.9-3.3,4.4-3.8,7.5h23.8c-0.5-3.1-1.7-5.6-3.8-7.5C340.9,120.4,338.2,119.4,335,119.4z"/>
					<path id="形状_34_" class="st2" d="M386.1,144.6c-2.8,4.1-7,6.2-12.5,6.2c-5,0-9.1-1.8-12.3-5.2c-3.1-3.5-4.6-7.7-4.6-12.8
						c0-5.1,1.5-9.4,4.6-12.8c3.2-3.5,7.4-5.2,12.7-5.2s9.3,2.1,12.2,6.2v-19.7h5.2v49h-5.2v-5.7H386.1z M374.3,146
						c3.8,0,6.8-1.3,9-3.9c2.1-2.5,3.1-5.6,3.1-9.4s-1-6.9-3.1-9.4c-2.2-2.6-5.2-3.9-9-3.9c-3.7,0-6.8,1.3-9.1,3.9
						c-2.2,2.5-3.3,5.6-3.3,9.4s1.1,6.9,3.3,9.4C367.5,144.7,370.5,146,374.3,146z"/>
					<path id="形状_35_" class="st2" d="M405.9,102.5v6.9h-5.7v-6.9H405.9z M400.5,115.2h5.2v35h-5.2V115.2z"/>
					<path id="形状_36_" class="st2" d="M442.1,144.6c-2.8,4.1-7,6.2-12.5,6.2c-5,0-9.1-1.8-12.3-5.2c-3.1-3.5-4.6-7.7-4.6-12.8
						c0-5.1,1.5-9.4,4.6-12.8c3.2-3.5,7.4-5.2,12.7-5.2s9.3,2.1,12.2,6.2v-5.7h5.2v35h-5.2v-5.7H442.1z M430.3,146
						c3.8,0,6.8-1.3,9-3.9c2.1-2.5,3.1-5.6,3.1-9.4s-1-6.9-3.1-9.4c-2.2-2.6-5.2-3.9-9-3.9c-3.7,0-6.8,1.3-9.1,3.9
						c-2.2,2.5-3.3,5.6-3.3,9.4s1.1,6.9,3.3,9.4C423.5,144.7,426.5,146,430.3,146z"/>
					<path id="形状_37_" class="st2" d="M462.4,115.2v7.1h-6.8v-7.1H462.4z M462.4,143.1v7.1h-6.8v-7.1H462.4z"/>
					<path id="形状_38_" class="st2" d="M491.9,150.2h-5.2v-46.3h22.2c4.7,0,8.5,1.3,11.3,3.9c2.8,2.6,4.3,6.1,4.3,10.6
						c0,5.8-2.4,9.7-7.2,11.8c-1.4,0.6-2.7,1-4,1.3l12.2,18.7h-6.2l-11.2-17.8H492v17.8H491.9z M491.9,127.5h16
						c4.9,0,8.4-1.5,10.2-4.6c0.7-1.2,1-2.7,1-4.5c0-2.9-1-5.3-3-7c-2-1.7-4.7-2.6-8-2.6h-16.3v18.7H491.9z"/>
					<path id="形状_39_" class="st2" d="M574,150.2h-5.8l-5.7-13.4h-23l-5.7,13.4H528l19.7-46.3h6.6L574,150.2z M560.5,132
						l-9.5-22.6l-9.5,22.6H560.5z"/>
					<polygon id="路径_30_" class="st2" points="585.1,150.2 579.9,150.2 579.9,103.9 585.1,103.9 					"/>
					<path id="形状_40_" class="st2" d="M616,103.9c2.8,0,5.4,0.5,8,1.6s4.8,2.6,6.8,4.6c4.3,4.4,6.5,10.1,6.5,17
						s-2.2,12.6-6.5,17c-2,2-4.2,3.5-6.8,4.6c-2.6,1-5.2,1.6-8,1.6h-19.5V104L616,103.9L616,103.9z M615.8,145.3
						c4.9,0,8.8-1.8,11.8-5.4c2.9-3.5,4.4-7.7,4.4-12.8s-1.5-9.4-4.4-12.8c-3-3.6-7-5.4-11.8-5.4h-14.1v36.4H615.8L615.8,145.3z"/>
					<polygon id="路径_31_" class="st2" points="644.2,144.6 651.1,144.6 644.9,159.5 640.1,159.5 					"/>
					<path id="路径_32_" class="st2" d="M680.7,111c-0.9,0.8-1.5,1.6-1.8,2.6c-0.3,0.9-0.5,1.9-0.5,3s0.5,2,1.4,2.9
						c0.9,0.9,2.1,1.6,3.6,2.2c1.5,0.6,3.2,1.1,5.1,1.6s3.9,0.9,5.8,1.4c2,0.5,3.9,1,5.8,1.7c1.9,0.6,3.6,1.4,5.1,2.4
						c3.3,2.1,5,5,5,8.6c0,4.3-1.6,7.7-4.9,9.9c-3.2,2.3-7.7,3.4-13.5,3.4c-6.5,0-11.4-1.4-14.8-4.1c-3-2.4-4.8-5.9-5.2-10.4h5.5
						c0.2,3.2,1.7,5.6,4.6,7.3c2.5,1.4,5.9,2.2,10,2.2c8.7,0,13-2.7,13-8.2c0-1.9-0.8-3.3-2.3-4.4c-1.6-1.1-3.5-2-5.9-2.7
						c-2.4-0.7-4.9-1.4-7.6-2c-2.7-0.6-5.3-1.4-7.6-2.3c-2.4-1-4.3-2.2-5.9-3.8c-1.6-1.6-2.3-3.7-2.3-6.3c0-3.8,1.4-6.9,4.3-9.2
						c2.9-2.4,7.3-3.6,13.1-3.6c5.9,0,10.4,1.4,13.6,4.1c2.9,2.4,4.5,5.4,4.7,9.2h-5.4c-0.5-3.8-2.9-6.4-7.4-7.6
						c-1.6-0.5-3.6-0.7-5.9-0.7s-4.3,0.3-5.9,0.8C682.8,109.6,681.5,110.2,680.7,111z"/>
					<path id="形状_41_" class="st2" d="M758.9,150.2h-5.8l-5.7-13.4h-23l-5.7,13.4h-5.8l19.7-46.3h6.6L758.9,150.2z M745.3,132
						l-9.5-22.6l-9.5,22.6H745.3z"/>
					<polygon id="路径_33_" class="st2" points="804.7,103.9 804.7,150.2 798.6,150.2 770,111.1 770,150.2 764.8,150.2 
						764.8,103.9 770.9,103.9 799.5,142.9 799.5,103.9 					"/>
					<polygon id="路径_34_" class="st2" points="815.2,144.6 822.1,144.6 815.9,159.5 811.1,159.5 					"/>
					<polygon id="路径_35_" class="st2" points="886.3,103.9 886.3,150.2 880.2,150.2 851.6,111.1 851.6,150.2 846.4,150.2 
						846.4,103.9 852.5,103.9 881.1,142.9 881.1,103.9 					"/>
					<path id="形状_42_" class="st2" d="M938.1,150.2h-5.8l-5.7-13.4h-23l-5.7,13.4h-5.8l19.7-46.3h6.6L938.1,150.2z M924.6,132
						l-9.5-22.6l-9.5,22.6H924.6z"/>
					<path id="路径_36_" class="st2" d="M949.3,111c-0.9,0.8-1.5,1.6-1.8,2.6c-0.3,0.9-0.5,1.9-0.5,3s0.5,2,1.4,2.9
						c0.9,0.9,2.1,1.6,3.6,2.2c1.5,0.6,3.2,1.1,5.1,1.6c1.9,0.5,3.9,0.9,5.8,1.4c2,0.5,3.9,1,5.8,1.7c1.9,0.6,3.6,1.4,5.1,2.4
						c3.3,2.1,5,5,5,8.6c0,4.3-1.6,7.7-4.9,9.9c-3.2,2.3-7.7,3.4-13.5,3.4c-6.5,0-11.4-1.4-14.8-4.1c-3-2.4-4.8-5.9-5.2-10.4h5.5
						c0.2,3.2,1.7,5.6,4.6,7.3c2.5,1.4,5.9,2.2,10,2.2c8.7,0,13-2.7,13-8.2c0-1.9-0.8-3.3-2.3-4.4c-1.6-1.1-3.5-2-5.9-2.7
						c-2.4-0.7-4.9-1.4-7.6-2c-2.7-0.6-5.3-1.4-7.6-2.3c-2.4-1-4.3-2.2-5.9-3.8c-1.6-1.6-2.3-3.7-2.3-6.3c0-3.8,1.4-6.9,4.3-9.2
						c2.9-2.4,7.3-3.6,13.1-3.6c5.9,0,10.4,1.4,13.6,4.1c2.9,2.4,4.5,5.4,4.7,9.2h-5.4c-0.5-3.8-2.9-6.4-7.4-7.6
						c-1.6-0.5-3.6-0.7-5.9-0.7c-2.3,0-4.3,0.3-5.9,0.8C951.5,109.6,950.2,110.2,949.3,111z"/>
					<path id="形状_43_" class="st2" d="M1016,114.7c5.2,0,9.5,1.8,12.7,5.2c3.1,3.4,4.6,7.6,4.6,12.8s-1.5,9.5-4.6,12.8
						c-3.3,3.5-7.5,5.2-12.7,5.2s-9.5-1.8-12.7-5.2c-3.1-3.4-4.6-7.6-4.6-12.8s1.5-9.4,4.6-12.8
						C1006.6,116.4,1010.8,114.7,1016,114.7z M1016,146c3.8,0,6.8-1.3,9-3.9c2.1-2.5,3.1-5.6,3.1-9.4s-1-6.9-3.1-9.4
						c-2.2-2.6-5.2-3.9-9-3.9s-6.8,1.3-9,3.9c-2.1,2.5-3.2,5.6-3.2,9.4s1,6.9,3.2,9.4C1009.3,144.7,1012.2,146,1016,146z"/>
					<path id="路径_37_" class="st2" d="M1058.8,114.7v5.2h-0.6c-3.8,0-6.9,1.5-9.2,4.5c-2.2,2.9-3.4,6.3-3.4,10.4v15.4h-5.2v-35
						h5.2v8.6c1.1-3.6,3.5-6.3,7.3-8c1.5-0.7,3.4-1.1,5.6-1.1H1058.8z"/>
					<polygon id="路径_38_" class="st2" points="1085.7,108.9 1085.7,124.4 1111.5,124.4 1111.5,129.5 1085.7,129.5 1085.7,145.1 
						1114.5,145.1 1114.5,150.1 1080.4,150.1 1080.4,103.8 1114.5,103.8 1114.5,108.8 1085.7,108.8 					"/>
					<path id="形状_44_" class="st2" d="M1158.5,116.1c0,5.1-2.1,8.6-6.2,10.4c3.8,1.3,6.4,3.6,7.8,6.9c0.5,1.3,0.8,2.8,0.8,4.5
						c0,5.6-3,9.3-8.9,11.2c-2,0.7-4.3,1-6.9,1h-22v-46.3h20.8c5,0,8.8,1.4,11.4,4.1C1157.4,110.1,1158.5,112.8,1158.5,116.1z
						 M1128.3,124.6h15.5c4.3,0,7.2-1.5,8.6-4.4c0.5-1,0.8-2.1,0.8-3.3c0-1.2-0.2-2.2-0.5-3.1c-0.3-0.9-0.8-1.7-1.5-2.4
						c-1.5-1.6-3.8-2.4-6.8-2.4h-16.1V124.6z M1145.6,145.3c3.2,0,5.7-0.7,7.4-2s2.6-3.2,2.6-5.6c0-2.3-0.8-4.2-2.5-5.7
						c-1.9-1.7-4.5-2.5-8-2.5h-16.7v15.9L1145.6,145.3L1145.6,145.3z"/>
					<path id="路径_39_" class="st2" d="M1174.7,111c-0.9,0.8-1.5,1.6-1.8,2.6c-0.3,0.9-0.5,1.9-0.5,3s0.5,2,1.4,2.9
						c0.9,0.9,2.1,1.6,3.6,2.2c1.5,0.6,3.2,1.1,5.1,1.6s3.9,0.9,5.8,1.4c2,0.5,3.9,1,5.8,1.7c1.9,0.6,3.6,1.4,5.1,2.4
						c3.3,2.1,5,5,5,8.6c0,4.3-1.6,7.7-4.9,9.9c-3.2,2.3-7.7,3.4-13.5,3.4c-6.5,0-11.4-1.4-14.8-4.1c-3-2.4-4.8-5.9-5.2-10.4h5.5
						c0.2,3.2,1.7,5.6,4.6,7.3c2.5,1.4,5.9,2.2,10,2.2c8.7,0,13-2.7,13-8.2c0-1.9-0.8-3.3-2.3-4.4c-1.6-1.1-3.5-2-5.9-2.7
						c-2.4-0.7-4.9-1.4-7.6-2c-2.7-0.6-5.3-1.4-7.6-2.3c-2.4-1-4.3-2.2-5.9-3.8c-1.6-1.6-2.3-3.7-2.3-6.3c0-3.8,1.4-6.9,4.3-9.2
						c2.9-2.4,7.3-3.6,13.1-3.6c5.9,0,10.4,1.4,13.6,4.1c2.9,2.4,4.5,5.4,4.7,9.2h-5.4c-0.5-3.8-2.9-6.4-7.4-7.6
						c-1.6-0.5-3.6-0.7-5.9-0.7c-2.3,0-4.3,0.3-5.9,0.8C1176.8,109.6,1175.6,110.2,1174.7,111z"/>
				</g>
			</g>
		</g>
	</g>
</g>
</svg>
