<?xml version="1.0" encoding="utf-8"?>
<!-- Generator: Adobe Illustrator 22.0.0, SVG Export Plug-In . SVG Version: 6.00 Build 0)  -->
<svg version="1.1" id="图层_1" xmlns="http://www.w3.org/2000/svg" xmlns:xlink="http://www.w3.org/1999/xlink" x="0px" y="0px"
	 viewBox="0 0 2268 548" style="enable-background:new 0 0 2268 548;" xml:space="preserve">
<style type="text/css">
	.st0{fill:#707070;}
	.st1{fill:#FFBB10;stroke:#FFBB10;stroke-width:2;}
	.st2{fill:#232323;}
</style>
<title>06</title>
<desc>Created with Sketch.</desc>
<g id="页面-1">
	<g id="Piraeus易拉宝" transform="translate(-179.000000, -3803.000000)">
		<g id="图层_2_1_" transform="translate(179.000000, 0.000000)">
			<g id="编组_1_" transform="translate(0.000000, 277.000000)">
				<g id="secure" transform="translate(221.000000, 3638.000000)">
					<g id="shield">
						<g id="编组">
							<g id="Combined-Shape" transform="translate(0.299727, 0.297698)">
								<path id="形状" class="st0" d="M165,32H63.8C62,48.9,48.6,62.2,31.7,64.1V94c0,53.5,32.9,101.3,82.8,120.5
									c49.6-19.2,82.4-67.1,82.4-120.5V64.1C180.1,62.3,166.8,48.9,165,32z M112.9,222.3c-53.6-20-89.1-71.2-89.1-128.3V60.4
									c0-2.2,1.8-3.9,3.9-3.9c15.7,0,28.4-12.7,28.4-28.3c0-2.2,1.8-3.9,3.9-3.9h108.6c2.2,0,3.9,1.8,3.9,3.9
									c0,15.7,12.6,28.3,28.2,28.3c2.2,0,3.9,1.8,3.9,3.9V94c0,57.1-35.3,108.3-88.5,128.3c-0.6,0.2-1.1,0.3-1.7,0.2
									C114,222.6,113.4,222.5,112.9,222.3z"/>
								<path id="形状_1_" class="st0" d="M219.1,87.9V49.1c-21.5-1.9-38.6-19.1-40.4-40.7H48.8C46.9,30,29.7,47.2,8.1,49.1v38.8
									c0,68.1,42.1,129.2,105.7,153.5C177.4,217,219.1,156,219.1,87.9z M112.2,249.3c-67.4-25.2-112-89.5-112-161.4V45.3
									c0-2.2,1.8-3.9,3.9-3.9C24.5,41.4,41,24.9,41,4.5c0-2.2,1.8-3.9,3.9-3.9h137.4c2.2,0,3.9,1.8,3.9,3.9
									c0,20.4,16.4,36.9,36.7,36.9c2.2,0,3.9,1.8,3.9,3.9v42.6c0,71.9-44.4,136.2-111.3,161.4c-0.6,0.2-1.2,0.3-1.7,0.2
									C113.4,249.5,112.8,249.5,112.2,249.3z"/>
							</g>
							<g id="lock" transform="translate(90.555905, 80.670936)">
								<path id="Shape_22_" class="st0" d="M11,43.8C4.4,39.5,0.3,32.1,0.4,24.1C0.5,11.2,11,0.7,23.9,0.8
									c12.9,0.1,23.4,10.6,23.3,23.5c0,7.9-4.1,15.2-10.6,19.5l0.9,6.2c0.4,2.8,1.3,10.2,2.7,22c0.1,0.4,0.1,0.8,0.1,1.2
									c0,4.4-4.5,7.6-8.7,7.6H15.9c-0.7,0-1.6,0-2-0.1c-4.2-0.6-7.1-4.5-6.5-8.6C8.8,60.5,9.7,53.4,10,50.7L11,43.8z M23.8,8.2
									c-8.8,0-16,7.1-16,15.9c0,6.1,3.4,11.7,8.9,14.4l2.4,1.2l-1.7,12.2c-0.4,2.6-1.2,9.7-2.6,21.3c0,0.1,0,0.2,0.1,0.2
									c0.1,0,0.2,0,0.4,0c0.3,0,0.6,0,0.7,0h15.8c0.2,0,0.7-0.2,1-0.4l0.1-0.1c-1.4-11.8-2.3-19.1-2.7-21.8l-1.6-11.4l2.4-1.2
									c5.4-2.7,8.8-8.2,8.8-14.2C39.8,15.4,32.7,8.3,23.8,8.2z"/>
							</g>
						</g>
					</g>
				</g>
				<g transform="translate(671.000000, 3651.000000)">
					<path id="路径" class="st1" d="M10.3,9.5c-1,0.9-1.7,1.9-2,2.9c-0.3,1.1-0.5,2.2-0.5,3.4s0.5,2.3,1.6,3.3
						c1,1,2.4,1.9,4.1,2.6c1.7,0.7,3.7,1.3,5.8,1.8c2.2,0.5,4.4,1.1,6.7,1.6c2.3,0.6,4.5,1.2,6.7,1.9s4.1,1.6,5.8,2.8
						c3.8,2.4,5.7,5.7,5.7,9.8c0,5-1.9,8.7-5.6,11.4c-3.7,2.6-8.8,3.9-15.4,3.9c-7.4,0-13.1-1.5-17-4.6c-3.5-2.8-5.4-6.7-5.9-11.8
						h6.2c0.2,3.6,2,6.4,5.3,8.3c2.9,1.7,6.7,2.5,11.4,2.5c9.9,0,14.9-3.1,14.9-9.4c0-2.1-0.9-3.8-2.7-5c-1.8-1.2-4-2.2-6.7-3
						c-2.7-0.8-5.6-1.5-8.7-2.2c-3.1-0.7-6-1.6-8.7-2.7s-4.9-2.5-6.7-4.3c-1.8-1.8-2.7-4.2-2.7-7.2c0-4.3,1.7-7.8,5-10.6
						c3.3-2.7,8.3-4.1,15-4.1s11.9,1.5,15.6,4.6c3.4,2.7,5.1,6.2,5.4,10.5h-6.2c-0.5-4.4-3.4-7.3-8.5-8.7c-1.8-0.5-4.1-0.8-6.8-0.8
						s-5,0.3-6.8,0.9C12.7,7.9,11.3,8.6,10.3,9.5z"/>
					<path id="形状_2_" class="st1" d="M70.6,49.5c5.4,0,9.3-2.2,11.6-6.7h6.6c-1.4,3.6-3.6,6.6-6.6,8.8c-3,2.2-6.9,3.4-11.6,3.4
						c-6,0-10.9-2-14.7-6c-3.7-3.9-5.5-8.8-5.5-14.6c0-5.9,1.8-10.8,5.3-14.6c3.7-4,8.6-6,14.6-6s10.8,2,14.6,6
						c3.5,3.8,5.3,8.7,5.3,14.6v2.4H56.7c0.4,3.7,1.9,6.7,4.4,9.1C63.4,48.3,66.7,49.5,70.6,49.5z M70.1,19.1
						c-3.7,0-6.8,1.1-9.3,3.4c-2.3,2.2-3.8,5-4.3,8.6h27.2c-0.5-3.5-2-6.4-4.3-8.6C76.9,20.3,73.8,19.1,70.1,19.1z"/>
					<path id="路径_1_" class="st1" d="M116.5,49.5c2.6,0,4.8-0.7,6.8-2.2c2-1.4,3.4-3.3,4.3-5.6h6.5c-1.2,3.9-3.5,7.1-6.7,9.5
						c-3.4,2.5-7.5,3.7-12.2,3.7c-5.9,0-10.6-2-14.3-6c-3.6-3.9-5.4-8.8-5.4-14.6c0-5.9,1.8-10.7,5.4-14.6c3.7-4,8.5-6,14.3-6
						c4.7,0,8.7,1.2,12.2,3.7c3.3,2.4,5.5,5.6,6.7,9.5h-6.5c-0.9-2.3-2.3-4.2-4.3-5.6c-2-1.4-4.2-2.2-6.8-2.2s-4.7,0.4-6.5,1.2
						c-1.8,0.8-3.3,1.9-4.5,3.3c-2.6,2.9-3.9,6.5-3.9,10.7c0,4.3,1.3,7.8,3.9,10.7C108.1,48,111.8,49.5,116.5,49.5z"/>
					<path id="路径_2_" class="st1" d="M171,54.3v-6.2c-1.4,1.9-3.2,3.5-5.3,4.9c-2.1,1.3-4.5,2-7.1,2c-2.6,0-5-0.4-6.9-1.1
						c-1.9-0.7-3.6-1.9-5-3.4c-3.3-3.3-5-7.5-5-12.9V14.3h6v23.1c0,3.7,1,6.6,3.1,8.8c2.1,2.2,4.8,3.3,8.1,3.3
						c3.4,0,6.2-1.1,8.6-3.4c2.3-2.3,3.5-5.2,3.5-8.8v-23h6v40H171L171,54.3z"/>
					<path id="路径_3_" class="st1" d="M209.2,13.7v6h-0.7c-4.3,0-7.8,1.7-10.6,5.2c-2.6,3.3-3.8,7.3-3.8,11.8v17.6h-6v-40h6v9.8
						c1.3-4.2,4.1-7.2,8.3-9.2c1.8-0.9,3.9-1.3,6.4-1.3L209.2,13.7L209.2,13.7z"/>
					<path id="形状_3_" class="st1" d="M233.1,49.5c5.4,0,9.3-2.2,11.6-6.7h6.6c-1.4,3.6-3.6,6.6-6.6,8.8c-3,2.2-6.9,3.4-11.6,3.4
						c-6,0-10.9-2-14.7-6c-3.7-3.9-5.5-8.8-5.5-14.6c0-5.9,1.8-10.8,5.3-14.6c3.7-4,8.6-6,14.6-6s10.8,2,14.6,6
						c3.5,3.8,5.3,8.7,5.3,14.6v2.4h-33.5c0.4,3.7,1.9,6.7,4.4,9.1C225.9,48.3,229.1,49.5,233.1,49.5z M232.6,19.1
						c-3.7,0-6.8,1.1-9.3,3.4c-2.3,2.2-3.8,5-4.3,8.6h27.2c-0.5-3.5-2-6.4-4.3-8.6C239.4,20.3,236.3,19.1,232.6,19.1z"/>
				</g>
				<g transform="translate(670.000000, 3768.000000)">
					<path id="路径_4_" class="st2" d="M9.7,10c-0.9,0.8-1.5,1.6-1.8,2.6c-0.3,0.9-0.5,1.9-0.5,3s0.5,2,1.4,2.9s2.1,1.6,3.6,2.2
						c1.5,0.6,3.2,1.1,5.1,1.6s3.9,0.9,5.8,1.4c1.9,0.5,3.9,1,5.8,1.7c1.9,0.6,3.6,1.4,5.1,2.4c3.3,2.1,5,5,5,8.6
						c0,4.3-1.6,7.7-4.9,9.9c-3.2,2.3-7.7,3.4-13.5,3.4c-6.5,0-11.4-1.4-14.8-4.1c-3-2.4-4.8-5.9-5.2-10.4h5.5
						c0.2,3.2,1.7,5.6,4.6,7.3c2.5,1.4,5.9,2.2,10,2.2c8.7,0,13-2.7,13-8.2c0-1.9-0.8-3.3-2.3-4.4c-1.6-1.1-3.5-2-5.9-2.7
						c-2.4-0.7-4.9-1.4-7.6-2s-5.3-1.4-7.6-2.3c-2.4-1-4.3-2.2-5.9-3.8C3,19.7,2.3,17.6,2.3,15c0-3.8,1.4-6.9,4.3-9.2
						c2.9-2.4,7.3-3.6,13.1-3.6c5.9,0,10.4,1.4,13.6,4.1c2.9,2.4,4.5,5.4,4.7,9.2h-5.4c-0.5-3.8-2.9-6.4-7.4-7.6
						c-1.6-0.5-3.6-0.7-5.9-0.7S15,7.5,13.4,8C11.9,8.5,10.6,9.2,9.7,10z"/>
					<path id="路径_5_" class="st2" d="M71.6,49.2v-5.5c-1.3,1.7-2.8,3.1-4.6,4.3s-3.9,1.8-6.2,1.8s-4.3-0.3-6-1s-3.2-1.6-4.4-2.9
						c-2.9-2.8-4.3-6.6-4.3-11.3V14.2h5.2v20.2c0,3.2,0.9,5.8,2.7,7.7c1.8,1.9,4.2,2.9,7.1,2.9c2.9,0,5.4-1,7.5-2.9
						c2.1-2,3.1-4.6,3.1-7.7V14.2h5.2v35H71.6L71.6,49.2z"/>
					<path id="形状_4_" class="st2" d="M91.2,19.8c2.8-4.1,7-6.2,12.5-6.2c5,0,9.1,1.8,12.2,5.2c3.1,3.5,4.7,7.7,4.7,12.8
						s-1.6,9.4-4.7,12.8c-3.1,3.5-7.3,5.2-12.6,5.2c-5.3,0-9.3-2.1-12.2-6.2v19.5H86V14h5.2V19.8z M103,18.4c-3.8,0-6.8,1.3-9,3.9
						c-2.1,2.5-3.2,5.6-3.2,9.4s1.1,6.9,3.2,9.4c2.2,2.6,5.2,3.9,9,3.9c3.7,0,6.8-1.3,9.1-3.9c2.2-2.5,3.3-5.6,3.3-9.4
						s-1.1-6.9-3.3-9.4C109.8,19.7,106.8,18.4,103,18.4z"/>
					<path id="形状_5_" class="st2" d="M132.8,19.8c2.8-4.1,7-6.2,12.5-6.2c5,0,9.1,1.8,12.2,5.2c3.1,3.5,4.7,7.7,4.7,12.8
						s-1.6,9.4-4.7,12.8c-3.1,3.5-7.3,5.2-12.6,5.2c-5.3,0-9.3-2.1-12.2-6.2v19.5h-5.2V14h5.2v5.8H132.8z M144.6,18.4
						c-3.8,0-6.8,1.3-9,3.9c-2.1,2.5-3.2,5.6-3.2,9.4s1.1,6.9,3.2,9.4c2.2,2.6,5.2,3.9,9,3.9c3.7,0,6.8-1.3,9.1-3.9
						c2.2-2.5,3.3-5.6,3.3-9.4s-1.1-6.9-3.3-9.4C151.4,19.7,148.3,18.4,144.6,18.4z"/>
					<path id="形状_6_" class="st2" d="M184.3,13.6c5.2,0,9.5,1.8,12.7,5.2c3.1,3.4,4.6,7.6,4.6,12.8s-1.5,9.5-4.6,12.8
						c-3.3,3.5-7.5,5.2-12.7,5.2s-9.5-1.8-12.7-5.2c-3.1-3.4-4.6-7.6-4.6-12.8s1.5-9.5,4.6-12.8C174.8,15.4,179.1,13.6,184.3,13.6z
						 M184.3,45c3.8,0,6.8-1.3,9-3.9c2.1-2.5,3.1-5.6,3.1-9.4s-1-6.9-3.1-9.4c-2.2-2.6-5.2-3.9-9-3.9s-6.8,1.3-9,3.9
						c-2.1,2.5-3.2,5.6-3.2,9.4s1,6.9,3.2,9.4C177.5,43.7,180.5,45,184.3,45z"/>
					<path id="路径_6_" class="st2" d="M227.1,13.6v5.2h-0.6c-3.8,0-6.9,1.5-9.2,4.5c-2.2,2.9-3.4,6.3-3.4,10.4v15.4h-5.2v-35h5.2
						v8.6c1.1-3.6,3.5-6.3,7.3-8c1.5-0.7,3.4-1.1,5.6-1.1H227.1L227.1,13.6z"/>
					<polygon id="路径_7_" class="st2" points="236.5,49.2 236.5,18.8 229.4,18.8 229.4,14.2 236.5,14.2 236.5,1.7 241.7,1.7 
						241.7,14.2 249.7,14.2 249.7,18.8 241.7,18.8 241.7,49.2 					"/>
					<path id="路径_8_" class="st2" d="M276.1,23.6c-0.5-3.6-3.4-5.5-8.8-5.5c-5.4,0-8.1,1.7-8.1,5c0,1.4,0.6,2.5,1.7,3.2
						c1.1,0.7,2.6,1.3,4.3,1.8c1.7,0.5,3.6,0.9,5.6,1.3s3.9,1,5.6,1.7c1.7,0.7,3.2,1.7,4.3,3c1.1,1.3,1.7,3,1.7,5.2
						c0,3.4-1.3,6-3.9,7.8c-2.6,1.8-6,2.7-10.4,2.7c-4.7,0-8.4-1.2-11.1-3.5c-2.5-2.1-3.9-4.7-4.1-8.1h5.5c0.3,3.2,2.1,5.4,5.5,6.5
						c1.2,0.4,2.4,0.6,3.6,0.6s2.3-0.1,3.3-0.2c1-0.1,2-0.4,3-0.8c2.2-0.9,3.4-2.4,3.4-4.6c0-1.4-0.6-2.6-1.7-3.3
						c-1.1-0.8-2.6-1.4-4.3-1.9c-1.7-0.5-3.6-0.9-5.6-1.3c-2-0.4-3.9-0.9-5.6-1.6c-1.7-0.7-3.2-1.7-4.3-2.9c-1.1-1.2-1.7-2.9-1.7-5
						c0-3.2,1.2-5.6,3.5-7.4c2.3-1.8,5.7-2.6,10.3-2.6c4.3,0,7.7,1,10.1,3.1c2.1,1.7,3.2,4,3.6,6.9h-5.4V23.6z"/>
					<polygon id="路径_9_" class="st2" points="338.2,7.9 322,7.9 322,49.2 316.8,49.2 316.8,7.9 300.6,7.9 300.6,2.9 338.2,2.9 
											"/>
					<polygon id="路径_10_" class="st2" points="350.1,2.9 350.1,44.2 375.4,44.2 375.4,49.2 344.9,49.2 344.9,2.9 					"/>
					<path id="路径_11_" class="st2" d="M387.5,10c-0.9,0.8-1.5,1.6-1.8,2.6c-0.3,0.9-0.5,1.9-0.5,3s0.5,2,1.4,2.9
						s2.1,1.6,3.6,2.2c1.5,0.6,3.2,1.1,5.1,1.6c1.9,0.5,3.9,0.9,5.8,1.4s3.9,1,5.8,1.7c1.9,0.6,3.6,1.4,5.1,2.4c3.3,2.1,5,5,5,8.6
						c0,4.3-1.6,7.7-4.9,9.9c-3.2,2.3-7.7,3.4-13.5,3.4c-6.5,0-11.4-1.4-14.8-4.1c-3-2.4-4.8-5.9-5.2-10.4h5.5
						c0.2,3.2,1.7,5.6,4.6,7.3c2.5,1.4,5.9,2.2,10,2.2c8.7,0,13-2.7,13-8.2c0-1.9-0.8-3.3-2.3-4.4c-1.6-1.1-3.5-2-5.9-2.7
						c-2.4-0.7-4.9-1.4-7.6-2c-2.7-0.6-5.3-1.4-7.6-2.3c-2.4-1-4.3-2.2-5.9-3.8c-1.6-1.6-2.3-3.7-2.3-6.3c0-3.8,1.4-6.9,4.3-9.2
						c2.9-2.4,7.3-3.6,13.1-3.6c5.9,0,10.4,1.4,13.6,4.1c2.9,2.4,4.5,5.4,4.7,9.2h-5.4c-0.5-3.8-2.9-6.4-7.4-7.6
						c-1.6-0.5-3.6-0.7-5.9-0.7c-2.3,0-4.3,0.3-5.9,0.8C389.6,8.5,388.4,9.2,387.5,10z"/>
					<polygon id="路径_12_" class="st2" points="424.4,43.6 431.3,43.6 425.1,58.5 420.3,58.5 					"/>
					<path id="形状_7_" class="st2" d="M476.1,2.3c6.9,0,12.6,2.3,17,6.9c4.3,4.5,6.5,10.1,6.5,16.8s-2.2,12.3-6.5,16.8
						c-4.4,4.6-10.1,6.9-17,6.9s-12.6-2.3-17-6.9c-4.3-4.5-6.5-10.1-6.5-16.8s2.2-12.3,6.5-16.8C463.5,4.6,469.2,2.3,476.1,2.3z
						 M476.1,44.7c5.5,0,10-1.8,13.4-5.4c3.3-3.5,4.9-7.9,4.9-13.2c0-5.4-1.6-9.8-4.9-13.2c-3.4-3.6-7.9-5.4-13.4-5.4
						s-10,1.8-13.4,5.4c-3.3,3.5-4.9,7.9-4.9,13.2c0,5.4,1.6,9.8,4.9,13.2C466.2,42.9,470.6,44.7,476.1,44.7z"/>
					<path id="形状_8_" class="st2" d="M512.2,19.8c2.8-4.1,7-6.2,12.5-6.2c5,0,9.1,1.8,12.2,5.2c3.1,3.5,4.7,7.7,4.7,12.8
						s-1.6,9.4-4.7,12.8c-3.1,3.5-7.3,5.2-12.6,5.2s-9.3-2.1-12.2-6.2v19.5h-5.2V14h5.2v5.8H512.2z M524,18.4c-3.8,0-6.8,1.3-9,3.9
						c-2.1,2.5-3.2,5.6-3.2,9.4s1.1,6.9,3.2,9.4c2.2,2.6,5.2,3.9,9,3.9c3.7,0,6.8-1.3,9.1-3.9c2.2-2.5,3.3-5.6,3.3-9.4
						s-1.1-6.9-3.3-9.4C530.8,19.7,527.7,18.4,524,18.4z"/>
					<path id="形状_9_" class="st2" d="M564.1,45c4.7,0,8.1-2,10.1-5.9h5.7c-1.2,3.2-3.1,5.7-5.8,7.7c-2.6,2-6,2.9-10.2,2.9
						c-5.3,0-9.6-1.8-12.9-5.2c-3.2-3.4-4.8-7.7-4.8-12.8c0-5.2,1.5-9.5,4.6-12.8c3.3-3.5,7.5-5.2,12.7-5.2s9.5,1.8,12.7,5.2
						c3.1,3.4,4.6,7.6,4.6,12.8v2.1h-29.3c0.4,3.2,1.7,5.9,3.9,8C557.8,43.9,560.7,45,564.1,45z M563.7,18.4c-3.2,0-5.9,1-8.1,3
						c-2.1,1.9-3.3,4.4-3.8,7.5h23.8c-0.5-3.1-1.7-5.6-3.8-7.5C569.6,19.4,566.9,18.4,563.7,18.4z"/>
					<path id="路径_13_" class="st2" d="M592.7,14.2v5.5c1.3-1.7,2.8-3.1,4.6-4.3s3.9-1.8,6.2-1.8s4.3,0.3,6,1
						c1.7,0.7,3.2,1.6,4.4,2.9c2.9,2.8,4.3,6.6,4.3,11.3v20.4H613V29c0-3.2-0.9-5.8-2.7-7.7c-1.8-1.9-4.2-2.9-7.1-2.9
						c-2.9,0-5.4,1-7.5,2.9c-2.1,2-3.1,4.6-3.1,7.7v20.2h-5.2v-35H592.7z"/>
					<path id="路径_14_" class="st2" d="M633.2,10c-0.9,0.8-1.5,1.6-1.8,2.6c-0.3,0.9-0.5,1.9-0.5,3s0.5,2,1.4,2.9
						c0.9,0.9,2.1,1.6,3.6,2.2c1.5,0.6,3.2,1.1,5.1,1.6s3.9,0.9,5.8,1.4c1.9,0.5,3.9,1,5.8,1.7c1.9,0.6,3.6,1.4,5.1,2.4
						c3.3,2.1,5,5,5,8.6c0,4.3-1.6,7.7-4.9,9.9c-3.2,2.3-7.7,3.4-13.5,3.4c-6.5,0-11.4-1.4-14.8-4.1c-3-2.4-4.8-5.9-5.2-10.4h5.5
						c0.2,3.2,1.7,5.6,4.6,7.3c2.5,1.4,5.9,2.2,10,2.2c8.7,0,13-2.7,13-8.2c0-1.9-0.8-3.3-2.3-4.4c-1.6-1.1-3.5-2-5.9-2.7
						c-2.4-0.7-4.9-1.4-7.6-2c-2.7-0.6-5.3-1.4-7.6-2.3c-2.4-1-4.3-2.2-5.9-3.8c-1.6-1.6-2.3-3.7-2.3-6.3c0-3.8,1.4-6.9,4.3-9.2
						c2.9-2.4,7.3-3.6,13.1-3.6c5.9,0,10.4,1.4,13.6,4.1c2.9,2.4,4.5,5.4,4.7,9.2h-5.4c-0.5-3.8-2.9-6.4-7.4-7.6
						c-1.6-0.5-3.6-0.7-5.9-0.7s-4.3,0.3-5.9,0.8C635.3,8.5,634.1,9.2,633.2,10z"/>
					<path id="路径_15_" class="st2" d="M676.3,10c-0.9,0.8-1.5,1.6-1.8,2.6c-0.3,0.9-0.5,1.9-0.5,3s0.5,2,1.4,2.9
						c0.9,0.9,2.1,1.6,3.6,2.2c1.5,0.6,3.2,1.1,5.1,1.6c1.9,0.5,3.9,0.9,5.8,1.4c1.9,0.5,3.9,1,5.8,1.7c1.9,0.6,3.6,1.4,5.1,2.4
						c3.3,2.1,5,5,5,8.6c0,4.3-1.6,7.7-4.9,9.9c-3.2,2.3-7.7,3.4-13.5,3.4c-6.5,0-11.4-1.4-14.8-4.1c-3-2.4-4.8-5.9-5.2-10.4h5.5
						c0.2,3.2,1.7,5.6,4.6,7.3c2.5,1.4,5.9,2.2,10,2.2c8.7,0,13-2.7,13-8.2c0-1.9-0.8-3.3-2.3-4.4c-1.6-1.1-3.5-2-5.9-2.7
						c-2.4-0.7-4.9-1.4-7.6-2s-5.3-1.4-7.6-2.3c-2.4-1-4.3-2.2-5.9-3.8c-1.6-1.6-2.3-3.7-2.3-6.3c0-3.8,1.4-6.9,4.3-9.2
						c2.9-2.4,7.3-3.6,13.1-3.6c5.9,0,10.4,1.4,13.6,4.1c2.9,2.4,4.5,5.4,4.7,9.2h-5.4c-0.5-3.8-2.9-6.4-7.4-7.6
						c-1.6-0.5-3.6-0.7-5.9-0.7c-2.3,0-4.3,0.3-5.9,0.8S677.1,9.2,676.3,10z"/>
					<polygon id="路径_16_" class="st2" points="719.2,2.9 719.2,44.2 744.5,44.2 744.5,49.2 714,49.2 714,2.9 					"/>
					<path id="形状_10_" class="st2" d="M792.4,43.6c-2.8,4.1-7,6.2-12.5,6.2c-5,0-9.1-1.8-12.3-5.2c-3.1-3.5-4.6-7.7-4.6-12.8
						s1.5-9.4,4.6-12.8c3.2-3.5,7.4-5.2,12.7-5.2s9.3,2.1,12.2,6.2v-5.7h5.2v35h-5.2L792.4,43.6L792.4,43.6z M780.6,45
						c3.8,0,6.8-1.3,9-3.9c2.1-2.5,3.1-5.6,3.1-9.4s-1-6.9-3.1-9.4c-2.2-2.6-5.2-3.9-9-3.9c-3.7,0-6.8,1.3-9.1,3.9
						c-2.2,2.5-3.3,5.6-3.3,9.4s1.1,6.9,3.3,9.4C773.8,43.7,776.8,45,780.6,45z"/>
					<path id="路径_17_" class="st2" d="M812,14.2v5.5c1.3-1.7,2.8-3.1,4.6-4.3c1.8-1.2,3.9-1.8,6.2-1.8s4.3,0.3,6,1
						c1.7,0.7,3.2,1.6,4.4,2.9c2.9,2.8,4.3,6.6,4.3,11.3v20.4h-5.2V29c0-3.2-0.9-5.8-2.7-7.7c-1.8-1.9-4.2-2.9-7.1-2.9
						s-5.4,1-7.5,2.9c-2.1,2-3.1,4.6-3.1,7.7v20.2h-5.2v-35H812z"/>
					<path id="形状_11_" class="st2" d="M873.7,43.6c-2.8,4.1-7,6.2-12.5,6.2c-5,0-9.1-1.8-12.3-5.2c-3.1-3.5-4.6-7.7-4.6-12.8
						s1.5-9.4,4.6-12.8c3.2-3.5,7.4-5.2,12.7-5.2c5.3,0,9.3,2.1,12.2,6.2V0.3h5.2v49h-5.2L873.7,43.6L873.7,43.6z M861.8,45
						c3.8,0,6.8-1.3,9-3.9c2.1-2.5,3.1-5.6,3.1-9.4s-1-6.9-3.1-9.4c-2.2-2.6-5.2-3.9-9-3.9c-3.7,0-6.8,1.3-9.1,3.9
						c-2.2,2.5-3.3,5.6-3.3,9.4s1.1,6.9,3.3,9.4C855.1,43.7,858.1,45,861.8,45z"/>
					<polygon id="路径_18_" class="st2" points="909.3,2.9 909.3,44.2 934.6,44.2 934.6,49.2 904,49.2 904,2.9 					"/>
					<path id="形状_12_" class="st2" d="M960.9,2.9c2.8,0,5.4,0.5,8,1.6c2.6,1.1,4.8,2.6,6.8,4.6c4.3,4.4,6.5,10.1,6.5,17
						s-2.2,12.6-6.5,17c-2,2-4.2,3.5-6.8,4.6c-2.6,1.1-5.2,1.6-8,1.6h-19.5V3L960.9,2.9L960.9,2.9z M960.7,44.2
						c4.9,0,8.8-1.8,11.8-5.4c2.9-3.5,4.4-7.7,4.4-12.8s-1.5-9.4-4.4-12.8c-3-3.6-7-5.4-11.8-5.4h-14.1v36.4H960.7z"/>
					<path id="形状_13_" class="st2" d="M1030.2,49.2h-5.8l-5.7-13.4h-23L990,49.2h-5.8l19.7-46.3h6.6L1030.2,49.2z M1016.7,30.9
						l-9.5-22.6l-9.5,22.6H1016.7z"/>
					<path id="形状_14_" class="st2" d="M1041.3,49.2h-5.2V2.9h20.9c4.9,0,8.8,1.4,11.7,4.1c2.8,2.7,4.3,6.3,4.3,10.8
						c0,4.6-1.4,8.2-4.3,10.9c-2.9,2.7-6.8,4-11.7,4h-15.6L1041.3,49.2L1041.3,49.2z M1041.3,7.8v20h15.3c3.6,0,6.4-0.9,8.3-2.7
						c1.9-1.8,2.8-4.2,2.8-7.3s-0.9-5.5-2.8-7.3s-4.6-2.7-8.3-2.7H1041.3z"/>
					<polygon id="路径_19_" class="st2" points="1074.8,43.6 1081.7,43.6 1075.5,58.5 1070.7,58.5 					"/>
					<path id="形状_15_" class="st2" d="M1132.1,43.6c-2.8,4.1-7,6.2-12.5,6.2c-5,0-9.1-1.8-12.3-5.2c-3.1-3.5-4.6-7.7-4.6-12.8
						s1.5-9.4,4.6-12.8c3.2-3.5,7.4-5.2,12.7-5.2s9.3,2.1,12.2,6.2v-5.7h5.2v35h-5.2L1132.1,43.6L1132.1,43.6z M1120.3,45
						c3.8,0,6.8-1.3,9-3.9c2.1-2.5,3.1-5.6,3.1-9.4s-1-6.9-3.1-9.4c-2.2-2.6-5.2-3.9-9-3.9c-3.7,0-6.8,1.3-9.1,3.9
						c-2.2,2.5-3.3,5.6-3.3,9.4s1.1,6.9,3.3,9.4C1113.5,43.7,1116.5,45,1120.3,45z"/>
					<path id="路径_20_" class="st2" d="M1151.7,14.2v5.5c1.3-1.7,2.8-3.1,4.6-4.3c1.8-1.2,3.9-1.8,6.2-1.8s4.3,0.3,6,1
						c1.7,0.7,3.2,1.6,4.4,2.9c2.9,2.8,4.3,6.6,4.3,11.3v20.4h-5.2V29c0-3.2-0.9-5.8-2.7-7.7c-1.8-1.9-4.2-2.9-7.1-2.9
						c-2.9,0-5.4,1-7.5,2.9c-2.1,2-3.1,4.6-3.1,7.7v20.2h-5.2v-35H1151.7z"/>
					<path id="形状_16_" class="st2" d="M1213.4,43.6c-2.8,4.1-7,6.2-12.5,6.2c-5,0-9.1-1.8-12.3-5.2c-3.1-3.5-4.6-7.7-4.6-12.8
						s1.5-9.4,4.6-12.8c3.2-3.5,7.4-5.2,12.7-5.2c5.3,0,9.3,2.1,12.2,6.2V0.3h5.2v49h-5.2L1213.4,43.6L1213.4,43.6z M1201.5,45
						c3.8,0,6.8-1.3,9-3.9c2.1-2.5,3.1-5.6,3.1-9.4s-1-6.9-3.1-9.4c-2.2-2.6-5.2-3.9-9-3.9c-3.7,0-6.8,1.3-9.1,3.9
						c-2.2,2.5-3.3,5.6-3.3,9.4s1.1,6.9,3.3,9.4C1194.8,43.7,1197.8,45,1201.5,45z"/>
					<path id="路径_21_" class="st2" d="M1247.9,14.2v5.5c1.3-1.7,2.8-3.1,4.6-4.3s3.9-1.8,6.2-1.8c2.3,0,4.3,0.3,6,1
						c1.7,0.7,3.2,1.6,4.4,2.9c2.9,2.8,4.3,6.6,4.3,11.3v20.4h-5.2V29c0-3.2-0.9-5.8-2.7-7.7c-1.8-1.9-4.2-2.9-7.1-2.9
						s-5.4,1-7.5,2.9c-2.1,2-3.1,4.6-3.1,7.7v20.2h-5.2v-35H1247.9z"/>
					<path id="形状_17_" class="st2" d="M1309.5,43.6c-2.8,4.1-7,6.2-12.5,6.2c-5,0-9.1-1.8-12.3-5.2c-3.1-3.5-4.6-7.7-4.6-12.8
						s1.5-9.4,4.6-12.8c3.2-3.5,7.4-5.2,12.7-5.2c5.3,0,9.3,2.1,12.2,6.2v-5.7h5.2v35h-5.2L1309.5,43.6L1309.5,43.6z M1297.7,45
						c3.8,0,6.8-1.3,9-3.9c2.1-2.5,3.1-5.6,3.1-9.4s-1-6.9-3.1-9.4c-2.2-2.6-5.2-3.9-9-3.9c-3.7,0-6.8,1.3-9.1,3.9
						c-2.2,2.5-3.3,5.6-3.3,9.4s1.1,6.9,3.3,9.4C1290.9,43.7,1294,45,1297.7,45z"/>
					<polygon id="路径_22_" class="st2" points="1327.7,49.2 1327.7,18.8 1320.6,18.8 1320.6,14.2 1327.7,14.2 1327.7,1.7 
						1332.9,1.7 1332.9,14.2 1340.9,14.2 1340.9,18.8 1332.9,18.8 1332.9,49.2 					"/>
					<path id="形状_18_" class="st2" d="M1352.2,1.5v6.9h-5.7V1.5H1352.2z M1346.7,14.2h5.2v35h-5.2V14.2z"/>
					<polygon id="路径_23_" class="st2" points="1390.4,14.2 1376.8,49.2 1370.6,49.2 1356.9,14.2 1362.6,14.2 1373.7,43.6 
						1384.7,14.2 					"/>
					<path id="形状_19_" class="st2" d="M1410.5,45c4.7,0,8.1-2,10.1-5.9h5.7c-1.2,3.2-3.1,5.7-5.8,7.7c-2.6,2-6,2.9-10.2,2.9
						c-5.3,0-9.6-1.8-12.9-5.2c-3.2-3.4-4.8-7.7-4.8-12.8c0-5.2,1.5-9.5,4.6-12.8c3.3-3.5,7.5-5.2,12.7-5.2c5.2,0,9.5,1.8,12.7,5.2
						c3.1,3.4,4.6,7.6,4.6,12.8v2.1h-29.3c0.4,3.2,1.7,5.9,3.9,8C1404.2,43.9,1407,45,1410.5,45z M1410.1,18.4c-3.2,0-5.9,1-8.1,3
						c-2.1,1.9-3.3,4.4-3.8,7.5h23.8c-0.5-3.1-1.7-5.6-3.8-7.5C1416,19.4,1413.3,18.4,1410.1,18.4z"/>
					<path id="形状_20_" class="st2" d="M30.6,143.6c-2.8,4.1-7,6.2-12.5,6.2c-5,0-9.1-1.8-12.3-5.2c-3.1-3.5-4.6-7.7-4.6-12.8
						c0-5.1,1.5-9.4,4.6-12.8c3.2-3.5,7.4-5.2,12.7-5.2s9.3,2.1,12.2,6.2v-19.7h5.2v49h-5.2v-5.7H30.6z M18.8,145
						c3.8,0,6.8-1.3,9-3.9c2.1-2.5,3.1-5.6,3.1-9.4c0-3.8-1-6.9-3.1-9.4c-2.2-2.6-5.2-3.9-9-3.9c-3.7,0-6.8,1.3-9.1,3.9
						c-2.2,2.5-3.3,5.6-3.3,9.4c0,3.8,1.1,6.9,3.3,9.4C12,143.7,15,145,18.8,145z"/>
					<path id="形状_21_" class="st2" d="M72.2,143.6c-2.8,4.1-7,6.2-12.5,6.2c-5,0-9.1-1.8-12.3-5.2c-3.1-3.5-4.6-7.7-4.6-12.8
						c0-5.1,1.5-9.4,4.6-12.8c3.2-3.5,7.4-5.2,12.7-5.2s9.3,2.1,12.2,6.2v-5.7h5.2v35h-5.2v-5.7H72.2z M60.4,145
						c3.8,0,6.8-1.3,9-3.9c2.1-2.5,3.1-5.6,3.1-9.4c0-3.8-1-6.9-3.1-9.4c-2.2-2.6-5.2-3.9-9-3.9c-3.7,0-6.8,1.3-9.1,3.9
						c-2.2,2.5-3.3,5.6-3.3,9.4c0,3.8,1.1,6.9,3.3,9.4C53.6,143.7,56.7,145,60.4,145z"/>
					<polygon id="路径_24_" class="st2" points="90.4,149.2 90.4,118.8 83.3,118.8 83.3,114.2 90.4,114.2 90.4,101.7 95.6,101.7 
						95.6,114.2 103.6,114.2 103.6,118.8 95.6,118.8 95.6,149.2 					"/>
					<path id="形状_22_" class="st2" d="M136,143.6c-2.8,4.1-7,6.2-12.5,6.2c-5,0-9.1-1.8-12.3-5.2c-3.1-3.5-4.6-7.7-4.6-12.8
						c0-5.1,1.5-9.4,4.6-12.8c3.2-3.5,7.4-5.2,12.7-5.2c5.3,0,9.3,2.1,12.2,6.2v-5.7h5.2v35H136V143.6z M124.2,145
						c3.8,0,6.8-1.3,9-3.9c2.1-2.5,3.1-5.6,3.1-9.4c0-3.8-1-6.9-3.1-9.4c-2.2-2.6-5.2-3.9-9-3.9c-3.7,0-6.8,1.3-9.1,3.9
						c-2.2,2.5-3.3,5.6-3.3,9.4c0,3.8,1.1,6.9,3.3,9.4C117.4,143.7,120.4,145,124.2,145z"/>
					<path id="形状_23_" class="st2" d="M180.9,145c4.7,0,8.1-2,10.1-5.9h5.7c-1.2,3.2-3.1,5.7-5.8,7.7c-2.6,2-6,2.9-10.2,2.9
						c-5.3,0-9.6-1.8-12.9-5.2c-3.2-3.4-4.8-7.7-4.8-12.8c0-5.2,1.5-9.5,4.6-12.8c3.3-3.5,7.5-5.2,12.7-5.2s9.5,1.8,12.7,5.2
						c3.1,3.4,4.6,7.6,4.6,12.8v2.1h-29.3c0.4,3.2,1.7,5.9,3.9,8C174.6,143.9,177.4,145,180.9,145z M180.5,118.4c-3.2,0-5.9,1-8.1,3
						c-2.1,1.9-3.3,4.4-3.8,7.5h23.8c-0.5-3.1-1.7-5.6-3.8-7.5C186.4,119.4,183.7,118.4,180.5,118.4z"/>
					<path id="路径_25_" class="st2" d="M209.5,114.2v5.5c1.3-1.7,2.8-3.1,4.6-4.3c1.8-1.2,3.9-1.8,6.2-1.8s4.3,0.3,6,1
						c1.7,0.7,3.2,1.6,4.4,2.9c2.9,2.8,4.3,6.6,4.3,11.3v20.4h-5.2V129c0-3.2-0.9-5.8-2.7-7.7c-1.8-1.9-4.2-2.9-7.1-2.9
						s-5.4,1-7.5,2.9c-2.1,2-3.1,4.6-3.1,7.7v20.2h-5.2v-35H209.5z"/>
					<path id="路径_26_" class="st2" d="M260,145c2.2,0,4.2-0.6,6-1.9c1.7-1.3,3-2.9,3.8-4.9h5.7c-1.1,3.5-3,6.2-5.9,8.3
						c-3,2.1-6.5,3.2-10.6,3.2c-5.1,0-9.3-1.8-12.5-5.2c-3.1-3.4-4.7-7.7-4.7-12.8c0-5.1,1.6-9.4,4.7-12.8c3.2-3.5,7.4-5.2,12.5-5.2
						c4.1,0,7.7,1.1,10.6,3.2c2.8,2.1,4.8,4.9,5.9,8.3h-5.7c-0.8-2-2.1-3.6-3.8-4.9c-1.7-1.3-3.7-1.9-6-1.9c-2.2,0-4.1,0.3-5.7,1
						c-1.6,0.7-2.9,1.7-4,2.9c-2.3,2.5-3.4,5.6-3.4,9.4c0,3.7,1.1,6.9,3.4,9.4C252.7,143.7,255.9,145,260,145z"/>
					<path id="路径_27_" class="st2" d="M300.4,113.6v5.2h-0.6c-3.8,0-6.9,1.5-9.2,4.5c-2.2,2.9-3.4,6.3-3.4,10.4v15.4H282v-35
						h5.2v8.6c1.1-3.6,3.5-6.3,7.3-8c1.5-0.7,3.4-1.1,5.6-1.1H300.4L300.4,113.6z"/>
					<polygon id="路径_28_" class="st2" points="315.4,163.1 309.7,163.1 316.1,148.7 301.8,114.2 307.6,114.2 318.9,142.9 
						330.4,114.2 336.1,114.2 					"/>
					<path id="形状_24_" class="st2" d="M346.1,119.8c2.8-4.1,7-6.2,12.5-6.2c5,0,9.1,1.8,12.3,5.2c3.1,3.5,4.7,7.7,4.7,12.8
						c0,5.1-1.6,9.4-4.7,12.8c-3.1,3.5-7.3,5.2-12.6,5.2c-5.3,0-9.3-2.1-12.2-6.2v19.5h-5.2V114h5.2V119.8z M358,118.4
						c-3.8,0-6.8,1.3-9,3.9c-2.1,2.5-3.2,5.6-3.2,9.4c0,3.8,1.1,6.9,3.2,9.4c2.2,2.6,5.2,3.9,9,3.9c3.7,0,6.8-1.3,9.1-3.9
						c2.2-2.5,3.3-5.6,3.3-9.4c0-3.8-1.1-6.9-3.3-9.4C364.7,119.7,361.7,118.4,358,118.4z"/>
					<polygon id="路径_29_" class="st2" points="385.6,149.2 385.6,118.8 378.5,118.8 378.5,114.2 385.6,114.2 385.6,101.7 
						390.8,101.7 390.8,114.2 398.8,114.2 398.8,118.8 390.8,118.8 390.8,149.2 					"/>
					<path id="形状_25_" class="st2" d="M410.1,101.5v6.9h-5.7v-6.9H410.1z M404.7,114.2h5.2v35h-5.2V114.2z"/>
					<path id="形状_26_" class="st2" d="M434.2,113.6c5.2,0,9.5,1.8,12.7,5.2c3.1,3.4,4.6,7.6,4.6,12.8c0,5.2-1.5,9.5-4.6,12.8
						c-3.3,3.5-7.5,5.2-12.7,5.2c-5.2,0-9.5-1.8-12.7-5.2c-3.1-3.4-4.6-7.6-4.6-12.8c0-5.2,1.5-9.5,4.6-12.8
						C424.7,115.4,429,113.6,434.2,113.6z M434.2,145c3.8,0,6.8-1.3,9-3.9c2.1-2.5,3.1-5.6,3.1-9.4c0-3.8-1-6.9-3.1-9.4
						c-2.2-2.6-5.2-3.9-9-3.9c-3.8,0-6.8,1.3-9,3.9c-2.1,2.5-3.2,5.6-3.2,9.4c0,3.8,1,6.9,3.2,9.4C427.4,143.7,430.4,145,434.2,145z
						"/>
					<path id="路径_30_" class="st2" d="M463.7,114.2v5.5c1.3-1.7,2.8-3.1,4.6-4.3c1.8-1.2,3.9-1.8,6.2-1.8s4.3,0.3,6,1
						c1.7,0.7,3.2,1.6,4.4,2.9c2.9,2.8,4.3,6.6,4.3,11.3v20.4H484V129c0-3.2-0.9-5.8-2.7-7.7c-1.8-1.9-4.2-2.9-7.1-2.9
						c-2.9,0-5.4,1-7.5,2.9c-2.1,2-3.1,4.6-3.1,7.7v20.2h-5.2v-35H463.7z"/>
					<polygon id="路径_31_" class="st2" points="542.3,114.2 528.7,149.2 522.5,149.2 508.8,114.2 514.5,114.2 525.6,143.6 
						536.6,114.2 					"/>
					<path id="形状_27_" class="st2" d="M552.7,101.5v6.9H547v-6.9H552.7z M547.2,114.2h5.2v35h-5.2V114.2z"/>
					<path id="形状_28_" class="st2" d="M588.9,143.6c-2.8,4.1-7,6.2-12.5,6.2c-5,0-9.1-1.8-12.3-5.2c-3.1-3.5-4.6-7.7-4.6-12.8
						c0-5.1,1.5-9.4,4.6-12.8c3.2-3.5,7.4-5.2,12.7-5.2s9.3,2.1,12.2,6.2v-5.7h5.2v35H589L588.9,143.6L588.9,143.6z M577.1,145
						c3.8,0,6.8-1.3,9-3.9c2.1-2.5,3.1-5.6,3.1-9.4c0-3.8-1-6.9-3.1-9.4c-2.2-2.6-5.2-3.9-9-3.9c-3.7,0-6.8,1.3-9.1,3.9
						c-2.2,2.5-3.3,5.6-3.3,9.4c0,3.8,1.1,6.9,3.3,9.4C570.3,143.7,573.3,145,577.1,145z"/>
					<path id="形状_29_" class="st2" d="M638.8,102.9c2.8,0,5.4,0.5,8,1.6c2.6,1.1,4.8,2.6,6.8,4.6c4.3,4.4,6.5,10.1,6.5,17
						s-2.2,12.6-6.5,17c-2,2-4.2,3.5-6.8,4.6c-2.6,1.1-5.2,1.6-8,1.6h-19.5V103L638.8,102.9L638.8,102.9z M638.6,144.2
						c4.9,0,8.8-1.8,11.8-5.4c2.9-3.5,4.4-7.7,4.4-12.8c0-5.1-1.5-9.4-4.4-12.8c-3-3.6-7-5.4-11.8-5.4h-14.1v36.4H638.6z"/>
					<path id="形状_30_" class="st2" d="M673.8,149.2h-5.2v-46.3h22.2c4.7,0,8.5,1.3,11.3,3.9c2.8,2.6,4.3,6.1,4.3,10.6
						c0,5.8-2.4,9.7-7.2,11.8c-1.4,0.6-2.7,1-4,1.3l12.2,18.7h-6.2L690,131.4h-16.1v17.8H673.8z M673.8,126.5h16
						c4.9,0,8.4-1.5,10.2-4.6c0.7-1.2,1-2.7,1-4.5c0-2.9-1-5.3-3-7c-2-1.7-4.7-2.6-8-2.6h-16.3L673.8,126.5L673.8,126.5z"/>
					<path id="形状_31_" class="st2" d="M750.8,115.1c0,5.1-2.1,8.6-6.2,10.4c3.8,1.3,6.4,3.6,7.8,6.9c0.5,1.3,0.8,2.8,0.8,4.5
						c0,5.6-3,9.3-8.9,11.2c-2,0.7-4.3,1-6.9,1h-22v-46.3h20.8c5,0,8.8,1.4,11.4,4.1C749.7,109.1,750.8,111.8,750.8,115.1z
						 M720.6,123.6h15.5c4.3,0,7.2-1.5,8.6-4.4c0.5-1,0.8-2.1,0.8-3.3c0-1.2-0.2-2.2-0.5-3.2s-0.8-1.7-1.5-2.4
						c-1.5-1.6-3.8-2.5-6.8-2.5h-16.1V123.6z M737.9,144.2c3.2,0,5.7-0.7,7.4-2s2.6-3.2,2.6-5.6c0-2.3-0.8-4.2-2.5-5.7
						c-1.9-1.7-4.5-2.5-8-2.5h-16.7v15.9h17.2V144.2z"/>
					<path id="形状_32_" class="st2" d="M781.3,102.9c2.8,0,5.4,0.5,8,1.6c2.6,1.1,4.8,2.6,6.8,4.6c4.3,4.4,6.5,10.1,6.5,17
						s-2.2,12.6-6.5,17c-2,2-4.2,3.5-6.8,4.6c-2.6,1.1-5.2,1.6-8,1.6h-19.5V103L781.3,102.9L781.3,102.9z M781,144.2
						c4.9,0,8.8-1.8,11.8-5.4c2.9-3.5,4.4-7.7,4.4-12.8c0-5.1-1.5-9.4-4.4-12.8c-3-3.6-7-5.4-11.8-5.4h-14v36.4H781z"/>
					<polygon id="路径_32_" class="st2" points="809,126 826.5,126 826.5,131.1 809,131.1 					"/>
					<path id="形状_33_" class="st2" d="M839.8,138.4c1.3,4.2,4.1,6.2,8.3,6.2c4.1,0,7.2-1.8,9.4-5.5c2-3.3,2.9-7.7,2.9-13.3
						c-1.1,2-2.8,3.5-4.9,4.8c-2.2,1.2-4.5,1.8-6.9,1.8c-2.4,0-4.6-0.4-6.5-1.1c-1.9-0.7-3.6-1.8-5-3.1c-3.1-2.9-4.6-6.5-4.6-10.8
						c0-4.2,1.6-7.8,4.7-10.8c3-2.8,6.8-4.3,11.3-4.3c5.6,0,9.9,2,12.8,6.1c2.9,4.1,4.3,10,4.3,17.6c0,11.4-3.3,18.8-9.9,22
						c-2.2,1.1-4.6,1.7-7.2,1.7s-4.7-0.3-6.3-1c-1.6-0.7-3-1.5-4.1-2.6c-2.2-2.1-3.7-4.6-4.3-7.8L839.8,138.4L839.8,138.4z
						 M848.6,127.4c1.4,0,2.8-0.2,4.1-0.7s2.5-1.1,3.4-2c2.1-1.8,3.1-4.2,3.1-7c0-3-1-5.5-3.1-7.4c-2-1.9-4.5-2.9-7.6-2.9
						c-3,0-5.5,0.9-7.6,2.8c-2.1,1.9-3.2,4.3-3.2,7.1c0,2.8,1,5.2,3.2,7.2C843.1,126.5,845.6,127.4,848.6,127.4z"/>
				</g>
			</g>
		</g>
	</g>
</g>
</svg>
