<?xml version="1.0" encoding="UTF-8"?>
<svg width="180px" height="175px" viewBox="0 0 180 175" version="1.1" xmlns="http://www.w3.org/2000/svg" xmlns:xlink="http://www.w3.org/1999/xlink">
    <!-- Generator: Sketch 51.3 (57544) - http://www.bohemiancoding.com/sketch -->
    <title>logo_dark</title>
    <desc>Created with Sketch.</desc>
    <defs></defs>
    <g id="Page-1" stroke="none" stroke-width="1" fill="none" fill-rule="evenodd">
        <g id="logo-" transform="translate(-80.000000, -81.000000)" fill="#1032AD">
            <g id="资源-2" transform="translate(36.000000, 39.000000)">
                <g id="logo_dark" transform="translate(44.000000, 42.000000)">
                    <g id="Group">
                        <path d="M150.0514,30.9792193 L37.70662,5.86336825 L39.0311294,0.221518987 L176.939148,31.0522996 C180.382192,31.8220281 179.809135,36.7672293 176.276894,36.7672293 L4.59877301,36.7672293 L4.59877301,30.9792193 L150.0514,30.9792193 Z" id="Path-2" fill-rule="nonzero"></path>
                        <path d="M3.82352173,174.128692 C2.16994039,174.128692 0.829447853,172.794803 0.829447853,171.149368 L0.829447853,34.9517097 C0.829447853,34.1253349 1.17437283,33.3360821 1.78179624,32.7725587 L35.9997834,1.02759269 C37.9140579,-0.748332233 41.0355828,0.602451174 41.0355828,3.20674369 L41.0355828,171.149368 C41.0355828,172.794803 39.6950903,174.128692 38.0415089,174.128692 L3.82352173,174.128692 Z M35.0474351,168.170044 L35.0474351,10.057744 L6.81759561,36.247341 L6.81759561,168.170044 L35.0474351,168.170044 Z" id="Shape" fill-rule="nonzero"></path>
                        <path d="M61.1386503,126.280299 L86.5195624,166.567511 L133.194196,166.567511 L166.679755,126.221852 L112.082314,108.598453 L61.1386503,126.280299 Z M113.796782,103.765346 L173.503254,123.01199 C175.326814,123.599822 176.027599,125.212372 174.997926,126.451324 L138.436639,170.443652 C137.835996,171.166375 136.75682,171.608298 135.592573,171.608298 L84.6731661,171.608298 C83.3738306,171.608298 82.1939123,171.059036 81.6537029,170.202711 L53.9012891,126.210383 C53.1483144,125.016789 53.8543485,123.606124 55.4881492,123.039816 L111.014785,103.793172 C111.891771,103.489191 112.908552,103.479021 113.796782,103.765346 Z" id="Shape" fill-rule="nonzero"></path>
                        <polygon id="Path-4" points="112.172357 108.535507 112.172357 168.163296 133.477176 168.163296 169.097154 125.930121"></polygon>
                        <path d="M80.1912571,116.90501 C80.1912571,118.434279 78.9552334,119.673997 77.4305209,119.673997 C75.9058084,119.673997 74.6697847,118.434279 74.6697847,116.90501 L74.6697847,98.5168776 C74.6697847,96.9876082 75.9058084,95.7478903 77.4305209,95.7478903 L107.626994,95.7478903 C109.151706,95.7478903 110.38773,96.9876082 110.38773,98.5168776 L110.38773,106.230661 C110.38773,107.759931 109.151706,108.999648 107.626994,108.999648 C106.102281,108.999648 104.866258,107.759931 104.866258,106.230661 L104.866258,101.285865 L80.1912571,101.285865 L80.1912571,116.90501 Z" id="Path-3" fill-rule="nonzero"></path>
                        <path d="M120.397392,119.272801 C120.397392,120.802071 119.161368,122.041789 117.636656,122.041789 C116.111943,122.041789 114.87592,120.802071 114.87592,119.272801 L114.87592,98.5168776 C114.87592,96.9876082 116.111943,95.7478903 117.636656,95.7478903 L147.833129,95.7478903 C149.357841,95.7478903 150.593865,96.9876082 150.593865,98.5168776 L150.593865,109.85865 C150.593865,111.387919 149.357841,112.627637 147.833129,112.627637 C146.308416,112.627637 145.072393,111.387919 145.072393,109.85865 L145.072393,101.285865 L120.397392,101.285865 L120.397392,119.272801 Z" id="Path-3" fill-rule="nonzero" transform="translate(132.734892, 108.894840) scale(-1, 1) translate(-132.734892, -108.894840) "></path>
                        <path d="M120.687117,85.4177215 L144.82454,85.4177215 L144.82454,62.4683544 L120.687117,62.4683544 L120.687117,85.4177215 Z M117.374233,56.9303797 L148.137423,56.9303797 C149.357193,56.9303797 150.346012,57.922154 150.346012,59.1455696 L150.346012,88.7405063 C150.346012,89.9639219 149.357193,90.9556962 148.137423,90.9556962 L117.374233,90.9556962 C116.154463,90.9556962 115.165644,89.9639219 115.165644,88.7405063 L115.165644,59.1455696 C115.165644,57.922154 116.154463,56.9303797 117.374233,56.9303797 Z" id="Rectangle-Copy" fill-rule="nonzero"></path>
                        <path d="M93.3128834,92.4841772 C83.5547234,92.4841772 75.6441718,84.5499829 75.6441718,74.7626582 C75.6441718,64.9753335 83.5547234,57.0411392 93.3128834,57.0411392 C103.071043,57.0411392 110.981595,64.9753335 110.981595,74.7626582 C110.981595,84.5499829 103.071043,92.4841772 93.3128834,92.4841772 Z M93.3128834,86.9462025 C100.021618,86.9462025 105.460123,81.4914439 105.460123,74.7626582 C105.460123,68.0338725 100.021618,62.5791139 93.3128834,62.5791139 C86.6041484,62.5791139 81.1656442,68.0338725 81.1656442,74.7626582 C81.1656442,81.4914439 86.6041484,86.9462025 93.3128834,86.9462025 Z" id="Oval" fill-rule="nonzero"></path>
                    </g>
                </g>
            </g>
        </g>
    </g>
</svg>