<?xml version="1.0" encoding="UTF-8"?>
<svg width="180px" height="175px" viewBox="0 0 180 175" version="1.1" xmlns="http://www.w3.org/2000/svg" xmlns:xlink="http://www.w3.org/1999/xlink">
    <!-- Generator: Sketch 51.3 (57544) - http://www.bohemiancoding.com/sketch -->
    <title>logo_white</title>
    <desc>Created with Sketch.</desc>
    <defs></defs>
    <g id="Page-1" stroke="none" stroke-width="1" fill="none" fill-rule="evenodd">
        <g id="logo-" transform="translate(-85.000000, -77.000000)" fill="#FFFFFF">
            <g id="资源-2" transform="translate(39.000000, 35.000000)">
                <g id="logo_white" transform="translate(46.000000, 42.000000)">
                    <g id="Group">
                        <path d="M60.6082474,127.705727 L86.223477,167.962963 L133.329013,167.962963 L167.123711,127.647323 L112.022225,110.037037 L60.6082474,127.705727 Z M113.752521,105.207526 L174.010206,124.439849 C175.850601,125.027245 176.557855,126.638594 175.518677,127.876625 L138.619854,171.836221 C138.013666,172.558406 136.924527,173 135.749532,173 L84.3600348,173 C83.0487038,173 81.8578924,172.451146 81.3126958,171.595459 L53.3040707,127.635863 C52.5441444,126.443157 53.2566967,125.033542 54.9055807,124.467655 L110.944841,105.235332 C111.829923,104.931577 112.856091,104.921415 113.752521,105.207526 Z" id="Shape" fill-rule="nonzero"></path>
                        <path d="M2.9787234,175 C1.33361989,175 0,173.657729 0,172.001954 L0,34.9484341 C0,34.1168664 0.343156566,33.3226539 0.947465741,32.7555894 L34.9900189,0.811139044 C36.894479,-0.975945734 40,0.383325952 40,3.00398376 L40,172.001954 C40,173.657729 38.6663801,175 37.0212766,175 L2.9787234,175 Z M34.0425532,169.003908 L34.0425532,9.89803554 L5.95744681,36.2522071 L5.95744681,169.003908 L34.0425532,169.003908 Z" id="Shape" fill-rule="nonzero"></path>
                        <path d="M150.5808,31.1400409 L37.3646412,5.71198154 L38.6994239,0 L177.677098,31.2140297 C181.146847,31.9933264 180.569345,37 177.009707,37 L4,37 L4,31.1400409 L150.5808,31.1400409 Z" id="Path-2" fill-rule="nonzero"></path>
                        <path d="M79.5650739,117.238969 C79.5650739,118.763844 78.3192897,120 76.782537,120 C75.2457842,120 74,118.763844 74,117.238969 L74,98.7610308 C74,97.2361556 75.2457842,96 76.782537,96 L107.217463,96 C108.754216,96 110,97.2361556 110,98.7610308 L110,106.927457 C110,108.452332 108.754216,109.688488 107.217463,109.688488 C105.68071,109.688488 104.434926,108.452332 104.434926,106.927457 L104.434926,101.522062 L79.5650739,101.522062 L79.5650739,117.238969 Z" id="Path-3" fill-rule="nonzero"></path>
                        <path d="M120.565074,120.156654 C120.565074,121.726991 119.31929,123 117.782537,123 C116.245784,123 115,121.726991 115,120.156654 L115,98.8433463 C115,97.2730095 116.245784,96 117.782537,96 L148.217463,96 C149.754216,96 151,97.2730095 151,98.8433463 L151,110.489693 C151,112.060029 149.754216,113.333039 148.217463,113.333039 C146.68071,113.333039 145.434926,112.060029 145.434926,110.489693 L145.434926,101.686693 L120.565074,101.686693 L120.565074,120.156654 Z" id="Path-3" fill-rule="nonzero" transform="translate(133.000000, 109.500000) scale(-1, 1) translate(-133.000000, -109.500000) "></path>
                        <path d="M121.493164,85.4661458 L145.506836,85.4661458 L145.506836,62.5338542 L121.493164,62.5338542 L121.493164,85.4661458 Z M118.197266,57 L148.802734,57 C150.016251,57 151,57.9910364 151,59.2135417 L151,88.7864583 C151,90.0089636 150.016251,91 148.802734,91 L118.197266,91 C116.983749,91 116,90.0089636 116,88.7864583 L116,59.2135417 C116,57.9910364 116.983749,57 118.197266,57 Z" id="Rectangle-Copy" fill-rule="nonzero"></path>
                        <polygon id="Path-4" points="112 108 112 168 133.332965 168 169 125.503196"></polygon>
                        <path d="M90.5,91 C80.8350169,91 73,83.1649831 73,73.5 C73,63.8350169 80.8350169,56 90.5,56 C100.164983,56 108,63.8350169 108,73.5 C108,83.1649831 100.164983,91 90.5,91 Z M90.5,85.53125 C97.1446759,85.53125 102.53125,80.1446759 102.53125,73.5 C102.53125,66.8553241 97.1446759,61.46875 90.5,61.46875 C83.8553241,61.46875 78.46875,66.8553241 78.46875,73.5 C78.46875,80.1446759 83.8553241,85.53125 90.5,85.53125 Z" id="Oval-4" fill-rule="nonzero"></path>
                    </g>
                </g>
            </g>
        </g>
    </g>
</svg>