<?xml version="1.0" encoding="UTF-8"?>
<svg width="240px" height="240px" viewBox="0 0 240 240" version="1.1" xmlns="http://www.w3.org/2000/svg" xmlns:xlink="http://www.w3.org/1999/xlink">
    <!-- Generator: Sketch 57 (83077) - https://sketch.com -->
    <title>画板</title>
    <desc>Created with Sketch.</desc>
    <defs>
        <path d="M2.00232669,30.0935664 L166.864579,30.0935664 C167.416864,30.0935664 167.864579,29.6458512 167.864579,29.0935664 C167.864579,28.6206094 167.533238,28.2123264 167.070407,28.1149783 L35.1643324,0.370892435 C34.8632775,0.30757091 34.5498322,0.386344437 34.3144834,0.584472285 L1.35830618,28.3285582 C0.935803805,28.6842409 0.881635757,29.3150846 1.23731846,29.7375869 C1.42732364,29.9632871 1.70729698,30.0935664 2.00232669,30.0935664 Z" id="path-1"></path>
        <filter x="-2.4%" y="-6.8%" width="104.9%" height="126.9%" filterUnits="objectBoundingBox" id="filter-2">
            <feMorphology radius="0.5" operator="erode" in="SourceAlpha" result="shadowSpreadOuter1"></feMorphology>
            <feOffset dx="0" dy="2" in="shadowSpreadOuter1" result="shadowOffsetOuter1"></feOffset>
            <feGaussianBlur stdDeviation="1.5" in="shadowOffsetOuter1" result="shadowBlurOuter1"></feGaussianBlur>
            <feColorMatrix values="0 0 0 0 0.589896896   0 0 0 0 0.444269767   0 0 0 0 0.0232174145  0 0 0 0.213966259 0" type="matrix" in="shadowBlurOuter1"></feColorMatrix>
        </filter>
    </defs>
    <g id="画板" stroke="none" stroke-width="1" fill="none" fill-rule="evenodd">
        <rect id="矩形" fill="#FFFFFF" x="0" y="0" width="240" height="240" rx="30"></rect>
        <g id="logo_color" transform="translate(37.000000, 19.000000)">
            <g id="Group">
                <path d="M72.2403283,85.3761172 L103.016086,85.3761172 C103.568371,85.3761172 104.016086,85.8238325 104.016086,86.3761172 L104.016086,111.032625 C104.016086,111.58491 103.568371,112.032625 103.016086,112.032625 L72.2403283,112.032625 C71.6880435,112.032625 71.2403283,111.58491 71.2403283,111.032625 L71.2403283,86.3761172 C71.2403283,85.8238325 71.6880435,85.3761172 72.2403283,85.3761172 Z" id="Rectangle-2" fill="#B2DCE9"></path>
                <path d="M112.663763,85.3761172 L143.43952,85.3761172 C143.991805,85.3761172 144.43952,85.8238325 144.43952,86.3761172 L144.43952,111.032625 C144.43952,111.58491 143.991805,112.032625 143.43952,112.032625 L112.663763,112.032625 C112.111478,112.032625 111.663763,111.58491 111.663763,111.032625 L111.663763,86.3761172 C111.663763,85.8238325 112.111478,85.3761172 112.663763,85.3761172 Z" id="Rectangle-2" fill="#B2DCE9"></path>
                <rect id="Rectangle-2-Copy" fill="#B2DCE9" x="111.663763" y="51.6309646" width="32.7757576" height="26.6565079" rx="1"></rect>
                <ellipse id="Oval" fill="#C8D8E4" cx="88.567096" cy="65.9844689" rx="15.2953535" ry="14.3535043"></ellipse>
                <polygon id="Shape" stroke="#3B87EC" fill="#3B87EC" fill-rule="nonzero" stroke-linejoin="round" points="107.775247 95.7065908 134.121161 159.282247 82.0764307 159.282247 51.491707 114.467366"></polygon>
                <polygon id="Shape" stroke="#3C61D0" fill="#3C61D0" fill-rule="nonzero" stroke-linejoin="round" points="108.386187 95.7065908 168.537576 114.35545 133.811664 159.282247 108.386187 158.919463"></polygon>
                <path d="M1.22618687,29.0754579 L34.1869949,29.0754579 C34.7392797,29.0754579 35.1869949,29.5231731 35.1869949,30.0754579 L35.1869949,162.383248 C35.1869949,162.935533 34.7392797,163.383248 34.1869949,163.383248 L1.22618687,163.383248 C0.673902119,163.383248 0.226186869,162.935533 0.226186869,162.383248 L0.226186869,30.0754579 C0.226186869,29.5231731 0.673902119,29.0754579 1.22618687,29.0754579 Z" id="Rectangle-path" fill="#F6961F" fill-rule="nonzero"></path>
                <path d="M1.22618687,29.0754579 L34.1869949,29.0754579 C34.7392797,29.0754579 35.1869949,29.5231731 35.1869949,30.0754579 L35.1869949,79.3379731 C35.1869949,79.8902579 34.7392797,80.3379731 34.1869949,80.3379731 L1.22618687,80.3379731 C0.673902119,80.3379731 0.226186869,79.8902579 0.226186869,79.3379731 L0.226186869,30.0754579 C0.226186869,29.5231731 0.673902119,29.0754579 1.22618687,29.0754579 Z" id="Rectangle-path" fill="#FFD16A" fill-rule="nonzero"></path>
                <polygon id="Rectangle-path" fill="#F9B861" fill-rule="nonzero" points="0.226186869 73.161221 35.1869949 73.161221 35.1869949 117.246984 0.226186869 117.246984"></polygon>
                <g id="Shape" fill-rule="nonzero">
                    <use fill="black" fill-opacity="1" filter="url(#filter-2)" xlink:href="#path-1"></use>
                    <use fill="#F6961F" xlink:href="#path-1"></use>
                </g>
                <polygon id="Path-2" fill="#F9B861" points="34.8861212 0.553459152 34.8861212 30.2928598 101.526771 30.2928598"></polygon>
                <path d="M35.4142376,0.578668421 L101.19791,29.976107 L167.137489,30.3922017 C167.689763,30.3956866 168.140294,29.9508054 168.143779,29.3985317 C168.146777,28.9234457 167.815092,28.5118342 167.350229,28.4137602 L35.4142376,0.578668421 L35.4142376,0.578668421 Z" id="Path-3" fill="#FFD16A"></path>
            </g>
        </g>
        <path d="M53.946,226 L51.246,226 L51.246,202.168 L61.974,202.168 C64.4940126,202.168 66.4979926,202.863993 67.986,204.256 C69.4500073,205.648007 70.182,207.507988 70.182,209.836 C70.182,212.188012 69.4440074,214.053993 67.968,215.434 C66.4919926,216.814007 64.4940126,217.504 61.974,217.504 L53.946,217.504 L53.946,226 Z M53.946,204.724 L53.946,214.984 L61.794,214.984 C63.6660094,214.984 65.0819952,214.528005 66.042,213.616 C67.0020048,212.703995 67.482,211.450008 67.482,209.854 C67.482,208.257992 67.0020048,207.004005 66.042,206.092 C65.0819952,205.179995 63.6660094,204.724 61.794,204.724 L53.946,204.724 Z M76.878,208 L79.578,208 L79.578,226 L76.878,226 L76.878,208 Z M79.686,201.448 L79.686,204.976 L76.77,204.976 L76.77,201.448 L79.686,201.448 Z M97.362,207.712 L97.362,210.412 L97.038,210.412 C95.0939903,210.412 93.5100061,211.191992 92.286,212.752 C91.1339942,214.240007 90.558,216.01599 90.558,218.08 L90.558,226 L87.858,226 L87.858,208 L90.558,208 L90.558,212.428 C91.1340029,210.555991 92.3819904,209.176004 94.302,208.288 C95.094004,207.903998 96.0539944,207.712 97.182,207.712 L97.362,207.712 Z M117.45,223.12 C116.009993,225.232011 113.862014,226.288 111.006,226.288 C108.413987,226.288 106.302008,225.388009 104.67,223.588 C103.085992,221.811991 102.294,219.616013 102.294,217 C102.294,214.383987 103.085992,212.188009 104.67,210.412 C106.302008,208.611991 108.473986,207.712 111.186,207.712 C113.898014,207.712 115.985993,208.779989 117.45,210.916 L117.45,208 L120.15,208 L120.15,226 L117.45,226 L117.45,223.12 Z M111.366,223.84 C113.31001,223.84 114.845994,223.168007 115.974,221.824 C117.054005,220.551994 117.594,218.94401 117.594,217 C117.594,215.05599 117.054005,213.448006 115.974,212.176 C114.845994,210.831993 113.31001,210.16 111.366,210.16 C109.44599,210.16 107.886006,210.831993 106.686,212.176 C105.557994,213.448006 104.994,215.05599 104.994,217 C104.994,218.94401 105.557994,220.551994 106.686,221.824 C107.886006,223.168007 109.44599,223.84 111.366,223.84 Z M136.458,223.84 C138.882012,223.84 140.621995,222.83201 141.678,220.816 L144.63,220.816 C144.005997,222.448008 143.016007,223.767995 141.66,224.776 C140.303993,225.784005 138.558011,226.288 136.422,226.288 C133.709986,226.288 131.502009,225.388009 129.798,223.588 C128.141992,221.835991 127.314,219.640013 127.314,217 C127.314,214.335987 128.105992,212.140009 129.69,210.412 C131.370008,208.611991 133.553987,207.712 136.242,207.712 C138.930013,207.712 141.113992,208.611991 142.794,210.412 C144.378008,212.140009 145.17,214.335987 145.17,217 L145.17,218.08 L130.086,218.08 C130.278001,219.736008 130.937994,221.103995 132.066,222.184 C133.218006,223.288006 134.681991,223.84 136.458,223.84 Z M136.242,210.16 C134.585992,210.16 133.194006,210.675995 132.066,211.708 C131.009995,212.692005 130.362001,213.975992 130.122,215.56 L142.362,215.56 C142.122,213.975992 141.474005,212.692005 140.418,211.708 C139.289994,210.675995 137.898008,210.16 136.242,210.16 Z M165.078,226 L165.078,223.192 C164.429997,224.056004 163.638005,224.787997 162.702,225.388 C161.765995,225.988003 160.698006,226.288 159.498,226.288 C158.297994,226.288 157.266004,226.120002 156.402,225.784 C155.537996,225.447998 154.782003,224.944003 154.134,224.272 C152.645993,222.807993 151.902,220.876012 151.902,218.476 L151.902,208 L154.602,208 L154.602,218.404 C154.602,220.060008 155.069995,221.379995 156.006,222.364 C156.942005,223.348005 158.153993,223.84 159.642,223.84 C161.154008,223.84 162.437995,223.336005 163.494,222.328 C164.550005,221.295995 165.078,219.976008 165.078,218.368 L165.078,208 L167.778,208 L167.778,226 L165.078,226 Z M186.642,212.824 C186.401999,210.951991 184.896014,210.016 182.124,210.016 C179.351986,210.016 177.966,210.879991 177.966,212.608 C177.966,213.328004 178.259997,213.873998 178.848,214.246 C179.436003,214.618002 180.173996,214.923999 181.062,215.164 C181.950004,215.404001 182.915995,215.625999 183.96,215.83 C185.004005,216.034001 185.969996,216.321998 186.858,216.694 C187.746004,217.066002 188.483997,217.575997 189.072,218.224 C189.660003,218.872003 189.954,219.759994 189.954,220.888 C189.954,222.640009 189.294007,223.977995 187.974,224.902 C186.653993,225.826005 184.866011,226.288 182.61,226.288 C180.209988,226.288 178.302007,225.688006 176.886,224.488 C175.589994,223.431995 174.894,222.052009 174.798,220.348 L177.606,220.348 C177.774001,222.004008 178.709991,223.119997 180.414,223.696 C181.038003,223.888001 181.655997,223.984 182.268,223.984 C182.880003,223.984 183.449997,223.948 183.978,223.876 C184.506003,223.804 185.021997,223.672001 185.526,223.48 C186.678006,223.023998 187.254,222.244006 187.254,221.14 C187.254,220.395996 186.960003,219.826002 186.372,219.43 C185.783997,219.033998 185.046004,218.710001 184.158,218.458 C183.269996,218.205999 182.304005,217.978001 181.26,217.774 C180.215995,217.569999 179.250004,217.288002 178.362,216.928 C177.473996,216.567998 176.736003,216.076003 176.148,215.452 C175.559997,214.827997 175.266,213.964006 175.266,212.86 C175.266,211.227992 175.859994,209.962005 177.048,209.062 C178.236006,208.161995 179.993988,207.712 182.322,207.712 C184.530011,207.712 186.269994,208.239995 187.542,209.296 C188.598005,210.184004 189.209999,211.359993 189.378,212.824 L186.642,212.824 Z" id="Piraeus" stroke="#244BBF" fill="#244DCA" fill-rule="nonzero"></path>
    </g>
</svg>