<?xml version="1.0" encoding="UTF-8"?>
<svg width="256px" height="256px" viewBox="0 0 256 256" version="1.1" xmlns="http://www.w3.org/2000/svg" xmlns:xlink="http://www.w3.org/1999/xlink">
    <!-- Generator: Sketch 51.3 (57544) - http://www.bohemiancoding.com/sketch -->
    <title>cloud</title>
    <desc>Created with Sketch.</desc>
    <defs></defs>
    <g id="cloud" stroke="none" stroke-width="1" fill="none" fill-rule="evenodd">
        <g id="clouds-(1)" transform="translate(17.000000, 35.000000)">
            <g transform="translate(0.951513, 0.000000)" id="Shape">
                <path d="M93.3422934,24.4126596 C102.144524,24.4126596 109.855894,30.2935439 113.058959,39.011105 L107.243159,41.1498013 C104.902793,34.7801862 99.4366317,30.6115546 93.3422934,30.6115546 C91.8685879,30.6115546 90.366992,30.8716921 88.9205838,31.3618009 L84.8285725,32.7483601 L84.8285725,27.5121071 C84.8285725,14.0697477 75.2007067,3.30396632 63.5054574,3.30396632 C53.5641665,3.30396632 44.9436042,11.1066106 42.7343154,22.0690291 L42.0087252,25.6693839 L38.5831098,24.3485259 C37.452332,23.9125175 36.2968958,23.6989643 35.0480642,23.6989643 C31.2869148,23.6989643 27.8130902,25.785922 25.6234529,29.3173115 L24.408671,31.27648 L22.1837122,30.6759461 C20.9036411,30.3304448 19.6450288,30.1545238 18.3925701,30.1545238 C10.0182016,30.1545238 3.09813084,37.8924764 3.09813084,47.6214608 C3.09813084,57.3504452 10.0182016,65.0883978 18.3925701,65.0883978 L81.6283481,65.0883978 L81.6283481,71.2872928 L18.3925701,71.2872928 C6.4329306,71.2872928 -3.09813084,60.629757 -3.09813084,47.6214608 C-3.09813084,34.6131646 6.4329306,23.9556288 18.3925701,23.9556288 C19.4789549,23.9556288 20.5604122,24.0459319 21.6385348,24.2224391 C24.9580635,20.0176547 29.7846914,17.5000692 35.0480642,17.5000692 C35.8686981,17.5000692 36.6731039,17.5590504 37.4633562,17.6773334 C41.1777474,5.59571098 51.501734,-2.8949287 63.5054574,-2.8949287 C77.8793427,-2.8949287 89.5617969,9.21463353 90.8974992,24.5699712 C91.7092011,24.4659902 92.5259488,24.4126596 93.3422934,24.4126596 Z" fill="#A4A4A4" fill-rule="nonzero"></path>
                <path d="M126.142189,29.8175258 C140.450263,29.8175258 153.063397,35.865008 162.899739,47.1429403 L170.758553,59.1703783 C174.539926,67.2429486 176.25895,74.2160107 176.524556,82.4370055 C178.942761,81.9237151 181.41176,81.6630442 183.927117,81.6630442 C205.136361,81.6630442 222.200713,100.34052 222.200713,123.263158 C222.200713,133.632135 218.66622,143.440296 212.382806,151.056587 L209.467815,154.589924 L207.273937,150.568522 C203.8185,144.234667 197.646393,140.321014 190.887468,140.321014 C189.239557,140.321014 187.614518,140.541965 186.138986,140.96697 L183.913269,141.608053 L182.668849,139.653797 C179.896959,135.300779 175.470889,132.702688 170.660407,132.702688 C169.065762,132.702688 167.563265,132.978479 166.094052,133.528619 L162.70628,134.797153 L161.974049,131.253241 C159.230006,117.972392 148.488642,108.467209 136.092221,108.467209 C121.518721,108.467209 109.573825,121.541279 109.573825,137.783993 C109.613521,138.527325 109.620538,138.671975 109.620538,138.908847 L109.620538,143.26968 L105.503861,141.836005 C103.715855,141.213314 101.817143,140.883441 99.9357666,140.883441 C89.6109222,140.883441 81.1135114,150.129498 81.0316367,161.73457 L81.0099242,164.812142 L38.6940201,164.812142 C17.2512066,164.812142 0,145.930147 0,122.751861 C0,99.5721004 17.254092,80.6869477 38.6473063,80.7427095 C41.2731517,80.7427095 43.8175536,81.0078043 46.2767856,81.5389948 C52.1905434,73.4588198 61.1994408,68.5738403 70.973232,68.5738403 C73.2734909,68.5738403 75.5218962,68.8380366 77.7276499,69.3584601 C83.8886539,46.2446505 103.45271,29.8175258 126.142189,29.8175258 Z M126.142189,36.0164208 C105.445987,36.0164208 87.5669802,51.8460571 83.0232475,73.8844249 L82.3022861,77.3812882 L78.9429213,76.1757369 C76.3476555,75.2443923 73.7108285,74.7727354 70.973232,74.7727354 C62.6560973,74.7727354 54.9706728,79.2804523 50.2301466,86.7332502 L48.9871846,88.6873675 L46.7617752,88.048474 C44.1940155,87.3112951 41.4919249,86.9416046 38.639236,86.941594 C20.8009577,86.895107 6.19626168,102.880411 6.19626168,122.751861 C6.19626168,142.624784 20.8038431,158.613247 38.6940201,158.613247 L75.0162229,158.613247 C76.5096242,145.165037 87.0423514,134.684546 99.9357666,134.684546 C101.12156,134.684546 102.307745,134.779136 103.479469,134.963405 C104.802522,116.723022 118.846155,102.268314 136.092221,102.268314 C150.495306,102.268314 162.932701,112.413881 167.237317,126.807617 C168.354718,126.605602 169.494712,126.503793 170.660407,126.503793 C176.930975,126.503793 182.68903,129.500802 186.606578,134.501614 C188.000395,134.249559 189.440553,134.122119 190.887468,134.122119 C198.443879,134.122119 205.39182,137.715459 210.113458,143.668647 C213.907476,137.755906 216.004451,130.686989 216.004451,123.263158 C216.004451,103.645883 201.583725,87.8619392 183.927117,87.8619392 C180.654149,87.8619392 177.484821,88.3938418 174.411203,89.4362615 L170.318389,90.8243425 L170.318389,86.5009016 C170.318389,86.2112999 170.325013,85.9913552 170.344189,85.5086216 C170.360049,85.1093678 170.365102,84.9415789 170.365102,84.7624917 C170.365102,76.4828513 168.911065,69.8924996 165.329125,62.1885875 L158.089119,51.0565274 C149.423826,41.2000446 138.545053,36.0164208 126.142189,36.0164208 Z" fill="#717171" fill-rule="nonzero"></path>
                <path d="M77.8703303,148.876729 L83.4156326,151.642552 C81.9078198,154.668192 81.0720558,158.153583 81.0315167,161.747667 L80.9969512,164.812142 L38.6940201,164.812142 C17.2512066,164.812142 0,145.930147 0,122.751861 C0,99.56364 17.2619836,80.6869792 38.6940201,80.7427095 C39.8675478,80.7427095 40.3813197,80.7519282 41.0682254,80.8020509 L40.6174812,86.9845226 C40.1314652,86.9490586 39.7160394,86.9416046 38.6859689,86.9415941 C20.8074868,86.8951129 6.19626168,102.873065 6.19626168,122.751861 C6.19626168,142.624784 20.8038431,158.613247 38.6940201,158.613247 L75.0248628,158.613247 C75.412261,155.174252 76.3816372,151.864003 77.8703303,148.876729 Z" fill="#717171" fill-rule="nonzero"></path>
                <path d="M37.526176,55.4757273 C37.526176,42.8466907 39.301299,30.6778215 42.5712626,19.2247682 C39.0210165,19.940584 35.9846217,22.1902909 33.9759298,25.3092028 C32.6212306,24.9512948 31.2198176,24.746776 29.7716909,24.746776 C20.4756516,24.746776 12.9547353,32.9786581 12.9547353,43.1534689 C12.9547353,53.3282798 20.4756516,61.5601619 29.7716909,61.5601619 L37.6663173,61.5601619 C37.5728897,59.5149738 37.526176,57.5209154 37.526176,55.4757273 Z"></path>
                <path d="M190.887468,134.122119 C205.004516,134.122119 216.268065,146.468299 216.268065,161.661564 C216.268065,176.761358 204.949506,189.14988 190.887468,189.14988 L99.9357666,189.14988 C85.9821659,189.14988 74.7887384,176.88038 74.7887384,161.917213 C74.7887384,146.936414 85.9988341,134.684546 99.9357666,134.684546 C101.124934,134.684546 102.306028,134.779426 103.479297,134.965781 C104.801303,116.724277 118.845406,102.268314 136.092221,102.268314 C150.526368,102.268314 162.93695,112.401576 167.238877,126.810564 C168.363338,126.607321 169.50856,126.503793 170.660407,126.503793 C176.930975,126.503793 182.68903,129.500802 186.606578,134.501614 C188.000395,134.249559 189.440553,134.122119 190.887468,134.122119 Z M190.887468,140.321014 C189.239557,140.321014 187.614518,140.541965 186.138986,140.96697 L183.913269,141.608053 L182.668849,139.653797 C179.896959,135.300779 175.470889,132.702688 170.660407,132.702688 C169.094001,132.702688 167.545303,132.985205 166.094052,133.528619 L162.70628,134.797153 L161.974049,131.253241 C159.226148,117.95372 148.518178,108.467209 136.092221,108.467209 C121.518721,108.467209 109.573825,121.541279 109.573825,137.783993 C109.573825,138.208447 109.578822,138.367086 109.600513,138.557016 L110.155909,143.420203 L105.524121,141.842982 C103.658158,141.207583 101.802305,140.883441 99.9357666,140.883441 C89.5492586,140.883441 80.9850001,150.24359 80.9850001,161.917213 C80.9850001,173.576825 89.537017,182.950985 99.9357666,182.950985 L190.887468,182.950985 C201.39687,182.950985 210.071803,173.455995 210.071803,161.661564 C210.071803,149.771871 201.449687,140.321014 190.887468,140.321014 Z" fill="#5090FC" fill-rule="nonzero"></path>
            </g>
        </g>
    </g>
</svg>