<?xml version="1.0" encoding="UTF-8"?>
<svg width="256px" height="256px" viewBox="0 0 256 256" version="1.1" xmlns="http://www.w3.org/2000/svg" xmlns:xlink="http://www.w3.org/1999/xlink">
    <!-- Generator: Sketch 51.3 (57544) - http://www.bohemiancoding.com/sketch -->
    <title>high-performance</title>
    <desc>Created with Sketch.</desc>
    <defs></defs>
    <g id="high-performance" stroke="none" stroke-width="1" fill="none" fill-rule="evenodd">
        <g id="dashboard-(3)" transform="translate(18.000000, 26.000000)">
            <g>
                <g id="Group" fill="#A4A4A4" fill-rule="nonzero">
                    <path d="M25.7853633,144.236379 C24.9936525,142.302722 22.7707392,141.364399 20.8216474,142.159123 L6.81319698,147.834926 C7.69244436,150.207524 8.62128147,152.561261 9.66050962,154.854129 L23.6952642,149.170611 C25.6409063,148.379745 26.577074,146.173893 25.7853633,144.236379" id="Shape"></path>
                    <path d="M34.2591692,109.97195 C34.2591692,107.88312 32.5537139,106.187795 30.4524032,106.187795 L0.0948672997,106.187795 C0.0534706598,107.448037 0,108.703992 0,109.97195 C0,111.247194 0.12160263,112.492004 0.1638617,113.756104 L30.4528344,113.756104 C32.5541451,113.755675 34.2591692,112.060779 34.2591692,109.97195" id="Shape"></path>
                    <path d="M26.1907054,74.7314763 C27.0052705,72.8055354 26.0992878,70.5842523 24.1618388,69.7745255 L10.1917665,63.9281185 C9.12580302,66.2098418 8.1361646,68.5331446 7.23018188,70.8980267 L21.2041351,76.7517209 C21.6875271,76.9523308 22.1898926,77.0470632 22.6810465,77.0470632 C24.1657197,77.0474919 25.5779489,76.177325 26.1907054,74.7314763" id="Shape"></path>
                    <path d="M29.7055388,35.1165925 L40.4095888,45.7570619 C41.1517098,46.4947748 42.1262557,46.862131 43.1008016,46.862131 C44.0714665,46.862131 45.0460124,46.4952034 45.7920144,45.7570619 C47.2766876,44.2773495 47.2766876,41.8824616 45.7920144,40.4027492 L35.0879645,29.765709 C33.2341712,31.4876107 31.4372983,33.2738104 29.7055388,35.1165925" id="Shape"></path>
                    <path d="M70.9590153,23.7919918 C71.5605603,25.2601306 72.984001,26.1495869 74.4876477,26.1495869 C74.9632778,26.1495869 75.4505508,26.0587123 75.9227312,25.8696761 C77.8679421,25.0788101 78.8041098,22.8729584 78.0123991,20.935444 L72.2798269,6.95704864 C69.8891709,7.83107342 67.5519856,8.80754642 65.2415357,9.8406017 L70.9590153,23.7919918 Z" id="Shape"></path>
                    <path d="M110.39104,34.2922915 C112.49235,34.2922915 114.197806,32.5969663 114.197806,30.5081371 L114.197806,0.330920613 C112.930034,0.28934121 111.666574,0.236188158 110.39104,0.236188158 C109.115937,0.236188158 107.852046,0.28934121 106.584274,0.330920613 L106.584274,30.5081371 C106.584274,32.5969663 108.289729,34.2922915 110.39104,34.2922915" id="Shape"></path>
                    <path d="M145.841656,26.2717532 C146.325048,26.476221 146.823964,26.5705248 147.318567,26.5705248 C148.803241,26.5705248 150.21547,25.7003579 150.828226,24.2549378 L156.709568,10.3678457 C154.41421,9.30821387 152.077025,8.32445376 149.698012,7.42385246 L143.80934,21.3148024 C142.994343,23.2446011 143.904207,25.4620264 145.841656,26.2717532" id="Shape"></path>
                    <path d="M185.693684,29.765709 L174.989634,40.4061784 C173.504961,41.8820329 173.504961,44.2773495 174.989634,45.7566332 C175.735636,46.4943461 176.710182,46.8651315 177.684728,46.8651315 C178.655393,46.8651315 179.629938,46.4943461 180.37594,45.7566332 L191.076109,35.1161638 C189.34435,33.2733818 187.547477,31.4871821 185.693684,29.765709" id="Shape"></path>
                </g>
                <g id="Group" transform="translate(185.513514, 65.148810)" fill="#A4A4A4" fill-rule="nonzero">
                    <path d="M13.6700122,12.8746727 L27.7310149,7.25938475 C26.8481608,4.912426 25.8661581,2.6216793 24.8276838,0.357136709 L10.7972878,5.96101319 C8.85268108,6.74079689 7.91680405,8.91573832 8.70826892,10.8261027 C9.30962703,12.2736687 10.7365054,13.1506612 12.2358054,13.1506612 C12.7151676,13.1506612 13.1984095,13.06106 13.6700122,12.8746727" id="Shape"></path>
                    <path d="M34.4864865,44.6112354 C34.4864865,43.3614683 34.4330324,42.1226899 34.3912176,40.8801078 L4.04310946,40.8801078 C1.94245135,40.8801078 0.237525676,42.5516766 0.237525676,44.6112354 C0.237525676,46.6707942 1.94245135,48.3423631 4.04310946,48.3423631 L34.3226757,48.3423631 C34.3644905,47.0959771 34.4864865,45.8686102 34.4864865,44.6112354" id="Shape"></path>
                    <path d="M27.1964743,83.11015 L13.2876432,77.368068 C11.3469162,76.5696878 9.12081351,77.4576691 8.30262162,79.3566221 C7.48830946,81.255575 8.39789054,83.4457317 10.3308581,84.2441119 L24.2698649,90.0009866 C25.3354973,87.7478555 26.2868932,85.4418935 27.1964743,83.11015" id="Shape"></path>
                </g>
                <path d="M110,1.77635684e-15 L110,3.55357143 C51.2202637,3.55357143 3.56756757,51.046562 3.56756757,109.631341 C3.56756757,133.283459 11.3758754,155.744015 25.5287595,174.125 L194.471241,174.125 C208.624125,155.744015 216.432432,133.283459 216.432432,109.631341 C216.432432,51.046562 168.779736,3.55357143 110,3.55357143 L110,1.77635684e-15 Z M110,0 L110,-3.55357143 C172.721279,-3.55357143 223.567568,47.122308 223.567568,109.631341 C223.567568,135.482771 214.817732,160.016499 199.009361,179.88571 L197.938111,181.232143 L22.0618893,181.232143 L20.9906386,179.88571 C5.182268,160.016499 -3.56756757,135.482771 -3.56756757,109.631341 C-3.56756757,47.122308 47.2787206,-3.55357143 110,-3.55357143 L110,0 Z" id="Shape" fill="#717171" fill-rule="nonzero"></path>
                <path d="M74.9189189,163.464286 C72.9486058,163.464286 71.3513514,161.873298 71.3513514,159.910714 L71.3513514,137.404762 C71.3513514,135.442179 72.9486058,133.85119 74.9189189,133.85119 L142.702703,133.85119 C144.673016,133.85119 146.27027,135.442179 146.27027,137.404762 L146.27027,159.910714 C146.27027,161.873298 144.673016,163.464286 142.702703,163.464286 L74.9189189,163.464286 Z M78.4864865,156.357143 L139.135135,156.357143 L139.135135,140.958333 L78.4864865,140.958333 L78.4864865,156.357143 Z" id="Shape" fill="#717171" fill-rule="nonzero"></path>
                <path d="M107.978895,81.023597 C108.260194,80.8870393 108.260194,80.8870393 108.541322,80.750575 C118.331768,75.9980748 122.695152,73.7464479 127.833582,70.6056967 L145.59365,59.7509195 C148.759235,57.8161455 152.415838,61.3867941 150.536675,64.577751 L139.881748,82.670607 C136.784539,87.9305438 134.574018,92.3774549 129.875567,102.422409 C129.788676,102.608177 129.788676,102.608177 129.70175,102.794014 C128.314639,105.759412 127.589363,107.299408 126.745175,109.059761 C123.005191,116.861841 114.476306,121.164448 105.750598,119.13302 C99.0059001,117.563781 93.584441,112.042201 92.054999,105.214417 C90.085256,96.41754 94.2753381,87.7954885 101.936502,83.9837518 C103.645175,83.1329532 105.191122,82.3770042 107.978895,81.023597 Z M99.0189588,103.666994 C99.9552574,107.846848 103.314062,111.267681 107.374017,112.212281 C112.774271,113.469512 117.984533,110.841066 120.30661,105.996921 C121.138247,104.26274 121.856372,102.737927 123.234187,99.7924024 C123.321053,99.6066931 123.321053,99.6066931 123.407947,99.4209191 C128.200972,89.1737713 130.478584,84.5918951 133.727219,79.0747935 L137.161639,73.2428944 L131.565284,76.6633304 C126.165793,79.9636497 121.663486,82.2869647 111.667095,87.1394353 C111.385953,87.2759062 111.385953,87.2759062 111.104967,87.4123122 C108.337299,88.7559587 106.807787,89.5038724 105.126328,90.3411233 C100.377996,92.7034139 97.7670305,98.0758791 99.0189588,103.666994 Z" id="Shape" fill="#5090FC" fill-rule="nonzero"></path>
                <path d="M35.6756757,201.23142 C33.7053625,201.23142 32.1081081,199.640432 32.1081081,197.677849 C32.1081081,195.715265 33.7053625,194.124277 35.6756757,194.124277 L186.702703,194.124277 C188.673016,194.124277 190.27027,195.715265 190.27027,197.677849 C190.27027,199.640432 188.673016,201.23142 186.702703,201.23142 L35.6756757,201.23142 Z" id="Path-2" fill="#717171" fill-rule="nonzero"></path>
            </g>
        </g>
    </g>
</svg>