<?xml version="1.0" encoding="UTF-8"?>
<svg width="256px" height="256px" viewBox="0 0 256 256" version="1.1" xmlns="http://www.w3.org/2000/svg" xmlns:xlink="http://www.w3.org/1999/xlink">
    <!-- Generator: Sketch 51.3 (57544) - http://www.bohemiancoding.com/sketch -->
    <title>high-available</title>
    <desc>Created with Sketch.</desc>
    <defs></defs>
    <g id="high-available" stroke="none" stroke-width="1" fill="none" fill-rule="evenodd">
        <g id="database-(1)" transform="translate(18.000000, 22.000000)">
            <g transform="translate(-3.476923, -3.407767)">
                <g id="Group-2" transform="translate(141.394872, 124.951456)" fill="#A4A4A4" fill-rule="nonzero">
                    <path d="M44.0410256,59.4558371 C64.7295043,59.4558371 81.1282051,52.4105303 81.1282051,45.4368932 L88.0820366,45.4468056 L88.005327,71.2939606 L87.9759128,71.5117004 C86.4216108,83.0174819 67.1139313,90.8737864 44.0410256,90.8737864 C20.9897658,90.8737864 1.68138338,83.0274603 0.033842691,71.5387171 L0,71.302723 L0,45.4368932 L6.95384615,45.4368932 C6.95384615,52.4105303 23.352547,59.4558371 44.0410256,59.4558371 Z M81.1282198,45.4269808 L88.0820513,45.4368932 C88.0820513,49.847509 85.5093253,53.7785391 81.093858,57.0051379 L81.1282198,45.4269808 Z M44.0410256,66.2713711 C28.5680521,66.2713711 14.8205826,62.7476236 6.95384615,56.9799973 L6.95384615,70.7948531 C8.22931735,77.6104464 24.2919019,84.0582524 44.0410256,84.0582524 C63.806643,84.0582524 79.8583936,77.6005077 81.0529003,70.8057743 L81.093858,57.0051379 C73.2214931,62.7578618 59.4915047,66.2713711 44.0410256,66.2713711 Z" id="Shape"></path>
                    <path d="M0,49.4818849 L0,20.4466019 L6.95384615,20.4466019 C6.95384615,27.4202391 23.352547,34.4655458 44.0410256,34.4655458 C64.7295043,34.4655458 81.1282051,27.4202391 81.1282051,20.4466019 L88.0820513,20.4466019 L88.0820513,49.4818849 L87.1581838,49.4818849 C82.9814846,59.353736 65.075987,65.8834951 44.0410256,65.8834951 C23.0060643,65.8834951 5.10056665,59.353736 0.923867472,49.4818849 L0,49.4818849 Z M44.0410256,41.2810798 C28.5680521,41.2810798 14.8205826,37.7573324 6.95384615,31.9897061 L6.95384615,45.2864807 L6.9998231,45.6268268 C7.92698543,52.4901823 24.0925562,59.0679612 44.0410256,59.0679612 C63.9894951,59.0679612 80.1550658,52.4901823 81.0822282,45.6268268 L81.1282051,45.2864807 L81.1282051,31.9897061 C73.2614687,37.7573324 59.5139992,41.2810798 44.0410256,41.2810798 Z" id="Shape"></path>
                    <path d="M43.3666727,42.0291262 C19.343587,42.0291262 0,33.4245591 0,21.0145631 C0,8.60456712 19.343587,0 43.3666727,0 C67.6658283,0 88.0820513,8.67341801 88.0820513,21.0145631 C88.0820513,33.3557082 67.6658283,42.0291262 43.3666727,42.0291262 Z M43.3666727,35.2135922 C64.227976,35.2135922 81.1282051,28.0338728 81.1282051,21.0145631 C81.1282051,13.9952534 64.227976,6.81553398 43.3666727,6.81553398 C22.7438133,6.81553398 6.95384615,13.8393518 6.95384615,21.0145631 C6.95384615,28.1897744 22.7438133,35.2135922 43.3666727,35.2135922 Z" id="Oval"></path>
                </g>
                <g id="Group-2" transform="translate(0.000000, 123.815534)" fill="#A4A4A4" fill-rule="nonzero">
                    <path d="M44.0410256,60.5917594 C64.7295043,60.5917594 81.1282051,53.5464527 81.1282051,46.5728155 L88.0820366,46.5827279 L88.005327,72.429883 L87.9759128,72.6476227 C86.4216108,84.1534043 67.1139313,92.0097087 44.0410256,92.0097087 C20.9897658,92.0097087 1.68138338,84.1633826 0.033842691,72.6746395 L0,72.4386453 L0,46.5728155 L6.95384615,46.5728155 C6.95384615,53.5464527 23.352547,60.5917594 44.0410256,60.5917594 Z M81.1282198,46.5629031 L88.0820513,46.5728155 C88.0820513,50.9834313 85.5093253,54.9144614 81.093858,58.1410603 L81.1282198,46.5629031 Z M44.0410256,67.4072934 C28.5680521,67.4072934 14.8205826,63.8835459 6.95384615,58.1159197 L6.95384615,71.9307754 C8.22931735,78.7463688 24.2919019,85.1941748 44.0410256,85.1941748 C63.806643,85.1941748 79.8583936,78.73643 81.0529003,71.9416966 L81.093858,58.1410603 C73.2214931,63.8937841 59.4915047,67.4072934 44.0410256,67.4072934 Z" id="Shape"></path>
                    <path d="M0.923867472,50.6178072 L0,50.6178072 L0,21.5825243 L6.95384615,21.5825243 C6.95384615,28.5561614 23.352547,35.6014682 44.0410256,35.6014682 C64.7295043,35.6014682 81.1282051,28.5561614 81.1282051,21.5825243 L88.0820513,21.5825243 L88.0820513,50.6178072 L87.1581838,50.6178072 C82.9814846,60.4896583 65.075987,67.0194175 44.0410256,67.0194175 C23.0060643,67.0194175 5.10056665,60.4896583 0.923867472,50.6178072 Z M44.0410256,42.4170021 C28.5680521,42.4170021 14.8205826,38.8932547 6.95384615,33.1256284 L6.95384615,46.422403 L6.9998231,46.7627491 C7.92698543,53.6261046 24.0925562,60.2038835 44.0410256,60.2038835 C63.9894951,60.2038835 80.1550658,53.6261046 81.0822282,46.7627491 L81.1282051,46.422403 L81.1282051,33.1256284 C73.2614687,38.8932547 59.5139992,42.4170021 44.0410256,42.4170021 Z" id="Shape"></path>
                    <path d="M43.3666727,42.0291262 C19.343587,42.0291262 0,33.4245591 0,21.0145631 C0,8.60456712 19.343587,0 43.3666727,0 C67.6658283,0 88.0820513,8.67341801 88.0820513,21.0145631 C88.0820513,33.3557082 67.6658283,42.0291262 43.3666727,42.0291262 Z M43.3666727,35.2135922 C64.227976,35.2135922 81.1282051,28.0338728 81.1282051,21.0145631 C81.1282051,13.9952534 64.227976,6.81553398 43.3666727,6.81553398 C22.7438133,6.81553398 6.95384615,13.8393518 6.95384615,21.0145631 C6.95384615,28.1897744 22.7438133,35.2135922 43.3666727,35.2135922 Z" id="Oval"></path>
                </g>
                <g id="Group-2" transform="translate(69.538462, 0.000000)" fill="#717171" fill-rule="nonzero">
                    <path d="M44.0410256,59.4558371 C64.7295043,59.4558371 81.1282051,52.4105303 81.1282051,45.4368932 L88.0820366,45.4468056 L88.005327,71.2939606 L87.9759128,71.5117004 C86.4216108,83.0174819 67.1139313,90.8737864 44.0410256,90.8737864 C20.9897658,90.8737864 1.68138338,83.0274603 0.033842691,71.5387171 L0,71.302723 L0,45.4368932 L6.95384615,45.4368932 C6.95384615,52.4105303 23.352547,59.4558371 44.0410256,59.4558371 Z M81.1282198,45.4269808 L88.0820513,45.4368932 C88.0820513,49.847509 85.5093253,53.7785391 81.093858,57.0051379 L81.1282198,45.4269808 Z M44.0410256,66.2713711 C28.5680521,66.2713711 14.8205826,62.7476236 6.95384615,56.9799973 L6.95384615,70.7948531 C8.22931735,77.6104464 24.2919019,84.0582524 44.0410256,84.0582524 C63.806643,84.0582524 79.8583936,77.6005077 81.0529003,70.8057743 L81.093858,57.0051379 C73.2214931,62.7578618 59.4915047,66.2713711 44.0410256,66.2713711 Z" id="Shape"></path>
                    <path d="M0,49.4818849 L0,20.4466019 L6.95384615,20.4466019 C6.95384615,27.4202391 23.352547,34.4655458 44.0410256,34.4655458 C64.7295043,34.4655458 81.1282051,27.4202391 81.1282051,20.4466019 L88.0820513,20.4466019 L88.0820513,49.4818849 L87.1581838,49.4818849 C82.9814846,59.353736 65.075987,65.8834951 44.0410256,65.8834951 C23.0060643,65.8834951 5.10056665,59.353736 0.923867472,49.4818849 L0,49.4818849 Z M44.0410256,41.2810798 C28.5680521,41.2810798 14.8205826,37.7573324 6.95384615,31.9897061 L6.95384615,45.2864807 L6.9998231,45.6268268 C7.92698543,52.4901823 24.0925562,59.0679612 44.0410256,59.0679612 C63.9894951,59.0679612 80.1550658,52.4901823 81.0822282,45.6268268 L81.1282051,45.2864807 L81.1282051,31.9897061 C73.2614687,37.7573324 59.5139992,41.2810798 44.0410256,41.2810798 Z" id="Shape"></path>
                    <path d="M43.3666727,42.0291262 C19.343587,42.0291262 0,33.4245591 0,21.0145631 C0,8.60456712 19.343587,0 43.3666727,0 C67.6658283,0 88.0820513,8.67341801 88.0820513,21.0145631 C88.0820513,33.3557082 67.6658283,42.0291262 43.3666727,42.0291262 Z M43.3666727,35.2135922 C64.227976,35.2135922 81.1282051,28.0338728 81.1282051,21.0145631 C81.1282051,13.9952534 64.227976,6.81553398 43.3666727,6.81553398 C22.7438133,6.81553398 6.95384615,13.8393518 6.95384615,21.0145631 C6.95384615,28.1897744 22.7438133,35.2135922 43.3666727,35.2135922 Z" id="Oval"></path>
                </g>
                <path d="M188.335771,104.621055 C187.248643,103.069655 187.650533,100.948235 189.233417,99.8827301 C190.8163,98.8172257 192.980772,99.2111219 194.067899,100.762522 L201.69099,111.641157 C202.538735,112.850943 202.500979,114.456806 201.597277,115.627035 L193.974186,125.498389 C192.815301,126.999062 190.634615,127.294822 189.103487,126.158987 C187.57236,125.023152 187.270598,122.88584 188.429484,121.385167 L194.539119,113.473628 L188.335771,104.621055 Z" id="Path-5" fill="#5090FC" fill-rule="nonzero" transform="translate(195.013218, 113.066718) rotate(-270.000000) translate(-195.013218, -113.066718) "></path>
                <path d="M26.0793605,104.621055 C24.9922331,103.069655 25.3941228,100.948235 26.9770064,99.8827301 C28.5598899,98.8172257 30.7243614,99.2111219 31.8114887,100.762522 L39.4345794,111.641157 C40.2823244,112.850943 40.2445686,114.456806 39.3408666,115.627035 L31.7177759,125.498389 C30.5588906,126.999062 28.3782044,127.294822 26.8470771,126.158987 C25.3159497,125.023152 25.014188,122.88584 26.1730733,121.385167 L32.282709,113.473628 L26.0793605,104.621055 Z" id="Path-5" fill="#5090FC" fill-rule="nonzero" transform="translate(32.756808, 113.066718) rotate(-270.000000) translate(-32.756808, -113.066718) "></path>
                <path d="M171.417383,54.9957391 C169.497132,54.9957391 167.94046,53.4700298 167.94046,51.5879721 C167.94046,49.7059143 169.497132,48.1802051 171.417383,48.1802051 L194.596871,48.1802051 C196.517122,48.1802051 198.073794,49.7059143 198.073794,51.5879721 L198.073794,117 C198.073794,118.882058 196.517122,120.407767 194.596871,120.407767 C192.676619,120.407767 191.119948,118.882058 191.119948,117 L191.119948,54.9957391 L171.417383,54.9957391 Z" id="Path-3" fill="#5090FC" fill-rule="nonzero"></path>
                <path d="M35.8173834,54.9957391 L35.8173834,117 C35.8173834,118.882058 34.2607119,120.407767 32.3404603,120.407767 C30.4202088,120.407767 28.8635373,118.882058 28.8635373,117 L28.8635373,51.5879721 C28.8635373,49.7059143 30.4202088,48.1802051 32.3404603,48.1802051 L55.5199475,48.1802051 C57.4401991,48.1802051 58.9968706,49.7059143 58.9968706,51.5879721 C58.9968706,53.4700298 57.4401991,54.9957391 55.5199475,54.9957391 L35.8173834,54.9957391 Z" id="Path-3" fill="#5090FC" fill-rule="nonzero"></path>
            </g>
        </g>
    </g>
</svg>