<?xml version="1.0" encoding="UTF-8"?>
<svg width="256px" height="256px" viewBox="0 0 256 256" version="1.1" xmlns="http://www.w3.org/2000/svg" xmlns:xlink="http://www.w3.org/1999/xlink">
    <!-- Generator: Sketch 51.3 (57544) - http://www.bohemiancoding.com/sketch -->
    <title>linux</title>
    <desc>Created with Sketch.</desc>
    <defs></defs>
    <g id="linux" stroke="none" stroke-width="1" fill="none" fill-rule="evenodd">
        <g id="Group-3" transform="translate(23.000000, 25.000000)">
            <g transform="translate(155.562500, 106.000000) scale(-1, 1) translate(-155.562500, -106.000000) translate(102.125000, 0.000000)">
                <path d="M105.6875,-3.55307263 L105.6875,3.55307263 C87.5983971,3.55307263 70.5766706,12.639669 62.8579013,22.5145002 C56.4619481,30.697017 52.9324957,41.6053886 52.9324957,57.8181217 C52.9324957,70.1178417 51.8254787,75.3937809 48.5365296,80.7512421 C48.5875276,80.66817 45.3959457,85.5478915 44.3584035,87.3853496 C39.0859772,96.7226683 35.7804702,107.495956 34.6854552,120.278748 C33.9091949,129.340518 34.9539937,139.486115 37.8429819,150.714626 L30.9415829,152.480905 C27.863634,140.517968 26.7375022,129.58258 27.5863178,119.673827 C28.7676974,105.882847 32.3749268,94.126188 38.1501992,83.8983431 C39.3242385,81.8191524 42.6190678,76.7815724 42.4600486,77.0406033 C44.9578881,72.9718026 45.8074957,68.9226525 45.8074957,57.8181217 C45.8074957,40.067001 49.8361762,27.6156803 57.2387118,18.1454154 C66.2525339,6.61378786 85.2978961,-3.55307263 105.6875,-3.55307263 Z" id="Path-6" fill="#717171" fill-rule="nonzero"></path>
                <path d="M102.362637,66.9924255 L95.4754326,65.1718665 C97.7992371,56.4273424 97.8766819,51.230807 96.3557492,43.3585368 C95.3002138,37.8951395 88.5355145,33.1728205 83.2339569,34.6249959 C78.1869716,36.0074402 75.3612225,43.3702848 76.1162603,53.246947 C76.585249,59.3817959 78.1292224,64.2217748 80.6889498,67.8217739 L74.8770258,71.932416 C71.5083683,67.194738 69.5730632,61.1280301 69.01188,53.7871826 C68.0288134,40.9276722 72.1060926,30.3038084 81.3470062,27.7725849 C90.8352057,25.1736261 101.542577,32.648256 103.352049,42.0139872 C105.067653,50.8938689 104.974192,57.165088 102.362637,66.9924255 Z" id="Path-10" fill="#717171" fill-rule="nonzero"></path>
                <path d="M85.322692,79.6916391 L90.9489332,84.0516875 C79.8233943,98.3322898 73.0999836,107.572494 70.9306211,111.518626 C66.8771048,118.892087 64.8598396,126.278562 65.3943922,134.794762 L58.2833131,135.238757 C57.6563379,125.250131 60.0258529,116.573847 64.683075,108.102228 C67.1074587,103.692205 73.936691,94.3065671 85.322692,79.6916391 Z" id="Path-13" fill="#979797" fill-rule="nonzero"></path>
                <path d="M69.2566499,202.940781 L75.6183501,199.740783 C77.9518698,204.355377 87.3979819,208.446927 93.4090143,208.446927 L105.6875,208.446927 L105.6875,215.553073 L93.4090143,215.553073 C84.9814031,215.553073 73.0129634,210.368985 69.2566499,202.940781 Z" id="Path-14" fill="#979797" fill-rule="nonzero"></path>
                <path d="M39.5280239,137.821046 C42.0371541,131.942707 48.496446,126.726257 55.2333447,126.726257 C62.7311103,126.726257 70.3874656,134.952389 71.7958963,143.087175 C72.466669,146.961411 72.9147749,151.147466 73.4314744,157.81091 C73.5287749,159.065714 73.6272848,160.384439 73.7642285,162.253212 C73.8032588,162.785831 73.8498927,163.424246 73.9381432,164.632548 C74.0101872,165.618078 74.0656768,166.3738 74.1214479,167.127475 C74.4114061,171.045888 74.9280095,173.60768 75.9961665,177.289012 C76.0729124,177.553512 76.393201,178.646095 76.4755612,178.930143 C77.4808266,182.397153 77.971155,184.763859 78.2115852,188.047829 C78.7113827,194.874426 78.1444231,198.0816 76.243835,201.685018 C76.14184,201.878395 75.7898287,202.533933 75.7227544,202.660468 C73.354616,207.12793 67.4062775,210.544733 59.0308621,211.672488 C50.9717786,212.757649 45.1694424,211.454217 33.7234221,206.927943 C31.0810059,205.883013 27.443312,205.036493 22.006325,204.098762 C20.5940772,203.855189 15.855228,203.079061 15.3141286,202.987937 C8.86716414,201.902231 5.78344085,201.145409 3.70267367,199.738649 C-1.12216881,196.476681 -3.5625,191.506904 -3.5625,185.64251 C-3.5625,179.149539 0.613398008,172.728914 7.18493782,170.559462 C9.28493927,169.866192 11.4260165,169.427861 13.6025976,169.244244 C12.070543,166.158607 11.0916747,163.617647 10.6628252,161.568776 C9.26857461,154.907609 9.94580129,149.613221 14.3809518,145.493731 C19.0718594,141.136686 24.0901499,141.567198 31.7044196,144.829235 C33.5981201,145.640518 35.8796076,146.544007 38.5461738,147.53822 C38.2270367,143.36925 38.5272783,140.165573 39.5280239,137.821046 Z M69.938088,198.376691 C71.1792554,196.023501 71.5132261,194.134298 71.1055043,188.565338 C70.9067448,185.850537 70.5101459,183.936242 69.6310122,180.904242 C69.5524708,180.633364 69.2324318,179.541632 69.1519881,179.264388 C67.9567404,175.145047 67.3463908,172.118376 67.0157736,167.650508 C66.9598206,166.894376 66.9041895,166.136726 66.832005,165.149273 C66.7437012,163.940243 66.6971415,163.302844 66.658182,162.771191 C66.5219091,160.911572 66.424052,159.601586 66.3276867,158.358843 C65.8268917,151.900505 65.3985205,147.898806 64.7748045,144.296359 C63.9046979,139.270815 58.842973,133.832402 55.2333447,133.832402 C51.6598887,133.832402 47.5615768,137.142152 46.0836959,140.604501 C45.3342817,142.360213 45.3342817,146.353533 46.3202312,152.27499 C46.7643421,154.94225 44.1773546,157.107202 41.6207838,156.207779 C36.3726323,154.361435 32.1336891,152.74713 28.8923457,151.358503 C23.6527974,149.113823 21.1675859,148.90062 19.236778,150.694008 C17.0761999,152.700812 16.7003239,155.639317 17.637471,160.116628 C18.1055295,162.352822 19.8132537,166.108555 22.7490525,171.191401 C24.232165,173.759164 22.0974379,176.902761 19.1563301,176.482041 C15.7784456,175.998841 12.5489374,176.273971 9.42387776,177.305642 C5.91505557,178.464004 3.5625,182.081161 3.5625,185.64251 C3.5625,189.230331 4.90662714,191.967669 7.70054452,193.856574 C8.54125376,194.424959 11.3412353,195.112143 16.5004107,195.980978 C17.0136971,196.067418 21.7720689,196.846743 23.2204314,197.096546 C29.1164564,198.113448 33.1207153,199.04527 36.3495526,200.322098 C46.7468413,204.433656 51.5403765,205.510472 58.0775794,204.630233 C64.3551454,203.784955 68.2545378,201.545093 69.4238685,199.339166 C69.5042071,199.187608 69.851527,198.540807 69.938088,198.376691 Z" id="Path-8" fill="#717171" fill-rule="nonzero"></path>
                <path d="M86.3892387,76.4617017 C86.9422399,76.9670528 87.5346787,77.4951163 88.1742549,78.053963 C89.221241,78.968795 94.4469449,83.3671118 95.2377705,84.1192536 C95.1569506,84.0423871 97.8637432,86.7375413 98.7834835,87.5608099 C101.455945,89.9529564 103.771491,91.1955307 105.843461,91.1955307 L105.843461,98.301676 C101.606655,98.301676 97.8838564,96.3039385 94.0244826,92.8493749 C92.9359501,91.8750187 90.1179612,89.0691462 90.3206612,89.261931 C89.7149298,88.6858293 84.6728573,84.4420695 83.4790867,83.3989807 C82.8016839,82.807082 82.1703098,82.244314 81.5758662,81.7010914 C78.5330971,78.9205062 76.5259337,76.7380202 75.5122774,74.825761 C73.7858391,71.568841 75.2426809,68.64306 78.2639864,66.815205 C79.8479039,65.8569532 81.6198319,65.2045247 84.8878533,64.2113832 C84.9539451,64.1912981 86.2826694,63.789784 86.6546689,63.6756706 C87.9459065,63.2795743 88.8032946,62.9910144 89.4883008,62.7129067 C92.0177509,61.6859677 94.8554893,61.433947 98.3998894,61.6641188 C99.5404674,61.7381874 100.58394,61.8442262 102.280366,62.0428851 C105.138667,62.3776047 105.898726,62.450695 106.875,62.450695 L106.875,69.5568403 C105.496246,69.5568403 104.655774,69.4760172 101.449491,69.1005473 C99.8676548,68.9153074 98.9222242,68.8192317 97.9369476,68.7552483 C95.3721645,68.5886924 93.5049772,68.7545181 92.1746326,69.2946287 C91.2476184,69.6709899 90.226392,70.0146908 88.7492758,70.4678066 C88.3602641,70.5871387 87.0180717,70.9927225 86.9645966,71.0089735 C84.8158229,71.6619791 83.4674992,72.1311059 82.5576693,72.5697503 C83.3627524,73.5575367 84.6739678,74.8942293 86.3892387,76.4617017 Z" id="Path-11" fill="#5090FC" fill-rule="nonzero"></path>
            </g>
            <g>
                <path d="M105.6875,-3.55307263 L105.6875,3.55307263 C87.5983971,3.55307263 70.5766706,12.639669 62.8579013,22.5145002 C56.4619481,30.697017 52.9324957,41.6053886 52.9324957,57.8181217 C52.9324957,70.1178417 51.8254787,75.3937809 48.5365296,80.7512421 C48.5875276,80.66817 45.3959457,85.5478915 44.3584035,87.3853496 C39.0859772,96.7226683 35.7804702,107.495956 34.6854552,120.278748 C33.9091949,129.340518 34.9539937,139.486115 37.8429819,150.714626 L30.9415829,152.480905 C27.863634,140.517968 26.7375022,129.58258 27.5863178,119.673827 C28.7676974,105.882847 32.3749268,94.126188 38.1501992,83.8983431 C39.3242385,81.8191524 42.6190678,76.7815724 42.4600486,77.0406033 C44.9578881,72.9718026 45.8074957,68.9226525 45.8074957,57.8181217 C45.8074957,40.067001 49.8361762,27.6156803 57.2387118,18.1454154 C66.2525339,6.61378786 85.2978961,-3.55307263 105.6875,-3.55307263 Z" id="Path-6" fill="#717171" fill-rule="nonzero"></path>
                <path d="M102.362637,66.9924255 L95.4754326,65.1718665 C97.7992371,56.4273424 97.8766819,51.230807 96.3557492,43.3585368 C95.3002138,37.8951395 88.5355145,33.1728205 83.2339569,34.6249959 C78.1869716,36.0074402 75.3612225,43.3702848 76.1162603,53.246947 C76.585249,59.3817959 78.1292224,64.2217748 80.6889498,67.8217739 L74.8770258,71.932416 C71.5083683,67.194738 69.5730632,61.1280301 69.01188,53.7871826 C68.0288134,40.9276722 72.1060926,30.3038084 81.3470062,27.7725849 C90.8352057,25.1736261 101.542577,32.648256 103.352049,42.0139872 C105.067653,50.8938689 104.974192,57.165088 102.362637,66.9924255 Z" id="Path-10" fill="#717171" fill-rule="nonzero"></path>
                <path d="M82.5488691,83.1025128 L88.1924624,87.4401966 C78.8959309,99.4716249 73.1074082,107.558988 70.9306211,111.518626 C66.8771048,118.892087 64.8598396,126.278562 65.3943922,134.794762 L58.2833131,135.238757 C57.6563379,125.250131 60.0258529,116.573847 64.683075,108.102228 C67.1000341,103.705711 73.0207232,95.4336929 82.5488691,83.1025128 Z" id="Path-13" fill="#979797" fill-rule="nonzero"></path>
                <path d="M69.2566499,202.940781 L75.6183501,199.740783 C77.9518698,204.355377 87.3979819,208.446927 93.4090143,208.446927 L105.6875,208.446927 L105.6875,215.553073 L93.4090143,215.553073 C84.9814031,215.553073 73.0129634,210.368985 69.2566499,202.940781 Z" id="Path-14" fill="#979797" fill-rule="nonzero"></path>
                <path d="M39.5280239,137.821046 C42.0371541,131.942707 48.496446,126.726257 55.2333447,126.726257 C62.7311103,126.726257 70.3874656,134.952389 71.7958963,143.087175 C72.466669,146.961411 72.9147749,151.147466 73.4314744,157.81091 C73.5287749,159.065714 73.6272848,160.384439 73.7642285,162.253212 C73.8032588,162.785831 73.8498927,163.424246 73.9381432,164.632548 C74.0101872,165.618078 74.0656768,166.3738 74.1214479,167.127475 C74.4114061,171.045888 74.9280095,173.60768 75.9961665,177.289012 C76.0729124,177.553512 76.393201,178.646095 76.4755612,178.930143 C77.4808266,182.397153 77.971155,184.763859 78.2115852,188.047829 C78.7113827,194.874426 78.1444231,198.0816 76.243835,201.685018 C76.14184,201.878395 75.7898287,202.533933 75.7227544,202.660468 C73.354616,207.12793 67.4062775,210.544733 59.0308621,211.672488 C50.9717786,212.757649 45.1694424,211.454217 33.7234221,206.927943 C31.0810059,205.883013 27.443312,205.036493 22.006325,204.098762 C20.5940772,203.855189 15.855228,203.079061 15.3141286,202.987937 C8.86716414,201.902231 5.78344085,201.145409 3.70267367,199.738649 C-1.12216881,196.476681 -3.5625,191.506904 -3.5625,185.64251 C-3.5625,179.149539 0.613398008,172.728914 7.18493782,170.559462 C9.28493927,169.866192 11.4260165,169.427861 13.6025976,169.244244 C12.070543,166.158607 11.0916747,163.617647 10.6628252,161.568776 C9.26857461,154.907609 9.94580129,149.613221 14.3809518,145.493731 C19.0718594,141.136686 24.0901499,141.567198 31.7044196,144.829235 C33.5981201,145.640518 35.8796076,146.544007 38.5461738,147.53822 C38.2270367,143.36925 38.5272783,140.165573 39.5280239,137.821046 Z M69.938088,198.376691 C71.1792554,196.023501 71.5132261,194.134298 71.1055043,188.565338 C70.9067448,185.850537 70.5101459,183.936242 69.6310122,180.904242 C69.5524708,180.633364 69.2324318,179.541632 69.1519881,179.264388 C67.9567404,175.145047 67.3463908,172.118376 67.0157736,167.650508 C66.9598206,166.894376 66.9041895,166.136726 66.832005,165.149273 C66.7437012,163.940243 66.6971415,163.302844 66.658182,162.771191 C66.5219091,160.911572 66.424052,159.601586 66.3276867,158.358843 C65.8268917,151.900505 65.3985205,147.898806 64.7748045,144.296359 C63.9046979,139.270815 58.842973,133.832402 55.2333447,133.832402 C51.6598887,133.832402 47.5615768,137.142152 46.0836959,140.604501 C45.3342817,142.360213 45.3342817,146.353533 46.3202312,152.27499 C46.7643421,154.94225 44.1773546,157.107202 41.6207838,156.207779 C36.3726323,154.361435 32.1336891,152.74713 28.8923457,151.358503 C23.6527974,149.113823 21.1675859,148.90062 19.236778,150.694008 C17.0761999,152.700812 16.7003239,155.639317 17.637471,160.116628 C18.1055295,162.352822 19.8132537,166.108555 22.7490525,171.191401 C24.232165,173.759164 22.0974379,176.902761 19.1563301,176.482041 C15.7784456,175.998841 12.5489374,176.273971 9.42387776,177.305642 C5.91505557,178.464004 3.5625,182.081161 3.5625,185.64251 C3.5625,189.230331 4.90662714,191.967669 7.70054452,193.856574 C8.54125376,194.424959 11.3412353,195.112143 16.5004107,195.980978 C17.0136971,196.067418 21.7720689,196.846743 23.2204314,197.096546 C29.1164564,198.113448 33.1207153,199.04527 36.3495526,200.322098 C46.7468413,204.433656 51.5403765,205.510472 58.0775794,204.630233 C64.3551454,203.784955 68.2545378,201.545093 69.4238685,199.339166 C69.5042071,199.187608 69.851527,198.540807 69.938088,198.376691 Z" id="Path-8" fill="#717171" fill-rule="nonzero"></path>
                <path d="M84.0142387,76.4617017 C84.5672399,76.9670528 85.1596787,77.4951163 85.7992549,78.053963 C86.846241,78.968795 92.0719449,83.3671118 92.8627705,84.1192536 C92.7819506,84.0423871 95.4887432,86.7375413 96.4084835,87.5608099 C99.0809446,89.9529564 101.396491,91.1955307 103.468461,91.1955307 L103.468461,98.301676 C99.2316551,98.301676 95.5088564,96.3039385 91.6494826,92.8493749 C90.5609501,91.8750187 87.7429612,89.0691462 87.9456612,89.261931 C87.3399298,88.6858293 82.2978573,84.4420695 81.1040867,83.3989807 C80.4266839,82.807082 79.7953098,82.244314 79.2008662,81.7010914 C76.1580971,78.9205062 74.1509337,76.7380202 73.1372774,74.825761 C71.4108391,71.568841 72.8676809,68.64306 75.8889864,66.815205 C77.4729039,65.8569532 79.2448319,65.2045247 82.5128533,64.2113832 C82.5789451,64.1912981 83.9076694,63.789784 84.2796689,63.6756706 C85.5709065,63.2795743 86.4282946,62.9910144 87.1133008,62.7129067 C89.6427509,61.6859677 92.4804893,61.433947 96.0248894,61.6641188 C97.1654674,61.7381874 98.2089397,61.8442262 99.9053657,62.0428851 C102.763667,62.3776047 103.523726,62.450695 104.5,62.450695 L104.5,69.5568403 C103.121246,69.5568403 102.280774,69.4760172 99.0744908,69.1005473 C97.4926548,68.9153074 96.5472242,68.8192317 95.5619476,68.7552483 C92.9971645,68.5886924 91.1299772,68.7545181 89.7996326,69.2946287 C88.8726184,69.6709899 87.851392,70.0146908 86.3742758,70.4678066 C85.9852641,70.5871387 84.6430717,70.9927225 84.5895966,71.0089735 C82.4408229,71.6619791 81.0924992,72.1311059 80.1826693,72.5697503 C80.9877524,73.5575367 82.2989678,74.8942293 84.0142387,76.4617017 Z" id="Path-11" fill="#5090FC" fill-rule="nonzero"></path>
            </g>
        </g>
    </g>
</svg>