<?xml version="1.0" encoding="UTF-8"?>
<svg width="256px" height="256px" viewBox="0 0 256 256" version="1.1" xmlns="http://www.w3.org/2000/svg" xmlns:xlink="http://www.w3.org/1999/xlink">
    <!-- Generator: Sketch 51.3 (57544) - http://www.bohemiancoding.com/sketch -->
    <title>secure</title>
    <desc>Created with Sketch.</desc>
    <defs></defs>
    <g id="secure" stroke="none" stroke-width="1" fill="none" fill-rule="evenodd">
        <g id="shield" transform="translate(27.000000, 23.000000)">
            <g>
                <g transform="translate(0.299727, 0.297698)" fill-rule="nonzero" id="Combined-Shape">
                    <path d="M145.698196,27.8399202 L56.2022117,27.8399202 C54.5901646,42.7479898 42.7404185,54.5875265 27.8236921,56.1965521 L27.8236921,82.6573891 C27.8236921,129.930244 56.9644185,172.27632 101.046604,189.236641 C144.95341,172.262867 173.898076,129.925035 173.898076,82.6577183 L173.898076,56.1944631 C159.070856,54.5770639 147.300381,42.7381655 145.698196,27.8399202 Z M99.6437628,196.14769 C52.267193,178.438689 20.8677691,133.203531 20.8677691,82.6573891 L20.8677691,52.9030128 C20.8677691,50.9810674 22.4249055,49.4230228 24.3457306,49.4230228 C38.2023047,49.4230228 49.4333034,38.2008513 49.4333034,24.3599301 C49.4333034,22.4379847 50.9904398,20.8799401 52.9112649,20.8799401 L148.99016,20.8799401 C150.910986,20.8799401 152.468122,22.4379847 152.468122,24.3599301 C152.468122,38.2057565 163.623607,49.4230228 177.376037,49.4230228 C179.296862,49.4230228 180.853999,50.9810674 180.853999,52.9030128 L180.853999,82.6577183 C180.853999,133.198286 149.652055,178.433349 102.565984,196.145158 C102.068274,196.332376 101.56321,196.398062 101.077851,196.360962 C100.593882,196.391223 100.105096,196.320133 99.6437628,196.14769 Z" fill="#A4A4A4"></path>
                    <path d="M193.606524,77.235525 L193.606524,42.9191144 C174.618712,41.2496972 159.497576,26.0411573 157.844176,6.95998004 L42.9447203,6.95998004 C41.2810971,26.0514129 26.0591093,41.2604239 6.95592303,42.9208418 L6.95592303,77.2351086 C6.95592303,137.50083 44.152749,191.477434 100.398297,213.017052 C156.687542,191.418538 193.606524,137.470266 193.606524,77.235525 Z M99.0641026,219.953156 C39.485917,197.683285 -1.54452518e-15,140.798428 0,77.2351086 L0,39.5913143 C0,37.6693689 1.55713641,36.1113242 3.47796152,36.1113242 C21.5176544,36.1113242 36.139729,21.5007422 36.139729,3.47999002 C36.139729,1.5580446 37.6968654,0 39.6176905,0 L161.172051,0 C163.092876,0 164.650012,1.5580446 164.650012,3.47999002 C164.650012,21.5056475 179.175246,36.1113242 197.084486,36.1113242 C199.005311,36.1113242 200.562447,37.6693689 200.562447,39.5913143 L200.562447,77.235525 C200.562447,140.793196 161.324858,197.677948 102.113922,219.950625 C101.596115,220.145402 101.070347,220.208635 100.567091,220.161433 C100.060699,220.203212 99.5473393,220.133787 99.0641026,219.953156 Z" fill="#717171"></path>
                </g>
                <g id="lock" transform="translate(83.555905, 74.670936)" fill="#5090FC" fill-rule="nonzero">
                    <path d="M6.09510639,34.9295007 C0.25129108,31.1219575 -3.33521646,24.5761451 -3.3052918,17.4916559 C-3.25713815,6.05322228 6.05473077,-3.18034418 17.4932468,-3.13219018 C28.9316805,-3.08403653 38.165247,6.22783239 38.117093,17.6663485 C38.0764053,24.6754424 34.5159106,31.1270806 28.7496145,34.9132183 L29.5383583,40.4301143 C29.8951371,42.9256169 30.7046661,49.4328436 31.9624542,59.9168541 C32.0122298,60.2595398 32.0350786,60.6056272 32.0318625,60.9547787 C31.993133,64.8218207 28.0695688,67.7107292 24.3681331,67.6728585 L10.4433417,67.6728585 C9.82551606,67.6728585 9.01039948,67.6569033 8.65128652,67.6060167 C4.94007421,67.0811153 2.35695485,63.6471879 2.87259965,60.0069645 C4.09837935,49.7405871 4.87563058,43.4591676 5.21112353,41.1125502 L6.09510639,34.9295007 Z M17.4654162,3.47870573 C9.67796049,3.44592201 3.33838718,9.73218655 3.30560391,17.5195334 C3.28286715,22.9023307 6.32665398,27.8282445 11.1507832,30.215854 L13.2954329,31.2773069 L11.7555323,42.0481962 C11.4304274,44.3221538 10.6553032,50.5863833 9.42766804,60.8617552 C9.41650871,60.940655 9.45967774,61.0147347 9.52927516,61.0462354 C9.61422357,61.0489583 9.72139436,61.0515928 9.84284599,61.0539701 C10.0736147,61.0584873 10.3599268,61.061904 10.4433417,61.061904 L24.4017977,61.0620755 C24.6130181,61.0642268 25.0061945,60.9282846 25.3012254,60.7110542 C25.335408,60.6858857 25.36564,60.6616684 25.3917655,60.6392012 C24.1404085,50.2194183 23.3390777,43.7797714 22.9939495,41.3657603 L21.5522088,31.281454 L23.6822097,30.2155081 C28.4505655,27.8292138 31.4742678,22.9673942 31.5062079,17.6358806 C31.5375614,9.84963081 25.2518371,3.5114851 17.4654162,3.47870573 Z M25.4879811,60.5445071 C25.4954258,60.535527 25.5011531,60.5277626 25.5051248,60.521411 C25.5036333,60.5237963 25.5021412,60.526268 25.5006505,60.528825 L25.4879811,60.5445071 Z M9.48263454,61.0449962 C9.48553654,61.0447549 9.48561858,61.0447579 9.48570066,61.0447608 L9.48263454,61.0449962 Z" id="Shape"></path>
                </g>
            </g>
        </g>
    </g>
</svg>