<?xml version="1.0" encoding="UTF-8"?>
<svg width="256px" height="256px" viewBox="0 0 256 256" version="1.1" xmlns="http://www.w3.org/2000/svg" xmlns:xlink="http://www.w3.org/1999/xlink">
    <!-- Generator: Sketch 51.3 (57544) - http://www.bohemiancoding.com/sketch -->
    <title>simple</title>
    <desc>Created with Sketch.</desc>
    <defs></defs>
    <g id="simple" stroke="none" stroke-width="1" fill="none" fill-rule="evenodd">
        <g id="tap" transform="translate(8.000000, 14.000000)">
            <g stroke-width="1" fill-rule="evenodd" transform="translate(123.734706, 136.812237) rotate(-315.000000) translate(-123.734706, -136.812237) translate(25.541813, 59.899194)" id="Shape">
                <path d="M183.693733,58.5405383 L150.806767,22.342823 C144.299318,15.8251072 133.698475,15.8164837 127.129938,22.3953853 C125.048391,24.4802166 123.631447,26.9769223 122.896735,29.6403488 C116.354437,24.6206563 106.916751,25.1199974 100.890228,31.1560298 C98.8172905,33.2408612 97.4003461,35.7375668 96.6480044,38.3919592 C90.1057067,33.3899244 80.6680209,33.8802314 74.6505173,39.9162637 C72.6124298,41.957567 71.2131152,44.3926763 70.4521636,46.9858829 L54.9531048,31.462369 C48.4456566,24.9446532 37.8448136,24.9360297 31.2762761,31.5149312 C24.7602181,38.0326471 24.7602181,48.6502165 31.2762761,55.1765559 L90.8227887,114.817023 L55.5041387,120.370962 C45.961494,121.737579 38.7632035,130.042411 38.7632035,139.705237 C38.7632035,146.9502 44.6495085,152.845793 51.8830586,152.845793 L134.354468,152.845793 C147.203316,152.845793 159.282193,147.834724 168.369743,138.732836 L182.127961,124.952909 C191.2069,115.868268 196.201055,103.778956 196.201055,90.9274922 C196.201055,78.9256473 191.757934,67.4235542 183.693733,58.5405383 Z M175.943999,118.75919 L162.185781,132.539117 C154.751333,139.985295 144.867572,144.085148 134.354058,144.085148 L51.8826486,144.085148 C49.4685953,144.085148 47.5092269,142.122688 47.5092269,139.704826 C47.5092269,134.378384 51.4800331,129.796847 56.8066943,129.034695 L100.67088,122.131385 C102.297742,121.877198 103.635967,120.729863 104.152152,119.16162 C104.659316,117.602411 104.248501,115.876481 103.084933,114.711488 L37.4598279,48.9828368 C34.3549322,45.8730421 34.3549322,40.8094109 37.5036974,37.6470539 C39.0604502,36.0964683 41.0985377,35.3166584 43.1366252,35.3166584 C45.1747127,35.3166584 47.2123902,36.0964683 48.769553,37.6556774 L92.5287799,81.4839494 C94.2343611,83.1922217 97.0071605,83.1922217 98.7127416,81.4839494 C99.5610223,80.6252961 99.9898775,79.5042424 99.9898775,78.3827781 C99.9898775,77.2613138 99.5614323,76.1402601 98.7041317,75.2816068 L80.834889,57.3841693 C77.7299933,54.2743746 77.7299933,49.2193669 80.8873684,46.0570099 C83.9836542,42.9558386 89.0479183,42.9558386 92.1442042,46.0570099 L110.022057,63.9630709 C111.727638,65.6713432 114.500437,65.6713432 116.206019,63.9630709 C117.054299,63.1044177 117.483154,61.983364 117.483154,60.8618996 C117.483154,59.7404353 117.054709,58.6193816 116.197409,57.7607284 L107.074599,48.6235248 C103.969704,45.51373 103.969704,40.4587223 107.127079,37.2963653 C110.223365,34.1951941 115.287629,34.1951941 118.383914,37.2963653 L127.550183,46.477097 C127.567813,46.4857205 127.558793,46.4857205 127.558793,46.4857205 L127.567403,46.494344 C127.576013,46.5029675 127.576013,46.5029675 127.576013,46.5029675 C127.584623,46.511591 127.584623,46.511591 127.584623,46.511591 L127.593233,46.511591 C127.601843,46.511591 127.601843,46.5202145 127.601843,46.5202145 C129.316034,48.1496435 132.027744,48.1147389 133.698065,46.4327477 C135.403647,44.7244754 135.403647,41.9473009 133.698065,40.2390286 L133.3221,39.8624696 C131.817826,38.3558227 130.986765,36.349424 130.986765,34.2206539 C130.986765,32.0918838 131.808806,30.0945193 133.365969,28.5353101 C136.479885,25.4341389 141.517909,25.4427624 144.482996,28.3862469 L177.230155,64.4353096 C183.815912,71.6983414 187.454622,81.1069797 187.454622,90.9274922 C187.454622,101.439937 183.369837,111.321635 175.943999,118.75919 Z" fill="#717171" fill-rule="nonzero"></path>
                <path d="M76.291535,24.4861818 C69.9243053,10.3732245 55.8598206,1.24464435 40.4657206,1.24464435 C18.7654801,1.24464435 1.1061551,18.931833 1.1061551,40.6663129 C1.1061551,56.0847024 10.2199445,70.1713786 24.3106689,76.5576889 C24.8965525,76.8205001 25.5090857,76.9432821 26.112599,76.9432821 C27.7743107,76.9432821 29.3663231,75.9795045 30.101035,74.3677331 C31.0895341,72.1601197 30.1096449,69.566913 27.9145291,68.5682308 C16.9463302,63.6011005 9.85299853,52.6505002 9.85299853,40.6663129 C9.85299853,23.7589342 23.5849769,10.0048783 40.4661306,10.0048783 C52.4314385,10.0048783 63.3647878,17.1094021 68.324093,28.0949071 C69.3125921,30.3025205 71.9103234,31.2925793 74.1054392,30.2848629 C76.3091648,29.2865913 77.288644,26.6937953 76.291535,24.4861818 Z" fill="#5090FC" fill-rule="nonzero"></path>
            </g>
            <path d="M54.8791055,83.3727123 C55.6532051,85.6833609 54.4105369,88.1850336 52.1035284,88.9603546 C49.7965198,89.7356756 47.2987881,88.4910467 46.5246885,86.180398 C43.1116707,75.9927106 42.2646732,65.0855802 44.1681296,54.2735094 C50.3900242,18.9317161 84.0389164,-4.66666771 119.325034,1.565044 C154.611151,7.79675572 178.172359,41.4987405 171.950465,76.8405338 C171.527906,79.240763 169.24265,80.8434415 166.846202,80.4202163 C164.449754,79.9969911 162.8496,77.7081291 163.272159,75.3078999 C168.648937,44.766565 148.288036,15.6423042 117.794814,10.2570429 C87.3015929,4.87178149 58.2232132,25.2648084 52.8464355,55.8061433 C51.2000633,65.1579166 51.9312305,74.5734528 54.8791055,83.3727123 Z" id="Oval-2" fill="#A4A4A4" fill-rule="nonzero"></path>
        </g>
    </g>
</svg>