<?xml version="1.0" encoding="UTF-8"?>
<svg width="2268px" height="439px" viewBox="0 0 2268 439" version="1.1" xmlns="http://www.w3.org/2000/svg" xmlns:xlink="http://www.w3.org/1999/xlink">
    <!-- Generator: Sketch 57 (83077) - https://sketch.com -->
    <title>02</title>
    <desc>Created with Sketch.</desc>
    <g id="页面-1" stroke="none" stroke-width="1" fill="none" fill-rule="evenodd">
        <g id="Piraeus易拉宝" transform="translate(-179.000000, -1849.000000)" fill-rule="nonzero">
            <g id="图层_2" transform="translate(179.000000, 0.000000)">
                <g id="编组" transform="translate(0.000000, 277.000000)">
                    <g id="linux" transform="translate(232.000000, 1645.000000)" fill="#FFFFFF">
                        <g id="Group-3">
                            <g id="编组" transform="translate(169.500000, 115.000000) scale(-1, 1) translate(-169.500000, -115.000000) translate(111.000000, 0.000000)">
                                <path d="M115,0.1 L115,7.6 C96,7.6 78.2,17.1 70.1,27.5 C63.4,36.1 59.7,47.5 59.7,64.5 C59.7,77.4 58.5,82.9 55.1,88.6 C55.2,88.5 51.8,93.6 50.7,95.6 C45.2,105.4 41.7,116.7 40.6,130.1 C39.8,139.6 40.9,150.3 43.9,162 L36.7,163.9 C33.5,151.3 32.3,139.9 33.2,129.5 C34.4,115 38.2,102.7 44.3,92 C45.5,89.8 49,84.5 48.8,84.8 C51.4,80.5 52.3,76.3 52.3,64.6 C52.3,46 56.5,32.9 64.3,23 C73.6,10.8 93.6,0.1 115,0.1 Z" id="Path-6"></path>
                                <path d="M111.5,74.1 L104.3,72.2 C106.7,63 106.8,57.6 105.2,49.3 C104.1,43.6 97,38.6 91.4,40.1 C86.1,41.6 83.1,49.3 83.9,59.6 C84.4,66 86,71.1 88.7,74.9 L82.6,79.2 C79.1,74.2 77,67.9 76.4,60.2 C75.4,46.7 79.6,35.6 89.3,32.9 C99.3,30.2 110.5,38 112.4,47.8 C114.4,57.2 114.3,63.8 111.5,74.1 Z" id="Path-10"></path>
                                <path d="M93.6,87.5 L99.5,92.1 C87.8,107.1 80.8,116.8 78.5,120.9 C74.2,128.6 72.1,136.4 72.7,145.3 L65.2,145.8 C64.5,135.3 67,126.2 71.9,117.3 C74.5,112.6 81.7,102.8 93.6,87.5 Z" id="Path-13"></path>
                                <path d="M76.8,216.8 L83.5,213.4 C85.9,218.2 95.9,222.5 102.2,222.5 L115.1,222.5 L115.1,230 L102.2,230 C93.3,230 80.7,224.6 76.8,216.8 Z" id="Path-14"></path>
                                <path d="M45.6,148.4 C48.2,142.2 55,136.8 62.1,136.8 C70,136.8 78,145.4 79.5,154 C80.2,158.1 80.7,162.5 81.2,169.4 C81.3,170.7 81.4,172.1 81.5,174.1 C81.5,174.7 81.6,175.3 81.7,176.6 C81.8,177.6 81.8,178.4 81.9,179.2 C82.2,183.3 82.7,186 83.9,189.9 C84,190.2 84.3,191.3 84.4,191.6 C85.5,195.2 86,197.7 86.2,201.2 C86.7,208.4 86.1,211.7 84.1,215.5 C84,215.7 83.6,216.4 83.6,216.5 C81.1,221.2 74.9,224.8 66.1,226 C57.6,227.1 51.6,225.8 39.5,221 C36.7,219.9 32.9,219 27.2,218 C25.7,217.7 20.7,216.9 20.2,216.8 C13.4,215.7 10.2,214.9 8,213.4 C2.9,210 0.4,204.8 0.4,198.6 C0.4,191.8 4.8,185.1 11.7,182.8 C13.9,182.1 16.2,181.6 18.4,181.4 C16.8,178.2 15.8,175.5 15.3,173.3 C13.8,166.3 14.5,160.8 19.2,156.4 C24.1,151.8 29.4,152.3 37.4,155.7 C39.4,156.6 41.8,157.5 44.6,158.5 C44.2,154.3 44.5,150.9 45.6,148.4 Z M77.5,212 C78.8,209.5 79.2,207.5 78.7,201.7 C78.5,198.9 78.1,196.8 77.2,193.7 C77.1,193.4 76.8,192.3 76.7,192 C75.4,187.7 74.8,184.5 74.5,179.8 C74.4,179 74.4,178.2 74.3,177.2 C74.2,175.9 74.2,175.3 74.1,174.7 C74,172.7 73.9,171.4 73.8,170.1 C73.3,163.3 72.8,159.1 72.2,155.3 C71.3,150 66,144.3 62.2,144.3 C58.5,144.3 54.2,147.8 52.6,151.4 C51.8,153.2 51.8,157.4 52.8,163.6 C53.3,166.4 50.6,168.7 47.9,167.7 C42.4,165.8 37.9,164.1 34.5,162.6 C29,160.2 26.4,160 24.4,161.9 C22.1,164 21.7,167.1 22.7,171.8 C23.2,174.1 25,178.1 28.1,183.4 C29.7,186.1 27.4,189.4 24.3,189 C20.8,188.5 17.4,188.8 14.1,189.9 C10.4,191.1 7.9,194.9 7.9,198.6 C7.9,202.4 9.3,205.2 12.2,207.2 C13.1,207.8 16,208.5 21.4,209.4 C21.9,209.5 26.9,210.3 28.5,210.6 C34.7,211.7 38.9,212.6 42.3,214 C53.2,218.3 58.2,219.4 65.1,218.5 C71.7,217.6 75.8,215.3 77,212.9 C77,212.8 77.4,212.2 77.5,212 Z" id="Path-8"></path>
                                <path d="M94.8,84.1 C95.4,84.6 96,85.2 96.7,85.8 C97.8,86.8 103.3,91.4 104.1,92.2 C104,92.1 106.9,94.9 107.8,95.8 C110.6,98.3 113,99.6 115.2,99.6 L115.2,107.1 C110.8,107.1 106.8,105 102.8,101.4 C101.7,100.4 98.7,97.4 98.9,97.6 C98.3,97 93,92.5 91.7,91.4 C91,90.8 90.3,90.2 89.7,89.6 C86.5,86.7 84.4,84.4 83.3,82.4 C81.5,79 83,75.9 86.2,74 C87.9,73 89.7,72.3 93.2,71.3 C93.3,71.3 94.7,70.9 95.1,70.7 C96.5,70.3 97.4,70 98.1,69.7 C100.8,68.6 103.7,68.4 107.5,68.6 C108.7,68.7 109.8,68.8 111.6,69 C114.6,69.4 115.4,69.4 116.4,69.4 L116.4,76.9 C115,76.9 114.1,76.8 110.7,76.4 C109,76.2 108,76.1 107,76 C104.3,75.8 102.3,76 101,76.6 C100,77 99,77.4 97.4,77.8 C97,77.9 95.6,78.4 95.5,78.4 C93.2,79.1 91.8,79.6 90.9,80 C91.6,81 93,82.4 94.8,84.1 Z" id="Path-11"></path>
                            </g>
                            <g id="编组">
                                <path d="M115.5,0.1 L115.5,7.6 C96.5,7.6 78.7,17.1 70.6,27.5 C63.9,36.1 60.2,47.5 60.2,64.5 C60.2,77.4 59,82.9 55.6,88.6 C55.7,88.5 52.3,93.6 51.2,95.6 C45.7,105.4 42.2,116.7 41.1,130.1 C40.3,139.6 41.4,150.3 44.4,162 L37.2,163.9 C34,151.3 32.8,139.9 33.7,129.5 C34.9,115 38.7,102.7 44.8,92 C46,89.8 49.5,84.5 49.3,84.8 C51.9,80.5 52.8,76.3 52.8,64.6 C52.8,46 57,32.9 64.8,23 C74.1,10.8 94.1,0.1 115.5,0.1 Z" id="Path-6_1_"></path>
                                <path d="M112,74.1 L104.8,72.2 C107.2,63 107.3,57.6 105.7,49.3 C104.6,43.6 97.5,38.6 91.9,40.1 C86.6,41.6 83.6,49.3 84.4,59.6 C84.9,66 86.5,71.1 89.2,74.9 L83.1,79.2 C79.6,74.2 77.5,67.9 76.9,60.2 C75.9,46.7 80.1,35.6 89.8,32.9 C99.8,30.2 111,38 112.9,47.8 C114.8,57.2 114.7,63.8 112,74.1 Z" id="Path-10_1_"></path>
                                <path d="M91.2,91 L97.1,95.6 C87.3,108.2 81.3,116.7 79,120.9 C74.7,128.6 72.6,136.4 73.2,145.3 L65.7,145.8 C65,135.3 67.5,126.2 72.4,117.3 C75,112.6 81.2,104 91.2,91 Z" id="Path-13_1_"></path>
                                <path d="M77.3,216.8 L84,213.4 C86.4,218.2 96.4,222.5 102.7,222.5 L115.6,222.5 L115.6,230 L102.7,230 C93.8,230 81.2,224.6 77.3,216.8 Z" id="Path-14_1_"></path>
                                <path d="M46.1,148.4 C48.7,142.2 55.5,136.8 62.6,136.8 C70.5,136.8 78.5,145.4 80,154 C80.7,158.1 81.2,162.5 81.7,169.4 C81.8,170.7 81.9,172.1 82,174.1 C82,174.7 82.1,175.3 82.2,176.6 C82.3,177.6 82.3,178.4 82.4,179.2 C82.7,183.3 83.2,186 84.4,189.9 C84.5,190.2 84.8,191.3 84.9,191.6 C86,195.2 86.5,197.7 86.7,201.2 C87.2,208.4 86.6,211.7 84.6,215.5 C84.5,215.7 84.1,216.4 84.1,216.5 C81.6,221.2 75.4,224.8 66.6,226 C58.1,227.1 52.1,225.8 40,221 C37.2,219.9 33.4,219 27.7,218 C26.2,217.7 21.2,216.9 20.7,216.8 C13.9,215.7 10.7,214.9 8.5,213.4 C3.4,210 0.9,204.8 0.9,198.6 C0.9,191.8 5.3,185.1 12.2,182.8 C14.4,182.1 16.6,181.6 18.9,181.4 C17.3,178.2 16.3,175.5 15.8,173.3 C14.3,166.3 15,160.8 19.7,156.4 C24.6,151.8 29.9,152.3 37.9,155.7 C39.9,156.6 42.3,157.5 45.1,158.5 C44.7,154.3 45,150.9 46.1,148.4 Z M78,212 C79.3,209.5 79.7,207.5 79.2,201.7 C79,198.9 78.6,196.8 77.7,193.7 C77.6,193.4 77.3,192.3 77.2,192 C75.9,187.7 75.3,184.5 75,179.8 C74.9,179 74.9,178.2 74.8,177.2 C74.7,175.9 74.7,175.3 74.6,174.7 C74.5,172.7 74.4,171.4 74.3,170.1 C73.8,163.3 73.3,159.1 72.7,155.3 C71.8,150 66.5,144.3 62.7,144.3 C59,144.3 54.7,147.8 53.1,151.4 C52.3,153.2 52.3,157.4 53.3,163.6 C53.8,166.4 51.1,168.7 48.4,167.7 C42.9,165.8 38.4,164.1 35,162.6 C29.5,160.2 26.9,160 24.9,161.9 C22.6,164 22.2,167.1 23.2,171.8 C23.7,174.1 25.5,178.1 28.6,183.4 C30.2,186.1 27.9,189.4 24.8,189 C21.3,188.5 17.9,188.8 14.6,189.9 C10.9,191.1 8.4,194.9 8.4,198.6 C8.4,202.4 9.8,205.2 12.7,207.2 C13.6,207.8 16.5,208.5 21.9,209.4 C22.4,209.5 27.4,210.3 29,210.6 C35.2,211.7 39.4,212.6 42.8,214 C53.7,218.3 58.7,219.4 65.6,218.5 C72.2,217.6 76.3,215.3 77.5,212.9 C77.5,212.8 77.9,212.2 78,212 Z" id="Path-8_1_"></path>
                                <path d="M92.7,84.1 C93.3,84.6 93.9,85.2 94.6,85.8 C95.7,86.8 101.2,91.4 102,92.2 C101.9,92.1 104.8,94.9 105.7,95.8 C108.5,98.3 110.9,99.6 113.1,99.6 L113.1,107.1 C108.7,107.1 104.7,105 100.7,101.4 C99.6,100.4 96.6,97.4 96.8,97.6 C96.2,97 90.9,92.5 89.6,91.4 C88.9,90.8 88.2,90.2 87.6,89.6 C84.4,86.7 82.3,84.4 81.2,82.4 C79.4,79 80.9,75.9 84.1,74 C85.8,73 87.6,72.3 91.1,71.3 C91.2,71.3 92.6,70.9 93,70.7 C94.4,70.3 95.3,70 96,69.7 C98.7,68.6 101.6,68.4 105.4,68.6 C106.6,68.7 107.7,68.8 109.5,69 C112.5,69.4 113.3,69.4 114.3,69.4 L114.3,76.9 C112.9,76.9 112,76.8 108.6,76.4 C106.9,76.2 105.9,76.1 104.9,76 C102.2,75.8 100.2,76 98.9,76.6 C97.9,77 96.9,77.4 95.3,77.8 C94.9,77.9 93.5,78.4 93.4,78.4 C91.1,79.1 89.7,79.6 88.8,80 C89.6,81 90.9,82.4 92.7,84.1 Z" id="Path-11_1_"></path>
                            </g>
                        </g>
                    </g>
                    <g transform="translate(675.000000, 1657.000000)" fill="#EDCD70" stroke="#EDCD70" stroke-width="2">
                        <polygon id="路径" points="6.2 1.6 6.2 48.8 35.1 48.8 35.1 54.6 0.2 54.6 0.2 1.6"></polygon>
                        <path d="M48.5,0 L48.5,7.8 L42,7.8 L42,0 L48.5,0 Z M42.2,14.6 L48.2,14.6 L48.2,54.6 L42.2,54.6 L42.2,14.6 Z" id="形状"></path>
                        <path d="M65.3,14.6 L65.3,20.8 C66.7,18.9 68.5,17.3 70.6,15.9 C72.7,14.6 75.1,13.9 77.7,13.9 C80.3,13.9 82.7,14.3 84.6,15 C86.5,15.7 88.2,16.9 89.6,18.4 C92.9,21.7 94.6,25.9 94.6,31.3 L94.6,54.6 L88.6,54.6 L88.6,31.5 C88.6,27.8 87.6,24.9 85.5,22.7 C83.4,20.5 80.7,19.4 77.4,19.4 C74,19.4 71.2,20.5 68.8,22.8 C66.5,25.1 65.3,28 65.3,31.6 L65.3,54.6 L59.3,54.6 L59.3,14.6 L65.3,14.6 Z" id="路径"></path>
                        <path d="M133.7,54.6 L133.7,48.4 C132.3,50.3 130.5,51.9 128.4,53.3 C126.3,54.6 123.9,55.3 121.3,55.3 C118.7,55.3 116.3,54.9 114.4,54.2 C112.5,53.5 110.8,52.3 109.4,50.8 C106.1,47.5 104.4,43.3 104.4,37.9 L104.4,14.6 L110.4,14.6 L110.4,37.7 C110.4,41.4 111.4,44.3 113.5,46.5 C115.6,48.7 118.3,49.8 121.6,49.8 C125,49.8 127.8,48.7 130.2,46.4 C132.5,44.1 133.7,41.2 133.7,37.6 L133.7,14.6 L139.7,14.6 L139.7,54.6 L133.7,54.6 Z" id="路径"></path>
                        <polygon id="路径" points="168.2 33.9 183.7 54.5 176 54.5 164.7 38.2 153.3 54.5 145.7 54.5 161.1 33.9 146.6 14.5 154.3 14.5 164.6 29.6 174.8 14.5 182.5 14.5"></polygon>
                        <polygon id="路径" points="254.5 1.6 254.5 54.6 247.5 54.6 214.8 9.9 214.8 54.6 208.8 54.6 208.8 1.6 215.8 1.6 248.5 46.2 248.5 1.6"></polygon>
                        <path d="M297.3,48.2 C294.1,52.9 289.3,55.2 283,55.2 C277.2,55.2 272.5,53.2 268.9,49.2 C265.4,45.3 263.6,40.4 263.6,34.6 C263.6,28.8 265.4,23.9 268.9,20 C272.5,16 277.4,14 283.4,14 C289.4,14 294.1,16.4 297.3,21.1 L297.3,14.6 L303.3,14.6 L303.3,54.6 L297.3,54.6 L297.3,48.2 Z M283.8,49.8 C288.1,49.8 291.5,48.3 294,45.3 C296.4,42.5 297.6,38.9 297.6,34.6 C297.6,30.3 296.4,26.7 294,23.9 C291.5,20.9 288.1,19.4 283.8,19.4 C279.5,19.4 276.1,20.9 273.4,23.9 C270.9,26.7 269.6,30.3 269.6,34.6 C269.6,38.9 270.9,42.5 273.4,45.3 C276.1,48.3 279.5,49.8 283.8,49.8 Z" id="形状"></path>
                        <polygon id="路径" points="318.7 54.6 318.7 19.9 310.5 19.9 310.5 14.6 318.7 14.6 318.7 0.3 324.7 0.3 324.7 14.6 333.9 14.6 333.9 19.9 324.7 19.9 324.7 54.6"></polygon>
                        <path d="M347.3,0 L347.3,7.8 L340.8,7.8 L340.8,0 L347.3,0 Z M341.1,14.6 L347.1,14.6 L347.1,54.6 L341.1,54.6 L341.1,14.6 Z" id="形状"></path>
                        <polygon id="路径" points="391.6 14.6 376 54.6 369 54.6 353.3 14.6 359.9 14.6 372.5 48.2 385.1 14.6"></polygon>
                        <path d="M415.2,49.8 C420.6,49.8 424.5,47.6 426.8,43.1 L433.4,43.1 C432,46.7 429.8,49.7 426.8,51.9 C423.8,54.1 419.9,55.3 415.2,55.3 C409.2,55.3 404.3,53.3 400.5,49.3 C396.8,45.4 395,40.5 395,34.7 C395,28.8 396.8,23.9 400.3,20.1 C404,16.1 408.9,14.1 414.9,14.1 C420.9,14.1 425.7,16.1 429.5,20.1 C433,23.9 434.8,28.8 434.8,34.7 L434.8,37.1 L401.3,37.1 C401.7,40.8 403.2,43.8 405.7,46.2 C408,48.6 411.3,49.8 415.2,49.8 Z M414.8,19.4 C411.1,19.4 408,20.5 405.5,22.8 C403.2,25 401.7,27.8 401.2,31.4 L428.4,31.4 C427.9,27.9 426.4,25 424.1,22.8 C421.5,20.5 418.4,19.4 414.8,19.4 Z" id="形状"></path>
                    </g>
                    <g transform="translate(669.000000, 1784.000000)" fill="#FFFFFF">
                        <polygon id="路径" points="38.3 8.1 22.1 8.1 22.1 49.4 16.9 49.4 16.9 8.1 0.7 8.1 0.7 3.1 38.3 3.1 38.3 8.1"></polygon>
                        <path d="M49.1,0.4 L49.1,19.9 C50.4,18.2 51.9,16.8 53.7,15.6 C55.5,14.4 57.6,13.8 59.9,13.8 C62.2,13.8 64.2,14.1 65.9,14.8 C67.6,15.5 69.1,16.4 70.3,17.7 C73.2,20.5 74.6,24.3 74.6,29 L74.6,49.4 L69.4,49.4 L69.4,29.2 C69.4,26 68.5,23.4 66.7,21.5 C64.9,19.6 62.5,18.6 59.6,18.6 C56.7,18.6 54.2,19.6 52.1,21.5 C50,23.5 49,26.1 49,29.2 L49,49.4 L43.8,49.4 L43.8,0.4 L49.1,0.4 Z" id="路径"></path>
                        <path d="M99.1,45.2 C103.8,45.2 107.2,43.2 109.2,39.3 L114.9,39.3 C113.7,42.5 111.8,45 109.1,47 C106.5,49 103.1,49.9 98.9,49.9 C93.6,49.9 89.3,48.1 86,44.7 C82.8,41.3 81.2,37 81.2,31.9 C81.2,26.7 82.7,22.4 85.8,19.1 C89.1,15.6 93.3,13.9 98.5,13.9 C103.7,13.9 108,15.7 111.2,19.1 C114.3,22.5 115.8,26.7 115.8,31.9 L115.8,34 L86.5,34 C86.9,37.2 88.2,39.9 90.4,42 C92.8,44.2 95.6,45.2 99.1,45.2 Z M98.6,18.6 C95.4,18.6 92.7,19.6 90.5,21.6 C88.4,23.5 87.2,26 86.7,29.1 L110.5,29.1 C110,26 108.8,23.5 106.7,21.6 C104.6,19.6 101.9,18.6 98.6,18.6 Z" id="形状"></path>
                        <path d="M164.7,43.8 C161.9,47.9 157.7,50 152.2,50 C147.2,50 143.1,48.2 139.9,44.8 C136.8,41.3 135.3,37.1 135.3,32 C135.3,26.9 136.8,22.6 139.9,19.2 C143.1,15.7 147.3,14 152.6,14 C157.9,14 161.9,16.1 164.8,20.2 L164.8,0.5 L170,0.5 L170,49.5 L164.8,49.5 L164.8,43.8 L164.7,43.8 Z M152.8,45.2 C156.6,45.2 159.6,43.9 161.8,41.3 C163.9,38.8 164.9,35.7 164.9,31.9 C164.9,28.1 163.9,25 161.8,22.5 C159.6,19.9 156.6,18.6 152.8,18.6 C149.1,18.6 146,19.9 143.7,22.5 C141.5,25 140.4,28.1 140.4,31.9 C140.4,35.7 141.5,38.8 143.7,41.3 C146.1,43.9 149.1,45.2 152.8,45.2 Z" id="形状"></path>
                        <path d="M206.3,43.8 C203.5,47.9 199.3,50 193.8,50 C188.8,50 184.7,48.2 181.5,44.8 C178.4,41.3 176.9,37.1 176.9,32 C176.9,26.9 178.4,22.6 181.5,19.2 C184.7,15.7 188.9,14 194.2,14 C199.5,14 203.5,16.1 206.4,20.2 L206.4,14.5 L211.6,14.5 L211.6,49.5 L206.4,49.5 L206.4,43.8 L206.3,43.8 Z M194.5,45.2 C198.3,45.2 201.3,43.9 203.5,41.3 C205.6,38.8 206.6,35.7 206.6,31.9 C206.6,28.1 205.6,25 203.5,22.5 C201.3,19.9 198.3,18.6 194.5,18.6 C190.8,18.6 187.7,19.9 185.4,22.5 C183.2,25 182.1,28.1 182.1,31.9 C182.1,35.7 183.2,38.8 185.4,41.3 C187.7,43.9 190.7,45.2 194.5,45.2 Z" id="形状"></path>
                        <polygon id="路径" points="224.4 49.4 224.4 19 217.3 19 217.3 14.4 224.4 14.4 224.4 1.9 229.6 1.9 229.6 14.4 237.6 14.4 237.6 19 229.6 19 229.6 49.4"></polygon>
                        <path d="M270.1,43.8 C267.3,47.9 263.1,50 257.6,50 C252.6,50 248.5,48.2 245.3,44.8 C242.2,41.3 240.7,37.1 240.7,32 C240.7,26.9 242.2,22.6 245.3,19.2 C248.5,15.7 252.7,14 258,14 C263.3,14 267.3,16.1 270.2,20.2 L270.2,14.5 L275.4,14.5 L275.4,49.5 L270.2,49.5 L270.2,43.8 L270.1,43.8 Z M258.2,45.2 C262,45.2 265,43.9 267.2,41.3 C269.3,38.8 270.3,35.7 270.3,31.9 C270.3,28.1 269.3,25 267.2,22.5 C265,19.9 262,18.6 258.2,18.6 C254.5,18.6 251.4,19.9 249.1,22.5 C246.9,25 245.8,28.1 245.8,31.9 C245.8,35.7 246.9,38.8 249.1,41.3 C251.5,43.9 254.5,45.2 258.2,45.2 Z" id="形状"></path>
                        <path d="M304.6,20 C307.4,15.9 311.6,13.8 317.1,13.8 C322.1,13.8 326.2,15.6 329.3,19 C332.4,22.5 334,26.7 334,31.8 C334,36.9 332.4,41.2 329.3,44.6 C326.2,48.1 322,49.8 316.7,49.8 C311.4,49.8 307.4,47.7 304.5,43.6 L304.5,63.1 L299.3,63.1 L299.3,14.2 L304.5,14.2 L304.5,20 L304.6,20 Z M316.4,18.6 C312.6,18.6 309.6,19.9 307.4,22.5 C305.3,25 304.2,28.1 304.2,31.9 C304.2,35.7 305.3,38.8 307.4,41.3 C309.6,43.9 312.6,45.2 316.4,45.2 C320.1,45.2 323.2,43.9 325.5,41.3 C327.7,38.8 328.8,35.7 328.8,31.9 C328.8,28.1 327.7,25 325.5,22.5 C323.2,20 320.1,18.6 316.4,18.6 Z" id="形状"></path>
                        <polygon id="路径" points="346.2 49.4 341 49.4 341 0.4 346.2 0.4"></polygon>
                        <path d="M382.6,43.8 C379.8,47.9 375.6,50 370.1,50 C365.1,50 361,48.2 357.8,44.8 C354.7,41.3 353.2,37.1 353.2,32 C353.2,26.9 354.7,22.6 357.8,19.2 C361,15.7 365.2,14 370.5,14 C375.8,14 379.8,16.1 382.7,20.2 L382.7,14.5 L387.9,14.5 L387.9,49.5 L382.7,49.5 L382.7,43.8 L382.6,43.8 Z M370.7,45.2 C374.5,45.2 377.5,43.9 379.7,41.3 C381.8,38.8 382.8,35.7 382.8,31.9 C382.8,28.1 381.8,25 379.7,22.5 C377.5,19.9 374.5,18.6 370.7,18.6 C367,18.6 363.9,19.9 361.6,22.5 C359.4,25 358.3,28.1 358.3,31.9 C358.3,35.7 359.4,38.8 361.6,41.3 C364,43.9 367,45.2 370.7,45.2 Z" id="形状"></path>
                        <path d="M402.2,14.4 L402.2,19.9 C403.5,18.2 405,16.8 406.8,15.6 C408.6,14.4 410.7,13.8 413,13.8 C415.3,13.8 417.3,14.1 419,14.8 C420.7,15.5 422.2,16.4 423.4,17.7 C426.3,20.5 427.7,24.3 427.7,29 L427.7,49.4 L422.5,49.4 L422.5,29.2 C422.5,26 421.6,23.4 419.8,21.5 C418,19.6 415.6,18.6 412.7,18.6 C409.8,18.6 407.3,19.6 405.2,21.5 C403.1,23.5 402.1,26.1 402.1,29.2 L402.1,49.4 L396.9,49.4 L396.9,14.4 L402.2,14.4 Z" id="路径"></path>
                        <path d="M452.1,45.2 C456.8,45.2 460.2,43.2 462.2,39.3 L467.9,39.3 C466.7,42.5 464.8,45 462.1,47 C459.5,49 456.1,49.9 451.9,49.9 C446.6,49.9 442.3,48.1 439,44.7 C435.8,41.3 434.2,37 434.2,31.9 C434.2,26.7 435.7,22.4 438.8,19.1 C442.1,15.6 446.3,13.9 451.5,13.9 C456.7,13.9 461,15.7 464.2,19.1 C467.3,22.5 468.8,26.7 468.8,31.9 L468.8,34 L439.5,34 C439.9,37.2 441.2,39.9 443.4,42 C445.8,44.2 448.7,45.2 452.1,45.2 Z M451.7,18.6 C448.5,18.6 445.8,19.6 443.6,21.6 C441.5,23.5 440.3,26 439.8,29.1 L463.6,29.1 C463.1,26 461.9,23.5 459.8,21.6 C457.6,19.6 454.9,18.6 451.7,18.6 Z" id="形状"></path>
                        <path d="M506,45.2 C510.7,45.2 514.1,43.2 516.1,39.3 L521.8,39.3 C520.6,42.5 518.7,45 516,47 C513.4,49 510,49.9 505.8,49.9 C500.5,49.9 496.2,48.1 492.9,44.7 C489.7,41.3 488.1,37 488.1,31.9 C488.1,26.7 489.6,22.4 492.7,19.1 C496,15.6 500.2,13.9 505.4,13.9 C510.6,13.9 514.9,15.7 518.1,19.1 C521.2,22.5 522.7,26.7 522.7,31.9 L522.7,34 L493.4,34 C493.8,37.2 495.1,39.9 497.3,42 C499.7,44.2 502.6,45.2 506,45.2 Z M505.6,18.6 C502.4,18.6 499.7,19.6 497.5,21.6 C495.4,23.5 494.2,26 493.7,29.1 L517.5,29.1 C517,26 515.8,23.5 513.7,21.6 C511.5,19.6 508.8,18.6 505.6,18.6 Z" id="形状"></path>
                        <path d="M534.7,19.8 C537,15.9 540.6,13.9 545.3,13.9 C547.6,13.9 549.8,14.5 551.8,15.8 C553.8,17 555.3,18.8 556.5,21 C558.1,18.1 560.6,16 563.9,14.7 C565.3,14.2 566.8,13.9 568.5,13.9 C570.2,13.9 571.8,14.2 573.4,14.9 C575,15.6 576.4,16.5 577.6,17.8 C580.2,20.6 581.5,24.1 581.5,28.3 L581.5,49.4 L576.3,49.4 L576.3,28.4 C576.3,25.5 575.5,23.1 573.9,21.3 C572.3,19.5 570.2,18.6 567.7,18.6 C565,18.6 562.8,19.5 561.1,21.2 C559.2,23 558.3,25.4 558.3,28.5 L558.3,49.4 L553.1,49.4 L553.1,28.4 C553.1,25.5 552.3,23.1 550.7,21.3 C549.1,19.5 547,18.6 544.5,18.6 C541.8,18.6 539.6,19.5 537.8,21.2 C535.9,23 535,25.4 535,28.5 L535,49.4 L529.8,49.4 L529.8,14.4 L535,14.4 L535,19.8 L534.7,19.8 Z" id="路径"></path>
                        <path d="M595.4,20 C598.2,15.9 602.4,13.8 607.9,13.8 C612.9,13.8 617,15.6 620.1,19 C623.2,22.5 624.8,26.7 624.8,31.8 C624.8,36.9 623.2,41.2 620.1,44.6 C617,48.1 612.8,49.8 607.5,49.8 C602.2,49.8 598.2,47.7 595.3,43.6 L595.3,63.1 L590.1,63.1 L590.1,14.2 L595.3,14.2 L595.3,20 L595.4,20 Z M607.3,18.6 C603.5,18.6 600.5,19.9 598.3,22.5 C596.2,25 595.1,28.1 595.1,31.9 C595.1,35.7 596.2,38.8 598.3,41.3 C600.5,43.9 603.5,45.2 607.3,45.2 C611,45.2 614.1,43.9 616.4,41.3 C618.6,38.8 619.7,35.7 619.7,31.9 C619.7,28.1 618.6,25 616.4,22.5 C614,20 611,18.6 607.3,18.6 Z" id="形状"></path>
                        <polygon id="路径" points="637 49.4 631.8 49.4 631.8 0.4 637 0.4"></polygon>
                        <path d="M661.3,13.9 C666.5,13.9 670.8,15.7 674,19.1 C677.1,22.5 678.6,26.7 678.6,31.9 C678.6,37.1 677.1,41.4 674,44.7 C670.7,48.2 666.5,49.9 661.3,49.9 C656.1,49.9 651.8,48.1 648.6,44.7 C645.5,41.3 644,37.1 644,31.9 C644,26.7 645.5,22.4 648.6,19.1 C651.8,15.6 656.1,13.9 661.3,13.9 Z M661.3,45.2 C665.1,45.2 668.1,43.9 670.3,41.3 C672.4,38.8 673.4,35.7 673.4,31.9 C673.4,28.1 672.4,25 670.3,22.5 C668.1,19.9 665.1,18.6 661.3,18.6 C657.5,18.6 654.5,19.9 652.3,22.5 C650.2,25 649.1,28.1 649.1,31.9 C649.1,35.7 650.1,38.8 652.3,41.3 C654.5,43.9 657.5,45.2 661.3,45.2 Z" id="形状"></path>
                        <polygon id="路径" points="694.4 63.3 688.7 63.3 695.1 48.9 680.8 14.4 686.6 14.4 697.9 43.1 709.4 14.4 715.1 14.4"></polygon>
                        <path d="M740.5,23.8 C740,20.2 737.1,18.3 731.7,18.3 C726.3,18.3 723.6,20 723.6,23.3 C723.6,24.7 724.2,25.8 725.3,26.5 C726.4,27.2 727.9,27.8 729.6,28.3 C731.3,28.8 733.2,29.2 735.2,29.6 C737.2,30 739.1,30.6 740.8,31.3 C742.5,32 744,33 745.1,34.3 C746.2,35.6 746.8,37.3 746.8,39.5 C746.8,42.9 745.5,45.5 742.9,47.3 C740.3,49.1 736.9,50 732.5,50 C727.8,50 724.1,48.8 721.4,46.5 C718.9,44.4 717.5,41.8 717.3,38.4 L722.8,38.4 C723.1,41.6 724.9,43.8 728.3,44.9 C729.5,45.3 730.7,45.5 731.9,45.5 C733.1,45.5 734.2,45.4 735.2,45.3 C736.2,45.2 737.2,44.9 738.2,44.5 C740.4,43.6 741.6,42.1 741.6,39.9 C741.6,38.5 741,37.3 739.9,36.6 C738.8,35.8 737.3,35.2 735.6,34.7 C733.9,34.2 732,33.8 730,33.4 C728,33 726.1,32.5 724.4,31.8 C722.7,31.1 721.2,30.1 720.1,28.9 C719,27.7 718.4,26 718.4,23.9 C718.4,20.7 719.6,18.3 721.9,16.5 C724.2,14.7 727.6,13.9 732.2,13.9 C736.5,13.9 739.9,14.9 742.3,17 C744.4,18.7 745.5,21 745.9,23.9 L740.5,23.9 L740.5,23.8 Z" id="路径"></path>
                        <path d="M789.2,3.1 C792,3.1 794.6,3.6 797.2,4.7 C799.8,5.8 802,7.3 804,9.3 C808.3,13.7 810.5,19.4 810.5,26.3 C810.5,33.2 808.3,38.9 804,43.3 C802,45.3 799.8,46.8 797.2,47.9 C794.6,49 792,49.5 789.2,49.5 L769.7,49.5 L769.7,3.2 L789.2,3.2 L789.2,3.1 Z M789,44.5 C793.9,44.5 797.8,42.7 800.8,39.1 C803.7,35.6 805.2,31.4 805.2,26.3 C805.2,21.2 803.7,16.9 800.8,13.5 C797.8,9.9 793.8,8.1 789,8.1 L774.9,8.1 L774.9,44.5 L789,44.5 L789,44.5 Z" id="形状"></path>
                        <path d="M824.2,49.4 L819,49.4 L819,3.1 L841.2,3.1 C845.9,3.1 849.7,4.4 852.5,7 C855.3,9.6 856.8,13.1 856.8,17.6 C856.8,23.4 854.4,27.3 849.6,29.4 C848.2,30 846.9,30.4 845.6,30.7 L857.8,49.4 L851.6,49.4 L840.4,31.6 L824.3,31.6 L824.3,49.4 L824.2,49.4 Z M824.2,26.7 L840.2,26.7 C845.1,26.7 848.6,25.2 850.4,22.1 C851.1,20.9 851.4,19.4 851.4,17.6 C851.4,14.7 850.4,12.3 848.4,10.6 C846.4,8.9 843.7,8 840.4,8 L824.1,8 L824.1,26.7 L824.2,26.7 Z" id="形状"></path>
                        <path d="M901.2,15.4 C901.2,20.5 899.1,24 895,25.8 C898.8,27.1 901.4,29.4 902.8,32.7 C903.3,34 903.6,35.5 903.6,37.2 C903.6,42.8 900.6,46.5 894.7,48.4 C892.7,49.1 890.4,49.4 887.8,49.4 L865.8,49.4 L865.8,3.1 L886.6,3.1 C891.6,3.1 895.4,4.5 898,7.2 C900.1,9.3 901.2,12 901.2,15.4 Z M871,23.8 L886.5,23.8 C890.8,23.8 893.7,22.3 895.1,19.4 C895.6,18.4 895.9,17.3 895.9,16.1 C895.9,14.9 895.7,13.9 895.4,13 C895.1,12.1 894.6,11.3 893.9,10.6 C892.4,9 890.1,8.1 887.1,8.1 L871,8.1 L871,23.8 Z M888.3,44.5 C891.5,44.5 894,43.8 895.7,42.5 C897.4,41.2 898.3,39.3 898.3,36.9 C898.3,34.6 897.5,32.7 895.8,31.2 C893.9,29.5 891.3,28.7 887.8,28.7 L871,28.7 L871,44.6 L888.3,44.6 L888.3,44.5 Z" id="形状"></path>
                        <path d="M931.6,3.1 C934.4,3.1 937,3.6 939.6,4.7 C942.2,5.8 944.4,7.3 946.4,9.3 C950.7,13.7 952.9,19.4 952.9,26.3 C952.9,33.2 950.7,38.9 946.4,43.3 C944.4,45.3 942.2,46.8 939.6,47.9 C937,49 934.4,49.5 931.6,49.5 L912.1,49.5 L912.1,3.2 L931.6,3.2 L931.6,3.1 Z M931.4,44.5 C936.3,44.5 940.2,42.7 943.2,39.1 C946.1,35.6 947.6,31.4 947.6,26.3 C947.6,21.2 946.1,16.9 943.2,13.5 C940.2,9.9 936.2,8.1 931.4,8.1 L917.3,8.1 L917.3,44.5 L931.4,44.5 L931.4,44.5 Z" id="形状"></path>
                        <path d="M1002.5,43.8 C999.7,47.9 995.5,50 990,50 C985,50 980.9,48.2 977.7,44.8 C974.6,41.3 973.1,37.1 973.1,32 C973.1,26.9 974.6,22.6 977.7,19.2 C980.9,15.7 985.1,14 990.4,14 C995.7,14 999.7,16.1 1002.6,20.2 L1002.6,14.5 L1007.8,14.5 L1007.8,49.5 L1002.6,49.5 L1002.6,43.8 L1002.5,43.8 Z M990.6,45.2 C994.4,45.2 997.4,43.9 999.6,41.3 C1001.7,38.8 1002.7,35.7 1002.7,31.9 C1002.7,28.1 1001.7,25 999.6,22.5 C997.4,19.9 994.4,18.6 990.6,18.6 C986.9,18.6 983.8,19.9 981.5,22.5 C979.3,25 978.2,28.1 978.2,31.9 C978.2,35.7 979.3,38.8 981.5,41.3 C983.9,43.9 986.9,45.2 990.6,45.2 Z" id="形状"></path>
                        <path d="M1022.1,14.4 L1022.1,19.9 C1023.4,18.2 1024.9,16.8 1026.7,15.6 C1028.5,14.4 1030.6,13.8 1032.9,13.8 C1035.2,13.8 1037.2,14.1 1038.9,14.8 C1040.6,15.5 1042.1,16.4 1043.3,17.7 C1046.2,20.5 1047.6,24.3 1047.6,29 L1047.6,49.4 L1042.4,49.4 L1042.4,29.2 C1042.4,26 1041.5,23.4 1039.7,21.5 C1037.9,19.6 1035.5,18.6 1032.6,18.6 C1029.7,18.6 1027.2,19.6 1025.1,21.5 C1023,23.5 1022,26.1 1022,29.2 L1022,49.4 L1016.8,49.4 L1016.8,14.4 L1022.1,14.4 Z" id="路径"></path>
                        <path d="M1083.7,43.8 C1080.9,47.9 1076.7,50 1071.2,50 C1066.2,50 1062.1,48.2 1058.9,44.8 C1055.8,41.3 1054.3,37.1 1054.3,32 C1054.3,26.9 1055.8,22.6 1058.9,19.2 C1062.1,15.7 1066.3,14 1071.6,14 C1076.9,14 1080.9,16.1 1083.8,20.2 L1083.8,0.5 L1089,0.5 L1089,49.5 L1083.8,49.5 L1083.8,43.8 L1083.7,43.8 Z M1071.9,45.2 C1075.7,45.2 1078.7,43.9 1080.9,41.3 C1083,38.8 1084,35.7 1084,31.9 C1084,28.1 1083,25 1080.9,22.5 C1078.7,19.9 1075.7,18.6 1071.9,18.6 C1068.2,18.6 1065.1,19.9 1062.8,22.5 C1060.6,25 1059.5,28.1 1059.5,31.9 C1059.5,35.7 1060.6,38.8 1062.8,41.3 C1065.1,43.9 1068.2,45.2 1071.9,45.2 Z" id="形状"></path>
                        <polygon id="路径" points="1119.4 3.1 1119.4 44.4 1144.7 44.4 1144.7 49.4 1114.2 49.4 1114.2 3.1"></polygon>
                        <polygon id="路径" points="1183.5 3.1 1164.7 49.4 1158.7 49.4 1139.9 3.1 1145.6 3.1 1161.6 43.5 1177.6 3.1"></polygon>
                        <polygon id="路径" points="1234.4 3.1 1234.4 49.4 1229.2 49.4 1229.2 11 1212 33 1194.6 11 1194.6 49.4 1189.4 49.4 1189.4 3.1 1195.5 3.1 1212.1 25.1 1228.4 3.1"></polygon>
                        <polygon id="路径" points="1244.9 43.8 1251.8 43.8 1245.6 58.7 1240.8 58.7"></polygon>
                        <polygon id="路径" points="1296.8 21.5 1288 49.4 1282 49.4 1271 14.4 1276.6 14.4 1285 42.9 1293.9 14.4 1299.6 14.4 1308.5 42.9 1316.9 14.4 1322.5 14.4 1311.5 49.4 1305.5 49.4"></polygon>
                        <path d="M1333,0.4 L1333,19.9 C1334.3,18.2 1335.8,16.8 1337.6,15.6 C1339.4,14.4 1341.5,13.8 1343.8,13.8 C1346.1,13.8 1348.1,14.1 1349.8,14.8 C1351.5,15.5 1353,16.4 1354.2,17.7 C1357.1,20.5 1358.5,24.3 1358.5,29 L1358.5,49.4 L1353.3,49.4 L1353.3,29.2 C1353.3,26 1352.4,23.4 1350.6,21.5 C1348.8,19.6 1346.4,18.6 1343.5,18.6 C1340.6,18.6 1338.1,19.6 1336,21.5 C1333.9,23.5 1332.9,26.1 1332.9,29.2 L1332.9,49.4 L1327.7,49.4 L1327.7,0.4 L1333,0.4 Z" id="路径"></path>
                        <path d="M1372.8,1.7 L1372.8,8.6 L1367.1,8.6 L1367.1,1.7 L1372.8,1.7 Z M1367.4,14.4 L1372.6,14.4 L1372.6,49.4 L1367.4,49.4 L1367.4,14.4 Z" id="形状"></path>
                        <path d="M1397.9,45.2 C1400.1,45.2 1402.1,44.6 1403.9,43.3 C1405.6,42 1406.9,40.4 1407.7,38.4 L1413.4,38.4 C1412.3,41.9 1410.4,44.6 1407.5,46.7 C1404.5,48.8 1401,49.9 1396.9,49.9 C1391.8,49.9 1387.6,48.1 1384.4,44.7 C1381.3,41.3 1379.7,37 1379.7,31.9 C1379.7,26.8 1381.3,22.5 1384.4,19.1 C1387.6,15.6 1391.8,13.9 1396.9,13.9 C1401,13.9 1404.6,15 1407.5,17.1 C1410.3,19.2 1412.3,22 1413.4,25.4 L1407.7,25.4 C1406.9,23.4 1405.6,21.8 1403.9,20.5 C1402.2,19.2 1400.2,18.6 1397.9,18.6 C1395.7,18.6 1393.8,18.9 1392.2,19.6 C1390.6,20.3 1389.3,21.3 1388.2,22.5 C1385.9,25 1384.8,28.1 1384.8,31.9 C1384.8,35.6 1385.9,38.8 1388.2,41.3 C1390.6,43.9 1393.8,45.2 1397.9,45.2 Z" id="路径"></path>
                        <path d="M1425.1,0.4 L1425.1,19.9 C1426.4,18.2 1427.9,16.8 1429.7,15.6 C1431.5,14.4 1433.6,13.8 1435.9,13.8 C1438.2,13.8 1440.2,14.1 1441.9,14.8 C1443.6,15.5 1445.1,16.4 1446.3,17.7 C1449.2,20.5 1450.6,24.3 1450.6,29 L1450.6,49.4 L1445.4,49.4 L1445.4,29.2 C1445.4,26 1444.5,23.4 1442.7,21.5 C1440.9,19.6 1438.5,18.6 1435.6,18.6 C1432.7,18.6 1430.2,19.6 1428.1,21.5 C1426,23.5 1425,26.1 1425,29.2 L1425,49.4 L1419.8,49.4 L1419.8,0.4 L1425.1,0.4 Z" id="路径"></path>
                        <path d="M31.6,143.8 C28.8,147.9 24.6,150 19.1,150 C14.1,150 10,148.2 6.8,144.8 C3.7,141.3 2.2,137.1 2.2,132 C2.2,126.9 3.7,122.6 6.8,119.2 C10,115.7 14.2,114 19.5,114 C24.8,114 28.8,116.1 31.7,120.2 L31.7,114.5 L36.9,114.5 L36.9,149.5 L31.7,149.5 L31.7,143.8 L31.6,143.8 Z M19.8,145.2 C23.6,145.2 26.6,143.9 28.8,141.3 C30.9,138.8 31.9,135.7 31.9,131.9 C31.9,128.1 30.9,125 28.8,122.5 C26.6,119.9 23.6,118.6 19.8,118.6 C16.1,118.6 13,119.9 10.7,122.5 C8.5,125 7.4,128.1 7.4,131.9 C7.4,135.7 8.5,138.8 10.7,141.3 C13,143.9 16,145.2 19.8,145.2 Z" id="形状"></path>
                        <path d="M64.4,113.9 L64.4,119.1 L63.8,119.1 C60,119.1 56.9,120.6 54.6,123.7 C52.4,126.6 51.2,130 51.2,134.1 L51.2,149.5 L46,149.5 L46,114.5 L51.2,114.5 L51.2,123.1 C52.3,119.5 54.7,116.8 58.5,115.1 C60,114.4 61.9,114 64.1,114 L64.4,114 L64.4,113.9 Z" id="路径"></path>
                        <path d="M84.8,145.2 C89.5,145.2 92.9,143.2 94.9,139.3 L100.6,139.3 C99.4,142.5 97.5,145 94.8,147 C92.2,149 88.8,149.9 84.6,149.9 C79.3,149.9 75,148.1 71.7,144.7 C68.5,141.3 66.9,137 66.9,131.9 C66.9,126.7 68.4,122.4 71.5,119.1 C74.8,115.6 79,113.9 84.2,113.9 C89.4,113.9 93.7,115.7 96.9,119.1 C100,122.5 101.5,126.7 101.5,131.9 L101.5,134 L72.2,134 C72.6,137.2 73.9,139.9 76.1,142 C78.5,144.2 81.3,145.2 84.8,145.2 Z M84.4,118.6 C81.2,118.6 78.5,119.6 76.3,121.6 C74.2,123.5 73,126 72.5,129.1 L96.3,129.1 C95.8,126 94.6,123.5 92.5,121.6 C90.3,119.6 87.6,118.6 84.4,118.6 Z" id="形状"></path>
                        <path d="M128.3,120.1 C131.1,115.9 135.3,113.9 140.8,113.9 C145.8,113.9 149.9,115.7 153,119.1 C156.1,122.6 157.7,126.8 157.7,131.9 C157.7,137 156.1,141.3 153,144.7 C149.9,148.2 145.7,149.9 140.4,149.9 C135.1,149.9 131.1,147.8 128.3,143.7 L128.3,149.3 L123.1,149.3 L123.1,100.3 L128.3,100.3 L128.3,120.1 Z M140.2,145.2 C143.9,145.2 147,143.9 149.3,141.3 C151.5,138.8 152.6,135.7 152.6,131.9 C152.6,128.1 151.5,125 149.3,122.5 C147,119.9 143.9,118.6 140.2,118.6 C136.4,118.6 133.4,119.9 131.2,122.5 C129.1,125 128,128.1 128,131.9 C128,135.7 129.1,138.8 131.2,141.3 C133.4,143.9 136.4,145.2 140.2,145.2 Z" id="形状"></path>
                        <path d="M192,143.8 C189.2,147.9 185,150 179.5,150 C174.5,150 170.4,148.2 167.2,144.8 C164.1,141.3 162.6,137.1 162.6,132 C162.6,126.9 164.1,122.6 167.2,119.2 C170.4,115.7 174.6,114 179.9,114 C185.2,114 189.2,116.1 192.1,120.2 L192.1,114.5 L197.3,114.5 L197.3,149.5 L192,149.5 L192,143.8 Z M180.1,145.2 C183.9,145.2 186.9,143.9 189.1,141.3 C191.2,138.8 192.2,135.7 192.2,131.9 C192.2,128.1 191.2,125 189.1,122.5 C186.9,119.9 183.9,118.6 180.1,118.6 C176.4,118.6 173.3,119.9 171,122.5 C168.8,125 167.7,128.1 167.7,131.9 C167.7,135.7 168.8,138.8 171,141.3 C173.4,143.9 176.4,145.2 180.1,145.2 Z" id="形状"></path>
                        <polygon id="路径" points="210.1 149.4 210.1 119 203 119 203 114.4 210.1 114.4 210.1 101.9 215.3 101.9 215.3 114.4 223.3 114.4 223.3 119 215.3 119 215.3 149.4"></polygon>
                        <polygon id="路径" points="232.9 149.4 232.9 119 225.8 119 225.8 114.4 232.9 114.4 232.9 101.9 238.1 101.9 238.1 114.4 246.1 114.4 246.1 119 238.1 119 238.1 149.4"></polygon>
                        <polygon id="路径" points="257.2 149.4 252 149.4 252 100.4 257.2 100.4"></polygon>
                        <path d="M281.9,145.2 C286.6,145.2 290,143.2 292,139.3 L297.7,139.3 C296.5,142.5 294.6,145 291.9,147 C289.3,149 285.9,149.9 281.7,149.9 C276.4,149.9 272.1,148.1 268.8,144.7 C265.6,141.3 264,137 264,131.9 C264,126.7 265.5,122.4 268.6,119.1 C271.9,115.6 276.1,113.9 281.3,113.9 C286.5,113.9 290.8,115.7 294,119.1 C297.1,122.5 298.6,126.7 298.6,131.9 L298.6,134 L269.3,134 C269.7,137.2 271,139.9 273.2,142 C275.6,144.2 278.4,145.2 281.9,145.2 Z M281.5,118.6 C278.3,118.6 275.6,119.6 273.4,121.6 C271.3,123.5 270.1,126 269.6,129.1 L293.4,129.1 C292.9,126 291.7,123.5 289.6,121.6 C287.4,119.6 284.7,118.6 281.5,118.6 Z" id="形状"></path>
                        <polygon id="路径" points="304.4 126.2 321.9 126.2 321.9 131.3 304.4 131.3"></polygon>
                        <polygon id="路径" points="332.6 149.4 332.6 119 325.5 119 325.5 114.4 332.6 114.4 332.6 101.9 337.8 101.9 337.8 114.4 345.8 114.4 345.8 119 337.8 119 337.8 149.4"></polygon>
                        <path d="M366.5,145.2 C371.2,145.2 374.6,143.2 376.6,139.3 L382.3,139.3 C381.1,142.5 379.2,145 376.5,147 C373.9,149 370.5,149.9 366.3,149.9 C361,149.9 356.7,148.1 353.4,144.7 C350.2,141.3 348.6,137 348.6,131.9 C348.6,126.7 350.1,122.4 353.2,119.1 C356.5,115.6 360.7,113.9 365.9,113.9 C371.1,113.9 375.4,115.7 378.6,119.1 C381.7,122.5 383.2,126.7 383.2,131.9 L383.2,134 L353.9,134 C354.3,137.2 355.6,139.9 357.8,142 C360.2,144.2 363.1,145.2 366.5,145.2 Z M366.1,118.6 C362.9,118.6 360.2,119.6 358,121.6 C355.9,123.5 354.7,126 354.2,129.1 L378,129.1 C377.5,126 376.3,123.5 374.2,121.6 C372,119.6 369.3,118.6 366.1,118.6 Z" id="形状"></path>
                        <path d="M410.5,123.8 C410,120.2 407.1,118.3 401.7,118.3 C396.3,118.3 393.6,120 393.6,123.3 C393.6,124.7 394.2,125.8 395.3,126.5 C396.4,127.2 397.9,127.8 399.6,128.3 C401.3,128.8 403.2,129.2 405.2,129.6 C407.2,130 409.1,130.6 410.8,131.3 C412.5,132 414,133 415.1,134.3 C416.2,135.6 416.8,137.3 416.8,139.5 C416.8,142.9 415.5,145.5 412.9,147.3 C410.3,149.1 406.9,150 402.5,150 C397.8,150 394.1,148.8 391.4,146.5 C388.9,144.4 387.5,141.8 387.3,138.4 L392.8,138.4 C393.1,141.6 394.9,143.8 398.3,144.9 C399.5,145.3 400.7,145.5 401.9,145.5 C403.1,145.5 404.2,145.4 405.2,145.3 C406.2,145.2 407.2,144.9 408.2,144.5 C410.4,143.6 411.6,142.1 411.6,139.9 C411.6,138.5 411,137.3 409.9,136.6 C408.8,135.8 407.3,135.2 405.6,134.7 C403.9,134.2 402,133.8 400,133.4 C398,133 396.1,132.5 394.4,131.8 C392.7,131.1 391.2,130.1 390.1,128.9 C389,127.7 388.4,126 388.4,123.9 C388.4,120.7 389.6,118.3 391.9,116.5 C394.2,114.7 397.6,113.9 402.2,113.9 C406.5,113.9 409.9,114.9 412.3,117 C414.4,118.7 415.5,121 415.9,123.9 L410.5,123.9 L410.5,123.8 Z" id="路径"></path>
                        <polygon id="路径" points="427.4 149.4 427.4 119 420.3 119 420.3 114.4 427.4 114.4 427.4 101.9 432.6 101.9 432.6 114.4 440.6 114.4 440.6 119 432.6 119 432.6 149.4"></polygon>
                        <path d="M461.4,145.2 C466.1,145.2 469.5,143.2 471.5,139.3 L477.2,139.3 C476,142.5 474.1,145 471.4,147 C468.8,149 465.4,149.9 461.2,149.9 C455.9,149.9 451.6,148.1 448.3,144.7 C445.1,141.3 443.5,137 443.5,131.9 C443.5,126.7 445,122.4 448.1,119.1 C451.4,115.6 455.6,113.9 460.8,113.9 C466,113.9 470.3,115.7 473.5,119.1 C476.6,122.5 478.1,126.7 478.1,131.9 L478.1,134 L449,134 C449.4,137.2 450.7,139.9 452.9,142 C455.1,144.2 457.9,145.2 461.4,145.2 Z M461,118.6 C457.8,118.6 455.1,119.6 452.9,121.6 C450.8,123.5 449.6,126 449.1,129.1 L472.9,129.1 C472.4,126 471.2,123.5 469.1,121.6 C466.9,119.6 464.2,118.6 461,118.6 Z" id="形状"></path>
                        <path d="M512.1,143.8 C509.3,147.9 505.1,150 499.6,150 C494.6,150 490.5,148.2 487.3,144.8 C484.2,141.3 482.7,137.1 482.7,132 C482.7,126.9 484.2,122.6 487.3,119.2 C490.5,115.7 494.7,114 500,114 C505.3,114 509.3,116.1 512.2,120.2 L512.2,100.5 L517.4,100.5 L517.4,149.5 L512.2,149.5 L512.2,143.8 L512.1,143.8 Z M500.2,145.2 C504,145.2 507,143.9 509.2,141.3 C511.3,138.8 512.3,135.7 512.3,131.9 C512.3,128.1 511.3,125 509.2,122.5 C507,119.9 504,118.6 500.2,118.6 C496.5,118.6 493.4,119.9 491.1,122.5 C488.9,125 487.8,128.1 487.8,131.9 C487.8,135.7 488.9,138.8 491.1,141.3 C493.5,143.9 496.5,145.2 500.2,145.2 Z" id="形状"></path>
                        <path d="M557.5,145.2 C559.7,145.2 561.7,144.6 563.5,143.3 C565.2,142 566.5,140.4 567.3,138.4 L573,138.4 C571.9,141.9 570,144.6 567.1,146.7 C564.1,148.8 560.6,149.9 556.5,149.9 C551.4,149.9 547.2,148.1 544,144.7 C540.9,141.3 539.3,137 539.3,131.9 C539.3,126.8 540.9,122.5 544,119.1 C547.2,115.6 551.4,113.9 556.5,113.9 C560.6,113.9 564.2,115 567.1,117.1 C569.9,119.2 571.9,122 573,125.4 L567.3,125.4 C566.5,123.4 565.2,121.8 563.5,120.5 C561.8,119.2 559.8,118.6 557.5,118.6 C555.3,118.6 553.4,118.9 551.8,119.6 C550.2,120.3 548.9,121.3 547.8,122.5 C545.5,125 544.4,128.1 544.4,131.9 C544.4,135.6 545.5,138.8 547.8,141.3 C550.2,143.9 553.4,145.2 557.5,145.2 Z" id="路径"></path>
                        <path d="M594.6,113.9 C599.8,113.9 604.1,115.7 607.3,119.1 C610.4,122.5 611.9,126.7 611.9,131.9 C611.9,137.1 610.4,141.4 607.3,144.7 C604,148.2 599.8,149.9 594.6,149.9 C589.4,149.9 585.1,148.1 581.9,144.7 C578.8,141.3 577.3,137.1 577.3,131.9 C577.3,126.7 578.8,122.4 581.9,119.1 C585.1,115.6 589.4,113.9 594.6,113.9 Z M594.6,145.2 C598.4,145.2 601.4,143.9 603.6,141.3 C605.7,138.8 606.7,135.7 606.7,131.9 C606.7,128.1 605.7,125 603.6,122.5 C601.4,119.9 598.4,118.6 594.6,118.6 C590.8,118.6 587.8,119.9 585.6,122.5 C583.5,125 582.4,128.1 582.4,131.9 C582.4,135.7 583.4,138.8 585.6,141.3 C587.8,143.9 590.8,145.2 594.6,145.2 Z" id="形状"></path>
                        <path d="M624.1,119.8 C626.4,115.9 630,113.9 634.7,113.9 C637,113.9 639.2,114.5 641.2,115.8 C643.2,117 644.7,118.8 645.9,121 C647.5,118.1 650,116 653.3,114.7 C654.7,114.2 656.2,113.9 657.9,113.9 C659.6,113.9 661.2,114.2 662.8,114.9 C664.4,115.6 665.8,116.5 667,117.8 C669.6,120.6 670.9,124.1 670.9,128.3 L670.9,149.4 L665.7,149.4 L665.7,128.4 C665.7,125.5 664.9,123.1 663.3,121.3 C661.7,119.5 659.6,118.6 657.1,118.6 C654.4,118.6 652.2,119.5 650.5,121.2 C648.6,123 647.7,125.4 647.7,128.5 L647.7,149.4 L642.5,149.4 L642.5,128.4 C642.5,125.5 641.7,123.1 640.1,121.3 C638.5,119.5 636.4,118.6 633.9,118.6 C631.2,118.6 629,119.5 627.2,121.2 C625.3,123 624.4,125.4 624.4,128.5 L624.4,149.4 L619.2,149.4 L619.2,114.4 L624.4,114.4 L624.4,119.8 L624.1,119.8 Z" id="路径"></path>
                        <path d="M684.9,120 C687.7,115.9 691.9,113.8 697.4,113.8 C702.4,113.8 706.5,115.6 709.6,119 C712.7,122.5 714.3,126.7 714.3,131.8 C714.3,136.9 712.7,141.2 709.6,144.6 C706.5,148.1 702.3,149.8 697,149.8 C691.7,149.8 687.7,147.7 684.8,143.6 L684.8,163.1 L679.6,163.1 L679.6,114.2 L684.8,114.2 L684.8,120 L684.9,120 Z M696.7,118.6 C692.9,118.6 689.9,119.9 687.7,122.5 C685.6,125 684.5,128.1 684.5,131.9 C684.5,135.7 685.6,138.8 687.7,141.3 C689.9,143.9 692.9,145.2 696.7,145.2 C700.4,145.2 703.5,143.9 705.8,141.3 C708,138.8 709.1,135.7 709.1,131.9 C709.1,128.1 708,125 705.8,122.5 C703.5,120 700.4,118.6 696.7,118.6 Z" id="形状"></path>
                        <path d="M736.4,113.9 C741.6,113.9 745.9,115.7 749.1,119.1 C752.2,122.5 753.7,126.7 753.7,131.9 C753.7,137.1 752.2,141.4 749.1,144.7 C745.8,148.2 741.6,149.9 736.4,149.9 C731.2,149.9 726.9,148.1 723.7,144.7 C720.6,141.3 719.1,137.1 719.1,131.9 C719.1,126.7 720.6,122.4 723.7,119.1 C726.9,115.6 731.2,113.9 736.4,113.9 Z M736.4,145.2 C740.2,145.2 743.2,143.9 745.4,141.3 C747.5,138.8 748.5,135.7 748.5,131.9 C748.5,128.1 747.5,125 745.4,122.5 C743.2,119.9 740.2,118.6 736.4,118.6 C732.6,118.6 729.6,119.9 727.4,122.5 C725.3,125 724.2,128.1 724.2,131.9 C724.2,135.7 725.2,138.8 727.4,141.3 C729.6,143.9 732.6,145.2 736.4,145.2 Z" id="形状"></path>
                        <path d="M765.9,114.4 L765.9,119.9 C767.2,118.2 768.7,116.8 770.5,115.6 C772.3,114.4 774.4,113.8 776.7,113.8 C779,113.8 781,114.1 782.7,114.8 C784.4,115.5 785.9,116.4 787.1,117.7 C790,120.5 791.4,124.3 791.4,129 L791.4,149.4 L786.2,149.4 L786.2,129.2 C786.2,126 785.3,123.4 783.5,121.5 C781.7,119.6 779.3,118.6 776.4,118.6 C773.5,118.6 771,119.6 768.9,121.5 C766.8,123.5 765.8,126.1 765.8,129.2 L765.8,149.4 L760.6,149.4 L760.6,114.4 L765.9,114.4 Z" id="路径"></path>
                        <path d="M815.9,145.2 C820.6,145.2 824,143.2 826,139.3 L831.7,139.3 C830.5,142.5 828.6,145 825.9,147 C823.3,149 819.9,149.9 815.7,149.9 C810.4,149.9 806.1,148.1 802.8,144.7 C799.6,141.3 798,137 798,131.9 C798,126.7 799.5,122.4 802.6,119.1 C805.9,115.6 810.1,113.9 815.3,113.9 C820.5,113.9 824.8,115.7 828,119.1 C831.1,122.5 832.6,126.7 832.6,131.9 L832.6,134 L803.3,134 C803.7,137.2 805,139.9 807.2,142 C809.6,144.2 812.5,145.2 815.9,145.2 Z M815.5,118.6 C812.3,118.6 809.6,119.6 807.4,121.6 C805.3,123.5 804.1,126 803.6,129.1 L827.4,129.1 C826.9,126 825.7,123.5 823.6,121.6 C821.4,119.6 818.7,118.6 815.5,118.6 Z" id="形状"></path>
                        <path d="M844.6,114.4 L844.6,119.9 C845.9,118.2 847.4,116.8 849.2,115.6 C851,114.4 853.1,113.8 855.4,113.8 C857.7,113.8 859.7,114.1 861.4,114.8 C863.1,115.5 864.6,116.4 865.8,117.7 C868.7,120.5 870.1,124.3 870.1,129 L870.1,149.4 L864.9,149.4 L864.9,129.2 C864.9,126 864,123.4 862.2,121.5 C860.4,119.6 858,118.6 855.1,118.6 C852.2,118.6 849.7,119.6 847.6,121.5 C845.5,123.5 844.5,126.1 844.5,129.2 L844.5,149.4 L839.3,149.4 L839.3,114.4 L844.6,114.4 Z" id="路径"></path>
                        <polygon id="路径" points="881.9 149.4 881.9 119 874.8 119 874.8 114.4 881.9 114.4 881.9 101.9 887.1 101.9 887.1 114.4 895.1 114.4 895.1 119 887.1 119 887.1 149.4"></polygon>
                        <path d="M921.5,123.8 C921,120.2 918.1,118.3 912.7,118.3 C907.3,118.3 904.6,120 904.6,123.3 C904.6,124.7 905.2,125.8 906.3,126.5 C907.4,127.2 908.9,127.8 910.6,128.3 C912.3,128.8 914.2,129.2 916.2,129.6 C918.2,130 920.1,130.6 921.8,131.3 C923.5,132 925,133 926.1,134.3 C927.2,135.6 927.8,137.3 927.8,139.5 C927.8,142.9 926.5,145.5 923.9,147.3 C921.3,149.1 917.9,150 913.5,150 C908.8,150 905.1,148.8 902.4,146.5 C899.9,144.4 898.5,141.8 898.3,138.4 L903.8,138.4 C904.1,141.6 905.9,143.8 909.3,144.9 C910.5,145.3 911.7,145.5 912.9,145.5 C914.1,145.5 915.2,145.4 916.2,145.3 C917.2,145.2 918.2,144.9 919.2,144.5 C921.4,143.6 922.6,142.1 922.6,139.9 C922.6,138.5 922,137.3 920.9,136.6 C919.8,135.8 918.3,135.2 916.6,134.7 C914.9,134.2 913,133.8 911,133.4 C909,133 907.1,132.5 905.4,131.8 C903.7,131.1 902.2,130.1 901.1,128.9 C900,127.7 899.4,126 899.4,123.9 C899.4,120.7 900.6,118.3 902.9,116.5 C905.2,114.7 908.6,113.9 913.2,113.9 C917.5,113.9 920.9,114.9 923.3,117 C925.4,118.7 926.5,121 926.9,123.9 L921.5,123.9 L921.5,123.8 Z" id="路径"></path>
                        <path d="M955,101.7 L955,108.6 L949.3,108.6 L949.3,101.7 L955,101.7 Z M949.5,114.4 L954.7,114.4 L954.7,149.4 L949.5,149.4 L949.5,114.4 Z" id="形状"></path>
                        <path d="M969.1,114.4 L969.1,119.9 C970.4,118.2 971.9,116.8 973.7,115.6 C975.5,114.4 977.6,113.8 979.9,113.8 C982.2,113.8 984.2,114.1 985.9,114.8 C987.6,115.5 989.1,116.4 990.3,117.7 C993.2,120.5 994.6,124.3 994.6,129 L994.6,149.4 L989.4,149.4 L989.4,129.2 C989.4,126 988.5,123.4 986.7,121.5 C984.9,119.6 982.5,118.6 979.6,118.6 C976.7,118.6 974.2,119.6 972.1,121.5 C970,123.5 969,126.1 969,129.2 L969,149.4 L963.8,149.4 L963.8,114.4 L969.1,114.4 Z" id="路径"></path>
                        <polygon id="路径" points="1024.8 103.1 1024.8 144.4 1050.1 144.4 1050.1 149.4 1019.6 149.4 1019.6 103.1"></polygon>
                        <path d="M1061.2,101.7 L1061.2,108.6 L1055.5,108.6 L1055.5,101.7 L1061.2,101.7 Z M1055.7,114.4 L1060.9,114.4 L1060.9,149.4 L1055.7,149.4 L1055.7,114.4 Z" id="形状"></path>
                        <path d="M1075.3,114.4 L1075.3,119.9 C1076.6,118.2 1078.1,116.8 1079.9,115.6 C1081.7,114.4 1083.8,113.8 1086.1,113.8 C1088.4,113.8 1090.4,114.1 1092.1,114.8 C1093.8,115.5 1095.3,116.4 1096.5,117.7 C1099.4,120.5 1100.8,124.3 1100.8,129 L1100.8,149.4 L1095.6,149.4 L1095.6,129.2 C1095.6,126 1094.7,123.4 1092.9,121.5 C1091.1,119.6 1088.7,118.6 1085.8,118.6 C1082.9,118.6 1080.4,119.6 1078.3,121.5 C1076.2,123.5 1075.2,126.1 1075.2,129.2 L1075.2,149.4 L1070,149.4 L1070,114.4 L1075.3,114.4 Z" id="路径"></path>
                        <path d="M1134.6,149.4 L1134.6,143.9 C1133.3,145.6 1131.8,147 1130,148.2 C1128.2,149.4 1126.1,150 1123.8,150 C1121.5,150 1119.5,149.7 1117.8,149 C1116.1,148.3 1114.6,147.4 1113.4,146.1 C1110.5,143.3 1109.1,139.5 1109.1,134.8 L1109.1,114.4 L1114.3,114.4 L1114.3,134.6 C1114.3,137.8 1115.2,140.4 1117,142.3 C1118.8,144.2 1121.2,145.2 1124.1,145.2 C1127,145.2 1129.5,144.2 1131.6,142.3 C1133.7,140.3 1134.7,137.7 1134.7,134.6 L1134.7,114.4 L1139.9,114.4 L1139.9,149.4 L1134.6,149.4 Z" id="路径"></path>
                        <polygon id="路径" points="1164.3 131.4 1177.9 149.5 1171.2 149.5 1161.3 135.2 1151.4 149.5 1144.8 149.5 1158.3 131.4 1145.6 114.5 1152.3 114.5 1161.3 127.7 1170.3 114.5 1177 114.5"></polygon>
                        <polygon id="路径" points="1213 128.2 1228.1 149.4 1221.7 149.4 1209.5 131.8 1202.9 138.3 1202.9 149.4 1197.7 149.4 1197.7 100.4 1202.9 100.4 1202.9 131.8 1219.8 114.4 1227.1 114.4"></polygon>
                        <path d="M1246.6,145.2 C1251.3,145.2 1254.7,143.2 1256.7,139.3 L1262.4,139.3 C1261.2,142.5 1259.3,145 1256.6,147 C1254,149 1250.6,149.9 1246.4,149.9 C1241.1,149.9 1236.8,148.1 1233.5,144.7 C1230.3,141.3 1228.7,137 1228.7,131.9 C1228.7,126.7 1230.2,122.4 1233.3,119.1 C1236.6,115.6 1240.8,113.9 1246,113.9 C1251.2,113.9 1255.5,115.7 1258.7,119.1 C1261.8,122.5 1263.3,126.7 1263.3,131.9 L1263.3,134 L1234,134 C1234.4,137.2 1235.7,139.9 1237.9,142 C1240.3,144.2 1243.2,145.2 1246.6,145.2 Z M1246.2,118.6 C1243,118.6 1240.3,119.6 1238.1,121.6 C1236,123.5 1234.8,126 1234.3,129.1 L1258.1,129.1 C1257.6,126 1256.4,123.5 1254.3,121.6 C1252.1,119.6 1249.4,118.6 1246.2,118.6 Z" id="形状"></path>
                        <path d="M1288.5,113.9 L1288.5,119.1 L1287.9,119.1 C1284.1,119.1 1281,120.6 1278.7,123.7 C1276.5,126.6 1275.3,130 1275.3,134.1 L1275.3,149.5 L1270.1,149.5 L1270.1,114.5 L1275.3,114.5 L1275.3,123.1 C1276.4,119.5 1278.8,116.8 1282.6,115.1 C1284.1,114.4 1286,114 1288.2,114 L1288.5,114 L1288.5,113.9 Z" id="路径"></path>
                        <path d="M1299.4,114.4 L1299.4,119.9 C1300.7,118.2 1302.2,116.8 1304,115.6 C1305.8,114.4 1307.9,113.8 1310.2,113.8 C1312.5,113.8 1314.5,114.1 1316.2,114.8 C1317.9,115.5 1319.4,116.4 1320.6,117.7 C1323.5,120.5 1324.9,124.3 1324.9,129 L1324.9,149.4 L1319.7,149.4 L1319.7,129.2 C1319.7,126 1318.8,123.4 1317,121.5 C1315.2,119.6 1312.8,118.6 1309.9,118.6 C1307,118.6 1304.5,119.6 1302.4,121.5 C1300.3,123.5 1299.3,126.1 1299.3,129.2 L1299.3,149.4 L1294.1,149.4 L1294.1,114.4 L1299.4,114.4 Z" id="路径"></path>
                        <path d="M1349.4,145.2 C1354.1,145.2 1357.5,143.2 1359.5,139.3 L1365.2,139.3 C1364,142.5 1362.1,145 1359.4,147 C1356.8,149 1353.4,149.9 1349.2,149.9 C1343.9,149.9 1339.6,148.1 1336.3,144.7 C1333.1,141.3 1331.5,137 1331.5,131.9 C1331.5,126.7 1333,122.4 1336.1,119.1 C1339.4,115.6 1343.6,113.9 1348.8,113.9 C1354,113.9 1358.3,115.7 1361.5,119.1 C1364.6,122.5 1366.1,126.7 1366.1,131.9 L1366.1,134 L1337,134 C1337.4,137.2 1338.7,139.9 1340.9,142 C1343.1,144.2 1345.9,145.2 1349.4,145.2 Z M1349,118.6 C1345.8,118.6 1343.1,119.6 1340.9,121.6 C1338.8,123.5 1337.6,126 1337.1,129.1 L1360.9,129.1 C1360.4,126 1359.2,123.5 1357.1,121.6 C1354.9,119.6 1352.2,118.6 1349,118.6 Z" id="形状"></path>
                        <polygon id="路径" points="1378 149.4 1372.8 149.4 1372.8 100.4 1378 100.4"></polygon>
                    </g>
                </g>
            </g>
        </g>
    </g>
</svg>