<?xml version="1.0" encoding="UTF-8"?>
<svg width="2274px" height="459px" viewBox="0 0 2274 459" version="1.1" xmlns="http://www.w3.org/2000/svg" xmlns:xlink="http://www.w3.org/1999/xlink">
    <!-- Generator: Sketch 57 (83077) - https://sketch.com -->
    <title>03</title>
    <desc>Created with Sketch.</desc>
    <g id="页面-1" stroke="none" stroke-width="1" fill="none" fill-rule="evenodd">
        <g id="Piraeus易拉宝" transform="translate(-179.000000, -2288.000000)" fill-rule="nonzero">
            <g id="图层_2" transform="translate(179.000000, 0.000000)">
                <g id="编组" transform="translate(0.000000, 277.000000)">
                    <g id="simple" transform="translate(190.000000, 2089.000000)" fill="#FFFFFF">
                        <g id="tap">
                            <g id="Shape" transform="translate(147.648041, 164.124302) rotate(45.000000) translate(-147.648041, -164.124302) translate(30.648041, 73.124302)">
                                <path d="M218.2,68.7 L178.9,25.4 C171.1,17.6 158.5,17.6 150.6,25.5 C148.1,28 146.4,31 145.5,34.2 C137.7,28.2 126.4,28.8 119.2,36 C116.7,38.5 115,41.5 114.1,44.6 C106.3,38.6 95,39.2 87.8,46.4 C85.4,48.8 83.7,51.7 82.8,54.8 L64.3,36.3 C56.5,28.5 43.9,28.5 36,36.4 C28.2,44.2 28.2,56.9 36,64.7 L107.2,136 L65,142.6 C53.6,144.2 45,154.2 45,165.7 C45,174.4 52,181.4 60.7,181.4 L159.2,181.4 C174.6,181.4 189,175.4 199.8,164.5 L216.2,148 C227,137.1 233.00139,122.7 233.00139,107.3 C233.1,93 227.8,79.3 218.2,68.7 Z M208.9,140.6 L192.5,157.1 C183.6,166 171.8,170.9 159.2,170.9 L60.7,170.9 C57.8,170.9 55.5,168.6 55.5,165.7 C55.5,159.3 60.2,153.9 66.6,153 L119,144.8 C120.9,144.5 122.5,143.1 123.2,141.3 C123.8,139.4 123.3,137.4 121.9,136 L43.5,57.5 C39.8,53.8 39.8,47.7 43.6,44 C45.5,42.1 47.9,41.2 50.3,41.2 C52.7,41.2 55.2,42.1 57,44 L109.3,96.4 C111.3,98.4 114.7,98.4 116.7,96.4 C117.7,95.4 118.2,94 118.2,92.7 C118.2,91.4 117.7,90 116.7,89 L95.3,67.6 C91.6,63.9 91.6,57.8 95.4,54.1 C99.1,50.4 105.2,50.4 108.9,54.1 L130.3,75.5 C132.3,77.5 135.7,77.5 137.7,75.5 C138.7,74.5 139.2,73.1 139.2,71.8 C139.2,70.5 138.7,69.1 137.7,68.1 L126.8,57.2 C123.1,53.5 123.1,47.4 126.9,43.7 C130.6,40 136.7,40 140.4,43.7 L151.4,54.7 C151.4,54.7 151.4,54.7 151.4,54.7 L151.4,54.7 C151.4,54.7 151.4,54.7 151.4,54.7 C151.4,54.7 151.4,54.7 151.4,54.7 L151.4,54.7 C151.4,54.7 151.4,54.7 151.4,54.7 C153.4,56.6 156.7,56.6 158.7,54.6 C160.7,52.6 160.7,49.2 158.7,47.2 L158.3,46.8 C156.5,45 155.5,42.6 155.5,40.1 C155.5,37.6 156.5,35.2 158.3,33.3 C162,29.6 168,29.6 171.6,33.1 L210.7,76.2 C218.6,84.9 222.9,96.1 222.9,107.9 C222.7,119.9 217.8,131.8 208.9,140.6 Z" id="形状"></path>
                                <path d="M89.9,28 C82.3,11.1 65.5,0.2 47.1,0.2 C21.2,0.2 0.1,21.3 0.1,47.3 C0.1,65.7 11,82.6 27.8,90.2 C28.5,90.5 29.2,90.7 30,90.7 C32,90.7 33.9,89.5 34.8,87.6 C36,85 34.8,81.9 32.2,80.7 C19.1,74.8 10.6,61.7 10.6,47.4 C10.6,27.2 27,10.8 47.2,10.8 C61.5,10.8 74.6,19.3 80.5,32.4 C81.7,35 84.8,36.2 87.4,35 C89.9,33.7 91,30.6 89.9,28 Z" id="路径"></path>
                            </g>
                            <path d="M64.9,99.3 C65.8,102.1 64.3,105.1 61.6,106 C58.8,106.9 55.9,105.4 54.9,102.7 C50.8,90.5 49.8,77.5 52.1,64.6 C59.5,22.4 99.7,-5.8 141.9,1.6 C184.1,9 212.2,49.3 204.8,91.5 C204.3,94.4 201.6,96.3 198.7,95.8 C195.8,95.3 193.9,92.6 194.4,89.7 C200.8,53.2 176.5,18.4 140.1,12 C103.7,5.6 68.9,29.9 62.5,66.4 C60.5,77.6 61.4,88.8 64.9,99.3 Z" id="Oval-2"></path>
                        </g>
                    </g>
                    <g transform="translate(671.000000, 2099.000000)" fill="#EDCD70" stroke="#EDCD70" stroke-width="2">
                        <path d="M10.3,12 C9.3,12.9 8.6,13.9 8.3,14.9 C8,16 7.8,17.1 7.8,18.3 C7.8,19.5 8.3,20.6 9.4,21.6 C10.4,22.6 11.8,23.5 13.5,24.2 C15.2,24.9 17.2,25.5 19.3,26 C21.5,26.5 23.7,27.1 26,27.6 C28.3,28.2 30.5,28.8 32.7,29.5 C34.9,30.2 36.8,31.1 38.5,32.3 C42.3,34.7 44.2,38 44.2,42.1 C44.2,47.1 42.3,50.8 38.6,53.5 C34.9,56.1 29.8,57.4 23.2,57.4 C15.8,57.4 10.1,55.9 6.2,52.8 C2.7,50 0.8,46.1 0.3,41 L6.5,41 C6.7,44.6 8.5,47.4 11.8,49.3 C14.7,51 18.5,51.8 23.2,51.8 C33.1,51.8 38.1,48.7 38.1,42.4 C38.1,40.3 37.2,38.6 35.4,37.4 C33.6,36.2 31.4,35.2 28.7,34.4 C26,33.6 23.1,32.9 20,32.2 C16.9,31.5 14,30.6 11.3,29.5 C8.6,28.4 6.4,27 4.6,25.2 C2.8,23.4 1.9,21 1.9,18 C1.9,13.7 3.6,10.2 6.9,7.4 C10.2,4.7 15.2,3.3 21.9,3.3 C28.6,3.3 33.8,4.8 37.5,7.9 C40.9,10.6 42.6,14.1 42.9,18.4 L36.7,18.4 C36.2,14 33.3,11.1 28.2,9.7 C26.4,9.2 24.1,8.9 21.4,8.9 C18.7,8.9 16.4,9.2 14.6,9.8 C12.7,10.4 11.3,11.1 10.3,12 Z" id="路径"></path>
                        <path d="M59,2.3 L59,10.1 L52.5,10.1 L52.5,2.3 L59,2.3 Z M52.8,16.9 L58.8,16.9 L58.8,56.9 L52.8,56.9 L52.8,16.9 Z" id="形状"></path>
                        <path d="M75.8,22.9 C78.5,18.4 82.5,16.2 88,16.2 C90.7,16.2 93.1,16.9 95.4,18.3 C97.7,19.7 99.4,21.7 100.7,24.3 C102.5,20.9 105.3,18.5 109.2,17.1 C110.7,16.5 112.5,16.2 114.4,16.2 C116.3,16.2 118.2,16.6 120,17.4 C121.8,18.2 123.4,19.3 124.8,20.7 C127.8,23.9 129.3,27.9 129.3,32.7 L129.3,56.9 L123.3,56.9 L123.3,32.9 C123.3,29.6 122.4,26.9 120.5,24.7 C118.6,22.7 116.3,21.7 113.4,21.7 C110.4,21.7 107.8,22.7 105.8,24.7 C103.7,26.7 102.6,29.5 102.6,33 L102.6,56.9 L96.6,56.9 L96.6,32.9 C96.6,29.6 95.7,26.9 93.8,24.7 C91.9,22.7 89.6,21.7 86.7,21.7 C83.7,21.7 81.1,22.7 79.1,24.7 C77,26.7 75.9,29.5 75.9,33 L75.9,56.9 L69.9,56.9 L69.9,16.9 L75.9,16.9 L75.9,22.9 L75.8,22.9 Z" id="路径"></path>
                        <path d="M145.9,23.3 C149.1,18.6 153.9,16.3 160.2,16.3 C166,16.3 170.6,18.3 174.2,22.3 C177.8,26.2 179.6,31.1 179.6,36.9 C179.6,42.7 177.8,47.6 174.2,51.5 C170.6,55.5 165.8,57.5 159.8,57.5 C153.8,57.5 149.1,55.1 145.9,50.4 L145.9,72.7 L139.9,72.7 L139.9,16.9 L145.9,16.9 L145.9,23.3 Z M159.4,21.7 C155.1,21.7 151.7,23.2 149.2,26.2 C146.8,29 145.6,32.6 145.6,36.9 C145.6,41.2 146.8,44.8 149.2,47.6 C151.7,50.6 155.1,52.1 159.4,52.1 C163.7,52.1 167.1,50.6 169.8,47.6 C172.3,44.8 173.6,41.2 173.6,36.9 C173.6,32.6 172.3,29 169.8,26.2 C167.1,23.2 163.7,21.7 159.4,21.7 Z" id="形状"></path>
                        <polygon id="路径" points="194.1 56.9 188.1 56.9 188.1 0.9 194.1 0.9"></polygon>
                        <path d="M222.9,52.1 C228.3,52.1 232.2,49.9 234.5,45.4 L241.1,45.4 C239.7,49 237.5,52 234.5,54.2 C231.5,56.4 227.6,57.6 222.9,57.6 C216.9,57.6 212,55.6 208.2,51.6 C204.5,47.7 202.7,42.8 202.7,37 C202.7,31.1 204.5,26.2 208,22.4 C211.7,18.4 216.6,16.4 222.6,16.4 C228.6,16.4 233.4,18.4 237.2,22.4 C240.7,26.2 242.5,31.1 242.5,37 L242.5,39.4 L209,39.4 C209.4,43.1 210.9,46.1 213.4,48.5 C215.7,50.8 219,52.1 222.9,52.1 Z M222.4,21.7 C218.7,21.7 215.6,22.8 213.1,25.1 C210.8,27.3 209.3,30.1 208.8,33.7 L236,33.7 C235.5,30.2 234,27.3 231.7,25.1 C229.2,22.8 226.1,21.7 222.4,21.7 Z" id="形状"></path>
                    </g>
                    <g transform="translate(673.000000, 2228.000000)" fill="#FFFFFF">
                        <polygon id="路径" points="41.4 3.4 41.4 49.7 35.3 49.7 6.7 10.6 6.7 49.7 1.5 49.7 1.5 3.4 7.6 3.4 36.2 42.4 36.2 3.4"></polygon>
                        <path d="M66.2,14.2 C71.4,14.2 75.7,16 78.9,19.4 C82,22.8 83.5,27 83.5,32.2 C83.5,37.4 82,41.7 78.9,45 C75.6,48.5 71.4,50.2 66.2,50.2 C61,50.2 56.7,48.4 53.5,45 C50.4,41.6 48.9,37.4 48.9,32.2 C48.9,27 50.4,22.7 53.5,19.4 C56.7,15.9 60.9,14.2 66.2,14.2 Z M66.2,45.5 C70,45.5 73,44.2 75.2,41.6 C77.3,39.1 78.3,36 78.3,32.2 C78.3,28.4 77.3,25.3 75.2,22.8 C73,20.2 70,18.9 66.2,18.9 C62.4,18.9 59.4,20.2 57.2,22.8 C55.1,25.3 54,28.4 54,32.2 C54,36 55,39.1 57.2,41.6 C59.4,44.2 62.4,45.5 66.2,45.5 Z" id="形状"></path>
                        <path d="M110.6,14.7 L110.6,20.2 C111.9,18.5 113.4,17.1 115.2,15.9 C117,14.7 119.1,14.1 121.4,14.1 C123.7,14.1 125.7,14.4 127.4,15.1 C129.1,15.8 130.6,16.7 131.8,18 C134.7,20.8 136.1,24.6 136.1,29.3 L136.1,49.7 L131,49.7 L131,29.5 C131,26.3 130.1,23.7 128.3,21.8 C126.5,19.9 124.1,18.9 121.2,18.9 C118.3,18.9 115.8,19.9 113.7,21.8 C111.6,23.8 110.6,26.4 110.6,29.5 L110.6,49.7 L105.4,49.7 L105.4,14.7 L110.6,14.7 Z" id="路径"></path>
                        <path d="M160.6,45.5 C165.3,45.5 168.7,43.5 170.7,39.6 L176.4,39.6 C175.2,42.8 173.3,45.3 170.6,47.3 C168,49.3 164.6,50.2 160.4,50.2 C155.1,50.2 150.8,48.4 147.5,45 C144.3,41.6 142.7,37.3 142.7,32.2 C142.7,27 144.2,22.7 147.3,19.4 C150.6,15.9 154.8,14.2 160,14.2 C165.2,14.2 169.5,16 172.7,19.4 C175.8,22.8 177.3,27 177.3,32.2 L177.3,34.3 L148,34.3 C148.4,37.5 149.7,40.2 151.9,42.3 C154.3,44.4 157.1,45.5 160.6,45.5 Z M160.2,18.9 C157,18.9 154.3,19.9 152.1,21.9 C150,23.8 148.8,26.3 148.3,29.4 L172.1,29.4 C171.6,26.3 170.4,23.8 168.3,21.9 C166.1,19.9 163.4,18.9 160.2,18.9 Z" id="形状"></path>
                        <path d="M199.6,45.5 C204.3,45.5 207.7,43.5 209.7,39.6 L215.4,39.6 C214.2,42.8 212.3,45.3 209.6,47.3 C207,49.3 203.6,50.2 199.4,50.2 C194.1,50.2 189.8,48.4 186.5,45 C183.3,41.6 181.7,37.3 181.7,32.2 C181.7,27 183.2,22.7 186.3,19.4 C189.6,15.9 193.8,14.2 199,14.2 C204.2,14.2 208.5,16 211.7,19.4 C214.8,22.8 216.3,27 216.3,32.2 L216.3,34.3 L187,34.3 C187.4,37.5 188.7,40.2 190.9,42.3 C193.3,44.4 196.1,45.5 199.6,45.5 Z M199.2,18.9 C196,18.9 193.3,19.9 191.1,21.9 C189,23.8 187.8,26.3 187.3,29.4 L211.1,29.4 C210.6,26.3 209.4,23.8 207.3,21.9 C205.1,19.9 202.4,18.9 199.2,18.9 Z" id="形状"></path>
                        <path d="M250.2,44.1 C247.4,48.2 243.2,50.3 237.7,50.3 C232.7,50.3 228.6,48.5 225.4,45.1 C222.3,41.6 220.8,37.4 220.8,32.3 C220.8,27.2 222.3,22.9 225.4,19.5 C228.6,16 232.8,14.3 238.1,14.3 C243.4,14.3 247.4,16.4 250.3,20.5 L250.3,0.8 L255.5,0.8 L255.5,49.8 L250.3,49.8 L250.3,44.1 L250.2,44.1 Z M238.4,45.5 C242.2,45.5 245.2,44.2 247.4,41.6 C249.5,39.1 250.5,36 250.5,32.2 C250.5,28.4 249.5,25.3 247.4,22.8 C245.2,20.2 242.2,18.9 238.4,18.9 C234.7,18.9 231.6,20.2 229.3,22.8 C227.1,25.3 226,28.4 226,32.2 C226,36 227.1,39.1 229.3,41.6 C231.7,44.2 234.7,45.5 238.4,45.5 Z" id="形状"></path>
                        <polygon id="路径" points="283.3 49.7 283.3 19.3 276.2 19.3 276.2 14.7 283.3 14.7 283.3 2.2 288.5 2.2 288.5 14.7 296.5 14.7 296.5 19.3 288.5 19.3 288.5 49.7"></polygon>
                        <path d="M316.8,14.2 C322,14.2 326.3,16 329.5,19.4 C332.6,22.8 334.1,27 334.1,32.2 C334.1,37.4 332.6,41.7 329.5,45 C326.2,48.5 322,50.2 316.8,50.2 C311.6,50.2 307.3,48.4 304.1,45 C301,41.6 299.5,37.4 299.5,32.2 C299.5,27 301,22.7 304.1,19.4 C307.3,15.9 311.6,14.2 316.8,14.2 Z M316.8,45.5 C320.6,45.5 323.6,44.2 325.8,41.6 C327.9,39.1 328.9,36 328.9,32.2 C328.9,28.4 327.9,25.3 325.8,22.8 C323.6,20.2 320.6,18.9 316.8,18.9 C313,18.9 310,20.2 307.8,22.8 C305.7,25.3 304.6,28.4 304.6,32.2 C304.6,36 305.6,39.1 307.8,41.6 C310.1,44.2 313,45.5 316.8,45.5 Z" id="形状"></path>
                        <path d="M361.5,2 L361.5,8.9 L355.8,8.9 L355.8,2 L361.5,2 Z M356,14.7 L361.3,14.7 L361.3,49.7 L356,49.7 L356,14.7 Z" id="形状"></path>
                        <path d="M375.6,14.7 L375.6,20.2 C376.9,18.5 378.4,17.1 380.2,15.9 C382,14.7 384.1,14.1 386.4,14.1 C388.7,14.1 390.7,14.4 392.4,15.1 C394.1,15.8 395.6,16.7 396.8,18 C399.7,20.8 401.1,24.6 401.1,29.3 L401.1,49.7 L395.9,49.7 L395.9,29.5 C395.9,26.3 395,23.7 393.2,21.8 C391.4,19.9 389,18.9 386.1,18.9 C383.2,18.9 380.7,19.9 378.6,21.8 C376.5,23.8 375.5,26.4 375.5,29.5 L375.5,49.7 L370.3,49.7 L370.3,14.7 L375.6,14.7 Z" id="路径"></path>
                        <polygon id="路径" points="412.9 49.7 412.9 19.3 405.8 19.3 405.8 14.7 412.9 14.7 412.9 2.2 418.1 2.2 418.1 14.7 426.1 14.7 426.1 19.3 418.1 19.3 418.1 49.7"></polygon>
                        <path d="M446.9,45.5 C451.6,45.5 455,43.5 457,39.6 L462.7,39.6 C461.5,42.8 459.6,45.3 456.9,47.3 C454.3,49.3 450.9,50.2 446.7,50.2 C441.4,50.2 437.1,48.4 433.8,45 C430.6,41.6 429,37.3 429,32.2 C429,27 430.5,22.7 433.6,19.4 C436.9,15.9 441.1,14.2 446.3,14.2 C451.5,14.2 455.8,16 459,19.4 C462.1,22.8 463.6,27 463.6,32.2 L463.6,34.3 L434.3,34.3 C434.7,37.5 436,40.2 438.2,42.3 C440.6,44.4 443.4,45.5 446.9,45.5 Z M446.5,18.9 C443.3,18.9 440.6,19.9 438.4,21.9 C436.3,23.8 435.1,26.3 434.6,29.4 L458.4,29.4 C457.9,26.3 456.7,23.8 454.6,21.9 C452.4,19.9 449.7,18.9 446.5,18.9 Z" id="形状"></path>
                        <path d="M497.6,20.3 L497.6,14.7 L502.8,14.7 L502.8,48.7 C502.8,53.7 501.4,57.6 498.5,60.2 C495.6,62.8 491.8,64.2 486.9,64.2 C482,64.2 478.3,63.3 475.5,61.4 C472.8,59.5 470.9,57.1 469.9,54 L475.7,54 C477.2,57.6 480.6,59.5 485.9,59.5 C490,59.5 492.9,58.6 494.7,56.7 C496.5,54.8 497.4,52.1 497.4,48.4 L497.4,43.6 C494.6,47.8 490.4,49.8 484.9,49.8 C479.9,49.8 475.8,48.1 472.6,44.6 C469.5,41.2 468,37 468,32 C468,27 469.5,22.8 472.6,19.4 C475.8,15.9 480,14.2 485.3,14.2 C490.7,14.2 494.8,16.2 497.6,20.3 Z M485.7,45 C487.6,45 489.3,44.7 490.8,44 C492.3,43.3 493.6,42.4 494.7,41.2 C496.8,38.8 497.8,35.7 497.8,32 C497.8,28.3 496.8,25.2 494.7,22.8 C492.4,20.3 489.4,19 485.7,19 C481.9,19 478.9,20.3 476.6,22.8 C474.4,25.3 473.3,28.4 473.3,32 C473.3,35.7 474.4,38.8 476.6,41.2 C478.9,43.7 481.9,45 485.7,45 Z" id="形状"></path>
                        <path d="M530.4,14.2 L530.4,19.4 L529.8,19.4 C526,19.4 522.9,20.9 520.6,24 C518.4,26.9 517.2,30.3 517.2,34.4 L517.2,49.8 L512,49.8 L512,14.8 L517.2,14.8 L517.2,23.4 C518.3,19.8 520.7,17.1 524.5,15.4 C526,14.7 527.9,14.3 530.1,14.3 L530.4,14.3 L530.4,14.2 Z" id="路径"></path>
                        <path d="M562.4,44.1 C559.6,48.2 555.4,50.3 549.9,50.3 C544.9,50.3 540.8,48.5 537.6,45.1 C534.5,41.6 533,37.4 533,32.3 C533,27.2 534.5,22.9 537.6,19.5 C540.8,16 545,14.3 550.3,14.3 C555.6,14.3 559.6,16.4 562.5,20.5 L562.5,14.8 L567.7,14.8 L567.7,49.8 L562.5,49.8 L562.5,44.1 L562.4,44.1 Z M550.6,45.5 C554.4,45.5 557.4,44.2 559.6,41.6 C561.7,39.1 562.7,36 562.7,32.2 C562.7,28.4 561.7,25.3 559.6,22.8 C557.4,20.2 554.4,18.9 550.6,18.9 C546.9,18.9 543.8,20.2 541.5,22.8 C539.3,25.3 538.2,28.4 538.2,32.2 C538.2,36 539.3,39.1 541.5,41.6 C543.8,44.2 546.9,45.5 550.6,45.5 Z" id="形状"></path>
                        <polygon id="路径" points="580.6 49.7 580.6 19.3 573.5 19.3 573.5 14.7 580.6 14.7 580.6 2.2 585.8 2.2 585.8 14.7 593.8 14.7 593.8 19.3 585.8 19.3 585.8 49.7"></polygon>
                        <path d="M614.5,45.5 C619.2,45.5 622.6,43.5 624.6,39.6 L630.3,39.6 C629.1,42.8 627.2,45.3 624.5,47.3 C621.9,49.3 618.5,50.2 614.3,50.2 C609,50.2 604.7,48.4 601.4,45 C598.2,41.6 596.6,37.3 596.6,32.2 C596.6,27 598.1,22.7 601.2,19.4 C604.5,15.9 608.7,14.2 613.9,14.2 C619.1,14.2 623.4,16 626.6,19.4 C629.7,22.8 631.2,27 631.2,32.2 L631.2,34.3 L601.9,34.3 C602.3,37.5 603.6,40.2 605.8,42.3 C608.2,44.4 611.1,45.5 614.5,45.5 Z M614.1,18.9 C610.9,18.9 608.2,19.9 606,21.9 C603.9,23.8 602.7,26.3 602.2,29.4 L626,29.4 C625.5,26.3 624.3,23.8 622.2,21.9 C620,19.9 617.3,18.9 614.1,18.9 Z" id="形状"></path>
                        <path d="M680.1,44.1 C677.3,48.2 673.1,50.3 667.6,50.3 C662.6,50.3 658.5,48.5 655.3,45.1 C652.2,41.6 650.7,37.4 650.7,32.3 C650.7,27.2 652.2,22.9 655.3,19.5 C658.5,16 662.7,14.3 668,14.3 C673.3,14.3 677.3,16.4 680.2,20.5 L680.2,14.8 L685.4,14.8 L685.4,49.8 L680.2,49.8 L680.2,44.1 L680.1,44.1 Z M668.3,45.5 C672.1,45.5 675.1,44.2 677.3,41.6 C679.4,39.1 680.4,36 680.4,32.2 C680.4,28.4 679.4,25.3 677.3,22.8 C675.1,20.2 672.1,18.9 668.3,18.9 C664.6,18.9 661.5,20.2 659.2,22.8 C657,25.3 655.9,28.4 655.9,32.2 C655.9,36 657,39.1 659.2,41.6 C661.5,44.2 664.6,45.5 668.3,45.5 Z" id="形状"></path>
                        <path d="M699.7,14.7 L699.7,20.2 C701,18.5 702.5,17.1 704.3,15.9 C706.1,14.7 708.2,14.1 710.5,14.1 C712.8,14.1 714.8,14.4 716.5,15.1 C718.2,15.8 719.7,16.7 720.9,18 C723.8,20.8 725.2,24.6 725.2,29.3 L725.2,49.7 L720,49.7 L720,29.5 C720,26.3 719.1,23.7 717.3,21.8 C715.5,19.9 713.1,18.9 710.2,18.9 C707.3,18.9 704.8,19.9 702.7,21.8 C700.6,23.8 699.6,26.4 699.6,29.5 L699.6,49.7 L694.4,49.7 L694.4,14.7 L699.7,14.7 Z" id="路径"></path>
                        <polygon id="路径" points="742.5 63.6 736.8 63.6 743.2 49.2 728.9 14.7 734.7 14.7 746 43.4 757.5 14.7 763.2 14.7"></polygon>
                        <polygon id="路径" points="812.2 14.7 798.6 49.7 792.4 49.7 778.7 14.7 784.4 14.7 795.5 44.1 806.5 14.7"></polygon>
                        <path d="M832.3,45.5 C837,45.5 840.4,43.5 842.4,39.6 L848.1,39.6 C846.9,42.8 845,45.3 842.3,47.3 C839.7,49.3 836.3,50.2 832.1,50.2 C826.8,50.2 822.5,48.4 819.2,45 C816,41.6 814.4,37.3 814.4,32.2 C814.4,27 815.9,22.7 819,19.4 C822.3,15.9 826.5,14.2 831.7,14.2 C836.9,14.2 841.2,16 844.4,19.4 C847.5,22.8 849,27 849,32.2 L849,34.3 L819.7,34.3 C820.1,37.5 821.4,40.2 823.6,42.3 C826,44.4 828.8,45.5 832.3,45.5 Z M831.9,18.9 C828.7,18.9 826,19.9 823.8,21.9 C821.7,23.8 820.5,26.3 820,29.4 L843.8,29.4 C843.3,26.3 842.1,23.8 840,21.9 C837.8,19.9 835.1,18.9 831.9,18.9 Z" id="形状"></path>
                        <path d="M860.9,14.7 L860.9,20.2 C862.2,18.5 863.7,17.1 865.5,15.9 C867.3,14.7 869.4,14.1 871.7,14.1 C874,14.1 876,14.4 877.7,15.1 C879.4,15.8 880.9,16.7 882.1,18 C885,20.8 886.4,24.6 886.4,29.3 L886.4,49.7 L881.2,49.7 L881.2,29.5 C881.2,26.3 880.3,23.7 878.5,21.8 C876.7,19.9 874.3,18.9 871.4,18.9 C868.5,18.9 866,19.9 863.9,21.8 C861.8,23.8 860.8,26.4 860.8,29.5 L860.8,49.7 L855.6,49.7 L855.6,14.7 L860.9,14.7 Z" id="路径"></path>
                        <path d="M922.6,44.1 C919.8,48.2 915.6,50.3 910.1,50.3 C905.1,50.3 901,48.5 897.8,45.1 C894.7,41.6 893.2,37.4 893.2,32.3 C893.2,27.2 894.7,22.9 897.8,19.5 C901,16 905.2,14.3 910.5,14.3 C915.8,14.3 919.8,16.4 922.7,20.5 L922.7,0.8 L927.9,0.8 L927.9,49.8 L922.7,49.8 L922.7,44.1 L922.6,44.1 Z M910.8,45.5 C914.6,45.5 917.6,44.2 919.8,41.6 C921.9,39.1 922.9,36 922.9,32.2 C922.9,28.4 921.9,25.3 919.8,22.8 C917.6,20.2 914.6,18.9 910.8,18.9 C907.1,18.9 904,20.2 901.7,22.8 C899.5,25.3 898.4,28.4 898.4,32.2 C898.4,36 899.5,39.1 901.7,41.6 C904,44.2 907,45.5 910.8,45.5 Z" id="形状"></path>
                        <path d="M952.1,14.2 C957.3,14.2 961.6,16 964.8,19.4 C967.9,22.8 969.4,27 969.4,32.2 C969.4,37.4 967.9,41.7 964.8,45 C961.5,48.5 957.3,50.2 952.1,50.2 C946.9,50.2 942.6,48.4 939.4,45 C936.3,41.6 934.8,37.4 934.8,32.2 C934.8,27 936.3,22.7 939.4,19.4 C942.7,15.9 946.9,14.2 952.1,14.2 Z M952.1,45.5 C955.9,45.5 958.9,44.2 961.1,41.6 C963.2,39.1 964.2,36 964.2,32.2 C964.2,28.4 963.2,25.3 961.1,22.8 C958.9,20.2 955.9,18.9 952.1,18.9 C948.3,18.9 945.3,20.2 943.1,22.8 C941,25.3 939.9,28.4 939.9,32.2 C939.9,36 940.9,39.1 943.1,41.6 C945.4,44.2 948.4,45.5 952.1,45.5 Z" id="形状"></path>
                        <path d="M994.9,14.2 L994.9,19.4 L994.3,19.4 C990.5,19.4 987.4,20.9 985.1,24 C982.9,26.9 981.7,30.3 981.7,34.4 L981.7,49.8 L976.5,49.8 L976.5,14.8 L981.7,14.8 L981.7,23.4 C982.8,19.8 985.2,17.1 989,15.4 C990.5,14.7 992.4,14.3 994.6,14.3 L994.9,14.3 L994.9,14.2 Z" id="路径"></path>
                        <path d="M1036.1,24.1 C1035.6,20.5 1032.7,18.6 1027.3,18.6 C1021.9,18.6 1019.2,20.3 1019.2,23.6 C1019.2,25 1019.8,26.1 1020.9,26.8 C1022,27.5 1023.5,28.1 1025.2,28.6 C1026.9,29.1 1028.8,29.5 1030.8,29.9 C1032.8,30.3 1034.7,30.9 1036.4,31.6 C1038.1,32.3 1039.6,33.3 1040.7,34.6 C1041.8,35.9 1042.4,37.6 1042.4,39.8 C1042.4,43.2 1041.1,45.8 1038.5,47.6 C1035.9,49.4 1032.5,50.3 1028.1,50.3 C1023.4,50.3 1019.7,49.1 1017,46.8 C1014.5,44.7 1013.1,42.1 1012.9,38.7 L1018.4,38.7 C1018.7,41.9 1020.5,44.1 1023.9,45.2 C1025.1,45.6 1026.3,45.8 1027.5,45.8 C1028.7,45.8 1029.8,45.7 1030.8,45.6 C1031.8,45.5 1032.8,45.2 1033.8,44.8 C1036,43.9 1037.2,42.4 1037.2,40.2 C1037.2,38.8 1036.6,37.6 1035.5,36.9 C1034.4,36.1 1032.9,35.5 1031.2,35 C1029.5,34.5 1027.6,34.1 1025.6,33.7 C1023.6,33.3 1021.7,32.8 1020,32.1 C1018.3,31.4 1016.8,30.4 1015.7,29.2 C1014.6,28 1014,26.3 1014,24.2 C1014,21 1015.2,18.6 1017.5,16.8 C1019.8,15 1023.2,14.2 1027.8,14.2 C1032.1,14.2 1035.5,15.2 1037.9,17.3 C1040,19 1041.1,21.3 1041.5,24.2 L1036.1,24.2 L1036.1,24.1 Z" id="路径"></path>
                        <polygon id="路径" points="1053 49.7 1053 19.3 1045.9 19.3 1045.9 14.7 1053 14.7 1053 2.2 1058.2 2.2 1058.2 14.7 1066.2 14.7 1066.2 19.3 1058.2 19.3 1058.2 49.7"></polygon>
                        <path d="M1086.5,14.2 C1091.7,14.2 1096,16 1099.2,19.4 C1102.3,22.8 1103.8,27 1103.8,32.2 C1103.8,37.4 1102.3,41.7 1099.2,45 C1095.9,48.5 1091.7,50.2 1086.5,50.2 C1081.3,50.2 1077,48.4 1073.8,45 C1070.7,41.6 1069.2,37.4 1069.2,32.2 C1069.2,27 1070.7,22.7 1073.8,19.4 C1077.1,15.9 1081.3,14.2 1086.5,14.2 Z M1086.5,45.5 C1090.3,45.5 1093.3,44.2 1095.5,41.6 C1097.6,39.1 1098.6,36 1098.6,32.2 C1098.6,28.4 1097.6,25.3 1095.5,22.8 C1093.3,20.2 1090.3,18.9 1086.5,18.9 C1082.7,18.9 1079.7,20.2 1077.5,22.8 C1075.4,25.3 1074.3,28.4 1074.3,32.2 C1074.3,36 1075.3,39.1 1077.5,41.6 C1079.8,44.2 1082.7,45.5 1086.5,45.5 Z" id="形状"></path>
                        <path d="M1129.3,14.2 L1129.3,19.4 L1128.7,19.4 C1124.9,19.4 1121.8,20.9 1119.5,24 C1117.3,26.9 1116.1,30.3 1116.1,34.4 L1116.1,49.8 L1110.9,49.8 L1110.9,14.8 L1116.1,14.8 L1116.1,23.4 C1117.2,19.8 1119.6,17.1 1123.4,15.4 C1124.9,14.7 1126.8,14.3 1129,14.3 L1129.3,14.3 L1129.3,14.2 Z" id="路径"></path>
                        <path d="M1161.4,44.1 C1158.6,48.2 1154.4,50.3 1148.9,50.3 C1143.9,50.3 1139.8,48.5 1136.6,45.1 C1133.5,41.6 1132,37.4 1132,32.3 C1132,27.2 1133.5,22.9 1136.6,19.5 C1139.8,16 1144,14.3 1149.3,14.3 C1154.6,14.3 1158.6,16.4 1161.5,20.5 L1161.5,14.8 L1166.7,14.8 L1166.7,49.8 L1161.5,49.8 L1161.5,44.1 L1161.4,44.1 Z M1149.5,45.5 C1153.3,45.5 1156.3,44.2 1158.5,41.6 C1160.6,39.1 1161.6,36 1161.6,32.2 C1161.6,28.4 1160.6,25.3 1158.5,22.8 C1156.3,20.2 1153.3,18.9 1149.5,18.9 C1145.8,18.9 1142.7,20.2 1140.4,22.8 C1138.2,25.3 1137.1,28.4 1137.1,32.2 C1137.1,36 1138.2,39.1 1140.4,41.6 C1142.8,44.2 1145.8,45.5 1149.5,45.5 Z" id="形状"></path>
                        <path d="M1203,20.3 L1203,14.7 L1208.2,14.7 L1208.2,48.7 C1208.2,53.7 1206.8,57.6 1203.9,60.2 C1201,62.8 1197.2,64.2 1192.3,64.2 C1187.4,64.2 1183.7,63.3 1180.9,61.4 C1178.2,59.5 1176.3,57.1 1175.3,54 L1181.1,54 C1182.6,57.6 1186,59.5 1191.3,59.5 C1195.4,59.5 1198.3,58.6 1200.1,56.7 C1201.9,54.8 1202.8,52.1 1202.8,48.4 L1202.8,43.6 C1200,47.8 1195.8,49.8 1190.3,49.8 C1185.3,49.8 1181.2,48.1 1178,44.6 C1174.9,41.2 1173.4,37 1173.4,32 C1173.4,27 1174.9,22.8 1178,19.4 C1181.2,15.9 1185.4,14.2 1190.7,14.2 C1196.2,14.2 1200.2,16.2 1203,20.3 Z M1191.2,45 C1193.1,45 1194.8,44.7 1196.3,44 C1197.8,43.3 1199.1,42.4 1200.2,41.2 C1202.3,38.8 1203.3,35.7 1203.3,32 C1203.3,28.3 1202.3,25.2 1200.2,22.8 C1197.9,20.3 1194.9,19 1191.2,19 C1187.4,19 1184.4,20.3 1182.1,22.8 C1179.9,25.3 1178.8,28.4 1178.8,32 C1178.8,35.7 1179.9,38.8 1182.1,41.2 C1184.4,43.7 1187.4,45 1191.2,45 Z" id="形状"></path>
                        <path d="M1233,45.5 C1237.7,45.5 1241.1,43.5 1243.1,39.6 L1248.8,39.6 C1247.6,42.8 1245.7,45.3 1243,47.3 C1240.4,49.3 1237,50.2 1232.8,50.2 C1227.5,50.2 1223.2,48.4 1219.9,45 C1216.7,41.6 1215.1,37.3 1215.1,32.2 C1215.1,27 1216.6,22.7 1219.7,19.4 C1223,15.9 1227.2,14.2 1232.4,14.2 C1237.6,14.2 1241.9,16 1245.1,19.4 C1248.2,22.8 1249.7,27 1249.7,32.2 L1249.7,34.3 L1220.4,34.3 C1220.8,37.5 1222.1,40.2 1224.3,42.3 C1226.7,44.4 1229.5,45.5 1233,45.5 Z M1232.5,18.9 C1229.3,18.9 1226.6,19.9 1224.4,21.9 C1222.3,23.8 1221.1,26.3 1220.6,29.4 L1244.4,29.4 C1243.9,26.3 1242.7,23.8 1240.6,21.9 C1238.5,19.9 1235.8,18.9 1232.5,18.9 Z" id="形状"></path>
                        <path d="M1312.8,49.7 L1307,49.7 L1301.3,36.3 L1278.3,36.3 L1272.6,49.7 L1266.8,49.7 L1286.5,3.4 L1293.1,3.4 L1312.8,49.7 Z M1299.3,31.5 L1289.8,8.9 L1280.3,31.5 L1299.3,31.5 Z" id="形状"></path>
                        <path d="M1324,49.7 L1318.8,49.7 L1318.8,3.4 L1339.7,3.4 C1344.6,3.4 1348.5,4.8 1351.4,7.5 C1354.2,10.2 1355.7,13.8 1355.7,18.3 C1355.7,22.9 1354.3,26.5 1351.4,29.2 C1348.5,31.9 1344.6,33.2 1339.7,33.2 L1324,33.2 L1324,49.7 Z M1324,8.4 L1324,28.4 L1339.3,28.4 C1342.9,28.4 1345.7,27.5 1347.6,25.7 C1349.5,23.9 1350.4,21.5 1350.4,18.4 C1350.4,15.3 1349.5,12.9 1347.6,11.1 C1345.7,9.3 1343,8.4 1339.3,8.4 L1324,8.4 Z" id="形状"></path>
                        <polygon id="路径" points="1367.9 49.7 1362.7 49.7 1362.7 3.4 1367.9 3.4"></polygon>
                        <polygon id="路径" points="1384.1 42.6 1384.1 49.7 1377.3 49.7 1377.3 42.6"></polygon>
                        <path d="M1448.8,49.7 L1443,49.7 L1437.3,36.3 L1414.3,36.3 L1408.6,49.7 L1402.8,49.7 L1422.5,3.4 L1429.1,3.4 L1448.8,49.7 Z M1435.3,31.5 L1425.8,8.9 L1416.3,31.5 L1435.3,31.5 Z" id="形状"></path>
                        <polygon id="路径" points="1458.9 49.7 1453.7 49.7 1453.7 0.7 1458.9 0.7"></polygon>
                        <polygon id="路径" points="1473.2 49.7 1468 49.7 1468 0.7 1473.2 0.7"></polygon>
                        <path d="M5.5,120.4 C8.3,116.2 12.5,114.2 18,114.2 C23,114.2 27.1,116 30.2,119.4 C33.3,122.9 34.9,127.1 34.9,132.2 C34.9,137.3 33.3,141.6 30.2,145 C27.1,148.5 22.9,150.2 17.6,150.2 C12.3,150.2 8.3,148.1 5.5,144 L5.5,149.6 L0.3,149.6 L0.3,100.6 L5.5,100.6 L5.5,120.4 Z M17.4,145.5 C21.1,145.5 24.2,144.2 26.5,141.6 C28.7,139.1 29.8,136 29.8,132.2 C29.8,128.4 28.7,125.3 26.5,122.8 C24.2,120.2 21.1,118.9 17.4,118.9 C13.6,118.9 10.6,120.2 8.4,122.8 C6.3,125.3 5.2,128.4 5.2,132.2 C5.2,136 6.3,139.1 8.4,141.6 C10.6,144.2 13.6,145.5 17.4,145.5 Z" id="形状"></path>
                        <path d="M69.2,144.1 C66.4,148.2 62.2,150.3 56.7,150.3 C51.7,150.3 47.6,148.5 44.4,145.1 C41.3,141.6 39.8,137.4 39.8,132.3 C39.8,127.2 41.3,122.9 44.4,119.5 C47.6,116 51.8,114.3 57.1,114.3 C62.4,114.3 66.4,116.4 69.3,120.5 L69.3,114.8 L74.5,114.8 L74.5,149.8 L69.3,149.8 L69.3,144.1 L69.2,144.1 Z M57.3,145.5 C61.1,145.5 64.1,144.2 66.3,141.6 C68.4,139.1 69.4,136 69.4,132.2 C69.4,128.4 68.4,125.3 66.3,122.8 C64.1,120.2 61.1,118.9 57.3,118.9 C53.6,118.9 50.5,120.2 48.2,122.8 C46,125.3 44.9,128.4 44.9,132.2 C44.9,136 46,139.1 48.2,141.6 C50.6,144.2 53.6,145.5 57.3,145.5 Z" id="形状"></path>
                        <path d="M99.7,145.5 C101.9,145.5 103.9,144.9 105.7,143.6 C107.4,142.3 108.7,140.7 109.5,138.7 L115.2,138.7 C114.1,142.2 112.2,144.9 109.3,147 C106.3,149.1 102.8,150.2 98.7,150.2 C93.6,150.2 89.4,148.4 86.2,145 C83.1,141.6 81.5,137.3 81.5,132.2 C81.5,127.1 83.1,122.8 86.2,119.4 C89.4,115.9 93.6,114.2 98.7,114.2 C102.8,114.2 106.4,115.3 109.3,117.4 C112.1,119.5 114.1,122.3 115.2,125.7 L109.5,125.7 C108.7,123.7 107.4,122.1 105.7,120.8 C104,119.5 102,118.9 99.7,118.9 C97.5,118.9 95.6,119.2 94,119.9 C92.4,120.6 91.1,121.6 90,122.8 C87.7,125.3 86.6,128.4 86.6,132.2 C86.6,135.9 87.7,139.1 90,141.6 C92.4,144.2 95.6,145.5 99.7,145.5 Z" id="路径"></path>
                        <polygon id="路径" points="137 128.5 152.1 149.7 145.7 149.7 133.5 132.1 126.9 138.6 126.9 149.7 121.7 149.7 121.7 100.7 126.9 100.7 126.9 132.1 143.8 114.7 151.1 114.7"></polygon>
                        <path d="M170.6,145.5 C175.3,145.5 178.7,143.5 180.7,139.6 L186.4,139.6 C185.2,142.8 183.3,145.3 180.6,147.3 C178,149.3 174.6,150.2 170.4,150.2 C165.1,150.2 160.8,148.4 157.5,145 C154.3,141.6 152.7,137.3 152.7,132.2 C152.7,127 154.2,122.7 157.3,119.4 C160.6,115.9 164.8,114.2 170,114.2 C175.2,114.2 179.5,116 182.7,119.4 C185.8,122.8 187.3,127 187.3,132.2 L187.3,134.3 L158,134.3 C158.4,137.5 159.7,140.2 161.9,142.3 C164.3,144.4 167.1,145.5 170.6,145.5 Z M170.2,118.9 C167,118.9 164.3,119.9 162.1,121.9 C160,123.8 158.8,126.3 158.3,129.4 L182.1,129.4 C181.6,126.3 180.4,123.8 178.3,121.9 C176.1,119.9 173.4,118.9 170.2,118.9 Z" id="形状"></path>
                        <path d="M199.2,114.7 L199.2,120.2 C200.5,118.5 202,117.1 203.8,115.9 C205.6,114.7 207.7,114.1 210,114.1 C212.3,114.1 214.3,114.4 216,115.1 C217.7,115.8 219.2,116.7 220.4,118 C223.3,120.8 224.7,124.6 224.7,129.3 L224.7,149.7 L219.5,149.7 L219.5,129.5 C219.5,126.3 218.6,123.7 216.8,121.8 C215,119.9 212.6,118.9 209.7,118.9 C206.8,118.9 204.3,119.9 202.2,121.8 C200.1,123.8 199.1,126.4 199.1,129.5 L199.1,149.7 L194,149.7 L194,114.7 L199.2,114.7 Z" id="路径"></path>
                        <path d="M260.9,144.1 C258.1,148.2 253.9,150.3 248.4,150.3 C243.4,150.3 239.3,148.5 236.1,145.1 C233,141.6 231.5,137.4 231.5,132.3 C231.5,127.2 233,122.9 236.1,119.5 C239.3,116 243.5,114.3 248.8,114.3 C254.1,114.3 258.1,116.4 261,120.5 L261,100.8 L266.2,100.8 L266.2,149.8 L261,149.8 L261,144.1 L260.9,144.1 Z M249.1,145.5 C252.9,145.5 255.9,144.2 258.1,141.6 C260.2,139.1 261.2,136 261.2,132.2 C261.2,128.4 260.2,125.3 258.1,122.8 C255.9,120.2 252.9,118.9 249.1,118.9 C245.4,118.9 242.3,120.2 240,122.8 C237.8,125.3 236.7,128.4 236.7,132.2 C236.7,136 237.8,139.1 240,141.6 C242.3,144.2 245.3,145.5 249.1,145.5 Z" id="形状"></path>
                        <path d="M306.3,145.5 C308.5,145.5 310.5,144.9 312.3,143.6 C314,142.3 315.3,140.7 316.1,138.7 L321.8,138.7 C320.7,142.2 318.8,144.9 315.9,147 C312.9,149.1 309.4,150.2 305.3,150.2 C300.2,150.2 296,148.4 292.8,145 C289.7,141.6 288.1,137.3 288.1,132.2 C288.1,127.1 289.7,122.8 292.8,119.4 C296,115.9 300.2,114.2 305.3,114.2 C309.4,114.2 313,115.3 315.9,117.4 C318.7,119.5 320.7,122.3 321.8,125.7 L316,125.7 C315.2,123.7 313.9,122.1 312.2,120.8 C310.5,119.5 308.5,118.9 306.2,118.9 C304,118.9 302.1,119.2 300.5,119.9 C298.9,120.6 297.6,121.6 296.5,122.8 C294.2,125.3 293.1,128.4 293.1,132.2 C293.1,135.9 294.2,139.1 296.5,141.6 C299,144.2 302.2,145.5 306.3,145.5 Z" id="路径"></path>
                        <path d="M343.4,114.2 C348.6,114.2 352.9,116 356.1,119.4 C359.2,122.8 360.7,127 360.7,132.2 C360.7,137.4 359.2,141.7 356.1,145 C352.8,148.5 348.6,150.2 343.4,150.2 C338.2,150.2 333.9,148.4 330.7,145 C327.6,141.6 326.1,137.4 326.1,132.2 C326.1,127 327.6,122.7 330.7,119.4 C333.9,115.9 338.2,114.2 343.4,114.2 Z M343.4,145.5 C347.2,145.5 350.2,144.2 352.4,141.6 C354.5,139.1 355.5,136 355.5,132.2 C355.5,128.4 354.5,125.3 352.4,122.8 C350.2,120.2 347.2,118.9 343.4,118.9 C339.6,118.9 336.6,120.2 334.4,122.8 C332.3,125.3 331.2,128.4 331.2,132.2 C331.2,136 332.2,139.1 334.4,141.6 C336.7,144.2 339.6,145.5 343.4,145.5 Z" id="形状"></path>
                        <path d="M373,114.7 L373,120.2 C374.3,118.5 375.8,117.1 377.6,115.9 C379.4,114.7 381.5,114.1 383.8,114.1 C386.1,114.1 388.1,114.4 389.8,115.1 C391.5,115.8 393,116.7 394.2,118 C397.1,120.8 398.5,124.6 398.5,129.3 L398.5,149.7 L393.3,149.7 L393.3,129.5 C393.3,126.3 392.4,123.7 390.6,121.8 C388.8,119.9 386.4,118.9 383.5,118.9 C380.6,118.9 378.1,119.9 376,121.8 C373.9,123.8 372.9,126.4 372.9,129.5 L372.9,149.7 L367.7,149.7 L367.7,114.7 L373,114.7 Z" id="路径"></path>
                        <path d="M421.7,105.1 C419.2,105.1 417.4,105.6 416.1,106.7 C414.9,107.8 414.2,109.6 414.2,112 L414.2,114.7 L422.3,114.7 L422.3,119.3 L414.2,119.3 L414.2,149.7 L409,149.7 L409,119.3 L403,119.3 L403,114.7 L409,114.7 L409,111.6 C409,107.8 410.1,104.9 412.4,103 C414.7,101.1 417.9,100.1 421.9,100.1 L422.3,100.1 L422.3,105.1 L421.7,105.1 Z" id="路径"></path>
                        <path d="M433.6,102 L433.6,108.9 L427.9,108.9 L427.9,102 L433.6,102 Z M428.2,114.7 L433.4,114.7 L433.4,149.7 L428.2,149.7 L428.2,114.7 Z" id="形状"></path>
                        <path d="M469.8,120.3 L469.8,114.7 L475,114.7 L475,148.7 C475,153.7 473.6,157.6 470.7,160.2 C467.8,162.8 464,164.2 459.1,164.2 C454.2,164.2 450.5,163.3 447.7,161.4 C445,159.5 443.1,157.1 442.1,154 L447.9,154 C449.4,157.6 452.8,159.5 458.1,159.5 C462.2,159.5 465.1,158.6 466.9,156.7 C468.7,154.8 469.6,152.1 469.6,148.4 L469.6,143.6 C466.8,147.8 462.6,149.8 457.1,149.8 C452.1,149.8 448,148.1 444.8,144.6 C441.7,141.2 440.2,137 440.2,132 C440.2,127 441.7,122.8 444.8,119.4 C448,115.9 452.2,114.2 457.5,114.2 C463,114.2 467,116.2 469.8,120.3 Z M458,145 C459.9,145 461.6,144.7 463.1,144 C464.6,143.3 465.9,142.4 467,141.2 C469.1,138.8 470.1,135.7 470.1,132 C470.1,128.3 469.1,125.2 467,122.8 C464.7,120.3 461.7,119 458,119 C454.2,119 451.2,120.3 448.9,122.8 C446.7,125.3 445.6,128.4 445.6,132 C445.6,135.6 446.7,138.8 448.9,141.2 C451.2,143.7 454.2,145 458,145 Z" id="形状"></path>
                        <path d="M509.5,149.7 L509.5,144.2 C508.2,145.9 506.7,147.3 504.9,148.5 C503.1,149.7 501,150.3 498.7,150.3 C496.4,150.3 494.4,150 492.7,149.3 C491,148.6 489.5,147.7 488.3,146.4 C485.4,143.6 484,139.8 484,135.1 L484,114.7 L489.2,114.7 L489.2,134.9 C489.2,138.1 490.1,140.7 491.9,142.6 C493.7,144.5 496.1,145.5 499,145.5 C501.9,145.5 504.4,144.5 506.5,142.6 C508.6,140.6 509.6,138 509.6,134.9 L509.6,114.7 L514.8,114.7 L514.8,149.7 L509.5,149.7 Z" id="路径"></path>
                        <path d="M542.3,114.2 L542.3,119.4 L541.7,119.4 C537.9,119.4 534.8,120.9 532.5,124 C530.3,126.9 529.1,130.3 529.1,134.4 L529.1,149.8 L523.9,149.8 L523.9,114.8 L529.1,114.8 L529.1,123.4 C530.2,119.8 532.6,117.1 536.4,115.4 C537.9,114.7 539.8,114.3 542,114.3 L542.3,114.3 L542.3,114.2 Z" id="路径"></path>
                        <path d="M574.3,144.1 C571.5,148.2 567.3,150.3 561.8,150.3 C556.8,150.3 552.7,148.5 549.5,145.1 C546.4,141.6 544.9,137.4 544.9,132.3 C544.9,127.2 546.4,122.9 549.5,119.5 C552.7,116 556.9,114.3 562.2,114.3 C567.5,114.3 571.5,116.4 574.4,120.5 L574.4,114.8 L579.6,114.8 L579.6,149.8 L574.4,149.8 L574.4,144.1 L574.3,144.1 Z M562.5,145.5 C566.3,145.5 569.3,144.2 571.5,141.6 C573.6,139.1 574.6,136 574.6,132.2 C574.6,128.4 573.6,125.3 571.5,122.8 C569.3,120.2 566.3,118.9 562.5,118.9 C558.8,118.9 555.7,120.2 553.4,122.8 C551.2,125.3 550.1,128.4 550.1,132.2 C550.1,136 551.2,139.1 553.4,141.6 C555.7,144.2 558.8,145.5 562.5,145.5 Z" id="形状"></path>
                        <polygon id="路径" points="592.5 149.7 592.5 119.3 585.4 119.3 585.4 114.7 592.5 114.7 592.5 102.2 597.7 102.2 597.7 114.7 605.7 114.7 605.7 119.3 597.7 119.3 597.7 149.7"></polygon>
                        <path d="M617,102 L617,108.9 L611.3,108.9 L611.3,102 L617,102 Z M611.5,114.7 L616.7,114.7 L616.7,149.7 L611.5,149.7 L611.5,114.7 Z" id="形状"></path>
                        <path d="M641.1,114.2 C646.3,114.2 650.6,116 653.8,119.4 C656.9,122.8 658.4,127 658.4,132.2 C658.4,137.4 656.9,141.7 653.8,145 C650.5,148.5 646.3,150.2 641.1,150.2 C635.9,150.2 631.6,148.4 628.4,145 C625.3,141.6 623.8,137.4 623.8,132.2 C623.8,127 625.3,122.7 628.4,119.4 C631.6,115.9 635.8,114.2 641.1,114.2 Z M641.1,145.5 C644.9,145.5 647.9,144.2 650.1,141.6 C652.2,139.1 653.2,136 653.2,132.2 C653.2,128.4 652.2,125.3 650.1,122.8 C647.9,120.2 644.9,118.9 641.1,118.9 C637.3,118.9 634.3,120.2 632.1,122.8 C630,125.3 628.9,128.4 628.9,132.2 C628.9,136 629.9,139.1 632.1,141.6 C634.3,144.2 637.3,145.5 641.1,145.5 Z" id="形状"></path>
                        <path d="M670.6,114.7 L670.6,120.2 C671.9,118.5 673.4,117.1 675.2,115.9 C677,114.7 679.1,114.1 681.4,114.1 C683.7,114.1 685.7,114.4 687.4,115.1 C689.1,115.8 690.6,116.7 691.8,118 C694.7,120.8 696.1,124.6 696.1,129.3 L696.1,149.7 L690.9,149.7 L690.9,129.5 C690.9,126.3 690,123.7 688.2,121.8 C686.4,119.9 684,118.9 681.1,118.9 C678.2,118.9 675.7,119.9 673.6,121.8 C671.5,123.8 670.5,126.4 670.5,129.5 L670.5,149.7 L665.3,149.7 L665.3,114.7 L670.6,114.7 Z" id="路径"></path>
                        <path d="M725.5,124.1 C725,120.5 722.1,118.6 716.7,118.6 C711.3,118.6 708.6,120.3 708.6,123.6 C708.6,125 709.2,126.1 710.3,126.8 C711.4,127.5 712.9,128.1 714.6,128.6 C716.3,129.1 718.2,129.5 720.2,129.9 C722.2,130.3 724.1,130.9 725.8,131.6 C727.5,132.3 729,133.3 730.1,134.6 C731.2,135.9 731.8,137.6 731.8,139.8 C731.8,143.2 730.5,145.8 727.9,147.6 C725.3,149.4 721.9,150.3 717.5,150.3 C712.8,150.3 709.1,149.1 706.4,146.8 C703.9,144.7 702.5,142.1 702.3,138.7 L707.8,138.7 C708.1,141.9 709.9,144.1 713.3,145.2 C714.5,145.6 715.7,145.8 716.9,145.8 C718.1,145.8 719.2,145.7 720.2,145.6 C721.2,145.5 722.2,145.2 723.2,144.8 C725.4,143.9 726.6,142.4 726.6,140.3 C726.6,138.9 726,137.7 724.9,137 C723.8,136.2 722.3,135.6 720.6,135.1 C718.9,134.6 717,134.2 715,133.8 C713,133.4 711.1,132.9 709.4,132.2 C707.7,131.5 706.2,130.5 705.1,129.3 C704,128.1 703.4,126.4 703.4,124.3 C703.4,121.1 704.6,118.7 706.9,116.9 C709.2,115.1 712.6,114.3 717.2,114.3 C721.5,114.3 724.9,115.3 727.3,117.4 C729.4,119.1 730.5,121.4 730.9,124.3 L725.5,124.3 L725.5,124.1 Z" id="路径"></path>
                        <path d="M780.9,144.1 C778.1,148.2 773.9,150.3 768.4,150.3 C763.4,150.3 759.3,148.5 756.1,145.1 C753,141.6 751.5,137.4 751.5,132.3 C751.5,127.2 753,122.9 756.1,119.5 C759.3,116 763.5,114.3 768.8,114.3 C774.1,114.3 778.1,116.4 781,120.5 L781,114.8 L786.2,114.8 L786.2,149.8 L781,149.8 L781,144.1 L780.9,144.1 Z M769.1,145.5 C772.9,145.5 775.9,144.2 778.1,141.6 C780.2,139.1 781.2,136 781.2,132.2 C781.2,128.4 780.2,125.3 778.1,122.8 C775.9,120.2 772.9,118.9 769.1,118.9 C765.4,118.9 762.3,120.2 760,122.8 C757.8,125.3 756.7,128.4 756.7,132.2 C756.7,136 757.8,139.1 760,141.6 C762.3,144.2 765.3,145.5 769.1,145.5 Z" id="形状"></path>
                        <path d="M813.7,114.2 L813.7,119.4 L813.1,119.4 C809.3,119.4 806.2,120.9 803.9,124 C801.7,126.9 800.5,130.3 800.5,134.4 L800.5,149.8 L795.3,149.8 L795.3,114.8 L800.5,114.8 L800.5,123.4 C801.6,119.8 804,117.1 807.8,115.4 C809.3,114.7 811.2,114.3 813.4,114.3 L813.7,114.3 L813.7,114.2 Z" id="路径"></path>
                        <path d="M834.1,145.5 C838.8,145.5 842.2,143.5 844.2,139.6 L849.9,139.6 C848.7,142.8 846.8,145.3 844.1,147.3 C841.5,149.3 838.1,150.2 833.9,150.2 C828.6,150.2 824.3,148.4 821,145 C817.8,141.6 816.2,137.3 816.2,132.2 C816.2,127 817.7,122.7 820.8,119.4 C824.1,115.9 828.3,114.2 833.5,114.2 C838.7,114.2 843,116 846.2,119.4 C849.3,122.8 850.8,127 850.8,132.2 L850.8,134.3 L821.5,134.3 C821.9,137.5 823.2,140.2 825.4,142.3 C827.8,144.4 830.7,145.5 834.1,145.5 Z M833.7,118.9 C830.5,118.9 827.8,119.9 825.6,121.9 C823.5,123.8 822.3,126.3 821.8,129.4 L845.6,129.4 C845.1,126.3 843.9,123.8 841.8,121.9 C839.6,119.9 836.9,118.9 833.7,118.9 Z" id="形状"></path>
                        <path d="M877.7,100.7 L877.7,120.2 C879,118.5 880.5,117.1 882.3,115.9 C884.1,114.7 886.2,114.1 888.5,114.1 C890.8,114.1 892.8,114.4 894.5,115.1 C896.2,115.8 897.7,116.7 898.9,118 C901.8,120.8 903.2,124.6 903.2,129.3 L903.2,149.7 L898,149.7 L898,129.5 C898,126.3 897.1,123.7 895.3,121.8 C893.5,119.9 891.1,118.9 888.2,118.9 C885.3,118.9 882.8,119.9 880.7,121.8 C878.6,123.8 877.6,126.4 877.6,129.5 L877.6,149.7 L872.4,149.7 L872.4,100.7 L877.7,100.7 Z" id="路径"></path>
                        <path d="M936.9,149.7 L936.9,144.2 C935.6,145.9 934.1,147.3 932.3,148.5 C930.5,149.7 928.4,150.3 926.1,150.3 C923.8,150.3 921.8,150 920.1,149.3 C918.4,148.6 916.9,147.7 915.7,146.4 C912.8,143.6 911.4,139.8 911.4,135.1 L911.4,114.7 L916.6,114.7 L916.6,134.9 C916.6,138.1 917.5,140.7 919.3,142.6 C921.1,144.5 923.5,145.5 926.4,145.5 C929.3,145.5 931.8,144.5 933.9,142.6 C936,140.6 937,138 937,134.9 L937,114.7 L942.2,114.7 L942.2,149.7 L936.9,149.7 Z" id="路径"></path>
                        <path d="M956.5,120 C958.8,116.1 962.4,114.1 967.1,114.1 C969.4,114.1 971.6,114.7 973.6,116 C975.6,117.2 977.1,119 978.3,121.2 C979.9,118.3 982.4,116.2 985.7,114.9 C987.1,114.4 988.6,114.1 990.3,114.1 C992,114.1 993.6,114.4 995.2,115.1 C996.8,115.8 998.2,116.7 999.4,118 C1002,120.8 1003.3,124.3 1003.3,128.5 L1003.3,149.6 L998.1,149.6 L998.1,128.6 C998.1,125.7 997.3,123.3 995.7,121.5 C994.1,119.7 992,118.8 989.5,118.8 C986.8,118.8 984.6,119.7 982.9,121.4 C981,123.2 980.1,125.6 980.1,128.7 L980.1,149.6 L974.9,149.6 L974.9,128.6 C974.9,125.7 974.1,123.3 972.5,121.5 C970.9,119.7 968.8,118.8 966.3,118.8 C963.6,118.8 961.4,119.7 959.6,121.4 C957.7,123.2 956.8,125.6 956.8,128.7 L956.8,149.6 L951.6,149.6 L951.6,114.6 L956.8,114.6 L956.8,120 L956.5,120 Z" id="路径"></path>
                        <path d="M1039.3,144.1 C1036.5,148.2 1032.3,150.3 1026.8,150.3 C1021.8,150.3 1017.7,148.5 1014.5,145.1 C1011.4,141.6 1009.9,137.4 1009.9,132.3 C1009.9,127.2 1011.4,122.9 1014.5,119.5 C1017.7,116 1021.9,114.3 1027.2,114.3 C1032.5,114.3 1036.5,116.4 1039.4,120.5 L1039.4,114.8 L1044.6,114.8 L1044.6,149.8 L1039.4,149.8 L1039.4,144.1 L1039.3,144.1 Z M1027.5,145.5 C1031.3,145.5 1034.3,144.2 1036.5,141.6 C1038.6,139.1 1039.6,136 1039.6,132.2 C1039.6,128.4 1038.6,125.3 1036.5,122.8 C1034.3,120.2 1031.3,118.9 1027.5,118.9 C1023.8,118.9 1020.7,120.2 1018.4,122.8 C1016.2,125.3 1015.1,128.4 1015.1,132.2 C1015.1,136 1016.2,139.1 1018.4,141.6 C1020.8,144.2 1023.8,145.5 1027.5,145.5 Z" id="形状"></path>
                        <path d="M1058.9,114.7 L1058.9,120.2 C1060.2,118.5 1061.7,117.1 1063.5,115.9 C1065.3,114.7 1067.4,114.1 1069.7,114.1 C1072,114.1 1074,114.4 1075.7,115.1 C1077.4,115.8 1078.9,116.7 1080.1,118 C1083,120.8 1084.4,124.6 1084.4,129.3 L1084.4,149.7 L1079.2,149.7 L1079.2,129.5 C1079.2,126.3 1078.3,123.7 1076.5,121.8 C1074.7,119.9 1072.3,118.9 1069.4,118.9 C1066.5,118.9 1064,119.9 1061.9,121.8 C1059.8,123.8 1058.8,126.4 1058.8,129.5 L1058.8,149.7 L1053.6,149.7 L1053.6,114.7 L1058.9,114.7 Z" id="路径"></path>
                        <polygon id="路径" points="1092.5 126.5 1110 126.5 1110 131.6 1092.5 131.6"></polygon>
                        <path d="M1136.7,114.2 L1136.7,119.4 L1136.1,119.4 C1132.3,119.4 1129.2,120.9 1126.9,124 C1124.7,126.9 1123.5,130.3 1123.5,134.4 L1123.5,149.8 L1118.3,149.8 L1118.3,114.8 L1123.5,114.8 L1123.5,123.4 C1124.6,119.8 1127,117.1 1130.8,115.4 C1132.3,114.7 1134.2,114.3 1136.4,114.3 L1136.7,114.3 L1136.7,114.2 Z" id="路径"></path>
                        <path d="M1157.1,145.5 C1161.8,145.5 1165.2,143.5 1167.2,139.6 L1172.9,139.6 C1171.7,142.8 1169.8,145.3 1167.1,147.3 C1164.5,149.3 1161.1,150.2 1156.9,150.2 C1151.6,150.2 1147.3,148.4 1144,145 C1140.8,141.6 1139.2,137.3 1139.2,132.2 C1139.2,127 1140.7,122.7 1143.8,119.4 C1147.1,115.9 1151.3,114.2 1156.5,114.2 C1161.7,114.2 1166,116 1169.2,119.4 C1172.3,122.8 1173.8,127 1173.8,132.2 L1173.8,134.3 L1144.5,134.3 C1144.9,137.5 1146.2,140.2 1148.4,142.3 C1150.8,144.4 1153.6,145.5 1157.1,145.5 Z M1156.7,118.9 C1153.5,118.9 1150.8,119.9 1148.6,121.9 C1146.5,123.8 1145.3,126.3 1144.8,129.4 L1168.6,129.4 C1168.1,126.3 1166.9,123.8 1164.8,121.9 C1162.6,119.9 1159.9,118.9 1156.7,118.9 Z" id="形状"></path>
                        <path d="M1207.8,144.1 C1205,148.2 1200.8,150.3 1195.3,150.3 C1190.3,150.3 1186.2,148.5 1183,145.1 C1179.9,141.6 1178.4,137.4 1178.4,132.3 C1178.4,127.2 1179.9,122.9 1183,119.5 C1186.2,116 1190.4,114.3 1195.7,114.3 C1201,114.3 1205,116.4 1207.9,120.5 L1207.9,114.8 L1213.1,114.8 L1213.1,149.8 L1207.9,149.8 L1207.9,144.1 L1207.8,144.1 Z M1195.9,145.5 C1199.7,145.5 1202.7,144.2 1204.9,141.6 C1207,139.1 1208,136 1208,132.2 C1208,128.4 1207,125.3 1204.9,122.8 C1202.7,120.2 1199.7,118.9 1195.9,118.9 C1192.2,118.9 1189.1,120.2 1186.8,122.8 C1184.6,125.3 1183.5,128.4 1183.5,132.2 C1183.5,136 1184.6,139.1 1186.8,141.6 C1189.2,144.2 1192.2,145.5 1195.9,145.5 Z" id="形状"></path>
                        <path d="M1249.4,144.1 C1246.6,148.2 1242.4,150.3 1236.9,150.3 C1231.9,150.3 1227.8,148.5 1224.6,145.1 C1221.5,141.6 1220,137.4 1220,132.3 C1220,127.2 1221.5,122.9 1224.6,119.5 C1227.8,116 1232,114.3 1237.3,114.3 C1242.6,114.3 1246.6,116.4 1249.5,120.5 L1249.5,100.8 L1254.7,100.8 L1254.7,149.8 L1249.5,149.8 L1249.5,144.1 L1249.4,144.1 Z M1237.6,145.5 C1241.4,145.5 1244.4,144.2 1246.6,141.6 C1248.7,139.1 1249.7,136 1249.7,132.2 C1249.7,128.4 1248.7,125.3 1246.6,122.8 C1244.4,120.2 1241.4,118.9 1237.6,118.9 C1233.9,118.9 1230.8,120.2 1228.5,122.8 C1226.3,125.3 1225.2,128.4 1225.2,132.2 C1225.2,136 1226.3,139.1 1228.5,141.6 C1230.8,144.2 1233.9,145.5 1237.6,145.5 Z" id="形状"></path>
                        <path d="M1291.1,144.1 C1288.3,148.2 1284.1,150.3 1278.6,150.3 C1273.6,150.3 1269.5,148.5 1266.3,145.1 C1263.2,141.6 1261.7,137.4 1261.7,132.3 C1261.7,127.2 1263.2,122.9 1266.3,119.5 C1269.5,116 1273.7,114.3 1279,114.3 C1284.3,114.3 1288.3,116.4 1291.2,120.5 L1291.2,114.8 L1296.4,114.8 L1296.4,149.8 L1291.2,149.8 L1291.2,144.1 L1291.1,144.1 Z M1279.2,145.5 C1283,145.5 1286,144.2 1288.2,141.6 C1290.3,139.1 1291.3,136 1291.3,132.2 C1291.3,128.4 1290.3,125.3 1288.2,122.8 C1286,120.2 1283,118.9 1279.2,118.9 C1275.5,118.9 1272.4,120.2 1270.1,122.8 C1267.9,125.3 1266.8,128.4 1266.8,132.2 C1266.8,136 1267.9,139.1 1270.1,141.6 C1272.5,144.2 1275.5,145.5 1279.2,145.5 Z" id="形状"></path>
                        <path d="M1310.7,120.4 C1313.5,116.2 1317.7,114.2 1323.2,114.2 C1328.2,114.2 1332.3,116 1335.4,119.4 C1338.5,122.9 1340.1,127.1 1340.1,132.2 C1340.1,137.3 1338.5,141.6 1335.4,145 C1332.3,148.5 1328.1,150.2 1322.8,150.2 C1317.5,150.2 1313.5,148.1 1310.7,144 L1310.7,149.6 L1305.5,149.6 L1305.5,100.6 L1310.7,100.6 L1310.7,120.4 L1310.7,120.4 Z M1322.5,145.5 C1326.2,145.5 1329.3,144.2 1331.6,141.6 C1333.8,139.1 1334.9,136 1334.9,132.2 C1334.9,128.4 1333.8,125.3 1331.6,122.8 C1329.3,120.2 1326.2,118.9 1322.5,118.9 C1318.7,118.9 1315.7,120.2 1313.5,122.8 C1311.4,125.3 1310.3,128.4 1310.3,132.2 C1310.3,136 1311.4,139.1 1313.5,141.6 C1315.7,144.2 1318.7,145.5 1322.5,145.5 Z" id="形状"></path>
                        <polygon id="路径" points="1352.2 149.7 1347 149.7 1347 100.7 1352.2 100.7"></polygon>
                        <path d="M1377,145.5 C1381.7,145.5 1385.1,143.5 1387.1,139.6 L1392.8,139.6 C1391.6,142.8 1389.7,145.3 1387,147.3 C1384.4,149.3 1381,150.2 1376.8,150.2 C1371.5,150.2 1367.2,148.4 1363.9,145 C1360.7,141.6 1359.1,137.3 1359.1,132.2 C1359.1,127 1360.6,122.7 1363.7,119.4 C1367,115.9 1371.2,114.2 1376.4,114.2 C1381.6,114.2 1385.9,116 1389.1,119.4 C1392.2,122.8 1393.7,127 1393.7,132.2 L1393.7,134.3 L1364.4,134.3 C1364.8,137.5 1366.1,140.2 1368.3,142.3 C1370.7,144.4 1373.5,145.5 1377,145.5 Z M1376.5,118.9 C1373.3,118.9 1370.6,119.9 1368.4,121.9 C1366.3,123.8 1365.1,126.3 1364.6,129.4 L1388.4,129.4 C1387.9,126.3 1386.7,123.8 1384.6,121.9 C1382.5,119.9 1379.8,118.9 1376.5,118.9 Z" id="形状"></path>
                    </g>
                </g>
            </g>
        </g>
    </g>
</svg>