<?xml version="1.0" encoding="UTF-8"?>
<svg width="2275px" height="497px" viewBox="0 0 2275 497" version="1.1" xmlns="http://www.w3.org/2000/svg" xmlns:xlink="http://www.w3.org/1999/xlink">
    <!-- Generator: Sketch 57 (83077) - https://sketch.com -->
    <title>05</title>
    <desc>Created with Sketch.</desc>
    <g id="页面-1" stroke="none" stroke-width="1" fill="none" fill-rule="evenodd">
        <g id="Piraeus易拉宝" transform="translate(-179.000000, -3306.000000)" fill-rule="nonzero">
            <g id="图层_2" transform="translate(179.000000, 0.000000)">
                <g id="编组" transform="translate(0.000000, 277.000000)">
                    <g id="cloud" transform="translate(228.000000, 3108.000000)" fill="#FFFFFF">
                        <g id="clouds-_x28_1_x29_">
                            <g id="Shape_21_" transform="translate(0.951513, 0.000000)">
                                <path d="M97.2,27.4 C106.1,27.4 113.8,33.3 117,42.1 L111.1,44.3 C108.7,37.9 103.2,33.7 97.1,33.7 C95.6,33.7 94.1,34 92.6,34.5 L88.5,35.9 L88.5,30.6 C88.5,17.1 78.8,6.2 67,6.2 C57,6.2 48.3,14.1 46.1,25.1 L45.4,28.7 L42,27.4 C40.9,27 39.7,26.7 38.4,26.7 C34.6,26.7 31.1,28.8 28.9,32.4 L27.7,34.4 L25.5,33.8 C24.2,33.5 22.9,33.3 21.7,33.3 C13.3,33.3 6.3,41.1 6.3,50.9 C6.3,60.7 13.3,68.5 21.7,68.5 L85.3,68.5 L85.3,74.7 L21.7,74.7 C9.7,74.7 0.1,64 0.1,50.9 C0.1,37.8 9.7,27.1 21.7,27.1 C22.8,27.1 23.9,27.2 25,27.4 C28.3,23.2 33.2,20.6 38.5,20.6 C39.3,20.6 40.1,20.7 40.9,20.8 C44.6,8.6 55,0.1 67.1,0.1 C81.6,0.1 93.3,12.3 94.7,27.7 C95.6,27.4 96.4,27.4 97.2,27.4 Z" id="路径"></path>
                                <path d="M130.2,32.8 C144.6,32.8 157.3,38.9 167.2,50.2 L175.1,62.3 C178.9,70.4 180.6,77.4 180.9,85.7 C183.3,85.2 185.8,84.9 188.4,84.9 C209.7,84.9 226.9,103.7 226.9,126.8 C226.9,137.2 223.3,147.1 217,154.8 L214.1,158.4 L211.9,154.4 C208.4,148 202.2,144.1 195.4,144.1 C193.7,144.1 192.1,144.3 190.6,144.8 L188.4,145.4 L187.1,143.4 C184.3,139 179.9,136.4 175,136.4 C173.4,136.4 171.9,136.7 170.4,137.2 L167,138.5 L166.3,134.9 C163.5,121.5 152.7,112 140.2,112 C125.5,112 113.5,125.2 113.5,141.5 C113.5,142.2 113.5,142.4 113.5,142.6 L113.5,147 L109.4,145.6 C107.6,145 105.7,144.6 103.8,144.6 C93.4,144.6 84.9,153.9 84.8,165.6 L84.8,168.7 L42.2,168.7 C20.6,168.7 3.3,149.7 3.3,126.4 C3.3,103.1 20.7,84.1 42.2,84.1 C44.8,84.1 47.4,84.4 49.9,84.9 C55.9,76.8 64.9,71.9 74.8,71.9 C77.1,71.9 79.4,72.2 81.6,72.7 C87.7,49.4 107.4,32.8 130.2,32.8 Z M130.2,39.1 C109.4,39.1 91.4,55 86.8,77.2 L86.1,80.7 L82.7,79.5 C80.1,78.6 77.4,78.1 74.7,78.1 C66.3,78.1 58.6,82.6 53.8,90.1 L52.5,92.1 L50.3,91.5 C47.7,90.8 45,90.4 42.1,90.4 C24.1,90.4 9.4,106.4 9.4,126.4 C9.4,146.4 24.1,162.5 42.1,162.5 L78.7,162.5 C80.2,149 90.8,138.4 103.8,138.4 C105,138.4 106.2,138.5 107.4,138.7 C108.7,120.3 122.9,105.8 140.2,105.8 C154.7,105.8 167.2,116 171.5,130.5 C172.6,130.3 173.8,130.2 174.9,130.2 C181.2,130.2 187,133.2 191,138.3 C192.4,138 193.9,137.9 195.3,137.9 C202.9,137.9 209.9,141.5 214.7,147.5 C218.5,141.5 220.6,134.4 220.6,127 C220.6,107.3 206.1,91.4 188.3,91.4 C185,91.4 181.8,91.9 178.7,93 L174.6,94.4 L174.6,90 C174.6,89.7 174.6,89.5 174.6,89 C174.6,88.6 174.6,88.4 174.6,88.2 C174.6,79.9 173.1,73.2 169.5,65.5 L162.2,54.3 C153.7,44.3 142.7,39.1 130.2,39.1 Z" id="形状"></path>
                                <path d="M81.7,152.7 L87.3,155.5 C85.8,158.5 84.9,162.1 84.9,165.7 L84.9,168.8 L42.3,168.8 C20.7,168.8 3.4,149.8 3.4,126.5 C3.4,103.2 20.8,84.2 42.3,84.2 C43.5,84.2 44,84.2 44.7,84.3 L44.2,90.5 C43.7,90.5 43.3,90.5 42.3,90.5 C24.3,90.5 9.6,106.5 9.6,126.5 C9.6,146.5 24.3,162.6 42.3,162.6 L78.9,162.6 C79.2,159 80.2,155.7 81.7,152.7 Z" id="路径"></path>
                                <path d="M195.4,137.8 C209.6,137.8 220.9,150.2 220.9,165.5 C220.9,180.7 209.5,193.2 195.4,193.2 L103.9,193.2 C89.9,193.2 78.6,180.9 78.6,165.8 C78.6,150.7 89.9,138.4 103.9,138.4 C105.1,138.4 106.3,138.5 107.5,138.7 C108.8,120.3 123,105.8 140.3,105.8 C154.8,105.8 167.3,116 171.7,130.5 C172.8,130.3 174,130.2 175.1,130.2 C181.4,130.2 187.2,133.2 191.2,138.3 C192.5,137.9 194,137.8 195.4,137.8 Z M195.4,144 C193.7,144 192.1,144.2 190.6,144.7 L188.4,145.3 L187.1,143.3 C184.3,138.9 179.9,136.3 175,136.3 C173.4,136.3 171.9,136.6 170.4,137.1 L167,138.4 L166.3,134.8 C163.5,121.4 152.8,111.9 140.2,111.9 C125.5,111.9 113.5,125.1 113.5,141.4 C113.5,141.8 113.5,142 113.5,142.2 L114.1,147.1 L109.4,145.5 C107.5,144.9 105.7,144.5 103.8,144.5 C93.3,144.5 84.7,153.9 84.7,165.7 C84.7,177.4 93.3,186.9 103.8,186.9 L195.3,186.9 C205.9,186.9 214.600854,177.3 214.600854,165.5 C214.7,153.6 206,144 195.4,144 Z" id="形状"></path>
                            </g>
                        </g>
                    </g>
                    <g transform="translate(671.000000, 3118.000000)" fill="#EDCD70" stroke="#EDCD70" stroke-width="2">
                        <path d="M27.8,51.2 C31.6,51.2 34.9,50.2 37.8,48.3 C40.7,46.4 42.8,43.8 44.2,40.5 L50.5,40.5 C48.7,45.5 45.8,49.5 41.8,52.3 C37.5,55.4 32.4,56.9 26.5,56.9 C18.8,56.9 12.5,54.3 7.7,49 C3.2,43.9 0.9,37.5 0.9,29.8 C0.9,22.1 3.2,15.7 7.7,10.6 C12.5,5.3 18.8,2.7 26.5,2.7 C32.4,2.7 37.5,4.2 41.8,7.3 C45.9,10.2 48.8,14.1 50.5,19.1 L44.2,19.1 C42.8,15.8 40.7,13.3 37.8,11.3 C34.9,9.4 31.6,8.4 27.8,8.4 C24,8.4 20.9,8.9 18.4,10 C15.9,11.1 13.8,12.6 12.1,14.5 C8.6,18.4 6.9,23.4 6.9,29.6 C6.9,35.8 8.6,40.8 12.1,44.7 C15.7,49.1 20.9,51.2 27.8,51.2 Z" id="路径"></path>
                        <polygon id="路径" points="64.8 56.4 58.8 56.4 58.8 0.4 64.8 0.4"></polygon>
                        <path d="M93.2,15.7 C99.2,15.7 104,17.7 107.8,21.7 C111.3,25.5 113.1,30.4 113.1,36.3 C113.1,42.2 111.3,47.1 107.8,50.9 C104.1,54.9 99.2,56.9 93.2,56.9 C87.2,56.9 82.4,54.9 78.6,50.9 C75.1,47.1 73.3,42.2 73.3,36.3 C73.3,30.4 75.1,25.5 78.6,21.7 C82.3,17.7 87.2,15.7 93.2,15.7 Z M93.2,51.6 C97.5,51.6 100.9,50.1 103.4,47.1 C105.8,44.3 107,40.7 107,36.4 C107,32.1 105.8,28.5 103.4,25.7 C100.9,22.7 97.5,21.2 93.2,21.2 C88.9,21.2 85.5,22.7 83,25.7 C80.6,28.5 79.4,32.1 79.4,36.4 C79.4,40.7 80.6,44.3 83,47.1 C85.4,50.1 88.9,51.6 93.2,51.6 Z" id="形状"></path>
                        <path d="M150.5,56.4 L150.5,50.2 C149.1,52.1 147.3,53.7 145.2,55.1 C143.1,56.4 140.7,57.1 138.1,57.1 C135.5,57.1 133.1,56.7 131.2,56 C129.3,55.3 127.6,54.1 126.2,52.6 C122.9,49.3 121.2,45.1 121.2,39.7 L121.2,16.4 L127.2,16.4 L127.2,39.5 C127.2,43.2 128.2,46.1 130.3,48.3 C132.4,50.5 135.1,51.6 138.4,51.6 C141.8,51.6 144.6,50.5 147,48.2 C149.3,45.9 150.5,43 150.5,39.4 L150.5,16.4 L156.5,16.4 L156.5,56.4 L150.5,56.4 Z" id="路径"></path>
                        <path d="M198.7,50 C195.5,54.7 190.7,57 184.4,57 C178.6,57 173.9,55 170.3,51 C166.8,47.1 165,42.2 165,36.4 C165,30.6 166.8,25.7 170.3,21.8 C173.9,17.8 178.8,15.8 184.8,15.8 C190.8,15.8 195.5,18.2 198.7,22.9 L198.7,0.4 L204.7,0.4 L204.7,56.4 L198.7,56.4 L198.7,50 Z M185.2,51.6 C189.5,51.6 192.9,50.1 195.4,47.1 C197.8,44.3 199,40.7 199,36.4 C199,32.1 197.8,28.5 195.4,25.7 C192.9,22.7 189.5,21.2 185.2,21.2 C180.9,21.2 177.5,22.7 174.8,25.7 C172.3,28.5 171,32.1 171,36.4 C171,40.7 172.3,44.3 174.8,47.1 C177.4,50.1 180.9,51.6 185.2,51.6 Z" id="形状"></path>
                        <path d="M280.9,56.4 L274.3,56.4 L267.8,41 L241.6,41 L235.1,56.4 L228.5,56.4 L251,3.4 L258.5,3.4 L280.9,56.4 Z M265.5,35.5 L254.7,9.7 L243.9,35.5 L265.5,35.5 Z" id="形状"></path>
                        <path d="M317.5,22.8 L317.5,16.4 L323.5,16.4 L323.5,55.2 C323.5,61 321.9,65.3 318.6,68.4 C315.3,71.4 310.9,72.9 305.4,72.9 C299.9,72.9 295.5,71.8 292.4,69.7 C289.3,67.6 287.2,64.7 286,61.2 L292.6,61.2 C294.3,65.4 298.2,67.4 304.3,67.4 C308.9,67.4 312.3,66.3 314.4,64.2 C316.5,62.1 317.5,58.9 317.5,54.8 L317.5,49.3 C314.2,54 309.5,56.4 303.2,56.4 C297.4,56.4 292.7,54.4 289.1,50.5 C285.6,46.7 283.8,41.9 283.8,36.1 C283.8,30.3 285.6,25.5 289.1,21.7 C292.7,17.8 297.6,15.8 303.6,15.8 C309.7,15.7 314.3,18.1 317.5,22.8 Z M304,50.9 C306.2,50.9 308.1,50.5 309.8,49.7 C311.5,48.9 313,47.9 314.2,46.5 C316.6,43.7 317.8,40.2 317.8,35.9 C317.8,31.6 316.6,28.1 314.2,25.3 C311.6,22.4 308.2,21 304,21 C299.7,21 296.2,22.4 293.6,25.3 C291.1,28.1 289.8,31.6 289.8,35.9 C289.8,40.1 291.1,43.6 293.6,46.5 C296.2,49.5 299.6,50.9 304,50.9 Z" id="形状"></path>
                        <path d="M340.5,16.4 L340.5,22.6 C341.9,20.7 343.7,19.1 345.8,17.7 C347.9,16.4 350.3,15.7 352.9,15.7 C355.5,15.7 357.9,16.1 359.8,16.8 C361.7,17.5 363.4,18.7 364.8,20.2 C368.1,23.5 369.8,27.7 369.8,33.1 L369.8,56.4 L363.8,56.4 L363.8,33.3 C363.8,29.6 362.8,26.7 360.7,24.5 C358.6,22.3 355.9,21.2 352.6,21.2 C349.2,21.2 346.4,22.3 344,24.6 C341.7,26.9 340.5,29.8 340.5,33.4 L340.5,56.4 L334.5,56.4 L334.5,16.4 L340.5,16.4 Z" id="路径"></path>
                        <path d="M397.8,15.7 C403.8,15.7 408.6,17.7 412.4,21.7 C415.9,25.5 417.7,30.4 417.7,36.3 C417.7,42.2 415.9,47.1 412.4,50.9 C408.7,54.9 403.8,56.9 397.8,56.9 C391.8,56.9 387,54.9 383.2,50.9 C379.7,47.1 377.9,42.2 377.9,36.3 C377.9,30.4 379.7,25.5 383.2,21.7 C387,17.7 391.8,15.7 397.8,15.7 Z M397.8,51.6 C402.1,51.6 405.5,50.1 408,47.1 C410.4,44.3 411.6,40.7 411.6,36.4 C411.6,32.1 410.4,28.5 408,25.7 C405.5,22.7 402.1,21.2 397.8,21.2 C393.5,21.2 390.1,22.7 387.6,25.7 C385.2,28.5 384,32.1 384,36.4 C384,40.7 385.2,44.3 387.6,47.1 C390.1,50.1 393.5,51.6 397.8,51.6 Z" id="形状"></path>
                        <path d="M449.7,27.1 C449.2,22.9 445.8,20.9 439.7,20.9 C433.6,20.9 430.5,22.8 430.5,26.7 C430.5,28.3 431.2,29.5 432.5,30.3 C433.8,31.1 435.4,31.8 437.4,32.3 C439.4,32.8 441.5,33.3 443.8,33.8 C446.1,34.3 448.3,34.9 450.2,35.7 C452.2,36.5 453.8,37.7 455.1,39.1 C456.4,40.5 457.1,42.5 457.1,45 C457.1,48.9 455.6,51.9 452.7,53.9 C449.8,56 445.8,57 440.8,57 C435.5,57 431.2,55.7 428.1,53 C425.2,50.7 423.7,47.6 423.5,43.8 L429.7,43.8 C430.1,47.5 432.2,50 435.9,51.2 C437.3,51.6 438.7,51.8 440,51.8 C441.3,51.8 442.6,51.7 443.8,51.6 C445,51.4 446.1,51.1 447.2,50.7 C449.8,49.7 451,48 451,45.5 C451,43.8 450.3,42.6 449,41.7 C447.7,40.8 446.1,40.1 444.1,39.5 C442.1,38.9 440,38.4 437.7,38 C435.4,37.5 433.2,36.9 431.3,36.1 C429.3,35.3 427.7,34.2 426.4,32.8 C425.1,31.4 424.4,29.5 424.4,27 C424.4,23.4 425.7,20.6 428.4,18.6 C431,16.6 434.9,15.6 440.1,15.6 C445,15.6 448.9,16.8 451.7,19.1 C454,21.1 455.4,23.7 455.8,26.9 L449.7,26.9 L449.7,27.1 Z" id="路径"></path>
                        <polygon id="路径" points="469.7 56.4 469.7 21.7 461.5 21.7 461.5 16.4 469.7 16.4 469.7 2 475.7 2 475.7 16.3 484.9 16.3 484.9 21.6 475.7 21.6 475.7 56.3 469.7 56.3"></polygon>
                        <path d="M498.4,1.8 L498.4,9.6 L491.9,9.6 L491.9,1.8 L498.4,1.8 Z M492.1,16.4 L498.1,16.4 L498.1,56.4 L492.1,56.4 L492.1,16.4 Z" id="形状"></path>
                        <path d="M527.6,51.6 C530.2,51.6 532.4,50.9 534.4,49.4 C536.4,48 537.8,46.1 538.7,43.8 L545.2,43.8 C544,47.7 541.7,50.9 538.5,53.3 C535.1,55.8 531,57 526.3,57 C520.4,57 515.7,55 512,51 C508.4,47.1 506.6,42.2 506.6,36.4 C506.6,30.5 508.4,25.7 512,21.8 C515.7,17.8 520.5,15.8 526.3,15.8 C531,15.8 535,17 538.5,19.5 C541.8,21.9 544,25.1 545.2,29 L538.7,29 C537.8,26.7 536.4,24.8 534.4,23.4 C532.4,22 530.2,21.2 527.6,21.2 C525,21.2 522.9,21.6 521.1,22.4 C519.3,23.2 517.8,24.3 516.6,25.7 C514,28.6 512.7,32.2 512.7,36.4 C512.7,40.7 514,44.2 516.6,47.1 C519.3,50.1 523,51.6 527.6,51.6 Z" id="路径"></path>
                    </g>
                    <g transform="translate(670.000000, 3246.000000)" fill="#FFFFFF">
                        <path d="M9.7,50.2 L4.5,50.2 L4.5,3.9 L25.4,3.9 C30.3,3.9 34.2,5.3 37.1,8 C39.9,10.7 41.4,14.3 41.4,18.8 C41.4,23.4 40,27 37.1,29.7 C34.2,32.4 30.3,33.7 25.4,33.7 L9.8,33.7 L9.8,50.2 L9.7,50.2 Z M9.7,8.9 L9.7,28.8 L25,28.8 C28.6,28.8 31.4,27.9 33.3,26.1 C35.2,24.3 36.1,21.9 36.1,18.8 C36.1,15.7 35.2,13.3 33.3,11.5 C31.4,9.7 28.7,8.8 25,8.8 L9.7,8.8 L9.7,8.9 Z" id="形状"></path>
                        <path d="M65.7,14.7 L65.7,19.9 L65.1,19.9 C61.3,19.9 58.2,21.4 55.9,24.4 C53.7,27.3 52.5,30.7 52.5,34.8 L52.5,50.2 L47.3,50.2 L47.3,15.2 L52.5,15.2 L52.5,23.8 C53.6,20.2 56,17.5 59.8,15.8 C61.3,15.1 63.2,14.7 65.4,14.7 L65.7,14.7 Z" id="路径"></path>
                        <path d="M85.7,14.7 C90.9,14.7 95.2,16.5 98.4,19.9 C101.5,23.3 103,27.5 103,32.7 C103,37.9 101.5,42.2 98.4,45.5 C95.1,49 90.9,50.7 85.7,50.7 C80.5,50.7 76.2,48.9 73,45.5 C69.9,42.1 68.4,37.9 68.4,32.7 C68.4,27.5 69.9,23.3 73,19.9 C76.2,16.4 80.4,14.7 85.7,14.7 Z M85.7,46 C89.5,46 92.5,44.7 94.7,42.1 C96.8,39.6 97.8,36.5 97.8,32.7 C97.8,28.9 96.8,25.8 94.7,23.3 C92.5,20.7 89.5,19.4 85.7,19.4 C81.9,19.4 78.9,20.7 76.7,23.3 C74.6,25.8 73.5,28.9 73.5,32.7 C73.5,36.5 74.5,39.6 76.7,42.1 C78.9,44.7 81.9,46 85.7,46 Z" id="形状"></path>
                        <polygon id="路径" points="138.8 15.2 125.2 50.2 119 50.2 105.3 15.2 111 15.2 122.1 44.6 133.1 15.2"></polygon>
                        <path d="M149.2,2.5 L149.2,9.4 L143.5,9.4 L143.5,2.5 L149.2,2.5 Z M143.7,15.2 L148.9,15.2 L148.9,50.2 L143.7,50.2 L143.7,15.2 Z" id="形状"></path>
                        <path d="M185.4,44.6 C182.6,48.7 178.4,50.8 172.9,50.8 C167.9,50.8 163.8,49 160.6,45.6 C157.5,42.1 156,37.9 156,32.8 C156,27.7 157.5,23.4 160.6,20 C163.8,16.5 168,14.8 173.3,14.8 C178.6,14.8 182.6,16.9 185.5,21 L185.5,1.3 L190.7,1.3 L190.7,50.3 L185.5,50.3 L185.5,44.6 L185.4,44.6 Z M173.5,46 C177.3,46 180.3,44.7 182.5,42.1 C184.6,39.6 185.6,36.5 185.6,32.7 C185.6,28.9 184.6,25.8 182.5,23.3 C180.3,20.7 177.3,19.4 173.5,19.4 C169.8,19.4 166.7,20.7 164.4,23.3 C162.2,25.8 161.1,28.9 161.1,32.7 C161.1,36.5 162.2,39.6 164.4,42.1 C166.8,44.7 169.8,46 173.5,46 Z" id="形状"></path>
                        <path d="M215.3,46 C220,46 223.4,44 225.4,40.1 L231.1,40.1 C229.9,43.3 228,45.8 225.3,47.8 C222.7,49.8 219.3,50.7 215.1,50.7 C209.8,50.7 205.5,48.9 202.2,45.5 C199,42.1 197.4,37.8 197.4,32.7 C197.4,27.5 198.9,23.3 202,19.9 C205.3,16.4 209.5,14.7 214.7,14.7 C219.9,14.7 224.2,16.5 227.4,19.9 C230.5,23.3 232,27.5 232,32.7 L232,34.8 L202.7,34.8 C203.1,38 204.4,40.7 206.6,42.8 C209,45 211.9,46 215.3,46 Z M214.9,19.4 C211.7,19.4 209,20.4 206.8,22.4 C204.7,24.3 203.5,26.8 203,29.9 L226.8,29.9 C226.3,26.8 225.1,24.3 223,22.4 C220.8,20.4 218.1,19.4 214.9,19.4 Z" id="形状"></path>
                        <path d="M259.3,24.6 C258.8,21 255.9,19.1 250.5,19.1 C245.1,19.1 242.4,20.8 242.4,24.1 C242.4,25.5 243,26.6 244.1,27.3 C245.2,28 246.7,28.6 248.4,29.1 C250.1,29.6 252,30 254,30.4 C256,30.8 257.9,31.4 259.6,32.1 C261.3,32.8 262.8,33.8 263.9,35.1 C265,36.4 265.6,38.1 265.6,40.3 C265.6,43.7 264.3,46.3 261.7,48.1 C259.1,49.9 255.7,50.8 251.3,50.8 C246.6,50.8 242.9,49.6 240.2,47.3 C237.7,45.2 236.3,42.6 236.1,39.2 L241.6,39.2 C241.9,42.4 243.7,44.6 247.1,45.7 C248.3,46.1 249.5,46.3 250.7,46.3 C251.9,46.3 253,46.2 254,46.1 C255,46 256,45.7 257,45.3 C259.2,44.4 260.4,42.9 260.4,40.8 C260.4,39.4 259.8,38.2 258.7,37.5 C257.6,36.7 256.1,36.1 254.4,35.6 C252.7,35.1 250.8,34.7 248.8,34.3 C246.8,33.9 244.9,33.4 243.2,32.7 C241.5,32 240,31 238.9,29.8 C237.8,28.6 237.2,26.9 237.2,24.8 C237.2,21.6 238.4,19.2 240.7,17.4 C243,15.6 246.4,14.8 251,14.8 C255.3,14.8 258.7,15.8 261.1,17.9 C263.2,19.6 264.3,21.9 264.7,24.8 L259.3,24.8 L259.3,24.6 Z" id="路径"></path>
                        <path d="M314.6,44.6 C311.8,48.7 307.6,50.8 302.1,50.8 C297.1,50.8 293,49 289.8,45.6 C286.7,42.1 285.2,37.9 285.2,32.8 C285.2,27.7 286.7,23.4 289.8,20 C293,16.5 297.2,14.8 302.5,14.8 C307.8,14.8 311.8,16.9 314.7,21 L314.7,15.3 L319.9,15.3 L319.9,50.3 L314.7,50.3 L314.7,44.6 L314.6,44.6 Z M302.8,46 C306.6,46 309.6,44.7 311.8,42.1 C313.9,39.6 314.9,36.5 314.9,32.7 C314.9,28.9 313.9,25.8 311.8,23.3 C309.6,20.7 306.6,19.4 302.8,19.4 C299.1,19.4 296,20.7 293.7,23.3 C291.5,25.8 290.4,28.9 290.4,32.7 C290.4,36.5 291.5,39.6 293.7,42.1 C296,44.7 299.1,46 302.8,46 Z" id="形状"></path>
                        <path d="M369.2,50.2 L369.2,44.7 C367.9,46.4 366.4,47.8 364.6,49 C362.8,50.2 360.7,50.8 358.4,50.8 C356.1,50.8 354.1,50.5 352.4,49.8 C350.7,49.1 349.2,48.2 348,46.9 C345.1,44.1 343.7,40.3 343.7,35.6 L343.7,15.2 L348.9,15.2 L348.9,35.4 C348.9,38.6 349.8,41.2 351.6,43.1 C353.4,45 355.8,46 358.7,46 C361.6,46 364.1,45 366.2,43.1 C368.3,41.1 369.3,38.5 369.3,35.4 L369.3,15.2 L374.5,15.2 L374.5,50.2 L369.2,50.2 Z" id="路径"></path>
                        <path d="M388.8,15.2 L388.8,20.7 C390.1,19 391.6,17.6 393.4,16.4 C395.2,15.2 397.3,14.6 399.6,14.6 C401.9,14.6 403.9,14.9 405.6,15.6 C407.3,16.3 408.8,17.2 410,18.5 C412.9,21.3 414.3,25.1 414.3,29.8 L414.3,50.2 L409.1,50.2 L409.1,30 C409.1,26.8 408.2,24.2 406.4,22.3 C404.6,20.4 402.2,19.4 399.3,19.4 C396.4,19.4 393.9,20.4 391.8,22.3 C389.7,24.3 388.7,26.9 388.7,30 L388.7,50.2 L383.5,50.2 L383.5,15.2 L388.8,15.2 Z" id="路径"></path>
                        <path d="M428.6,2.5 L428.6,9.4 L422.9,9.4 L422.9,2.5 L428.6,2.5 Z M423.1,15.2 L428.3,15.2 L428.3,50.2 L423.1,50.2 L423.1,15.2 Z" id="形状"></path>
                        <path d="M452.5,5.6 C450,5.6 448.2,6.1 446.9,7.2 C445.7,8.3 445,10.1 445,12.5 L445,15.2 L453.1,15.2 L453.1,19.8 L445,19.8 L445,50.2 L439.8,50.2 L439.8,19.8 L433.8,19.8 L433.8,15.2 L439.8,15.2 L439.8,12.1 C439.8,8.3 440.9,5.4 443.2,3.5 C445.5,1.6 448.7,0.6 452.7,0.6 L453.1,0.6 L453.1,5.6 L452.5,5.6 Z" id="路径"></path>
                        <path d="M464.4,2.5 L464.4,9.4 L458.7,9.4 L458.7,2.5 L464.4,2.5 Z M459,15.2 L464.2,15.2 L464.2,50.2 L459,50.2 L459,15.2 Z" id="形状"></path>
                        <path d="M488.9,46 C493.6,46 497,44 499,40.1 L504.7,40.1 C503.5,43.3 501.6,45.8 498.9,47.8 C496.3,49.8 492.9,50.7 488.7,50.7 C483.4,50.7 479.1,48.9 475.8,45.5 C472.6,42.1 471,37.8 471,32.7 C471,27.5 472.5,23.3 475.6,19.9 C478.9,16.4 483.1,14.7 488.3,14.7 C493.5,14.7 497.8,16.5 501,19.9 C504.1,23.3 505.6,27.5 505.6,32.7 L505.6,34.8 L476.3,34.8 C476.7,38 478,40.7 480.2,42.8 C482.6,45 485.5,46 488.9,46 Z M488.5,19.4 C485.3,19.4 482.6,20.4 480.4,22.4 C478.3,24.3 477.1,26.8 476.6,29.9 L500.4,29.9 C499.9,26.8 498.7,24.3 496.6,22.4 C494.4,20.4 491.7,19.4 488.5,19.4 Z" id="形状"></path>
                        <path d="M539.6,44.6 C536.8,48.7 532.6,50.8 527.1,50.8 C522.1,50.8 518,49 514.8,45.6 C511.7,42.1 510.2,37.9 510.2,32.8 C510.2,27.7 511.7,23.4 514.8,20 C518,16.5 522.2,14.8 527.5,14.8 C532.8,14.8 536.8,16.9 539.7,21 L539.7,1.3 L544.9,1.3 L544.9,50.3 L539.7,50.3 L539.7,44.6 L539.6,44.6 Z M527.8,46 C531.6,46 534.6,44.7 536.8,42.1 C538.9,39.6 539.9,36.5 539.9,32.7 C539.9,28.9 538.9,25.8 536.8,23.3 C534.6,20.7 531.6,19.4 527.8,19.4 C524.1,19.4 521,20.7 518.7,23.3 C516.5,25.8 515.4,28.9 515.4,32.7 C515.4,36.5 516.5,39.6 518.7,42.1 C521,44.7 524,46 527.8,46 Z" id="形状"></path>
                        <path d="M596.2,44.6 C593.4,48.7 589.2,50.8 583.7,50.8 C578.7,50.8 574.6,49 571.4,45.6 C568.3,42.1 566.8,37.9 566.8,32.8 C566.8,27.7 568.3,23.4 571.4,20 C574.6,16.5 578.8,14.8 584.1,14.8 C589.4,14.8 593.4,16.9 596.3,21 L596.3,1.3 L601.5,1.3 L601.5,50.3 L596.3,50.3 L596.3,44.6 L596.2,44.6 Z M584.3,46 C588.1,46 591.1,44.7 593.3,42.1 C595.4,39.6 596.4,36.5 596.4,32.7 C596.4,28.9 595.4,25.8 593.3,23.3 C591.1,20.7 588.1,19.4 584.3,19.4 C580.6,19.4 577.5,20.7 575.2,23.3 C573,25.8 571.9,28.9 571.9,32.7 C571.9,36.5 573,39.6 575.2,42.1 C577.6,44.7 580.6,46 584.3,46 Z" id="形状"></path>
                        <path d="M637.8,44.6 C635,48.7 630.8,50.8 625.3,50.8 C620.3,50.8 616.2,49 613,45.6 C609.9,42.1 608.4,37.9 608.4,32.8 C608.4,27.7 609.9,23.4 613,20 C616.2,16.5 620.4,14.8 625.7,14.8 C631,14.8 635,16.9 637.9,21 L637.9,15.3 L643.1,15.3 L643.1,50.3 L637.9,50.3 L637.9,44.6 L637.8,44.6 Z M626,46 C629.8,46 632.8,44.7 635,42.1 C637.1,39.6 638.1,36.5 638.1,32.7 C638.1,28.9 637.1,25.8 635,23.3 C632.8,20.7 629.8,19.4 626,19.4 C622.3,19.4 619.2,20.7 616.9,23.3 C614.7,25.8 613.6,28.9 613.6,32.7 C613.6,36.5 614.7,39.6 616.9,42.1 C619.2,44.7 622.3,46 626,46 Z" id="形状"></path>
                        <polygon id="路径" points="656 50.2 656 19.8 648.9 19.8 648.9 15.2 656 15.2 656 2.7 661.2 2.7 661.2 15.2 669.2 15.2 669.2 19.8 661.2 19.8 661.2 50.2"></polygon>
                        <path d="M701.6,44.6 C698.8,48.7 694.6,50.8 689.1,50.8 C684.1,50.8 680,49 676.8,45.6 C673.7,42.1 672.2,37.9 672.2,32.8 C672.2,27.7 673.7,23.4 676.8,20 C680,16.5 684.2,14.8 689.5,14.8 C694.8,14.8 698.8,16.9 701.7,21 L701.7,15.3 L706.9,15.3 L706.9,50.3 L701.7,50.3 L701.7,44.6 L701.6,44.6 Z M689.8,46 C693.6,46 696.6,44.7 698.8,42.1 C700.9,39.6 701.9,36.5 701.9,32.7 C701.9,28.9 700.9,25.8 698.8,23.3 C696.6,20.7 693.6,19.4 689.8,19.4 C686.1,19.4 683,20.7 680.7,23.3 C678.5,25.8 677.4,28.9 677.4,32.7 C677.4,36.5 678.5,39.6 680.7,42.1 C683,44.7 686,46 689.8,46 Z" id="形状"></path>
                        <path d="M758.2,44.6 C755.4,48.7 751.2,50.8 745.7,50.8 C740.7,50.8 736.6,49 733.4,45.6 C730.3,42.1 728.8,37.9 728.8,32.8 C728.8,27.7 730.3,23.4 733.4,20 C736.6,16.5 740.8,14.8 746.1,14.8 C751.4,14.8 755.4,16.9 758.3,21 L758.3,1.3 L763.5,1.3 L763.5,50.3 L758.3,50.3 L758.3,44.6 L758.2,44.6 Z M746.3,46 C750.1,46 753.1,44.7 755.3,42.1 C757.4,39.6 758.4,36.5 758.4,32.7 C758.4,28.9 757.4,25.8 755.3,23.3 C753.1,20.7 750.1,19.4 746.3,19.4 C742.6,19.4 739.5,20.7 737.2,23.3 C735,25.8 733.9,28.9 733.9,32.7 C733.9,36.5 735,39.6 737.2,42.1 C739.6,44.7 742.6,46 746.3,46 Z" id="形状"></path>
                        <path d="M799.8,44.6 C797,48.7 792.8,50.8 787.3,50.8 C782.3,50.8 778.2,49 775,45.6 C771.9,42.1 770.4,37.9 770.4,32.8 C770.4,27.7 771.9,23.4 775,20 C778.2,16.5 782.4,14.8 787.7,14.8 C793,14.8 797,16.9 799.9,21 L799.9,15.3 L805.1,15.3 L805.1,50.3 L799.9,50.3 L799.9,44.6 L799.8,44.6 Z M788,46 C791.8,46 794.8,44.7 797,42.1 C799.1,39.6 800.1,36.5 800.1,32.7 C800.1,28.9 799.1,25.8 797,23.3 C794.8,20.7 791.8,19.4 788,19.4 C784.3,19.4 781.2,20.7 778.9,23.3 C776.7,25.8 775.6,28.9 775.6,32.7 C775.6,36.5 776.7,39.6 778.9,42.1 C781.2,44.7 784.2,46 788,46 Z" id="形状"></path>
                        <polygon id="路径" points="817.9 50.2 817.9 19.8 810.8 19.8 810.8 15.2 817.9 15.2 817.9 2.7 823.1 2.7 823.1 15.2 831.1 15.2 831.1 19.8 823.1 19.8 823.1 50.2"></polygon>
                        <path d="M863.6,44.6 C860.8,48.7 856.6,50.8 851.1,50.8 C846.1,50.8 842,49 838.8,45.6 C835.7,42.1 834.2,37.9 834.2,32.8 C834.2,27.7 835.7,23.4 838.8,20 C842,16.5 846.2,14.8 851.5,14.8 C856.8,14.8 860.8,16.9 863.7,21 L863.7,15.3 L868.9,15.3 L868.9,50.3 L863.7,50.3 L863.7,44.6 L863.6,44.6 Z M851.7,46 C855.5,46 858.5,44.7 860.7,42.1 C862.8,39.6 863.8,36.5 863.8,32.7 C863.8,28.9 862.8,25.8 860.7,23.3 C858.5,20.7 855.5,19.4 851.7,19.4 C848,19.4 844.9,20.7 842.6,23.3 C840.4,25.8 839.3,28.9 839.3,32.7 C839.3,36.5 840.4,39.6 842.6,42.1 C845,44.7 848,46 851.7,46 Z" id="形状"></path>
                        <path d="M898.5,24.6 C898,21 895.1,19.1 889.7,19.1 C884.3,19.1 881.6,20.8 881.6,24.1 C881.6,25.5 882.2,26.6 883.3,27.3 C884.4,28 885.9,28.6 887.6,29.1 C889.3,29.6 891.2,30 893.2,30.4 C895.2,30.8 897.1,31.4 898.8,32.1 C900.5,32.8 902,33.8 903.1,35.1 C904.2,36.4 904.8,38.1 904.8,40.3 C904.8,43.7 903.5,46.3 900.9,48.1 C898.3,49.9 894.9,50.8 890.5,50.8 C885.8,50.8 882.1,49.6 879.4,47.3 C876.9,45.2 875.5,42.6 875.3,39.2 L880.8,39.2 C881.1,42.4 882.9,44.6 886.3,45.7 C887.5,46.1 888.7,46.3 889.9,46.3 C891.1,46.3 892.2,46.2 893.2,46.1 C894.2,46 895.2,45.7 896.2,45.3 C898.4,44.4 899.6,42.9 899.6,40.8 C899.6,39.4 899,38.2 897.9,37.5 C896.8,36.7 895.3,36.1 893.6,35.6 C891.9,35.1 890,34.7 888,34.3 C886,33.9 884.1,33.4 882.4,32.7 C880.7,32 879.2,31 878.1,29.8 C877,28.6 876.4,26.9 876.4,24.8 C876.4,21.6 877.6,19.2 879.9,17.4 C882.2,15.6 885.6,14.8 890.2,14.8 C894.5,14.8 897.9,15.8 900.3,17.9 C902.4,19.6 903.5,21.9 903.9,24.8 L898.5,24.8 L898.5,24.6 Z" id="路径"></path>
                        <polygon id="路径" points="915.4 50.2 915.4 19.8 908.3 19.8 908.3 15.2 915.4 15.2 915.4 2.7 920.6 2.7 920.6 15.2 928.6 15.2 928.6 19.8 920.6 19.8 920.6 50.2"></polygon>
                        <path d="M949,14.7 C954.2,14.7 958.5,16.5 961.7,19.9 C964.8,23.3 966.3,27.5 966.3,32.7 C966.3,37.9 964.8,42.2 961.7,45.5 C958.4,49 954.2,50.7 949,50.7 C943.8,50.7 939.5,48.9 936.3,45.5 C933.2,42.1 931.7,37.9 931.7,32.7 C931.7,27.5 933.2,23.3 936.3,19.9 C939.5,16.4 943.7,14.7 949,14.7 Z M949,46 C952.8,46 955.8,44.7 958,42.1 C960.1,39.6 961.1,36.5 961.1,32.7 C961.1,28.9 960.1,25.8 958,23.3 C955.8,20.7 952.8,19.4 949,19.4 C945.2,19.4 942.2,20.7 940,23.3 C937.9,25.8 936.8,28.9 936.8,32.7 C936.8,36.5 937.8,39.6 940,42.1 C942.2,44.7 945.2,46 949,46 Z" id="形状"></path>
                        <path d="M991.7,14.7 L991.7,19.9 L991.1,19.9 C987.3,19.9 984.2,21.4 981.9,24.4 C979.7,27.3 978.5,30.7 978.5,34.8 L978.5,50.2 L973.3,50.2 L973.3,15.2 L978.5,15.2 L978.5,23.8 C979.6,20.2 982,17.5 985.8,15.8 C987.3,15.1 989.2,14.7 991.4,14.7 L991.7,14.7 Z" id="路径"></path>
                        <path d="M1012.1,46 C1016.8,46 1020.2,44 1022.2,40.1 L1027.9,40.1 C1026.7,43.3 1024.8,45.8 1022.1,47.8 C1019.5,49.8 1016.1,50.7 1011.9,50.7 C1006.6,50.7 1002.3,48.9 999,45.5 C995.8,42.1 994.2,37.8 994.2,32.7 C994.2,27.5 995.7,23.3 998.8,19.9 C1002.1,16.4 1006.3,14.7 1011.5,14.7 C1016.7,14.7 1021,16.5 1024.2,19.9 C1027.3,23.3 1028.8,27.5 1028.8,32.7 L1028.8,34.8 L999.5,34.8 C999.9,38 1001.2,40.7 1003.4,42.8 C1005.8,45 1008.7,46 1012.1,46 Z M1011.7,19.4 C1008.5,19.4 1005.8,20.4 1003.6,22.4 C1001.5,24.3 1000.3,26.8 999.8,29.9 L1023.6,29.9 C1023.1,26.8 1021.9,24.3 1019.8,22.4 C1017.6,20.4 1014.9,19.4 1011.7,19.4 Z" id="形状"></path>
                        <path d="M1077.7,44.6 C1074.9,48.7 1070.7,50.8 1065.2,50.8 C1060.2,50.8 1056.1,49 1052.9,45.6 C1049.8,42.1 1048.3,37.9 1048.3,32.8 C1048.3,27.7 1049.8,23.4 1052.9,20 C1056.1,16.5 1060.3,14.8 1065.6,14.8 C1070.9,14.8 1074.9,16.9 1077.8,21 L1077.8,15.3 L1083,15.3 L1083,50.3 L1077.8,50.3 L1077.8,44.6 L1077.7,44.6 Z M1065.9,46 C1069.7,46 1072.7,44.7 1074.9,42.1 C1077,39.6 1078,36.5 1078,32.7 C1078,28.9 1077,25.8 1074.9,23.3 C1072.7,20.7 1069.7,19.4 1065.9,19.4 C1062.2,19.4 1059.1,20.7 1056.8,23.3 C1054.6,25.8 1053.5,28.9 1053.5,32.7 C1053.5,36.5 1054.6,39.6 1056.8,42.1 C1059.1,44.7 1062.1,46 1065.9,46 Z" id="形状"></path>
                        <path d="M1108.2,46 C1110.4,46 1112.4,45.4 1114.2,44.1 C1115.9,42.8 1117.2,41.2 1118,39.2 L1123.7,39.2 C1122.6,42.7 1120.7,45.4 1117.8,47.5 C1114.8,49.6 1111.3,50.7 1107.2,50.7 C1102.1,50.7 1097.9,48.9 1094.7,45.5 C1091.6,42.1 1090,37.8 1090,32.7 C1090,27.6 1091.6,23.3 1094.7,19.9 C1097.9,16.4 1102.1,14.7 1107.2,14.7 C1111.3,14.7 1114.9,15.8 1117.8,17.9 C1120.6,20 1122.6,22.8 1123.7,26.2 L1118,26.2 C1117.2,24.2 1115.9,22.6 1114.2,21.3 C1112.5,20 1110.5,19.4 1108.2,19.4 C1106,19.4 1104.1,19.7 1102.5,20.4 C1100.9,21.1 1099.6,22.1 1098.5,23.3 C1096.2,25.8 1095.1,28.9 1095.1,32.7 C1095.1,36.4 1096.2,39.6 1098.5,42.1 C1100.9,44.7 1104.1,46 1108.2,46 Z" id="路径"></path>
                        <path d="M1148.6,14.7 L1148.6,19.9 L1148,19.9 C1144.2,19.9 1141.1,21.4 1138.8,24.4 C1136.6,27.3 1135.4,30.7 1135.4,34.8 L1135.4,50.2 L1130.2,50.2 L1130.2,15.2 L1135.4,15.2 L1135.4,23.8 C1136.5,20.2 1138.9,17.5 1142.7,15.8 C1144.2,15.1 1146.1,14.7 1148.3,14.7 L1148.6,14.7 Z" id="路径"></path>
                        <path d="M1168.6,14.7 C1173.8,14.7 1178.1,16.5 1181.3,19.9 C1184.4,23.3 1185.9,27.5 1185.9,32.7 C1185.9,37.9 1184.4,42.2 1181.3,45.5 C1178,49 1173.8,50.7 1168.6,50.7 C1163.4,50.7 1159.1,48.9 1155.9,45.5 C1152.8,42.1 1151.3,37.9 1151.3,32.7 C1151.3,27.5 1152.8,23.3 1155.9,19.9 C1159.1,16.4 1163.3,14.7 1168.6,14.7 Z M1168.6,46 C1172.4,46 1175.4,44.7 1177.6,42.1 C1179.7,39.6 1180.7,36.5 1180.7,32.7 C1180.7,28.9 1179.7,25.8 1177.6,23.3 C1175.4,20.7 1172.4,19.4 1168.6,19.4 C1164.8,19.4 1161.8,20.7 1159.6,23.3 C1157.5,25.8 1156.4,28.9 1156.4,32.7 C1156.4,36.5 1157.4,39.6 1159.6,42.1 C1161.8,44.7 1164.8,46 1168.6,46 Z" id="形状"></path>
                        <path d="M1213.4,24.6 C1212.9,21 1210,19.1 1204.6,19.1 C1199.2,19.1 1196.5,20.8 1196.5,24.1 C1196.5,25.5 1197.1,26.6 1198.2,27.3 C1199.3,28 1200.8,28.6 1202.5,29.1 C1204.2,29.6 1206.1,30 1208.1,30.4 C1210.1,30.8 1212,31.4 1213.7,32.1 C1215.4,32.8 1216.9,33.8 1218,35.1 C1219.1,36.4 1219.7,38.1 1219.7,40.3 C1219.7,43.7 1218.4,46.3 1215.8,48.1 C1213.2,49.9 1209.8,50.8 1205.4,50.8 C1200.7,50.8 1197,49.6 1194.3,47.3 C1191.8,45.2 1190.4,42.6 1190.2,39.2 L1195.7,39.2 C1196,42.4 1197.8,44.6 1201.2,45.7 C1202.4,46.1 1203.6,46.3 1204.8,46.3 C1206,46.3 1207.1,46.2 1208.1,46.1 C1209.1,46 1210.1,45.7 1211.1,45.3 C1213.3,44.4 1214.5,42.9 1214.5,40.8 C1214.5,39.4 1213.9,38.2 1212.8,37.5 C1211.7,36.7 1210.2,36.1 1208.5,35.6 C1206.8,35.1 1204.9,34.7 1202.9,34.3 C1200.9,33.9 1199,33.4 1197.3,32.7 C1195.6,32 1194.1,31 1193,29.8 C1191.9,28.6 1191.3,26.9 1191.3,24.8 C1191.3,21.6 1192.5,19.2 1194.8,17.4 C1197.1,15.6 1200.5,14.8 1205.1,14.8 C1209.4,14.8 1212.8,15.8 1215.2,17.9 C1217.3,19.6 1218.4,21.9 1218.8,24.8 L1213.4,24.8 L1213.4,24.6 Z" id="路径"></path>
                        <path d="M1247.2,24.6 C1246.7,21 1243.8,19.1 1238.4,19.1 C1233,19.1 1230.3,20.8 1230.3,24.1 C1230.3,25.5 1230.9,26.6 1232,27.3 C1233.1,28 1234.6,28.6 1236.3,29.1 C1238,29.6 1239.9,30 1241.9,30.4 C1243.9,30.8 1245.8,31.4 1247.5,32.1 C1249.2,32.8 1250.7,33.8 1251.8,35.1 C1252.9,36.4 1253.5,38.1 1253.5,40.3 C1253.5,43.7 1252.2,46.3 1249.6,48.1 C1247,49.9 1243.6,50.8 1239.2,50.8 C1234.5,50.8 1230.8,49.6 1228.1,47.3 C1225.6,45.2 1224.2,42.6 1224,39.2 L1229.5,39.2 C1229.8,42.4 1231.6,44.6 1235,45.7 C1236.2,46.1 1237.4,46.3 1238.6,46.3 C1239.8,46.3 1240.9,46.2 1241.9,46.1 C1242.9,46 1243.9,45.7 1244.9,45.3 C1247.1,44.4 1248.3,42.9 1248.3,40.8 C1248.3,39.4 1247.7,38.2 1246.6,37.5 C1245.5,36.7 1244,36.1 1242.3,35.6 C1240.6,35.1 1238.7,34.7 1236.7,34.3 C1234.7,33.9 1232.8,33.4 1231.1,32.7 C1229.4,32 1227.9,31 1226.8,29.8 C1225.7,28.6 1225.1,26.9 1225.1,24.8 C1225.1,21.6 1226.3,19.2 1228.6,17.4 C1230.9,15.6 1234.3,14.8 1238.9,14.8 C1243.2,14.8 1246.6,15.8 1249,17.9 C1251.1,19.6 1252.2,21.9 1252.6,24.8 L1247.2,24.8 L1247.2,24.6 Z" id="路径"></path>
                        <path d="M1302.5,44.6 C1299.7,48.7 1295.5,50.8 1290,50.8 C1285,50.8 1280.9,49 1277.7,45.6 C1274.6,42.1 1273.1,37.9 1273.1,32.8 C1273.1,27.7 1274.6,23.4 1277.7,20 C1280.9,16.5 1285.1,14.8 1290.4,14.8 C1295.7,14.8 1299.7,16.9 1302.6,21 L1302.6,15.3 L1307.8,15.3 L1307.8,50.3 L1302.6,50.3 L1302.6,44.6 L1302.5,44.6 Z M1290.7,46 C1294.5,46 1297.5,44.7 1299.7,42.1 C1301.8,39.6 1302.8,36.5 1302.8,32.7 C1302.8,28.9 1301.8,25.8 1299.7,23.3 C1297.5,20.7 1294.5,19.4 1290.7,19.4 C1287,19.4 1283.9,20.7 1281.6,23.3 C1279.4,25.8 1278.3,28.9 1278.3,32.7 C1278.3,36.5 1279.4,39.6 1281.6,42.1 C1283.9,44.7 1287,46 1290.7,46 Z" id="形状"></path>
                        <polygon id="路径" points="1322.1 50.2 1316.9 50.2 1316.9 1.2 1322.1 1.2"></polygon>
                        <polygon id="路径" points="1336.5 50.2 1331.3 50.2 1331.3 1.2 1336.5 1.2"></polygon>
                        <path d="M23.9,124.6 C23.4,121 20.5,119.1 15.1,119.1 C9.7,119.1 7,120.8 7,124.1 C7,125.5 7.6,126.6 8.7,127.3 C9.8,128 11.3,128.6 13,129.1 C14.7,129.6 16.6,130 18.6,130.4 C20.6,130.8 22.5,131.4 24.2,132.1 C25.9,132.8 27.4,133.8 28.5,135.1 C29.6,136.4 30.2,138.1 30.2,140.3 C30.2,143.7 28.9,146.3 26.3,148.1 C23.7,149.9 20.3,150.8 15.9,150.8 C11.2,150.8 7.5,149.6 4.8,147.3 C2.3,145.2 0.9,142.6 0.7,139.2 L6.2,139.2 C6.5,142.4 8.3,144.6 11.7,145.7 C12.9,146.1 14.1,146.3 15.3,146.3 C16.5,146.3 17.6,146.2 18.6,146.1 C19.6,146 20.6,145.7 21.6,145.3 C23.8,144.4 25,142.9 25,140.8 C25,139.4 24.4,138.2 23.3,137.5 C22.2,136.7 20.7,136.1 19,135.6 C17.3,135.1 15.4,134.7 13.4,134.3 C11.4,133.9 9.5,133.4 7.8,132.7 C6.1,132 4.6,131 3.5,129.8 C2.4,128.6 1.8,126.9 1.8,124.8 C1.8,121.6 3,119.2 5.3,117.4 C7.6,115.6 11,114.8 15.6,114.8 C19.9,114.8 23.3,115.8 25.7,117.9 C27.8,119.6 28.9,121.9 29.3,124.8 L23.9,124.8 L23.9,124.6 Z" id="路径"></path>
                        <polygon id="路径" points="40.8 150.2 40.8 119.8 33.7 119.8 33.7 115.2 40.8 115.2 40.8 102.7 46 102.7 46 115.2 54 115.2 54 119.8 46 119.8 46 150.2"></polygon>
                        <path d="M74.3,114.7 C79.5,114.7 83.8,116.5 87,119.9 C90.1,123.3 91.6,127.5 91.6,132.7 C91.6,137.9 90.1,142.2 87,145.5 C83.7,149 79.5,150.7 74.3,150.7 C69.1,150.7 64.8,148.9 61.6,145.5 C58.5,142.1 57,137.9 57,132.7 C57,127.5 58.5,123.3 61.6,119.9 C64.9,116.4 69.1,114.7 74.3,114.7 Z M74.3,146 C78.1,146 81.1,144.7 83.3,142.1 C85.4,139.6 86.4,136.5 86.4,132.7 C86.4,128.9 85.4,125.8 83.3,123.3 C81.1,120.7 78.1,119.4 74.3,119.4 C70.5,119.4 67.5,120.7 65.3,123.3 C63.2,125.8 62.1,128.9 62.1,132.7 C62.1,136.5 63.1,139.6 65.3,142.1 C67.6,144.7 70.6,146 74.3,146 Z" id="形状"></path>
                        <path d="M117.1,114.7 L117.1,119.9 L116.5,119.9 C112.7,119.9 109.6,121.4 107.3,124.4 C105.1,127.3 103.9,130.7 103.9,134.8 L103.9,150.2 L98.7,150.2 L98.7,115.2 L103.9,115.2 L103.9,123.8 C105,120.2 107.4,117.5 111.2,115.8 C112.7,115.1 114.6,114.7 116.8,114.7 L117.1,114.7 Z" id="路径"></path>
                        <path d="M149.2,144.6 C146.4,148.7 142.2,150.8 136.7,150.8 C131.7,150.8 127.6,149 124.4,145.6 C121.3,142.1 119.8,137.9 119.8,132.8 C119.8,127.7 121.3,123.4 124.4,120 C127.6,116.5 131.8,114.8 137.1,114.8 C142.4,114.8 146.4,116.9 149.3,121 L149.3,115.3 L154.5,115.3 L154.5,150.3 L149.3,150.3 L149.3,144.6 L149.2,144.6 Z M137.3,146 C141.1,146 144.1,144.7 146.3,142.1 C148.4,139.6 149.4,136.5 149.4,132.7 C149.4,128.9 148.4,125.8 146.3,123.3 C144.1,120.7 141.1,119.4 137.3,119.4 C133.6,119.4 130.5,120.7 128.2,123.3 C126,125.8 124.9,128.9 124.9,132.7 C124.9,136.5 126,139.6 128.2,142.1 C130.6,144.7 133.6,146 137.3,146 Z" id="形状"></path>
                        <path d="M190.8,120.8 L190.8,115.2 L196,115.2 L196,149.2 C196,154.2 194.6,158.1 191.7,160.7 C188.8,163.3 185,164.7 180.1,164.7 C175.2,164.7 171.5,163.8 168.7,161.9 C166,160 164.1,157.6 163.1,154.5 L168.9,154.5 C170.4,158.1 173.8,160 179.1,160 C183.2,160 186.1,159.1 187.9,157.2 C189.7,155.3 190.6,152.6 190.6,148.9 L190.6,144.1 C187.8,148.3 183.6,150.3 178.1,150.3 C173.1,150.3 169,148.6 165.8,145.1 C162.7,141.7 161.2,137.5 161.2,132.5 C161.2,127.5 162.7,123.3 165.8,119.9 C169,116.4 173.2,114.7 178.5,114.7 C184,114.7 188,116.7 190.8,120.8 Z M179,145.5 C180.9,145.5 182.6,145.2 184.1,144.5 C185.6,143.8 186.9,142.9 188,141.7 C190.1,139.3 191.1,136.2 191.1,132.5 C191.1,128.8 190.1,125.7 188,123.3 C185.7,120.8 182.7,119.5 179,119.5 C175.2,119.5 172.2,120.8 169.9,123.3 C167.7,125.8 166.6,128.9 166.6,132.5 C166.6,136.2 167.7,139.3 169.9,141.7 C172.2,144.2 175.2,145.5 179,145.5 Z" id="形状"></path>
                        <path d="M220.8,146 C225.5,146 228.9,144 230.9,140.1 L236.6,140.1 C235.4,143.3 233.5,145.8 230.8,147.8 C228.2,149.8 224.8,150.7 220.6,150.7 C215.3,150.7 211,148.9 207.7,145.5 C204.5,142.1 202.9,137.8 202.9,132.7 C202.9,127.5 204.4,123.3 207.5,119.9 C210.8,116.4 215,114.7 220.2,114.7 C225.4,114.7 229.7,116.5 232.9,119.9 C236,123.3 237.5,127.5 237.5,132.7 L237.5,134.8 L208.2,134.8 C208.6,138 209.9,140.7 212.1,142.8 C214.5,145 217.3,146 220.8,146 Z M220.4,119.4 C217.2,119.4 214.5,120.4 212.3,122.4 C210.2,124.3 209,126.8 208.5,129.9 L232.3,129.9 C231.8,126.8 230.6,124.3 228.5,122.4 C226.3,120.4 223.6,119.4 220.4,119.4 Z" id="形状"></path>
                        <path d="M264.3,120.5 C266.6,116.6 270.2,114.6 274.9,114.6 C277.2,114.6 279.4,115.2 281.4,116.5 C283.4,117.7 284.9,119.5 286.1,121.7 C287.7,118.8 290.2,116.7 293.5,115.4 C294.9,114.9 296.4,114.6 298.1,114.6 C299.8,114.6 301.4,114.9 303,115.6 C304.6,116.3 306,117.2 307.2,118.5 C309.8,121.3 311.1,124.8 311.1,129 L311.1,150.1 L305.9,150.1 L305.9,129.1 C305.9,126.2 305.1,123.8 303.5,122 C301.9,120.2 299.8,119.3 297.3,119.3 C294.6,119.3 292.4,120.2 290.7,121.9 C288.8,123.7 287.9,126.1 287.9,129.2 L287.9,150.1 L282.7,150.1 L282.7,129.1 C282.7,126.2 281.9,123.8 280.3,122 C278.7,120.2 276.6,119.3 274.1,119.3 C271.4,119.3 269.2,120.2 267.4,121.9 C265.5,123.7 264.6,126.1 264.6,129.2 L264.6,150.1 L259.4,150.1 L259.4,115.1 L264.6,115.1 L264.6,120.5 L264.3,120.5 Z" id="路径"></path>
                        <path d="M335.4,146 C340.1,146 343.5,144 345.5,140.1 L351.2,140.1 C350,143.3 348.1,145.8 345.4,147.8 C342.8,149.8 339.4,150.7 335.2,150.7 C329.9,150.7 325.6,148.9 322.3,145.5 C319.1,142.1 317.5,137.8 317.5,132.7 C317.5,127.5 319,123.3 322.1,119.9 C325.4,116.4 329.6,114.7 334.8,114.7 C340,114.7 344.3,116.5 347.5,119.9 C350.6,123.3 352.1,127.5 352.1,132.7 L352.1,134.8 L323,134.8 C323.4,138 324.7,140.7 326.9,142.8 C329.1,145 332,146 335.4,146 Z M335,119.4 C331.8,119.4 329.1,120.4 326.9,122.4 C324.8,124.3 323.6,126.8 323.1,129.9 L346.9,129.9 C346.4,126.8 345.2,124.3 343.1,122.4 C340.9,120.4 338.2,119.4 335,119.4 Z" id="形状"></path>
                        <path d="M386.1,144.6 C383.3,148.7 379.1,150.8 373.6,150.8 C368.6,150.8 364.5,149 361.3,145.6 C358.2,142.1 356.7,137.9 356.7,132.8 C356.7,127.7 358.2,123.4 361.3,120 C364.5,116.5 368.7,114.8 374,114.8 C379.3,114.8 383.3,116.9 386.2,121 L386.2,101.3 L391.4,101.3 L391.4,150.3 L386.2,150.3 L386.2,144.6 L386.1,144.6 Z M374.3,146 C378.1,146 381.1,144.7 383.3,142.1 C385.4,139.6 386.4,136.5 386.4,132.7 C386.4,128.9 385.4,125.8 383.3,123.3 C381.1,120.7 378.1,119.4 374.3,119.4 C370.6,119.4 367.5,120.7 365.2,123.3 C363,125.8 361.9,128.9 361.9,132.7 C361.9,136.5 363,139.6 365.2,142.1 C367.5,144.7 370.5,146 374.3,146 Z" id="形状"></path>
                        <path d="M405.9,102.5 L405.9,109.4 L400.2,109.4 L400.2,102.5 L405.9,102.5 Z M400.5,115.2 L405.7,115.2 L405.7,150.2 L400.5,150.2 L400.5,115.2 Z" id="形状"></path>
                        <path d="M442.1,144.6 C439.3,148.7 435.1,150.8 429.6,150.8 C424.6,150.8 420.5,149 417.3,145.6 C414.2,142.1 412.7,137.9 412.7,132.8 C412.7,127.7 414.2,123.4 417.3,120 C420.5,116.5 424.7,114.8 430,114.8 C435.3,114.8 439.3,116.9 442.2,121 L442.2,115.3 L447.4,115.3 L447.4,150.3 L442.2,150.3 L442.2,144.6 L442.1,144.6 Z M430.3,146 C434.1,146 437.1,144.7 439.3,142.1 C441.4,139.6 442.4,136.5 442.4,132.7 C442.4,128.9 441.4,125.8 439.3,123.3 C437.1,120.7 434.1,119.4 430.3,119.4 C426.6,119.4 423.5,120.7 421.2,123.3 C419,125.8 417.9,128.9 417.9,132.7 C417.9,136.5 419,139.6 421.2,142.1 C423.5,144.7 426.5,146 430.3,146 Z" id="形状"></path>
                        <path d="M462.4,115.2 L462.4,122.3 L455.6,122.3 L455.6,115.2 L462.4,115.2 Z M462.4,143.1 L462.4,150.2 L455.6,150.2 L455.6,143.1 L462.4,143.1 Z" id="形状"></path>
                        <path d="M491.9,150.2 L486.7,150.2 L486.7,103.9 L508.9,103.9 C513.6,103.9 517.4,105.2 520.2,107.8 C523,110.4 524.5,113.9 524.5,118.4 C524.5,124.2 522.1,128.1 517.3,130.2 C515.9,130.8 514.6,131.2 513.3,131.5 L525.5,150.2 L519.3,150.2 L508.1,132.4 L492,132.4 L492,150.2 L491.9,150.2 Z M491.9,127.5 L507.9,127.5 C512.8,127.5 516.3,126 518.1,122.9 C518.8,121.7 519.1,120.2 519.1,118.4 C519.1,115.5 518.1,113.1 516.1,111.4 C514.1,109.7 511.4,108.8 508.1,108.8 L491.8,108.8 L491.8,127.5 L491.9,127.5 Z" id="形状"></path>
                        <path d="M574,150.2 L568.2,150.2 L562.5,136.8 L539.5,136.8 L533.8,150.2 L528,150.2 L547.7,103.9 L554.3,103.9 L574,150.2 Z M560.5,132 L551,109.4 L541.5,132 L560.5,132 Z" id="形状"></path>
                        <polygon id="路径" points="585.1 150.2 579.9 150.2 579.9 103.9 585.1 103.9"></polygon>
                        <path d="M616,103.9 C618.8,103.9 621.4,104.4 624,105.5 C626.6,106.6 628.8,108.1 630.8,110.1 C635.1,114.5 637.3,120.2 637.3,127.1 C637.3,134 635.1,139.7 630.8,144.1 C628.8,146.1 626.6,147.6 624,148.7 C621.4,149.7 618.8,150.3 616,150.3 L596.5,150.3 L596.5,104 L616,104 L616,103.9 Z M615.8,145.3 C620.7,145.3 624.6,143.5 627.6,139.9 C630.5,136.4 632,132.2 632,127.1 C632,122 630.5,117.7 627.6,114.3 C624.6,110.7 620.6,108.9 615.8,108.9 L601.7,108.9 L601.7,145.3 L615.8,145.3 L615.8,145.3 Z" id="形状"></path>
                        <polygon id="路径" points="644.2 144.6 651.1 144.6 644.9 159.5 640.1 159.5"></polygon>
                        <path d="M680.7,111 C679.8,111.8 679.2,112.6 678.9,113.6 C678.6,114.5 678.4,115.5 678.4,116.6 C678.4,117.7 678.9,118.6 679.8,119.5 C680.7,120.4 681.9,121.1 683.4,121.7 C684.9,122.3 686.6,122.8 688.5,123.3 C690.4,123.8 692.4,124.2 694.3,124.7 C696.3,125.2 698.2,125.7 700.1,126.4 C702,127 703.7,127.8 705.2,128.8 C708.5,130.9 710.2,133.8 710.2,137.4 C710.2,141.7 708.6,145.1 705.3,147.3 C702.1,149.6 697.6,150.7 691.8,150.7 C685.3,150.7 680.4,149.3 677,146.6 C674,144.2 672.2,140.7 671.8,136.2 L677.3,136.2 C677.5,139.4 679,141.8 681.9,143.5 C684.4,144.9 687.8,145.7 691.9,145.7 C700.6,145.7 704.9,143 704.9,137.5 C704.9,135.6 704.1,134.2 702.6,133.1 C701,132 699.1,131.1 696.7,130.4 C694.3,129.7 691.8,129 689.1,128.4 C686.4,127.8 683.8,127 681.5,126.1 C679.1,125.1 677.2,123.9 675.6,122.3 C674,120.7 673.3,118.6 673.3,116 C673.3,112.2 674.7,109.1 677.6,106.8 C680.5,104.4 684.9,103.2 690.7,103.2 C696.6,103.2 701.1,104.6 704.3,107.3 C707.2,109.7 708.8,112.7 709,116.5 L703.6,116.5 C703.1,112.7 700.7,110.1 696.2,108.9 C694.6,108.4 692.6,108.2 690.3,108.2 C688,108.2 686,108.5 684.4,109 C682.8,109.6 681.5,110.2 680.7,111 Z" id="路径"></path>
                        <path d="M758.9,150.2 L753.1,150.2 L747.4,136.8 L724.4,136.8 L718.7,150.2 L712.9,150.2 L732.6,103.9 L739.2,103.9 L758.9,150.2 Z M745.3,132 L735.8,109.4 L726.3,132 L745.3,132 Z" id="形状"></path>
                        <polygon id="路径" points="804.7 103.9 804.7 150.2 798.6 150.2 770 111.1 770 150.2 764.8 150.2 764.8 103.9 770.9 103.9 799.5 142.9 799.5 103.9"></polygon>
                        <polygon id="路径" points="815.2 144.6 822.1 144.6 815.9 159.5 811.1 159.5"></polygon>
                        <polygon id="路径" points="886.3 103.9 886.3 150.2 880.2 150.2 851.6 111.1 851.6 150.2 846.4 150.2 846.4 103.9 852.5 103.9 881.1 142.9 881.1 103.9"></polygon>
                        <path d="M938.1,150.2 L932.3,150.2 L926.6,136.8 L903.6,136.8 L897.9,150.2 L892.1,150.2 L911.8,103.9 L918.4,103.9 L938.1,150.2 Z M924.6,132 L915.1,109.4 L905.6,132 L924.6,132 Z" id="形状"></path>
                        <path d="M949.3,111 C948.4,111.8 947.8,112.6 947.5,113.6 C947.2,114.5 947,115.5 947,116.6 C947,117.7 947.5,118.6 948.4,119.5 C949.3,120.4 950.5,121.1 952,121.7 C953.5,122.3 955.2,122.8 957.1,123.3 C959,123.8 961,124.2 962.9,124.7 C964.9,125.2 966.8,125.7 968.7,126.4 C970.6,127 972.3,127.8 973.8,128.8 C977.1,130.9 978.8,133.8 978.8,137.4 C978.8,141.7 977.2,145.1 973.9,147.3 C970.7,149.6 966.2,150.7 960.4,150.7 C953.9,150.7 949,149.3 945.6,146.6 C942.6,144.2 940.8,140.7 940.4,136.2 L945.9,136.2 C946.1,139.4 947.6,141.8 950.5,143.5 C953,144.9 956.4,145.7 960.5,145.7 C969.2,145.7 973.5,143 973.5,137.5 C973.5,135.6 972.7,134.2 971.2,133.1 C969.6,132 967.7,131.1 965.3,130.4 C962.9,129.7 960.4,129 957.7,128.4 C955,127.8 952.4,127 950.1,126.1 C947.7,125.1 945.8,123.9 944.2,122.3 C942.6,120.7 941.9,118.6 941.9,116 C941.9,112.2 943.3,109.1 946.2,106.8 C949.1,104.4 953.5,103.2 959.3,103.2 C965.2,103.2 969.7,104.6 972.9,107.3 C975.8,109.7 977.4,112.7 977.6,116.5 L972.2,116.5 C971.7,112.7 969.3,110.1 964.8,108.9 C963.2,108.4 961.2,108.2 958.9,108.2 C956.6,108.2 954.6,108.5 953,109 C951.5,109.6 950.2,110.2 949.3,111 Z" id="路径"></path>
                        <path d="M1016,114.7 C1021.2,114.7 1025.5,116.5 1028.7,119.9 C1031.8,123.3 1033.3,127.5 1033.3,132.7 C1033.3,137.9 1031.8,142.2 1028.7,145.5 C1025.4,149 1021.2,150.7 1016,150.7 C1010.8,150.7 1006.5,148.9 1003.3,145.5 C1000.2,142.1 998.7,137.9 998.7,132.7 C998.7,127.5 1000.2,123.3 1003.3,119.9 C1006.6,116.4 1010.8,114.7 1016,114.7 Z M1016,146 C1019.8,146 1022.8,144.7 1025,142.1 C1027.1,139.6 1028.1,136.5 1028.1,132.7 C1028.1,128.9 1027.1,125.8 1025,123.3 C1022.8,120.7 1019.8,119.4 1016,119.4 C1012.2,119.4 1009.2,120.7 1007,123.3 C1004.9,125.8 1003.8,128.9 1003.8,132.7 C1003.8,136.5 1004.8,139.6 1007,142.1 C1009.3,144.7 1012.2,146 1016,146 Z" id="形状"></path>
                        <path d="M1058.8,114.7 L1058.8,119.9 L1058.2,119.9 C1054.4,119.9 1051.3,121.4 1049,124.4 C1046.8,127.3 1045.6,130.7 1045.6,134.8 L1045.6,150.2 L1040.4,150.2 L1040.4,115.2 L1045.6,115.2 L1045.6,123.8 C1046.7,120.2 1049.1,117.5 1052.9,115.8 C1054.4,115.1 1056.3,114.7 1058.5,114.7 L1058.8,114.7 Z" id="路径"></path>
                        <polygon id="路径" points="1085.7 108.9 1085.7 124.4 1111.5 124.4 1111.5 129.5 1085.7 129.5 1085.7 145.1 1114.5 145.1 1114.5 150.1 1080.4 150.1 1080.4 103.8 1114.5 103.8 1114.5 108.8 1085.7 108.8"></polygon>
                        <path d="M1158.5,116.1 C1158.5,121.2 1156.4,124.7 1152.3,126.5 C1156.1,127.8 1158.7,130.1 1160.1,133.4 C1160.6,134.7 1160.9,136.2 1160.9,137.9 C1160.9,143.5 1157.9,147.2 1152,149.1 C1150,149.8 1147.7,150.1 1145.1,150.1 L1123.1,150.1 L1123.1,103.8 L1143.9,103.8 C1148.9,103.8 1152.7,105.2 1155.3,107.9 C1157.4,110.1 1158.5,112.8 1158.5,116.1 Z M1128.3,124.6 L1143.8,124.6 C1148.1,124.6 1151,123.1 1152.4,120.2 C1152.9,119.2 1153.2,118.1 1153.2,116.9 C1153.2,115.7 1153,114.7 1152.7,113.8 C1152.4,112.9 1151.9,112.1 1151.2,111.4 C1149.7,109.8 1147.4,109 1144.4,109 L1128.3,109 L1128.3,124.6 Z M1145.6,145.3 C1148.8,145.3 1151.3,144.6 1153,143.3 C1154.7,142 1155.6,140.1 1155.6,137.7 C1155.6,135.4 1154.8,133.5 1153.1,132 C1151.2,130.3 1148.6,129.5 1145.1,129.5 L1128.4,129.5 L1128.4,145.4 L1145.6,145.4 L1145.6,145.3 Z" id="形状"></path>
                        <path d="M1174.7,111 C1173.8,111.8 1173.2,112.6 1172.9,113.6 C1172.6,114.5 1172.4,115.5 1172.4,116.6 C1172.4,117.7 1172.9,118.6 1173.8,119.5 C1174.7,120.4 1175.9,121.1 1177.4,121.7 C1178.9,122.3 1180.6,122.8 1182.5,123.3 C1184.4,123.8 1186.4,124.2 1188.3,124.7 C1190.3,125.2 1192.2,125.7 1194.1,126.4 C1196,127 1197.7,127.8 1199.2,128.8 C1202.5,130.9 1204.2,133.8 1204.2,137.4 C1204.2,141.7 1202.6,145.1 1199.3,147.3 C1196.1,149.6 1191.6,150.7 1185.8,150.7 C1179.3,150.7 1174.4,149.3 1171,146.6 C1168,144.2 1166.2,140.7 1165.8,136.2 L1171.3,136.2 C1171.5,139.4 1173,141.8 1175.9,143.5 C1178.4,144.9 1181.8,145.7 1185.9,145.7 C1194.6,145.7 1198.9,143 1198.9,137.5 C1198.9,135.6 1198.1,134.2 1196.6,133.1 C1195,132 1193.1,131.1 1190.7,130.4 C1188.3,129.7 1185.8,129 1183.1,128.4 C1180.4,127.8 1177.8,127 1175.5,126.1 C1173.1,125.1 1171.2,123.9 1169.6,122.3 C1168,120.7 1167.3,118.6 1167.3,116 C1167.3,112.2 1168.7,109.1 1171.6,106.8 C1174.5,104.4 1178.9,103.2 1184.7,103.2 C1190.6,103.2 1195.1,104.6 1198.3,107.3 C1201.2,109.7 1202.8,112.7 1203,116.5 L1197.6,116.5 C1197.1,112.7 1194.7,110.1 1190.2,108.9 C1188.6,108.4 1186.6,108.2 1184.3,108.2 C1182,108.2 1180,108.5 1178.4,109 C1176.8,109.6 1175.6,110.2 1174.7,111 Z" id="路径"></path>
                    </g>
                </g>
            </g>
        </g>
    </g>
</svg>