<?xml version="1.0" encoding="UTF-8"?>
<svg width="2268px" height="565px" viewBox="0 0 2268 565" version="1.1" xmlns="http://www.w3.org/2000/svg" xmlns:xlink="http://www.w3.org/1999/xlink">
    <!-- Generator: Sketch 57 (83077) - https://sketch.com -->
    <title>01</title>
    <desc>Created with Sketch.</desc>
    <g id="页面-1" stroke="none" stroke-width="1" fill="none" fill-rule="evenodd">
        <g id="Piraeus易拉宝" transform="translate(-179.000000, -1284.000000)" fill-rule="nonzero">
            <g id="图层_2" transform="translate(179.000000, 0.000000)">
                <rect id="矩形" fill="#1C3E7C" x="0.2" y="1283.2" width="2267.9" height="561"></rect>
                <g id="编组" transform="translate(0.000000, 277.000000)">
                    <g id="high-available_1_" transform="translate(228.000000, 1123.000000)" fill="#FFFFFF">
                        <g id="database-_x28_1_x29__1_">
                            <g id="编组" transform="translate(0.523077, 0.592233)">
                                <g id="Group-2_5_" transform="translate(140.394872, 123.951456)">
                                    <path d="M43.7,59.2 C64.1,59.2 80.3,52.2 80.3,45.3 L87.2,45.3 L87.1,70.8 L87.1,71 C85.6,82.4 66.5,90.1 43.7,90.1 C20.9,90.1 1.8,82.3 0.2,71 L0.2,70.8 L0.2,45.2 L7.1,45.2 C7,52.2 23.2,59.2 43.7,59.2 Z M80.3,45.3 L87.2,45.3 C87.2,49.7 84.7,53.5 80.3,56.7 L80.3,45.3 Z M43.7,65.9 C28.4,65.9 14.8,62.4 7.1,56.7 L7.1,70.4 C8.4,77.1 24.2,83.5 43.7,83.5 C63.2,83.5 79.1,77.1 80.3,70.4 L80.3,56.8 C72.5,62.5 58.9,65.9 43.7,65.9 Z" id="Shape_11_"></path>
                                    <path d="M0.2,49.4 L0.2,20.7 L7.1,20.7 C7.1,27.6 23.3,34.6 43.7,34.6 C64.1,34.6 80.3,27.6 80.3,20.7 L87.2,20.7 L87.2,49.4 L86.3,49.4 C82.2,59.2 64.5,65.6 43.7,65.6 C22.9,65.6 5.2,59.1 1.1,49.4 L0.2,49.4 Z M43.7,41.3 C28.4,41.3 14.8,37.8 7.1,32.1 L7.1,45.2 L7.1,45.5 C8,52.3 24,58.8 43.7,58.8 C63.4,58.8 79.4,52.3 80.3,45.5 L80.3,45.2 L80.3,32.1 C72.6,37.8 59,41.3 43.7,41.3 Z" id="Shape_10_"></path>
                                    <path d="M43,42 C19.3,42 0.1,33.5 0.1,21.2 C0.1,8.9 19.2,0.4 43,0.4 C67,0.4 87.2,9 87.2,21.2 C87.2,33.4 67,42 43,42 Z M43,35.3 C63.6,35.3 80.3,28.2 80.3,21.3 C80.3,14.4 63.6,7.3 43,7.3 C22.6,7.3 7,14.2 7,21.3 C7,28.3 22.6,35.3 43,35.3 Z" id="Oval_5_"></path>
                                </g>
                                <g id="Group-2_4_" transform="translate(0.000000, 122.815534)">
                                    <path d="M44.3,60.3 C64.7,60.3 80.9,53.3 80.9,46.4 L87.8,46.4 L87.7,71.9 L87.7,72.1 C86.2,83.5 67.1,91.2 44.3,91.2 C21.5,91.2 2.4,83.4 0.8,72.1 L0.8,71.9 L0.8,46.3 L7.7,46.3 C7.7,53.4 23.9,60.3 44.3,60.3 Z M81,46.5 L87.9,46.5 C87.9,50.9 85.4,54.7 81,57.9 L81,46.5 Z M44.3,67.1 C29,67.1 15.4,63.6 7.7,57.9 L7.7,71.6 C9,78.3 24.8,84.7 44.3,84.7 C63.8,84.7 79.7,78.3 80.9,71.6 L80.9,58 C73.2,63.6 59.6,67.1 44.3,67.1 Z" id="Shape_9_"></path>
                                    <path d="M1.7,50.5 L0.8,50.5 L0.8,21.8 L7.7,21.8 C7.7,28.7 23.9,35.7 44.3,35.7 C64.7,35.7 80.9,28.7 80.9,21.8 L87.8,21.8 L87.8,50.5 L87,50.5 C82.9,60.3 65.2,66.7 44.4,66.7 C23.6,66.7 5.9,60.2 1.7,50.5 Z M44.3,42.4 C29,42.4 15.4,38.9 7.7,33.2 L7.7,46.3 L7.7,46.6 C8.6,53.4 24.6,59.9 44.3,59.9 C64,59.9 80,53.4 80.9,46.6 L80.9,46.3 L80.9,33.2 C73.2,38.9 59.6,42.4 44.3,42.4 Z" id="Shape_8_"></path>
                                    <path d="M43.7,42 C20,42 0.8,33.5 0.8,21.2 C0.8,8.9 19.9,0.4 43.7,0.4 C67.7,0.4 87.9,9 87.9,21.2 C87.9,33.4 67.7,42 43.7,42 Z M43.7,35.3 C64.3,35.3 81,28.2 81,21.3 C81,14.4 64.3,7.3 43.7,7.3 C23.3,7.3 7.7,14.2 7.7,21.3 C7.7,28.3 23.3,35.3 43.7,35.3 Z" id="Oval_4_"></path>
                                </g>
                                <g id="Group-2_3_" transform="translate(69.538462, 0.000000)">
                                    <path d="M43.5,59.7 C63.9,59.7 80.1,52.7 80.1,45.8 L87,45.8 L86.9,71.3 L86.9,71.5 C85.4,82.9 66.3,90.6 43.5,90.6 C20.7,90.6 1.6,82.8 -2.84217094e-14,71.5 L-2.84217094e-14,71.3 L-2.84217094e-14,45.7 L6.9,45.7 C6.9,52.7 23.1,59.7 43.5,59.7 Z M80.2,45.8 L87.1,45.8 C87.1,50.2 84.6,54 80.2,57.2 L80.2,45.8 Z M43.5,66.4 C28.2,66.4 14.6,62.9 6.9,57.2 L6.9,70.9 C8.2,77.6 24,84 43.5,84 C63,84 78.9,77.6 80.1,70.9 L80.1,57.3 C72.4,62.9 58.8,66.4 43.5,66.4 Z" id="Shape_7_"></path>
                                    <path d="M0,49.8 L0,21.1 L6.9,21.1 C6.9,28 23.1,35 43.5,35 C63.9,35 80.1,28 80.1,21.1 L87,21.1 L87,49.8 L86.1,49.8 C82,59.6 64.3,66 43.5,66 C22.7,66 5,59.5 0.9,49.8 L0,49.8 Z M43.5,41.7 C28.2,41.7 14.6,38.2 6.9,32.5 L6.9,45.6 L6.9,45.9 C7.8,52.7 23.8,59.2 43.5,59.2 C63.2,59.2 79.2,52.7 80.1,45.9 L80.1,45.6 L80.1,32.5 C72.4,38.2 58.8,41.7 43.5,41.7 Z" id="Shape_6_"></path>
                                    <path d="M42.9,42.5 C19.2,42.5 0,34 0,21.7 C0,9.4 19.1,0.9 42.9,0.9 C66.9,0.9 87.1,9.5 87.1,21.7 C87.1,33.9 66.9,42.5 42.9,42.5 Z M42.9,35.7 C63.5,35.7 80.2,28.6 80.2,21.7 C80.2,14.8 63.5,7.7 42.9,7.7 C22.5,7.7 6.9,14.6 6.9,21.7 C6.9,28.8 22.5,35.7 42.9,35.7 Z" id="Oval_3_"></path>
                                </g>
                                <path d="M201.9,106.1 C203.4,105 205.5,105.4 206.6,107 C207.7,108.6 207.3,110.7 205.7,111.8 L194.9,119.3 C193.7,120.1 192.1,120.1 191,119.2 L181.2,111.7 C179.7,110.6 179.4,108.4 180.5,106.9 C181.6,105.4 183.7,105.1 185.2,106.2 L193,112.2 L201.9,106.1 Z" id="Path-5_3_"></path>
                                <path d="M41.5,106.1 C43,105 45.1,105.4 46.2,107 C47.3,108.6 46.9,110.7 45.3,111.8 L34.5,119.3 C33.3,120.1 31.7,120.1 30.6,119.2 L20.8,111.7 C19.3,110.6 19,108.4 20.1,106.9 C21.2,105.4 23.3,105.1 24.8,106.2 L32.6,112.2 L41.5,106.1 Z" id="Path-5_2_"></path>
                                <path d="M170.2,55.3 C168.3,55.3 166.8,53.8 166.8,51.9 C166.8,50 168.3,48.5 170.2,48.5 L193.1,48.5 C195,48.5 196.5,50 196.5,51.9 L196.5,116.5 C196.5,118.4 195,119.9 193.1,119.9 C191.2,119.9 189.7,118.4 189.7,116.5 L189.7,55.2 L170.2,55.2 L170.2,55.3 Z" id="Path-3_3_"></path>
                                <path d="M36.2,55.3 L36.2,116.6 C36.2,118.5 34.7,120 32.8,120 C30.9,120 29.4,118.5 29.4,116.6 L29.4,52 C29.4,50.1 30.9,48.6 32.8,48.6 L55.7,48.6 C57.6,48.6 59.1,50.1 59.1,52 C59.1,53.9 57.6,55.4 55.7,55.4 L36.2,55.4 L36.2,55.3 Z" id="Path-3_2_"></path>
                            </g>
                        </g>
                    </g>
                    <g transform="translate(675.000000, 1108.000000)" fill="#F6D370" stroke="#F6D370" stroke-width="2">
                        <polygon id="路径" points="43 3.4 43 56.4 37 56.4 37 32.8 6.2 32.8 6.2 56.4 0.2 56.4 0.2 3.4 6.2 3.4 6.2 26.9 37 26.9 37 3.4"></polygon>
                        <path d="M61.2,1.8 L61.2,9.6 L54.7,9.6 L54.7,1.8 L61.2,1.8 Z M54.9,16.3 L60.9,16.3 L60.9,56.3 L54.9,56.3 L54.9,16.3 Z" id="形状"></path>
                        <path d="M103.2,22.7 L103.2,16.3 L109.2,16.3 L109.2,55.1 C109.2,60.9 107.6,65.2 104.3,68.3 C101,71.3 96.6,72.8 91.1,72.8 C85.6,72.8 81.2,71.7 78.1,69.6 C75,67.5 72.9,64.6 71.7,61.1 L78.3,61.1 C80,65.3 83.9,67.3 90,67.3 C94.6,67.3 98,66.2 100.1,64.1 C102.2,62 103.2,58.8 103.2,54.7 L103.2,49.2 C99.9,53.9 95.2,56.3 88.9,56.3 C83.1,56.3 78.4,54.3 74.8,50.4 C71.3,46.6 69.5,41.8 69.5,36 C69.5,30.2 71.3,25.4 74.8,21.6 C78.4,17.7 83.3,15.7 89.3,15.7 C95.3,15.7 100,18 103.2,22.7 Z M89.7,50.9 C91.9,50.9 93.8,50.5 95.5,49.7 C97.2,48.9 98.7,47.9 99.9,46.5 C102.3,43.7 103.5,40.2 103.5,35.9 C103.5,31.6 102.3,28.1 99.9,25.3 C97.3,22.4 93.9,21 89.7,21 C85.4,21 81.9,22.4 79.3,25.3 C76.8,28.1 75.5,31.6 75.5,35.9 C75.5,40.2 76.8,43.6 79.3,46.5 C81.9,49.5 85.3,50.9 89.7,50.9 Z" id="形状"></path>
                        <path d="M126.2,0.3 L126.2,22.5 C127.6,20.6 129.4,19 131.5,17.6 C133.6,16.3 136,15.6 138.6,15.6 C141.2,15.6 143.6,16 145.5,16.7 C147.4,17.4 149.1,18.6 150.5,20.1 C153.8,23.4 155.5,27.6 155.5,33 L155.5,56.3 L149.5,56.3 L149.5,33.2 C149.5,29.5 148.5,26.6 146.4,24.4 C144.3,22.2 141.6,21.1 138.3,21.1 C134.9,21.1 132.1,22.2 129.7,24.5 C127.4,26.8 126.2,29.7 126.2,33.3 L126.2,56.3 L120.2,56.3 L120.2,0.3 L126.2,0.3 L126.2,0.3 Z" id="路径"></path>
                        <path d="M231.3,56.3 L224.7,56.3 L218.2,40.9 L192,40.9 L185.5,56.3 L178.9,56.3 L201.4,3.3 L208.9,3.3 L231.3,56.3 Z M215.9,35.5 L205.1,9.7 L194.3,35.5 L215.9,35.5 Z" id="形状"></path>
                        <polygon id="路径" points="268.4 16.3 252.8 56.3 245.8 56.3 230.1 16.3 236.7 16.3 249.3 49.9 261.9 16.3"></polygon>
                        <path d="M305.3,49.9 C302.1,54.6 297.3,56.9 291,56.9 C285.2,56.9 280.5,54.9 276.9,50.9 C273.4,47 271.6,42.1 271.6,36.3 C271.6,30.5 273.4,25.6 276.9,21.7 C280.5,17.7 285.4,15.7 291.4,15.7 C297.4,15.7 302.1,18.1 305.3,22.8 L305.3,16.3 L311.3,16.3 L311.3,56.3 L305.3,56.3 L305.3,49.9 Z M291.8,51.5 C296.1,51.5 299.5,50 302,47 C304.4,44.2 305.6,40.6 305.6,36.3 C305.6,32 304.4,28.4 302,25.6 C299.5,22.6 296.1,21.1 291.8,21.1 C287.5,21.1 284.1,22.6 281.4,25.6 C278.9,28.4 277.6,32 277.6,36.3 C277.6,40.6 278.9,44.2 281.4,47 C284.1,50 287.5,51.5 291.8,51.5 Z" id="形状"></path>
                        <path d="M328.6,1.8 L328.6,9.6 L322.1,9.6 L322.1,1.8 L328.6,1.8 Z M322.4,16.3 L328.4,16.3 L328.4,56.3 L322.4,56.3 L322.4,16.3 Z" id="形状"></path>
                        <polygon id="路径" points="345.4 56.3 339.4 56.3 339.4 0.3 345.4 0.3"></polygon>
                        <path d="M387.6,49.9 C384.4,54.6 379.6,56.9 373.3,56.9 C367.5,56.9 362.8,54.9 359.2,50.9 C355.7,47 353.9,42.1 353.9,36.3 C353.9,30.5 355.7,25.6 359.2,21.7 C362.8,17.7 367.7,15.7 373.7,15.7 C379.7,15.7 384.4,18.1 387.6,22.8 L387.6,16.3 L393.6,16.3 L393.6,56.3 L387.6,56.3 L387.6,49.9 L387.6,49.9 Z M374.1,51.5 C378.4,51.5 381.8,50 384.3,47 C386.7,44.2 387.9,40.6 387.9,36.3 C387.9,32 386.7,28.4 384.3,25.6 C381.8,22.6 378.4,21.1 374.1,21.1 C369.8,21.1 366.4,22.6 363.7,25.6 C361.2,28.4 359.9,32 359.9,36.3 C359.9,40.6 361.2,44.2 363.7,47 C366.4,50 369.9,51.5 374.1,51.5 Z" id="形状"></path>
                        <path d="M410.7,22.8 C414,18.1 418.7,15.7 425,15.7 C430.8,15.7 435.4,17.7 439,21.7 C442.6,25.6 444.4,30.5 444.4,36.3 C444.4,42.1 442.6,47 439,50.9 C435.4,54.9 430.6,56.9 424.6,56.9 C418.5,56.9 413.9,54.6 410.7,49.9 L410.7,56.3 L404.7,56.3 L404.7,0.3 L410.7,0.3 L410.7,22.8 L410.7,22.8 Z M424.2,51.5 C428.5,51.5 431.9,50 434.6,47 C437.1,44.2 438.4,40.6 438.4,36.3 C438.4,32 437.1,28.4 434.6,25.6 C431.9,22.6 428.5,21.1 424.2,21.1 C419.9,21.1 416.5,22.6 414,25.6 C411.6,28.4 410.4,32 410.4,36.3 C410.4,40.6 411.6,44.2 414,47 C416.5,50 419.9,51.5 424.2,51.5 Z" id="形状"></path>
                        <path d="M459.1,1.8 L459.1,9.6 L452.6,9.6 L452.6,1.8 L459.1,1.8 Z M452.8,16.3 L458.8,16.3 L458.8,56.3 L452.8,56.3 L452.8,16.3 Z" id="形状"></path>
                        <polygon id="路径" points="475.9 56.3 469.9 56.3 469.9 0.3 475.9 0.3"></polygon>
                        <path d="M493.2,1.8 L493.2,9.6 L486.7,9.6 L486.7,1.8 L493.2,1.8 Z M486.9,16.3 L492.9,16.3 L492.9,56.3 L486.9,56.3 L486.9,16.3 Z" id="形状"></path>
                        <polygon id="路径" points="508.3 56.3 508.3 21.6 500.1 21.6 500.1 16.3 508.3 16.3 508.3 2 514.3 2 514.3 16.3 523.5 16.3 523.5 21.6 514.3 21.6 514.3 56.3"></polygon>
                        <polygon id="路径" points="541.3 72.2 534.8 72.2 542.1 55.8 525.8 16.4 532.4 16.4 545.3 49.2 558.4 16.4 565 16.4"></polygon>
                    </g>
                    <g transform="translate(670.000000, 1235.000000)" fill="#FFFFFF">
                        <path d="M9.7,11 C8.8,11.8 8.2,12.6 7.9,13.6 C7.6,14.5 7.4,15.5 7.4,16.6 C7.4,17.7 7.9,18.6 8.8,19.5 C9.7,20.4 10.9,21.1 12.4,21.7 C13.9,22.3 15.6,22.8 17.5,23.3 C19.4,23.8 21.4,24.2 23.3,24.7 C25.3,25.2 27.2,25.8 29.1,26.4 C31,27 32.7,27.8 34.2,28.8 C37.5,30.9 39.2,33.8 39.2,37.4 C39.2,41.7 37.6,45.1 34.3,47.3 C31.1,49.6 26.6,50.7 20.8,50.7 C14.3,50.7 9.4,49.3 6,46.6 C3,44.2 1.2,40.7 0.8,36.2 L6.3,36.2 C6.5,39.4 8,41.8 10.9,43.5 C13.4,44.9 16.8,45.7 20.9,45.7 C29.6,45.7 33.9,43 33.9,37.5 C33.9,35.6 33.1,34.2 31.6,33.1 C30,32 28.1,31.1 25.7,30.4 C23.3,29.7 20.8,29 18.1,28.4 C15.4,27.8 12.8,27 10.5,26.1 C8.1,25.1 6.2,23.9 4.6,22.3 C3,20.7 2.3,18.6 2.3,16 C2.3,12.2 3.7,9.1 6.6,6.8 C9.5,4.4 13.9,3.2 19.7,3.2 C25.6,3.2 30.1,4.6 33.3,7.3 C36.2,9.7 37.8,12.7 38,16.5 L32.6,16.5 C32.1,12.7 29.7,10.1 25.2,8.9 C23.6,8.4 21.6,8.2 19.3,8.2 C17,8.2 15,8.5 13.4,9 C11.9,9.5 10.6,10.2 9.7,11 Z" id="路径"></path>
                        <path d="M71.6,50.2 L71.6,44.7 C70.3,46.4 68.8,47.8 67,49 C65.2,50.2 63.1,50.8 60.8,50.8 C58.5,50.8 56.5,50.5 54.8,49.8 C53.1,49.1 51.6,48.2 50.4,46.9 C47.5,44.1 46.1,40.3 46.1,35.6 L46.1,15.2 L51.3,15.2 L51.3,35.4 C51.3,38.6 52.2,41.2 54,43.1 C55.8,45 58.2,46 61.1,46 C64,46 66.5,45 68.6,43.1 C70.7,41.1 71.7,38.5 71.7,35.4 L71.7,15.2 L76.9,15.2 L76.9,50.2 L71.6,50.2 L71.6,50.2 Z" id="路径"></path>
                        <path d="M91.2,20.8 C94,16.7 98.2,14.6 103.7,14.6 C108.7,14.6 112.8,16.4 115.9,19.8 C119,23.3 120.6,27.5 120.6,32.6 C120.6,37.7 119,42 115.9,45.4 C112.8,48.9 108.6,50.6 103.3,50.6 C98,50.6 94,48.5 91.1,44.4 L91.1,63.9 L86,63.9 L86,15 L91.2,15 L91.2,20.8 Z M103,19.4 C99.2,19.4 96.2,20.7 94,23.3 C91.9,25.8 90.8,28.9 90.8,32.7 C90.8,36.5 91.9,39.6 94,42.1 C96.2,44.7 99.2,46 103,46 C106.7,46 109.8,44.7 112.1,42.1 C114.3,39.6 115.4,36.5 115.4,32.7 C115.4,28.9 114.3,25.8 112.1,23.3 C109.8,20.7 106.8,19.4 103,19.4 Z" id="形状"></path>
                        <path d="M132.8,20.8 C135.6,16.7 139.8,14.6 145.3,14.6 C150.3,14.6 154.4,16.4 157.5,19.8 C160.6,23.3 162.2,27.5 162.2,32.6 C162.2,37.7 160.6,42 157.5,45.4 C154.4,48.9 150.2,50.6 144.9,50.6 C139.6,50.6 135.6,48.5 132.7,44.4 L132.7,63.9 L127.5,63.9 L127.5,15 L132.7,15 L132.7,20.8 L132.8,20.8 Z M144.6,19.4 C140.8,19.4 137.8,20.7 135.6,23.3 C133.5,25.8 132.4,28.9 132.4,32.7 C132.4,36.5 133.5,39.6 135.6,42.1 C137.8,44.7 140.8,46 144.6,46 C148.3,46 151.4,44.7 153.7,42.1 C155.9,39.6 157,36.5 157,32.7 C157,28.9 155.9,25.8 153.7,23.3 C151.4,20.7 148.3,19.4 144.6,19.4 Z" id="形状"></path>
                        <path d="M184.3,14.6 C189.5,14.6 193.8,16.4 197,19.8 C200.1,23.2 201.6,27.4 201.6,32.6 C201.6,37.8 200.1,42.1 197,45.4 C193.7,48.9 189.5,50.6 184.3,50.6 C179.1,50.6 174.8,48.8 171.6,45.4 C168.5,42 167,37.8 167,32.6 C167,27.4 168.5,23.1 171.6,19.8 C174.8,16.4 179.1,14.6 184.3,14.6 Z M184.3,46 C188.1,46 191.1,44.7 193.3,42.1 C195.4,39.6 196.4,36.5 196.4,32.7 C196.4,28.9 195.4,25.8 193.3,23.3 C191.1,20.7 188.1,19.4 184.3,19.4 C180.5,19.4 177.5,20.7 175.3,23.3 C173.2,25.8 172.1,28.9 172.1,32.7 C172.1,36.5 173.1,39.6 175.3,42.1 C177.5,44.7 180.5,46 184.3,46 Z" id="形状"></path>
                        <path d="M227.1,14.6 L227.1,19.8 L226.5,19.8 C222.7,19.8 219.6,21.3 217.3,24.4 C215.1,27.3 213.9,30.7 213.9,34.8 L213.9,50.2 L208.7,50.2 L208.7,15.2 L213.9,15.2 L213.9,23.8 C215,20.2 217.4,17.5 221.2,15.8 C222.7,15.1 224.6,14.7 226.8,14.7 L227.1,14.7 L227.1,14.6 Z" id="路径"></path>
                        <polygon id="路径" points="236.5 50.2 236.5 19.8 229.4 19.8 229.4 15.2 236.5 15.2 236.5 2.7 241.7 2.7 241.7 15.2 249.7 15.2 249.7 19.8 241.7 19.8 241.7 50.2"></polygon>
                        <path d="M276.1,24.6 C275.6,21 272.7,19.1 267.3,19.1 C261.9,19.1 259.2,20.8 259.2,24.1 C259.2,25.5 259.8,26.6 260.9,27.3 C262,28 263.5,28.6 265.2,29.1 C266.9,29.6 268.8,30 270.8,30.4 C272.8,30.8 274.7,31.4 276.4,32.1 C278.1,32.8 279.6,33.8 280.7,35.1 C281.8,36.4 282.4,38.1 282.4,40.3 C282.4,43.7 281.1,46.3 278.5,48.1 C275.9,49.9 272.5,50.8 268.1,50.8 C263.4,50.8 259.7,49.6 257,47.3 C254.5,45.2 253.1,42.6 252.9,39.2 L258.4,39.2 C258.7,42.4 260.5,44.6 263.9,45.7 C265.1,46.1 266.3,46.3 267.5,46.3 C268.7,46.3 269.8,46.2 270.8,46.1 C271.8,46 272.8,45.7 273.8,45.3 C276,44.4 277.2,42.9 277.2,40.7 C277.2,39.3 276.6,38.1 275.5,37.4 C274.4,36.6 272.9,36 271.2,35.5 C269.5,35 267.6,34.6 265.6,34.2 C263.6,33.8 261.7,33.3 260,32.6 C258.3,31.9 256.8,30.9 255.7,29.7 C254.6,28.5 254,26.8 254,24.7 C254,21.5 255.2,19.1 257.5,17.3 C259.8,15.5 263.2,14.7 267.8,14.7 C272.1,14.7 275.5,15.7 277.9,17.8 C280,19.5 281.1,21.8 281.5,24.7 L276.1,24.7 L276.1,24.6 Z" id="路径"></path>
                        <polygon id="路径" points="324.2 3.9 324.2 50.2 319 50.2 319 8.9 309.2 8.9 309.2 3.9"></polygon>
                        <polygon id="路径" points="361.6 2.6 345.6 52.4 340.7 52.4 356.7 2.6"></polygon>
                        <path d="M399.1,17.2 C399.1,19.2 398.5,21.1 397.3,23 C396.1,24.9 394.6,26.6 392.8,28.2 C391,29.8 389,31.4 386.9,32.8 C384.8,34.2 382.8,35.7 380.9,37 C379,38.4 377.5,39.7 376.2,41.1 C374.9,42.4 374.2,43.8 374.1,45.1 L399,45.1 L399,50.1 L367.8,50.1 L367.8,47.2 C367.8,44.9 368.4,42.8 369.7,40.9 C371,39 372.6,37.2 374.5,35.6 C376.4,33.9 378.5,32.4 380.8,30.9 C383.1,29.4 385.1,27.9 387.1,26.5 C389,25 390.6,23.5 391.9,21.9 C393.2,20.4 393.8,18.7 393.8,16.9 C393.8,14.2 392.9,12.1 391.1,10.5 C389.3,9 386.8,8.2 383.6,8.2 C380.4,8.2 377.8,8.9 375.9,10.3 C374,11.7 372.8,13.7 372.4,16.3 L367.2,16.3 C367.6,12.4 369.3,9.2 372.3,6.8 C375.3,4.4 379,3.2 383.3,3.2 C388.2,3.2 392.1,4.5 395,7.1 C397.7,9.7 399.1,13.1 399.1,17.2 Z" id="路径"></path>
                        <polygon id="路径" points="426.1 2.6 410.1 52.4 405.2 52.4 421.2 2.6"></polygon>
                        <path d="M455.2,25.5 C457.9,26.5 460,28.1 461.5,30.1 C463,32.1 463.7,34.3 463.7,36.6 C463.7,38.9 463.3,40.9 462.5,42.6 C461.7,44.3 460.6,45.8 459.1,47 C456.1,49.6 452.4,50.9 448,50.9 C443.6,50.9 439.9,49.7 436.7,47.2 C433.6,44.7 431.8,41.6 431.5,38.1 L436.8,38.1 C437.2,40.2 438.4,42.1 440.5,43.6 C442.6,45.1 445.1,45.8 448,45.8 C451.2,45.8 453.8,45 455.8,43.3 C457.6,41.7 458.5,39.7 458.5,37.2 C458.5,34.8 457.6,32.7 455.7,31 C453.7,29.2 451.3,28.3 448.5,28.3 L443.2,28.3 L443.2,23.5 L447.9,23.5 C450.3,23.5 452.4,22.8 454.3,21.4 C456.1,20 457,18.2 457,15.9 C457,13.7 456.2,11.9 454.7,10.5 C453.2,9.1 450.9,8.5 447.9,8.5 C444.9,8.5 442.6,9.2 440.9,10.5 C439.2,11.8 438.2,13.3 437.9,15.1 L432.8,15.1 C433.1,12 434.6,9.4 437.1,7.1 C439.9,4.6 443.4,3.4 447.7,3.4 C452.2,3.4 455.7,4.6 458.4,6.9 C461,9.1 462.3,12.1 462.3,15.7 C462.3,17.8 461.5,19.9 459.9,22 C458.4,23.8 456.9,25 455.2,25.5 Z" id="路径"></path>
                        <path d="M505,14.6 L505,19.8 L504.4,19.8 C500.6,19.8 497.5,21.3 495.2,24.4 C493,27.3 491.8,30.7 491.8,34.8 L491.8,50.2 L486.6,50.2 L486.6,15.2 L491.8,15.2 L491.8,23.8 C492.9,20.2 495.3,17.5 499.1,15.8 C500.6,15.1 502.5,14.7 504.7,14.7 L505,14.7 L505,14.6 Z" id="路径"></path>
                        <path d="M525.4,46 C530.1,46 533.5,44 535.5,40.1 L541.2,40.1 C540,43.3 538.1,45.8 535.4,47.8 C532.8,49.8 529.4,50.7 525.2,50.7 C519.9,50.7 515.6,48.9 512.3,45.5 C509.1,42.1 507.5,37.8 507.5,32.7 C507.5,27.5 509,23.2 512.1,19.9 C515.4,16.4 519.6,14.7 524.8,14.7 C530,14.7 534.3,16.5 537.5,19.9 C540.6,23.3 542.1,27.5 542.1,32.7 L542.1,34.8 L513,34.8 C513.4,38 514.7,40.7 516.9,42.8 C519.1,44.9 522,46 525.4,46 Z M525,19.4 C521.8,19.4 519.1,20.4 516.9,22.4 C514.8,24.3 513.6,26.8 513.1,29.9 L536.9,29.9 C536.4,26.8 535.2,24.3 533.1,22.4 C530.9,20.4 528.2,19.4 525,19.4 Z" id="形状"></path>
                        <path d="M554,20.8 C556.8,16.7 561,14.6 566.5,14.6 C571.5,14.6 575.6,16.4 578.7,19.8 C581.8,23.3 583.4,27.5 583.4,32.6 C583.4,37.7 581.8,42 578.7,45.4 C575.6,48.9 571.4,50.6 566.1,50.6 C560.8,50.6 556.8,48.5 553.9,44.4 L553.9,63.9 L548.7,63.9 L548.7,15 L553.9,15 L553.9,20.8 L554,20.8 Z M565.9,19.4 C562.1,19.4 559.1,20.7 556.9,23.3 C554.8,25.8 553.7,28.9 553.7,32.7 C553.7,36.5 554.8,39.6 556.9,42.1 C559.1,44.7 562.1,46 565.9,46 C569.6,46 572.7,44.7 575,42.1 C577.2,39.6 578.3,36.5 578.3,32.7 C578.3,28.9 577.2,25.8 575,23.3 C572.6,20.7 569.6,19.4 565.9,19.4 Z" id="形状"></path>
                        <polygon id="路径" points="595.6 50.2 590.4 50.2 590.4 1.2 595.6 1.2"></polygon>
                        <path d="M610.2,2.5 L610.2,9.4 L604.5,9.4 L604.5,2.5 L610.2,2.5 Z M604.7,15.2 L609.9,15.2 L609.9,50.2 L604.7,50.2 L604.7,15.2 Z" id="形状"></path>
                        <path d="M635.2,46 C637.4,46 639.4,45.4 641.2,44.1 C642.9,42.8 644.2,41.2 645,39.2 L650.7,39.2 C649.6,42.7 647.7,45.4 644.8,47.5 C641.8,49.6 638.3,50.7 634.2,50.7 C629.1,50.7 624.9,48.9 621.7,45.5 C618.6,42.1 617,37.8 617,32.7 C617,27.6 618.6,23.3 621.7,19.9 C624.9,16.4 629.1,14.7 634.2,14.7 C638.3,14.7 641.9,15.8 644.8,17.9 C647.6,20 649.6,22.8 650.7,26.2 L645,26.2 C644.2,24.2 642.9,22.6 641.2,21.3 C639.5,20 637.5,19.4 635.2,19.4 C633,19.4 631.1,19.7 629.5,20.4 C627.9,21.1 626.6,22.1 625.5,23.3 C623.2,25.8 622.1,28.9 622.1,32.7 C622.1,36.4 623.2,39.6 625.5,42.1 C627.9,44.7 631.1,46 635.2,46 Z" id="路径"></path>
                        <path d="M684.4,44.6 C681.6,48.7 677.4,50.8 671.9,50.8 C666.9,50.8 662.8,49 659.6,45.6 C656.5,42.1 655,37.9 655,32.8 C655,27.7 656.5,23.4 659.6,20 C662.8,16.5 667,14.8 672.3,14.8 C677.6,14.8 681.6,16.9 684.5,21 L684.5,15.3 L689.7,15.3 L689.7,50.3 L684.5,50.3 L684.5,44.6 L684.4,44.6 Z M672.6,46 C676.4,46 679.4,44.7 681.6,42.1 C683.7,39.6 684.7,36.5 684.7,32.7 C684.7,28.9 683.7,25.8 681.6,23.3 C679.4,20.7 676.4,19.4 672.6,19.4 C668.9,19.4 665.8,20.7 663.5,23.3 C661.3,25.8 660.2,28.9 660.2,32.7 C660.2,36.5 661.3,39.6 663.5,42.1 C665.8,44.7 668.9,46 672.6,46 Z" id="形状"></path>
                        <path d="M719.4,24.6 C718.9,21 716,19.1 710.6,19.1 C705.2,19.1 702.5,20.8 702.5,24.1 C702.5,25.5 703.1,26.6 704.2,27.3 C705.3,28 706.8,28.6 708.5,29.1 C710.2,29.6 712.1,30 714.1,30.4 C716.1,30.8 718,31.4 719.7,32.1 C721.4,32.8 722.9,33.8 724,35.1 C725.1,36.4 725.7,38.1 725.7,40.3 C725.7,43.7 724.4,46.3 721.8,48.1 C719.2,49.9 715.8,50.8 711.4,50.8 C706.7,50.8 703,49.6 700.3,47.3 C697.8,45.2 696.4,42.6 696.2,39.2 L701.7,39.2 C702,42.4 703.8,44.6 707.2,45.7 C708.4,46.1 709.6,46.3 710.8,46.3 C712,46.3 713.1,46.2 714.1,46.1 C715.1,46 716.1,45.7 717.1,45.3 C719.3,44.4 720.5,42.9 720.5,40.7 C720.5,39.3 719.9,38.1 718.8,37.4 C717.7,36.6 716.2,36 714.5,35.5 C712.8,35 710.9,34.6 708.9,34.2 C706.9,33.8 705,33.3 703.3,32.6 C701.6,31.9 700.1,30.9 699,29.7 C697.9,28.5 697.3,26.8 697.3,24.7 C697.3,21.5 698.5,19.1 700.8,17.3 C703.1,15.5 706.5,14.7 711.1,14.7 C715.4,14.7 718.8,15.7 721.2,17.8 C723.3,19.5 724.4,21.8 724.8,24.7 L719.4,24.7 L719.4,24.6 Z" id="路径"></path>
                        <path d="M762.5,5.6 C760,5.6 758.2,6.1 756.9,7.2 C755.7,8.3 755,10.1 755,12.5 L755,15.2 L763.1,15.2 L763.1,19.8 L755,19.8 L755,50.2 L749.8,50.2 L749.8,19.8 L743.8,19.8 L743.8,15.2 L749.8,15.2 L749.8,12.1 C749.8,8.3 750.9,5.4 753.2,3.5 C755.5,1.6 758.7,0.6 762.7,0.6 L763.1,0.6 L763.1,5.6 L762.5,5.6 Z" id="路径"></path>
                        <path d="M783.4,14.6 C788.6,14.6 792.9,16.4 796.1,19.8 C799.2,23.2 800.7,27.4 800.7,32.6 C800.7,37.8 799.2,42.1 796.1,45.4 C792.8,48.9 788.6,50.6 783.4,50.6 C778.2,50.6 773.9,48.8 770.7,45.4 C767.6,42 766.1,37.8 766.1,32.6 C766.1,27.4 767.6,23.1 770.7,19.8 C773.9,16.4 778.2,14.6 783.4,14.6 Z M783.4,46 C787.2,46 790.2,44.7 792.4,42.1 C794.5,39.6 795.5,36.5 795.5,32.7 C795.5,28.9 794.5,25.8 792.4,23.3 C790.2,20.7 787.2,19.4 783.4,19.4 C779.6,19.4 776.6,20.7 774.4,23.3 C772.3,25.8 771.2,28.9 771.2,32.7 C771.2,36.5 772.2,39.6 774.4,42.1 C776.7,44.7 779.6,46 783.4,46 Z" id="形状"></path>
                        <path d="M826.2,14.6 L826.2,19.8 L825.6,19.8 C821.8,19.8 818.7,21.3 816.4,24.4 C814.2,27.3 813,30.7 813,34.8 L813,50.2 L807.8,50.2 L807.8,15.2 L813,15.2 L813,23.8 C814.1,20.2 816.5,17.5 820.3,15.8 C821.8,15.1 823.7,14.7 825.9,14.7 L826.2,14.7 L826.2,14.6 Z" id="路径"></path>
                        <path d="M852,20.8 C854.8,16.7 859,14.6 864.5,14.6 C869.5,14.6 873.6,16.4 876.7,19.8 C879.8,23.3 881.4,27.5 881.4,32.6 C881.4,37.7 879.8,42 876.7,45.4 C873.6,48.9 869.4,50.6 864.1,50.6 C858.8,50.6 854.8,48.5 851.9,44.4 L851.9,63.9 L846.7,63.9 L846.7,15 L851.9,15 L851.9,20.8 L852,20.8 Z M863.8,19.4 C860,19.4 857,20.7 854.8,23.3 C852.7,25.8 851.6,28.9 851.6,32.7 C851.6,36.5 852.7,39.6 854.8,42.1 C857,44.7 860,46 863.8,46 C867.5,46 870.6,44.7 872.9,42.1 C875.1,39.6 876.2,36.5 876.2,32.7 C876.2,28.9 875.1,25.8 872.9,23.3 C870.6,20.7 867.6,19.4 863.8,19.4 Z" id="形状"></path>
                        <path d="M904,46 C908.7,46 912.1,44 914.1,40.1 L919.8,40.1 C918.6,43.3 916.7,45.8 914,47.8 C911.4,49.8 908,50.7 903.8,50.7 C898.5,50.7 894.2,48.9 890.9,45.5 C887.7,42.1 886.1,37.8 886.1,32.7 C886.1,27.5 887.6,23.2 890.7,19.9 C894,16.4 898.2,14.7 903.4,14.7 C908.6,14.7 912.9,16.5 916.1,19.9 C919.2,23.3 920.7,27.5 920.7,32.7 L920.7,34.8 L891.4,34.8 C891.8,38 893.1,40.7 895.3,42.8 C897.7,44.9 900.5,46 904,46 Z M903.5,19.4 C900.3,19.4 897.6,20.4 895.4,22.4 C893.3,24.3 892.1,26.8 891.6,29.9 L915.4,29.9 C914.9,26.8 913.7,24.3 911.6,22.4 C909.5,20.4 906.8,19.4 903.5,19.4 Z" id="形状"></path>
                        <path d="M945.8,14.6 L945.8,19.8 L945.2,19.8 C941.4,19.8 938.3,21.3 936,24.4 C933.8,27.3 932.6,30.7 932.6,34.8 L932.6,50.2 L927.4,50.2 L927.4,15.2 L932.6,15.2 L932.6,23.8 C933.7,20.2 936.1,17.5 939.9,15.8 C941.4,15.1 943.3,14.7 945.5,14.7 L945.8,14.7 L945.8,14.6 Z" id="路径"></path>
                        <path d="M972.1,24.6 C971.6,21 968.7,19.1 963.3,19.1 C957.9,19.1 955.2,20.8 955.2,24.1 C955.2,25.5 955.8,26.6 956.9,27.3 C958,28 959.5,28.6 961.2,29.1 C962.9,29.6 964.8,30 966.8,30.4 C968.8,30.8 970.7,31.4 972.4,32.1 C974.1,32.8 975.6,33.8 976.7,35.1 C977.8,36.4 978.4,38.1 978.4,40.3 C978.4,43.7 977.1,46.3 974.5,48.1 C971.9,49.9 968.5,50.8 964.1,50.8 C959.4,50.8 955.7,49.6 953,47.3 C950.5,45.2 949.1,42.6 948.9,39.2 L954.4,39.2 C954.7,42.4 956.5,44.6 959.9,45.7 C961.1,46.1 962.3,46.3 963.5,46.3 C964.7,46.3 965.8,46.2 966.8,46.1 C967.8,46 968.8,45.7 969.8,45.3 C972,44.4 973.2,42.9 973.2,40.7 C973.2,39.3 972.6,38.1 971.5,37.4 C970.4,36.6 968.9,36 967.2,35.5 C965.5,35 963.6,34.6 961.6,34.2 C959.6,33.8 957.7,33.3 956,32.6 C954.3,31.9 952.8,30.9 951.7,29.7 C950.6,28.5 950,26.8 950,24.7 C950,21.5 951.2,19.1 953.5,17.3 C955.8,15.5 959.2,14.7 963.8,14.7 C968.1,14.7 971.5,15.7 973.9,17.8 C976,19.5 977.1,21.8 977.5,24.7 L972.1,24.7 L972.1,24.6 Z" id="路径"></path>
                        <path d="M990.7,2.5 L990.7,9.4 L985,9.4 L985,2.5 L990.7,2.5 Z M985.2,15.2 L990.4,15.2 L990.4,50.2 L985.2,50.2 L985.2,15.2 Z" id="形状"></path>
                        <path d="M1020.2,24.6 C1019.7,21 1016.8,19.1 1011.4,19.1 C1006,19.1 1003.3,20.8 1003.3,24.1 C1003.3,25.5 1003.9,26.6 1005,27.3 C1006.1,28 1007.6,28.6 1009.3,29.1 C1011,29.6 1012.9,30 1014.9,30.4 C1016.9,30.8 1018.8,31.4 1020.5,32.1 C1022.2,32.8 1023.7,33.8 1024.8,35.1 C1025.9,36.4 1026.5,38.1 1026.5,40.3 C1026.5,43.7 1025.2,46.3 1022.6,48.1 C1020,49.9 1016.6,50.8 1012.2,50.8 C1007.5,50.8 1003.8,49.6 1001.1,47.3 C998.6,45.2 997.2,42.6 997,39.2 L1002.5,39.2 C1002.8,42.4 1004.6,44.6 1008,45.7 C1009.2,46.1 1010.4,46.3 1011.6,46.3 C1012.8,46.3 1013.9,46.2 1014.9,46.1 C1015.9,46 1016.9,45.7 1017.9,45.3 C1020.1,44.4 1021.3,42.9 1021.3,40.7 C1021.3,39.3 1020.7,38.1 1019.6,37.4 C1018.5,36.6 1017,36 1015.3,35.5 C1013.6,35 1011.7,34.6 1009.7,34.2 C1007.7,33.8 1005.8,33.3 1004.1,32.6 C1002.4,31.9 1000.9,30.9 999.8,29.7 C998.7,28.5 998.1,26.8 998.1,24.7 C998.1,21.5 999.3,19.1 1001.6,17.3 C1003.9,15.5 1007.3,14.7 1011.9,14.7 C1016.2,14.7 1019.6,15.7 1022,17.8 C1024.1,19.5 1025.2,21.8 1025.6,24.7 L1020.2,24.7 L1020.2,24.6 Z" id="路径"></path>
                        <polygon id="路径" points="1037.1 50.2 1037.1 19.8 1030 19.8 1030 15.2 1037.1 15.2 1037.1 2.7 1042.3 2.7 1042.3 15.2 1050.3 15.2 1050.3 19.8 1042.3 19.8 1042.3 50.2"></polygon>
                        <path d="M1071,46 C1075.7,46 1079.1,44 1081.1,40.1 L1086.8,40.1 C1085.6,43.3 1083.7,45.8 1081,47.8 C1078.4,49.8 1075,50.7 1070.8,50.7 C1065.5,50.7 1061.2,48.9 1057.9,45.5 C1054.7,42.1 1053.1,37.8 1053.1,32.7 C1053.1,27.5 1054.6,23.2 1057.7,19.9 C1061,16.4 1065.2,14.7 1070.4,14.7 C1075.6,14.7 1079.9,16.5 1083.1,19.9 C1086.2,23.3 1087.7,27.5 1087.7,32.7 L1087.7,34.8 L1058.4,34.8 C1058.8,38 1060.1,40.7 1062.3,42.8 C1064.7,44.9 1067.6,46 1071,46 Z M1070.6,19.4 C1067.4,19.4 1064.7,20.4 1062.5,22.4 C1060.4,24.3 1059.2,26.8 1058.7,29.9 L1082.5,29.9 C1082,26.8 1080.8,24.3 1078.7,22.4 C1076.5,20.4 1073.8,19.4 1070.6,19.4 Z" id="形状"></path>
                        <path d="M1099.7,15.2 L1099.7,20.7 C1101,19 1102.5,17.6 1104.3,16.4 C1106.1,15.2 1108.2,14.6 1110.5,14.6 C1112.8,14.6 1114.8,14.9 1116.5,15.6 C1118.2,16.3 1119.7,17.2 1120.9,18.5 C1123.8,21.3 1125.2,25.1 1125.2,29.8 L1125.2,50.2 L1120,50.2 L1120,30 C1120,26.8 1119.1,24.2 1117.3,22.3 C1115.5,20.4 1113.1,19.4 1110.2,19.4 C1107.3,19.4 1104.8,20.4 1102.7,22.3 C1100.6,24.3 1099.6,26.9 1099.6,30 L1099.6,50.2 L1094.4,50.2 L1094.4,15.2 L1099.7,15.2 Z" id="路径"></path>
                        <polygon id="路径" points="1137 50.2 1137 19.8 1129.9 19.8 1129.9 15.2 1137 15.2 1137 2.7 1142.2 2.7 1142.2 15.2 1150.2 15.2 1150.2 19.8 1142.2 19.8 1142.2 50.2"></polygon>
                        <polygon id="路径" points="1200.3 15.2 1186.7 50.2 1180.5 50.2 1166.8 15.2 1172.5 15.2 1183.6 44.6 1194.6 15.2"></polygon>
                        <path d="M1219.9,14.6 C1225.1,14.6 1229.4,16.4 1232.6,19.8 C1235.7,23.2 1237.2,27.4 1237.2,32.6 C1237.2,37.8 1235.7,42.1 1232.6,45.4 C1229.3,48.9 1225.1,50.6 1219.9,50.6 C1214.7,50.6 1210.4,48.8 1207.2,45.4 C1204.1,42 1202.6,37.8 1202.6,32.6 C1202.6,27.4 1204.1,23.1 1207.2,19.8 C1210.5,16.4 1214.7,14.6 1219.9,14.6 Z M1219.9,46 C1223.7,46 1226.7,44.7 1228.9,42.1 C1231,39.6 1232,36.5 1232,32.7 C1232,28.9 1231,25.8 1228.9,23.3 C1226.7,20.7 1223.7,19.4 1219.9,19.4 C1216.1,19.4 1213.1,20.7 1210.9,23.3 C1208.8,25.8 1207.7,28.9 1207.7,32.7 C1207.7,36.5 1208.7,39.6 1210.9,42.1 C1213.2,44.7 1216.2,46 1219.9,46 Z" id="形状"></path>
                        <polygon id="路径" points="1249.5 50.2 1244.3 50.2 1244.3 1.2 1249.5 1.2"></polygon>
                        <path d="M1283.8,50.2 L1283.8,44.7 C1282.5,46.4 1281,47.8 1279.2,49 C1277.4,50.2 1275.3,50.8 1273,50.8 C1270.7,50.8 1268.7,50.5 1267,49.8 C1265.3,49.1 1263.8,48.2 1262.6,46.9 C1259.7,44.1 1258.3,40.3 1258.3,35.6 L1258.3,15.2 L1263.5,15.2 L1263.5,35.4 C1263.5,38.6 1264.4,41.2 1266.2,43.1 C1268,45 1270.4,46 1273.3,46 C1276.2,46 1278.7,45 1280.8,43.1 C1282.9,41.1 1283.9,38.5 1283.9,35.4 L1283.9,15.2 L1289.1,15.2 L1289.1,50.2 L1283.8,50.2 L1283.8,50.2 Z" id="路径"></path>
                        <path d="M1303.4,20.5 C1305.7,16.6 1309.3,14.6 1314,14.6 C1316.3,14.6 1318.5,15.2 1320.5,16.5 C1322.5,17.7 1324,19.5 1325.2,21.7 C1326.8,18.8 1329.3,16.7 1332.6,15.4 C1334,14.9 1335.5,14.6 1337.2,14.6 C1338.9,14.6 1340.5,14.9 1342.1,15.6 C1343.7,16.3 1345.1,17.2 1346.3,18.5 C1348.9,21.3 1350.2,24.8 1350.2,29 L1350.2,50.1 L1345,50.1 L1345,29.1 C1345,26.2 1344.2,23.8 1342.6,22 C1341,20.2 1338.9,19.3 1336.4,19.3 C1333.7,19.3 1331.5,20.2 1329.8,21.9 C1327.9,23.7 1327,26.1 1327,29.2 L1327,50.1 L1321.8,50.1 L1321.8,29.1 C1321.8,26.2 1321,23.8 1319.4,22 C1317.8,20.2 1315.7,19.3 1313.2,19.3 C1310.5,19.3 1308.3,20.2 1306.5,21.9 C1304.6,23.7 1303.7,26.1 1303.7,29.2 L1303.7,50.1 L1298.5,50.1 L1298.5,15.1 L1303.7,15.1 L1303.7,20.5 L1303.4,20.5 Z" id="路径"></path>
                        <path d="M1374.6,46 C1379.3,46 1382.7,44 1384.7,40.1 L1390.4,40.1 C1389.2,43.3 1387.3,45.8 1384.6,47.8 C1382,49.8 1378.6,50.7 1374.4,50.7 C1369.1,50.7 1364.8,48.9 1361.5,45.5 C1358.3,42.1 1356.7,37.8 1356.7,32.7 C1356.7,27.5 1358.2,23.2 1361.3,19.9 C1364.6,16.4 1368.8,14.7 1374,14.7 C1379.2,14.7 1383.5,16.5 1386.7,19.9 C1389.8,23.3 1391.3,27.5 1391.3,32.7 L1391.3,34.8 L1362,34.8 C1362.4,38 1363.7,40.7 1365.9,42.8 C1368.3,44.9 1371.1,46 1374.6,46 Z M1374.1,19.4 C1370.9,19.4 1368.2,20.4 1366,22.4 C1363.9,24.3 1362.7,26.8 1362.2,29.9 L1386,29.9 C1385.5,26.8 1384.3,24.3 1382.2,22.4 C1380.1,20.4 1377.4,19.4 1374.1,19.4 Z" id="形状"></path>
                        <polygon id="路径" points="1398.2 44.6 1405.1 44.6 1398.9 59.5 1394.1 59.5"></polygon>
                        <path d="M8.7,102.5 L8.7,109.4 L3,109.4 L3,102.5 L8.7,102.5 Z M3.3,115.2 L8.5,115.2 L8.5,150.2 L3.3,150.2 L3.3,115.2 Z" id="形状"></path>
                        <path d="M22.9,115.2 L22.9,120.7 C24.2,119 25.7,117.6 27.5,116.4 C29.3,115.2 31.4,114.6 33.7,114.6 C36,114.6 38,114.9 39.7,115.6 C41.4,116.3 42.9,117.2 44.1,118.5 C47,121.3 48.4,125.1 48.4,129.8 L48.4,150.2 L43.2,150.2 L43.2,130 C43.2,126.8 42.3,124.2 40.5,122.3 C38.7,120.4 36.3,119.4 33.4,119.4 C30.5,119.4 28,120.4 25.9,122.3 C23.8,124.3 22.8,126.9 22.8,130 L22.8,150.2 L17.6,150.2 L17.6,115.2 L22.9,115.2 Z" id="路径"></path>
                        <polygon id="路径" points="60.2 150.2 60.2 119.8 53.1 119.8 53.1 115.2 60.2 115.2 60.2 102.7 65.4 102.7 65.4 115.2 73.4 115.2 73.4 119.8 65.4 119.8 65.4 150.2"></polygon>
                        <path d="M94.1,146 C98.8,146 102.2,144 104.2,140.1 L109.9,140.1 C108.7,143.3 106.8,145.8 104.1,147.8 C101.5,149.8 98.1,150.7 93.9,150.7 C88.6,150.7 84.3,148.9 81,145.5 C77.8,142.1 76.2,137.8 76.2,132.7 C76.2,127.5 77.7,123.2 80.8,119.9 C84.1,116.4 88.3,114.7 93.5,114.7 C98.7,114.7 103,116.5 106.2,119.9 C109.3,123.3 110.8,127.5 110.8,132.7 L110.8,134.8 L81.5,134.8 C81.9,138 83.2,140.7 85.4,142.8 C87.8,144.9 90.7,146 94.1,146 Z M93.7,119.4 C90.5,119.4 87.8,120.4 85.6,122.4 C83.5,124.3 82.3,126.8 81.8,129.9 L105.6,129.9 C105.1,126.8 103.9,124.3 101.8,122.4 C99.6,120.4 96.9,119.4 93.7,119.4 Z" id="形状"></path>
                        <polygon id="路径" points="122.8 150.2 117.6 150.2 117.6 101.2 122.8 101.2"></polygon>
                        <polygon id="路径" points="137.1 150.2 131.9 150.2 131.9 101.2 137.1 101.2"></polygon>
                        <path d="M151.7,102.5 L151.7,109.4 L146,109.4 L146,102.5 L151.7,102.5 Z M146.2,115.2 L151.4,115.2 L151.4,150.2 L146.2,150.2 L146.2,115.2 Z" id="形状"></path>
                        <path d="M187.9,120.8 L187.9,115.2 L193.1,115.2 L193.1,149.2 C193.1,154.2 191.7,158.1 188.8,160.7 C185.9,163.3 182.1,164.7 177.2,164.7 C172.3,164.7 168.6,163.8 165.8,161.9 C163.1,160 161.2,157.6 160.2,154.5 L166,154.5 C167.5,158.1 170.9,160 176.2,160 C180.3,160 183.2,159.1 185,157.2 C186.8,155.3 187.7,152.6 187.7,148.9 L187.7,144.1 C184.9,148.3 180.7,150.3 175.2,150.3 C170.2,150.3 166.1,148.6 162.9,145.1 C159.8,141.7 158.3,137.5 158.3,132.5 C158.3,127.5 159.8,123.3 162.9,119.9 C166.1,116.4 170.3,114.7 175.6,114.7 C181,114.6 185.1,116.7 187.9,120.8 Z M176,145.4 C177.9,145.4 179.6,145.1 181.1,144.4 C182.6,143.7 183.9,142.8 185,141.6 C187.1,139.2 188.1,136.1 188.1,132.4 C188.1,128.7 187.1,125.6 185,123.2 C182.7,120.7 179.7,119.4 176,119.4 C172.2,119.4 169.2,120.7 166.9,123.2 C164.7,125.7 163.6,128.8 163.6,132.4 C163.6,136.1 164.7,139.2 166.9,141.6 C169.2,144.2 172.3,145.4 176,145.4 Z" id="形状"></path>
                        <path d="M217.8,146 C222.5,146 225.9,144 227.9,140.1 L233.6,140.1 C232.4,143.3 230.5,145.8 227.8,147.8 C225.2,149.8 221.8,150.7 217.6,150.7 C212.3,150.7 208,148.9 204.7,145.5 C201.5,142.1 199.9,137.8 199.9,132.7 C199.9,127.5 201.4,123.2 204.5,119.9 C207.8,116.4 212,114.7 217.2,114.7 C222.4,114.7 226.7,116.5 229.9,119.9 C233,123.3 234.5,127.5 234.5,132.7 L234.5,134.8 L205.2,134.8 C205.6,138 206.9,140.7 209.1,142.8 C211.5,144.9 214.4,146 217.8,146 Z M217.4,119.4 C214.2,119.4 211.5,120.4 209.3,122.4 C207.2,124.3 206,126.8 205.5,129.9 L229.3,129.9 C228.8,126.8 227.6,124.3 225.5,122.4 C223.3,120.4 220.6,119.4 217.4,119.4 Z" id="形状"></path>
                        <path d="M246.5,115.2 L246.5,120.7 C247.8,119 249.3,117.6 251.1,116.4 C252.9,115.2 255,114.6 257.3,114.6 C259.6,114.6 261.6,114.9 263.3,115.6 C265,116.3 266.5,117.2 267.7,118.5 C270.6,121.3 272,125.1 272,129.8 L272,150.2 L266.8,150.2 L266.8,130 C266.8,126.8 265.9,124.2 264.1,122.3 C262.3,120.4 259.9,119.4 257,119.4 C254.1,119.4 251.6,120.4 249.5,122.3 C247.4,124.3 246.4,126.9 246.4,130 L246.4,150.2 L241.2,150.2 L241.2,115.2 L246.5,115.2 Z" id="路径"></path>
                        <polygon id="路径" points="283.8 150.2 283.8 119.8 276.7 119.8 276.7 115.2 283.8 115.2 283.8 102.7 289 102.7 289 115.2 297 115.2 297 119.8 289 119.8 289 150.2"></polygon>
                        <polygon id="路径" points="308.1 150.2 302.9 150.2 302.9 101.2 308.1 101.2"></polygon>
                        <polygon id="路径" points="326.5 164.1 320.8 164.1 327.2 149.7 312.9 115.2 318.7 115.2 330 143.9 341.5 115.2 347.2 115.2"></polygon>
                        <path d="M372.1,120.8 C374.9,116.7 379.1,114.6 384.6,114.6 C389.6,114.6 393.7,116.4 396.8,119.8 C399.9,123.3 401.5,127.5 401.5,132.6 C401.5,137.7 399.9,142 396.8,145.4 C393.7,148.9 389.5,150.6 384.2,150.6 C378.9,150.6 374.9,148.5 372,144.4 L372,163.9 L366.8,163.9 L366.8,115 L372,115 L372,120.8 L372.1,120.8 Z M383.9,119.4 C380.1,119.4 377.1,120.7 374.9,123.3 C372.8,125.8 371.7,128.9 371.7,132.7 C371.7,136.5 372.8,139.6 374.9,142.1 C377.1,144.7 380.1,146 383.9,146 C387.6,146 390.7,144.7 393,142.1 C395.2,139.6 396.3,136.5 396.3,132.7 C396.3,128.9 395.2,125.8 393,123.3 C390.7,120.7 387.7,119.4 383.9,119.4 Z" id="形状"></path>
                        <polygon id="路径" points="413.7 150.2 408.5 150.2 408.5 101.2 413.7 101.2"></polygon>
                        <path d="M450.1,144.6 C447.3,148.7 443.1,150.8 437.6,150.8 C432.6,150.8 428.5,149 425.3,145.6 C422.2,142.1 420.7,137.9 420.7,132.8 C420.7,127.7 422.2,123.4 425.3,120 C428.5,116.5 432.7,114.8 438,114.8 C443.3,114.8 447.3,116.9 450.2,121 L450.2,115.3 L455.4,115.3 L455.4,150.3 L450.2,150.3 L450.2,144.6 L450.1,144.6 Z M438.2,146 C442,146 445,144.7 447.2,142.1 C449.3,139.6 450.3,136.5 450.3,132.7 C450.3,128.9 449.3,125.8 447.2,123.3 C445,120.7 442,119.4 438.2,119.4 C434.5,119.4 431.4,120.7 429.1,123.3 C426.9,125.8 425.8,128.9 425.8,132.7 C425.8,136.5 426.9,139.6 429.1,142.1 C431.5,144.7 434.5,146 438.2,146 Z" id="形状"></path>
                        <path d="M480.6,146 C482.8,146 484.8,145.4 486.6,144.1 C488.3,142.8 489.6,141.2 490.4,139.2 L496.1,139.2 C495,142.7 493.1,145.4 490.2,147.5 C487.2,149.6 483.7,150.7 479.6,150.7 C474.5,150.7 470.3,148.9 467.1,145.5 C464,142.1 462.4,137.8 462.4,132.7 C462.4,127.6 464,123.3 467.1,119.9 C470.3,116.4 474.5,114.7 479.6,114.7 C483.7,114.7 487.3,115.8 490.2,117.9 C493,120 495,122.8 496.1,126.2 L490.4,126.2 C489.6,124.2 488.3,122.6 486.6,121.3 C484.9,120 482.9,119.4 480.6,119.4 C478.4,119.4 476.5,119.7 474.9,120.4 C473.3,121.1 472,122.1 470.9,123.3 C468.6,125.8 467.5,128.9 467.5,132.7 C467.5,136.4 468.6,139.6 470.9,142.1 C473.3,144.7 476.5,146 480.6,146 Z" id="路径"></path>
                        <path d="M518.1,146 C522.8,146 526.2,144 528.2,140.1 L533.9,140.1 C532.7,143.3 530.8,145.8 528.1,147.8 C525.5,149.8 522.1,150.7 517.9,150.7 C512.6,150.7 508.3,148.9 505,145.5 C501.8,142.1 500.2,137.8 500.2,132.7 C500.2,127.5 501.7,123.2 504.8,119.9 C508.1,116.4 512.3,114.7 517.5,114.7 C522.7,114.7 527,116.5 530.2,119.9 C533.3,123.3 534.8,127.5 534.8,132.7 L534.8,134.8 L505.5,134.8 C505.9,138 507.2,140.7 509.4,142.8 C511.8,144.9 514.7,146 518.1,146 Z M517.7,119.4 C514.5,119.4 511.8,120.4 509.6,122.4 C507.5,124.3 506.3,126.8 505.8,129.9 L529.6,129.9 C529.1,126.8 527.9,124.3 525.8,122.4 C523.6,120.4 520.9,119.4 517.7,119.4 Z" id="形状"></path>
                        <path d="M568.8,144.6 C566,148.7 561.8,150.8 556.3,150.8 C551.3,150.8 547.2,149 544,145.6 C540.9,142.1 539.4,137.9 539.4,132.8 C539.4,127.7 540.9,123.4 544,120 C547.2,116.5 551.4,114.8 556.7,114.8 C562,114.8 566,116.9 568.9,121 L568.9,101.3 L574.1,101.3 L574.1,150.3 L568.9,150.3 L568.9,144.6 L568.8,144.6 Z M557,146 C560.8,146 563.8,144.7 566,142.1 C568.1,139.6 569.1,136.5 569.1,132.7 C569.1,128.9 568.1,125.8 566,123.3 C563.8,120.7 560.8,119.4 557,119.4 C553.3,119.4 550.2,120.7 547.9,123.3 C545.7,125.8 544.6,128.9 544.6,132.7 C544.6,136.5 545.7,139.6 547.9,142.1 C550.2,144.7 553.2,146 557,146 Z" id="形状"></path>
                        <path d="M625.4,144.6 C622.6,148.7 618.4,150.8 612.9,150.8 C607.9,150.8 603.8,149 600.6,145.6 C597.5,142.1 596,137.9 596,132.8 C596,127.7 597.5,123.4 600.6,120 C603.8,116.5 608,114.8 613.3,114.8 C618.6,114.8 622.6,116.9 625.5,121 L625.5,115.3 L630.7,115.3 L630.7,150.3 L625.5,150.3 L625.5,144.6 L625.4,144.6 Z M613.5,146 C617.3,146 620.3,144.7 622.5,142.1 C624.6,139.6 625.6,136.5 625.6,132.7 C625.6,128.9 624.6,125.8 622.5,123.3 C620.3,120.7 617.3,119.4 613.5,119.4 C609.8,119.4 606.7,120.7 604.4,123.3 C602.2,125.8 601.1,128.9 601.1,132.7 C601.1,136.5 602.2,139.6 604.4,142.1 C606.8,144.7 609.8,146 613.5,146 Z" id="形状"></path>
                        <path d="M655.9,146 C658.1,146 660.1,145.4 661.9,144.1 C663.6,142.8 664.9,141.2 665.7,139.2 L671.4,139.2 C670.3,142.7 668.4,145.4 665.5,147.5 C662.5,149.6 659,150.7 654.9,150.7 C649.8,150.7 645.6,148.9 642.4,145.5 C639.3,142.1 637.7,137.8 637.7,132.7 C637.7,127.6 639.3,123.3 642.4,119.9 C645.6,116.4 649.8,114.7 654.9,114.7 C659,114.7 662.6,115.8 665.5,117.9 C668.3,120 670.3,122.8 671.4,126.2 L665.7,126.2 C664.9,124.2 663.6,122.6 661.9,121.3 C660.2,120 658.2,119.4 655.9,119.4 C653.7,119.4 651.8,119.7 650.2,120.4 C648.6,121.1 647.3,122.1 646.2,123.3 C643.9,125.8 642.8,128.9 642.8,132.7 C642.8,136.4 643.9,139.6 646.2,142.1 C648.5,144.7 651.8,146 655.9,146 Z" id="路径"></path>
                        <path d="M696.3,114.6 L696.3,119.8 L695.7,119.8 C691.9,119.8 688.8,121.3 686.5,124.4 C684.3,127.3 683.1,130.7 683.1,134.8 L683.1,150.2 L677.9,150.2 L677.9,115.2 L683.1,115.2 L683.1,123.8 C684.2,120.2 686.6,117.5 690.4,115.8 C691.9,115.1 693.8,114.7 696,114.7 L696.3,114.7 L696.3,114.6 Z" id="路径"></path>
                        <path d="M716.2,114.6 C721.4,114.6 725.7,116.4 728.9,119.8 C732,123.2 733.5,127.4 733.5,132.6 C733.5,137.8 732,142.1 728.9,145.4 C725.6,148.9 721.4,150.6 716.2,150.6 C711,150.6 706.7,148.8 703.5,145.4 C700.4,142 698.9,137.8 698.9,132.6 C698.9,127.4 700.4,123.1 703.5,119.8 C706.7,116.4 711,114.6 716.2,114.6 Z M716.2,146 C720,146 723,144.7 725.2,142.1 C727.3,139.6 728.3,136.5 728.3,132.7 C728.3,128.9 727.3,125.8 725.2,123.3 C723,120.7 720,119.4 716.2,119.4 C712.4,119.4 709.4,120.7 707.2,123.3 C705.1,125.8 704,128.9 704,132.7 C704,136.5 705,139.6 707.2,142.1 C709.4,144.7 712.4,146 716.2,146 Z" id="形状"></path>
                        <path d="M761.1,124.6 C760.6,121 757.7,119.1 752.3,119.1 C746.9,119.1 744.2,120.8 744.2,124.1 C744.2,125.5 744.8,126.6 745.9,127.3 C747,128 748.5,128.6 750.2,129.1 C751.9,129.6 753.8,130 755.8,130.4 C757.8,130.8 759.7,131.4 761.4,132.1 C763.1,132.8 764.6,133.8 765.7,135.1 C766.8,136.4 767.4,138.1 767.4,140.3 C767.4,143.7 766.1,146.3 763.5,148.1 C760.9,149.9 757.5,150.8 753.1,150.8 C748.4,150.8 744.7,149.6 742,147.3 C739.5,145.2 738.1,142.6 737.9,139.2 L743.4,139.2 C743.7,142.4 745.5,144.6 748.9,145.7 C750.1,146.1 751.3,146.3 752.5,146.3 C753.7,146.3 754.8,146.2 755.8,146.1 C756.8,146 757.8,145.7 758.8,145.3 C761,144.4 762.2,142.9 762.2,140.7 C762.2,139.3 761.6,138.1 760.5,137.4 C759.4,136.6 757.9,136 756.2,135.5 C754.5,135 752.6,134.6 750.6,134.2 C748.6,133.8 746.7,133.3 745,132.6 C743.3,131.9 741.8,130.9 740.7,129.7 C739.6,128.5 739,126.8 739,124.7 C739,121.5 740.2,119.1 742.5,117.3 C744.8,115.5 748.2,114.7 752.8,114.7 C757.1,114.7 760.5,115.7 762.9,117.8 C765,119.5 766.1,121.8 766.5,124.7 L761.1,124.7 L761.1,124.6 Z" id="路径"></path>
                        <path d="M794.8,124.6 C794.3,121 791.4,119.1 786,119.1 C780.6,119.1 777.9,120.8 777.9,124.1 C777.9,125.5 778.5,126.6 779.6,127.3 C780.7,128 782.2,128.6 783.9,129.1 C785.6,129.6 787.5,130 789.5,130.4 C791.5,130.8 793.4,131.4 795.1,132.1 C796.8,132.8 798.3,133.8 799.4,135.1 C800.5,136.4 801.1,138.1 801.1,140.3 C801.1,143.7 799.8,146.3 797.2,148.1 C794.6,149.9 791.2,150.8 786.8,150.8 C782.1,150.8 778.4,149.6 775.7,147.3 C773.2,145.2 771.8,142.6 771.6,139.2 L777.1,139.2 C777.4,142.4 779.2,144.6 782.6,145.7 C783.8,146.1 785,146.3 786.2,146.3 C787.4,146.3 788.5,146.2 789.5,146.1 C790.5,146 791.5,145.7 792.5,145.3 C794.7,144.4 795.9,142.9 795.9,140.7 C795.9,139.3 795.3,138.1 794.2,137.4 C793.1,136.6 791.6,136 789.9,135.5 C788.2,135 786.3,134.6 784.3,134.2 C782.3,133.8 780.4,133.3 778.7,132.6 C777,131.9 775.5,130.9 774.4,129.7 C773.3,128.5 772.7,126.8 772.7,124.7 C772.7,121.5 773.9,119.1 776.2,117.3 C778.5,115.5 781.9,114.7 786.5,114.7 C790.8,114.7 794.2,115.7 796.6,117.8 C798.7,119.5 799.8,121.8 800.2,124.7 L794.8,124.7 L794.8,124.6 Z" id="路径"></path>
                        <polygon id="路径" points="842.7 122.5 863.6 150.2 857 150.2 838.9 126.1 829.3 135.1 829.3 150.3 824.1 150.3 824.1 104 829.3 104 829.3 128.1 855.1 104 862.5 104"></polygon>
                        <path d="M891.1,150.2 L891.1,144.7 C889.8,146.4 888.3,147.8 886.5,149 C884.7,150.2 882.6,150.8 880.3,150.8 C878,150.8 876,150.5 874.3,149.8 C872.6,149.1 871.1,148.2 869.9,146.9 C867,144.1 865.6,140.3 865.6,135.6 L865.6,115.2 L870.8,115.2 L870.8,135.4 C870.8,138.6 871.7,141.2 873.5,143.1 C875.3,145 877.7,146 880.6,146 C883.5,146 886,145 888.1,143.1 C890.2,141.1 891.2,138.5 891.2,135.4 L891.2,115.2 L896.4,115.2 L896.4,150.2 L891.1,150.2 L891.1,150.2 Z" id="路径"></path>
                        <path d="M910.7,120.9 C913.5,116.7 917.7,114.7 923.2,114.7 C928.2,114.7 932.3,116.5 935.4,119.9 C938.5,123.4 940.1,127.6 940.1,132.7 C940.1,137.8 938.5,142.1 935.4,145.5 C932.3,149 928.1,150.7 922.8,150.7 C917.5,150.7 913.5,148.6 910.7,144.5 L910.7,150.1 L905.5,150.1 L905.5,101.1 L910.7,101.1 L910.7,120.9 L910.7,120.9 Z M922.6,146 C926.3,146 929.4,144.7 931.7,142.1 C933.9,139.6 935,136.5 935,132.7 C935,128.9 933.9,125.8 931.7,123.3 C929.4,120.7 926.3,119.4 922.6,119.4 C918.8,119.4 915.8,120.7 913.6,123.3 C911.5,125.8 910.4,128.9 910.4,132.7 C910.4,136.5 911.5,139.6 913.6,142.1 C915.8,144.7 918.8,146 922.6,146 Z" id="形状"></path>
                        <path d="M962.7,146 C967.4,146 970.8,144 972.8,140.1 L978.5,140.1 C977.3,143.3 975.4,145.8 972.7,147.8 C970.1,149.8 966.7,150.7 962.5,150.7 C957.2,150.7 952.9,148.9 949.6,145.5 C946.4,142.1 944.8,137.8 944.8,132.7 C944.8,127.5 946.3,123.2 949.4,119.9 C952.7,116.4 956.9,114.7 962.1,114.7 C967.3,114.7 971.6,116.5 974.8,119.9 C977.9,123.3 979.4,127.5 979.4,132.7 L979.4,134.8 L950.1,134.8 C950.5,138 951.8,140.7 954,142.8 C956.4,144.9 959.2,146 962.7,146 Z M962.3,119.4 C959.1,119.4 956.4,120.4 954.2,122.4 C952.1,124.3 950.9,126.8 950.4,129.9 L974.2,129.9 C973.7,126.8 972.5,124.3 970.4,122.4 C968.2,120.4 965.5,119.4 962.3,119.4 Z" id="形状"></path>
                        <path d="M1004.5,114.6 L1004.5,119.8 L1003.9,119.8 C1000.1,119.8 997,121.3 994.7,124.4 C992.5,127.3 991.3,130.7 991.3,134.8 L991.3,150.2 L986.1,150.2 L986.1,115.2 L991.3,115.2 L991.3,123.8 C992.4,120.2 994.8,117.5 998.6,115.8 C1000.1,115.1 1002,114.7 1004.2,114.7 L1004.5,114.7 L1004.5,114.6 Z" id="路径"></path>
                        <path d="M1015.5,115.2 L1015.5,120.7 C1016.8,119 1018.3,117.6 1020.1,116.4 C1021.9,115.2 1024,114.6 1026.3,114.6 C1028.6,114.6 1030.6,114.9 1032.3,115.6 C1034,116.3 1035.5,117.2 1036.7,118.5 C1039.6,121.3 1041,125.1 1041,129.8 L1041,150.2 L1035.8,150.2 L1035.8,130 C1035.8,126.8 1034.9,124.2 1033.1,122.3 C1031.3,120.4 1028.9,119.4 1026,119.4 C1023.1,119.4 1020.6,120.4 1018.5,122.3 C1016.4,124.3 1015.4,126.9 1015.4,130 L1015.4,150.2 L1010.2,150.2 L1010.2,115.2 L1015.5,115.2 Z" id="路径"></path>
                        <path d="M1065.4,146 C1070.1,146 1073.5,144 1075.5,140.1 L1081.2,140.1 C1080,143.3 1078.1,145.8 1075.4,147.8 C1072.8,149.8 1069.4,150.7 1065.2,150.7 C1059.9,150.7 1055.6,148.9 1052.3,145.5 C1049.1,142.1 1047.5,137.8 1047.5,132.7 C1047.5,127.5 1049,123.2 1052.1,119.9 C1055.4,116.4 1059.6,114.7 1064.8,114.7 C1070,114.7 1074.3,116.5 1077.5,119.9 C1080.6,123.3 1082.1,127.5 1082.1,132.7 L1082.1,134.8 L1052.8,134.8 C1053.2,138 1054.5,140.7 1056.7,142.8 C1059.1,144.9 1062,146 1065.4,146 Z M1065,119.4 C1061.8,119.4 1059.1,120.4 1056.9,122.4 C1054.8,124.3 1053.6,126.8 1053.1,129.9 L1076.9,129.9 C1076.4,126.8 1075.2,124.3 1073.1,122.4 C1070.9,120.4 1068.2,119.4 1065,119.4 Z" id="形状"></path>
                        <polygon id="路径" points="1092.2 150.2 1092.2 119.8 1085.1 119.8 1085.1 115.2 1092.2 115.2 1092.2 102.7 1097.4 102.7 1097.4 115.2 1105.4 115.2 1105.4 119.8 1097.4 119.8 1097.4 150.2"></polygon>
                        <path d="M1126.1,146 C1130.8,146 1134.2,144 1136.2,140.1 L1141.9,140.1 C1140.7,143.3 1138.8,145.8 1136.1,147.8 C1133.5,149.8 1130.1,150.7 1125.9,150.7 C1120.6,150.7 1116.3,148.9 1113,145.5 C1109.8,142.1 1108.2,137.8 1108.2,132.7 C1108.2,127.5 1109.7,123.2 1112.8,119.9 C1116.1,116.4 1120.3,114.7 1125.5,114.7 C1130.7,114.7 1135,116.5 1138.2,119.9 C1141.3,123.3 1142.8,127.5 1142.8,132.7 L1142.8,134.8 L1113.5,134.8 C1113.9,138 1115.2,140.7 1117.4,142.8 C1119.8,144.9 1122.7,146 1126.1,146 Z M1125.7,119.4 C1122.5,119.4 1119.8,120.4 1117.6,122.4 C1115.5,124.3 1114.3,126.8 1113.8,129.9 L1137.6,129.9 C1137.1,126.8 1135.9,124.3 1133.8,122.4 C1131.6,120.4 1128.9,119.4 1125.7,119.4 Z" id="形状"></path>
                        <path d="M1170.1,124.6 C1169.6,121 1166.7,119.1 1161.3,119.1 C1155.9,119.1 1153.2,120.8 1153.2,124.1 C1153.2,125.5 1153.8,126.6 1154.9,127.3 C1156,128 1157.5,128.6 1159.2,129.1 C1160.9,129.6 1162.8,130 1164.8,130.4 C1166.8,130.8 1168.7,131.4 1170.4,132.1 C1172.1,132.8 1173.6,133.8 1174.7,135.1 C1175.8,136.4 1176.4,138.1 1176.4,140.3 C1176.4,143.7 1175.1,146.3 1172.5,148.1 C1169.9,149.9 1166.5,150.8 1162.1,150.8 C1157.4,150.8 1153.7,149.6 1151,147.3 C1148.5,145.2 1147.1,142.6 1146.9,139.2 L1152.4,139.2 C1152.7,142.4 1154.5,144.6 1157.9,145.7 C1159.1,146.1 1160.3,146.3 1161.5,146.3 C1162.7,146.3 1163.8,146.2 1164.8,146.1 C1165.8,146 1166.8,145.7 1167.8,145.3 C1170,144.4 1171.2,142.9 1171.2,140.7 C1171.2,139.3 1170.6,138.1 1169.5,137.4 C1168.4,136.6 1166.9,136 1165.2,135.5 C1163.5,135 1161.6,134.6 1159.6,134.2 C1157.6,133.8 1155.7,133.3 1154,132.6 C1152.3,131.9 1150.8,130.9 1149.7,129.7 C1148.6,128.5 1148,126.8 1148,124.7 C1148,121.5 1149.2,119.1 1151.5,117.3 C1153.8,115.5 1157.2,114.7 1161.8,114.7 C1166.1,114.7 1169.5,115.7 1171.9,117.8 C1174,119.5 1175.1,121.8 1175.5,124.7 L1170.1,124.7 L1170.1,124.6 Z" id="路径"></path>
                        <path d="M1203.4,115.2 L1203.4,120.7 C1204.7,119 1206.2,117.6 1208,116.4 C1209.8,115.2 1211.9,114.6 1214.2,114.6 C1216.5,114.6 1218.5,114.9 1220.2,115.6 C1221.9,116.3 1223.4,117.2 1224.6,118.5 C1227.5,121.3 1228.9,125.1 1228.9,129.8 L1228.9,150.2 L1223.7,150.2 L1223.7,130 C1223.7,126.8 1222.8,124.2 1221,122.3 C1219.2,120.4 1216.8,119.4 1213.9,119.4 C1211,119.4 1208.5,120.4 1206.4,122.3 C1204.3,124.3 1203.3,126.9 1203.3,130 L1203.3,150.2 L1198.1,150.2 L1198.1,115.2 L1203.4,115.2 Z" id="路径"></path>
                        <path d="M1253,114.6 C1258.2,114.6 1262.5,116.4 1265.7,119.8 C1268.8,123.2 1270.3,127.4 1270.3,132.6 C1270.3,137.8 1268.8,142.1 1265.7,145.4 C1262.4,148.9 1258.2,150.6 1253,150.6 C1247.8,150.6 1243.5,148.8 1240.3,145.4 C1237.2,142 1235.7,137.8 1235.7,132.6 C1235.7,127.4 1237.2,123.1 1240.3,119.8 C1243.5,116.4 1247.7,114.6 1253,114.6 Z M1253,146 C1256.8,146 1259.8,144.7 1262,142.1 C1264.1,139.6 1265.1,136.5 1265.1,132.7 C1265.1,128.9 1264.1,125.8 1262,123.3 C1259.8,120.7 1256.8,119.4 1253,119.4 C1249.2,119.4 1246.2,120.7 1244,123.3 C1241.9,125.8 1240.8,128.9 1240.8,132.7 C1240.8,136.5 1241.8,139.6 1244,142.1 C1246.2,144.7 1249.2,146 1253,146 Z" id="形状"></path>
                        <path d="M1304.6,144.6 C1301.8,148.7 1297.6,150.8 1292.1,150.8 C1287.1,150.8 1283,149 1279.8,145.6 C1276.7,142.1 1275.2,137.9 1275.2,132.8 C1275.2,127.7 1276.7,123.4 1279.8,120 C1283,116.5 1287.2,114.8 1292.5,114.8 C1297.8,114.8 1301.8,116.9 1304.7,121 L1304.7,101.3 L1309.9,101.3 L1309.9,150.3 L1304.7,150.3 L1304.7,144.6 L1304.6,144.6 Z M1292.7,146 C1296.5,146 1299.5,144.7 1301.7,142.1 C1303.8,139.6 1304.8,136.5 1304.8,132.7 C1304.8,128.9 1303.8,125.8 1301.7,123.3 C1299.5,120.7 1296.5,119.4 1292.7,119.4 C1289,119.4 1285.9,120.7 1283.6,123.3 C1281.4,125.8 1280.3,128.9 1280.3,132.7 C1280.3,136.5 1281.4,139.6 1283.6,142.1 C1286,144.7 1289,146 1292.7,146 Z" id="形状"></path>
                        <path d="M1334.5,146 C1339.2,146 1342.6,144 1344.6,140.1 L1350.3,140.1 C1349.1,143.3 1347.2,145.8 1344.5,147.8 C1341.9,149.8 1338.5,150.7 1334.3,150.7 C1329,150.7 1324.7,148.9 1321.4,145.5 C1318.2,142.1 1316.6,137.8 1316.6,132.7 C1316.6,127.5 1318.1,123.2 1321.2,119.9 C1324.5,116.4 1328.7,114.7 1333.9,114.7 C1339.1,114.7 1343.4,116.5 1346.6,119.9 C1349.7,123.3 1351.2,127.5 1351.2,132.7 L1351.2,134.8 L1321.9,134.8 C1322.3,138 1323.6,140.7 1325.8,142.8 C1328.2,144.9 1331.1,146 1334.5,146 Z M1334.1,119.4 C1330.9,119.4 1328.2,120.4 1326,122.4 C1323.9,124.3 1322.7,126.8 1322.2,129.9 L1346,129.9 C1345.5,126.8 1344.3,124.3 1342.2,122.4 C1340,120.4 1337.3,119.4 1334.1,119.4 Z" id="形状"></path>
                        <path d="M1378.5,124.6 C1378,121 1375.1,119.1 1369.7,119.1 C1364.3,119.1 1361.6,120.8 1361.6,124.1 C1361.6,125.5 1362.2,126.6 1363.3,127.3 C1364.4,128 1365.9,128.6 1367.6,129.1 C1369.3,129.6 1371.2,130 1373.2,130.4 C1375.2,130.8 1377.1,131.4 1378.8,132.1 C1380.5,132.8 1382,133.8 1383.1,135.1 C1384.2,136.4 1384.8,138.1 1384.8,140.3 C1384.8,143.7 1383.5,146.3 1380.9,148.1 C1378.3,149.9 1374.9,150.8 1370.5,150.8 C1365.8,150.8 1362.1,149.6 1359.4,147.3 C1356.9,145.2 1355.5,142.6 1355.3,139.2 L1360.8,139.2 C1361.1,142.4 1362.9,144.6 1366.3,145.7 C1367.5,146.1 1368.7,146.3 1369.9,146.3 C1371.1,146.3 1372.2,146.2 1373.2,146.1 C1374.2,146 1375.2,145.7 1376.2,145.3 C1378.4,144.4 1379.6,142.9 1379.6,140.7 C1379.6,139.3 1379,138.1 1377.9,137.4 C1376.8,136.6 1375.3,136 1373.6,135.5 C1371.9,135 1370,134.6 1368,134.2 C1366,133.8 1364.1,133.3 1362.4,132.6 C1360.7,131.9 1359.2,130.9 1358.1,129.7 C1357,128.5 1356.4,126.8 1356.4,124.7 C1356.4,121.5 1357.6,119.1 1359.9,117.3 C1362.2,115.5 1365.6,114.7 1370.2,114.7 C1374.5,114.7 1377.9,115.7 1380.3,117.8 C1382.4,119.5 1383.5,121.8 1383.9,124.7 L1378.5,124.7 L1378.5,124.6 Z" id="路径"></path>
                        <polygon id="路径" points="1410.3 150.2 1410.3 119.8 1403.2 119.8 1403.2 115.2 1410.3 115.2 1410.3 102.7 1415.5 102.7 1415.5 115.2 1423.5 115.2 1423.5 119.8 1415.5 119.8 1415.5 150.2"></polygon>
                        <path d="M1443.9,114.6 C1449.1,114.6 1453.4,116.4 1456.6,119.8 C1459.7,123.2 1461.2,127.4 1461.2,132.6 C1461.2,137.8 1459.7,142.1 1456.6,145.4 C1453.3,148.9 1449.1,150.6 1443.9,150.6 C1438.7,150.6 1434.4,148.8 1431.2,145.4 C1428.1,142 1426.6,137.8 1426.6,132.6 C1426.6,127.4 1428.1,123.1 1431.2,119.8 C1434.4,116.4 1438.6,114.6 1443.9,114.6 Z M1443.9,146 C1447.7,146 1450.7,144.7 1452.9,142.1 C1455,139.6 1456,136.5 1456,132.7 C1456,128.9 1455,125.8 1452.9,123.3 C1450.7,120.7 1447.7,119.4 1443.9,119.4 C1440.1,119.4 1437.1,120.7 1434.9,123.3 C1432.8,125.8 1431.7,128.9 1431.7,132.7 C1431.7,136.5 1432.7,139.6 1434.9,142.1 C1437.1,144.7 1440.1,146 1443.9,146 Z" id="形状"></path>
                        <path d="M8.5,220.9 C11.3,216.7 15.5,214.7 21,214.7 C26,214.7 30.1,216.5 33.2,219.9 C36.3,223.4 37.9,227.6 37.9,232.7 C37.9,237.8 36.3,242.1 33.2,245.5 C30.1,249 25.9,250.7 20.6,250.7 C15.3,250.7 11.3,248.6 8.5,244.5 L8.5,250.1 L3.3,250.1 L3.3,201.1 L8.5,201.1 L8.5,220.9 Z M20.4,246 C24.1,246 27.2,244.7 29.5,242.1 C31.7,239.6 32.8,236.5 32.8,232.7 C32.8,228.9 31.7,225.8 29.5,223.3 C27.2,220.7 24.1,219.4 20.4,219.4 C16.6,219.4 13.6,220.7 11.4,223.3 C9.3,225.8 8.2,228.9 8.2,232.7 C8.2,236.5 9.3,239.6 11.4,242.1 C13.6,244.7 16.6,246 20.4,246 Z" id="形状"></path>
                        <path d="M72.2,244.6 C69.4,248.7 65.2,250.8 59.7,250.8 C54.7,250.8 50.6,249 47.4,245.6 C44.3,242.1 42.8,237.9 42.8,232.8 C42.8,227.7 44.3,223.4 47.4,220 C50.6,216.5 54.8,214.8 60.1,214.8 C65.4,214.8 69.4,216.9 72.3,221 L72.3,215.3 L77.5,215.3 L77.5,250.3 L72.3,250.3 L72.3,244.6 L72.2,244.6 Z M60.3,246 C64.1,246 67.1,244.7 69.3,242.1 C71.4,239.6 72.4,236.5 72.4,232.7 C72.4,228.9 71.4,225.8 69.3,223.3 C67.1,220.7 64.1,219.4 60.3,219.4 C56.6,219.4 53.5,220.7 51.2,223.3 C49,225.8 47.9,228.9 47.9,232.7 C47.9,236.5 49,239.6 51.2,242.1 C53.6,244.7 56.6,246 60.3,246 Z" id="形状"></path>
                        <polygon id="路径" points="91.8 250.2 86.6 250.2 86.6 201.2 91.8 201.2"></polygon>
                        <path d="M128.2,244.6 C125.4,248.7 121.2,250.8 115.7,250.8 C110.7,250.8 106.6,249 103.4,245.6 C100.3,242.1 98.8,237.9 98.8,232.8 C98.8,227.7 100.3,223.4 103.4,220 C106.6,216.5 110.8,214.8 116.1,214.8 C121.4,214.8 125.4,216.9 128.3,221 L128.3,215.3 L133.5,215.3 L133.5,250.3 L128.3,250.3 L128.3,244.6 L128.2,244.6 Z M116.3,246 C120.1,246 123.1,244.7 125.3,242.1 C127.4,239.6 128.4,236.5 128.4,232.7 C128.4,228.9 127.4,225.8 125.3,223.3 C123.1,220.7 120.1,219.4 116.3,219.4 C112.6,219.4 109.5,220.7 107.2,223.3 C105,225.8 103.9,228.9 103.9,232.7 C103.9,236.5 105,239.6 107.2,242.1 C109.6,244.7 112.6,246 116.3,246 Z" id="形状"></path>
                        <path d="M147.8,215.2 L147.8,220.7 C149.1,219 150.6,217.6 152.4,216.4 C154.2,215.2 156.3,214.6 158.6,214.6 C160.9,214.6 162.9,214.9 164.6,215.6 C166.3,216.3 167.8,217.2 169,218.5 C171.9,221.3 173.3,225.1 173.3,229.8 L173.3,250.2 L168.1,250.2 L168.1,230 C168.1,226.8 167.2,224.2 165.4,222.3 C163.6,220.4 161.2,219.4 158.3,219.4 C155.4,219.4 152.9,220.4 150.8,222.3 C148.7,224.3 147.7,226.9 147.7,230 L147.7,250.2 L142.5,250.2 L142.5,215.2 L147.8,215.2 Z" id="路径"></path>
                        <path d="M198.3,246 C200.5,246 202.5,245.4 204.3,244.1 C206,242.8 207.3,241.2 208.1,239.2 L213.8,239.2 C212.7,242.7 210.8,245.4 207.9,247.5 C204.9,249.6 201.4,250.7 197.3,250.7 C192.2,250.7 188,248.9 184.8,245.5 C181.7,242.1 180.1,237.8 180.1,232.7 C180.1,227.6 181.7,223.3 184.8,219.9 C188,216.4 192.2,214.7 197.3,214.7 C201.4,214.7 205,215.8 207.9,217.9 C210.7,220 212.7,222.8 213.8,226.2 L208,226.2 C207.2,224.2 205.9,222.6 204.2,221.3 C202.5,220 200.5,219.4 198.2,219.4 C196,219.4 194.1,219.7 192.5,220.4 C190.9,221.1 189.6,222.1 188.5,223.3 C186.2,225.8 185.1,228.9 185.1,232.7 C185.1,236.4 186.2,239.6 188.5,242.1 C191,244.7 194.2,246 198.3,246 Z" id="路径"></path>
                        <path d="M235.8,246 C240.5,246 243.9,244 245.9,240.1 L251.6,240.1 C250.4,243.3 248.5,245.8 245.8,247.8 C243.2,249.8 239.8,250.7 235.6,250.7 C230.3,250.7 226,248.9 222.7,245.5 C219.5,242.1 217.9,237.8 217.9,232.7 C217.9,227.5 219.4,223.2 222.5,219.9 C225.8,216.4 230,214.7 235.2,214.7 C240.4,214.7 244.7,216.5 247.9,219.9 C251,223.3 252.5,227.5 252.5,232.7 L252.5,234.8 L223.2,234.8 C223.6,238 224.9,240.7 227.1,242.8 C229.5,244.9 232.4,246 235.8,246 Z M235.4,219.4 C232.2,219.4 229.5,220.4 227.3,222.4 C225.2,224.3 224,226.8 223.5,229.9 L247.3,229.9 C246.8,226.8 245.6,224.3 243.5,222.4 C241.3,220.4 238.6,219.4 235.4,219.4 Z" id="形状"></path>
                        <polygon id="路径" points="277.9 250.2 277.9 219.8 270.8 219.8 270.8 215.2 277.9 215.2 277.9 202.7 283.1 202.7 283.1 215.2 291.1 215.2 291.1 219.8 283.1 219.8 283.1 250.2"></polygon>
                        <path d="M302.2,201.2 L302.2,220.7 C303.5,219 305,217.6 306.8,216.4 C308.6,215.2 310.7,214.6 313,214.6 C315.3,214.6 317.3,214.9 319,215.6 C320.7,216.3 322.2,217.2 323.4,218.5 C326.3,221.3 327.7,225.1 327.7,229.8 L327.7,250.2 L322.5,250.2 L322.5,230 C322.5,226.8 321.6,224.2 319.8,222.3 C318,220.4 315.6,219.4 312.7,219.4 C309.8,219.4 307.3,220.4 305.2,222.3 C303.1,224.3 302.1,226.9 302.1,230 L302.1,250.2 L296.9,250.2 L296.9,201.2 L302.2,201.2 Z" id="路径"></path>
                        <path d="M352.2,246 C356.9,246 360.3,244 362.3,240.1 L368,240.1 C366.8,243.3 364.9,245.8 362.2,247.8 C359.6,249.8 356.2,250.7 352,250.7 C346.7,250.7 342.4,248.9 339.1,245.5 C335.9,242.1 334.3,237.8 334.3,232.7 C334.3,227.5 335.8,223.2 338.9,219.9 C342.2,216.4 346.4,214.7 351.6,214.7 C356.8,214.7 361.1,216.5 364.3,219.9 C367.4,223.3 368.9,227.5 368.9,232.7 L368.9,234.8 L339.6,234.8 C340,238 341.3,240.7 343.5,242.8 C345.9,244.9 348.7,246 352.2,246 Z M351.7,219.4 C348.5,219.4 345.8,220.4 343.6,222.4 C341.5,224.3 340.3,226.8 339.8,229.9 L363.6,229.9 C363.1,226.8 361.9,224.3 359.8,222.4 C357.7,220.4 355,219.4 351.7,219.4 Z" id="形状"></path>
                        <polygon id="路径" points="412.3 222.3 403.5 250.2 397.5 250.2 386.5 215.2 392.1 215.2 400.5 243.7 409.4 215.2 415.1 215.2 424 243.7 432.4 215.2 438 215.2 427 250.2 421 250.2"></polygon>
                        <path d="M458.1,214.6 C463.3,214.6 467.6,216.4 470.8,219.8 C473.9,223.2 475.4,227.4 475.4,232.6 C475.4,237.8 473.9,242.1 470.8,245.4 C467.5,248.9 463.3,250.6 458.1,250.6 C452.9,250.6 448.6,248.8 445.4,245.4 C442.3,242 440.8,237.8 440.8,232.6 C440.8,227.4 442.3,223.1 445.4,219.8 C448.7,216.4 452.9,214.6 458.1,214.6 Z M458.1,246 C461.9,246 464.9,244.7 467.1,242.1 C469.2,239.6 470.2,236.5 470.2,232.7 C470.2,228.9 469.2,225.8 467.1,223.3 C464.9,220.7 461.9,219.4 458.1,219.4 C454.3,219.4 451.3,220.7 449.1,223.3 C447,225.8 445.9,228.9 445.9,232.7 C445.9,236.5 446.9,239.6 449.1,242.1 C451.4,244.7 454.4,246 458.1,246 Z" id="形状"></path>
                        <path d="M500.9,214.6 L500.9,219.8 L500.3,219.8 C496.5,219.8 493.4,221.3 491.1,224.4 C488.9,227.3 487.7,230.7 487.7,234.8 L487.7,250.2 L482.5,250.2 L482.5,215.2 L487.7,215.2 L487.7,223.8 C488.8,220.2 491.2,217.5 495,215.8 C496.5,215.1 498.4,214.7 500.6,214.7 L500.9,214.7 L500.9,214.6 Z" id="路径"></path>
                        <polygon id="路径" points="522 229 537.1 250.2 530.7 250.2 518.5 232.6 511.9 239.1 511.9 250.2 506.7 250.2 506.7 201.2 511.9 201.2 511.9 232.6 528.8 215.2 536.1 215.2"></polygon>
                        <polygon id="路径" points="547 250.2 541.8 250.2 541.8 201.2 547 201.2"></polygon>
                        <path d="M571.3,214.6 C576.5,214.6 580.8,216.4 584,219.8 C587.1,223.2 588.6,227.4 588.6,232.6 C588.6,237.8 587.1,242.1 584,245.4 C580.7,248.9 576.5,250.6 571.3,250.6 C566.1,250.6 561.8,248.8 558.6,245.4 C555.5,242 554,237.8 554,232.6 C554,227.4 555.5,223.1 558.6,219.8 C561.8,216.4 566,214.6 571.3,214.6 Z M571.3,246 C575.1,246 578.1,244.7 580.3,242.1 C582.4,239.6 583.4,236.5 583.4,232.7 C583.4,228.9 582.4,225.8 580.3,223.3 C578.1,220.7 575.1,219.4 571.3,219.4 C567.5,219.4 564.5,220.7 562.3,223.3 C560.2,225.8 559.1,228.9 559.1,232.7 C559.1,236.5 560.1,239.6 562.3,242.1 C564.5,244.7 567.5,246 571.3,246 Z" id="形状"></path>
                        <path d="M622.8,244.6 C620,248.7 615.8,250.8 610.3,250.8 C605.3,250.8 601.2,249 598,245.6 C594.9,242.1 593.4,237.9 593.4,232.8 C593.4,227.7 594.9,223.4 598,220 C601.2,216.5 605.4,214.8 610.7,214.8 C616,214.8 620,216.9 622.9,221 L622.9,215.3 L628.1,215.3 L628.1,250.3 L622.9,250.3 L622.9,244.6 L622.8,244.6 Z M611,246 C614.8,246 617.8,244.7 620,242.1 C622.1,239.6 623.1,236.5 623.1,232.7 C623.1,228.9 622.1,225.8 620,223.3 C617.8,220.7 614.8,219.4 611,219.4 C607.3,219.4 604.2,220.7 601.9,223.3 C599.7,225.8 598.6,228.9 598.6,232.7 C598.6,236.5 599.7,239.6 601.9,242.1 C604.2,244.7 607.3,246 611,246 Z" id="形状"></path>
                        <path d="M664.5,244.6 C661.7,248.7 657.5,250.8 652,250.8 C647,250.8 642.9,249 639.7,245.6 C636.6,242.1 635.1,237.9 635.1,232.8 C635.1,227.7 636.6,223.4 639.7,220 C642.9,216.5 647.1,214.8 652.4,214.8 C657.7,214.8 661.7,216.9 664.6,221 L664.6,201.3 L669.8,201.3 L669.8,250.3 L664.6,250.3 L664.6,244.6 L664.5,244.6 Z M652.7,246 C656.5,246 659.5,244.7 661.7,242.1 C663.8,239.6 664.8,236.5 664.8,232.7 C664.8,228.9 663.8,225.8 661.7,223.3 C659.5,220.7 656.5,219.4 652.7,219.4 C649,219.4 645.9,220.7 643.6,223.3 C641.4,225.8 640.3,228.9 640.3,232.7 C640.3,236.5 641.4,239.6 643.6,242.1 C645.9,244.7 648.9,246 652.7,246 Z" id="形状"></path>
                    </g>
                </g>
            </g>
        </g>
    </g>
</svg>