<?xml version="1.0" encoding="UTF-8"?>
<svg width="2268px" height="559px" viewBox="0 0 2268 559" version="1.1" xmlns="http://www.w3.org/2000/svg" xmlns:xlink="http://www.w3.org/1999/xlink">
    <!-- Generator: Sketch 57 (83077) - https://sketch.com -->
    <title>04</title>
    <desc>Created with Sketch.</desc>
    <g id="页面-1" stroke="none" stroke-width="1" fill="none" fill-rule="evenodd">
        <g id="Piraeus易拉宝" transform="translate(-179.000000, -2747.000000)" fill-rule="nonzero">
            <g id="图层_2" transform="translate(179.000000, 0.000000)">
                <rect id="矩形" fill="#1C3E7C" x="0.2" y="2742.2" width="2267.9" height="560"></rect>
                <g id="编组" transform="translate(0.000000, 277.000000)">
                    <g id="high-performance" transform="translate(232.000000, 2569.000000)" fill="#FFFFFF">
                        <g id="dashboard-_x28_3_x29_">
                            <g id="编组">
                                <g id="Group" transform="translate(4.000000, 4.000000)">
                                    <path d="M25.9,143.8 C25.1,141.9 22.9,140.9 20.9,141.7 L6.9,147.4 C7.8,149.8 8.7,152.1 9.7,154.4 L23.7,148.7 C25.8,147.9 26.7,145.7 25.9,143.8" id="Shape_20_"></path>
                                    <path d="M34.4,109.5 C34.4,107.4 32.7,105.7 30.6,105.7 L0.3,105.7 C0.3,107 0.2,108.2 0.2,109.5 C0.2,110.8 0.3,112 0.4,113.3 L30.6,113.3 C32.7,113.3 34.4,111.6 34.4,109.5" id="Shape_19_"></path>
                                    <path d="M26.3,74.4 C27.1,72.5 26.2,70.3 24.3,69.5 L10.4,63.7 C9.3,66 8.3,68.3 7.4,70.7 L21.4,76.5 C21.9,76.7 22.4,76.8 22.9,76.8 C24.3,76.7 25.7,75.8 26.3,74.4" id="Shape_18_"></path>
                                    <path d="M29.8,34.8 L40.5,45.4 C41.2,46.1 42.2,46.5 43.2,46.5 C44.2,46.5 45.1,46.1 45.9,45.4 C47.4,43.9 47.4,41.5 45.9,40.1 L35.2,29.5 C33.4,31.2 31.6,33 29.8,34.8" id="Shape_17_"></path>
                                    <path d="M71,23.5 C71.6,25 73,25.9 74.5,25.9 C75,25.9 75.5,25.8 75.9,25.6 C77.8,24.8 78.8,22.6 78,20.7 L72.3,6.7 C69.9,7.6 67.6,8.5 65.3,9.6 L71,23.5 Z" id="Shape_16_"></path>
                                    <path d="M110.4,34 C112.5,34 114.2,32.3 114.2,30.2 L114.2,0.1 C112.9,0.1 111.7,0 110.4,0 C109.1,0 107.9,0.1 106.6,0.1 L106.6,30.2 C106.6,32.3 108.3,34 110.4,34" id="Shape_15_"></path>
                                    <path d="M145.8,26 C146.3,26.2 146.8,26.3 147.3,26.3 C148.8,26.3 150.2,25.4 150.8,24 L156.7,10.1 C154.4,9 152.1,8.1 149.7,7.2 L143.8,21.1 C142.9,23 143.9,25.2 145.8,26" id="Shape_14_"></path>
                                    <path d="M185.6,29.5 L174.9,40.1 C173.4,41.6 173.4,44 174.9,45.4 C175.6,46.1 176.6,46.5 177.6,46.5 C178.6,46.5 179.5,46.1 180.3,45.4 L191,34.8 C189.2,33 187.4,31.2 185.6,29.5" id="Shape_5_"></path>
                                </g>
                                <g id="Group_1_" transform="translate(189.513514, 69.148810)">
                                    <path d="M13.5,12.5 L27.5,6.9 C26.6,4.6 25.6,2.3 24.6,0 L10.6,5.6 C8.7,6.4 7.7,8.6 8.5,10.5 C9.1,11.9 10.5,12.8 12,12.8 C12.6,12.8 13.1,12.7 13.5,12.5" id="Shape_4_"></path>
                                    <path d="M34.3,44.2 C34.3,43 34.2,41.7 34.2,40.5 L3.9,40.5 C1.8,40.5 0.1,42.2 0.1,44.2 C0.1,46.3 1.8,47.9 3.9,47.9 L34.1,47.9 C34.2,46.7 34.3,45.4 34.3,44.2" id="Shape_3_"></path>
                                    <path d="M27,82.6 L13.1,76.9 C11.2,76.1 8.9,77 8.1,78.9 C7.3,80.8 8.2,83 10.1,83.8 L24,89.5 C25.2,87.3 26.1,84.9 27,82.6" id="Shape_2_"></path>
                                </g>
                                <path d="M114,3.7 L114,7.2 C55.3,7.2 7.7,54.6 7.7,113.1 C7.7,136.7 15.5,159.1 29.6,177.5 L198.3,177.5 C212.4,159.1 220.2,136.7 220.2,113.1 C220.2,54.6 172.6,7.2 113.9,7.2 L113.9,3.7 L114,3.7 Z M114,3.7 L114,0.2 C176.6,0.2 227.4,50.8 227.4,113.2 C227.4,139 218.7,163.5 202.9,183.3 L201.8,184.6 L26.2,184.6 L25.1,183.3 C9.3,163.5 0.6,139 0.6,113.2 C0.6,50.8 51.4,0.2 114,0.2 L114,3.7 Z" id="Shape_1_"></path>
                                <path d="M79,167 C77,167 75.4,165.4 75.4,163.5 L75.4,141 C75.4,139 77,137.5 79,137.5 L146.7,137.5 C148.7,137.5 150.3,139.1 150.3,141 L150.3,163.5 C150.3,165.5 148.7,167 146.7,167 L79,167 Z M82.5,159.9 L143.1,159.9 L143.1,144.5 L82.5,144.5 L82.5,159.9 Z" id="Shape_12_"></path>
                                <path d="M112,84.6 C112.3,84.5 112.3,84.5 112.6,84.3 C122.4,79.6 126.7,77.3 131.9,74.2 L149.6,63.4 C152.8,61.5 156.4,65 154.5,68.2 L143.9,86.3 C140.8,91.6 138.6,96 133.9,106 C133.8,106.2 133.8,106.2 133.7,106.4 C132.3,109.4 131.6,110.9 130.7,112.7 C127,120.5 118.5,124.8 109.7,122.8 C103,121.2 97.6,115.7 96,108.9 C94,100.1 98.2,91.5 105.9,87.7 C107.7,86.7 109.2,86 112,84.6 Z M103,107.3 C103.9,111.5 107.3,114.9 111.3,115.8 C116.7,117.1 121.9,114.4 124.2,109.6 C125,107.9 125.7,106.3 127.1,103.4 C127.2,103.2 127.2,103.2 127.3,103 C132.1,92.8 134.4,88.2 137.6,82.7 L141,76.9 L135.4,80.3 C130,83.6 125.5,85.9 115.5,90.8 C115.2,90.9 115.2,90.9 114.9,91.1 C112.1,92.4 110.6,93.2 108.9,94 C104.4,96.3 101.8,101.7 103,107.3 Z" id="Shape_13_"></path>
                                <path d="M39.8,204.7 C37.8,204.7 36.2,203.1 36.2,201.2 C36.2,199.3 37.8,197.7 39.8,197.7 L190.6,197.7 C192.6,197.7 194.2,199.3 194.2,201.2 C194.2,203.1 192.6,204.7 190.6,204.7 L39.8,204.7 Z" id="Path-2"></path>
                            </g>
                        </g>
                    </g>
                    <g transform="translate(670.000000, 2701.000000)" fill="#FFFFFF">
                        <path d="M23.9,3.2 C26.7,3.2 29.3,3.7 31.9,4.8 C34.5,5.9 36.7,7.4 38.7,9.4 C43,13.8 45.2,19.5 45.2,26.4 C45.2,33.3 43,39 38.7,43.4 C36.7,45.4 34.5,46.9 31.9,48 C29.3,49.1 26.7,49.6 23.9,49.6 L4.4,49.6 L4.4,3.3 L23.9,3.3 L23.9,3.2 Z M23.7,44.5 C28.6,44.5 32.5,42.7 35.5,39.1 C38.4,35.6 39.9,31.4 39.9,26.3 C39.9,21.2 38.4,16.9 35.5,13.5 C32.5,9.9 28.5,8.1 23.7,8.1 L9.6,8.1 L9.6,44.5 L23.7,44.5 L23.7,44.5 Z" id="形状"></path>
                        <path d="M58.9,49.5 L53.7,49.5 L53.7,3.2 L75.9,3.2 C80.6,3.2 84.4,4.5 87.2,7.1 C90,9.7 91.5,13.2 91.5,17.7 C91.5,23.5 89.1,27.4 84.3,29.5 C82.9,30.1 81.6,30.5 80.3,30.8 L92.5,49.5 L86.3,49.5 L75.1,31.7 L59,31.7 L59,49.5 L58.9,49.5 Z M58.9,26.7 L74.9,26.7 C79.8,26.7 83.3,25.2 85.1,22.1 C85.8,20.9 86.1,19.4 86.1,17.6 C86.1,14.7 85.1,12.3 83.1,10.6 C81.1,8.9 78.4,8 75.1,8 L58.8,8 L58.8,26.7 L58.9,26.7 Z" id="形状"></path>
                        <path d="M135.9,15.4 C135.9,20.5 133.8,24 129.7,25.8 C133.5,27.1 136.1,29.4 137.5,32.7 C138,34 138.3,35.5 138.3,37.2 C138.3,42.8 135.3,46.5 129.4,48.4 C127.4,49.1 125.1,49.4 122.5,49.4 L100.5,49.4 L100.5,3.1 L121.3,3.1 C126.3,3.1 130.1,4.5 132.7,7.2 C134.9,9.4 135.9,12.1 135.9,15.4 Z M105.8,23.9 L121.3,23.9 C125.6,23.9 128.5,22.4 129.9,19.5 C130.4,18.5 130.7,17.4 130.7,16.2 C130.7,15 130.5,14 130.2,13 C129.9,12 129.4,11.3 128.7,10.6 C127.2,9 124.9,8.1 121.9,8.1 L105.8,8.1 L105.8,23.9 Z M123.1,44.5 C126.3,44.5 128.8,43.8 130.5,42.5 C132.2,41.2 133.1,39.3 133.1,36.9 C133.1,34.6 132.3,32.7 130.6,31.2 C128.7,29.5 126.1,28.7 122.6,28.7 L105.9,28.7 L105.9,44.6 L123.1,44.6 L123.1,44.5 Z" id="形状"></path>
                        <path d="M166.4,3.2 C169.2,3.2 171.8,3.7 174.4,4.8 C177,5.9 179.2,7.4 181.2,9.4 C185.5,13.8 187.7,19.5 187.7,26.4 C187.7,33.3 185.5,39 181.2,43.4 C179.2,45.4 177,46.9 174.4,48 C171.8,49.1 169.2,49.6 166.4,49.6 L146.9,49.6 L146.9,3.3 L166.4,3.3 L166.4,3.2 Z M166.2,44.5 C171.1,44.5 175,42.7 178,39.1 C180.9,35.6 182.4,31.4 182.4,26.3 C182.4,21.2 180.9,16.9 178,13.5 C175,9.9 171,8.1 166.2,8.1 L152.1,8.1 L152.1,44.5 L166.2,44.5 L166.2,44.5 Z" id="形状"></path>
                        <polygon id="路径" points="194.2 26.3 211.7 26.3 211.7 31.4 194.2 31.4"></polygon>
                        <path d="M225,38.7 C226.3,42.9 229.1,44.9 233.3,44.9 C237.4,44.9 240.5,43.1 242.7,39.4 C244.7,36.1 245.6,31.7 245.6,26.1 C244.5,28.1 242.8,29.6 240.7,30.9 C238.5,32.1 236.2,32.7 233.8,32.7 C231.4,32.7 229.2,32.3 227.3,31.6 C225.4,30.9 223.7,29.8 222.3,28.5 C219.2,25.6 217.7,22 217.7,17.7 C217.7,13.5 219.3,9.9 222.4,6.9 C225.4,4.1 229.2,2.6 233.7,2.6 C239.3,2.6 243.6,4.6 246.5,8.7 C249.4,12.8 250.8,18.7 250.8,26.3 C250.8,37.7 247.5,45.1 240.9,48.3 C238.7,49.4 236.3,50 233.7,50 C231.1,50 229,49.7 227.4,49 C225.8,48.3 224.4,47.5 223.3,46.4 C221.1,44.3 219.6,41.8 219,38.6 L225,38.6 L225,38.7 Z M233.7,27.7 C235.1,27.7 236.5,27.5 237.8,27 C239.1,26.5 240.3,25.9 241.2,25 C243.3,23.2 244.3,20.8 244.3,18 C244.3,15 243.3,12.5 241.2,10.6 C239.2,8.7 236.7,7.7 233.6,7.7 C230.6,7.7 228.1,8.6 226,10.5 C223.9,12.4 222.8,14.8 222.8,17.6 C222.8,20.4 223.8,22.8 226,24.8 C228.3,26.8 230.8,27.7 233.7,27.7 Z" id="形状"></path>
                        <path d="M300.6,43.9 C297.8,48 293.6,50.1 288.1,50.1 C283.1,50.1 279,48.3 275.8,44.9 C272.7,41.4 271.2,37.2 271.2,32.1 C271.2,27 272.7,22.7 275.8,19.3 C279,15.8 283.2,14.1 288.5,14.1 C293.8,14.1 297.8,16.2 300.7,20.3 L300.7,0.6 L305.9,0.6 L305.9,49.6 L300.7,49.6 L300.7,43.9 L300.6,43.9 Z M288.8,45.3 C292.6,45.3 295.6,44 297.8,41.4 C299.9,38.9 300.9,35.8 300.9,32 C300.9,28.2 299.9,25.1 297.8,22.6 C295.6,20 292.6,18.7 288.8,18.7 C285.1,18.7 282,20 279.7,22.6 C277.5,25.1 276.4,28.2 276.4,32 C276.4,35.8 277.5,38.9 279.7,41.4 C282,44 285.1,45.3 288.8,45.3 Z" id="形状"></path>
                        <path d="M330.6,45.3 C335.3,45.3 338.7,43.3 340.7,39.4 L346.4,39.4 C345.2,42.6 343.3,45.1 340.6,47.1 C338,49.1 334.6,50 330.4,50 C325.1,50 320.8,48.2 317.5,44.8 C314.3,41.4 312.7,37.1 312.7,32 C312.7,26.8 314.2,22.5 317.3,19.2 C320.6,15.7 324.8,14 330,14 C335.2,14 339.5,15.8 342.7,19.2 C345.8,22.6 347.3,26.8 347.3,32 L347.3,34.1 L318,34.1 C318.4,37.3 319.7,40 321.9,42.1 C324.3,44.2 327.1,45.3 330.6,45.3 Z M330.2,18.7 C327,18.7 324.3,19.7 322.1,21.7 C320,23.6 318.8,26.1 318.3,29.2 L342.1,29.2 C341.6,26.1 340.4,23.6 338.3,21.7 C336.1,19.7 333.4,18.7 330.2,18.7 Z" id="形状"></path>
                        <polygon id="路径" points="359.2 49.5 354 49.5 354 0.5 359.2 0.5"></polygon>
                        <path d="M373.8,1.8 L373.8,8.7 L368.1,8.7 L368.1,1.8 L373.8,1.8 Z M368.3,14.5 L373.5,14.5 L373.5,49.5 L368.3,49.5 L368.3,14.5 Z" id="形状"></path>
                        <polygon id="路径" points="412 14.5 398.4 49.5 392.2 49.5 378.5 14.5 384.2 14.5 395.3 43.9 406.3 14.5"></polygon>
                        <path d="M432.1,45.3 C436.8,45.3 440.2,43.3 442.2,39.4 L447.9,39.4 C446.7,42.6 444.8,45.1 442.1,47.1 C439.5,49.1 436.1,50 431.9,50 C426.6,50 422.3,48.2 419,44.8 C415.8,41.4 414.2,37.1 414.2,32 C414.2,26.8 415.7,22.5 418.8,19.2 C422.1,15.7 426.3,14 431.5,14 C436.7,14 441,15.8 444.2,19.2 C447.3,22.6 448.8,26.8 448.8,32 L448.8,34.1 L419.5,34.1 C419.9,37.3 421.2,40 423.4,42.1 C425.8,44.2 428.6,45.3 432.1,45.3 Z M431.7,18.7 C428.5,18.7 425.8,19.7 423.6,21.7 C421.5,23.6 420.3,26.1 419.8,29.2 L443.6,29.2 C443.1,26.1 441.9,23.6 439.8,21.7 C437.6,19.7 434.9,18.7 431.7,18.7 Z" id="形状"></path>
                        <path d="M474,13.9 L474,19.1 L473.4,19.1 C469.6,19.1 466.5,20.6 464.2,23.6 C462,26.5 460.8,29.9 460.8,34 L460.8,49.4 L455.6,49.4 L455.6,14.4 L460.8,14.4 L460.8,23 C461.9,19.4 464.3,16.7 468.1,15 C469.6,14.3 471.5,13.9 473.7,13.9 L474,13.9 Z" id="路径"></path>
                        <path d="M500.2,23.9 C499.7,20.3 496.8,18.4 491.4,18.4 C486,18.4 483.3,20.1 483.3,23.4 C483.3,24.8 483.9,25.9 485,26.6 C486.1,27.3 487.6,27.9 489.3,28.4 C491,28.9 492.9,29.3 494.9,29.7 C496.9,30.1 498.8,30.7 500.5,31.4 C502.2,32.1 503.7,33.1 504.8,34.4 C505.9,35.7 506.5,37.4 506.5,39.6 C506.5,43 505.2,45.6 502.6,47.4 C500,49.2 496.6,50.1 492.2,50.1 C487.5,50.1 483.8,48.9 481.1,46.6 C478.6,44.5 477.2,41.9 477,38.5 L482.5,38.5 C482.8,41.7 484.6,43.9 488,45 C489.2,45.4 490.4,45.6 491.6,45.6 C492.8,45.6 493.9,45.5 494.9,45.4 C495.9,45.3 496.9,45 497.9,44.6 C500.1,43.7 501.3,42.2 501.3,40 C501.3,38.6 500.7,37.4 499.6,36.7 C498.5,35.9 497,35.3 495.3,34.8 C493.6,34.3 491.7,33.9 489.7,33.5 C487.7,33.1 485.8,32.6 484.1,31.9 C482.4,31.2 480.9,30.2 479.8,29 C478.7,27.8 478.1,26.1 478.1,24 C478.1,20.8 479.3,18.4 481.6,16.6 C483.9,14.8 487.3,14 491.9,14 C496.2,14 499.6,15 502,17.1 C504.1,18.8 505.2,21.1 505.6,24 L500.2,24 L500.2,23.9 Z" id="路径"></path>
                        <path d="M548.9,23.9 C548.4,20.3 545.5,18.4 540.1,18.4 C534.7,18.4 532,20.1 532,23.4 C532,24.8 532.6,25.9 533.7,26.6 C534.8,27.3 536.3,27.9 538,28.4 C539.7,28.9 541.6,29.3 543.6,29.7 C545.6,30.1 547.5,30.7 549.2,31.4 C550.9,32.1 552.4,33.1 553.5,34.4 C554.6,35.7 555.2,37.4 555.2,39.6 C555.2,43 553.9,45.6 551.3,47.4 C548.7,49.2 545.3,50.1 540.9,50.1 C536.2,50.1 532.5,48.9 529.8,46.6 C527.3,44.5 525.9,41.9 525.7,38.5 L531.2,38.5 C531.5,41.7 533.3,43.9 536.7,45 C537.9,45.4 539.1,45.6 540.3,45.6 C541.5,45.6 542.6,45.5 543.6,45.4 C544.6,45.3 545.6,45 546.6,44.6 C548.8,43.7 550,42.2 550,40 C550,38.6 549.4,37.4 548.3,36.7 C547.2,35.9 545.7,35.3 544,34.8 C542.3,34.3 540.4,33.9 538.4,33.5 C536.4,33.1 534.5,32.6 532.8,31.9 C531.1,31.2 529.6,30.2 528.5,29 C527.4,27.8 526.8,26.1 526.8,24 C526.8,20.8 528,18.4 530.3,16.6 C532.6,14.8 536,14 540.6,14 C544.9,14 548.3,15 550.7,17.1 C552.8,18.8 553.9,21.1 554.3,24 L548.9,24 L548.9,23.9 Z" id="路径"></path>
                        <polygon id="路径" points="571.3 63.4 565.6 63.4 572 49 557.7 14.5 563.5 14.5 574.8 43.2 586.3 14.5 592 14.5"></polygon>
                        <path d="M602.1,14.5 L602.1,20 C603.4,18.3 604.9,16.9 606.7,15.7 C608.5,14.5 610.6,13.9 612.9,13.9 C615.2,13.9 617.2,14.2 618.9,14.9 C620.6,15.6 622.1,16.5 623.3,17.8 C626.2,20.6 627.6,24.4 627.6,29.1 L627.6,49.5 L622.4,49.5 L622.4,29.3 C622.4,26.1 621.5,23.5 619.7,21.6 C617.9,19.7 615.5,18.7 612.6,18.7 C609.7,18.7 607.2,19.7 605.1,21.6 C603,23.6 602,26.2 602,29.3 L602,49.5 L596.8,49.5 L596.8,14.5 L602.1,14.5 Z" id="路径"></path>
                        <path d="M652.6,45.3 C654.8,45.3 656.8,44.7 658.6,43.4 C660.3,42.1 661.6,40.5 662.4,38.5 L668.1,38.5 C667,42 665.1,44.7 662.2,46.8 C659.2,48.9 655.7,50 651.6,50 C646.5,50 642.3,48.2 639.1,44.8 C636,41.4 634.4,37.1 634.4,32 C634.4,26.9 636,22.6 639.1,19.2 C642.3,15.7 646.5,14 651.6,14 C655.7,14 659.3,15.1 662.2,17.2 C665,19.3 667,22.1 668.1,25.5 L662.4,25.5 C661.6,23.5 660.3,21.9 658.6,20.6 C656.9,19.3 654.9,18.7 652.6,18.7 C650.4,18.7 648.5,19 646.9,19.7 C645.3,20.4 644,21.4 642.9,22.6 C640.6,25.1 639.5,28.2 639.5,32 C639.5,35.7 640.6,38.9 642.9,41.4 C645.3,44 648.5,45.3 652.6,45.3 Z" id="路径"></path>
                        <path d="M679.7,0.5 L679.7,20 C681,18.3 682.5,16.9 684.3,15.7 C686.1,14.5 688.2,13.9 690.5,13.9 C692.8,13.9 694.8,14.2 696.5,14.9 C698.2,15.6 699.7,16.5 700.9,17.8 C703.8,20.6 705.2,24.4 705.2,29.1 L705.2,49.5 L700,49.5 L700,29.3 C700,26.1 699.1,23.5 697.3,21.6 C695.5,19.7 693.1,18.7 690.2,18.7 C687.3,18.7 684.8,19.7 682.7,21.6 C680.6,23.6 679.6,26.2 679.6,29.3 L679.6,49.5 L674.4,49.5 L674.4,0.5 L679.7,0.5 Z" id="路径"></path>
                        <path d="M732.6,13.9 L732.6,19.1 L732,19.1 C728.2,19.1 725.1,20.6 722.8,23.6 C720.6,26.5 719.4,29.9 719.4,34 L719.4,49.4 L714.2,49.4 L714.2,14.4 L719.4,14.4 L719.4,23 C720.5,19.4 722.9,16.7 726.7,15 C728.2,14.3 730.1,13.9 732.3,13.9 L732.6,13.9 Z" id="路径"></path>
                        <path d="M752.5,13.9 C757.7,13.9 762,15.7 765.2,19.1 C768.3,22.5 769.8,26.7 769.8,31.9 C769.8,37.1 768.3,41.4 765.2,44.7 C761.9,48.2 757.7,49.9 752.5,49.9 C747.3,49.9 743,48.1 739.8,44.7 C736.7,41.3 735.2,37.1 735.2,31.9 C735.2,26.7 736.7,22.4 739.8,19.1 C743.1,15.7 747.3,13.9 752.5,13.9 Z M752.5,45.3 C756.3,45.3 759.3,44 761.5,41.4 C763.6,38.9 764.6,35.8 764.6,32 C764.6,28.2 763.6,25.1 761.5,22.6 C759.3,20 756.3,18.7 752.5,18.7 C748.7,18.7 745.7,20 743.5,22.6 C741.4,25.1 740.3,28.2 740.3,32 C740.3,35.8 741.3,38.9 743.5,41.4 C745.8,44 748.8,45.3 752.5,45.3 Z" id="形状"></path>
                        <path d="M782.1,14.5 L782.1,20 C783.4,18.3 784.9,16.9 786.7,15.7 C788.5,14.5 790.6,13.9 792.9,13.9 C795.2,13.9 797.2,14.2 798.9,14.9 C800.6,15.6 802.1,16.5 803.3,17.8 C806.2,20.6 807.6,24.4 807.6,29.1 L807.6,49.5 L802.4,49.5 L802.4,29.3 C802.4,26.1 801.5,23.5 799.7,21.6 C797.9,19.7 795.5,18.7 792.6,18.7 C789.7,18.7 787.2,19.7 785.1,21.6 C783,23.6 782,26.2 782,29.3 L782,49.5 L776.8,49.5 L776.8,14.5 L782.1,14.5 Z" id="路径"></path>
                        <path d="M831.6,13.9 C836.8,13.9 841.1,15.7 844.3,19.1 C847.4,22.5 848.9,26.7 848.9,31.9 C848.9,37.1 847.4,41.4 844.3,44.7 C841,48.2 836.8,49.9 831.6,49.9 C826.4,49.9 822.1,48.1 818.9,44.7 C815.8,41.3 814.3,37.1 814.3,31.9 C814.3,26.7 815.8,22.4 818.9,19.1 C822.2,15.7 826.4,13.9 831.6,13.9 Z M831.6,45.3 C835.4,45.3 838.4,44 840.6,41.4 C842.7,38.9 843.7,35.8 843.7,32 C843.7,28.2 842.7,25.1 840.6,22.6 C838.4,20 835.4,18.7 831.6,18.7 C827.8,18.7 824.8,20 822.6,22.6 C820.5,25.1 819.4,28.2 819.4,32 C819.4,35.8 820.4,38.9 822.6,41.4 C824.9,44 827.9,45.3 831.6,45.3 Z" id="形状"></path>
                        <path d="M881.2,49.5 L881.2,44 C879.9,45.7 878.4,47.1 876.6,48.3 C874.8,49.5 872.7,50.1 870.4,50.1 C868.1,50.1 866.1,49.8 864.4,49.1 C862.7,48.4 861.2,47.5 860,46.2 C857.1,43.4 855.7,39.6 855.7,34.9 L855.7,14.5 L860.9,14.5 L860.9,34.7 C860.9,37.9 861.8,40.5 863.6,42.4 C865.4,44.3 867.8,45.3 870.7,45.3 C873.6,45.3 876.1,44.3 878.2,42.4 C880.3,40.4 881.3,37.8 881.3,34.7 L881.3,14.5 L886.5,14.5 L886.5,49.5 L881.2,49.5 Z" id="路径"></path>
                        <path d="M916.1,23.9 C915.6,20.3 912.7,18.4 907.3,18.4 C901.9,18.4 899.2,20.1 899.2,23.4 C899.2,24.8 899.8,25.9 900.9,26.6 C902,27.3 903.5,27.9 905.2,28.4 C906.9,28.9 908.8,29.3 910.8,29.7 C912.8,30.1 914.7,30.7 916.4,31.4 C918.1,32.1 919.6,33.1 920.7,34.4 C921.8,35.7 922.4,37.4 922.4,39.6 C922.4,43 921.1,45.6 918.5,47.4 C915.9,49.2 912.5,50.1 908.1,50.1 C903.4,50.1 899.7,48.9 897,46.6 C894.5,44.5 893.1,41.9 892.9,38.5 L898.4,38.5 C898.7,41.7 900.5,43.9 903.9,45 C905.1,45.4 906.3,45.6 907.5,45.6 C908.7,45.6 909.8,45.5 910.8,45.4 C911.8,45.3 912.8,45 913.8,44.6 C916,43.7 917.2,42.2 917.2,40 C917.2,38.6 916.6,37.4 915.5,36.7 C914.4,35.9 912.9,35.3 911.2,34.8 C909.5,34.3 907.6,33.9 905.6,33.5 C903.6,33.1 901.7,32.6 900,31.9 C898.3,31.2 896.8,30.2 895.7,29 C894.6,27.8 894,26.1 894,24 C894,20.8 895.2,18.4 897.5,16.6 C899.8,14.8 903.2,14 907.8,14 C912.1,14 915.5,15 917.9,17.1 C920,18.8 921.1,21.1 921.5,24 L916.1,24 L916.1,23.9 Z" id="路径"></path>
                        <polygon id="路径" points="929.6 43.9 936.5 43.9 930.3 58.8 925.5 58.8"></polygon>
                        <path d="M23.9,123.9 C23.4,120.3 20.5,118.4 15.1,118.4 C9.7,118.4 7,120.1 7,123.4 C7,124.8 7.6,125.9 8.7,126.6 C9.8,127.3 11.3,127.9 13,128.4 C14.7,128.9 16.6,129.3 18.6,129.7 C20.6,130.1 22.5,130.7 24.2,131.4 C25.9,132.1 27.4,133.1 28.5,134.4 C29.6,135.7 30.2,137.4 30.2,139.6 C30.2,143 28.9,145.6 26.3,147.4 C23.7,149.2 20.3,150.1 15.9,150.1 C11.2,150.1 7.5,148.9 4.8,146.6 C2.3,144.5 0.9,141.9 0.7,138.5 L6.2,138.5 C6.5,141.7 8.3,143.9 11.7,145 C12.9,145.4 14.1,145.6 15.3,145.6 C16.5,145.6 17.6,145.5 18.6,145.4 C19.6,145.3 20.6,145 21.6,144.6 C23.8,143.7 25,142.2 25,140 C25,138.6 24.4,137.4 23.3,136.7 C22.2,135.9 20.7,135.3 19,134.8 C17.3,134.3 15.4,133.9 13.4,133.5 C11.4,133.1 9.5,132.6 7.8,131.9 C6.1,131.2 4.6,130.2 3.5,129 C2.4,127.8 1.8,126.1 1.8,124 C1.8,120.8 3,118.4 5.3,116.6 C7.6,114.8 11,114 15.6,114 C19.9,114 23.3,115 25.7,117.1 C27.8,118.8 28.9,121.1 29.3,124 L23.9,124 L23.9,123.9 Z" id="路径"></path>
                        <path d="M52.6,145.3 C57.3,145.3 60.7,143.3 62.7,139.4 L68.4,139.4 C67.2,142.6 65.3,145.1 62.6,147.1 C60,149.1 56.6,150 52.4,150 C47.1,150 42.8,148.2 39.5,144.8 C36.3,141.4 34.7,137.1 34.7,132 C34.7,126.8 36.2,122.5 39.3,119.2 C42.6,115.7 46.8,114 52,114 C57.2,114 61.5,115.8 64.7,119.2 C67.8,122.6 69.3,126.8 69.3,132 L69.3,134.1 L40,134.1 C40.4,137.3 41.7,140 43.9,142.1 C46.3,144.2 49.2,145.3 52.6,145.3 Z M52.2,118.7 C49,118.7 46.3,119.7 44.1,121.7 C42,123.6 40.8,126.1 40.3,129.2 L64.1,129.2 C63.6,126.1 62.4,123.6 60.3,121.7 C58.1,119.7 55.4,118.7 52.2,118.7 Z" id="形状"></path>
                        <path d="M81.3,119.8 C83.6,115.9 87.2,113.9 91.9,113.9 C94.2,113.9 96.4,114.5 98.4,115.8 C100.4,117 101.9,118.8 103.1,121 C104.7,118.1 107.2,116 110.5,114.7 C111.9,114.2 113.4,113.9 115.1,113.9 C116.8,113.9 118.4,114.2 120,114.9 C121.6,115.6 123,116.5 124.2,117.8 C126.8,120.6 128.1,124.1 128.1,128.3 L128.1,149.4 L122.9,149.4 L122.9,128.4 C122.9,125.5 122.1,123.1 120.5,121.3 C118.9,119.5 116.8,118.6 114.3,118.6 C111.6,118.6 109.4,119.5 107.7,121.2 C105.8,123 104.9,125.4 104.9,128.5 L104.9,149.4 L99.7,149.4 L99.7,128.4 C99.7,125.5 98.9,123.1 97.3,121.3 C95.7,119.5 93.6,118.6 91.1,118.6 C88.4,118.6 86.2,119.5 84.4,121.2 C82.5,123 81.6,125.4 81.6,128.5 L81.6,149.4 L76,149.4 L76,114.4 L81.2,114.4 L81.2,119.8 L81.3,119.8 Z" id="路径"></path>
                        <path d="M142.2,101.8 L142.2,108.7 L136.5,108.7 L136.5,101.8 L142.2,101.8 Z M136.8,114.5 L142,114.5 L142,149.5 L136.8,149.5 L136.8,114.5 Z" id="形状"></path>
                        <polygon id="路径" points="150.3 126.3 167.8 126.3 167.8 131.4 150.3 131.4"></polygon>
                        <path d="M196.6,123.9 C196.1,120.3 193.2,118.4 187.8,118.4 C182.4,118.4 179.7,120.1 179.7,123.4 C179.7,124.8 180.3,125.9 181.4,126.6 C182.5,127.3 184,127.9 185.7,128.4 C187.4,128.9 189.3,129.3 191.3,129.7 C193.3,130.1 195.2,130.7 196.9,131.4 C198.6,132.1 200.1,133.1 201.2,134.4 C202.3,135.7 202.9,137.4 202.9,139.6 C202.9,143 201.6,145.6 199,147.4 C196.4,149.2 193,150.1 188.6,150.1 C183.9,150.1 180.2,148.9 177.5,146.6 C175,144.5 173.6,141.9 173.4,138.5 L178.9,138.5 C179.2,141.7 181,143.9 184.4,145 C185.6,145.4 186.8,145.6 188,145.6 C189.2,145.6 190.3,145.5 191.3,145.4 C192.3,145.3 193.3,145 194.3,144.6 C196.5,143.7 197.7,142.2 197.7,140 C197.7,138.6 197.1,137.4 196,136.7 C194.9,135.9 193.4,135.3 191.7,134.8 C190,134.3 188.1,133.9 186.1,133.5 C184.1,133.1 182.2,132.6 180.5,131.9 C178.8,131.2 177.3,130.2 176.2,129 C175.1,127.8 174.5,126.1 174.5,124 C174.5,120.8 175.7,118.4 178,116.6 C180.3,114.8 183.7,114 188.3,114 C192.6,114 196,115 198.4,117.1 C200.5,118.8 201.6,121.1 202,124 L196.6,124 L196.6,123.9 Z" id="路径"></path>
                        <polygon id="路径" points="219.1 163.4 213.4 163.4 219.8 149 205.5 114.5 211.3 114.5 222.6 143.2 234.1 114.5 239.8 114.5"></polygon>
                        <path d="M249.8,114.5 L249.8,120 C251.1,118.3 252.6,116.9 254.4,115.7 C256.2,114.5 258.3,113.9 260.6,113.9 C262.9,113.9 264.9,114.2 266.6,114.9 C268.3,115.6 269.8,116.5 271,117.8 C273.9,120.6 275.3,124.4 275.3,129.1 L275.3,149.5 L270.1,149.5 L270.1,129.3 C270.1,126.1 269.2,123.5 267.4,121.6 C265.6,119.7 263.2,118.7 260.3,118.7 C257.4,118.7 254.9,119.7 252.8,121.6 C250.7,123.6 249.7,126.2 249.7,129.3 L249.7,149.5 L244.5,149.5 L244.5,114.5 L249.8,114.5 Z" id="路径"></path>
                        <path d="M300.4,145.3 C302.6,145.3 304.6,144.7 306.4,143.4 C308.1,142.1 309.4,140.5 310.2,138.5 L315.9,138.5 C314.8,142 312.9,144.7 310,146.8 C307,148.9 303.5,150 299.4,150 C294.3,150 290.1,148.2 286.9,144.8 C283.8,141.4 282.2,137.1 282.2,132 C282.2,126.9 283.8,122.6 286.9,119.2 C290.1,115.7 294.3,114 299.4,114 C303.5,114 307.1,115.1 310,117.2 C312.8,119.3 314.8,122.1 315.9,125.5 L310.2,125.5 C309.4,123.5 308.1,121.9 306.4,120.6 C304.7,119.3 302.7,118.7 300.4,118.7 C298.2,118.7 296.3,119 294.7,119.7 C293.1,120.4 291.8,121.4 290.7,122.6 C288.4,125.1 287.3,128.2 287.3,132 C287.3,135.7 288.4,138.9 290.7,141.4 C293,144 296.3,145.3 300.4,145.3 Z" id="路径"></path>
                        <path d="M327.5,100.5 L327.5,120 C328.8,118.3 330.3,116.9 332.1,115.7 C333.9,114.5 336,113.9 338.3,113.9 C340.6,113.9 342.6,114.2 344.3,114.9 C346,115.6 347.5,116.5 348.7,117.8 C351.6,120.6 353,124.4 353,129.1 L353,149.5 L347.8,149.5 L347.8,129.3 C347.8,126.1 346.9,123.5 345.1,121.6 C343.3,119.7 340.9,118.7 338,118.7 C335.1,118.7 332.6,119.7 330.5,121.6 C328.4,123.6 327.4,126.2 327.4,129.3 L327.4,149.5 L322.2,149.5 L322.2,100.5 L327.5,100.5 Z" id="路径"></path>
                        <path d="M380.4,113.9 L380.4,119.1 L379.8,119.1 C376,119.1 372.9,120.6 370.6,123.6 C368.4,126.5 367.2,129.9 367.2,134 L367.2,149.4 L362,149.4 L362,114.4 L367.2,114.4 L367.2,123 C368.3,119.4 370.7,116.7 374.5,115 C376,114.3 377.9,113.9 380.1,113.9 L380.4,113.9 Z" id="路径"></path>
                        <path d="M400.3,113.9 C405.5,113.9 409.8,115.7 413,119.1 C416.1,122.5 417.6,126.7 417.6,131.9 C417.6,137.1 416.1,141.4 413,144.7 C409.7,148.2 405.5,149.9 400.3,149.9 C395.1,149.9 390.8,148.1 387.6,144.7 C384.5,141.3 383,137.1 383,131.9 C383,126.7 384.5,122.4 387.6,119.1 C390.8,115.7 395.1,113.9 400.3,113.9 Z M400.3,145.3 C404.1,145.3 407.1,144 409.3,141.4 C411.4,138.9 412.4,135.8 412.4,132 C412.4,128.2 411.4,125.1 409.3,122.6 C407.1,120 404.1,118.7 400.3,118.7 C396.5,118.7 393.5,120 391.3,122.6 C389.2,125.1 388.1,128.2 388.1,132 C388.1,135.8 389.1,138.9 391.3,141.4 C393.5,144 396.5,145.3 400.3,145.3 Z" id="形状"></path>
                        <path d="M429.9,114.5 L429.9,120 C431.2,118.3 432.7,116.9 434.5,115.7 C436.3,114.5 438.4,113.9 440.7,113.9 C443,113.9 445,114.2 446.7,114.9 C448.4,115.6 449.9,116.5 451.1,117.8 C454,120.6 455.4,124.4 455.4,129.1 L455.4,149.5 L450.2,149.5 L450.2,129.3 C450.2,126.1 449.3,123.5 447.5,121.6 C445.7,119.7 443.3,118.7 440.4,118.7 C437.5,118.7 435,119.7 432.9,121.6 C430.8,123.6 429.8,126.2 429.8,129.3 L429.8,149.5 L424.6,149.5 L424.6,114.5 L429.9,114.5 Z" id="路径"></path>
                        <path d="M479.4,113.9 C484.6,113.9 488.9,115.7 492.1,119.1 C495.2,122.5 496.7,126.7 496.7,131.9 C496.7,137.1 495.2,141.4 492.1,144.7 C488.8,148.2 484.6,149.9 479.4,149.9 C474.2,149.9 469.9,148.1 466.7,144.7 C463.6,141.3 462.1,137.1 462.1,131.9 C462.1,126.7 463.6,122.4 466.7,119.1 C469.9,115.7 474.2,113.9 479.4,113.9 Z M479.4,145.3 C483.2,145.3 486.2,144 488.4,141.4 C490.5,138.9 491.5,135.8 491.5,132 C491.5,128.2 490.5,125.1 488.4,122.6 C486.2,120 483.2,118.7 479.4,118.7 C475.6,118.7 472.6,120 470.4,122.6 C468.3,125.1 467.2,128.2 467.2,132 C467.2,135.8 468.2,138.9 470.4,141.4 C472.6,144 475.6,145.3 479.4,145.3 Z" id="形状"></path>
                        <path d="M529,149.5 L529,144 C527.7,145.7 526.2,147.1 524.4,148.3 C522.6,149.5 520.5,150.1 518.2,150.1 C515.9,150.1 513.9,149.8 512.2,149.1 C510.5,148.4 509,147.5 507.8,146.2 C504.9,143.4 503.5,139.6 503.5,134.9 L503.5,114.5 L508.7,114.5 L508.7,134.7 C508.7,137.9 509.6,140.5 511.4,142.4 C513.2,144.3 515.6,145.3 518.5,145.3 C521.4,145.3 523.9,144.3 526,142.4 C528.1,140.4 529.1,137.8 529.1,134.7 L529.1,114.5 L534.3,114.5 L534.3,149.5 L529,149.5 Z" id="路径"></path>
                        <path d="M563.9,123.9 C563.4,120.3 560.5,118.4 555.1,118.4 C549.7,118.4 547,120.1 547,123.4 C547,124.8 547.6,125.9 548.7,126.6 C549.8,127.3 551.3,127.9 553,128.4 C554.7,128.9 556.6,129.3 558.6,129.7 C560.6,130.1 562.5,130.7 564.2,131.4 C565.9,132.1 567.4,133.1 568.5,134.4 C569.6,135.7 570.2,137.4 570.2,139.6 C570.2,143 568.9,145.6 566.3,147.4 C563.7,149.2 560.3,150.1 555.9,150.1 C551.2,150.1 547.5,148.9 544.8,146.6 C542.3,144.5 540.9,141.9 540.7,138.5 L546.2,138.5 C546.5,141.7 548.3,143.9 551.7,145 C552.9,145.4 554.1,145.6 555.3,145.6 C556.5,145.6 557.6,145.5 558.6,145.4 C559.6,145.3 560.6,145 561.6,144.6 C563.8,143.7 565,142.2 565,140 C565,138.6 564.4,137.4 563.3,136.7 C562.2,135.9 560.7,135.3 559,134.8 C557.3,134.3 555.4,133.9 553.4,133.5 C551.4,133.1 549.5,132.6 547.8,131.9 C546.1,131.2 544.6,130.2 543.5,129 C542.4,127.8 541.8,126.1 541.8,124 C541.8,120.8 543,118.4 545.3,116.6 C547.6,114.8 551,114 555.6,114 C559.9,114 563.3,115 565.7,117.1 C567.8,118.8 568.9,121.1 569.3,124 L563.9,124 L563.9,123.9 Z" id="路径"></path>
                        <path d="M619.3,143.9 C616.5,148 612.3,150.1 606.8,150.1 C601.8,150.1 597.7,148.3 594.5,144.9 C591.4,141.4 589.9,137.2 589.9,132.1 C589.9,127 591.4,122.7 594.5,119.3 C597.7,115.8 601.9,114.1 607.2,114.1 C612.5,114.1 616.5,116.2 619.4,120.3 L619.4,114.6 L624.6,114.6 L624.6,149.6 L619.4,149.6 L619.4,143.9 L619.3,143.9 Z M607.4,145.3 C611.2,145.3 614.2,144 616.4,141.4 C618.5,138.9 619.5,135.8 619.5,132 C619.5,128.2 618.5,125.1 616.4,122.6 C614.2,120 611.2,118.7 607.4,118.7 C603.7,118.7 600.6,120 598.3,122.6 C596.1,125.1 595,128.2 595,132 C595,135.8 596.1,138.9 598.3,141.4 C600.7,144 603.7,145.3 607.4,145.3 Z" id="形状"></path>
                        <path d="M638.9,114.5 L638.9,120 C640.2,118.3 641.7,116.9 643.5,115.7 C645.3,114.5 647.4,113.9 649.7,113.9 C652,113.9 654,114.2 655.7,114.9 C657.4,115.6 658.9,116.5 660.1,117.8 C663,120.6 664.4,124.4 664.4,129.1 L664.4,149.5 L659.2,149.5 L659.2,129.3 C659.2,126.1 658.3,123.5 656.5,121.6 C654.7,119.7 652.3,118.7 649.4,118.7 C646.5,118.7 644,119.7 641.9,121.6 C639.8,123.6 638.8,126.2 638.8,129.3 L638.8,149.5 L633.6,149.5 L633.6,114.5 L638.9,114.5 Z" id="路径"></path>
                        <path d="M700.5,143.9 C697.7,148 693.5,150.1 688,150.1 C683,150.1 678.9,148.3 675.7,144.9 C672.6,141.4 671.1,137.2 671.1,132.1 C671.1,127 672.6,122.7 675.7,119.3 C678.9,115.8 683.1,114.1 688.4,114.1 C693.7,114.1 697.7,116.2 700.6,120.3 L700.6,100.6 L705.8,100.6 L705.8,149.6 L700.6,149.6 L700.6,143.9 L700.5,143.9 Z M688.7,145.3 C692.5,145.3 695.5,144 697.7,141.4 C699.8,138.9 700.8,135.8 700.8,132 C700.8,128.2 699.8,125.1 697.7,122.6 C695.5,120 692.5,118.7 688.7,118.7 C685,118.7 681.9,120 679.6,122.6 C677.4,125.1 676.3,128.2 676.3,132 C676.3,135.8 677.4,138.9 679.6,141.4 C681.9,144 685,145.3 688.7,145.3 Z" id="形状"></path>
                        <path d="M757.1,143.9 C754.3,148 750.1,150.1 744.6,150.1 C739.6,150.1 735.5,148.3 732.3,144.9 C729.2,141.4 727.7,137.2 727.7,132.1 C727.7,127 729.2,122.7 732.3,119.3 C735.5,115.8 739.7,114.1 745,114.1 C750.3,114.1 754.3,116.2 757.2,120.3 L757.2,114.6 L762.4,114.6 L762.4,149.6 L757.2,149.6 L757.2,143.9 L757.1,143.9 Z M745.3,145.3 C749.1,145.3 752.1,144 754.3,141.4 C756.4,138.9 757.4,135.8 757.4,132 C757.4,128.2 756.4,125.1 754.3,122.6 C752.1,120 749.1,118.7 745.3,118.7 C741.6,118.7 738.5,120 736.2,122.6 C734,125.1 732.9,128.2 732.9,132 C732.9,135.8 734,138.9 736.2,141.4 C738.5,144 741.5,145.3 745.3,145.3 Z" id="形状"></path>
                        <path d="M792,123.9 C791.5,120.3 788.6,118.4 783.2,118.4 C777.8,118.4 775.1,120.1 775.1,123.4 C775.1,124.8 775.7,125.9 776.8,126.6 C777.9,127.3 779.4,127.9 781.1,128.4 C782.8,128.9 784.7,129.3 786.7,129.7 C788.7,130.1 790.6,130.7 792.3,131.4 C794,132.1 795.5,133.1 796.6,134.4 C797.7,135.7 798.3,137.4 798.3,139.6 C798.3,143 797,145.6 794.4,147.4 C791.8,149.2 788.4,150.1 784,150.1 C779.3,150.1 775.6,148.9 772.9,146.6 C770.4,144.5 769,141.9 768.8,138.5 L774.3,138.5 C774.6,141.7 776.4,143.9 779.8,145 C781,145.4 782.2,145.6 783.4,145.6 C784.6,145.6 785.7,145.5 786.7,145.4 C787.7,145.3 788.7,145 789.7,144.6 C791.9,143.7 793.1,142.2 793.1,140 C793.1,138.6 792.5,137.4 791.4,136.7 C790.3,135.9 788.8,135.3 787.1,134.8 C785.4,134.3 783.5,133.9 781.5,133.5 C779.5,133.1 777.6,132.6 775.9,131.9 C774.2,131.2 772.7,130.2 771.6,129 C770.5,127.8 769.9,126.1 769.9,124 C769.9,120.8 771.1,118.4 773.4,116.6 C775.7,114.8 779.1,114 783.7,114 C788,114 791.4,115 793.8,117.1 C795.9,118.8 797,121.1 797.4,124 L792,124 L792,123.9 Z" id="路径"></path>
                        <polygon id="路径" points="814.5 163.4 808.8 163.4 815.2 149 800.9 114.5 806.7 114.5 818 143.2 829.5 114.5 835.2 114.5"></polygon>
                        <path d="M845.2,114.5 L845.2,120 C846.5,118.3 848,116.9 849.8,115.7 C851.6,114.5 853.7,113.9 856,113.9 C858.3,113.9 860.3,114.2 862,114.9 C863.7,115.6 865.2,116.5 866.4,117.8 C869.3,120.6 870.7,124.4 870.7,129.1 L870.7,149.5 L865.5,149.5 L865.5,129.3 C865.5,126.1 864.6,123.5 862.8,121.6 C861,119.7 858.6,118.7 855.7,118.7 C852.8,118.7 850.3,119.7 848.2,121.6 C846.1,123.6 845.1,126.2 845.1,129.3 L845.1,149.5 L839.9,149.5 L839.9,114.5 L845.2,114.5 Z" id="路径"></path>
                        <path d="M895.8,145.3 C898,145.3 900,144.7 901.8,143.4 C903.5,142.1 904.8,140.5 905.6,138.5 L911.3,138.5 C910.2,142 908.3,144.7 905.4,146.8 C902.4,148.9 898.9,150 894.8,150 C889.7,150 885.5,148.2 882.3,144.8 C879.2,141.4 877.6,137.1 877.6,132 C877.6,126.9 879.2,122.6 882.3,119.2 C885.5,115.7 889.7,114 894.8,114 C898.9,114 902.5,115.1 905.4,117.2 C908.2,119.3 910.2,122.1 911.3,125.5 L905.6,125.5 C904.8,123.5 903.5,121.9 901.8,120.6 C900.1,119.3 898.1,118.7 895.8,118.7 C893.6,118.7 891.7,119 890.1,119.7 C888.5,120.4 887.2,121.4 886.1,122.6 C883.8,125.1 882.7,128.2 882.7,132 C882.7,135.7 883.8,138.9 886.1,141.4 C888.4,144 891.7,145.3 895.8,145.3 Z" id="路径"></path>
                        <path d="M922.9,100.5 L922.9,120 C924.2,118.3 925.7,116.9 927.5,115.7 C929.3,114.5 931.4,113.9 933.7,113.9 C936,113.9 938,114.2 939.7,114.9 C941.4,115.6 942.9,116.5 944.1,117.8 C947,120.6 948.4,124.4 948.4,129.1 L948.4,149.5 L943.2,149.5 L943.2,129.3 C943.2,126.1 942.3,123.5 940.5,121.6 C938.7,119.7 936.3,118.7 933.4,118.7 C930.5,118.7 928,119.7 925.9,121.6 C923.8,123.6 922.8,126.2 922.8,129.3 L922.8,149.5 L917.6,149.5 L917.6,100.5 L922.9,100.5 Z" id="路径"></path>
                        <path d="M975.8,113.9 L975.8,119.1 L975.2,119.1 C971.4,119.1 968.3,120.6 966,123.6 C963.8,126.5 962.6,129.9 962.6,134 L962.6,149.4 L957.4,149.4 L957.4,114.4 L962.6,114.4 L962.6,123 C963.7,119.4 966.1,116.7 969.9,115 C971.4,114.3 973.3,113.9 975.5,113.9 L975.8,113.9 Z" id="路径"></path>
                        <path d="M995.7,113.9 C1000.9,113.9 1005.2,115.7 1008.4,119.1 C1011.5,122.5 1013,126.7 1013,131.9 C1013,137.1 1011.5,141.4 1008.4,144.7 C1005.1,148.2 1000.9,149.9 995.7,149.9 C990.5,149.9 986.2,148.1 983,144.7 C979.9,141.3 978.4,137.1 978.4,131.9 C978.4,126.7 979.9,122.4 983,119.1 C986.3,115.7 990.5,113.9 995.7,113.9 Z M995.7,145.3 C999.5,145.3 1002.5,144 1004.7,141.4 C1006.8,138.9 1007.8,135.8 1007.8,132 C1007.8,128.2 1006.8,125.1 1004.7,122.6 C1002.5,120 999.5,118.7 995.7,118.7 C991.9,118.7 988.9,120 986.7,122.6 C984.6,125.1 983.5,128.2 983.5,132 C983.5,135.8 984.5,138.9 986.7,141.4 C989,144 991.9,145.3 995.7,145.3 Z" id="形状"></path>
                        <path d="M1025.3,114.5 L1025.3,120 C1026.6,118.3 1028.1,116.9 1029.9,115.7 C1031.7,114.5 1033.8,113.9 1036.1,113.9 C1038.4,113.9 1040.4,114.2 1042.1,114.9 C1043.8,115.6 1045.3,116.5 1046.5,117.8 C1049.4,120.6 1050.8,124.4 1050.8,129.1 L1050.8,149.5 L1045.6,149.5 L1045.6,129.3 C1045.6,126.1 1044.7,123.5 1042.9,121.6 C1041.1,119.7 1038.7,118.7 1035.8,118.7 C1032.9,118.7 1030.4,119.7 1028.3,121.6 C1026.2,123.6 1025.2,126.2 1025.2,129.3 L1025.2,149.5 L1020,149.5 L1020,114.5 L1025.3,114.5 Z" id="路径"></path>
                        <path d="M1074.8,113.9 C1080,113.9 1084.3,115.7 1087.5,119.1 C1090.6,122.5 1092.1,126.7 1092.1,131.9 C1092.1,137.1 1090.6,141.4 1087.5,144.7 C1084.2,148.2 1080,149.9 1074.8,149.9 C1069.6,149.9 1065.3,148.1 1062.1,144.7 C1059,141.3 1057.5,137.1 1057.5,131.9 C1057.5,126.7 1059,122.4 1062.1,119.1 C1065.4,115.7 1069.6,113.9 1074.8,113.9 Z M1074.8,145.3 C1078.6,145.3 1081.6,144 1083.8,141.4 C1085.9,138.9 1086.9,135.8 1086.9,132 C1086.9,128.2 1085.9,125.1 1083.8,122.6 C1081.6,120 1078.6,118.7 1074.8,118.7 C1071,118.7 1068,120 1065.8,122.6 C1063.7,125.1 1062.6,128.2 1062.6,132 C1062.6,135.8 1063.6,138.9 1065.8,141.4 C1068.1,144 1071,145.3 1074.8,145.3 Z" id="形状"></path>
                        <path d="M1124.4,149.5 L1124.4,144 C1123.1,145.7 1121.6,147.1 1119.8,148.3 C1118,149.5 1115.9,150.1 1113.6,150.1 C1111.3,150.1 1109.3,149.8 1107.6,149.1 C1105.9,148.4 1104.4,147.5 1103.2,146.2 C1100.3,143.4 1098.9,139.6 1098.9,134.9 L1098.9,114.5 L1104.1,114.5 L1104.1,134.7 C1104.1,137.9 1105,140.5 1106.8,142.4 C1108.6,144.3 1111,145.3 1113.9,145.3 C1116.8,145.3 1119.3,144.3 1121.4,142.4 C1123.5,140.4 1124.5,137.8 1124.5,134.7 L1124.5,114.5 L1129.7,114.5 L1129.7,149.5 L1124.4,149.5 Z" id="路径"></path>
                        <path d="M1159.3,123.9 C1158.8,120.3 1155.9,118.4 1150.5,118.4 C1145.1,118.4 1142.4,120.1 1142.4,123.4 C1142.4,124.8 1143,125.9 1144.1,126.6 C1145.2,127.3 1146.7,127.9 1148.4,128.4 C1150.1,128.9 1152,129.3 1154,129.7 C1156,130.1 1157.9,130.7 1159.6,131.4 C1161.3,132.1 1162.8,133.1 1163.9,134.4 C1165,135.7 1165.6,137.4 1165.6,139.6 C1165.6,143 1164.3,145.6 1161.7,147.4 C1159.1,149.2 1155.7,150.1 1151.3,150.1 C1146.6,150.1 1142.9,148.9 1140.2,146.6 C1137.7,144.5 1136.3,141.9 1136.1,138.5 L1141.6,138.5 C1141.9,141.7 1143.7,143.9 1147.1,145 C1148.3,145.4 1149.5,145.6 1150.7,145.6 C1151.9,145.6 1153,145.5 1154,145.4 C1155,145.3 1156,145 1157,144.6 C1159.2,143.7 1160.4,142.2 1160.4,140 C1160.4,138.6 1159.8,137.4 1158.7,136.7 C1157.6,135.9 1156.1,135.3 1154.4,134.8 C1152.7,134.3 1150.8,133.9 1148.8,133.5 C1146.8,133.1 1144.9,132.6 1143.2,131.9 C1141.5,131.2 1140,130.2 1138.9,129 C1137.8,127.8 1137.2,126.1 1137.2,124 C1137.2,120.8 1138.4,118.4 1140.7,116.6 C1143,114.8 1146.4,114 1151,114 C1155.3,114 1158.7,115 1161.1,117.1 C1163.2,118.8 1164.3,121.1 1164.7,124 L1159.3,124 L1159.3,123.9 Z" id="路径"></path>
                        <path d="M21.8,213.9 L21.8,219.1 L21.2,219.1 C17.4,219.1 14.3,220.6 12,223.6 C9.8,226.5 8.6,229.9 8.6,234 L8.6,249.4 L3.4,249.4 L3.4,214.4 L8.6,214.4 L8.6,223 C9.7,219.4 12.1,216.7 15.9,215 C17.4,214.3 19.3,213.9 21.5,213.9 L21.8,213.9 Z" id="路径"></path>
                        <path d="M42.1,245.3 C46.8,245.3 50.2,243.3 52.2,239.4 L57.9,239.4 C56.7,242.6 54.8,245.1 52.1,247.1 C49.5,249.1 46.1,250 41.9,250 C36.6,250 32.3,248.2 29,244.8 C25.8,241.4 24.2,237.1 24.2,232 C24.2,226.8 25.7,222.5 28.8,219.2 C32.1,215.7 36.3,214 41.5,214 C46.7,214 51,215.8 54.2,219.2 C57.3,222.6 58.8,226.8 58.8,232 L58.8,234.1 L29.5,234.1 C29.9,237.3 31.2,240 33.4,242.1 C35.8,244.2 38.7,245.3 42.1,245.3 Z M41.7,218.7 C38.5,218.7 35.8,219.7 33.6,221.7 C31.5,223.6 30.3,226.1 29.8,229.2 L53.6,229.2 C53.1,226.1 51.9,223.6 49.8,221.7 C47.6,219.7 44.9,218.7 41.7,218.7 Z" id="形状"></path>
                        <path d="M70.8,220.1 C73.6,216 77.8,213.9 83.3,213.9 C88.3,213.9 92.4,215.7 95.5,219.1 C98.6,222.6 100.2,226.8 100.2,231.9 C100.2,237 98.6,241.3 95.5,244.7 C92.4,248.2 88.2,249.9 82.9,249.9 C77.6,249.9 73.6,247.8 70.7,243.7 L70.7,263.2 L65.5,263.2 L65.5,214.3 L70.7,214.3 L70.7,220.1 L70.8,220.1 Z M82.6,218.7 C78.8,218.7 75.8,220 73.6,222.6 C71.5,225.1 70.4,228.2 70.4,232 C70.4,235.8 71.5,238.9 73.6,241.4 C75.8,244 78.8,245.3 82.6,245.3 C86.3,245.3 89.4,244 91.7,241.4 C93.9,238.9 95,235.8 95,232 C95,228.2 93.9,225.1 91.7,222.6 C89.4,220 86.3,218.7 82.6,218.7 Z" id="形状"></path>
                        <polygon id="路径" points="112.3 249.5 107.1 249.5 107.1 200.5 112.3 200.5"></polygon>
                        <path d="M126.9,201.8 L126.9,208.7 L121.2,208.7 L121.2,201.8 L126.9,201.8 Z M121.4,214.5 L126.6,214.5 L126.6,249.5 L121.4,249.5 L121.4,214.5 Z" id="形状"></path>
                        <path d="M152,245.3 C154.2,245.3 156.2,244.7 158,243.4 C159.7,242.1 161,240.5 161.8,238.5 L167.5,238.5 C166.4,242 164.5,244.7 161.6,246.8 C158.6,248.9 155.1,250 151,250 C145.9,250 141.7,248.2 138.5,244.8 C135.4,241.4 133.8,237.1 133.8,232 C133.8,226.9 135.4,222.6 138.5,219.2 C141.7,215.7 145.9,214 151,214 C155.1,214 158.7,215.1 161.6,217.2 C164.4,219.3 166.4,222.1 167.5,225.5 L161.8,225.5 C161,223.5 159.7,221.9 158,220.6 C156.3,219.3 154.3,218.7 152,218.7 C149.8,218.7 147.9,219 146.3,219.7 C144.7,220.4 143.4,221.4 142.3,222.6 C140,225.1 138.9,228.2 138.9,232 C138.9,235.7 140,238.9 142.3,241.4 C144.6,244 147.9,245.3 152,245.3 Z" id="路径"></path>
                        <path d="M201.2,243.9 C198.4,248 194.2,250.1 188.7,250.1 C183.7,250.1 179.6,248.3 176.4,244.9 C173.3,241.4 171.8,237.2 171.8,232.1 C171.8,227 173.3,222.7 176.4,219.3 C179.6,215.8 183.8,214.1 189.1,214.1 C194.4,214.1 198.4,216.2 201.3,220.3 L201.3,214.6 L206.5,214.6 L206.5,249.6 L201.3,249.6 L201.3,243.9 L201.2,243.9 Z M189.3,245.3 C193.1,245.3 196.1,244 198.3,241.4 C200.4,238.9 201.4,235.8 201.4,232 C201.4,228.2 200.4,225.1 198.3,222.6 C196.1,220 193.1,218.7 189.3,218.7 C185.6,218.7 182.5,220 180.2,222.6 C178,225.1 176.9,228.2 176.9,232 C176.9,235.8 178,238.9 180.2,241.4 C182.6,244 185.6,245.3 189.3,245.3 Z" id="形状"></path>
                        <polygon id="路径" points="219.3 249.5 219.3 219.1 212.2 219.1 212.2 214.5 219.3 214.5 219.3 202 224.5 202 224.5 214.5 232.5 214.5 232.5 219.1 224.5 219.1 224.5 249.5"></polygon>
                        <path d="M243.8,201.8 L243.8,208.7 L238.1,208.7 L238.1,201.8 L243.8,201.8 Z M238.3,214.5 L243.5,214.5 L243.5,249.5 L238.3,249.5 L238.3,214.5 Z" id="形状"></path>
                        <path d="M267.9,213.9 C273.1,213.9 277.4,215.7 280.6,219.1 C283.7,222.5 285.2,226.7 285.2,231.9 C285.2,237.1 283.7,241.4 280.6,244.7 C277.3,248.2 273.1,249.9 267.9,249.9 C262.7,249.9 258.4,248.1 255.2,244.7 C252.1,241.3 250.6,237.1 250.6,231.9 C250.6,226.7 252.1,222.4 255.2,219.1 C258.4,215.7 262.6,213.9 267.9,213.9 Z M267.9,245.3 C271.7,245.3 274.7,244 276.9,241.4 C279,238.9 280,235.8 280,232 C280,228.2 279,225.1 276.9,222.6 C274.7,220 271.7,218.7 267.9,218.7 C264.1,218.7 261.1,220 258.9,222.6 C256.8,225.1 255.7,228.2 255.7,232 C255.7,235.8 256.7,238.9 258.9,241.4 C261.1,244 264.1,245.3 267.9,245.3 Z" id="形状"></path>
                        <path d="M297.4,214.5 L297.4,220 C298.7,218.3 300.2,216.9 302,215.7 C303.8,214.5 305.9,213.9 308.2,213.9 C310.5,213.9 312.5,214.2 314.2,214.9 C315.9,215.6 317.4,216.5 318.6,217.8 C321.5,220.6 322.9,224.4 322.9,229.1 L322.9,249.5 L317.7,249.5 L317.7,229.3 C317.7,226.1 316.8,223.5 315,221.6 C313.2,219.7 310.8,218.7 307.9,218.7 C305,218.7 302.5,219.7 300.4,221.6 C298.3,223.6 297.3,226.2 297.3,229.3 L297.3,249.5 L292.1,249.5 L292.1,214.5 L297.4,214.5 Z" id="路径"></path>
                        <path d="M352.4,223.9 C351.9,220.3 349,218.4 343.6,218.4 C338.2,218.4 335.5,220.1 335.5,223.4 C335.5,224.8 336.1,225.9 337.2,226.6 C338.3,227.3 339.8,227.9 341.5,228.4 C343.2,228.9 345.1,229.3 347.1,229.7 C349.1,230.1 351,230.7 352.7,231.4 C354.4,232.1 355.9,233.1 357,234.4 C358.1,235.7 358.7,237.4 358.7,239.6 C358.7,243 357.4,245.6 354.8,247.4 C352.2,249.2 348.8,250.1 344.4,250.1 C339.7,250.1 336,248.9 333.3,246.6 C330.8,244.5 329.4,241.9 329.2,238.5 L334.7,238.5 C335,241.7 336.8,243.9 340.2,245 C341.4,245.4 342.6,245.6 343.8,245.6 C345,245.6 346.1,245.5 347.1,245.4 C348.1,245.3 349.1,245 350.1,244.6 C352.3,243.7 353.5,242.2 353.5,240 C353.5,238.6 352.9,237.4 351.8,236.7 C350.7,235.9 349.2,235.3 347.5,234.8 C345.8,234.3 343.9,233.9 341.9,233.5 C339.9,233.1 338,232.6 336.3,231.9 C334.6,231.2 333.1,230.2 332,229 C330.9,227.8 330.3,226.1 330.3,224 C330.3,220.8 331.5,218.4 333.8,216.6 C336.1,214.8 339.5,214 344.1,214 C348.4,214 351.8,215 354.2,217.1 C356.3,218.8 357.4,221.1 357.8,224 L352.4,224 L352.4,223.9 Z" id="路径"></path>
                        <polygon id="路径" points="402.3 221.6 393.5 249.5 387.5 249.5 376.5 214.5 382.1 214.5 390.5 243 399.4 214.5 405.1 214.5 414 243 422.4 214.5 428 214.5 417 249.5 411 249.5"></polygon>
                        <path d="M438.7,201.8 L438.7,208.7 L433,208.7 L433,201.8 L438.7,201.8 Z M433.2,214.5 L438.4,214.5 L438.4,249.5 L433.2,249.5 L433.2,214.5 Z" id="形状"></path>
                        <polygon id="路径" points="451.3 249.5 451.3 219.1 444.2 219.1 444.2 214.5 451.3 214.5 451.3 202 456.5 202 456.5 214.5 464.5 214.5 464.5 219.1 456.5 219.1 456.5 249.5"></polygon>
                        <path d="M475.6,200.5 L475.6,220 C476.9,218.3 478.4,216.9 480.2,215.7 C482,214.5 484.1,213.9 486.4,213.9 C488.7,213.9 490.7,214.2 492.4,214.9 C494.1,215.6 495.6,216.5 496.8,217.8 C499.7,220.6 501.1,224.4 501.1,229.1 L501.1,249.5 L495.9,249.5 L495.9,229.3 C495.9,226.1 495,223.5 493.2,221.6 C491.4,219.7 489,218.7 486.1,218.7 C483.2,218.7 480.7,219.7 478.6,221.6 C476.5,223.6 475.5,226.2 475.5,229.3 L475.5,249.5 L470.3,249.5 L470.3,200.5 L475.6,200.5 Z" id="路径"></path>
                        <path d="M552.2,220.1 L552.2,214.5 L557.4,214.5 L557.4,248.5 C557.4,253.5 556,257.4 553.1,260 C550.2,262.6 546.4,264 541.5,264 C536.6,264 532.9,263.1 530.1,261.2 C527.4,259.3 525.5,256.9 524.5,253.8 L530.3,253.8 C531.8,257.4 535.2,259.3 540.5,259.3 C544.6,259.3 547.5,258.4 549.3,256.5 C551.1,254.6 552,251.9 552,248.2 L552,243.4 C549.2,247.6 545,249.6 539.5,249.6 C534.5,249.6 530.4,247.9 527.2,244.4 C524.1,241 522.6,236.8 522.6,231.8 C522.6,226.8 524.1,222.6 527.2,219.2 C530.4,215.7 534.6,214 539.9,214 C545.4,213.9 549.4,216 552.2,220.1 Z M540.4,244.7 C542.3,244.7 544,244.4 545.5,243.7 C547,243 548.3,242.1 549.4,240.9 C551.5,238.5 552.5,235.4 552.5,231.7 C552.5,228 551.5,224.9 549.4,222.5 C547.1,220 544.1,218.7 540.4,218.7 C536.6,218.7 533.6,220 531.3,222.5 C529.1,225 528,228.1 528,231.7 C528,235.3 529.1,238.5 531.3,240.9 C533.6,243.5 536.6,244.7 540.4,244.7 Z" id="形状"></path>
                        <path d="M585,213.9 L585,219.1 L584.4,219.1 C580.6,219.1 577.5,220.6 575.2,223.6 C573,226.5 571.8,229.9 571.8,234 L571.8,249.4 L566.6,249.4 L566.6,214.4 L571.8,214.4 L571.8,223 C572.9,219.4 575.3,216.7 579.1,215 C580.6,214.3 582.5,213.9 584.7,213.9 L585,213.9 Z" id="路径"></path>
                        <path d="M605.4,245.3 C610.1,245.3 613.5,243.3 615.5,239.4 L621.2,239.4 C620,242.6 618.1,245.1 615.4,247.1 C612.8,249.1 609.4,250 605.2,250 C599.9,250 595.6,248.2 592.3,244.8 C589.1,241.4 587.5,237.1 587.5,232 C587.5,226.8 589,222.5 592.1,219.2 C595.4,215.7 599.6,214 604.8,214 C610,214 614.3,215.8 617.5,219.2 C620.6,222.6 622.1,226.8 622.1,232 L622.1,234.1 L593,234.1 C593.4,237.3 594.7,240 596.9,242.1 C599.1,244.2 602,245.3 605.4,245.3 Z M605,218.7 C601.8,218.7 599.1,219.7 596.9,221.7 C594.8,223.6 593.6,226.1 593.1,229.2 L616.9,229.2 C616.4,226.1 615.2,223.6 613.1,221.7 C610.9,219.7 608.2,218.7 605,218.7 Z" id="形状"></path>
                        <path d="M656.1,243.9 C653.3,248 649.1,250.1 643.6,250.1 C638.6,250.1 634.5,248.3 631.3,244.9 C628.2,241.4 626.7,237.2 626.7,232.1 C626.7,227 628.2,222.7 631.3,219.3 C634.5,215.8 638.7,214.1 644,214.1 C649.3,214.1 653.3,216.2 656.2,220.3 L656.2,214.6 L661.4,214.6 L661.4,249.6 L656.2,249.6 L656.2,243.9 L656.1,243.9 Z M644.3,245.3 C648.1,245.3 651.1,244 653.3,241.4 C655.4,238.9 656.4,235.8 656.4,232 C656.4,228.2 655.4,225.1 653.3,222.6 C651.1,220 648.1,218.7 644.3,218.7 C640.6,218.7 637.5,220 635.2,222.6 C633,225.1 631.9,228.2 631.9,232 C631.9,235.8 633,238.9 635.2,241.4 C637.5,244 640.5,245.3 644.3,245.3 Z" id="形状"></path>
                        <polygon id="路径" points="674.2 249.5 674.2 219.1 667.1 219.1 667.1 214.5 674.2 214.5 674.2 202 679.4 202 679.4 214.5 687.4 214.5 687.4 219.1 679.4 219.1 679.4 249.5"></polygon>
                        <path d="M723.8,245.3 C728.5,245.3 731.9,243.3 733.9,239.4 L739.6,239.4 C738.4,242.6 736.5,245.1 733.8,247.1 C731.2,249.1 727.8,250 723.6,250 C718.3,250 714,248.2 710.7,244.8 C707.5,241.4 705.9,237.1 705.9,232 C705.9,226.8 707.4,222.5 710.5,219.2 C713.8,215.7 718,214 723.2,214 C728.4,214 732.7,215.8 735.9,219.2 C739,222.6 740.5,226.8 740.5,232 L740.5,234.1 L711.2,234.1 C711.6,237.3 712.9,240 715.1,242.1 C717.5,244.2 720.3,245.3 723.8,245.3 Z M723.4,218.7 C720.2,218.7 717.5,219.7 715.3,221.7 C713.2,223.6 712,226.1 711.5,229.2 L735.3,229.2 C734.8,226.1 733.6,223.6 731.5,221.7 C729.3,219.7 726.6,218.7 723.4,218.7 Z" id="形状"></path>
                        <path d="M761.9,204.9 C759.4,204.9 757.6,205.4 756.3,206.5 C755.1,207.6 754.4,209.4 754.4,211.8 L754.4,214.5 L762.5,214.5 L762.5,219.1 L754.4,219.1 L754.4,249.5 L749.2,249.5 L749.2,219.1 L743.2,219.1 L743.2,214.5 L749.2,214.5 L749.2,211.4 C749.2,207.6 750.3,204.7 752.6,202.8 C754.9,200.9 758.1,199.9 762.1,199.9 L762.5,199.9 L762.5,204.9 L761.9,204.9 Z" id="路径"></path>
                        <path d="M783.4,204.9 C780.9,204.9 779.1,205.4 777.8,206.5 C776.6,207.6 775.9,209.4 775.9,211.8 L775.9,214.5 L784,214.5 L784,219.1 L775.9,219.1 L775.9,249.5 L770.7,249.5 L770.7,219.1 L764.7,219.1 L764.7,214.5 L770.7,214.5 L770.7,211.4 C770.7,207.6 771.8,204.7 774.1,202.8 C776.4,200.9 779.6,199.9 783.6,199.9 L784,199.9 L784,204.9 L783.4,204.9 Z" id="路径"></path>
                        <path d="M795.3,201.8 L795.3,208.7 L789.6,208.7 L789.6,201.8 L795.3,201.8 Z M789.9,214.5 L795.1,214.5 L795.1,249.5 L789.9,249.5 L789.9,214.5 Z" id="形状"></path>
                        <path d="M820.4,245.3 C822.6,245.3 824.6,244.7 826.4,243.4 C828.1,242.1 829.4,240.5 830.2,238.5 L835.9,238.5 C834.8,242 832.9,244.7 830,246.8 C827,248.9 823.5,250 819.4,250 C814.3,250 810.1,248.2 806.9,244.8 C803.8,241.4 802.2,237.1 802.2,232 C802.2,226.9 803.8,222.6 806.9,219.2 C810.1,215.7 814.3,214 819.4,214 C823.5,214 827.1,215.1 830,217.2 C832.8,219.3 834.8,222.1 835.9,225.5 L830.2,225.5 C829.4,223.5 828.1,221.9 826.4,220.6 C824.7,219.3 822.7,218.7 820.4,218.7 C818.2,218.7 816.3,219 814.7,219.7 C813.1,220.4 811.8,221.4 810.7,222.6 C808.4,225.1 807.3,228.2 807.3,232 C807.3,235.7 808.4,238.9 810.7,241.4 C813,244 816.3,245.3 820.4,245.3 Z" id="路径"></path>
                        <path d="M847.7,201.8 L847.7,208.7 L842,208.7 L842,201.8 L847.7,201.8 Z M842.3,214.5 L847.5,214.5 L847.5,249.5 L842.3,249.5 L842.3,214.5 Z" id="形状"></path>
                        <path d="M872.2,245.3 C876.9,245.3 880.3,243.3 882.3,239.4 L888,239.4 C886.8,242.6 884.9,245.1 882.2,247.1 C879.6,249.1 876.2,250 872,250 C866.7,250 862.4,248.2 859.1,244.8 C855.9,241.4 854.3,237.1 854.3,232 C854.3,226.8 855.8,222.5 858.9,219.2 C862.2,215.7 866.4,214 871.6,214 C876.8,214 881.1,215.8 884.3,219.2 C887.4,222.6 888.9,226.8 888.9,232 L888.9,234.1 L859.6,234.1 C860,237.3 861.3,240 863.5,242.1 C865.9,244.2 868.8,245.3 872.2,245.3 Z M871.8,218.7 C868.6,218.7 865.9,219.7 863.7,221.7 C861.6,223.6 860.4,226.1 859.9,229.2 L883.7,229.2 C883.2,226.1 882,223.6 879.9,221.7 C877.8,219.7 875,218.7 871.8,218.7 Z" id="形状"></path>
                        <path d="M900.9,214.5 L900.9,220 C902.2,218.3 903.7,216.9 905.5,215.7 C907.3,214.5 909.4,213.9 911.7,213.9 C914,213.9 916,214.2 917.7,214.9 C919.4,215.6 920.9,216.5 922.1,217.8 C925,220.6 926.4,224.4 926.4,229.1 L926.4,249.5 L921.2,249.5 L921.2,229.3 C921.2,226.1 920.3,223.5 918.5,221.6 C916.7,219.7 914.3,218.7 911.4,218.7 C908.5,218.7 906,219.7 903.9,221.6 C901.8,223.6 900.8,226.2 900.8,229.3 L900.8,249.5 L895.6,249.5 L895.6,214.5 L900.9,214.5 Z" id="路径"></path>
                        <path d="M951.4,245.3 C953.6,245.3 955.6,244.7 957.4,243.4 C959.1,242.1 960.4,240.5 961.2,238.5 L966.9,238.5 C965.8,242 963.9,244.7 961,246.8 C958,248.9 954.5,250 950.4,250 C945.3,250 941.1,248.2 937.9,244.8 C934.8,241.4 933.2,237.1 933.2,232 C933.2,226.9 934.8,222.6 937.9,219.2 C941.1,215.7 945.3,214 950.4,214 C954.5,214 958.1,215.1 961,217.2 C963.8,219.3 965.8,222.1 966.9,225.5 L961.2,225.5 C960.4,223.5 959.1,221.9 957.4,220.6 C955.7,219.3 953.7,218.7 951.4,218.7 C949.2,218.7 947.3,219 945.7,219.7 C944.1,220.4 942.8,221.4 941.7,222.6 C939.4,225.1 938.3,228.2 938.3,232 C938.3,235.7 939.4,238.9 941.7,241.4 C944.1,244 947.3,245.3 951.4,245.3 Z" id="路径"></path>
                        <polygon id="路径" points="982.6 263.4 976.9 263.4 983.3 249 969 214.5 974.8 214.5 986.1 243.2 997.6 214.5 1003.3 214.5"></polygon>
                    </g>
                    <g transform="translate(675.000000, 2579.000000)" fill="#EDCD70" stroke="#EDCD70" stroke-width="2">
                        <polygon id="路径" points="43 3.7 43 56.7 37 56.7 37 33.1 6.2 33.1 6.2 56.7 0.2 56.7 0.2 3.7 6.2 3.7 6.2 27.2 37 27.2 37 3.7"></polygon>
                        <path d="M61.2,2.1 L61.2,9.9 L54.7,9.9 L54.7,2.1 L61.2,2.1 Z M54.9,16.7 L60.9,16.7 L60.9,56.7 L54.9,56.7 L54.9,16.7 Z" id="形状"></path>
                        <path d="M103.2,23.1 L103.2,16.7 L109.2,16.7 L109.2,55.5 C109.2,61.3 107.6,65.6 104.3,68.7 C101,71.7 96.6,73.2 91.1,73.2 C85.6,73.2 81.2,72.1 78.1,70 C75,67.9 72.9,65 71.7,61.5 L78.3,61.5 C80,65.7 83.9,67.7 90,67.7 C94.6,67.7 98,66.6 100.1,64.5 C102.2,62.4 103.2,59.2 103.2,55.1 L103.2,49.6 C99.9,54.3 95.2,56.7 88.9,56.7 C83.1,56.7 78.4,54.7 74.8,50.8 C71.3,47 69.5,42.2 69.5,36.4 C69.5,30.6 71.3,25.8 74.8,22 C78.4,18.1 83.3,16.1 89.3,16.1 C95.3,16 100,18.4 103.2,23.1 Z M89.7,51.2 C91.9,51.2 93.8,50.8 95.5,50 C97.2,49.2 98.7,48.2 99.9,46.8 C102.3,44 103.5,40.5 103.5,36.2 C103.5,31.9 102.3,28.4 99.9,25.6 C97.3,22.7 93.9,21.3 89.7,21.3 C85.4,21.3 81.9,22.7 79.3,25.6 C76.8,28.4 75.5,31.9 75.5,36.2 C75.5,40.5 76.8,43.9 79.3,46.8 C81.9,49.8 85.3,51.2 89.7,51.2 Z" id="形状"></path>
                        <path d="M126.2,0.7 L126.2,22.9 C127.6,21 129.4,19.4 131.5,18 C133.6,16.7 136,16 138.6,16 C141.2,16 143.6,16.4 145.5,17.1 C147.4,17.8 149.1,19 150.5,20.5 C153.8,23.8 155.5,28 155.5,33.4 L155.5,56.7 L149.5,56.7 L149.5,33.6 C149.5,29.9 148.5,27 146.4,24.8 C144.3,22.6 141.6,21.5 138.3,21.5 C134.9,21.5 132.1,22.6 129.7,24.9 C127.4,27.2 126.2,30.1 126.2,33.7 L126.2,56.7 L120.2,56.7 L120.2,0.7 L126.2,0.7 Z" id="路径"></path>
                        <path d="M191.1,56.7 L185.1,56.7 L185.1,3.7 L208.9,3.7 C214.5,3.7 219,5.2 222.3,8.3 C225.6,11.4 227.2,15.5 227.2,20.7 C227.2,25.9 225.6,30.1 222.3,33.1 C219,36.2 214.6,37.7 209,37.7 L191.2,37.7 L191.2,56.7 L191.1,56.7 Z M191.1,9.4 L191.1,32.2 L208.5,32.2 C212.7,32.2 215.8,31.2 217.9,29.2 C220,27.2 221.1,24.4 221.1,20.8 C221.1,17.3 220,14.5 217.9,12.4 C215.8,10.4 212.6,9.4 208.5,9.4 L191.1,9.4 Z" id="形状"></path>
                        <path d="M252,51.9 C257.4,51.9 261.3,49.7 263.6,45.2 L270.2,45.2 C268.8,48.8 266.6,51.8 263.6,54 C260.6,56.2 256.7,57.4 252,57.4 C246,57.4 241.1,55.4 237.3,51.4 C233.6,47.5 231.8,42.6 231.8,36.8 C231.8,30.9 233.6,26 237.1,22.2 C240.8,18.2 245.7,16.2 251.7,16.2 C257.7,16.2 262.5,18.2 266.3,22.2 C269.8,26 271.6,30.9 271.6,36.8 L271.6,39.2 L238.1,39.2 C238.5,42.9 240,45.9 242.5,48.3 C244.8,50.7 248.1,51.9 252,51.9 Z M251.6,21.5 C247.9,21.5 244.8,22.6 242.3,24.9 C240,27.1 238.5,29.9 238,33.5 L265.2,33.5 C264.7,30 263.2,27.1 260.9,24.9 C258.3,22.6 255.2,21.5 251.6,21.5 Z" id="形状"></path>
                        <path d="M300.5,16 L300.5,22 L299.8,22 C295.5,22 292,23.7 289.2,27.2 C286.6,30.5 285.4,34.5 285.4,39 L285.4,56.6 L279.4,56.6 L279.4,16.6 L285.4,16.6 L285.4,26.4 C286.7,22.2 289.5,19.2 293.7,17.2 C295.5,16.3 297.6,15.9 300.1,15.9 L300.5,15.9 L300.5,16 Z" id="路径"></path>
                        <path d="M324.8,5.7 C322,5.7 319.9,6.3 318.4,7.6 C317,8.9 316.3,10.9 316.3,13.6 L316.3,16.6 L325.6,16.6 L325.6,21.9 L316.3,21.9 L316.3,56.6 L310.3,56.6 L310.3,22 L303.4,22 L303.4,16.7 L310.3,16.7 L310.3,13.2 C310.3,8.8 311.6,5.5 314.2,3.4 C316.8,1.2 320.4,0.1 325.1,0.1 L325.6,0.1 L325.6,5.8 L324.8,5.8 L324.8,5.7 Z" id="路径"></path>
                        <path d="M349.4,16 C355.4,16 360.2,18 364,22 C367.5,25.8 369.3,30.7 369.3,36.6 C369.3,42.5 367.5,47.4 364,51.2 C360.3,55.2 355.4,57.2 349.4,57.2 C343.4,57.2 338.6,55.2 334.8,51.2 C331.3,47.4 329.5,42.5 329.5,36.6 C329.5,30.7 331.3,25.8 334.8,22 C338.6,18 343.4,16 349.4,16 Z M349.4,51.9 C353.7,51.9 357.1,50.4 359.6,47.4 C362,44.6 363.2,41 363.2,36.7 C363.2,32.4 362,28.8 359.6,26 C357.1,23 353.7,21.5 349.4,21.5 C345.1,21.5 341.7,23 339.2,26 C336.8,28.8 335.6,32.4 335.6,36.7 C335.6,41 336.8,44.6 339.2,47.4 C341.7,50.4 345.1,51.9 349.4,51.9 Z" id="形状"></path>
                        <path d="M398.9,16 L398.9,22 L398.2,22 C393.9,22 390.4,23.7 387.6,27.2 C385,30.5 383.8,34.5 383.8,39 L383.8,56.6 L377.8,56.6 L377.8,16.6 L383.8,16.6 L383.8,26.4 C385.1,22.2 387.9,19.2 392.1,17.2 C393.9,16.3 396,15.9 398.5,15.9 L398.9,15.9 L398.9,16 Z" id="路径"></path>
                        <path d="M412,22.8 C414.7,18.3 418.7,16.1 424.2,16.1 C426.9,16.1 429.3,16.8 431.6,18.2 C433.9,19.6 435.6,21.6 436.9,24.2 C438.7,20.8 441.5,18.4 445.4,17 C446.9,16.4 448.7,16.1 450.6,16.1 C452.5,16.1 454.4,16.5 456.2,17.3 C458,18.1 459.6,19.2 461,20.6 C464,23.8 465.5,27.8 465.5,32.6 L465.5,56.8 L459.5,56.8 L459.5,32.8 C459.5,29.5 458.6,26.8 456.7,24.6 C454.8,22.6 452.5,21.6 449.6,21.6 C446.6,21.6 444,22.6 442,24.6 C439.9,26.6 438.8,29.4 438.8,32.9 L438.8,56.8 L432.8,56.8 L432.8,32.8 C432.8,29.5 431.9,26.8 430,24.6 C428.1,22.6 425.8,21.6 422.9,21.6 C419.9,21.6 417.3,22.6 415.3,24.6 C413.2,26.6 412.1,29.4 412.1,32.9 L412.1,56.8 L406.1,56.8 L406.1,16.8 L412.1,16.8 L412.1,22.8 L412,22.8 Z" id="路径"></path>
                        <path d="M507.3,50.3 C504.1,55 499.3,57.3 493,57.3 C487.2,57.3 482.5,55.3 478.9,51.3 C475.4,47.4 473.6,42.5 473.6,36.7 C473.6,30.9 475.4,26 478.9,22.1 C482.5,18.1 487.4,16.1 493.4,16.1 C499.4,16.1 504.1,18.5 507.3,23.2 L507.3,16.7 L513.3,16.7 L513.3,56.7 L507.3,56.7 L507.3,50.3 L507.3,50.3 Z M493.8,51.9 C498.1,51.9 501.5,50.4 504,47.4 C506.4,44.6 507.6,41 507.6,36.7 C507.6,32.4 506.4,28.8 504,26 C501.5,23 498.1,21.5 493.8,21.5 C489.5,21.5 486.1,23 483.4,26 C480.9,28.8 479.6,32.4 479.6,36.7 C479.6,41 480.9,44.6 483.4,47.4 C486.1,50.4 489.5,51.9 493.8,51.9 Z" id="形状"></path>
                        <path d="M530.4,16.7 L530.4,22.9 C531.8,21 533.6,19.4 535.7,18 C537.8,16.7 540.2,16 542.8,16 C545.4,16 547.8,16.4 549.7,17.1 C551.6,17.8 553.3,19 554.7,20.5 C558,23.8 559.7,28 559.7,33.4 L559.7,56.7 L553.7,56.7 L553.7,33.6 C553.7,29.9 552.7,27 550.6,24.8 C548.5,22.6 545.8,21.5 542.5,21.5 C539.1,21.5 536.3,22.6 533.9,24.9 C531.6,27.2 530.4,30.1 530.4,33.7 L530.4,56.7 L524.4,56.7 L524.4,16.7 L530.4,16.7 Z" id="路径"></path>
                        <path d="M588.8,51.9 C591.4,51.9 593.6,51.2 595.6,49.7 C597.6,48.3 599,46.4 599.9,44.1 L606.4,44.1 C605.2,48 602.9,51.2 599.7,53.6 C596.3,56.1 592.2,57.3 587.5,57.3 C581.6,57.3 576.9,55.3 573.2,51.3 C569.6,47.4 567.8,42.5 567.8,36.7 C567.8,30.8 569.6,26 573.2,22.1 C576.9,18.1 581.7,16.1 587.5,16.1 C592.2,16.1 596.2,17.3 599.7,19.8 C603,22.2 605.2,25.4 606.4,29.3 L599.9,29.3 C599,27 597.6,25.1 595.6,23.7 C593.6,22.3 591.4,21.5 588.8,21.5 C586.2,21.5 584.1,21.9 582.3,22.7 C580.5,23.5 579,24.6 577.8,26 C575.2,28.9 573.9,32.5 573.9,36.7 C573.9,41 575.2,44.5 577.8,47.4 C580.4,50.4 584.1,51.9 588.8,51.9 Z" id="路径"></path>
                        <path d="M632.3,51.9 C637.7,51.9 641.6,49.7 643.9,45.2 L650.5,45.2 C649.1,48.8 646.9,51.8 643.9,54 C640.9,56.2 637,57.4 632.3,57.4 C626.3,57.4 621.4,55.4 617.6,51.4 C613.9,47.5 612.1,42.6 612.1,36.8 C612.1,30.9 613.9,26 617.4,22.2 C621.1,18.2 626,16.2 632,16.2 C638,16.2 642.8,18.2 646.6,22.2 C650.1,26 651.9,30.9 651.9,36.8 L651.9,39.2 L618.4,39.2 C618.8,42.9 620.3,45.9 622.8,48.3 C625.1,50.7 628.3,51.9 632.3,51.9 Z M631.8,21.5 C628.1,21.5 625,22.6 622.5,24.9 C620.2,27.1 618.7,29.9 618.2,33.5 L645.4,33.5 C644.9,30 643.4,27.1 641.1,24.9 C638.6,22.6 635.5,21.5 631.8,21.5 Z" id="形状"></path>
                    </g>
                </g>
            </g>
        </g>
    </g>
</svg>