<?xml version="1.0" encoding="UTF-8"?>
<svg width="2268px" height="548px" viewBox="0 0 2268 548" version="1.1" xmlns="http://www.w3.org/2000/svg" xmlns:xlink="http://www.w3.org/1999/xlink">
    <!-- Generator: Sketch 57 (83077) - https://sketch.com -->
    <title>06</title>
    <desc>Created with Sketch.</desc>
    <g id="页面-1" stroke="none" stroke-width="1" fill="none" fill-rule="evenodd">
        <g id="Piraeus易拉宝" transform="translate(-179.000000, -3803.000000)" fill-rule="nonzero">
            <g id="图层_2" transform="translate(179.000000, 0.000000)">
                <rect id="矩形" fill="#1C3E7C" x="0.2" y="3791.2" width="2267.9" height="560"></rect>
                <g id="编组" transform="translate(0.000000, 277.000000)">
                    <g id="secure" transform="translate(221.000000, 3638.000000)" fill="#FFFFFF">
                        <g id="shield">
                            <g id="编组">
                                <g id="Combined-Shape" transform="translate(0.299727, 0.297698)">
                                    <path d="M165,32 L63.8,32 C62,48.9 48.6,62.2 31.7,64.1 L31.7,94 C31.7,147.5 64.6,195.3 114.5,214.5 C164.1,195.3 196.9,147.4 196.9,94 L196.9,64.1 C180.1,62.3 166.8,48.9 165,32 Z M112.9,222.3 C59.3,202.3 23.8,151.1 23.8,94 L23.8,60.4 C23.8,58.2 25.6,56.5 27.7,56.5 C43.4,56.5 56.1,43.8 56.1,28.2 C56.1,26 57.9,24.3 60,24.3 L168.6,24.3 C170.8,24.3 172.5,26.1 172.5,28.2 C172.5,43.9 185.1,56.5 200.7,56.5 C202.9,56.5 204.6,58.3 204.6,60.4 L204.6,94 C204.6,151.1 169.3,202.3 116.1,222.3 C115.5,222.5 115,222.6 114.4,222.5 C114,222.6 113.4,222.5 112.9,222.3 Z" id="形状"></path>
                                    <path d="M219.1,87.9 L219.1,49.1 C197.6,47.2 180.5,30 178.7,8.4 L48.8,8.4 C46.9,30 29.7,47.2 8.1,49.1 L8.1,87.9 C8.1,156 50.2,217.1 113.8,241.4 C177.4,217 219.1,156 219.1,87.9 Z M112.2,249.3 C44.8,224.1 0.2,159.8 0.2,87.9 L0.2,45.3 C0.2,43.1 2,41.4 4.1,41.4 C24.5,41.4 41,24.9 41,4.5 C41,2.3 42.8,0.6 44.9,0.6 L182.3,0.6 C184.5,0.6 186.2,2.4 186.2,4.5 C186.2,24.9 202.6,41.4 222.9,41.4 C225.1,41.4 226.8,43.2 226.8,45.3 L226.8,87.9 C226.8,159.8 182.4,224.1 115.5,249.3 C114.9,249.5 114.3,249.6 113.8,249.5 C113.4,249.5 112.8,249.5 112.2,249.3 Z" id="形状"></path>
                                </g>
                                <g id="lock" transform="translate(90.555905, 80.670936)">
                                    <path d="M11,43.8 C4.4,39.5 0.3,32.1 0.4,24.1 C0.5,11.2 11,0.7 23.9,0.79929159 C36.8,0.9 47.3,11.4 47.2,24.3 C47.2,32.2 43.1,39.5 36.6,43.8 L37.5,50 C37.9,52.8 38.8,60.2 40.2,72 C40.3,72.4 40.3,72.8 40.3,73.2 C40.3,77.6 35.8,80.8 31.6,80.8 L15.9,80.8 C15.2,80.8 14.3,80.8 13.9,80.7 C9.7,80.1 6.8,76.2 7.4,72.1 C8.8,60.5 9.7,53.4 10,50.7 L11,43.8 Z M23.8,8.2 C15,8.2 7.8,15.3 7.8,24.1 C7.8,30.2 11.2,35.8 16.7,38.5 L19.1,39.7 L17.4,51.9 C17,54.5 16.2,61.6 14.8,73.2 C14.8,73.3 14.8,73.4 14.9,73.4 C15,73.4 15.1,73.4 15.3,73.4 C15.6,73.4 15.9,73.4 16,73.4 L31.8,73.4 C32,73.4 32.5,73.2 32.8,73 C32.8,73 32.9,72.9 32.9,72.9 C31.5,61.1 30.6,53.8 30.2,51.1 L28.6,39.7 L31,38.5 C36.4,35.8 39.8,30.3 39.8,24.3 C39.8,15.4 32.7,8.3 23.8,8.2 Z" id="Shape_22_"></path>
                                </g>
                            </g>
                        </g>
                    </g>
                    <g transform="translate(671.000000, 3651.000000)" fill="#EDCD70" stroke="#EDCD70" stroke-width="2">
                        <path d="M10.3,9.5 C9.3,10.4 8.6,11.4 8.3,12.4 C8,13.5 7.8,14.6 7.8,15.8 C7.8,17 8.3,18.1 9.4,19.1 C10.4,20.1 11.8,21 13.5,21.7 C15.2,22.4 17.2,23 19.3,23.5 C21.5,24 23.7,24.6 26,25.1 C28.3,25.7 30.5,26.3 32.7,27 C34.9,27.7 36.8,28.6 38.5,29.8 C42.3,32.2 44.2,35.5 44.2,39.6 C44.2,44.6 42.3,48.3 38.6,51 C34.9,53.6 29.8,54.9 23.2,54.9 C15.8,54.9 10.1,53.4 6.2,50.3 C2.7,47.5 0.8,43.6 0.3,38.5 L6.5,38.5 C6.7,42.1 8.5,44.9 11.8,46.8 C14.7,48.5 18.5,49.3 23.2,49.3 C33.1,49.3 38.1,46.2 38.1,39.9 C38.1,37.8 37.2,36.1 35.4,34.9 C33.6,33.7 31.4,32.7 28.7,31.9 C26,31.1 23.1,30.4 20,29.7 C16.9,29 14,28.1 11.3,27 C8.6,25.9 6.4,24.5 4.6,22.7 C2.8,20.9 1.9,18.5 1.9,15.5 C1.9,11.2 3.6,7.7 6.9,4.9 C10.2,2.2 15.2,0.8 21.9,0.8 C28.6,0.8 33.8,2.3 37.5,5.4 C40.9,8.1 42.6,11.6 42.9,15.9 L36.7,15.9 C36.2,11.5 33.3,8.6 28.2,7.2 C26.4,6.7 24.1,6.4 21.4,6.4 C18.7,6.4 16.4,6.7 14.6,7.3 C12.7,7.9 11.3,8.6 10.3,9.5 Z" id="路径"></path>
                        <path d="M70.6,49.5 C76,49.5 79.9,47.3 82.2,42.8 L88.8,42.8 C87.4,46.4 85.2,49.4 82.2,51.6 C79.2,53.8 75.3,55 70.6,55 C64.6,55 59.7,53 55.9,49 C52.2,45.1 50.4,40.2 50.4,34.4 C50.4,28.5 52.2,23.6 55.7,19.8 C59.4,15.8 64.3,13.8 70.3,13.8 C76.3,13.8 81.1,15.8 84.9,19.8 C88.4,23.6 90.2,28.5 90.2,34.4 L90.2,36.8 L56.7,36.8 C57.1,40.5 58.6,43.5 61.1,45.9 C63.4,48.3 66.7,49.5 70.6,49.5 Z M70.1,19.1 C66.4,19.1 63.3,20.2 60.8,22.5 C58.5,24.7 57,27.5 56.5,31.1 L83.7,31.1 C83.2,27.6 81.7,24.7 79.4,22.5 C76.9,20.3 73.8,19.1 70.1,19.1 Z" id="形状"></path>
                        <path d="M116.5,49.5 C119.1,49.5 121.3,48.8 123.3,47.3 C125.3,45.9 126.7,44 127.6,41.7 L134.1,41.7 C132.9,45.6 130.6,48.8 127.4,51.2 C124,53.7 119.9,54.9 115.2,54.9 C109.3,54.9 104.6,52.9 100.9,48.9 C97.3,45 95.5,40.1 95.5,34.3 C95.5,28.4 97.3,23.6 100.9,19.7 C104.6,15.7 109.4,13.7 115.2,13.7 C119.9,13.7 123.9,14.9 127.4,17.4 C130.7,19.8 132.9,23 134.1,26.9 L127.6,26.9 C126.7,24.6 125.3,22.7 123.3,21.3 C121.3,19.9 119.1,19.1 116.5,19.1 C113.9,19.1 111.8,19.5 110,20.3 C108.2,21.1 106.7,22.2 105.5,23.6 C102.9,26.5 101.6,30.1 101.6,34.3 C101.6,38.6 102.9,42.1 105.5,45 C108.1,48 111.8,49.5 116.5,49.5 Z" id="路径"></path>
                        <path d="M171,54.3 L171,48.1 C169.6,50 167.8,51.6 165.7,53 C163.6,54.3 161.2,55 158.6,55 C156,55 153.6,54.6 151.7,53.9 C149.8,53.2 148.1,52 146.7,50.5 C143.4,47.2 141.7,43 141.7,37.6 L141.7,14.3 L147.7,14.3 L147.7,37.4 C147.7,41.1 148.7,44 150.8,46.2 C152.9,48.4 155.6,49.5 158.9,49.5 C162.3,49.5 165.1,48.4 167.5,46.1 C169.8,43.8 171,40.9 171,37.3 L171,14.3 L177,14.3 L177,54.3 L171,54.3 L171,54.3 Z" id="路径"></path>
                        <path d="M209.2,13.7 L209.2,19.7 L208.5,19.7 C204.2,19.7 200.7,21.4 197.9,24.9 C195.3,28.2 194.1,32.2 194.1,36.7 L194.1,54.3 L188.1,54.3 L188.1,14.3 L194.1,14.3 L194.1,24.1 C195.4,19.9 198.2,16.9 202.4,14.9 C204.2,14 206.3,13.6 208.8,13.6 L209.2,13.6 L209.2,13.7 Z" id="路径"></path>
                        <path d="M233.1,49.5 C238.5,49.5 242.4,47.3 244.7,42.8 L251.3,42.8 C249.9,46.4 247.7,49.4 244.7,51.6 C241.7,53.8 237.8,55 233.1,55 C227.1,55 222.2,53 218.4,49 C214.7,45.1 212.9,40.2 212.9,34.4 C212.9,28.5 214.7,23.6 218.2,19.8 C221.9,15.8 226.8,13.8 232.8,13.8 C238.8,13.8 243.6,15.8 247.4,19.8 C250.9,23.6 252.7,28.5 252.7,34.4 L252.7,36.8 L219.2,36.8 C219.6,40.5 221.1,43.5 223.6,45.9 C225.9,48.3 229.1,49.5 233.1,49.5 Z M232.6,19.1 C228.9,19.1 225.8,20.2 223.3,22.5 C221,24.7 219.5,27.5 219,31.1 L246.2,31.1 C245.7,27.6 244.2,24.7 241.9,22.5 C239.4,20.3 236.3,19.1 232.6,19.1 Z" id="形状"></path>
                    </g>
                    <g transform="translate(670.000000, 3768.000000)" fill="#FFFFFF">
                        <path d="M9.7,10 C8.8,10.8 8.2,11.6 7.9,12.6 C7.6,13.5 7.4,14.5 7.4,15.6 C7.4,16.7 7.9,17.6 8.8,18.5 C9.7,19.4 10.9,20.1 12.4,20.7 C13.9,21.3 15.6,21.8 17.5,22.3 C19.4,22.8 21.4,23.2 23.3,23.7 C25.2,24.2 27.2,24.7 29.1,25.4 C31,26 32.7,26.8 34.2,27.8 C37.5,29.9 39.2,32.8 39.2,36.4 C39.2,40.7 37.6,44.1 34.3,46.3 C31.1,48.6 26.6,49.7 20.8,49.7 C14.3,49.7 9.4,48.3 6,45.6 C3,43.2 1.2,39.7 0.8,35.2 L6.3,35.2 C6.5,38.4 8,40.8 10.9,42.5 C13.4,43.9 16.8,44.7 20.9,44.7 C29.6,44.7 33.9,42 33.9,36.5 C33.9,34.6 33.1,33.2 31.6,32.1 C30,31 28.1,30.1 25.7,29.4 C23.3,28.7 20.8,28 18.1,27.4 C15.4,26.8 12.8,26 10.5,25.1 C8.1,24.1 6.2,22.9 4.6,21.3 C3,19.7 2.3,17.6 2.3,15 C2.3,11.2 3.7,8.1 6.6,5.8 C9.5,3.4 13.9,2.2 19.7,2.2 C25.6,2.2 30.1,3.6 33.3,6.3 C36.2,8.7 37.8,11.7 38,15.5 L32.6,15.5 C32.1,11.7 29.7,9.1 25.2,7.9 C23.6,7.4 21.6,7.2 19.3,7.2 C17,7.2 15,7.5 13.4,8 C11.9,8.5 10.6,9.2 9.7,10 Z" id="路径"></path>
                        <path d="M71.6,49.2 L71.6,43.7 C70.3,45.4 68.8,46.8 67,48 C65.2,49.2 63.1,49.8 60.8,49.8 C58.5,49.8 56.5,49.5 54.8,48.8 C53.1,48.1 51.6,47.2 50.4,45.9 C47.5,43.1 46.1,39.3 46.1,34.6 L46.1,14.2 L51.3,14.2 L51.3,34.4 C51.3,37.6 52.2,40.2 54,42.1 C55.8,44 58.2,45 61.1,45 C64,45 66.5,44 68.6,42.1 C70.7,40.1 71.7,37.5 71.7,34.4 L71.7,14.2 L76.9,14.2 L76.9,49.2 L71.6,49.2 L71.6,49.2 Z" id="路径"></path>
                        <path d="M91.2,19.8 C94,15.7 98.2,13.6 103.7,13.6 C108.7,13.6 112.8,15.4 115.9,18.8 C119,22.3 120.6,26.5 120.6,31.6 C120.6,36.7 119,41 115.9,44.4 C112.8,47.9 108.6,49.6 103.3,49.6 C98,49.6 94,47.5 91.1,43.4 L91.1,62.9 L86,62.9 L86,14 L91.2,14 L91.2,19.8 Z M103,18.4 C99.2,18.4 96.2,19.7 94,22.3 C91.9,24.8 90.8,27.9 90.8,31.7 C90.8,35.5 91.9,38.6 94,41.1 C96.2,43.7 99.2,45 103,45 C106.7,45 109.8,43.7 112.1,41.1 C114.3,38.6 115.4,35.5 115.4,31.7 C115.4,27.9 114.3,24.8 112.1,22.3 C109.8,19.7 106.8,18.4 103,18.4 Z" id="形状"></path>
                        <path d="M132.8,19.8 C135.6,15.7 139.8,13.6 145.3,13.6 C150.3,13.6 154.4,15.4 157.5,18.8 C160.6,22.3 162.2,26.5 162.2,31.6 C162.2,36.7 160.6,41 157.5,44.4 C154.4,47.9 150.2,49.6 144.9,49.6 C139.6,49.6 135.6,47.5 132.7,43.4 L132.7,62.9 L127.5,62.9 L127.5,14 L132.7,14 L132.7,19.8 L132.8,19.8 Z M144.6,18.4 C140.8,18.4 137.8,19.7 135.6,22.3 C133.5,24.8 132.4,27.9 132.4,31.7 C132.4,35.5 133.5,38.6 135.6,41.1 C137.8,43.7 140.8,45 144.6,45 C148.3,45 151.4,43.7 153.7,41.1 C155.9,38.6 157,35.5 157,31.7 C157,27.9 155.9,24.8 153.7,22.3 C151.4,19.7 148.3,18.4 144.6,18.4 Z" id="形状"></path>
                        <path d="M184.3,13.6 C189.5,13.6 193.8,15.4 197,18.8 C200.1,22.2 201.6,26.4 201.6,31.6 C201.6,36.8 200.1,41.1 197,44.4 C193.7,47.9 189.5,49.6 184.3,49.6 C179.1,49.6 174.8,47.8 171.6,44.4 C168.5,41 167,36.8 167,31.6 C167,26.4 168.5,22.1 171.6,18.8 C174.8,15.4 179.1,13.6 184.3,13.6 Z M184.3,45 C188.1,45 191.1,43.7 193.3,41.1 C195.4,38.6 196.4,35.5 196.4,31.7 C196.4,27.9 195.4,24.8 193.3,22.3 C191.1,19.7 188.1,18.4 184.3,18.4 C180.5,18.4 177.5,19.7 175.3,22.3 C173.2,24.8 172.1,27.9 172.1,31.7 C172.1,35.5 173.1,38.6 175.3,41.1 C177.5,43.7 180.5,45 184.3,45 Z" id="形状"></path>
                        <path d="M227.1,13.6 L227.1,18.8 L226.5,18.8 C222.7,18.8 219.6,20.3 217.3,23.3 C215.1,26.2 213.9,29.6 213.9,33.7 L213.9,49.1 L208.7,49.1 L208.7,14.1 L213.9,14.1 L213.9,22.7 C215,19.1 217.4,16.4 221.2,14.7 C222.7,14 224.6,13.6 226.8,13.6 L227.1,13.6 L227.1,13.6 Z" id="路径"></path>
                        <polygon id="路径" points="236.5 49.2 236.5 18.8 229.4 18.8 229.4 14.2 236.5 14.2 236.5 1.7 241.7 1.7 241.7 14.2 249.7 14.2 249.7 18.8 241.7 18.8 241.7 49.2"></polygon>
                        <path d="M276.1,23.6 C275.6,20 272.7,18.1 267.3,18.1 C261.9,18.1 259.2,19.8 259.2,23.1 C259.2,24.5 259.8,25.6 260.9,26.3 C262,27 263.5,27.6 265.2,28.1 C266.9,28.6 268.8,29 270.8,29.4 C272.8,29.8 274.7,30.4 276.4,31.1 C278.1,31.8 279.6,32.8 280.7,34.1 C281.8,35.4 282.4,37.1 282.4,39.3 C282.4,42.7 281.1,45.3 278.5,47.1 C275.9,48.9 272.5,49.8 268.1,49.8 C263.4,49.8 259.7,48.6 257,46.3 C254.5,44.2 253.1,41.6 252.9,38.2 L258.4,38.2 C258.7,41.4 260.5,43.6 263.9,44.7 C265.1,45.1 266.3,45.3 267.5,45.3 C268.7,45.3 269.8,45.2 270.8,45.1 C271.8,45 272.8,44.7 273.8,44.3 C276,43.4 277.2,41.9 277.2,39.7 C277.2,38.3 276.6,37.1 275.5,36.4 C274.4,35.6 272.9,35 271.2,34.5 C269.5,34 267.6,33.6 265.6,33.2 C263.6,32.8 261.7,32.3 260,31.6 C258.3,30.9 256.8,29.9 255.7,28.7 C254.6,27.5 254,25.8 254,23.7 C254,20.5 255.2,18.1 257.5,16.3 C259.8,14.5 263.2,13.7 267.8,13.7 C272.1,13.7 275.5,14.7 277.9,16.8 C280,18.5 281.1,20.8 281.5,23.7 L276.1,23.7 L276.1,23.6 Z" id="路径"></path>
                        <polygon id="路径" points="338.2 7.9 322 7.9 322 49.2 316.8 49.2 316.8 7.9 300.6 7.9 300.6 2.9 338.2 2.9 338.2 7.9"></polygon>
                        <polygon id="路径" points="350.1 2.9 350.1 44.2 375.4 44.2 375.4 49.2 344.9 49.2 344.9 2.9"></polygon>
                        <path d="M387.5,10 C386.6,10.8 386,11.6 385.7,12.6 C385.4,13.5 385.2,14.5 385.2,15.6 C385.2,16.7 385.7,17.6 386.6,18.5 C387.5,19.4 388.7,20.1 390.2,20.7 C391.7,21.3 393.4,21.8 395.3,22.3 C397.2,22.8 399.2,23.2 401.1,23.7 C403,24.2 405,24.7 406.9,25.4 C408.8,26 410.5,26.8 412,27.8 C415.3,29.9 417,32.8 417,36.4 C417,40.7 415.4,44.1 412.1,46.3 C408.9,48.6 404.4,49.7 398.6,49.7 C392.1,49.7 387.2,48.3 383.8,45.6 C380.8,43.2 379,39.7 378.6,35.2 L384.1,35.2 C384.3,38.4 385.8,40.8 388.7,42.5 C391.2,43.9 394.6,44.7 398.7,44.7 C407.4,44.7 411.7,42 411.7,36.5 C411.7,34.6 410.9,33.2 409.4,32.1 C407.8,31 405.9,30.1 403.5,29.4 C401.1,28.7 398.6,28 395.9,27.4 C393.2,26.8 390.6,26 388.3,25.1 C385.9,24.1 384,22.9 382.4,21.3 C380.8,19.7 380.1,17.6 380.1,15 C380.1,11.2 381.5,8.1 384.4,5.8 C387.3,3.4 391.7,2.2 397.5,2.2 C403.4,2.2 407.9,3.6 411.1,6.3 C414,8.7 415.6,11.7 415.8,15.5 L410.4,15.5 C409.9,11.7 407.5,9.1 403,7.9 C401.4,7.4 399.4,7.2 397.1,7.2 C394.8,7.2 392.8,7.5 391.2,8 C389.6,8.5 388.4,9.2 387.5,10 Z" id="路径"></path>
                        <polygon id="路径" points="424.4 43.6 431.3 43.6 425.1 58.5 420.3 58.5"></polygon>
                        <path d="M476.1,2.3 C483,2.3 488.7,4.6 493.1,9.2 C497.4,13.7 499.6,19.3 499.6,26 C499.6,32.7 497.4,38.3 493.1,42.8 C488.7,47.4 483,49.7 476.1,49.7 C469.2,49.7 463.5,47.4 459.1,42.8 C454.8,38.3 452.6,32.7 452.6,26 C452.6,19.3 454.8,13.7 459.1,9.2 C463.5,4.6 469.2,2.3 476.1,2.3 Z M476.1,44.7 C481.6,44.7 486.1,42.9 489.5,39.3 C492.8,35.8 494.4,31.4 494.4,26.1 C494.4,20.7 492.8,16.3 489.5,12.9 C486.1,9.3 481.6,7.5 476.1,7.5 C470.6,7.5 466.1,9.3 462.7,12.9 C459.4,16.4 457.8,20.8 457.8,26.1 C457.8,31.5 459.4,35.9 462.7,39.3 C466.2,42.9 470.6,44.7 476.1,44.7 Z" id="形状"></path>
                        <path d="M512.2,19.8 C515,15.7 519.2,13.6 524.7,13.6 C529.7,13.6 533.8,15.4 536.9,18.8 C540,22.3 541.6,26.5 541.6,31.6 C541.6,36.7 540,41 536.9,44.4 C533.8,47.9 529.6,49.6 524.3,49.6 C519,49.6 515,47.5 512.1,43.4 L512.1,62.9 L506.9,62.9 L506.9,14 L512.1,14 L512.1,19.8 L512.2,19.8 Z M524,18.4 C520.2,18.4 517.2,19.7 515,22.3 C512.9,24.8 511.8,27.9 511.8,31.7 C511.8,35.5 512.9,38.6 515,41.1 C517.2,43.7 520.2,45 524,45 C527.7,45 530.8,43.7 533.1,41.1 C535.3,38.6 536.4,35.5 536.4,31.7 C536.4,27.9 535.3,24.8 533.1,22.3 C530.8,19.7 527.7,18.4 524,18.4 Z" id="形状"></path>
                        <path d="M564.1,45 C568.8,45 572.2,43 574.2,39.1 L579.9,39.1 C578.7,42.3 576.8,44.8 574.1,46.8 C571.5,48.8 568.1,49.7 563.9,49.7 C558.6,49.7 554.3,47.9 551,44.5 C547.8,41.1 546.2,36.8 546.2,31.7 C546.2,26.5 547.7,22.2 550.8,18.9 C554.1,15.4 558.3,13.7 563.5,13.7 C568.7,13.7 573,15.5 576.2,18.9 C579.3,22.3 580.8,26.5 580.8,31.7 L580.8,33.8 L551.5,33.8 C551.9,37 553.2,39.7 555.4,41.8 C557.8,43.9 560.7,45 564.1,45 Z M563.7,18.4 C560.5,18.4 557.8,19.4 555.6,21.4 C553.5,23.3 552.3,25.8 551.8,28.9 L575.6,28.9 C575.1,25.8 573.9,23.3 571.8,21.4 C569.6,19.4 566.9,18.4 563.7,18.4 Z" id="形状"></path>
                        <path d="M592.7,14.2 L592.7,19.7 C594,18 595.5,16.6 597.3,15.4 C599.1,14.2 601.2,13.6 603.5,13.6 C605.8,13.6 607.8,13.9 609.5,14.6 C611.2,15.3 612.7,16.2 613.9,17.5 C616.8,20.3 618.2,24.1 618.2,28.8 L618.2,49.2 L613,49.2 L613,29 C613,25.8 612.1,23.2 610.3,21.3 C608.5,19.4 606.1,18.4 603.2,18.4 C600.3,18.4 597.8,19.4 595.7,21.3 C593.6,23.3 592.6,25.9 592.6,29 L592.6,49.2 L587.4,49.2 L587.4,14.2 L592.7,14.2 Z" id="路径"></path>
                        <path d="M633.2,10 C632.3,10.8 631.7,11.6 631.4,12.6 C631.1,13.5 630.9,14.5 630.9,15.6 C630.9,16.7 631.4,17.6 632.3,18.5 C633.2,19.4 634.4,20.1 635.9,20.7 C637.4,21.3 639.1,21.8 641,22.3 C642.9,22.8 644.9,23.2 646.8,23.7 C648.7,24.2 650.7,24.7 652.6,25.4 C654.5,26 656.2,26.8 657.7,27.8 C661,29.9 662.7,32.8 662.7,36.4 C662.7,40.7 661.1,44.1 657.8,46.3 C654.6,48.6 650.1,49.7 644.3,49.7 C637.8,49.7 632.9,48.3 629.5,45.6 C626.5,43.2 624.7,39.7 624.3,35.2 L629.8,35.2 C630,38.4 631.5,40.8 634.4,42.5 C636.9,43.9 640.3,44.7 644.4,44.7 C653.1,44.7 657.4,42 657.4,36.5 C657.4,34.6 656.6,33.2 655.1,32.1 C653.5,31 651.6,30.1 649.2,29.4 C646.8,28.7 644.3,28 641.6,27.4 C638.9,26.8 636.3,26 634,25.1 C631.6,24.1 629.7,22.9 628.1,21.3 C626.5,19.7 625.8,17.6 625.8,15 C625.8,11.2 627.2,8.1 630.1,5.8 C633,3.4 637.4,2.2 643.2,2.2 C649.1,2.2 653.6,3.6 656.8,6.3 C659.7,8.7 661.3,11.7 661.5,15.5 L656.1,15.5 C655.6,11.7 653.2,9.1 648.7,7.9 C647.1,7.4 645.1,7.2 642.8,7.2 C640.5,7.2 638.5,7.5 636.9,8 C635.3,8.5 634.1,9.2 633.2,10 Z" id="路径"></path>
                        <path d="M676.3,10 C675.4,10.8 674.8,11.6 674.5,12.6 C674.2,13.5 674,14.5 674,15.6 C674,16.7 674.5,17.6 675.4,18.5 C676.3,19.4 677.5,20.1 679,20.7 C680.5,21.3 682.2,21.8 684.1,22.3 C686,22.8 688,23.2 689.9,23.7 C691.8,24.2 693.8,24.7 695.7,25.4 C697.6,26 699.3,26.8 700.8,27.8 C704.1,29.9 705.8,32.8 705.8,36.4 C705.8,40.7 704.2,44.1 700.9,46.3 C697.7,48.6 693.2,49.7 687.4,49.7 C680.9,49.7 676,48.3 672.6,45.6 C669.6,43.2 667.8,39.7 667.4,35.2 L672.9,35.2 C673.1,38.4 674.6,40.8 677.5,42.5 C680,43.9 683.4,44.7 687.5,44.7 C696.2,44.7 700.5,42 700.5,36.5 C700.5,34.6 699.7,33.2 698.2,32.1 C696.6,31 694.7,30.1 692.3,29.4 C689.9,28.7 687.4,28 684.7,27.4 C682,26.8 679.4,26 677.1,25.1 C674.7,24.1 672.8,22.9 671.2,21.3 C669.6,19.7 668.9,17.6 668.9,15 C668.9,11.2 670.3,8.1 673.2,5.8 C676.1,3.4 680.5,2.2 686.3,2.2 C692.2,2.2 696.7,3.6 699.9,6.3 C702.8,8.7 704.4,11.7 704.6,15.5 L699.2,15.5 C698.7,11.7 696.3,9.1 691.8,7.9 C690.2,7.4 688.2,7.2 685.9,7.2 C683.6,7.2 681.6,7.5 680,8 C678.4,8.5 677.1,9.2 676.3,10 Z" id="路径"></path>
                        <polygon id="路径" points="719.2 2.9 719.2 44.2 744.5 44.2 744.5 49.2 714 49.2 714 2.9"></polygon>
                        <path d="M792.4,43.6 C789.6,47.7 785.4,49.8 779.9,49.8 C774.9,49.8 770.8,48 767.6,44.6 C764.5,41.1 763,36.9 763,31.8 C763,26.7 764.5,22.4 767.6,19 C770.8,15.5 775,13.8 780.3,13.8 C785.6,13.8 789.6,15.9 792.5,20 L792.5,14.3 L797.7,14.3 L797.7,49.3 L792.5,49.3 L792.5,43.6 L792.4,43.6 Z M780.6,45 C784.4,45 787.4,43.7 789.6,41.1 C791.7,38.6 792.7,35.5 792.7,31.7 C792.7,27.9 791.7,24.8 789.6,22.3 C787.4,19.7 784.4,18.4 780.6,18.4 C776.9,18.4 773.8,19.7 771.5,22.3 C769.3,24.8 768.2,27.9 768.2,31.7 C768.2,35.5 769.3,38.6 771.5,41.1 C773.8,43.7 776.8,45 780.6,45 Z" id="形状"></path>
                        <path d="M812,14.2 L812,19.7 C813.3,18 814.8,16.6 816.6,15.4 C818.4,14.2 820.5,13.6 822.8,13.6 C825.1,13.6 827.1,13.9 828.8,14.6 C830.5,15.3 832,16.2 833.2,17.5 C836.1,20.3 837.5,24.1 837.5,28.8 L837.5,49.2 L832.3,49.2 L832.3,29 C832.3,25.8 831.4,23.2 829.6,21.3 C827.8,19.4 825.4,18.4 822.5,18.4 C819.6,18.4 817.1,19.4 815,21.3 C812.9,23.3 811.9,25.9 811.9,29 L811.9,49.2 L806.7,49.2 L806.7,14.2 L812,14.2 Z" id="路径"></path>
                        <path d="M873.7,43.6 C870.9,47.7 866.7,49.8 861.2,49.8 C856.2,49.8 852.1,48 848.9,44.6 C845.8,41.1 844.3,36.9 844.3,31.8 C844.3,26.7 845.8,22.4 848.9,19 C852.1,15.5 856.3,13.8 861.6,13.8 C866.9,13.8 870.9,15.9 873.8,20 L873.8,0.3 L879,0.3 L879,49.3 L873.8,49.3 L873.8,43.6 L873.7,43.6 Z M861.8,45 C865.6,45 868.6,43.7 870.8,41.1 C872.9,38.6 873.9,35.5 873.9,31.7 C873.9,27.9 872.9,24.8 870.8,22.3 C868.6,19.7 865.6,18.4 861.8,18.4 C858.1,18.4 855,19.7 852.7,22.3 C850.5,24.8 849.4,27.9 849.4,31.7 C849.4,35.5 850.5,38.6 852.7,41.1 C855.1,43.7 858.1,45 861.8,45 Z" id="形状"></path>
                        <polygon id="路径" points="909.3 2.9 909.3 44.2 934.6 44.2 934.6 49.2 904 49.2 904 2.9"></polygon>
                        <path d="M960.9,2.9 C963.7,2.9 966.3,3.4 968.9,4.5 C971.5,5.6 973.7,7.1 975.7,9.1 C980,13.5 982.2,19.2 982.2,26.1 C982.2,33 980,38.7 975.7,43.1 C973.7,45.1 971.5,46.6 968.9,47.7 C966.3,48.8 963.7,49.3 960.9,49.3 L941.4,49.3 L941.4,3 L960.9,3 L960.9,2.9 Z M960.7,44.2 C965.6,44.2 969.5,42.4 972.5,38.8 C975.4,35.3 976.9,31.1 976.9,26 C976.9,20.9 975.4,16.6 972.5,13.2 C969.5,9.6 965.5,7.8 960.7,7.8 L946.6,7.8 L946.6,44.2 L960.7,44.2 Z" id="形状"></path>
                        <path d="M1030.2,49.2 L1024.4,49.2 L1018.7,35.8 L995.7,35.8 L990,49.2 L984.2,49.2 L1003.9,2.9 L1010.5,2.9 L1030.2,49.2 Z M1016.7,30.9 L1007.2,8.3 L997.7,30.9 L1016.7,30.9 Z" id="形状"></path>
                        <path d="M1041.3,49.2 L1036.1,49.2 L1036.1,2.9 L1057,2.9 C1061.9,2.9 1065.8,4.3 1068.7,7 C1071.5,9.7 1073,13.3 1073,17.8 C1073,22.4 1071.6,26 1068.7,28.7 C1065.8,31.4 1061.9,32.7 1057,32.7 L1041.4,32.7 L1041.4,49.2 L1041.3,49.2 Z M1041.3,7.8 L1041.3,27.8 L1056.6,27.8 C1060.2,27.8 1063,26.9 1064.9,25.1 C1066.8,23.3 1067.7,20.9 1067.7,17.8 C1067.7,14.7 1066.8,12.3 1064.9,10.5 C1063,8.7 1060.3,7.8 1056.6,7.8 L1041.3,7.8 Z" id="形状"></path>
                        <polygon id="路径" points="1074.8 43.6 1081.7 43.6 1075.5 58.5 1070.7 58.5"></polygon>
                        <path d="M1132.1,43.6 C1129.3,47.7 1125.1,49.8 1119.6,49.8 C1114.6,49.8 1110.5,48 1107.3,44.6 C1104.2,41.1 1102.7,36.9 1102.7,31.8 C1102.7,26.7 1104.2,22.4 1107.3,19 C1110.5,15.5 1114.7,13.8 1120,13.8 C1125.3,13.8 1129.3,15.9 1132.2,20 L1132.2,14.3 L1137.4,14.3 L1137.4,49.3 L1132.2,49.3 L1132.2,43.6 L1132.1,43.6 Z M1120.3,45 C1124.1,45 1127.1,43.7 1129.3,41.1 C1131.4,38.6 1132.4,35.5 1132.4,31.7 C1132.4,27.9 1131.4,24.8 1129.3,22.3 C1127.1,19.7 1124.1,18.4 1120.3,18.4 C1116.6,18.4 1113.5,19.7 1111.2,22.3 C1109,24.8 1107.9,27.9 1107.9,31.7 C1107.9,35.5 1109,38.6 1111.2,41.1 C1113.5,43.7 1116.5,45 1120.3,45 Z" id="形状"></path>
                        <path d="M1151.7,14.2 L1151.7,19.7 C1153,18 1154.5,16.6 1156.3,15.4 C1158.1,14.2 1160.2,13.6 1162.5,13.6 C1164.8,13.6 1166.8,13.9 1168.5,14.6 C1170.2,15.3 1171.7,16.2 1172.9,17.5 C1175.8,20.3 1177.2,24.1 1177.2,28.8 L1177.2,49.2 L1172,49.2 L1172,29 C1172,25.8 1171.1,23.2 1169.3,21.3 C1167.5,19.4 1165.1,18.4 1162.2,18.4 C1159.3,18.4 1156.8,19.4 1154.7,21.3 C1152.6,23.3 1151.6,25.9 1151.6,29 L1151.6,49.2 L1146.4,49.2 L1146.4,14.2 L1151.7,14.2 Z" id="路径"></path>
                        <path d="M1213.4,43.6 C1210.6,47.7 1206.4,49.8 1200.9,49.8 C1195.9,49.8 1191.8,48 1188.6,44.6 C1185.5,41.1 1184,36.9 1184,31.8 C1184,26.7 1185.5,22.4 1188.6,19 C1191.8,15.5 1196,13.8 1201.3,13.8 C1206.6,13.8 1210.6,15.9 1213.5,20 L1213.5,0.3 L1218.7,0.3 L1218.7,49.3 L1213.5,49.3 L1213.5,43.6 L1213.4,43.6 Z M1201.5,45 C1205.3,45 1208.3,43.7 1210.5,41.1 C1212.6,38.6 1213.6,35.5 1213.6,31.7 C1213.6,27.9 1212.6,24.8 1210.5,22.3 C1208.3,19.7 1205.3,18.4 1201.5,18.4 C1197.8,18.4 1194.7,19.7 1192.4,22.3 C1190.2,24.8 1189.1,27.9 1189.1,31.7 C1189.1,35.5 1190.2,38.6 1192.4,41.1 C1194.8,43.7 1197.8,45 1201.5,45 Z" id="形状"></path>
                        <path d="M1247.9,14.2 L1247.9,19.7 C1249.2,18 1250.7,16.6 1252.5,15.4 C1254.3,14.2 1256.4,13.6 1258.7,13.6 C1261,13.6 1263,13.9 1264.7,14.6 C1266.4,15.3 1267.9,16.2 1269.1,17.5 C1272,20.3 1273.4,24.1 1273.4,28.8 L1273.4,49.2 L1268.2,49.2 L1268.2,29 C1268.2,25.8 1267.3,23.2 1265.5,21.3 C1263.7,19.4 1261.3,18.4 1258.4,18.4 C1255.5,18.4 1253,19.4 1250.9,21.3 C1248.8,23.3 1247.8,25.9 1247.8,29 L1247.8,49.2 L1242.6,49.2 L1242.6,14.2 L1247.9,14.2 Z" id="路径"></path>
                        <path d="M1309.5,43.6 C1306.7,47.7 1302.5,49.8 1297,49.8 C1292,49.8 1287.9,48 1284.7,44.6 C1281.6,41.1 1280.1,36.9 1280.1,31.8 C1280.1,26.7 1281.6,22.4 1284.7,19 C1287.9,15.5 1292.1,13.8 1297.4,13.8 C1302.7,13.8 1306.7,15.9 1309.6,20 L1309.6,14.3 L1314.8,14.3 L1314.8,49.3 L1309.6,49.3 L1309.6,43.6 L1309.5,43.6 Z M1297.7,45 C1301.5,45 1304.5,43.7 1306.7,41.1 C1308.8,38.6 1309.8,35.5 1309.8,31.7 C1309.8,27.9 1308.8,24.8 1306.7,22.3 C1304.5,19.7 1301.5,18.4 1297.7,18.4 C1294,18.4 1290.9,19.7 1288.6,22.3 C1286.4,24.8 1285.3,27.9 1285.3,31.7 C1285.3,35.5 1286.4,38.6 1288.6,41.1 C1290.9,43.7 1294,45 1297.7,45 Z" id="形状"></path>
                        <polygon id="路径" points="1327.7 49.2 1327.7 18.8 1320.6 18.8 1320.6 14.2 1327.7 14.2 1327.7 1.7 1332.9 1.7 1332.9 14.2 1340.9 14.2 1340.9 18.8 1332.9 18.8 1332.9 49.2"></polygon>
                        <path d="M1352.2,1.5 L1352.2,8.4 L1346.5,8.4 L1346.5,1.5 L1352.2,1.5 Z M1346.7,14.2 L1351.9,14.2 L1351.9,49.2 L1346.7,49.2 L1346.7,14.2 Z" id="形状"></path>
                        <polygon id="路径" points="1390.4 14.2 1376.8 49.2 1370.6 49.2 1356.9 14.2 1362.6 14.2 1373.7 43.6 1384.7 14.2"></polygon>
                        <path d="M1410.5,45 C1415.2,45 1418.6,43 1420.6,39.1 L1426.3,39.1 C1425.1,42.3 1423.2,44.8 1420.5,46.8 C1417.9,48.8 1414.5,49.7 1410.3,49.7 C1405,49.7 1400.7,47.9 1397.4,44.5 C1394.2,41.1 1392.6,36.8 1392.6,31.7 C1392.6,26.5 1394.1,22.2 1397.2,18.9 C1400.5,15.4 1404.7,13.7 1409.9,13.7 C1415.1,13.7 1419.4,15.5 1422.6,18.9 C1425.7,22.3 1427.2,26.5 1427.2,31.7 L1427.2,33.8 L1397.9,33.8 C1398.3,37 1399.6,39.7 1401.8,41.8 C1404.2,43.9 1407,45 1410.5,45 Z M1410.1,18.4 C1406.9,18.4 1404.2,19.4 1402,21.4 C1399.9,23.3 1398.7,25.8 1398.2,28.9 L1422,28.9 C1421.5,25.8 1420.3,23.3 1418.2,21.4 C1416,19.4 1413.3,18.4 1410.1,18.4 Z" id="形状"></path>
                        <path d="M30.6,143.6 C27.8,147.7 23.6,149.8 18.1,149.8 C13.1,149.8 9,148 5.8,144.6 C2.7,141.1 1.2,136.9 1.2,131.8 C1.2,126.7 2.7,122.4 5.8,119 C9,115.5 13.2,113.8 18.5,113.8 C23.8,113.8 27.8,115.9 30.7,120 L30.7,100.3 L35.9,100.3 L35.9,149.3 L30.7,149.3 L30.7,143.6 L30.6,143.6 Z M18.8,145 C22.6,145 25.6,143.7 27.8,141.1 C29.9,138.6 30.9,135.5 30.9,131.7 C30.9,127.9 29.9,124.8 27.8,122.3 C25.6,119.7 22.6,118.4 18.8,118.4 C15.1,118.4 12,119.7 9.7,122.3 C7.5,124.8 6.4,127.9 6.4,131.7 C6.4,135.5 7.5,138.6 9.7,141.1 C12,143.7 15,145 18.8,145 Z" id="形状"></path>
                        <path d="M72.2,143.6 C69.4,147.7 65.2,149.8 59.7,149.8 C54.7,149.8 50.6,148 47.4,144.6 C44.3,141.1 42.8,136.9 42.8,131.8 C42.8,126.7 44.3,122.4 47.4,119 C50.6,115.5 54.8,113.8 60.1,113.8 C65.4,113.8 69.4,115.9 72.3,120 L72.3,114.3 L77.5,114.3 L77.5,149.3 L72.3,149.3 L72.3,143.6 L72.2,143.6 Z M60.4,145 C64.2,145 67.2,143.7 69.4,141.1 C71.5,138.6 72.5,135.5 72.5,131.7 C72.5,127.9 71.5,124.8 69.4,122.3 C67.2,119.7 64.2,118.4 60.4,118.4 C56.7,118.4 53.6,119.7 51.3,122.3 C49.1,124.8 48,127.9 48,131.7 C48,135.5 49.1,138.6 51.3,141.1 C53.6,143.7 56.7,145 60.4,145 Z" id="形状"></path>
                        <polygon id="路径" points="90.4 149.2 90.4 118.8 83.3 118.8 83.3 114.2 90.4 114.2 90.4 101.7 95.6 101.7 95.6 114.2 103.6 114.2 103.6 118.8 95.6 118.8 95.6 149.2"></polygon>
                        <path d="M136,143.6 C133.2,147.7 129,149.8 123.5,149.8 C118.5,149.8 114.4,148 111.2,144.6 C108.1,141.1 106.6,136.9 106.6,131.8 C106.6,126.7 108.1,122.4 111.2,119 C114.4,115.5 118.6,113.8 123.9,113.8 C129.2,113.8 133.2,115.9 136.1,120 L136.1,114.3 L141.3,114.3 L141.3,149.3 L136,149.3 L136,143.6 Z M124.2,145 C128,145 131,143.7 133.2,141.1 C135.3,138.6 136.3,135.5 136.3,131.7 C136.3,127.9 135.3,124.8 133.2,122.3 C131,119.7 128,118.4 124.2,118.4 C120.5,118.4 117.4,119.7 115.1,122.3 C112.9,124.8 111.8,127.9 111.8,131.7 C111.8,135.5 112.9,138.6 115.1,141.1 C117.4,143.7 120.4,145 124.2,145 Z" id="形状"></path>
                        <path d="M180.9,145 C185.6,145 189,143 191,139.1 L196.7,139.1 C195.5,142.3 193.6,144.8 190.9,146.8 C188.3,148.8 184.9,149.7 180.7,149.7 C175.4,149.7 171.1,147.9 167.8,144.5 C164.6,141.1 163,136.8 163,131.7 C163,126.5 164.5,122.2 167.6,118.9 C170.9,115.4 175.1,113.7 180.3,113.7 C185.5,113.7 189.8,115.5 193,118.9 C196.1,122.3 197.6,126.5 197.6,131.7 L197.6,133.8 L168.3,133.8 C168.7,137 170,139.7 172.2,141.8 C174.6,143.9 177.4,145 180.9,145 Z M180.5,118.4 C177.3,118.4 174.6,119.4 172.4,121.4 C170.3,123.3 169.1,125.8 168.6,128.9 L192.4,128.9 C191.9,125.8 190.7,123.3 188.6,121.4 C186.4,119.4 183.7,118.4 180.5,118.4 Z" id="形状"></path>
                        <path d="M209.5,114.2 L209.5,119.7 C210.8,118 212.3,116.6 214.1,115.4 C215.9,114.2 218,113.6 220.3,113.6 C222.6,113.6 224.6,113.9 226.3,114.6 C228,115.3 229.5,116.2 230.7,117.5 C233.6,120.3 235,124.1 235,128.8 L235,149.2 L229.8,149.2 L229.8,129 C229.8,125.8 228.9,123.2 227.1,121.3 C225.3,119.4 222.9,118.4 220,118.4 C217.1,118.4 214.6,119.4 212.5,121.3 C210.4,123.3 209.4,125.9 209.4,129 L209.4,149.2 L204.2,149.2 L204.2,114.2 L209.5,114.2 Z" id="路径"></path>
                        <path d="M260,145 C262.2,145 264.2,144.4 266,143.1 C267.7,141.8 269,140.2 269.8,138.2 L275.5,138.2 C274.4,141.7 272.5,144.4 269.6,146.5 C266.6,148.6 263.1,149.7 259,149.7 C253.9,149.7 249.7,147.9 246.5,144.5 C243.4,141.1 241.8,136.8 241.8,131.7 C241.8,126.6 243.4,122.3 246.5,118.9 C249.7,115.4 253.9,113.7 259,113.7 C263.1,113.7 266.7,114.8 269.6,116.9 C272.4,119 274.4,121.8 275.5,125.2 L269.8,125.2 C269,123.2 267.7,121.6 266,120.3 C264.3,119 262.3,118.4 260,118.4 C257.8,118.4 255.9,118.7 254.3,119.4 C252.7,120.1 251.4,121.1 250.3,122.3 C248,124.8 246.9,127.9 246.9,131.7 C246.9,135.4 248,138.6 250.3,141.1 C252.7,143.7 255.9,145 260,145 Z" id="路径"></path>
                        <path d="M300.4,113.6 L300.4,118.8 L299.8,118.8 C296,118.8 292.9,120.3 290.6,123.3 C288.4,126.2 287.2,129.6 287.2,133.7 L287.2,149.1 L282,149.1 L282,114.1 L287.2,114.1 L287.2,122.7 C288.3,119.1 290.7,116.4 294.5,114.7 C296,114 297.9,113.6 300.1,113.6 L300.4,113.6 L300.4,113.6 Z" id="路径"></path>
                        <polygon id="路径" points="315.4 163.1 309.7 163.1 316.1 148.7 301.8 114.2 307.6 114.2 318.9 142.9 330.4 114.2 336.1 114.2"></polygon>
                        <path d="M346.1,119.8 C348.9,115.7 353.1,113.6 358.6,113.6 C363.6,113.6 367.7,115.4 370.9,118.8 C374,122.3 375.6,126.5 375.6,131.6 C375.6,136.7 374,141 370.9,144.4 C367.8,147.9 363.6,149.6 358.3,149.6 C353,149.6 349,147.5 346.1,143.4 L346.1,162.9 L340.9,162.9 L340.9,114 L346.1,114 L346.1,119.8 Z M358,118.4 C354.2,118.4 351.2,119.7 349,122.3 C346.9,124.8 345.8,127.9 345.8,131.7 C345.8,135.5 346.9,138.6 349,141.1 C351.2,143.7 354.2,145 358,145 C361.7,145 364.8,143.7 367.1,141.1 C369.3,138.6 370.4,135.5 370.4,131.7 C370.4,127.9 369.3,124.8 367.1,122.3 C364.7,119.7 361.7,118.4 358,118.4 Z" id="形状"></path>
                        <polygon id="路径" points="385.6 149.2 385.6 118.8 378.5 118.8 378.5 114.2 385.6 114.2 385.6 101.7 390.8 101.7 390.8 114.2 398.8 114.2 398.8 118.8 390.8 118.8 390.8 149.2"></polygon>
                        <path d="M410.1,101.5 L410.1,108.4 L404.4,108.4 L404.4,101.5 L410.1,101.5 Z M404.7,114.2 L409.9,114.2 L409.9,149.2 L404.7,149.2 L404.7,114.2 Z" id="形状"></path>
                        <path d="M434.2,113.6 C439.4,113.6 443.7,115.4 446.9,118.8 C450,122.2 451.5,126.4 451.5,131.6 C451.5,136.8 450,141.1 446.9,144.4 C443.6,147.9 439.4,149.6 434.2,149.6 C429,149.6 424.7,147.8 421.5,144.4 C418.4,141 416.9,136.8 416.9,131.6 C416.9,126.4 418.4,122.1 421.5,118.8 C424.7,115.4 429,113.6 434.2,113.6 Z M434.2,145 C438,145 441,143.7 443.2,141.1 C445.3,138.6 446.3,135.5 446.3,131.7 C446.3,127.9 445.3,124.8 443.2,122.3 C441,119.7 438,118.4 434.2,118.4 C430.4,118.4 427.4,119.7 425.2,122.3 C423.1,124.8 422,127.9 422,131.7 C422,135.5 423,138.6 425.2,141.1 C427.4,143.7 430.4,145 434.2,145 Z" id="形状"></path>
                        <path d="M463.7,114.2 L463.7,119.7 C465,118 466.5,116.6 468.3,115.4 C470.1,114.2 472.2,113.6 474.5,113.6 C476.8,113.6 478.8,113.9 480.5,114.6 C482.2,115.3 483.7,116.2 484.9,117.5 C487.8,120.3 489.2,124.1 489.2,128.8 L489.2,149.2 L484,149.2 L484,129 C484,125.8 483.1,123.2 481.3,121.3 C479.5,119.4 477.1,118.4 474.2,118.4 C471.3,118.4 468.8,119.4 466.7,121.3 C464.6,123.3 463.6,125.9 463.6,129 L463.6,149.2 L458.4,149.2 L458.4,114.2 L463.7,114.2 Z" id="路径"></path>
                        <polygon id="路径" points="542.3 114.2 528.7 149.2 522.5 149.2 508.8 114.2 514.5 114.2 525.6 143.6 536.6 114.2"></polygon>
                        <path d="M552.7,101.5 L552.7,108.4 L547,108.4 L547,101.5 L552.7,101.5 Z M547.2,114.2 L552.4,114.2 L552.4,149.2 L547.2,149.2 L547.2,114.2 Z" id="形状"></path>
                        <path d="M588.9,143.6 C586.1,147.7 581.9,149.8 576.4,149.8 C571.4,149.8 567.3,148 564.1,144.6 C561,141.1 559.5,136.9 559.5,131.8 C559.5,126.7 561,122.4 564.1,119 C567.3,115.5 571.5,113.8 576.8,113.8 C582.1,113.8 586.1,115.9 589,120 L589,114.3 L594.2,114.3 L594.2,149.3 L589,149.3 L589,143.6 L588.9,143.6 Z M577.1,145 C580.9,145 583.9,143.7 586.1,141.1 C588.2,138.6 589.2,135.5 589.2,131.7 C589.2,127.9 588.2,124.8 586.1,122.3 C583.9,119.7 580.9,118.4 577.1,118.4 C573.4,118.4 570.3,119.7 568,122.3 C565.8,124.8 564.7,127.9 564.7,131.7 C564.7,135.5 565.8,138.6 568,141.1 C570.3,143.7 573.3,145 577.1,145 Z" id="形状"></path>
                        <path d="M638.8,102.9 C641.6,102.9 644.2,103.4 646.8,104.5 C649.4,105.6 651.6,107.1 653.6,109.1 C657.9,113.5 660.1,119.2 660.1,126.1 C660.1,133 657.9,138.7 653.6,143.1 C651.6,145.1 649.4,146.6 646.8,147.7 C644.2,148.8 641.6,149.3 638.8,149.3 L619.3,149.3 L619.3,103 L638.8,103 L638.8,102.9 Z M638.6,144.2 C643.5,144.2 647.4,142.4 650.4,138.8 C653.3,135.3 654.8,131.1 654.8,126 C654.8,120.9 653.3,116.6 650.4,113.2 C647.4,109.6 643.4,107.8 638.6,107.8 L624.5,107.8 L624.5,144.2 L638.6,144.2 Z" id="形状"></path>
                        <path d="M673.8,149.2 L668.6,149.2 L668.6,102.9 L690.8,102.9 C695.5,102.9 699.3,104.2 702.1,106.8 C704.9,109.4 706.4,112.9 706.4,117.4 C706.4,123.2 704,127.1 699.2,129.2 C697.8,129.8 696.5,130.2 695.2,130.5 L707.4,149.2 L701.2,149.2 L690,131.4 L673.9,131.4 L673.9,149.2 L673.8,149.2 Z M673.8,126.5 L689.8,126.5 C694.7,126.5 698.2,125 700,121.9 C700.7,120.7 701,119.2 701,117.4 C701,114.5 700,112.1 698,110.4 C696,108.7 693.3,107.8 690,107.8 L673.7,107.8 L673.7,126.5 L673.8,126.5 Z" id="形状"></path>
                        <path d="M750.8,115.1 C750.8,120.2 748.7,123.7 744.6,125.5 C748.4,126.8 751,129.1 752.4,132.4 C752.9,133.7 753.2,135.2 753.2,136.9 C753.2,142.5 750.2,146.2 744.3,148.1 C742.3,148.8 740,149.1 737.4,149.1 L715.4,149.1 L715.4,102.8 L736.2,102.8 C741.2,102.8 745,104.2 747.6,106.9 C749.7,109.1 750.8,111.8 750.8,115.1 Z M720.6,123.6 L736.1,123.6 C740.4,123.6 743.3,122.1 744.7,119.2 C745.2,118.2 745.5,117.1 745.5,115.9 C745.5,114.7 745.3,113.7 745,112.7 C744.7,111.7 744.2,111 743.5,110.3 C742,108.7 739.7,107.8 736.7,107.8 L720.6,107.8 L720.6,123.6 Z M737.9,144.2 C741.1,144.2 743.6,143.5 745.3,142.2 C747,140.9 747.9,139 747.9,136.6 C747.9,134.3 747.1,132.4 745.4,130.9 C743.5,129.2 740.9,128.4 737.4,128.4 L720.7,128.4 L720.7,144.3 L737.9,144.3 L737.9,144.2 Z" id="形状"></path>
                        <path d="M781.3,102.9 C784.1,102.9 786.7,103.4 789.3,104.5 C791.9,105.6 794.1,107.1 796.1,109.1 C800.4,113.5 802.6,119.2 802.6,126.1 C802.6,133 800.4,138.7 796.1,143.1 C794.1,145.1 791.9,146.6 789.3,147.7 C786.7,148.8 784.1,149.3 781.3,149.3 L761.8,149.3 L761.8,103 L781.3,103 L781.3,102.9 Z M781,144.2 C785.9,144.2 789.8,142.4 792.8,138.8 C795.7,135.3 797.2,131.1 797.2,126 C797.2,120.9 795.7,116.6 792.8,113.2 C789.8,109.6 785.8,107.8 781,107.8 L767,107.8 L767,144.2 L781,144.2 Z" id="形状"></path>
                        <polygon id="路径" points="809 126 826.5 126 826.5 131.1 809 131.1"></polygon>
                        <path d="M839.8,138.4 C841.1,142.6 843.9,144.6 848.1,144.6 C852.2,144.6 855.3,142.8 857.5,139.1 C859.5,135.8 860.4,131.4 860.4,125.8 C859.3,127.8 857.6,129.3 855.5,130.6 C853.3,131.8 851,132.4 848.6,132.4 C846.2,132.4 844,132 842.1,131.3 C840.2,130.6 838.5,129.5 837.1,128.2 C834,125.3 832.5,121.7 832.5,117.4 C832.5,113.2 834.1,109.6 837.2,106.6 C840.2,103.8 844,102.3 848.5,102.3 C854.1,102.3 858.4,104.3 861.3,108.4 C864.2,112.5 865.6,118.4 865.6,126 C865.6,137.4 862.3,144.8 855.7,148 C853.5,149.1 851.1,149.7 848.5,149.7 C845.9,149.7 843.8,149.4 842.2,148.7 C840.6,148 839.2,147.2 838.1,146.1 C835.9,144 834.4,141.5 833.8,138.3 L839.8,138.3 L839.8,138.4 Z M848.6,127.4 C850,127.4 851.4,127.2 852.7,126.7 C854,126.2 855.2,125.6 856.1,124.7 C858.2,122.9 859.2,120.5 859.2,117.7 C859.2,114.7 858.2,112.2 856.1,110.3 C854.1,108.4 851.6,107.4 848.5,107.4 C845.5,107.4 843,108.3 840.9,110.2 C838.8,112.1 837.7,114.5 837.7,117.3 C837.7,120.1 838.7,122.5 840.9,124.5 C843.1,126.5 845.6,127.4 848.6,127.4 Z" id="形状"></path>
                    </g>
                </g>
            </g>
        </g>
    </g>
</svg>